<?xml version="1.0" encoding="UTF-8"?>
<svg version="1.1" xmlns="http://www.w3.org/2000/svg" width="1000" height="1000">
<path d="M0 0 C27.39 0 54.78 0 83 0 C93.60662121 21.21324242 96.92071839 43.98091452 89.38183594 66.87744141 C82.7979913 86.05875878 69.26034893 102.29278115 51.5625 112.29296875 C34.13851411 120.64196199 20.04072627 121 0 121 C0 81.07 0 41.14 0 0 Z " fill="#FF000E" transform="translate(732,504)"/>
<path d="M0 0 C27.39 0 54.78 0 83 0 C88.18998034 10.37996067 92.49633511 21.24781926 93 33 C93.0515625 34.0725 93.103125 35.145 93.15625 36.25 C93.72700978 59.0803913 86.60688448 80.52608577 70.82373047 97.34008789 C57.97122869 110.41623191 41.85476596 117.6602596 24 121 C16.08 121 8.16 121 0 121 C0 81.07 0 41.14 0 0 Z " fill="#FF000E" transform="translate(529,504)"/>
<path d="M0 0 C26.07 0 52.14 0 79 0 C79 22.77 79 45.54 79 69 C65.47 69 51.94 69 38 69 C37.34 71.97 36.68 74.94 36 78 C35.50238507 79.66783778 34.97424057 81.32736787 34.39599609 82.96899414 C34.09169678 83.84092407 33.78739746 84.712854 33.47387695 85.61120605 C33.16023193 86.49360962 32.84658691 87.37601318 32.5234375 88.28515625 C32.23057861 89.12139526 31.93771973 89.95763428 31.63598633 90.81921387 C30.55459634 93.90228109 29.46429186 96.98221575 28.375 100.0625 C24.724375 110.4265625 24.724375 110.4265625 21 121 C-0.12 121 -21.24 121 -43 121 C-41.20428682 114.41571834 -39.44946836 108.07970051 -37.12890625 101.70703125 C-36.85444168 100.94211868 -36.57997711 100.17720612 -36.29719543 99.38911438 C-35.38953891 96.86215063 -34.47606484 94.3373331 -33.5625 91.8125 C-32.5720188 89.06151288 -31.58287033 86.3100485 -30.59368896 83.55859375 C-29.88412778 81.58542425 -29.17403154 79.61244709 -28.46343994 77.63964844 C-25.76178432 70.13532899 -23.08291978 62.62307794 -20.41336632 55.10728264 C-19.0670467 51.31761842 -17.7189211 47.52859608 -16.37104893 43.73948383 C-15.26920771 40.64149885 -14.16866624 37.54306132 -13.06985474 34.44400024 C-11.8282337 30.94335618 -10.5824961 27.44420085 -9.3359375 23.9453125 C-8.78979546 22.40065056 -8.78979546 22.40065056 -8.23262024 20.82478333 C-5.70879993 13.75690996 -2.8959823 6.95035751 0 0 Z " fill="#FF000E" transform="translate(218,504)"/>
<path d="M0 0 C26.07 0 52.14 0 79 0 C87.96429458 24.94412405 96.89932087 49.89841136 105.80566406 74.86328125 C106.616504 77.13542825 107.42737598 79.40756382 108.23828125 81.6796875 C108.6301059 82.77802917 109.02193054 83.87637085 109.42562866 85.00799561 C111.47543871 90.74911456 113.53459726 96.48669717 115.60693359 102.21972656 C116.02621628 103.38029572 116.44549896 104.54086487 116.87748718 105.73660278 C117.68123478 107.95951515 118.48636673 110.18192757 119.29304504 112.40377808 C119.64904282 113.38830963 120.00504059 114.37284119 120.37182617 115.38720703 C120.84491463 116.69143112 120.84491463 116.69143112 121.32756042 118.02200317 C122 120 122 120 122 121 C100.88 121 79.76 121 58 121 C55.3876547 114.46913676 52.8647209 107.97508767 50.546875 101.34375 C50.24179016 100.47480103 49.93670532 99.60585205 49.62237549 98.71057129 C48.98606359 96.89598121 48.35087975 95.08099518 47.71679688 93.265625 C46.74222757 90.47776615 45.76191685 87.69196898 44.78125 84.90625 C44.16111277 83.13553765 43.54130878 81.36470855 42.921875 79.59375 C42.62819031 78.76049194 42.33450562 77.92723389 42.03192139 77.06872559 C40 71.22934322 40 71.22934322 40 69 C26.8 69 13.6 69 0 69 C0 46.23 0 23.46 0 0 Z " fill="#FF000E" transform="translate(303,504)"/>
<path d="M0 0 C25.41 0 50.82 0 77 0 C77 39.93 77 79.86 77 121 C51.59 121 26.18 121 0 121 C0 81.07 0 41.14 0 0 Z " fill="#FF000F" transform="translate(649,504)"/>
<path d="M0 0 C25.41 0 50.82 0 77 0 C77 39.93 77 79.86 77 121 C51.59 121 26.18 121 0 121 C0 81.07 0 41.14 0 0 Z " fill="#FF000F" transform="translate(649,376)"/>
<path d="M0 0 C25.08 0 50.16 0 76 0 C76 39.93 76 79.86 76 121 C50.92 121 25.84 121 0 121 C0 81.07 0 41.14 0 0 Z " fill="#FF000F" transform="translate(446,504)"/>
<path d="M0 0 C25.08 0 50.16 0 76 0 C76 39.93 76 79.86 76 121 C50.92 121 25.84 121 0 121 C0 81.07 0 41.14 0 0 Z " fill="#FF000F" transform="translate(446,376)"/>
<path d="M0 0 C40.95912548 0 40.95912548 0 57.8984375 15.7421875 C68.43853799 27.06593858 72.4780295 40.92730453 72.2109375 56.08203125 C71.3009279 72.98461691 62.6435873 84.46730401 51 96 C51.67804687 96.40089844 52.35609375 96.80179687 53.0546875 97.21484375 C62.88386137 103.21853582 72.1829341 110.58703152 79 120 C79 120.66 79 121.32 79 122 C52.93 121.67 26.86 121.34 0 121 C0 81.07 0 41.14 0 0 Z " fill="#FF000E" transform="translate(732,376)"/>
<path d="M0 0 C40.37999201 0 40.37999201 0 55.50390625 13.41015625 C66.79352909 25.40722281 72.58659075 39.51307572 72.25 55.921875 C70.90880673 72.43531716 62.54872562 84.67182296 51 96 C51.72703125 96.44988281 52.4540625 96.89976562 53.203125 97.36328125 C59.08110639 101.12368216 64.43446772 105.02861335 69.5625 109.75 C70.06233398 110.20930908 70.56216797 110.66861816 71.07714844 111.1418457 C76.21511387 115.97649182 76.21511387 115.97649182 78 119 C77.505 120.485 77.505 120.485 77 122 C51.59 121.67 26.18 121.34 0 121 C0 81.07 0 41.14 0 0 Z " fill="#FF000E" transform="translate(529,376)"/>
<path d="M0 0 C11.22 0 22.44 0 34 0 C34 39.93 34 79.86 34 121 C-4.115 121.495 -4.115 121.495 -43 122 C-42.32330565 117.93983392 -41.7502248 114.90575946 -40.39624023 111.16772461 C-40.06698547 110.2506926 -39.73773071 109.33366058 -39.39849854 108.38883972 C-39.03882996 107.40329605 -38.67916138 106.41775238 -38.30859375 105.40234375 C-37.93144226 104.35585159 -37.55429077 103.30935944 -37.16571045 102.2311554 C-35.92752725 98.7982734 -34.68243113 95.36793994 -33.4375 91.9375 C-32.14084896 88.34662226 -30.84604036 84.75508326 -29.55122375 81.1635437 C-28.66957745 78.71860234 -27.78731925 76.27388156 -26.90446472 73.82937622 C-22.62694943 61.98322897 -18.40107152 50.11901307 -14.1875 38.25 C-13.54293372 36.43610007 -12.89832239 34.62221614 -12.25366211 32.80834961 C-11.64175212 31.08577908 -11.02985399 29.36320433 -10.41796875 27.640625 C-9.98441322 26.42107872 -9.98441322 26.42107872 -9.542099 25.17689514 C-8.10219254 21.1224588 -6.67163535 17.06505418 -5.25634766 13.00195312 C-4.84078362 11.81252106 -4.84078362 11.81252106 -4.41682434 10.59906006 C-3.89375645 9.10044835 -3.37303344 7.60101546 -2.85502625 6.10064697 C-1.11160868 1.11160868 -1.11160868 1.11160868 0 0 Z " fill="#FF000E" transform="translate(263,376)"/>
<path d="M0 0 C11.22 0 22.44 0 34 0 C35.41410156 3.98835938 36.82820313 7.97671875 38.28515625 12.0859375 C47.89374243 39.18131024 57.50592791 66.27526829 67.1884613 93.34432983 C67.72023598 94.83161924 68.25148086 96.31909821 68.78211975 97.80679321 C70.01016793 101.24745681 71.24798894 104.68393394 72.50732422 108.11328125 C72.74321762 108.76022949 72.97911102 109.40717773 73.22215271 110.07373047 C73.85562525 111.80948813 74.49390643 113.54348878 75.13256836 115.27734375 C76 118 76 118 76 121 C50.92 121 25.84 121 0 121 C0 81.07 0 41.14 0 0 Z " fill="#FF000E" transform="translate(303,376)"/>
</svg>
