<?xml version="1.0" encoding="UTF-8"?>
<svg version="1.1" xmlns="http://www.w3.org/2000/svg" width="200" height="200">
<path d="M0 0 C66 0 132 0 200 0 C200 66 200 132 200 200 C134 200 68 200 0 200 C0 134 0 68 0 0 Z " fill="#FEFDFE" transform="translate(0,0)"/>
<path d="M0 0 C4.30750618 0.6862876 8.17666193 2.13817367 12.1953125 3.7734375 C12.89141129 4.05273605 13.58751007 4.33203461 14.30470276 4.61979675 C16.57986133 5.53397426 18.85244176 6.4543795 21.125 7.375 C22.71577347 8.01586199 24.30667656 8.65640233 25.89770508 9.29663086 C30.6011379 11.19118709 35.30113548 13.0941457 40 15 C40.64414856 15.26117615 41.28829712 15.52235229 41.95196533 15.79144287 C49.14636379 18.70934423 56.33473101 21.64194258 63.52148438 24.57861328 C84.62509598 33.20194475 105.76449514 41.70488091 127 50 C127 62.54 127 75.08 127 88 C110.68138049 94.5274478 110.68138049 94.5274478 103.67326355 97.32048035 C81.87507649 106.00873842 60.09650531 114.73739155 38.40182495 123.68133545 C25.65531078 128.93508723 12.86188134 134.03265273 0 139 C0 126.79 0 114.58 0 102 C15.0656501 95.57857537 30.24323851 89.46500395 45.45849609 83.41015625 C50.39135627 81.44598967 55.32082468 79.47339111 60.25 77.5 C62.42995169 76.62792616 64.60990781 75.75589736 66.79101562 74.88671875 C68.42794704 74.22963046 70.06156986 73.56428677 71.69335938 72.89453125 C72.59376953 72.52714844 73.49417969 72.15976563 74.421875 71.78125 C75.2478418 71.44158203 76.07380859 71.10191406 76.92480469 70.75195312 C79 70 79 70 81 70 C81 69.34 81 68.68 81 68 C80.175 67.9175 79.35 67.835 78.5 67.75 C75.10592599 67.02269843 72.56930704 65.80801771 69.51831055 64.20703125 C66.51499331 62.76753533 63.4612495 61.64210886 60.33203125 60.5 C49.63990963 56.54754493 39.06744695 52.29423664 28.4855957 48.05737305 C25.01835203 46.66983262 21.54926996 45.28695814 18.08007812 43.90429688 C15.87749268 43.02371632 13.67501457 42.14286721 11.47265625 41.26171875 C10.43432144 40.84822678 9.39598663 40.4347348 8.32618713 40.00871277 C7.37686813 39.62773941 6.42754913 39.24676605 5.44946289 38.85424805 C4.19281578 38.35177803 4.19281578 38.35177803 2.91078186 37.8391571 C1 37 1 37 0 36 C-0.08855161 33.3337397 -0.11524673 30.69352886 -0.09765625 28.02734375 C-0.0962413 27.22970108 -0.09482635 26.43205841 -0.09336853 25.61024475 C-0.08775316 23.05262565 -0.07519812 20.49509282 -0.0625 17.9375 C-0.05748698 16.20768355 -0.05292373 14.47786574 -0.04882812 12.74804688 C-0.03777875 8.49866447 -0.02050386 4.24934688 0 0 Z " fill="#A002FB" transform="translate(37,31)"/>
<path d="M0 0 C0 0.99 0 1.98 0 3 C-1.32 3.33 -2.64 3.66 -4 4 C-4.33 14.89 -4.66 25.78 -5 37 C-4.34 37 -3.68 37 -3 37 C-3 36.01 -3 35.02 -3 34 C-1.35 34.33 0.3 34.66 2 35 C1 37 1 37 -7 40 C-7 27.79 -7 15.58 -7 3 C-4.69 2.01 -2.38 1.02 0 0 Z " fill="#9512E1" transform="translate(44,130)"/>
<path d="M0 0 C4.75 0.75 4.75 0.75 7 3 C5.68 3 4.36 3 3 3 C3 13.89 3 24.78 3 36 C4.65 36.33 6.3 36.66 8 37 C8 37.66 8 38.32 8 39 C1.125 37.125 1.125 37.125 0 36 C-0.08855161 33.3337397 -0.11524673 30.69352886 -0.09765625 28.02734375 C-0.0962413 27.22970108 -0.09482635 26.43205841 -0.09336853 25.61024475 C-0.08775316 23.05262565 -0.07519812 20.49509282 -0.0625 17.9375 C-0.05748698 16.20768355 -0.05292373 14.47786574 -0.04882812 12.74804688 C-0.03777875 8.49866447 -0.02050386 4.24934688 0 0 Z " fill="#9514E2" transform="translate(37,31)"/>
<path d="M0 0 C-4.39065975 4.00886325 -10.27188061 5.48847761 -16 6.5625 C-16.66 6.706875 -17.32 6.85125 -18 7 C-18.33 7.66 -18.66 8.32 -19 9 C-19.99 8.34 -20.98 7.68 -22 7 C-18.71338904 5.63332132 -15.41999764 4.28381896 -12.125 2.9375 C-11.18785156 2.54755859 -10.25070313 2.15761719 -9.28515625 1.75585938 C-8.38925781 1.39169922 -7.49335937 1.02753906 -6.5703125 0.65234375 C-5.74289551 0.31195068 -4.91547852 -0.02844238 -4.06298828 -0.37915039 C-2 -1 -2 -1 0 0 Z " fill="#A026E3" transform="translate(98,110)"/>
<path d="M0 0 C4 1.33333333 8 2.66666667 12 4 C12 4.66 12 5.32 12 6 C7.375 8.125 7.375 8.125 4 7 C4.99 6.67 5.98 6.34 7 6 C7 5.34 7 4.68 7 4 C5.824375 3.7834375 5.824375 3.7834375 4.625 3.5625 C2 3 2 3 0 2 C0 1.34 0 0.68 0 0 Z " fill="#F9D5FF" transform="translate(106,95)"/>
<path d="M0 0 C6.22987798 0.50512524 11.45474233 3.32604123 17 6 C15.1875 7.0625 15.1875 7.0625 13 8 C10 7 10 7 7 5 C7 4.34 7 3.68 7 3 C5.824375 2.814375 5.824375 2.814375 4.625 2.625 C2 2 2 2 0 0 Z " fill="#9A1BE7" transform="translate(74,46)"/>
<path d="M0 0 C-2.26607052 1.03275341 -4.53681939 2.05133551 -6.8125 3.0625 C-7.77639648 3.50432617 -7.77639648 3.50432617 -8.75976562 3.95507812 C-13.66015625 6.11328125 -13.66015625 6.11328125 -17 5 C-15.41925436 4.18247697 -13.83528777 3.37118003 -12.25 2.5625 C-11.36828125 2.11003906 -10.4865625 1.65757813 -9.578125 1.19140625 C-5.78457923 -0.56167172 -4.03309764 -1.34436588 0 0 Z " fill="#9B1EE3" transform="translate(153,123)"/>
<path d="M0 0 C2.97 0.33 5.94 0.66 9 1 C9 1.66 9 2.32 9 3 C11.475 3.99 11.475 3.99 14 5 C13.01 5.495 13.01 5.495 12 6 C9.92803369 5.26821134 7.8891448 4.44100997 5.875 3.5625 C4.77929688 3.08941406 3.68359375 2.61632812 2.5546875 2.12890625 C1.71164063 1.75636719 0.86859375 1.38382812 0 1 C0 0.67 0 0.34 0 0 Z " fill="#A127E6" transform="translate(76,82)"/>
<path d="M0 0 C5.41390868 0.46671627 9.20517932 1.24297811 14 4 C14 4.66 14 5.32 14 6 C9.27934033 4.45730076 4.58335908 2.92205381 0 1 C0 0.67 0 0.34 0 0 Z " fill="#A029E5" transform="translate(61,76)"/>
<path d="M0 0 C-1.75 3.875 -1.75 3.875 -4 5 C-6.00800456 4.71887936 -8.01014051 4.38932033 -10 4 C-6.86268382 1.90845588 -3.85464592 0 0 0 Z " fill="#F8DCFE" transform="translate(119,137)"/>
<path d="M0 0 C-4.30769231 3.93846154 -4.30769231 3.93846154 -7.8125 4.25 C-8.534375 4.1675 -9.25625 4.085 -10 4 C-7.39928297 0.98864344 -3.94054294 -1.97027147 0 0 Z " fill="#F6D5FE" transform="translate(47,167)"/>
<path d="M0 0 C1.32 0 2.64 0 4 0 C4.33 1.32 4.66 2.64 5 4 C0.8922935 5.58706842 -0.59232396 6.10191901 -5 5 C-2.36 4.34 0.28 3.68 3 3 C3 2.34 3 1.68 3 1 C2.01 0.67 1.02 0.34 0 0 Z " fill="#A52CE8" transform="translate(115,98)"/>
<path d="M0 0 C4.3177458 0.50797009 8.03302114 1.19682779 12 3 C12 3.66 12 4.32 12 5 C10.56068883 4.54738642 9.12361001 4.08767021 7.6875 3.625 C6.88699219 3.36976562 6.08648437 3.11453125 5.26171875 2.8515625 C3 2 3 2 0 0 Z " fill="#F7D4FE" transform="translate(74,45)"/>
<path d="M0 0 C1.98 0 3.96 0 6 0 C2.79663178 2.83374881 0.21912747 3.5205537 -4 4 C-4 3.34 -4 2.68 -4 2 C-2.68 2 -1.36 2 0 2 C0 1.34 0 0.68 0 0 Z " fill="#9715E5" transform="translate(100,141)"/>
</svg>
