<?xml version="1.0" encoding="UTF-8"?>
<svg version="1.1" xmlns="http://www.w3.org/2000/svg" width="200" height="200">
<path d="M0 0 C66 0 132 0 200 0 C200 66 200 132 200 200 C134 200 68 200 0 200 C0 134 0 68 0 0 Z " fill="#000835" transform="translate(0,0)"/>
<path d="M0 0 C10.18215613 -0.49070632 10.18215613 -0.49070632 14.125 1.875 C17.01469629 5.14998913 17.43258521 7.55433718 17.3203125 11.95703125 C17 14 17 14 15.25 17 C10.19695332 20.10956718 5.86323381 19.3221557 0 19 C0 12.73 0 6.46 0 0 Z " fill="#F0F3F7" transform="translate(97,90)"/>
<path d="M0 0 C1.98 0 3.96 0 6 0 C7.65 3.96 9.3 7.92 11 12 C12.65 8.04 14.3 4.08 16 0 C17.65 0 19.3 0 21 0 C21 6.27 21 12.54 21 19 C19.68 19 18.36 19 17 19 C16.67 16.03 16.34 13.06 16 10 C14.68 12.97 13.36 15.94 12 19 C11.01 19 10.02 19 9 19 C7.68 15.7 6.36 12.4 5 9 C4.67 12.63 4.34 16.26 4 20 C2.68 20 1.36 20 0 20 C0 13.4 0 6.8 0 0 Z " fill="#DEE1E9" transform="translate(53,90)"/>
<path d="M0 0 C1.58246707 -0.08153933 3.16616273 -0.13943557 4.75 -0.1875 C6.07257812 -0.23970703 6.07257812 -0.23970703 7.421875 -0.29296875 C10.66273545 0.07531085 11.88171628 0.48944151 14 3 C14.29561076 5.87038052 14.37943016 8.33754745 14.25 11.1875 C14.23195313 11.93708984 14.21390625 12.68667969 14.1953125 13.45898438 C14.14824109 15.3065371 14.07649766 17.15343159 14 19 C12.08700862 19.27672202 10.16922064 19.52042815 8.25 19.75 C7.18265625 19.88921875 6.1153125 20.0284375 5.015625 20.171875 C2 20 2 20 -0.390625 18.2109375 C-2 16 -2 16 -2 12.875 C-1 10 -1 10 0.6875 8.625 C3.52731746 7.85748177 6.07185027 7.86690228 9 8 C8.67 7.01 8.34 6.02 8 5 C5.36 4.67 2.72 4.34 0 4 C0 2.68 0 1.36 0 0 Z " fill="#E8EBF1" transform="translate(35,90)"/>
<path d="M0 0 C1.58246707 -0.08153933 3.16616273 -0.13943557 4.75 -0.1875 C6.07257813 -0.23970703 6.07257813 -0.23970703 7.421875 -0.29296875 C10.66273545 0.07531085 11.88171628 0.48944151 14 3 C14.29561076 5.87038052 14.37943016 8.33754745 14.25 11.1875 C14.23195313 11.93708984 14.21390625 12.68667969 14.1953125 13.45898438 C14.14824109 15.3065371 14.07649766 17.15343159 14 19 C11.70890403 19.08075665 9.41700733 19.13907731 7.125 19.1875 C5.21074219 19.23970703 5.21074219 19.23970703 3.2578125 19.29296875 C2.18273437 19.19628906 1.10765625 19.09960938 0 19 C-2 16 -2 16 -1.875 13.5 C-0.77570258 10.35915021 0.02560804 9.48719598 3 8 C6.75 7.8125 6.75 7.8125 10 8 C9.67 7.01 9.34 6.02 9 5 C6.03 4.67 3.06 4.34 0 4 C0 2.68 0 1.36 0 0 Z " fill="#ECEFF4" transform="translate(79,90)"/>
<path d="M0 0 C1.32 0 2.64 0 4 0 C4.33 4.62 4.66 9.24 5 14 C9.47702364 15.06537205 9.47702364 15.06537205 12 15 C12 10.05 12 5.1 12 0 C13.32 0 14.64 0 16 0 C16 6.27 16 12.54 16 19 C4.375 20.25 4.375 20.25 1 18 C-0.2062252 14.38132441 -0.10816918 11.07493749 -0.0625 7.3125 C-0.05798828 6.61060547 -0.05347656 5.90871094 -0.04882812 5.18554688 C-0.03706927 3.45699462 -0.01913454 1.72848635 0 0 Z " fill="#EBEFF3" transform="translate(134,90)"/>
<path d="M0 0 C4.62 0 9.24 0 14 0 C14 1.32 14 2.64 14 4 C10.7 4 7.4 4 4 4 C4 5.32 4 6.64 4 8 C6.64 8 9.28 8 12 8 C12 8.99 12 9.98 12 11 C9.36 11 6.72 11 4 11 C4 12.65 4 14.3 4 16 C7.3 16 10.6 16 14 16 C14 16.99 14 17.98 14 19 C9.38 19 4.76 19 0 19 C0 12.73 0 6.46 0 0 Z " fill="#E7EBF0" transform="translate(117,90)"/>
<path d="M0 0 C0 0.99 0 1.98 0 3 C-2.31 3 -4.62 3 -7 3 C-6.28995535 6.27856999 -6.28995535 6.27856999 -3.0625 7.5625 C-2.051875 8.036875 -1.04125 8.51125 0 9 C0.66 9.66 1.32 10.32 2 11 C1.67028521 14.29714793 1.3773161 15.6226839 -1 18 C-3.3828125 18.1953125 -3.3828125 18.1953125 -6.125 18.125 C-7.49011719 18.09792969 -7.49011719 18.09792969 -8.8828125 18.0703125 C-9.58148438 18.04710938 -10.28015625 18.02390625 -11 18 C-11 16.68 -11 15.36 -11 14 C-8.36 14.33 -5.72 14.66 -3 15 C-3.71639199 11.71156462 -3.71639199 11.71156462 -7 10.375 C-7.99 9.92125 -8.98 9.4675 -10 9 C-11 8 -11 8 -11.3125 5.125 C-11 2 -11 2 -9.4375 0.0625 C-6.03339271 -1.42134164 -3.56538192 -0.75421541 0 0 Z " fill="#E7ECF1" transform="translate(165,91)"/>
<path d="M0 0 C0.33 1.32 0.66 2.64 1 4 C-0.32 4.33 -1.64 4.66 -3 5 C-1.68 5.33 -0.36 5.66 1 6 C0.75 8.375 0.75 8.375 0 11 C-2.0625 12.3125 -2.0625 12.3125 -4 13 C-3.67 13.66 -3.34 14.32 -3 15 C-5.875 14.6875 -5.875 14.6875 -9 14 C-11 11 -11 11 -10.875 7.9375 C-10 5 -10 5 -8.3125 3.625 C-5.47268254 2.85748177 -2.92814973 2.86690228 0 3 C0 2.01 0 1.02 0 0 Z " fill="#D0D4DE" transform="translate(44,95)"/>
<path d="M0 0 C6 0 6 0 7.875 1.125 C9.52854531 3.88090884 9.39365568 5.85075452 9 9 C7.875 10.875 7.875 10.875 6 12 C4.02 12 2.04 12 0 12 C0 8.04 0 4.08 0 0 Z " fill="#15193E" transform="translate(101,94)"/>
<path d="M0 0 C0.66 0 1.32 0 2 0 C2 1.32 2 2.64 2 4 C2.66 4 3.32 4 4 4 C4.33 2.68 4.66 1.36 5 0 C5 0.66 5 1.32 5 2 C5.66 2 6.32 2 7 2 C7.02705729 3.77074917 7.04642195 5.54161711 7.0625 7.3125 C7.07410156 8.29863281 7.08570313 9.28476563 7.09765625 10.30078125 C7 13 7 13 6 16 C1.125 15.125 1.125 15.125 0 14 C-0.07271741 11.64686445 -0.08370868 9.29166332 -0.0625 6.9375 C-0.05347656 5.64714844 -0.04445312 4.35679688 -0.03515625 3.02734375 C-0.02355469 2.02832031 -0.01195312 1.02929688 0 0 Z " fill="#0D133C" transform="translate(138,90)"/>
<path d="M0 0 C1.32 0 2.64 0 4 0 C4 6.27 4 12.54 4 19 C3.01 19 2.02 19 1 19 C-0.65497356 15.69005287 -0.10084335 12.00877 -0.0625 8.375 C-0.05798828 7.57320313 -0.05347656 6.77140625 -0.04882812 5.9453125 C-0.03703168 3.96350994 -0.01909605 1.98174567 0 0 Z " fill="#F6F8F9" transform="translate(146,90)"/>
<path d="M0 0 C1.65 0 3.3 0 5 0 C5 6.27 5 12.54 5 19 C4.01 19 3.02 19 2 19 C2 14.71 2 10.42 2 6 C1.01 6 0.02 6 -1 6 C-1.042721 4.33388095 -1.04063832 2.66617115 -1 1 C-0.67 0.67 -0.34 0.34 0 0 Z " fill="#F3F5F8" transform="translate(69,90)"/>
<path d="M0 0 C-0.08708669 1.45945288 -0.19526907 2.91765868 -0.3125 4.375 C-0.37050781 5.18710938 -0.42851562 5.99921875 -0.48828125 6.8359375 C-1 9 -1 9 -4 11 C-6.79155827 10.66906957 -9.29028304 9.79958861 -12 9 C-12 8.67 -12 8.34 -12 8 C-9.36 8 -6.72 8 -4 8 C-4 7.01 -4 6.02 -4 5 C-6.64 5 -9.28 5 -12 5 C-12 3.68 -12 2.36 -12 1 C-10.37512529 0.83211627 -8.75009558 0.66573213 -7.125 0.5 C-6.22007813 0.4071875 -5.31515625 0.314375 -4.3828125 0.21875 C-2 0 -2 0 0 0 Z " fill="#070C35" transform="translate(133,93)"/>
<path d="M0 0 C0.33 0 0.66 0 1 0 C1 2.97 1 5.94 1 9 C3.89014512 7.17609419 3.89014512 7.17609419 5.8125 5.375 C8.65746096 3.58673882 10.70370166 3.77525239 14 4 C14.33 5.32 14.66 6.64 15 8 C14.38511719 8.12117188 13.77023438 8.24234375 13.13671875 8.3671875 C12.32847656 8.53476563 11.52023438 8.70234375 10.6875 8.875 C9.48673828 9.11863281 9.48673828 9.11863281 8.26171875 9.3671875 C5.74698882 9.94478999 5.74698882 9.94478999 3 12 C2.34 11.67 1.68 11.34 1 11 C1 13.97 1 16.94 1 20 C-0.32 19.67 -1.64 19.34 -3 19 C-2.01 19 -1.02 19 0 19 C0 12.73 0 6.46 0 0 Z " fill="#0F1235" transform="translate(74,90)"/>
<path d="M0 0 C1.32 0.33 2.64 0.66 4 1 C3.67 1.33 3.34 1.66 3 2 C2.95919217 3.99958364 2.95745644 6.00045254 3 8 C6.465 9.98 6.465 9.98 10 12 C10 12.99 10 13.98 10 15 C8.02 15 6.04 15 4 15 C4 14.34 4 13.68 4 13 C3.01 13 2.02 13 1 13 C0.67 12.01 0.34 11.02 0 10 C0.33 9.67 0.66 9.34 1 9 C0.91062197 7.47480724 0.75462854 5.95318071 0.5625 4.4375 C0.46066406 3.61121094 0.35882813 2.78492187 0.25390625 1.93359375 C0.17011719 1.29550781 0.08632812 0.65742187 0 0 Z " fill="#14173F" transform="translate(152,91)"/>
<path d="M0 0 C0.33 0.66 0.66 1.32 1 2 C1.99 2 2.98 2 4 2 C4 6.29 4 10.58 4 15 C3.67 15 3.34 15 3 15 C2.67 12.03 2.34 9.06 2 6 C1.67 6.99 1.34 7.98 1 9 C0.01 8.67 -0.98 8.34 -2 8 C-1.47731534 5.23723823 -0.89130413 2.6739124 0 0 Z " fill="#BFC4CE" transform="translate(67,94)"/>
<path d="M0 0 C1.0625 1.8125 1.0625 1.8125 2 4 C1.67 4.99 1.34 5.98 1 7 C-1.3125 7.625 -1.3125 7.625 -4 8 C-4.99 7.34 -5.98 6.68 -7 6 C-7 5.01 -7 4.02 -7 3 C-4.69 3 -2.38 3 0 3 C0 2.01 0 1.02 0 0 Z " fill="#161940" transform="translate(165,91)"/>
<path d="M0 0 C1.90389849 2.85584773 2.69462177 4.9311762 3.625 8.1875 C4.01558594 9.53908203 4.01558594 9.53908203 4.4140625 10.91796875 C4.60742188 11.60503906 4.80078125 12.29210937 5 13 C3.0625 13.5625 3.0625 13.5625 1 14 C0 13 0 13 -0.09765625 10.05859375 C-0.08605469 8.86363281 -0.07445312 7.66867188 -0.0625 6.4375 C-0.05347656 5.23996094 -0.04445312 4.04242188 -0.03515625 2.80859375 C-0.02355469 1.88175781 -0.01195312 0.95492187 0 0 Z " fill="#1B1D3D" transform="translate(57,96)"/>
<path d="M0 0 C2.31 0 4.62 0 7 0 C6.67 1.65 6.34 3.3 6 5 C4.02 5 2.04 5 0 5 C-0.33 4.01 -0.66 3.02 -1 2 C-0.67 1.34 -0.34 0.68 0 0 Z " fill="#222645" transform="translate(38,101)"/>
<path d="M0 0 C1.4540625 0.0309375 1.4540625 0.0309375 2.9375 0.0625 C2.6075 1.7125 2.2775 3.3625 1.9375 5.0625 C-0.0425 5.0625 -2.0225 5.0625 -4.0625 5.0625 C-4.0625 0.08290816 -4.0625 0.08290816 0 0 Z " fill="#1B1F3E" transform="translate(86.0625,100.9375)"/>
<path d="M0 0 C0 0.33 0 0.66 0 1 C-1.423125 1.12375 -1.423125 1.12375 -2.875 1.25 C-6.05763667 1.63625325 -6.05763667 1.63625325 -7.1875 3.8125 C-7.455625 4.534375 -7.72375 5.25625 -8 6 C-8.97581759 7.35113205 -9.97029741 8.68946944 -11 10 C-11.33 8.02 -11.66 6.04 -12 4 C-7.99899414 0.12023674 -5.51903037 -0.43286513 0 0 Z " fill="#D4D6E0" transform="translate(89,98)"/>
<path d="M0 0 C0.33 0 0.66 0 1 0 C1.33 5.28 1.66 10.56 2 16 C2.66 16 3.32 16 4 16 C3.67 17.32 3.34 18.64 3 20 C0.69 20 -1.62 20 -4 20 C-2.68 19.67 -1.36 19.34 0 19 C0 12.73 0 6.46 0 0 Z " fill="#333857" transform="translate(150,90)"/>
<path d="M0 0 C0.33 0 0.66 0 1 0 C1 2.97 1 5.94 1 9 C2.65 9 4.3 9 6 9 C5.01 9.99 4.02 10.98 3 12 C2.34 11.67 1.68 11.34 1 11 C1 13.97 1 16.94 1 20 C-0.32 19.67 -1.64 19.34 -3 19 C-2.01 19 -1.02 19 0 19 C0 12.73 0 6.46 0 0 Z " fill="#262A4D" transform="translate(74,90)"/>
<path d="M0 0 C3.3 0 6.6 0 10 0 C10 0.99 10 1.98 10 3 C6.37 3 2.74 3 -1 3 C-0.67 2.01 -0.34 1.02 0 0 Z " fill="#F6F6FB" transform="translate(121,106)"/>
<path d="M0 0 C0.99 0.33 1.98 0.66 3 1 C2.67 2.65 2.34 4.3 2 6 C0.68 6.33 -0.64 6.66 -2 7 C-2.33 6.01 -2.66 5.02 -3 4 C-2.34 4 -1.68 4 -1 4 C-0.67 2.68 -0.34 1.36 0 0 Z " fill="#ECEFF2" transform="translate(64,102)"/>
<path d="M0 0 C1.65 0 3.3 0 5 0 C5.33 1.32 5.66 2.64 6 4 C2.25 5.125 2.25 5.125 0 4 C0 2.68 0 1.36 0 0 Z " fill="#060933" transform="translate(102,94)"/>
<path d="M0 0 C0.33 0 0.66 0 1 0 C1 2.97 1 5.94 1 9 C-0.32 9 -1.64 9 -3 9 C-2.01 6.03 -1.02 3.06 0 0 Z " fill="#141937" transform="translate(69,99)"/>
<path d="M0 0 C0.99 0 1.98 0 3 0 C3 3.3 3 6.6 3 10 C2.01 10 1.02 10 0 10 C0 6.7 0 3.4 0 0 Z " fill="#0E1034" transform="translate(113,94)"/>
<path d="M0 0 C0.33 0 0.66 0 1 0 C1 5.28 1 10.56 1 16 C0.34 16.33 -0.32 16.66 -1 17 C-1 15.68 -1 14.36 -1 13 C-1.66 12.67 -2.32 12.34 -3 12 C-2.34 11.67 -1.68 11.34 -1 11 C-0.5316735 8.41394668 -0.5316735 8.41394668 -0.375 5.4375 C-0.30023438 4.42558594 -0.22546875 3.41367188 -0.1484375 2.37109375 C-0.09945312 1.58863281 -0.05046875 0.80617188 0 0 Z " fill="#040726" transform="translate(116,93)"/>
<path d="M0 0 C2.97 0.495 2.97 0.495 6 1 C5.34 1.66 4.68 2.32 4 3 C4.33 3.66 4.66 4.32 5 5 C2.03 4.505 2.03 4.505 -1 4 C-0.67 2.68 -0.34 1.36 0 0 Z " fill="#DBDBE4" transform="translate(36,105)"/>
<path d="M0 0 C0.66 0.33 1.32 0.66 2 1 C2 2.98 2 4.96 2 7 C0.02 6.34 -1.96 5.68 -4 5 C-4 4.34 -4 3.68 -4 3 C-2.68 2.67 -1.36 2.34 0 2 C0 1.34 0 0.68 0 0 Z " fill="#1F2446" transform="translate(108,96)"/>
<path d="M0 0 C0.33 0.99 0.66 1.98 1 3 C1.66 3.33 2.32 3.66 3 4 C0 6 0 6 -2.04296875 5.7578125 C-4.02864583 5.171875 -6.01432292 4.5859375 -8 4 C-8 3.67 -8 3.34 -8 3 C-5.36 3 -2.72 3 0 3 C0 2.01 0 1.02 0 0 Z " fill="#454966" transform="translate(129,98)"/>
<path d="M0 0 C0.66 0.66 1.32 1.32 2 2 C1.01 2.495 1.01 2.495 0 3 C-0.72693904 4.97888961 -1.39816251 6.97954558 -2 9 C-2.99 8.01 -3.98 7.02 -5 6 C-3.35 4.02 -1.7 2.04 0 0 Z " fill="#0E1535" transform="translate(69,88)"/>
<path d="M0 0 C-2.61941217 1.74627478 -4.03824877 2.38722388 -7 3 C-7 2.34 -7 1.68 -7 1 C-8.65 1 -10.3 1 -12 1 C-12 0.67 -12 0.34 -12 0 C-7.6835078 -0.76173392 -4.25566547 -1.16063604 0 0 Z " fill="#3F4360" transform="translate(93,109)"/>
<path d="M0 0 C2.0625 0.4375 2.0625 0.4375 4 1 C3.34 1.66 2.68 2.32 2 3 C1.67 3.66 1.34 4.32 1 5 C0.01 5 -0.98 5 -2 5 C-1.125 1.125 -1.125 1.125 0 0 Z " fill="#070E3A" transform="translate(78,94)"/>
<path d="M0 0 C0.99 0.33 1.98 0.66 3 1 C2.67 2.65 2.34 4.3 2 6 C1.01 5.34 0.02 4.68 -1 4 C-0.67 2.68 -0.34 1.36 0 0 Z " fill="#E3E7EE" transform="translate(108,91)"/>
</svg>
