<?xml version="1.0" encoding="UTF-8"?>
<svg version="1.1" xmlns="http://www.w3.org/2000/svg" width="200" height="200">
<path d="M0 0 C66 0 132 0 200 0 C200 66 200 132 200 200 C134 200 68 200 0 200 C0 134 0 68 0 0 Z " fill="#232F3E" transform="translate(0,0)"/>
<path d="M0 0 C4.62120798 0.62208569 8.38784246 2.55808582 12.5 4.625 C52.8046029 24.11798006 96.86087252 25.64073499 139.11010742 11.66259766 C140.71619954 11.09950064 142.29895442 10.47053488 143.875 9.828125 C146.36333673 8.85840554 148.35261748 8.848721 151 9 C150.69009707 11.96907001 150.5238143 13.53671535 148.2421875 15.5546875 C117.26685655 32.83135724 83.21266861 39.34722484 48.546875 29.81640625 C31.16293384 24.65936607 12.30885624 15.65112131 0 2 C0 1.34 0 0.68 0 0 Z " fill="#F49820" transform="translate(17,86)"/>
<path d="M0 0 C1.5159375 -0.02126953 1.5159375 -0.02126953 3.0625 -0.04296875 C6.0885919 0.19445069 8.26227757 0.91425777 11 2.1875 C11.69650268 12.36417808 10.02724061 19.91036032 3.375 27.8125 C1.5859375 29.7890625 1.5859375 29.7890625 0 31.1875 C-0.66 31.1875 -1.32 31.1875 -2 31.1875 C-0.30274549 22.89984232 -0.30274549 22.89984232 1.0625 19.6875 C2.48078428 16.21664157 2.48078428 16.21664157 3 8.1875 C-4.59 8.1875 -12.18 8.1875 -20 8.1875 C-17.55246127 3.29242254 -16.02011076 2.97431908 -11 1.1875 C-7.29424887 0.29025346 -3.8098146 0.02429729 0 0 Z " fill="#F29824" transform="translate(172,81.8125)"/>
<path d="M0 0 C4.80158323 0.63646717 8.65297343 2.62878436 12.9375 4.75 C20.47262571 8.3998137 28.04920242 11.37913487 36 14 C35.071875 14.680625 35.071875 14.680625 34.125 15.375 C31.94080167 16.97108919 31.94080167 16.97108919 30 19 C30.33 19.99 30.66 20.98 31 22 C19.57634399 18.51882672 7.9281691 11.01734249 0 2 C0 1.34 0 0.68 0 0 Z " fill="#EA972A" transform="translate(17,86)"/>
<path d="M0 0 C0.79341797 0.00193359 1.58683594 0.00386719 2.40429688 0.00585938 C3.22865234 0.01810547 4.05300781 0.03035156 4.90234375 0.04296875 C5.73056641 0.04361328 6.55878906 0.04425781 7.41210938 0.04492188 C13.55877439 0.08993407 13.55877439 0.08993407 15.83984375 1.23046875 C16.20886425 10.64049153 16.20886425 10.64049153 13.83984375 15.23046875 C13.50984375 15.23046875 13.17984375 15.23046875 12.83984375 15.23046875 C12.79712275 13.5643497 12.79920543 11.8966399 12.83984375 10.23046875 C13.16984375 9.90046875 13.49984375 9.57046875 13.83984375 9.23046875 C13.88077312 6.89749442 13.88226098 4.5634165 13.83984375 2.23046875 C10.20984375 2.23046875 6.57984375 2.23046875 2.83984375 2.23046875 C2.83984375 2.89046875 2.83984375 3.55046875 2.83984375 4.23046875 C4.23203125 4.07578125 4.23203125 4.07578125 5.65234375 3.91796875 C8.83984375 4.23046875 8.83984375 4.23046875 10.83984375 6.48046875 C11.83984375 9.23046875 11.83984375 9.23046875 11.40234375 11.48046875 C9.16764261 13.98333403 7.09174867 13.94769441 3.83984375 14.23046875 C4.47921875 13.65296875 5.11859375 13.07546875 5.77734375 12.48046875 C7.87913044 10.18761054 8.25370304 9.16734221 8.83984375 6.23046875 C7.81503906 6.55917969 7.81503906 6.55917969 6.76953125 6.89453125 C-0.60500745 9.21439892 -8.02283327 11.3540402 -15.47265625 13.41796875 C-16.40287598 13.67980957 -17.3330957 13.94165039 -18.29150391 14.21142578 C-23.59051873 15.66522163 -28.68956873 16.6981607 -34.16015625 17.23046875 C-34.49015625 16.57046875 -34.82015625 15.91046875 -35.16015625 15.23046875 C-34.33773437 15.12089844 -33.5153125 15.01132813 -32.66796875 14.8984375 C-26.33030441 13.99828425 -20.34592873 12.88228332 -14.28125 10.81640625 C-12.16015625 10.23046875 -12.16015625 10.23046875 -8.16015625 10.23046875 C-8.16015625 9.57046875 -8.16015625 8.91046875 -8.16015625 8.23046875 C-6.84015625 8.23046875 -5.52015625 8.23046875 -4.16015625 8.23046875 C-4.49015625 7.24046875 -4.82015625 6.25046875 -5.16015625 5.23046875 C-4.17015625 4.24046875 -3.18015625 3.25046875 -2.16015625 2.23046875 C-3.81015625 2.23046875 -5.46015625 2.23046875 -7.16015625 2.23046875 C-4.08871492 0.1828412 -3.46164666 -0.01960075 0 0 Z " fill="#3C3223" transform="translate(159.16015625,88.76953125)"/>
<path d="M0 0 C1.5159375 -0.02126953 1.5159375 -0.02126953 3.0625 -0.04296875 C6.0885919 0.19445069 8.26227757 0.91425777 11 2.1875 C11.69650268 12.36417808 10.02724061 19.91036032 3.375 27.8125 C1.5859375 29.7890625 1.5859375 29.7890625 0 31.1875 C-0.66 31.1875 -1.32 31.1875 -2 31.1875 C-1.00956295 26.35121695 -0.04301154 21.71131127 2 17.1875 C2.33 17.1875 2.66 17.1875 3 17.1875 C3 18.8375 3 20.4875 3 22.1875 C3.99 22.1875 4.98 22.1875 6 22.1875 C8.13619737 15.98235526 9.36517527 10.76065478 9 4.1875 C1.26164903 1.60804968 -7.29580612 3.1330483 -15 5.1875 C-10.71 5.5175 -6.42 5.8475 -2 6.1875 C-2 6.5175 -2 6.8475 -2 7.1875 C-7.94 7.5175 -13.88 7.8475 -20 8.1875 C-17.55246127 3.29242254 -16.02011076 2.97431908 -11 1.1875 C-7.29424887 0.29025346 -3.8098146 0.02429729 0 0 Z " fill="#CF903D" transform="translate(172,81.8125)"/>
<path d="M0 0 C3.3 0 6.6 0 10 0 C10 0.66 10 1.32 10 2 C12.91653763 3.94435842 13.72364714 4.25179145 17 4.5 C20.27635286 4.74820855 21.08346237 5.05564158 24 7 C34.8086149 9.52325184 45.85586011 9.24196664 56.875 9.125 C58.54556748 9.1149383 60.21614091 9.10581815 61.88671875 9.09765625 C65.92462978 9.07592258 69.96224652 9.04157357 74 9 C74 9.33 74 9.66 74 10 C50.38037714 14.90797358 26.24901866 12.03131413 4 3 C2.68 2.01 1.36 1.02 0 0 Z " fill="#CC8C36" transform="translate(48,108)"/>
<path d="M0 0 C-1.75 4.875 -1.75 4.875 -4 6 C-6.0203011 6.04637707 -8.04202041 6.03781014 -10.0625 6 C-15.48338484 5.95788436 -20.63931964 6.19589795 -26 7 C-26.33 7.33 -26.66 7.66 -27 8 C-29.84925891 8.11352009 -32.67335579 8.16418626 -35.5234375 8.16796875 C-36.38055328 8.17129715 -37.23766907 8.17462555 -38.12075806 8.17805481 C-39.93824729 8.18312825 -41.75574588 8.18546301 -43.57324219 8.18530273 C-46.35627617 8.18748532 -49.13891145 8.20562566 -51.921875 8.22460938 C-53.68489447 8.22754397 -55.44791584 8.22952832 -57.2109375 8.23046875 C-58.04539398 8.23765427 -58.87985046 8.24483978 -59.73959351 8.25224304 C-65.65676406 8.22882396 -65.65676406 8.22882396 -69 6 C-68.09572266 6.02094727 -67.19144531 6.04189453 -66.25976562 6.06347656 C-46.2672541 6.46373211 -26.47512873 6.67962318 -7.10546875 0.8671875 C-4 0 -4 0 0 0 Z " fill="#E1983C" transform="translate(149,101)"/>
<path d="M0 0 C2.72963132 0.9570262 5.45871242 1.91557346 8.1875 2.875 C9.34088867 3.27912109 9.34088867 3.27912109 10.51757812 3.69140625 C14.37961548 5.05057819 18.21424232 6.43714212 22 8 C21.38125 8.45375 20.7625 8.9075 20.125 9.375 C17.94080167 10.97108919 17.94080167 10.97108919 16 13 C16.33 13.99 16.66 14.98 17 16 C11.03347646 14.42986223 6.17090975 11.24970218 1 8 C4 6 4 6 6 5 C6.99 6.65 7.98 8.3 9 10 C10.97536745 9.65213292 10.97536745 9.65213292 13 9 C13.33 8.34 13.66 7.68 14 7 C12.35 7 10.7 7 9 7 C9 6.34 9 5.68 9 5 C6.03 4.01 3.06 3.02 0 2 C0 1.34 0 0.68 0 0 Z " fill="#EA972C" transform="translate(31,92)"/>
<path d="M0 0 C-5.9587486 2.57282621 -10.63973934 3.41948006 -17.09375 3.29296875 C-17.92588013 3.28872391 -18.75801025 3.28447906 -19.61535645 3.28010559 C-22.24391593 3.26346307 -24.87167667 3.22583976 -27.5 3.1875 C-29.29425967 3.17243444 -31.0885315 3.15874933 -32.8828125 3.14648438 C-37.25551083 3.11360714 -41.62762053 3.06192722 -46 3 C-46 2.34 -46 1.68 -46 1 C-45.18958252 1.01047363 -44.37916504 1.02094727 -43.54418945 1.03173828 C-40.47079568 1.06629291 -37.39750248 1.09112454 -34.32397461 1.10986328 C-32.36630582 1.1245951 -30.40872682 1.15003698 -28.45117188 1.17578125 C-21.00625906 1.21366885 -14.01377267 0.73957609 -6.69604492 -0.66455078 C-4.03656679 -0.99545026 -2.52946436 -0.71950089 0 0 Z " fill="#3F3121" transform="translate(126,118)"/>
<path d="M0 0 C1.25541557 3.76624671 0.37061958 5.37188934 -1 9 C-0.071875 8.236875 0.85625 7.47375 1.8125 6.6875 C2.33457031 6.25824219 2.85664063 5.82898438 3.39453125 5.38671875 C5.00903269 3.99219804 6.50995992 2.52583683 8 1 C6.3833652 7.03280791 4.83290538 10.950809 0 15 C-0.33 14.01 -0.66 13.02 -1 12 C-1.66 12 -2.32 12 -3 12 C-2.14285714 3.42857143 -2.14285714 3.42857143 0 0 Z " fill="#39302A" transform="translate(171,104)"/>
<path d="M0 0 C9.00839659 1.62227481 18.00468854 3.30703046 27 5 C27 5.33 27 5.66 27 6 C25.02090602 6.02686553 23.04171029 6.04633375 21.0625 6.0625 C19.96035156 6.07410156 18.85820313 6.08570312 17.72265625 6.09765625 C15 6 15 6 14 5 C12.14712498 4.92773498 10.29166122 4.9161878 8.4375 4.9375 C7.42558594 4.94652344 6.41367187 4.95554687 5.37109375 4.96484375 C4.58863281 4.97644531 3.80617187 4.98804687 3 5 C3 4.01 3 3.02 3 2 C2.01 1.67 1.02 1.34 0 1 C0 0.67 0 0.34 0 0 Z " fill="#E39834" transform="translate(53,101)"/>
<path d="M0 0 C0.33 0.66 0.66 1.32 1 2 C1.98097656 1.67257813 2.96195313 1.34515625 3.97265625 1.0078125 C8.16980492 -0.19137284 12.10064102 -0.22816407 16.4375 -0.125 C17.53481445 -0.11146484 17.53481445 -0.11146484 18.65429688 -0.09765625 C20.43634298 -0.07436153 22.21821759 -0.0385019 24 0 C24 0.33 24 0.66 24 1 C22.865625 1.09796875 21.73125 1.1959375 20.5625 1.296875 C9.21458466 2.27989351 9.21458466 2.27989351 -1 7 C-1.33 7.66 -1.66 8.32 -2 9 C-2.66 9 -3.32 9 -4 9 C-4 7.68 -4 6.36 -4 5 C-3.34 5 -2.68 5 -2 5 C-2 4.34 -2 3.68 -2 3 C-1.34 3 -0.68 3 0 3 C0 2.01 0 1.02 0 0 Z " fill="#382F25" transform="translate(154,81)"/>
<path d="M0 0 C3.34373475 0.55728913 6.03312999 1.35173889 9 3 C9 3.66 9 4.32 9 5 C10.65 5 12.3 5 14 5 C13 8 13 8 11.1875 8.9375 C9 9 9 9 6.75 7.0625 C6.1725 6.381875 5.595 5.70125 5 5 C4.01 5.495 4.01 5.495 3 6 C2.01 5.34 1.02 4.68 0 4 C0 2.68 0 1.36 0 0 Z " fill="#F7981E" transform="translate(31,94)"/>
<path d="M0 0 C3.3 0 6.6 0 10 0 C10 0.66 10 1.32 10 2 C12.94689877 3.96459918 13.69577868 4.23098617 17 4.4375 C20.7574124 4.81047844 20.7574124 4.81047844 23 6.5625 C23.33 7.036875 23.66 7.51125 24 8 C15.34325643 7.33409665 7.00058428 5.25043821 0 0 Z " fill="#D68F34" transform="translate(48,108)"/>
<path d="M0 0 C0.33 0 0.66 0 1 0 C1 1.65 1 3.3 1 5 C1.66 5 2.32 5 3 5 C2.52354792 9.28806873 1.34097516 11.26647487 -2 14 C-2.66 14 -3.32 14 -4 14 C-3.00956295 9.16371695 -2.04301154 4.52381127 0 0 Z " fill="#DA9438" transform="translate(174,99)"/>
<path d="M0 0 C-1.75 4.875 -1.75 4.875 -4 6 C-5.54613014 5.91348369 -7.08909387 5.75997364 -8.625 5.5625 C-9.85089844 5.40974609 -9.85089844 5.40974609 -11.1015625 5.25390625 C-12.04128906 5.12822266 -12.04128906 5.12822266 -13 5 C-9.82825122 0.24237683 -5.4964213 0 0 0 Z " fill="#E7942E" transform="translate(149,101)"/>
<path d="M0 0 C2.8125 -0.3125 2.8125 -0.3125 6 0 C8 2.25 8 2.25 9 5 C8.5625 7.25 8.5625 7.25 7 9 C3.875 9.75 3.875 9.75 1 10 C1.639375 9.4225 2.27875 8.845 2.9375 8.25 C4.98223868 6.01937599 5.58205199 4.92563609 6 2 C4.02 2.33 2.04 2.66 0 3 C0 2.01 0 1.02 0 0 Z " fill="#3F352B" transform="translate(162,93)"/>
<path d="M0 0 C5.27315333 0.4452885 10.01770224 1.08373163 15 3 C15 3.66 15 4.32 15 5 C17.31 5.33 19.62 5.66 22 6 C18.74004193 7.08557892 16.89457573 6.91310151 13.671875 5.78515625 C12.87265625 5.51123047 12.0734375 5.23730469 11.25 4.95507812 C10.425 4.66052734 9.6 4.36597656 8.75 4.0625 C7.90953125 3.77181641 7.0690625 3.48113281 6.203125 3.18164062 C4.13194269 2.46378767 2.06466738 1.73633881 0 1 C0 0.67 0 0.34 0 0 Z " fill="#48371F" transform="translate(42,96)"/>
<path d="M0 0 C-1.77444972 2.24606427 -2.58352485 2.95081002 -5.48046875 3.29296875 C-6.82044922 3.24076172 -6.82044922 3.24076172 -8.1875 3.1875 C-9.53908203 3.14689453 -9.53908203 3.14689453 -10.91796875 3.10546875 C-11.60503906 3.07066406 -12.29210937 3.03585938 -13 3 C-13 3.66 -13 4.32 -13 5 C-13.66 4.67 -14.32 4.34 -15 4 C-14 2 -14 2 -11.85546875 1.11328125 C-10.97503906 0.84902344 -10.09460938 0.58476563 -9.1875 0.3125 C-8.31480469 0.04050781 -7.44210938 -0.23148437 -6.54296875 -0.51171875 C-3.93126166 -1.01319861 -2.48283616 -0.86233704 0 0 Z " fill="#3E3526" transform="translate(142,114)"/>
<path d="M0 0 C4.75 0.75 4.75 0.75 7 3 C6.01 3.495 6.01 3.495 5 4 C5.5053125 4.33773437 6.010625 4.67546875 6.53125 5.0234375 C7.1809375 5.46945313 7.830625 5.91546875 8.5 6.375 C9.1496875 6.81585938 9.799375 7.25671875 10.46875 7.7109375 C10.9740625 8.13632813 11.479375 8.56171875 12 9 C12 9.66 12 10.32 12 11 C8.81293058 9.56438314 6.37830895 7.79733671 3.75 5.5 C3.04359375 4.8915625 2.3371875 4.283125 1.609375 3.65625 C0 2 0 2 0 0 Z " fill="#D6963D" transform="translate(17,86)"/>
<path d="M0 0 C2.79422603 0.95135319 5.58524589 1.91069593 8.375 2.875 C9.1690625 3.14441406 9.963125 3.41382812 10.78125 3.69140625 C11.92207031 4.08779297 11.92207031 4.08779297 13.0859375 4.4921875 C13.7876709 4.73308105 14.4894043 4.97397461 15.21240234 5.22216797 C17 6 17 6 19 8 C15.7 7.67 12.4 7.34 9 7 C9 6.34 9 5.68 9 5 C6.03 4.01 3.06 3.02 0 2 C0 1.34 0 0.68 0 0 Z " fill="#D1913B" transform="translate(31,92)"/>
<path d="M0 0 C2.64752004 2.57784846 4.94432065 4.91648098 7 8 C4.03 7.505 4.03 7.505 1 7 C0.67 4.69 0.34 2.38 0 0 Z " fill="#433528" transform="translate(16,86)"/>
<path d="M0 0 C1.32 1.65 2.64 3.3 4 5 C2.25 5.75 2.25 5.75 0 6 C-2.25 4.0625 -2.25 4.0625 -4 2 C-3.01 1.67 -2.02 1.34 -1 1 C-0.67 0.67 -0.34 0.34 0 0 Z " fill="#E29433" transform="translate(36,97)"/>
<path d="M0 0 C6.52307692 -0.36923077 6.52307692 -0.36923077 8.9375 1.5 C9.288125 1.995 9.63875 2.49 10 3 C2.25 2.25 2.25 2.25 0 0 Z " fill="#E3983A" transform="translate(62,113)"/>
</svg>
