<?xml version="1.0" encoding="UTF-8"?>
<svg version="1.1" xmlns="http://www.w3.org/2000/svg" width="200" height="200">
<path d="M0 0 C66 0 132 0 200 0 C200 66 200 132 200 200 C134 200 68 200 0 200 C0 134 0 68 0 0 Z " fill="#1DA7CC" transform="translate(0,0)"/>
<path d="M0 0 C66 0 132 0 200 0 C200 66 200 132 200 200 C134 200 68 200 0 200 C0 134 0 68 0 0 Z M1 1 C1 41.59 1 82.18 1 124 C66.34 124 131.68 124 199 124 C199 83.41 199 42.82 199 1 C133.66 1 68.32 1 1 1 Z " fill="#FBFBFB" transform="translate(0,0)"/>
<path d="M0 0 C35.97 0 71.94 0 109 0 C109 0.33 109 0.66 109 1 C103.39 1 97.78 1 92 1 C92.309375 2.2375 92.61875 3.475 92.9375 4.75 C94.51744057 12.60519746 94.56538645 20.59832732 94.88671875 28.58105469 C95.03794755 31.81031107 95.30528206 35.02763086 95.5625 38.25 C97.24133152 66.93240968 94.27504465 94.17960709 91 123 C60.97 123 30.94 123 0 123 C0 82.41 0 41.82 0 0 Z " fill="#2B3984" transform="translate(1,1)"/>
<path d="M0 0 C12.87 0 25.74 0 39 0 C39 40.59 39 81.18 39 123 C23.49 123 7.98 123 -8 123 C-8 113.76 -8 104.52 -8 95 C-7.34 95 -6.68 95 -6 95 C-6.03480469 94.11256104 -6.06960937 93.22512207 -6.10546875 92.31079102 C-6.34474593 81.02417205 -5.01111773 70.20416614 -3.43487549 59.04296875 C-0.64059297 39.08885019 0.6046169 20.15389673 0 0 Z " fill="#83B863" transform="translate(160,1)"/>
<path d="M0 0 C0.51818106 28.94904855 -0.79396253 57.70456612 -2.4434967 86.60284424 C-3.12244546 98.73006992 -3.56543343 110.86166964 -4 123 C-13.24 123 -22.48 123 -32 123 C-32 117.52369239 -31.83415366 112.81195006 -31.125 107.46875 C-30.94088803 106.02043238 -30.75816737 104.57193738 -30.57666016 103.12329102 C-30.48185364 102.37040802 -30.38704712 101.61752502 -30.28936768 100.84182739 C-27.11493877 75.15145078 -27.45602867 49.98368483 -29.5625 24.1953125 C-29.93418268 19.51925843 -30.03011437 14.91764285 -29.96875 10.22998047 C-30.01287668 7.08112791 -30.46092873 4.09965983 -31 1 C-28.45861157 0.82770248 -25.91704079 0.66216467 -23.375 0.5 C-22.68148437 0.45230469 -21.98796875 0.40460937 -21.2734375 0.35546875 C-14.18351607 -0.08765134 -7.10135454 -0.04567603 0 0 Z " fill="#235CA2" transform="translate(124,1)"/>
<path d="M0 0 C13 0 13 0 19 1 C18.773125 1.928125 18.54625 2.85625 18.3125 3.8125 C18.209375 4.864375 18.10625 5.91625 18 7 C18.73089844 7.69996094 18.73089844 7.69996094 19.4765625 8.4140625 C21 10 21 10 21.22265625 12.19140625 C21.16980469 12.97386719 21.11695312 13.75632812 21.0625 14.5625 C20.87088561 16.88721105 20.87088561 16.88721105 21 19 C21.66 19.66 22.32 20.32 23 21 C23.37331436 22.99292436 23.69992551 24.99474031 24 27 C24.59569581 29.21641774 25.22247983 31.42464127 25.875 33.625 C26.22820313 34.85734375 26.58140625 36.0896875 26.9453125 37.359375 C27.58954971 39.58318639 28.24759725 41.80313058 28.9296875 44.015625 C32.20990628 55.44953047 32.09166066 67.51668899 29 79 C28.01 79 27.02 79 26 79 C25.95101563 79.67546875 25.90203125 80.3509375 25.8515625 81.046875 C25.77679687 81.93890625 25.70203125 82.8309375 25.625 83.75 C25.55539063 84.63171875 25.48578125 85.5134375 25.4140625 86.421875 C24.99560685 89.02735355 24.20768812 90.68179408 23 93 C22.63674754 94.50951579 22.32714274 96.03261291 22.0625 97.5625 C21.02427208 103.13570746 19.55385376 108.5511528 18 114 C17.34 114 16.68 114 16 114 C15.7834375 115.9490625 15.7834375 115.9490625 15.5625 117.9375 C15.125 121.875 15.125 121.875 14 123 C9.38 123 4.76 123 0 123 C0 82.41 0 41.82 0 0 Z " fill="#B11919" transform="translate(1,1)"/>
<path d="M0 0 C3.96 0 7.92 0 12 0 C11.67 1.11375 11.34 2.2275 11 3.375 C7.39732796 20.41537579 11.56000697 37.29079472 15 54 C15.68410748 57.40420337 16.363467 60.80932838 17.04223633 64.21459961 C17.45707302 66.28658567 17.8758551 68.35778784 18.29956055 70.42797852 C21.91449726 88.16296326 23.12214985 104.92182266 23 123 C12.77 123 2.54 123 -8 123 C-8 113.76 -8 104.52 -8 95 C-7.34 95 -6.68 95 -6 95 C-6.03480469 94.11256104 -6.06960937 93.22512207 -6.10546875 92.31079102 C-6.34474593 81.02417205 -5.01111773 70.20416614 -3.43487549 59.04296875 C-0.65560206 39.19603095 0.8294821 20.03045661 0 0 Z " fill="#019969" transform="translate(160,1)"/>
<path d="M0 0 C4.14428309 -0.02488484 8.28852554 -0.04294686 12.43286133 -0.05493164 C13.84009561 -0.0599327 15.24732477 -0.0667357 16.65454102 -0.07543945 C18.68767569 -0.08769159 20.72074114 -0.0932707 22.75390625 -0.09765625 C23.97408447 -0.10289307 25.1942627 -0.10812988 26.45141602 -0.11352539 C30.03512057 0.00112357 33.46312255 0.42672037 37 1 C35.6875 3.9375 35.6875 3.9375 34 7 C33.01 7.33 32.02 7.66 31 8 C28.26291133 15.86035721 27.2806521 24.4270512 26.86328125 32.71484375 C26.80527344 33.65457031 26.74726562 34.59429687 26.6875 35.5625 C26.65011719 36.40941406 26.61273438 37.25632813 26.57421875 38.12890625 C26.02337684 40.88311578 25.37283006 42.10318627 23.953125 44.4375 C20.80548665 50.43236208 21.71378938 56.86513507 22.0625 63.4375 C22.10310547 64.70916016 22.14371094 65.98082031 22.18554688 67.29101562 C22.45650817 73.58841736 23.03178587 79.04481114 25.29370117 84.93237305 C26.54309015 88.58984807 26.79180471 92.35575419 27.125 96.1875 C27.27195555 97.72279882 27.42036301 99.25795945 27.5703125 100.79296875 C27.63895508 101.50888184 27.70759766 102.22479492 27.77832031 102.96240234 C28.07208769 105.66260337 28.51424363 108.32833995 29 111 C29.66 111 30.32 111 31 111 C32.11002992 114.33008975 31.68516272 115.65983176 31 119 C31.495 119.99 31.495 119.99 32 121 C34.35599235 121.46751788 34.35599235 121.46751788 37.0625 121.625 C37.98160156 121.69976562 38.90070312 121.77453125 39.84765625 121.8515625 C40.91306641 121.92503906 40.91306641 121.92503906 42 122 C42 122.33 42 122.66 42 123 C28.47 123 14.94 123 1 123 C1.66 120.03 2.32 117.06 3 114 C3.66 114 4.32 114 5 114 C5.12375 112.80375 5.2475 111.6075 5.375 110.375 C5.83147786 106.70388933 6.78524493 103.50135284 8 100 C8.51214363 97.87033607 8.96809042 95.73183684 9.42578125 93.58984375 C10.50976316 88.7008641 11.7681586 83.85345511 13 79 C13.99 79 14.98 79 16 79 C15.979375 77.906875 15.95875 76.81375 15.9375 75.6875 C16 72 16 72 17 69 C17.77779862 58.22557652 16.42521585 49.29886934 13 39 C12.25898758 36.48262333 11.52959878 33.96179278 10.8125 31.4375 C10.48894531 30.32246094 10.16539063 29.20742188 9.83203125 28.05859375 C9.10349836 25.38046582 8.52270666 22.7238292 8 20 C7.79375 19.360625 7.5875 18.72125 7.375 18.0625 C6.85864825 15.22256539 7.42647233 12.80391303 8 10 C7.01 9.67 6.02 9.34 5 9 C3.875 4.25 3.875 4.25 5 2 C3.35 1.67 1.7 1.34 0 1 C0 0.67 0 0.34 0 0 Z " fill="#883270" transform="translate(14,1)"/>
<path d="M0 0 C0.66 0.33 1.32 0.66 2 1 C2.59355614 3.64860427 2.74209269 6.29197322 3 9 C3.99 9.33 4.98 9.66 6 10 C9.09281081 16.46490554 10.5476369 22.88072026 10 30 C10.66 30 11.32 30 12 30 C12.13277344 30.92683594 12.26554687 31.85367188 12.40234375 32.80859375 C12.57894531 34.00613281 12.75554688 35.20367187 12.9375 36.4375 C13.11152344 37.63246094 13.28554688 38.82742187 13.46484375 40.05859375 C13.68985213 42.87955676 13.68985213 42.87955676 15 44 C15.51468676 51.72030138 13.9349904 58.54798341 12 66 C11.01 66 10.02 66 9 66 C9.04125 67.2375 9.0825 68.475 9.125 69.75 C9.23857145 73.15714358 8.53463642 74.9934818 7 78 C6.63459336 79.71876456 6.32573468 81.45015112 6.0625 83.1875 C5.19685485 88.33981995 3.81210685 93.10731151 2 98 C1.34 98 0.68 98 0 98 C0.04125 98.94875 0.0825 99.8975 0.125 100.875 C0 104 0 104 -2 106 C-4.92743505 103.07256495 -4.42496948 99.89310279 -4.5625 95.95703125 C-4.61772827 94.75429817 -4.61772827 94.75429817 -4.67407227 93.52726746 C-4.79170174 90.95598026 -4.89715211 88.38441819 -5 85.8125 C-5.10319346 83.25846178 -5.20934716 80.7047551 -5.32592773 78.15129089 C-5.39846414 76.56220599 -5.463495 74.97275452 -5.51977539 73.38301086 C-5.73588253 68.64020778 -6.6141454 64.57010692 -8 60 C-8.24291992 57.6640625 -8.24291992 57.6640625 -8.23046875 55.625 C-8.22853516 54.86703125 -8.22660156 54.1090625 -8.22460938 53.328125 C-8.21236328 52.55984375 -8.20011719 51.7915625 -8.1875 51 C-8.18685547 50.23171875 -8.18621094 49.4634375 -8.18554688 48.671875 C-8.14996117 44.02200909 -7.68387445 39.60579078 -7 35 C-6.74801333 31.41380472 -6.6126533 27.82099715 -6.48242188 24.22851562 C-6.27094712 19.7955259 -5.52124507 16.20858072 -4 12 C-3.73788562 10.38280371 -3.52332474 8.75657211 -3.375 7.125 C-3.30023437 6.34382813 -3.22546875 5.56265625 -3.1484375 4.7578125 C-3.09945313 4.17773438 -3.05046875 3.59765625 -3 3 C-2.01 2.67 -1.02 2.34 0 2 C0 1.34 0 0.68 0 0 Z " fill="#D31217" transform="translate(16,14)"/>
<path d="M0 0 C1.65322266 0.01740234 1.65322266 0.01740234 3.33984375 0.03515625 C4.44457031 0.04417969 5.54929687 0.05320313 6.6875 0.0625 C7.54214844 0.07410156 8.39679688 0.08570313 9.27734375 0.09765625 C9.82069403 28.35744385 8.43528186 56.43955588 6.83384705 84.64916992 C6.15768694 96.79360703 5.71282215 108.94231243 5.27734375 121.09765625 C-3.63265625 121.09765625 -12.54265625 121.09765625 -21.72265625 121.09765625 C-21.39265625 120.10765625 -21.06265625 119.11765625 -20.72265625 118.09765625 C-20.72265625 118.75765625 -20.72265625 119.41765625 -20.72265625 120.09765625 C-15.77265625 119.76765625 -10.82265625 119.43765625 -5.72265625 119.09765625 C-5.57003183 113.68111294 -5.42361568 108.26456783 -5.28515625 102.84765625 C-5.26275879 101.97537384 -5.24036133 101.10309143 -5.21728516 100.20437622 C-4.85939701 85.94453248 -4.63893745 71.68495026 -4.46875 57.421875 C-4.45838778 56.56611248 -4.44802555 55.71034996 -4.43734932 54.82865524 C-4.33173867 46.10501966 -4.23027299 37.38137321 -4.1421442 28.65754223 C-4.10773602 25.340521 -4.06946343 22.0235516 -4.03033638 18.70658302 C-4.01278393 17.13740753 -3.99703675 15.56821075 -3.98313713 13.99899864 C-3.96389692 11.83966987 -3.93871438 9.68048891 -3.91210938 7.52124023 C-3.8995813 6.30000961 -3.88705322 5.07877899 -3.87414551 3.82054138 C-3.67062299 0.1624045 -3.6644475 0.13143642 0 0 Z " fill="#2C7CB3" transform="translate(114.72265625,2.90234375)"/>
<path d="M0 0 C0.66 0 1.32 0 2 0 C2 30.36 2 60.72 2 92 C-2.29 92 -6.58 92 -11 92 C-17.17818251 72.91738788 -10.68523016 52.47160303 -6.20825195 33.67602539 C-4.44354619 26.21641234 -3.02289799 18.75601973 -1.8125 11.1875 C-1.63525391 10.10146484 -1.45800781 9.01542969 -1.27539062 7.89648438 C-0.84645638 5.26491481 -0.42136238 2.6327906 0 0 Z " fill="#1C953B" transform="translate(197,32)"/>
<path d="M0 0 C0.66 0 1.32 0 2 0 C2.01458252 0.93682617 2.02916504 1.87365234 2.04418945 2.83886719 C2.10588093 6.37293882 2.18014264 9.90631197 2.26245117 13.43994141 C2.29534946 14.95839778 2.3234859 16.47696616 2.34643555 17.99560547 C2.47849536 26.50924867 2.96654396 34.26689041 5.31616211 42.515625 C6.15182811 45.55158972 6.46419393 48.48504989 6.625 51.625 C6.75625324 55.46151544 6.75625324 55.46151544 8 59 C8.15004973 60.3734635 8.24838006 61.7528526 8.31640625 63.1328125 C8.37356812 64.22166748 8.37356812 64.22166748 8.43188477 65.33251953 C8.47498779 66.25403809 8.51809082 67.17555664 8.5625 68.125 C8.706875 71.05375 8.85125 73.9825 9 77 C0.42 77 -8.16 77 -17 77 C-16.34 74.03 -15.68 71.06 -15 68 C-14.34 68 -13.68 68 -13 68 C-12.87625 66.80375 -12.7525 65.6075 -12.625 64.375 C-12.16852214 60.70388933 -11.21475507 57.50135284 -10 54 C-9.48785637 51.87033607 -9.03190958 49.73183684 -8.57421875 47.58984375 C-7.49023684 42.7008641 -6.2318414 37.85345511 -5 33 C-4.01 33 -3.02 33 -2 33 C-2.04125 31.989375 -2.0825 30.97875 -2.125 29.9375 C-2 26 -2 26 -1.00390625 22.73828125 C0.06869331 18.7442043 0.23307322 15.37644761 0.1875 11.25 C0.18105469 9.95578125 0.17460938 8.6615625 0.16796875 7.328125 C0.1490649 4.00051621 0.1490649 4.00051621 -1 1 C-0.67 0.67 -0.34 0.34 0 0 Z " fill="#883272" transform="translate(32,47)"/>
<path d="M0 0 C3.43615111 2.12017834 5.80717883 4.09622164 7 8 C7.4583991 12.73679066 7.47747465 15.02668629 5.375 19.3125 C1.99659554 23.13543137 -0.9612224 24.70267827 -6 25.4375 C-10.58095052 24.76944472 -13.58405828 22.58074254 -16.64453125 19.1640625 C-19.04108304 15.33786742 -18.74113344 11.35072777 -18 7 C-14.02563039 -0.72794092 -7.80556574 -1.93745293 0 0 Z " fill="#A2A2A2" transform="translate(61,150)"/>
<path d="M0 0 C11.625 -0.25 11.625 -0.25 15 2 C15.7425 1.690625 16.485 1.38125 17.25 1.0625 C20.89622368 -0.34626824 23.23673945 0.09402987 27 1 C29.25199531 2.66542909 29.91399849 3.57070911 30.46875 6.33984375 C30.5524963 13.30125468 30.5524963 13.30125468 27.875 16.6875 C24.2697046 18.33339573 22.74376041 18.24792014 19 17 C16.125 14.9375 16.125 14.9375 14 13 C13.71125 13.639375 13.4225 14.27875 13.125 14.9375 C12 17 12 17 10 18 C8.29297265 18.06996014 6.58331997 18.08440154 4.875 18.0625 C3.26625 18.041875 1.6575 18.02125 0 18 C0 12.06 0 6.12 0 0 Z " fill="#D51828" transform="translate(80,153)"/>
<path d="M0 0 C13 0 13 0 19 1 C18.773125 1.928125 18.54625 2.85625 18.3125 3.8125 C18.209375 4.864375 18.10625 5.91625 18 7 C18.73089844 7.69996094 18.73089844 7.69996094 19.4765625 8.4140625 C21 10 21 10 21.22265625 12.19140625 C21.16980469 12.97386719 21.11695312 13.75632812 21.0625 14.5625 C20.87088561 16.88721105 20.87088561 16.88721105 21 19 C21.66 19.66 22.32 20.32 23 21 C23.37331436 22.99292436 23.69992551 24.99474031 24 27 C24.59569581 29.21641774 25.22247983 31.42464127 25.875 33.625 C26.22820313 34.85734375 26.58140625 36.0896875 26.9453125 37.359375 C27.58954971 39.58318639 28.24759725 41.80313058 28.9296875 44.015625 C32.20990628 55.44953047 32.09166066 67.51668899 29 79 C28.34 79 27.68 79 27 79 C27.89534884 71.45348837 27.89534884 71.45348837 28.5625 68.5625 C29.64975928 62.19426705 29.07189655 57.08619611 27 51 C26.8332231 48.3070436 26.90682472 45.70208299 27 43 C26.34 43 25.68 43 25 43 C24.89042969 42.39414062 24.78085937 41.78828125 24.66796875 41.1640625 C23.343685 30.8855026 23.343685 30.8855026 19 22 C18.46477109 19.19791923 18.03500884 16.38530909 17.59765625 13.56640625 C17.20362864 10.85142738 17.20362864 10.85142738 15 9 C14.875 6.375 14.875 6.375 15 4 C14.01 4 13.02 4 12 4 C12 3.34 12 2.68 12 2 C8.7 2 5.4 2 2 2 C2.10761592 9.36288456 2.22027234 16.72567387 2.33933926 24.08838272 C2.39447071 27.50729472 2.44787477 30.92621542 2.49731445 34.34521484 C2.55424676 38.27710613 2.61872237 42.20885636 2.68359375 46.140625 C2.70030624 47.36678528 2.71701874 48.59294556 2.73423767 49.85626221 C2.75418289 50.99714294 2.77412811 52.13802368 2.79467773 53.31347656 C2.81799416 54.81905121 2.81799416 54.81905121 2.84178162 56.3550415 C2.91262 58.95560056 2.91262 58.95560056 3.57533264 61.23040771 C4 63 4 63 3 65 C2.88042526 66.81718084 2.8227532 68.63857835 2.79467773 70.45947266 C2.77473251 71.60050446 2.75478729 72.74153625 2.73423767 73.91714478 C2.71752518 75.15362762 2.70081268 76.39011047 2.68359375 77.6640625 C2.66281265 78.92640717 2.64203156 80.18875183 2.62062073 81.48934937 C2.56622074 84.84632045 2.51599764 88.20330189 2.46777344 91.56036377 C2.41754958 94.98561065 2.36186814 98.41076829 2.30664062 101.8359375 C2.19938137 108.55722286 2.0981299 115.27857541 2 122 C5.96 122 9.92 122 14 122 C14 122.33 14 122.66 14 123 C9.38 123 4.76 123 0 123 C0 82.41 0 41.82 0 0 Z " fill="#962A2B" transform="translate(1,1)"/>
<path d="M0 0 C5.61 0 11.22 0 17 0 C16.01 1.98 15.02 3.96 14 6 C13.01 6.33 12.02 6.66 11 7 C8.26291133 14.86035721 7.2806521 23.4270512 6.86328125 31.71484375 C6.80527344 32.65457031 6.74726562 33.59429687 6.6875 34.5625 C6.65011719 35.40941406 6.61273438 36.25632813 6.57421875 37.12890625 C6.02337684 39.88311578 5.37283006 41.10318627 3.953125 43.4375 C0.80548665 49.43236208 1.71378938 55.86513507 2.0625 62.4375 C2.10310547 63.70916016 2.14371094 64.98082031 2.18554688 66.29101562 C2.45650817 72.58841736 3.03178587 78.04481114 5.29370117 83.93237305 C6.54309015 87.58984807 6.79180471 91.35575419 7.125 95.1875 C7.27195555 96.72279882 7.42036301 98.25795945 7.5703125 99.79296875 C7.63895508 100.50888184 7.70759766 101.22479492 7.77832031 101.96240234 C8.07208769 104.66260337 8.51424363 107.32833995 9 110 C9.66 110 10.32 110 11 110 C12.11002992 113.33008975 11.68516272 114.65983176 11 118 C11.33 118.66 11.66 119.32 12 120 C14.35599235 120.46751788 14.35599235 120.46751788 17.0625 120.625 C17.98160156 120.69976562 18.90070312 120.77453125 19.84765625 120.8515625 C20.91306641 120.92503906 20.91306641 120.92503906 22 121 C22 121.33 22 121.66 22 122 C17.05 122 12.1 122 7 122 C5.16884371 118.33768743 5.58604263 113.82282911 5.39453125 109.765625 C5.26312046 105.75248397 5.26312046 105.75248397 4 102 C3.55991976 98.76781407 3.18772461 95.5357777 2.83789062 92.29296875 C2.44249513 88.86620779 1.94157316 85.80261794 0.95703125 82.4765625 C-0.60802388 76.50727701 -0.37198383 70.30582532 -0.37060547 64.17626953 C-0.3749353 62.03204194 -0.41120882 59.88995274 -0.44921875 57.74609375 C-0.51919815 48.91682475 0.60230479 41.18470981 3.07104492 32.7019043 C4.36899463 27.52954911 4.6221523 22.53581231 4.82421875 17.20703125 C4.98084252 14.34951757 5.3869957 11.78638318 6 9 C6.20291076 7.56459423 6.39170237 6.12708003 6.5625 4.6875 C6.706875 3.470625 6.85125 2.25375 7 1 C4.69 1 2.38 1 0 1 C0 0.67 0 0.34 0 0 Z " fill="#723686" transform="translate(34,2)"/>
<path d="M0 0 C0 1.32 0 2.64 0 4 C2.97 4 5.94 4 9 4 C9.33 2.68 9.66 1.36 10 0 C12.49661422 2.6526526 13.88398909 4.38127515 14.5625 8 C13.82020487 11.95890738 12.01305468 13.43890352 9 16 C9 14.68 9 13.36 9 12 C6.03 12 3.06 12 0 12 C0 13.32 0 14.64 0 16 C-3 15 -3 15 -5 12 C-5.55485498 5.00882724 -5.55485498 5.00882724 -3.625 1.5 C-2 0 -2 0 0 0 Z " fill="#444444" transform="translate(51,154)"/>
<path d="M0 0 C1.65 0 3.3 0 5 0 C5 5.61 5 11.22 5 17 C3.35 17 1.7 17 0 17 C0 15.02 0 13.04 0 11 C-1.65 11 -3.3 11 -5 11 C-5 12.98 -5 14.96 -5 17 C-6.32 17 -7.64 17 -9 17 C-9 11.72 -9 6.44 -9 1 C-7.68 1 -6.36 1 -5 1 C-5 2.98 -5 4.96 -5 7 C-3.35 7 -1.7 7 0 7 C0 4.69 0 2.38 0 0 Z " fill="#CF0E21" transform="translate(151,153)"/>
<path d="M0 0 C4.40933922 4.40933922 4.30893685 12.0480334 4.75390625 17.99609375 C4.79079325 19.99600793 4.79079325 19.99600793 6 21 C6.144375 22.11375 6.28875 23.2275 6.4375 24.375 C6.75300217 28.08510547 6.75300217 28.08510547 9 31 C9.50244141 33.00195312 9.50244141 33.00195312 9.8515625 35.28125 C9.98071045 36.11881836 10.1098584 36.95638672 10.24291992 37.81933594 C10.36900635 38.70395508 10.49509277 39.58857422 10.625 40.5 C10.75688721 41.39750977 10.88877441 42.29501953 11.0246582 43.21972656 C11.90309056 49.50446433 12.39320768 55.6504241 12 62 C12.66 62 13.32 62 14 62 C13.99476318 62.59949463 13.98952637 63.19898926 13.98413086 63.81665039 C13.96318557 66.56525602 13.95028444 69.31384478 13.9375 72.0625 C13.92912109 73.00544922 13.92074219 73.94839844 13.91210938 74.91992188 C13.89418897 80.0630768 14.10740389 84.93258427 15 90 C14.01 90 13.02 90 12 90 C11.95625244 88.81301514 11.95625244 88.81301514 11.91162109 87.60205078 C10.8602405 61.68161833 7.3441226 36.40721729 1.11767578 11.19580078 C0.19150087 7.38243262 -0.15641381 3.92237713 0 0 Z " fill="#75BD73" transform="translate(171,34)"/>
<path d="M0 0 C0.66 0 1.32 0 2 0 C2 30.36 2 60.72 2 92 C1.67 92 1.34 92 1 92 C0.98969254 91.28082901 0.97938507 90.56165802 0.96876526 89.82069397 C0.87037871 83.00985217 0.76780978 76.19908449 0.66066074 69.38837528 C0.60573209 65.88777087 0.55236392 62.38715778 0.50268555 58.88647461 C0.44537 54.85261921 0.38104503 50.818901 0.31640625 46.78515625 C0.29969376 45.54105484 0.28298126 44.29695343 0.26576233 43.01515198 C0.15749975 36.60716042 -0.16122041 30.35502399 -1 24 C-1.99 24.99 -2.98 25.98 -4 27 C-2.7301465 17.98944381 -1.40386743 8.99072547 0 0 Z " fill="#458358" transform="translate(197,32)"/>
<path d="M0 0 C3.3 0 6.6 0 10 0 C10.33 1.65 10.66 3.3 11 5 C8.36 4.34 5.72 3.68 3 3 C3 4.32 3 5.64 3 7 C4.36125 6.9071875 4.36125 6.9071875 5.75 6.8125 C9.28982642 7.01672076 10.44931155 7.64551835 13 10 C12.125 14.875 12.125 14.875 11 16 C7.3308423 16.14310287 3.67284559 16.04221662 0 16 C0 10.72 0 5.44 0 0 Z " fill="#D6081C" transform="translate(81,154)"/>
<path d="M0 0 C1.98 0 3.96 0 6 0 C5.773125 0.928125 5.54625 1.85625 5.3125 2.8125 C5.209375 3.864375 5.10625 4.91625 5 6 C5.48726562 6.46664063 5.97453125 6.93328125 6.4765625 7.4140625 C8 9 8 9 8.22265625 11.19140625 C8.16980469 11.97386719 8.11695313 12.75632812 8.0625 13.5625 C7.87088561 15.88721105 7.87088561 15.88721105 8 18 C8.66 18.66 9.32 19.32 10 20 C10.37331436 21.99292436 10.69992551 23.99474031 11 26 C11.59569581 28.21641774 12.22247983 30.42464127 12.875 32.625 C13.22820313 33.85734375 13.58140625 35.0896875 13.9453125 36.359375 C14.58954971 38.58318639 15.24759725 40.80313058 15.9296875 43.015625 C19.20990628 54.44953047 19.09166066 66.51668899 16 78 C15.34 78 14.68 78 14 78 C14.89534884 70.45348837 14.89534884 70.45348837 15.5625 67.5625 C16.64975928 61.19426705 16.07189655 56.08619611 14 50 C13.8332231 47.3070436 13.90682472 44.70208299 14 42 C13.34 42 12.68 42 12 42 C11.89042969 41.39414062 11.78085937 40.78828125 11.66796875 40.1640625 C10.343685 29.8855026 10.343685 29.8855026 6 21 C5.46477109 18.19791923 5.03500884 15.38530909 4.59765625 12.56640625 C4.20362864 9.85142738 4.20362864 9.85142738 2 8 C1.1436973 5.36766208 0.61070073 2.70453182 0 0 Z " fill="#972851" transform="translate(14,2)"/>
<path d="M0 0 C3.0625 0.25 3.0625 0.25 6.0625 2.25 C5.7325 3.24 5.4025 4.23 5.0625 5.25 C2.7525 4.92 0.4425 4.59 -1.9375 4.25 C-0.31383534 7.49732932 2.81637839 7.95155136 6.0625 9.25 C6.4225 14.65 6.4225 14.65 4.9375 17.125 C2.20997535 18.76151479 0.18276907 18.57502803 -2.9375 18.25 C-3.9275 17.59 -4.9175 16.93 -5.9375 16.25 C-5.6075 14.93 -5.2775 13.61 -4.9375 12.25 C-2.6275 12.91 -0.3175 13.57 2.0625 14.25 C2.0625 13.26 2.0625 12.27 2.0625 11.25 C1.11375 11.146875 0.165 11.04375 -0.8125 10.9375 C-3.9375 10.25 -3.9375 10.25 -5.9375 7.25 C-5.50255443 2.79180787 -4.8294944 0.4110208 0 0 Z " fill="#D61123" transform="translate(117.9375,152.75)"/>
<path d="M0 0 C0.33 0 0.66 0 1 0 C0.67 7.92 0.34 15.84 0 24 C-0.66 24 -1.32 24 -2 24 C-2 33.24 -2 42.48 -2 52 C-3.98 52 -5.96 52 -8 52 C-8 45.73 -8 39.46 -8 33 C-7.01 32.505 -7.01 32.505 -6 32 C-6 35.96 -6 39.92 -6 44 C-5.34 44 -4.68 44 -4 44 C-3.96241577 42.75911621 -3.96241577 42.75911621 -3.92407227 41.49316406 C-3.80803651 37.74528808 -3.685344 33.99765875 -3.5625 30.25 C-3.52318359 28.94804688 -3.48386719 27.64609375 -3.44335938 26.3046875 C-3.40146484 25.05429688 -3.35957031 23.80390625 -3.31640625 22.515625 C-3.27974854 21.36352539 -3.24309082 20.21142578 -3.20532227 19.02441406 C-3.03465652 16.51049341 -2.6697195 14.40915814 -2 12 C-1.97208109 9.69868403 -2.06322937 7.42019939 -2.16015625 5.12109375 C-2 3 -2 3 0 0 Z " fill="#058EA1" transform="translate(154,72)"/>
<path d="M0 0 C3.3125 1 3.3125 1 5.3125 4 C3.3325 4.99 3.3325 4.99 1.3125 6 C1.3125 5.34 1.3125 4.68 1.3125 4 C-0.0075 4.33 -1.3275 4.66 -2.6875 5 C-3.70290112 9.10223585 -3.70290112 9.10223585 -2.6875 13 C-0.66286745 13.65213292 -0.66286745 13.65213292 1.3125 14 C1.3125 13.34 1.3125 12.68 1.3125 12 C2.6325 12.66 3.9525 13.32 5.3125 14 C3.75 16.0625 3.75 16.0625 1.3125 18 C-2.25 18.0625 -2.25 18.0625 -5.6875 17 C-8.24659079 14.19325527 -8.65100588 12.25545886 -9.1875 8.5 C-8.6875 5 -8.6875 5 -6.625 2 C-3.6875 0 -3.6875 0 0 0 Z " fill="#D12638" transform="translate(134.6875,153)"/>
<path d="M0 0 C0.66 0 1.32 0 2 0 C2 1.32 2 2.64 2 4 C2.639375 4.2475 3.27875 4.495 3.9375 4.75 C6 6 6 6 6.75 7.6875 C7.08664439 10.80146062 7.06017169 13.87107191 7 17 C4.4345406 14.4345406 4.45953913 12.52313332 4 9 C0.66955218 10.71738202 0.66955218 10.71738202 0.3046875 14.22265625 C0.16289062 15.48980469 0.02109375 16.75695312 -0.125 18.0625 C-0.9184845 24.9184845 -0.9184845 24.9184845 -2 26 C-2.1919476 28.4831316 -2.33038695 30.95034046 -2.4375 33.4375 C-2.89844083 42.6752321 -3.89411854 51.82011024 -5 61 C-5.33 61 -5.66 61 -6 61 C-6.12710854 53.54296572 -5.88380807 46.17068754 -5.35131836 38.73681641 C-5.09840173 35.09393719 -4.98965699 31.52310925 -5.125 27.875 C-5 24 -5 24 -3.53125 21.203125 C-1.79306874 17.56713358 -1.53946612 14.88277975 -1.375 10.875 C-1.03839463 3.42159543 -1.03839463 3.42159543 0 0 Z " fill="#C2171B" transform="translate(13,6)"/>
<path d="M0 0 C0 5.28 0 10.56 0 16 C1.32 16.33 2.64 16.66 4 17 C1.36 16.67 -1.28 16.34 -4 16 C-3.67 15.01 -3.34 14.02 -3 13 C-3.99 12.34 -4.98 11.68 -6 11 C-6 11.66 -6 12.32 -6 13 C-7.65 12.67 -9.3 12.34 -11 12 C-11.625 9.1875 -11.625 9.1875 -12 6 C-11.34 5.01 -10.68 4.02 -10 3 C-8.68 3 -7.36 3 -6 3 C-6 3.66 -6 4.32 -6 5 C-5.195625 4.175 -4.39125 3.35 -3.5625 2.5 C-1 0 -1 0 0 0 Z " fill="#FDE6E8" transform="translate(142,154)"/>
<path d="M0 0 C11.625 -0.25 11.625 -0.25 15 2 C15.99 2.33 16.98 2.66 18 3 C17.67 3.33 17.34 3.66 17 4 C16.76807135 5.51469448 16.58784762 7.03754562 16.4375 8.5625 C16.35371094 9.38878906 16.26992187 10.21507812 16.18359375 11.06640625 C16.09271484 12.02353516 16.09271484 12.02353516 16 13 C15.34 13 14.68 13 14 13 C13.4225 12.360625 12.845 11.72125 12.25 11.0625 C9.51617726 8.55649582 7.63214398 8.33019491 4 8 C4 6.68 4 5.36 4 4 C7.71599191 3.79913557 8.77208445 3.8480563 12 6 C11.67 4.68 11.34 3.36 11 2 C7.7 1.67 4.4 1.34 1 1 C1 6.28 1 11.56 1 17 C3.97 17 6.94 17 10 17 C10 17.33 10 17.66 10 18 C6.7 18 3.4 18 0 18 C0 12.06 0 6.12 0 0 Z " fill="#F5A6AD" transform="translate(80,153)"/>
<path d="M0 0 C0.33 0 0.66 0 1 0 C1.36684237 18.28568104 0.88894294 35.88263972 -2 54 C-2.33 54 -2.66 54 -3 54 C-3.22185844 51.73044814 -3.42705515 49.45926245 -3.625 47.1875 C-3.74101562 45.92292969 -3.85703125 44.65835938 -3.9765625 43.35546875 C-4 40 -4 40 -2 37 C-1.77119001 34.25907385 -1.65112074 31.61087407 -1.62109375 28.8671875 C-1.60409927 28.0747464 -1.5871048 27.2823053 -1.56959534 26.46585083 C-1.51647308 23.93564804 -1.4761605 21.40546189 -1.4375 18.875 C-1.39361734 16.33747929 -1.34697668 13.80008768 -1.29469299 11.26272583 C-1.26265706 9.68362104 -1.23579174 8.10440166 -1.21446228 6.52511597 C-1.11175261 1.11175261 -1.11175261 1.11175261 0 0 Z " fill="#04B1BD" transform="translate(160,2)"/>
<path d="M0 0 C3 2 3 2 3.6875 4.4375 C4.11383138 9.29767771 4.0780736 14.12473732 4 19 C4.66 19 5.32 19 6 19 C5.99214478 19.89924194 5.99214478 19.89924194 5.98413086 20.81665039 C5.96318557 23.56525602 5.95028444 26.31384478 5.9375 29.0625 C5.92912109 30.00544922 5.92074219 30.94839844 5.91210938 31.91992188 C5.89418897 37.0630768 6.10740389 41.93258427 7 47 C6.01 47 5.02 47 4 47 C3.9498877 46.10917725 3.89977539 45.21835449 3.84814453 44.30053711 C3.65507454 40.91743427 3.45683726 37.53470907 3.25537109 34.15209961 C3.17004481 32.70267129 3.08663574 31.25312851 3.00537109 29.8034668 C2.44206153 19.78559733 1.47106397 9.92832809 0 0 Z " fill="#6ABD7A" transform="translate(179,77)"/>
<path d="M0 0 C0.33 0 0.66 0 1 0 C1.06058594 1.02480469 1.12117188 2.04960938 1.18359375 3.10546875 C1.26805026 4.46615695 1.35269567 5.82683343 1.4375 7.1875 C1.47681641 7.86103516 1.51613281 8.53457031 1.55664062 9.22851562 C1.78927565 12.89699102 2.17207011 16.41694206 3 20 C3.33 20 3.66 20 4 20 C3.85845864 22.56280208 3.71191438 25.12515485 3.5625 27.6875 C3.50352539 28.7693457 3.50352539 28.7693457 3.44335938 29.87304688 C3.21814322 33.66707282 2.87160695 37.28651492 2 41 C-0.58995441 37.11506838 -0.25225542 33.89432764 -0.1953125 29.39453125 C-0.19106766 28.13572395 -0.19106766 28.13572395 -0.18673706 26.85148621 C-0.17554385 24.17167897 -0.15044101 21.49220619 -0.125 18.8125 C-0.11496908 16.99544754 -0.10584343 15.17838983 -0.09765625 13.36132812 C-0.07560734 8.90742325 -0.04108351 4.45376833 0 0 Z " fill="#143F8E" transform="translate(91,73)"/>
<path d="M0 0 C2.97 0 5.94 0 9 0 C9 1.32 9 2.64 9 4 C9.66 4 10.32 4 11 4 C11 4.66 11 5.32 11 6 C7.5321507 7.73392465 3.78231256 7.61299548 0 7 C-3.0625 4.5 -3.0625 4.5 -5 2 C-2.525 2.99 -2.525 2.99 0 4 C0 2.68 0 1.36 0 0 Z " fill="#F4F4F4" transform="translate(51,166)"/>
<path d="M0 0 C1.65 0.33 3.3 0.66 5 1 C4.67 1.99 4.34 2.98 4 4 C3.76835942 8.24674388 3.66785576 11.35602463 6 15 C3.69 15.33 1.38 15.66 -1 16 C-0.67 15.34 -0.34 14.68 0 14 C0.039992 12.00039988 0.04346799 9.99952758 0 8 C-2.31 7.01 -4.62 6.02 -7 5 C-7 4.34 -7 3.68 -7 3 C-4.69 3 -2.38 3 0 3 C0 2.01 0 1.02 0 0 Z " fill="#FEDCE0" transform="translate(123,154)"/>
<path d="M0 0 C0.33 0 0.66 0 1 0 C1 10.89 1 21.78 1 33 C0.67 33 0.34 33 0 33 C-0.33 30.03 -0.66 27.06 -1 24 C-1.99 24.99 -2.98 25.98 -4 27 C-2.7301465 17.98944381 -1.40386743 8.99072547 0 0 Z " fill="#398D45" transform="translate(197,32)"/>
<path d="M0 0 C0 0.66 0 1.32 0 2 C-5.94 2.495 -5.94 2.495 -12 3 C-12.33 6.96 -12.66 10.92 -13 15 C-13.33 15 -13.66 15 -14 15 C-14 11.7 -14 8.4 -14 5 C-14.99 4.67 -15.98 4.34 -17 4 C-16.34 3.67 -15.68 3.34 -15 3 C-17.10388569 2.94597726 -19.20816714 2.90719744 -21.3125 2.875 C-22.48425781 2.85179687 -23.65601562 2.82859375 -24.86328125 2.8046875 C-28.16393661 2.74679382 -28.16393661 2.74679382 -31 5 C-31 3.68 -31 2.36 -31 1 C-20.64523146 0.29798179 -10.38324014 -0.14809693 0 0 Z " fill="#24528F" transform="translate(124,1)"/>
<path d="M0 0 C8.25 0 16.5 0 25 0 C25 0.33 25 0.66 25 1 C21.7 1 18.4 1 15 1 C14.67 1.66 14.34 2.32 14 3 C13.40832031 2.91878906 12.81664062 2.83757812 12.20703125 2.75390625 C9.64657309 2.54923667 7.52518271 2.49749709 5 3 C2.75913956 5.04133177 1.36574291 7.30969236 0 10 C-1 7 -1 7 0 0 Z " fill="#94B967" transform="translate(172,1)"/>
<path d="M0 0 C1.65 0 3.3 0 5 0 C5 5.61 5 11.22 5 17 C3.35 17 1.7 17 0 17 C0 15.02 0 13.04 0 11 C-1.65 11 -3.3 11 -5 11 C-5 10.01 -5 9.02 -5 8 C-2.69 8 -0.38 8 2 8 C3.09658936 11.28976808 2.79953138 12.71303767 2 16 C2.66 16 3.32 16 4 16 C4 11.05 4 6.1 4 1 C3.01 1 2.02 1 1 1 C1 2.98 1 4.96 1 7 C0.67 7 0.34 7 0 7 C0 4.69 0 2.38 0 0 Z " fill="#DF3A4B" transform="translate(151,153)"/>
<path d="M0 0 C0.33 0 0.66 0 1 0 C1.14099121 0.77077881 1.28198242 1.54155762 1.42724609 2.33569336 C2.07475573 5.86995052 2.72485864 9.40372604 3.375 12.9375 C3.59671875 14.14986328 3.8184375 15.36222656 4.046875 16.61132812 C5.00576987 21.81474291 5.97264301 26.98783636 7.2265625 32.12890625 C7.93061104 35.65270476 8.00319689 36.78360605 7 40 C5.19533017 38.19533017 5.58507442 35.26897184 5.37890625 32.8125 C5.25386719 32.214375 5.12882813 31.61625 5 31 C4.34 30.67 3.68 30.34 3 30 C2.54961708 27.15051852 2.20383981 24.3672059 1.9375 21.5 C1.8840329 16.3351489 1.8840329 16.3351489 0 12 C-0.07244053 9.98035801 -0.08377188 7.95832876 -0.0625 5.9375 C-0.05347656 4.83277344 -0.04445312 3.72804688 -0.03515625 2.58984375 C-0.02355469 1.73519531 -0.01195312 0.88054688 0 0 Z " fill="#189A51" transform="translate(169,28)"/>
<path d="M0 0 C2.97 0 5.94 0 9 0 C7.6875 2.9375 7.6875 2.9375 6 6 C5.01 6.33 4.02 6.66 3 7 C1.96683512 9.79172239 1.96683512 9.79172239 1.3125 13.0625 C1.06113281 14.16722656 0.80976562 15.27195312 0.55078125 16.41015625 C0.36902344 17.26480469 0.18726563 18.11945312 0 19 C-0.33 19 -0.66 19 -1 19 C-0.67 12.73 -0.34 6.46 0 0 Z " fill="#633887" transform="translate(42,2)"/>
<path d="M0 0 C15.84 0 31.68 0 48 0 C47.67 0.99 47.34 1.98 47 3 C43.7 2.34 40.4 1.68 37 1 C36.67 1.66 36.34 2.32 36 3 C35.01 2.67 34.02 2.34 33 2 C30.48945095 1.8470353 28.00111475 1.74304822 25.48828125 1.68359375 C24.76005661 1.66281265 24.03183197 1.64203156 23.28153992 1.62062073 C20.95862125 1.55531254 18.63559094 1.49632763 16.3125 1.4375 C14.73631665 1.39429695 13.16014452 1.35068208 11.58398438 1.30664062 C7.72277025 1.1996504 3.86144397 1.09833039 0 1 C0 0.67 0 0.34 0 0 Z " fill="#3C4571" transform="translate(44,1)"/>
<path d="M0 0 C3.0625 0.25 3.0625 0.25 6.0625 2.25 C5.7325 3.24 5.4025 4.23 5.0625 5.25 C0.6075 4.26 0.6075 4.26 -3.9375 3.25 C-2.66808503 7.16402949 -1.42582306 9.04072873 2.0625 11.25 C-0.8125 10.9375 -0.8125 10.9375 -3.9375 10.25 C-5.9375 7.25 -5.9375 7.25 -5.6875 4.6875 C-4.58551652 1.10605369 -3.76088973 0.32007572 0 0 Z " fill="#CC2738" transform="translate(117.9375,152.75)"/>
<path d="M0 0 C1.67542976 0.28604898 3.34385343 0.61781233 5 1 C5 3.64 5 6.28 5 9 C3.35 9.33 1.7 9.66 0 10 C-1.49106457 7.01787087 -1.11941467 4.28390342 -1 1 C-0.67 0.67 -0.34 0.34 0 0 Z " fill="#FDC2C9" transform="translate(101,157)"/>
<path d="M0 0 C0.66 0 1.32 0 2 0 C3.81786147 4.64564598 4.31624104 8.81031118 4.25 13.75 C4.24613281 14.44867188 4.24226563 15.14734375 4.23828125 15.8671875 C4.14638773 21.40121954 3.44173391 26.64498832 2 32 C1.34 32 0.68 32 0 32 C0.89534884 24.45348837 0.89534884 24.45348837 1.5625 21.5625 C2.63465046 15.2827616 2.22525203 9.98036484 0 4 C0 2.68 0 1.36 0 0 Z " fill="#B12140" transform="translate(28,48)"/>
<path d="M0 0 C3.96 0 7.92 0 12 0 C11.690625 1.175625 11.38125 2.35125 11.0625 3.5625 C9.54415957 10.28196405 9.3434297 17.14044366 9 24 C8.67 24 8.34 24 8 24 C7.11173825 16.81191259 6.98797712 10.17757765 8 3 C7.34 3 6.68 3 6 3 C6 2.34 6 1.68 6 1 C4.02 1 2.04 1 0 1 C0 0.67 0 0.34 0 0 Z " fill="#1D9A4D" transform="translate(160,1)"/>
<path d="M0 0 C1.06723961 3.46222615 1.10173486 6.64039266 1.0625 10.25 C1.05347656 11.32765625 1.04445313 12.4053125 1.03515625 13.515625 C1.02355469 14.33546875 1.01195312 15.1553125 1 16 C0.01 16 -0.98 16 -2 16 C-1.67 17.65 -1.34 19.3 -1 21 C-2.32 21.99 -3.64 22.98 -5 24 C-4.88512252 22.41590006 -4.75765492 20.83271037 -4.625 19.25 C-4.55539063 18.36828125 -4.48578125 17.4865625 -4.4140625 16.578125 C-3.99460707 13.9664214 -3.20088043 12.32898022 -2 10 C-1.57336714 8.26186612 -1.19923141 6.51011335 -0.875 4.75 C-0.62363281 3.41195312 -0.62363281 3.41195312 -0.3671875 2.046875 C-0.24601562 1.37140625 -0.12484375 0.6959375 0 0 Z " fill="#982957" transform="translate(27,80)"/>
<path d="M0 0 C0.96070434 2.88211302 1.10581883 4.69850044 1.0625 7.6875 C1.05347656 8.49574219 1.04445312 9.30398437 1.03515625 10.13671875 C1.02355469 10.75160156 1.01195312 11.36648437 1 12 C1.99 12 2.98 12 4 12 C4 14.31 4 16.62 4 19 C2.35 19.33 0.7 19.66 -1 20 C-1.02888514 16.85418577 -1.04675923 13.70840531 -1.0625 10.5625 C-1.07087891 9.66466797 -1.07925781 8.76683594 -1.08789062 7.84179688 C-1.09111328 6.98779297 -1.09433594 6.13378906 -1.09765625 5.25390625 C-1.10551147 4.06776733 -1.10551147 4.06776733 -1.11352539 2.85766602 C-1 1 -1 1 0 0 Z " fill="#0B90B2" transform="translate(147,104)"/>
<path d="M0 0 C0.33 0 0.66 0 1 0 C1.33 4.29 1.66 8.58 2 13 C2.66 9.7 3.32 6.4 4 3 C4.33 3 4.66 3 5 3 C4.88501733 5.20887757 4.75756495 7.41710787 4.625 9.625 C4.55539063 10.85476562 4.48578125 12.08453125 4.4140625 13.3515625 C4.0185513 16.83653855 3.23738151 19.73049601 2 23 C1.67 23 1.34 23 1 23 C-0.0176403 17.98391475 -0.11856434 13.21391694 -0.0625 8.125 C-0.05798828 7.34125 -0.05347656 6.5575 -0.04882812 5.75 C-0.03714093 3.83329986 -0.01920908 1.91663952 0 0 Z " fill="#203B8A" transform="translate(92,71)"/>
<path d="M0 0 C1.65 0 3.3 0 5 0 C4.67 0.515625 4.34 1.03125 4 1.5625 C2.67989123 4.78026512 2.86757895 7.5570528 3 11 C3.66 11.33 4.32 11.66 5 12 C4.52433594 13.04220703 4.52433594 13.04220703 4.0390625 14.10546875 C2.90598948 17.26188644 2.59519989 19.97280167 2.375 23.3125 C2.30023438 24.38113281 2.22546875 25.44976563 2.1484375 26.55078125 C2.09945312 27.35902344 2.05046875 28.16726562 2 29 C1.67 29 1.34 29 1 29 C0.67 19.43 0.34 9.86 0 0 Z " fill="#029E58" transform="translate(161,2)"/>
<path d="M0 0 C0.66 0 1.32 0 2 0 C2.309375 0.928125 2.309375 0.928125 2.625 1.875 C4.54775888 4.84653645 6.66594527 5.13024659 10 6 C10 6.99 10 7.98 10 9 C7.69 8.67 5.38 8.34 3 8 C2.67 8.66 2.34 9.32 2 10 C1.01 9.67 0.02 9.34 -1 9 C-0.67 6.03 -0.34 3.06 0 0 Z " fill="#FBD4DB" transform="translate(110,158)"/>
<path d="M0 0 C4.29 0 8.58 0 13 0 C13 0.33 13 0.66 13 1 C12.28972656 1.06058594 11.57945312 1.12117187 10.84765625 1.18359375 C9.92855469 1.26738281 9.00945312 1.35117187 8.0625 1.4375 C7.14597656 1.51871094 6.22945312 1.59992187 5.28515625 1.68359375 C3.03840268 1.76044976 3.03840268 1.76044976 2 3 C1.9517425 4.74933451 1.96335882 6.50038364 2 8.25 C2.06371303 14.87615535 1.5957443 21.40425951 1 28 C0.67 28 0.34 28 0 28 C0 18.76 0 9.52 0 0 Z " fill="#108FC2" transform="translate(124,2)"/>
<path d="M0 0 C1.5 1.25 1.5 1.25 3 3 C3 4.32 3 5.64 3 7 C2.01 7.495 2.01 7.495 1 8 C0.34786708 10.02463255 0.34786708 10.02463255 0 12 C0.66 12 1.32 12 2 12 C2 12.66 2 13.32 2 14 C0.02 14 -1.96 14 -4 14 C-3.34 11.03 -2.68 8.06 -2 5 C-1.34 5 -0.68 5 0 5 C0 3.35 0 1.7 0 0 Z " fill="#922645" transform="translate(19,110)"/>
<path d="M0 0 C0 3.96 0 7.92 0 12 C-1.32 11.34 -2.64 10.68 -4 10 C-4.29296875 3.9453125 -4.29296875 3.9453125 -4 2 C-1 0 -1 0 0 0 Z " fill="#A2A2A2" transform="translate(50,156)"/>
<path d="M0 0 C2.85231222 4.27846832 2.60225696 7.895631 3 13 C9.93 13.495 9.93 13.495 17 14 C17 14.33 17 14.66 17 15 C11.72 15 6.44 15 1 15 C0.11252807 11.45011229 -0.10545467 8.85819222 -0.0625 5.25 C-0.05347656 4.26515625 -0.04445313 3.2803125 -0.03515625 2.265625 C-0.02355469 1.51796875 -0.01195313 0.7703125 0 0 Z " fill="#0C4287" transform="translate(75,109)"/>
<path d="M0 0 C4.92307692 4.18461538 4.92307692 4.18461538 5.3125 8.3125 C5.209375 9.199375 5.10625 10.08625 5 11 C3.02 11.99 3.02 11.99 1 13 C0.67 8.71 0.34 4.42 0 0 Z " fill="#9C9C9C" transform="translate(60,154)"/>
<path d="M0 0 C0.33 0 0.66 0 1 0 C1 5.28 1 10.56 1 16 C2.32 16.33 3.64 16.66 5 17 C2.36 16.67 -0.28 16.34 -3 16 C-2.67 15.01 -2.34 14.02 -2 13 C-2 12.01 -2 11.02 -2 10 C-1.67 10 -1.34 10 -1 10 C-1 8.35 -1 6.7 -1 5 C-1.66 4.67 -2.32 4.34 -3 4 C-2.02727325 2.64664105 -1.0260734 1.31337396 0 0 Z " fill="#FDCFD2" transform="translate(141,154)"/>
<path d="M0 0 C0.66 0 1.32 0 2 0 C3.11002992 3.33008975 2.68516272 4.65983176 2 8 C2.33 8.66 2.66 9.32 3 10 C5.35599235 10.46751788 5.35599235 10.46751788 8.0625 10.625 C9.44115234 10.73714844 9.44115234 10.73714844 10.84765625 10.8515625 C11.55792969 10.90054688 12.26820312 10.94953125 13 11 C13 11.33 13 11.66 13 12 C8.71 12 4.42 12 0 12 C0 8.04 0 4.08 0 0 Z " fill="#533A81" transform="translate(43,112)"/>
<path d="M0 0 C2.97 0 5.94 0 9 0 C9 1.32 9 2.64 9 4 C6.03 4 3.06 4 0 4 C0 2.68 0 1.36 0 0 Z " fill="#F1F1F1" transform="translate(51,160)"/>
<path d="M0 0 C1.66611905 -0.042721 3.33382885 -0.04063832 5 0 C6 1 6 1 6.0625 3.5625 C6.041875 4.366875 6.02125 5.17125 6 6 C4.02 6 2.04 6 0 6 C0 4.02 0 2.04 0 0 Z " fill="#EC6D7C" transform="translate(84,163)"/>
<path d="M0 0 C0.66 0 1.32 0 2 0 C1.85851011 1.6045556 1.71164314 3.20863767 1.5625 4.8125 C1.48128906 5.70582031 1.40007812 6.59914063 1.31640625 7.51953125 C1 10 1 10 0 13 C-0.66 13 -1.32 13 -2 13 C-2 9.7 -2 6.4 -2 3 C-1.34 3 -0.68 3 0 3 C0 2.01 0 1.02 0 0 Z " fill="#7ABE71" transform="translate(185,83)"/>
<path d="M0 0 C0.33 0 0.66 0 1 0 C1.33 2.31 1.66 4.62 2 7 C2.99 7.33 3.98 7.66 5 8 C5.99 8.66 6.98 9.32 8 10 C5.25 10.75 5.25 10.75 2 11 C-0.375 9.0625 -0.375 9.0625 -2 7 C-1.34 4.69 -0.68 2.38 0 0 Z " fill="#D5283A" transform="translate(99,160)"/>
<path d="M0 0 C0.99 0.66 1.98 1.32 3 2 C2.125 6.875 2.125 6.875 1 8 C-0.85287502 8.07226502 -2.70833878 8.0838122 -4.5625 8.0625 C-5.57441406 8.05347656 -6.58632812 8.04445312 -7.62890625 8.03515625 C-8.41136719 8.02355469 -9.19382812 8.01195312 -10 8 C-10 7.67 -10 7.34 -10 7 C-7.03 7 -4.06 7 -1 7 C-1.020625 6.030625 -1.04125 5.06125 -1.0625 4.0625 C-1 1 -1 1 0 0 Z " fill="#D01422" transform="translate(91,162)"/>
<path d="M0 0 C0.33 0 0.66 0 1 0 C0.85913398 2.60452271 0.71251536 5.20850197 0.5625 7.8125 C0.52318359 8.55048828 0.48386719 9.28847656 0.44335938 10.04882812 C0.25618965 13.23071342 0.01279207 15.96162378 -1 19 C-1.66 18.67 -2.32 18.34 -3 18 C-2.88521587 15.93690624 -2.75773802 13.87451646 -2.625 11.8125 C-2.55539063 10.66394531 -2.48578125 9.51539062 -2.4140625 8.33203125 C-2.02490426 5.20040883 -1.3190149 2.84714191 0 0 Z " fill="#029FB5" transform="translate(154,72)"/>
<path d="M0 0 C0.66 0.33 1.32 0.66 2 1 C1.40984815 6.50808397 0.43336231 11.64878069 -1 17 C-1.33 17 -1.66 17 -2 17 C-2.21824777 10.9981863 -1.5056904 5.80766296 0 0 Z " fill="#223176" transform="translate(76,7)"/>
<path d="M0 0 C0.33 0 0.66 0 1 0 C1.1875 2.375 1.1875 2.375 1 5 C-2 7 -2 7 -5.1875 6.625 C-6.115625 6.41875 -7.04375 6.2125 -8 6 C-8 4.68 -8 3.36 -8 2 C-4.28400809 1.79913557 -3.22791555 1.8480563 0 4 C0 2.68 0 1.36 0 0 Z " fill="#E56877" transform="translate(92,155)"/>
<path d="M0 0 C0.66 0 1.32 0 2 0 C3.33257403 9.41002278 3.33257403 9.41002278 2 14 C1.34 14 0.68 14 0 14 C0 9.38 0 4.76 0 0 Z " fill="#E50215" transform="translate(143,155)"/>
<path d="M0 0 C2.375 -0.125 2.375 -0.125 5 0 C7 2 7 2 7.1953125 4.1640625 C7.17210938 4.97617188 7.14890625 5.78828125 7.125 6.625 C7.10695313 7.44226563 7.08890625 8.25953125 7.0703125 9.1015625 C7.03550781 10.04128906 7.03550781 10.04128906 7 11 C6.67 10.34 6.34 9.68 6 9 C5.34 9 4.68 9 4 9 C3.896875 7.88625 3.79375 6.7725 3.6875 5.625 C3.460625 4.42875 3.23375 3.2325 3 2 C2.01 1.34 1.02 0.68 0 0 Z " fill="#D30B20" transform="translate(103,155)"/>
<path d="M0 0 C5.28 0 10.56 0 16 0 C15.67 0.99 15.34 1.98 15 3 C11.7 2.34 8.4 1.68 5 1 C4.67 1.66 4.34 2.32 4 3 C2.68 2.34 1.36 1.68 0 1 C0 0.67 0 0.34 0 0 Z " fill="#353267" transform="translate(76,1)"/>
<path d="M0 0 C1.98 0 3.96 0 6 0 C5.46274105 3.37705625 4.88935377 6.696686 4 10 C1.04816899 7.04816899 0.91336012 4.04488053 0 0 Z " fill="#952543" transform="translate(14,2)"/>
<path d="M0 0 C0.33 0 0.66 0 1 0 C1.08071788 2.79224073 1.14035408 5.58216566 1.1875 8.375 C1.22520508 9.56609375 1.22520508 9.56609375 1.26367188 10.78125 C1.29004405 12.85586148 1.15486462 14.93100865 1 17 C0.01 17.66 -0.98 18.32 -2 19 C-2.99 18.01 -3.98 17.02 -5 16 C-3.35 16 -1.7 16 0 16 C0 10.72 0 5.44 0 0 Z " fill="#FCE3E6" transform="translate(156,154)"/>
<path d="M0 0 C1.32 0 2.64 0 4 0 C4 1.98 4 3.96 4 6 C2.35 6 0.7 6 -1 6 C-0.67 4.02 -0.34 2.04 0 0 Z " fill="#FDF8FA" transform="translate(101,159)"/>
<path d="M0 0 C0.33 0 0.66 0 1 0 C1.66 5.61 2.32 11.22 3 17 C2.01 17 1.02 17 0 17 C0 11.39 0 5.78 0 0 Z " fill="#5EBE82" transform="translate(183,107)"/>
<path d="M0 0 C1.6254308 0.14095064 3.25034051 0.28792087 4.875 0.4375 C5.77992188 0.51871094 6.68484375 0.59992188 7.6171875 0.68359375 C10 1 10 1 12 2 C8.52890832 4.31406112 7.05121887 4.08619615 3 4 C2.01 4.495 2.01 4.495 1 5 C1 4.34 1 3.68 1 3 C0.34 2.67 -0.32 2.34 -1 2 C-0.67 1.34 -0.34 0.68 0 0 Z " fill="#FBF1F2" transform="translate(126,169)"/>
<path d="M0 0 C2.31 0.66 4.62 1.32 7 2 C5.02 2.99 5.02 2.99 3 4 C4.65 4.33 6.3 4.66 8 5 C8 5.33 8 5.66 8 6 C2.375 6.25 2.375 6.25 -1 4 C-0.67 2.68 -0.34 1.36 0 0 Z " fill="#CF4250" transform="translate(113,165)"/>
<path d="M0 0 C0.66 0 1.32 0 2 0 C2.04254356 1.99954746 2.04080783 4.00041636 2 6 C1 7 1 7 -2.0625 7.0625 C-3.031875 7.041875 -4.00125 7.02125 -5 7 C-5.33 6.34 -5.66 5.68 -6 5 C-4.35 4.67 -2.7 4.34 -1 4 C-0.67 2.68 -0.34 1.36 0 0 Z " fill="#D7081C" transform="translate(121,163)"/>
<path d="M0 0 C0.33 0 0.66 0 1 0 C1 2.64 1 5.28 1 8 C0.34 8 -0.32 8 -1 8 C-1 11.3 -1 14.6 -1 18 C-1.33 18 -1.66 18 -2 18 C-2.3690205 5.33029613 -2.3690205 5.33029613 0 0 Z " fill="#0198A6" transform="translate(153,88)"/>
<path d="M0 0 C1.32 0.66 2.64 1.32 4 2 C3.67 2.66 3.34 3.32 3 4 C0.03 4 -2.94 4 -6 4 C-6 3.34 -6 2.68 -6 2 C-4.02 2 -2.04 2 0 2 C0 1.34 0 0.68 0 0 Z " fill="#D21326" transform="translate(136,165)"/>
<path d="M0 0 C0.33 0 0.66 0 1 0 C1 2.31 1 4.62 1 7 C-0.65 7 -2.3 7 -4 7 C-4 5.02 -4 3.04 -4 1 C-3.01 1.495 -3.01 1.495 -2 2 C-2 2.66 -2 3.32 -2 4 C-1.34 4 -0.68 4 0 4 C0 2.68 0 1.36 0 0 Z " fill="#FED3D8" transform="translate(150,153)"/>
<path d="M0 0 C0.33 0 0.66 0 1 0 C1.2475 0.928125 1.495 1.85625 1.75 2.8125 C3.06454245 6.16458325 3.97963384 7.1877803 7 9 C4.125 8.6875 4.125 8.6875 1 8 C-1 5 -1 5 -0.625 2.3125 C-0.41875 1.549375 -0.2125 0.78625 0 0 Z " fill="#D1323F" transform="translate(113,155)"/>
<path d="M0 0 C2.68 5.36 2.68 5.36 3 8 C2.0625 10.75 2.0625 10.75 1 13 C0.67 13 0.34 13 0 13 C0 8.71 0 4.42 0 0 Z " fill="#AD2930" transform="translate(2,56)"/>
<path d="M0 0 C1.65 1.65 3.3 3.3 5 5 C3.1875 6.0625 3.1875 6.0625 1 7 C0.01 6.67 -0.98 6.34 -2 6 C-1.34 4.02 -0.68 2.04 0 0 Z " fill="#F4BCBF" transform="translate(124,163)"/>
<path d="M0 0 C0.33 0.66 0.66 1.32 1 2 C-3.455 2.495 -3.455 2.495 -8 3 C-8 2.34 -8 1.68 -8 1 C-5.29120665 -0.35439668 -2.99066732 -0.06501451 0 0 Z " fill="#D9071C" transform="translate(137,155)"/>
<path d="M0 0 C1.65 0 3.3 0 5 0 C4.01 1.98 3.02 3.96 2 6 C1.01 5.67 0.02 5.34 -1 5 C-0.34 4.01 0.32 3.02 1 2 C0.67 1.34 0.34 0.68 0 0 Z " fill="#4A3A82" transform="translate(46,2)"/>
<path d="M0 0 C0.33 0 0.66 0 1 0 C1 2.31 1 4.62 1 7 C0.34 7 -0.32 7 -1 7 C-2.625 4.5 -2.625 4.5 -4 2 C-3.34 1.67 -2.68 1.34 -2 1 C-2 1.66 -2 2.32 -2 3 C-1.34 3 -0.68 3 0 3 C0 2.01 0 1.02 0 0 Z " fill="#F4A5AE" transform="translate(95,159)"/>
<path d="M0 0 C1.5 1.25 1.5 1.25 3 3 C3 4.32 3 5.64 3 7 C2.01 7.33 1.02 7.66 0 8 C0 5.36 0 2.72 0 0 Z " fill="#8C2A4C" transform="translate(19,110)"/>
</svg>
