<?xml version="1.0" encoding="UTF-8"?>
<svg version="1.1" xmlns="http://www.w3.org/2000/svg" width="1000" height="1000">
<path d="M0 0 C3.26696796 -0.41576645 5.43764614 0.27322557 8.14404297 2.05810547 C10.53769653 3.99075908 12.845606 5.99304437 15.13378906 8.04882812 C18.20603647 10.75491975 21.40843753 13.30292871 24.59326172 15.87451172 C25.27783447 16.43106445 25.96240723 16.98761719 26.66772461 17.56103516 C30.98273935 21.0658735 35.33447794 24.51876058 39.71826172 27.93701172 C45.71906478 32.61682917 51.5903916 37.44309313 57.45092773 42.296875 C62.53963555 46.50212258 67.69425405 50.61089128 72.8984375 54.671875 C77.25516517 58.07466633 81.54593783 61.55072115 85.81591797 65.06201172 C94.5756984 72.26372844 103.3672827 79.42602877 112.28076172 86.43701172 C112.85560303 86.88995605 113.43044434 87.34290039 114.02270508 87.80957031 C117.77543225 90.75191881 121.5909513 93.58265436 125.52294922 96.28076172 C125.93802734 96.68294922 126.35310547 97.08513672 126.78076172 97.49951172 C126.78076172 98.48951172 126.78076172 99.47951172 126.78076172 100.49951172 C123.42751207 100.70455521 120.07588769 100.82769366 116.71826172 100.93701172 C115.30383789 101.02499023 115.30383789 101.02499023 113.86083984 101.11474609 C106.92775401 101.28384575 106.92775401 101.28384575 103.81640625 99.15625 C102.03396037 97.34545508 100.42099135 95.43915026 98.78076172 93.49951172 C97.57193005 92.41393218 96.34163888 91.35187296 95.09326172 90.31201172 C88.7886603 84.86988949 83.0460098 78.82005005 77.19873047 72.89697266 C71.86565259 67.50103592 66.53657453 62.18400037 60.76025391 57.25634766 C56.61811016 53.58011845 52.7899828 49.56904679 48.90576172 45.62451172 C47.22317322 43.91650648 45.53839039 42.21065921 43.85107422 40.50732422 C42.74916748 39.38801514 42.74916748 39.38801514 41.625 38.24609375 C39.88881748 36.43257295 39.88881748 36.43257295 37.78076172 35.49951172 C37.78076172 34.83951172 37.78076172 34.17951172 37.78076172 33.49951172 C37.22807617 33.27279785 36.67539062 33.04608398 36.10595703 32.8125 C33.09192788 31.11054192 31.01095959 28.95331654 28.57763672 26.49169922 C27.85365692 25.76347458 27.85365692 25.76347458 27.11505127 25.02053833 C25.5821761 23.47651306 24.05642168 21.92566348 22.53076172 20.37451172 C21.48955811 19.32327163 20.44789631 18.27248515 19.40576172 17.22216797 C16.85876708 14.65318168 14.31810995 12.07803011 11.78076172 9.49951172 C14.941612 15.39120495 18.10693059 21.21978894 21.78076172 26.81201172 C22.56003944 28.00821489 23.33863726 29.20486116 24.11669922 30.40185547 C24.53918945 31.05009277 24.96167969 31.69833008 25.39697266 32.36621094 C28.09126676 36.51983512 30.74738104 40.697847 33.40576172 44.87451172 C33.99719971 45.80328125 34.5886377 46.73205078 35.19799805 47.68896484 C40.29700852 55.71015552 45.33336191 63.76976004 50.35180664 71.84155273 C53.24661044 76.48752 56.16347461 81.11328873 59.17138672 85.68701172 C59.68870361 86.47422607 60.20602051 87.26144043 60.73901367 88.07250977 C61.69740434 89.52346167 62.66172983 90.97051786 63.63305664 92.4128418 C66.78076172 97.17285992 66.78076172 97.17285992 66.78076172 100.49951172 C64.55810547 100.90576172 64.55810547 100.90576172 61.78076172 100.49951172 C60.00185261 98.33554357 58.71322486 96.41048469 57.34326172 93.99951172 C56.92278564 93.29391113 56.50230957 92.58831055 56.0690918 91.86132812 C54.62051829 89.41814556 53.20074735 86.95940906 51.78076172 84.49951172 C50.68037942 82.62121565 49.57876837 80.743639 48.47607422 78.86669922 C46.09728758 74.80880844 43.73008896 70.74443604 41.37060547 66.67529297 C37.4198875 59.86706354 33.41625439 53.09075617 29.40576172 46.31762695 C26.50119569 41.41171145 23.60624489 36.5004722 20.72460938 31.58105469 C16.17822494 23.82233955 11.53380661 16.1335922 6.78076172 8.49951172 C6.66905687 15.18048499 7.08612716 21.64930112 7.80419922 28.28857422 C7.96355453 29.81905899 7.96355453 29.81905899 8.12612915 31.38046265 C8.46498722 34.62895318 8.80996694 37.8767529 9.15576172 41.12451172 C10.48492671 53.70932244 11.80435561 66.29439512 12.94482422 78.89794922 C13.03009369 79.80469391 13.11536316 80.7114386 13.20321655 81.6456604 C13.75729409 87.9428429 13.87209441 94.17972551 13.78076172 100.49951172 C10.82236817 100.52640621 7.86421745 100.54629913 4.90576172 100.56201172 C4.06400391 100.57039063 3.22224609 100.57876953 2.35498047 100.58740234 C1.54931641 100.590625 0.74365234 100.59384766 -0.08642578 100.59716797 C-1.20186768 100.60502319 -1.20186768 100.60502319 -2.33984375 100.61303711 C-4.21923828 100.49951172 -4.21923828 100.49951172 -6.21923828 99.49951172 C-5.82559509 94.8326584 -5.42933711 90.16602949 -5.03173828 85.49951172 C-4.93727921 84.390354 -4.93727921 84.390354 -4.84091187 83.25878906 C-3.88938997 72.10746508 -2.90684621 60.95908227 -1.90673828 49.81201172 C-1.79359787 48.55026123 -1.68045746 47.28851074 -1.56388855 45.98852539 C-0.9931 39.62742018 -0.4203628 33.26649629 0.15454102 26.90576172 C0.36722097 24.5411814 0.57986891 22.17659819 0.79248047 19.81201172 C0.89234253 18.71348877 0.99220459 17.61496582 1.09509277 16.4831543 C1.18560913 15.47406006 1.27612549 14.46496582 1.36938477 13.42529297 C1.44916061 12.54268799 1.52893646 11.66008301 1.61112976 10.75073242 C1.7427206 9.00436322 1.78076172 7.25083166 1.78076172 5.49951172 C1.10271484 6.37091797 0.42466797 7.24232422 -0.27392578 8.14013672 C-5.69884071 15.09047132 -11.21006523 21.94178426 -16.87939453 28.69482422 C-20.39480616 32.90862314 -23.80749571 37.20169285 -27.21923828 41.49951172 C-31.40289875 46.75382939 -35.61179987 51.98624978 -39.85522461 57.19238281 C-44.97684389 63.47675212 -50.0473724 69.79382614 -55.03466797 76.18530273 C-59.27479009 81.60469915 -63.61799746 86.93847262 -67.98095703 92.25927734 C-68.50431641 92.89929688 -69.02767578 93.53931641 -69.56689453 94.19873047 C-70.0310376 94.76422607 -70.49518066 95.32972168 -70.97338867 95.91235352 C-72.12995826 97.38577286 -73.18021244 98.94097295 -74.21923828 100.49951172 C-77.34423828 100.68701172 -77.34423828 100.68701172 -80.21923828 100.49951172 C-79.74710892 96.08939427 -76.7921108 93.35360762 -73.96923828 90.18701172 C-73.43709717 89.57817139 -72.90495605 88.96933105 -72.35668945 88.34204102 C-71.22629138 87.04928537 -70.09299129 85.75906242 -68.95703125 84.47119141 C-66.13197096 81.26591086 -63.33184628 78.03908654 -60.53173828 74.81201172 C-59.98517578 74.18359375 -59.43861328 73.55517578 -58.87548828 72.90771484 C-54.93171218 68.36049349 -51.11573405 63.721095 -47.32861328 59.04248047 C-44.47448609 55.60167157 -41.46282072 52.31617036 -38.45361328 49.01123047 C-36.21789295 46.4979994 -34.08546146 43.92639693 -31.96923828 41.31201172 C-27.30602872 35.55396166 -22.45905707 29.96947108 -17.59423828 24.38232422 C-14.17860231 20.45911997 -10.78950475 16.51356643 -7.40673828 12.56201172 C-6.88490967 11.95252686 -6.36308105 11.34304199 -5.82543945 10.71508789 C-4.62302361 9.31019428 -3.42107402 7.90490162 -2.21923828 6.49951172 C-10.96595572 10.61893348 -19.33863346 15.33823446 -27.7355957 20.11865234 C-35.49068184 24.5320858 -43.28495792 28.87030762 -51.09423828 33.18701172 C-58.3153879 37.18148192 -65.51016498 41.2034946 -72.59423828 45.43701172 C-80.69958177 50.27764597 -88.97078283 54.8107477 -97.24389648 59.35559082 C-108.34445983 65.45383705 -119.38811716 71.64605524 -130.40136719 77.90087891 C-133.3529596 79.57537441 -136.30718705 81.24513539 -139.26220703 82.91357422 C-140.26195557 83.47834473 -141.2617041 84.04311523 -142.29174805 84.625 C-144.25857199 85.73472103 -146.22647986 86.8425235 -148.19555664 87.94824219 C-152.33063662 90.27474062 -156.44683036 92.61423724 -160.49267578 95.09326172 C-161.12294678 95.47377686 -161.75321777 95.85429199 -162.40258789 96.24633789 C-164.00466636 97.21962565 -165.59504149 98.21211115 -167.18408203 99.20654297 C-171.13613618 100.89010786 -173.95215889 100.73427013 -178.21923828 100.49951172 C-178.21923828 99.50951172 -178.21923828 98.51951172 -178.21923828 97.49951172 C-177.57712402 97.16854492 -176.93500977 96.83757812 -176.2734375 96.49658203 C-164.0267172 90.17639571 -151.82468194 83.7954861 -139.74414062 77.16259766 C-132.26276974 73.05753803 -124.74579954 69.02088544 -117.21923828 64.99951172 C-107.93762331 60.03867824 -98.67818347 55.03973099 -89.44580078 49.98779297 C-82.38655181 46.12791122 -75.3059108 42.30877998 -68.21923828 38.49951172 C-49.82563706 28.60922629 -31.50980964 18.57884792 -13.21923828 8.49951172 C-14.74250336 9.00726674 -16.26576817 9.51502255 -17.78903198 10.02278137 C-19.17649945 10.48526707 -20.56397113 10.94774014 -21.95144653 11.41020203 C-25.93289722 12.73728886 -29.91426718 14.06461712 -33.89550781 15.39233398 C-42.0253108 18.10330343 -50.15594807 20.8116809 -58.28955078 23.51123047 C-74.43433202 28.87265366 -90.5514184 34.30724199 -106.64138794 39.83105469 C-117.58714546 43.58764715 -128.54794281 47.29321473 -139.53173828 50.93701172 C-154.31891833 55.84461148 -169.08214287 60.82218392 -183.83901024 65.82006741 C-188.01370468 67.23368317 -192.18938985 68.64432339 -196.36591148 70.05253124 C-210.03970697 74.66353585 -223.70258171 79.29965684 -237.31951904 84.07637024 C-242.26894741 85.81252242 -247.22379449 87.53296526 -252.17987061 89.25003719 C-255.53459534 90.41375185 -258.88553422 91.58651826 -262.22918701 92.78170776 C-288.67173596 102.22562614 -288.67173596 102.22562614 -302.21923828 100.49951172 C-302.21923828 99.83951172 -302.21923828 99.17951172 -302.21923828 98.49951172 C-282.31567652 91.78270054 -262.36536242 85.23277034 -242.34423828 78.87451172 C-228.01733314 74.32445468 -213.71729876 69.71540471 -199.46826172 64.92700195 C-187.89452772 61.04060393 -176.27277009 57.31016808 -164.64306641 53.59521484 C-161.28672505 52.52110902 -157.93232402 51.44117567 -154.57861328 50.35888672 C-144.45152815 47.09206123 -134.32084245 43.83918243 -124.16845703 40.65185547 C-107.34742211 35.36907435 -90.56507037 30.00190397 -73.8515625 24.38745117 C-61.67998611 20.30064654 -49.46094424 16.37152197 -37.21923828 12.49951172 C-43.7236679 13.75328113 -50.16588078 15.16052095 -56.59423828 16.75732422 C-57.9314241 17.08644302 -57.9314241 17.08644302 -59.29562378 17.42221069 C-61.24024773 17.90095534 -63.18464704 18.38061319 -65.12884521 18.86108398 C-70.61860537 20.21723353 -76.11044203 21.56493361 -81.60205078 22.91357422 C-82.78042511 23.20310974 -83.95879944 23.49264526 -85.17288208 23.79095459 C-98.46207392 27.05418415 -111.75953597 30.28324939 -125.05855179 33.50616455 C-127.10675677 34.00254556 -129.15492739 34.49906817 -131.20309448 34.99560547 C-148.42751 39.17082373 -165.65582682 43.32969575 -182.88720703 47.47607422 C-184.65840175 47.90230708 -186.4295962 48.328541 -188.20079041 48.754776 C-189.98078375 49.18311707 -191.76077745 49.61145671 -193.54077148 50.03979492 C-194.86651577 50.35882326 -194.86651577 50.35882326 -196.21904278 50.68429661 C-197.10450189 50.8973743 -197.98996099 51.11045198 -198.9022522 51.32998657 C-199.78887669 51.54334782 -200.67550117 51.75670906 -201.58899307 51.9765358 C-203.38797568 52.40943877 -205.18696404 52.8423178 -206.9859581 53.27517319 C-230.03525459 58.82125689 -253.07288845 64.4086914 -276.08724976 70.09829712 C-305.18608292 77.28575223 -334.34689059 84.21839749 -363.5010767 91.17714119 C-367.6583757 92.16960143 -371.81545542 93.16297828 -375.9725132 94.15644836 C-378.88073556 94.85098573 -381.7893204 95.54399028 -384.69792175 96.23693848 C-386.45553337 96.65682644 -388.21312815 97.07678486 -389.97070312 97.49682617 C-390.76817805 97.68633756 -391.56565298 97.87584894 -392.38729382 98.0711031 C-395.37568052 98.78661575 -398.3023741 99.52722366 -401.21923828 100.49951172 C-403.19766589 100.58840003 -405.17900462 100.61712045 -407.15942383 100.61303711 C-408.3804631 100.61296158 -409.60150238 100.61288605 -410.85954285 100.61280823 C-412.17835953 100.60764694 -413.49717621 100.60248566 -414.85595703 100.59716797 C-416.21930388 100.59530252 -417.58265139 100.59387922 -418.94599915 100.59288025 C-422.53152319 100.58906504 -426.11700663 100.57924327 -429.70251465 100.56817627 C-433.36238048 100.55794073 -437.02225288 100.55337803 -440.68212891 100.54833984 C-447.86118386 100.5376201 -455.04020538 100.52055565 -462.21923828 100.49951172 C-462.21923828 99.83951172 -462.21923828 99.17951172 -462.21923828 98.49951172 C-454.75583156 96.37866553 -447.27675898 94.57609639 -439.68017578 93.00341797 C-438.58809311 92.77448349 -437.49601044 92.54554901 -436.37083435 92.30967712 C-434.01516112 91.81630079 -431.65916796 91.32444994 -429.30288696 90.83398438 C-425.49140989 90.04060751 -421.68079697 89.24318702 -417.87036133 88.44482422 C-412.55486673 87.3313672 -407.23900601 86.21967718 -401.92285156 85.109375 C-390.62375488 82.74921442 -379.32740174 80.37604217 -368.03173828 77.99951172 C-366.91990173 77.76571808 -365.80806519 77.53192444 -364.66253662 77.29104614 C-339.8390847 72.06963703 -315.02954956 66.7829312 -290.21923828 61.49951172 C-238.30438398 50.44411022 -238.30438398 50.44411022 -212.40673828 44.99951172 C-210.73967834 44.64903275 -210.73967834 44.64903275 -209.03894043 44.29147339 C-202.52771658 42.92293335 -196.01619135 41.5558316 -189.50457764 40.18914795 C-178.99229785 37.98248123 -168.4805887 35.77310093 -157.96923828 33.56201172 C-156.7983667 33.31573029 -155.62749512 33.06944885 -154.42114258 32.81570435 C-133.19580785 28.34964679 -111.98113338 23.83423387 -90.76879883 19.30688477 C-71.46225294 15.1868083 -52.15040916 11.0922234 -32.83520508 7.01293945 C-30.82910102 6.58919528 -28.82299748 6.16544863 -26.81689453 5.74169922 C-25.87803406 5.54347061 -24.93917358 5.345242 -23.97186279 5.14100647 C-17.60444275 3.7955461 -11.24054216 2.43472795 -4.87988281 1.05761719 C-3.25094212 0.71592528 -1.6237685 0.36548189 0 0 Z " fill="#118C42" transform="translate(669.21923828125,351.50048828125)"/>
<path d="M0 0 C46.64916468 0 46.64916468 0 55.71875 8.63671875 C63.09811849 16.68529467 64.29281083 25.72874712 64.1484375 36.296875 C63.70740117 44.3283786 60.81180489 50.70323266 55.46484375 56.73046875 C54 58 54 58 52 58 C52.70125 58.680625 53.4025 59.36125 54.125 60.0625 C55.08831715 61.03676393 56.04621157 62.01640569 57 63 C57.515625 63.53109375 58.03125 64.0621875 58.5625 64.609375 C59.078125 65.17140625 59.59375 65.7334375 60.125 66.3125 C60.60195313 66.82425781 61.07890625 67.33601562 61.5703125 67.86328125 C65.91980042 74.36374544 66.52346872 80.70736298 66.4375 88.3125 C66.43065186 89.23949707 66.42380371 90.16649414 66.41674805 91.12158203 C66.2550626 98.01895014 65.37949133 103.8836747 62 110 C61.63777344 110.6703125 61.27554688 111.340625 60.90234375 112.03125 C56.65097148 118.83344562 50.40105985 121.53298005 43 124 C28.81 124 14.62 124 0 124 C0 83.08 0 42.16 0 0 Z M22 20 C22 29.9 22 39.8 22 50 C31.31202436 50.79072689 31.31202436 50.79072689 38 47 C41.67065279 42.41168401 42.25730867 37.35060633 41.8203125 31.66015625 C41.1520244 27.56177721 40.20465081 25.26389184 37.625 21.9375 C32.92118596 19.05724546 32.92118596 19.05724546 22 20 Z M22 70 C22 81.55 22 93.1 22 105 C34.11392398 106.1147408 34.11392398 106.1147408 40 102 C44.53299793 97.1432165 44.28709481 91.12340711 44.21875 84.79296875 C43.83090468 79.84101509 42.6667466 75.61466077 39 72.0625 C32.95169249 68.84933664 30.20861354 70 22 70 Z " fill="#A3A4A7" transform="translate(205,473)"/>
<path d="M0 0 C47.47169811 0 47.47169811 0 57 9 C65.1427625 19.45425637 65.30500373 30.10692843 65.265625 42.8125 C65.26697466 44.35131898 65.2689177 45.89013754 65.27142334 47.42895508 C65.27436044 50.64310799 65.27012271 53.85714921 65.26074219 57.07128906 C65.24934847 61.17323194 65.25591555 65.27491302 65.26788712 69.37684631 C65.27514406 72.55116721 65.27280025 75.72542693 65.26763153 78.89974976 C65.26630562 80.41148917 65.26790528 81.9232343 65.27259064 83.43496704 C65.30029984 94.88592664 65.1401067 106.25436009 57.01953125 115.17578125 C40.89698211 130.35484214 23.59315242 124 0 124 C0 83.08 0 42.16 0 0 Z M23 20 C23 48.05 23 76.1 23 105 C34.25683946 106.02899151 34.25683946 106.02899151 40 102 C44.25079779 95.42288919 43.41763595 87.88727968 43.36328125 80.30859375 C43.3627618 78.87565613 43.36328278 77.4427178 43.36479187 76.00978088 C43.36470249 73.01658393 43.35434169 70.02365821 43.33618164 67.03051758 C43.313475 63.20521169 43.31295774 59.38030073 43.31969929 55.55494595 C43.32304958 52.5994367 43.3163896 49.64401655 43.30657005 46.68852425 C43.30273759 45.27840708 43.30156168 43.86827997 43.3031559 42.45815849 C43.30352912 40.48437125 43.28937589 38.51059764 43.2746582 36.53686523 C43.27005081 35.41658432 43.26544342 34.29630341 43.26069641 33.14207458 C42.91970843 29.03227633 42.16578673 25.40865897 39.5 22.1875 C34.13950706 17.94377643 32.10467286 20 23 20 Z " fill="#A4A5A8" transform="translate(418,473)"/>
<path d="M0 0 C47.05405405 0 47.05405405 0 57.625 9.3125 C65.8141969 18.5792228 66.55949667 29.07318648 66.24609375 41.0234375 C65.65533288 50.569383 63.55523709 57.91556408 57 65 C56.484375 65.56589844 55.96875 66.13179687 55.4375 66.71484375 C54 68 54 68 52 68 C52.2928186 68.90818481 52.2928186 68.90818481 52.59155273 69.8347168 C56.57570368 82.205338 60.52344987 94.58719603 64.39334106 106.99404907 C64.79769792 108.28941894 65.20303222 109.58448409 65.60934448 110.87924194 C66.17989599 112.69855652 66.7462935 114.51917224 67.3125 116.33984375 C67.63863281 117.38519287 67.96476562 118.43054199 68.30078125 119.50756836 C69 122 69 122 69 124 C61.41 124 53.82 124 46 124 C43.56982568 115.91530241 41.14218233 107.82986447 38.72087097 99.74250793 C37.58113658 95.93643599 36.43692751 92.13175149 35.2890625 88.328125 C34.83828258 86.82299424 34.38773426 85.31779408 33.9375 83.8125 C33.73423096 83.14420166 33.53096191 82.47590332 33.3215332 81.78735352 C32.51162613 79.06331882 32 76.86419613 32 74 C28.7 74 25.4 74 22 74 C22.03552979 75.47911865 22.07105957 76.9582373 22.10766602 78.48217773 C22.23762555 83.94804991 22.36092908 89.41405517 22.48217773 94.88012695 C22.53568644 97.24996064 22.59102231 99.61975379 22.64819336 101.98950195 C22.72985758 105.38744357 22.80503992 108.78547482 22.87890625 112.18359375 C22.90594131 113.25024765 22.93297638 114.31690155 22.96083069 115.4158783 C22.98092697 116.39681961 23.00102325 117.37776093 23.02172852 118.38842773 C23.05170677 119.69081642 23.05170677 119.69081642 23.08229065 121.01951599 C23 123 23 123 22 124 C14.74 124 7.48 124 0 124 C0 83.08 0 42.16 0 0 Z M22 20 C22 31.55 22 43.1 22 55 C34.11392398 56.1147408 34.11392398 56.1147408 40 52 C44.51556737 46.11274144 44.46857624 38.44826482 43.71484375 31.29296875 C42.92432248 27.28721809 42.02949829 23.90831836 39 21 C33.61483519 19.20494506 27.67646212 20 22 20 Z " fill="#A3A4A7" transform="translate(288,473)"/>
<path d="M0 0 C8.11112849 4.90333756 12.13143541 10.98063719 15.38671875 19.81640625 C16.82662671 26.3969202 16.18514347 33.59842311 16.07421875 40.25390625 C9.14421875 40.25390625 2.21421875 40.25390625 -4.92578125 40.25390625 C-5.73828125 33.12890625 -5.73828125 33.12890625 -5.97192383 30.92138672 C-6.52144807 26.49276186 -7.62230842 23.07175291 -9.92578125 19.25390625 C-13.10680723 17.66339326 -16.46269115 17.85650247 -19.92578125 18.25390625 C-22.08926457 19.64970194 -22.68622337 20.52777518 -23.4821167 22.94023132 C-24.06768244 25.99390955 -24.06941539 28.91265123 -24.08691406 32.02270508 C-24.09187897 32.69479507 -24.09684387 33.36688507 -24.10195923 34.05934143 C-24.11652991 36.27655065 -24.12337451 38.49368832 -24.12890625 40.7109375 C-24.13466215 42.25786846 -24.14041982 43.8047994 -24.1461792 45.35173035 C-24.15667487 48.59394664 -24.16252683 51.83613825 -24.16601562 55.07836914 C-24.17149561 59.22093539 -24.19551888 63.36317219 -24.22398758 67.50563526 C-24.24266595 70.70135941 -24.24782233 73.89700504 -24.2493515 77.09277916 C-24.25236713 78.61931852 -24.26035866 80.14585685 -24.27353668 81.6723423 C-24.29070592 83.81412016 -24.28869102 85.95510395 -24.28222656 88.09692383 C-24.28587219 89.31285721 -24.28951782 90.52879059 -24.29327393 91.78157043 C-23.855642 95.91663248 -22.82305634 98.56619928 -20.92578125 102.25390625 C-18.49117149 103.47121113 -17.18187839 103.30082439 -14.48828125 103.06640625 C-13.70582031 103.01097656 -12.92335938 102.95554687 -12.1171875 102.8984375 C-9.17758785 102.03384937 -8.52514313 100.83256545 -6.92578125 98.25390625 C-6.34021261 95.85232259 -6.34021261 95.85232259 -6.1953125 93.26953125 C-6.11474609 92.33496094 -6.03417969 91.40039062 -5.95117188 90.4375 C-5.88091797 89.46941406 -5.81066406 88.50132812 -5.73828125 87.50390625 C-5.65642578 86.52035156 -5.57457031 85.53679687 -5.49023438 84.5234375 C-5.29034105 82.1012008 -5.10649891 79.67764904 -4.92578125 77.25390625 C-9.21578125 77.25390625 -13.50578125 77.25390625 -17.92578125 77.25390625 C-17.92578125 71.31390625 -17.92578125 65.37390625 -17.92578125 59.25390625 C-6.37578125 59.25390625 5.17421875 59.25390625 17.07421875 59.25390625 C17.07421875 80.04390625 17.07421875 100.83390625 17.07421875 122.25390625 C13.11421875 122.25390625 9.15421875 122.25390625 5.07421875 122.25390625 C4.08421875 119.94390625 3.09421875 117.63390625 2.07421875 115.25390625 C1.48253906 115.73601562 0.89085937 116.218125 0.28125 116.71484375 C-0.90404297 117.66230469 -0.90404297 117.66230469 -2.11328125 118.62890625 C-2.89058594 119.25539063 -3.66789063 119.881875 -4.46875 120.52734375 C-10.88551262 125.03642018 -17.30640017 124.97783794 -24.92578125 124.25390625 C-32.05535068 122.36981583 -38.27361532 118.1428335 -42.43359375 112.04296875 C-46.20094287 105.56312827 -47.07494224 100.13612397 -47.08691406 92.66894531 C-47.09187897 91.92189331 -47.09684387 91.17484131 -47.10195923 90.40515137 C-47.11651668 87.94326848 -47.12337255 85.48145004 -47.12890625 83.01953125 C-47.13466353 81.29945882 -47.14042118 79.57938639 -47.1461792 77.85931396 C-47.15667133 74.2548391 -47.1625255 70.65038641 -47.16601562 67.04589844 C-47.17149279 62.44508204 -47.19551169 57.84456269 -47.22398758 53.24383926 C-47.24268551 49.69031947 -47.24782338 46.13687017 -47.2493515 42.58330536 C-47.25236305 40.88816456 -47.26034053 39.19302455 -47.27353668 37.49793243 C-47.36346248 25.05750247 -46.71497531 13.97307727 -37.92578125 4.25390625 C-27.16463911 -3.74152179 -12.37581578 -6.0303211 0 0 Z " fill="#A3A4A7" transform="translate(548.92578125,474.74609375)"/>
<path d="M0 0 C1.01037827 0.00222061 2.02075653 0.00444122 3.06175232 0.00672913 C4.77341331 0.00684242 4.77341331 0.00684242 6.51965332 0.00695801 C7.76129745 0.01211929 9.00294159 0.01728058 10.2822113 0.02259827 C12.17785072 0.02472069 12.17785072 0.02472069 14.11178589 0.02688599 C17.47705394 0.0315487 20.84225495 0.04053972 24.20750427 0.05158997 C27.63930175 0.06180606 31.07110614 0.06638403 34.50291443 0.07142639 C41.2405633 0.08248071 47.9781803 0.09923742 54.71580505 0.12025452 C54.74468652 3.43273638 54.76256305 6.74518619 54.77830505 10.05775452 C54.78668396 11.00328186 54.79506287 11.9488092 54.80369568 12.92298889 C54.80691833 13.82210999 54.81014099 14.72123108 54.8134613 15.64759827 C54.81869812 16.48025208 54.82393494 17.31290588 54.82933044 18.17079163 C54.71580505 20.12025452 54.71580505 20.12025452 53.71580505 21.12025452 C51.19486429 21.20873195 48.70149612 21.23552753 46.1806488 21.21791077 C45.05077293 21.21578835 45.05077293 21.21578835 43.89807129 21.21362305 C41.48310946 21.20800828 39.06823904 21.19545335 36.65330505 21.18275452 C35.01984285 21.17774142 33.38637919 21.17317818 31.75291443 21.16908264 C27.74048075 21.15888327 23.7282457 21.13931096 19.71580505 21.12025452 C19.71580505 30.69025452 19.71580505 40.26025452 19.71580505 50.12025452 C28.62580505 50.12025452 37.53580505 50.12025452 46.71580505 50.12025452 C46.71580505 56.72025452 46.71580505 63.32025452 46.71580505 70.12025452 C37.80580505 70.12025452 28.89580505 70.12025452 19.71580505 70.12025452 C19.71580505 81.34025452 19.71580505 92.56025452 19.71580505 104.12025452 C31.92580505 104.12025452 44.13580505 104.12025452 56.71580505 104.12025452 C56.71580505 110.72025452 56.71580505 117.32025452 56.71580505 124.12025452 C36.91580505 124.12025452 17.11580505 124.12025452 -3.28419495 124.12025452 C-3.32435861 93.42182397 -3.32435861 93.42182397 -3.33444881 78.31131458 C-3.34000067 70.1231917 -3.34706049 61.93507894 -3.3596344 53.7469635 C-3.36958136 47.2664411 -3.3760484 40.78592632 -3.37828344 34.3053965 C-3.37959053 30.87194909 -3.38267625 27.43852351 -3.389925 24.00508308 C-3.39793911 20.17831631 -3.39818608 16.35157116 -3.39772034 12.52479553 C-3.40131561 11.37824997 -3.40491089 10.23170441 -3.40861511 9.05041504 C-3.40724045 8.01409943 -3.40586578 6.97778381 -3.40444946 5.9100647 C-3.40537126 5.00394219 -3.40629305 4.09781969 -3.40724277 3.16423893 C-3.23142506 0.24367804 -2.92645817 0.15406733 0 0 Z " fill="#A2A3A6" transform="translate(588.2841949462891,472.87974548339844)"/>
<path d="M0 0 C7.27970275 3.96695083 13.56181918 9.31487475 16 17.4375 C21.2849375 44.33195971 4.37786327 68.11079778 -9.76416016 89.30004883 C-13.0379616 94.13940908 -16.4862657 98.75252093 -20 103.4375 C-8.45 103.7675 3.1 104.0975 15 104.4375 C15 110.7075 15 116.9775 15 123.4375 C-4.47 123.4375 -23.94 123.4375 -44 123.4375 C-44 101.61875424 -44 101.61875424 -39.50390625 95.92578125 C-38.80345436 94.9243232 -38.80345436 94.9243232 -38.08885193 93.90263367 C-36.61982717 91.81933301 -35.09640187 89.78583504 -33.5625 87.75 C-31.59122837 85.02705743 -29.64280474 82.28798451 -27.69140625 79.55078125 C-26.97031929 78.55330368 -26.97031929 78.55330368 -26.23466492 77.53567505 C-15.04159108 61.89369957 -3.62777806 43.35906271 -6 23.4375 C-7.21700543 20.60865723 -7.21700543 20.60865723 -9 18.4375 C-12.45999268 17.23402429 -14.28379064 17.19333772 -17.75 18.375 C-20.89557626 21.25844491 -21.50687314 24.34744783 -22 28.4375 C-22.09223676 31.11236594 -22.04697611 33.75986187 -22 36.4375 C-23 37.4375 -23 37.4375 -25.04125977 37.55102539 C-26.35308228 37.54317017 -26.35308228 37.54317017 -27.69140625 37.53515625 C-28.63564453 37.53193359 -29.57988281 37.52871094 -30.55273438 37.52539062 C-31.54595703 37.51701172 -32.53917969 37.50863281 -33.5625 37.5 C-34.55958984 37.49548828 -35.55667969 37.49097656 -36.58398438 37.48632812 C-39.05604849 37.47450007 -41.52799518 37.45801849 -44 37.4375 C-44.58036238 26.39449366 -43.95083759 17.11520315 -37 8.125 C-27.38160582 -1.73741263 -12.95449733 -5.12362675 0 0 Z " fill="#57575A" transform="translate(743,473.5625)"/>
<path d="M0 0 C7.26 0 14.52 0 22 0 C22 40.92 22 81.84 22 124 C14.74 124 7.48 124 0 124 C0 83.08 0 42.16 0 0 Z " fill="#A5A5A8" transform="translate(375,473)"/>
<path d="M0 0 C-3.78334952 2.20418814 -7.87568023 3.07382688 -12.09350586 4.07202148 C-12.90938171 4.26922287 -13.72525757 4.46642426 -14.56585693 4.66960144 C-17.2811024 5.32469376 -19.99795581 5.97285004 -22.71484375 6.62109375 C-24.64167408 7.08467963 -26.56839422 7.54872369 -28.49501038 8.01319885 C-33.60759544 9.24456718 -38.72153572 10.47021084 -43.83581543 11.69451904 C-49.84896338 13.13491516 -55.86087682 14.58045824 -61.87228107 16.02811337 C-66.87598279 17.23275036 -71.88085302 18.43200436 -76.88847351 19.62025452 C-86.91914644 22.00721431 -96.91297128 24.4821786 -106.87231445 27.15209961 C-129.5284683 33.17086119 -149.86558937 36.55304479 -173.3125 35.6875 C-176.04604008 35.62521743 -178.7797833 35.58104801 -181.51367188 35.53710938 C-188.01177366 35.41961188 -194.50527648 35.2388204 -201 35 C-201 34.34 -201 33.68 -201 33 C-193.53659272 30.87915365 -186.05751728 29.07659804 -178.4609375 27.50390625 C-177.36609039 27.27438263 -176.27124329 27.04485901 -175.14321899 26.80838013 C-171.55444056 26.05671542 -167.9647235 25.30963702 -164.375 24.5625 C-161.84497833 24.03331146 -159.31503167 23.50376422 -156.78515625 22.97387695 C-152.18189463 22.00997622 -147.57845543 21.04694138 -142.97470474 20.0853796 C-133.3137932 18.06742991 -123.65500017 16.03947101 -113.99804688 14.00265503 C-107.91042603 12.71883651 -101.82165277 11.44131563 -95.72949219 10.17919922 C-85.97925685 8.15324056 -76.24898448 6.13138993 -66.6015625 3.65625 C-44.22858182 -1.98155879 -22.88153676 -1.35595501 0 0 Z " fill="#4099A0" transform="translate(408,417)"/>
<path d="M0 0 C6.93 0 13.86 0 21 0 C21 31.02 21 62.04 21 94 C14.07 94 7.14 94 0 94 C0 62.98 0 31.96 0 0 Z " fill="#59595C" transform="translate(774,503)"/>
<path d="M0 0 C6.93 0 13.86 0 21 0 C21 31.02 21 62.04 21 94 C14.07 94 7.14 94 0 94 C0 62.98 0 31.96 0 0 Z " fill="#59595C" transform="translate(663,503)"/>
<path d="M0 0 C4.32966587 0.49153212 6.99873006 3.29339985 10.125 6.0625 C11.29470028 7.07522752 12.46528027 8.08693984 13.63671875 9.09765625 C14.21083496 9.59539551 14.78495117 10.09313477 15.37646484 10.60595703 C20.16106658 14.71423913 25.16266721 18.56587241 30.1328125 22.4453125 C37.40310448 28.12256295 44.56442557 33.91230203 51.66870117 39.79614258 C56.75788799 44.00181007 61.91299045 48.11098792 67.11767578 52.17236328 C71.47440345 55.57515461 75.76517612 59.05120943 80.03515625 62.5625 C88.79493668 69.76421672 97.58652099 76.92651705 106.5 83.9375 C107.36226196 84.6169165 107.36226196 84.6169165 108.24194336 85.31005859 C111.99467053 88.2524071 115.81018958 91.08314264 119.7421875 93.78125 C120.15726563 94.1834375 120.57234375 94.585625 121 95 C121 95.99 121 96.98 121 98 C117.64675035 98.20504349 114.29512597 98.32818195 110.9375 98.4375 C109.52307617 98.52547852 109.52307617 98.52547852 108.08007812 98.61523438 C101.14699229 98.78433403 101.14699229 98.78433403 98.03564453 96.65673828 C96.25319865 94.84594336 94.64022963 92.93963855 93 91 C91.79116833 89.91442046 90.56087716 88.85236124 89.3125 87.8125 C83.00789858 82.37037778 77.26524808 76.32053833 71.41796875 70.39746094 C66.08489087 65.0015242 60.75581281 59.68448866 54.97949219 54.75683594 C50.83734844 51.08060673 47.00922108 47.06953508 43.125 43.125 C41.4424115 41.41699476 39.75762867 39.71114749 38.0703125 38.0078125 C37.33570801 37.26160645 36.60110352 36.51540039 35.84423828 35.74658203 C34.10805576 33.93306123 34.10805576 33.93306123 32 33 C32 32.34 32 31.68 32 31 C31.44731445 30.77328613 30.89462891 30.54657227 30.32519531 30.31298828 C27.31116616 28.6110302 25.23019787 26.45380482 22.796875 23.9921875 C22.3142218 23.50670441 21.8315686 23.02122131 21.33428955 22.52102661 C19.80141438 20.97700134 18.27565996 19.42615176 16.75 17.875 C15.70879639 16.82375991 14.66713459 15.77297343 13.625 14.72265625 C11.07800536 12.15366996 8.53734823 9.57851839 6 7 C9.16085029 12.89169323 12.32616887 18.72027722 16 24.3125 C16.77927772 25.50870317 17.55787554 26.70534944 18.3359375 27.90234375 C18.75842773 28.55058105 19.18091797 29.19881836 19.61621094 29.86669922 C22.31050504 34.02032341 24.96661932 38.19833528 27.625 42.375 C28.21643799 43.30376953 28.80787598 44.23253906 29.41723633 45.18945312 C34.5162468 53.2106438 39.55260019 61.27024832 44.57104492 69.34204102 C47.46584872 73.98800828 50.38271289 78.61377701 53.390625 83.1875 C54.16660034 84.36832153 54.16660034 84.36832153 54.95825195 85.57299805 C55.91664262 87.02394995 56.88096811 88.47100615 57.85229492 89.91333008 C61 94.67334821 61 94.67334821 61 98 C58.77734375 98.40625 58.77734375 98.40625 56 98 C54.22109089 95.83603185 52.93246315 93.91097298 51.5625 91.5 C51.14202393 90.79439941 50.72154785 90.08879883 50.28833008 89.36181641 C48.83975657 86.91863384 47.41998563 84.45989734 46 82 C44.8996177 80.12170393 43.79800665 78.24412728 42.6953125 76.3671875 C40.31652587 72.30929673 37.94932724 68.24492432 35.58984375 64.17578125 C31.63912578 57.36755182 27.63549267 50.59124446 23.625 43.81811523 C21.15799048 39.65124826 18.69365384 35.48301588 16.24609375 31.3046875 C15.81643311 30.5715332 15.38677246 29.83837891 14.9440918 29.08300781 C14.12040924 27.67665026 13.29762273 26.26976743 12.47583008 24.86230469 C10.58148203 21.63143897 8.65591941 18.43050852 6.640625 15.2734375 C6.26848877 14.68699463 5.89635254 14.10055176 5.51293945 13.49633789 C4.51626432 11.93582293 3.50671611 10.38355009 2.49609375 8.83203125 C0.90955278 5.82878789 0.36323427 3.35867304 0 0 Z " fill="#159948" transform="translate(675,354)"/>
<path d="M0 0 C1.17304687 0.11988281 2.34609375 0.23976563 3.5546875 0.36328125 C4.40289063 0.47027344 5.25109375 0.57726562 6.125 0.6875 C6.125 1.3475 6.125 2.0075 6.125 2.6875 C-10.45720238 6.87313414 -27.05184876 10.99985778 -43.68359375 14.984375 C-44.43291168 15.16403431 -45.18222961 15.34369362 -45.95425415 15.52879715 C-53.88663959 17.43008322 -61.82114509 19.32224157 -69.75860977 21.20221138 C-73.91392239 22.1868498 -78.06849319 23.1745861 -82.22265625 24.1640625 C-83.03552094 24.35758678 -83.84838562 24.55111107 -84.68588257 24.75049973 C-94.85967038 27.17810126 -104.97585115 29.73884145 -115.05859375 32.5234375 C-142.12479972 39.9163558 -166.82777139 42.28028036 -194.875 40.6875 C-192.02467809 38.7872854 -190.54966722 38.23659962 -187.29833984 37.54931641 C-185.88945244 37.24654282 -185.88945244 37.24654282 -184.45210266 36.93765259 C-183.42376816 36.72361786 -182.39543365 36.50958313 -181.3359375 36.2890625 C-180.25309982 36.05835052 -179.17026215 35.82763855 -178.05461121 35.5899353 C-174.45436828 34.82453922 -170.85222685 34.06849927 -167.25 33.3125 C-164.71334649 32.77527661 -162.1768085 32.23750755 -159.64038086 31.69921875 C-153.68409 30.43677108 -147.72658119 29.18024284 -141.76828861 27.92728043 C-136.17924471 26.75192 -130.59106427 25.57249903 -125.0030365 24.39231873 C-113.26434157 21.91338989 -101.5237689 19.44346462 -89.7822113 16.97813416 C-77.00368459 14.29505291 -64.22632554 11.60643639 -51.44918823 8.91674805 C-47.79048785 8.14667655 -44.13170148 7.37701476 -40.47290039 6.60742188 C-39.33730179 6.36832596 -38.20170319 6.12923004 -37.0316925 5.88288879 C-34.85134272 5.42428333 -32.6707574 4.96679592 -30.48991394 4.51054382 C-26.13275566 3.59703183 -21.77962551 2.67735786 -17.44238281 1.6730957 C-11.37109297 0.28226077 -6.20595249 -0.6965865 0 0 Z " fill="#96BD35" transform="translate(561.875,376.3125)"/>
<path d="M0 0 C1.33463765 1.08883482 2.67058085 2.17607128 4.0078125 3.26171875 C5.38127483 4.40236287 6.75364177 5.54432705 8.125 6.6875 C13.65884284 11.27271904 19.22275598 15.81131276 24.875 20.25 C25.45137207 20.70334717 26.02774414 21.15669434 26.62158203 21.6237793 C29.03429461 23.50982412 31.45020308 25.30013538 34 27 C34 27.99 34 28.98 34 30 C30.64675035 30.20504349 27.29512597 30.32818195 23.9375 30.4375 C22.99455078 30.49615234 22.05160156 30.55480469 21.08007812 30.61523438 C14.14699229 30.78433403 14.14699229 30.78433403 11.03564453 28.65673828 C9.25316143 26.84590555 7.6405579 24.93945373 6 23 C4.76038883 21.88017556 3.49898274 20.78408557 2.21875 19.7109375 C-2.93206968 15.26363228 -7.7007577 10.44516923 -12.5 5.625 C-13.4178125 4.71105469 -14.335625 3.79710937 -15.28125 2.85546875 C-16.1475 1.98792969 -17.01375 1.12039063 -17.90625 0.2265625 C-19.08670898 -0.95558838 -19.08670898 -0.95558838 -20.29101562 -2.16162109 C-22 -4 -22 -4 -22 -5 C-19.83942289 -5.33379702 -17.67070188 -5.61506301 -15.5 -5.875 C-14.2934375 -6.03742188 -13.086875 -6.19984375 -11.84375 -6.3671875 C-6.50136595 -5.8568378 -3.95798547 -3.43624234 0 0 Z " fill="#429CA4" transform="translate(762,422)"/>
<path d="M0 0 C-2.54494556 1.69663037 -4.26497687 2.54253815 -7.09619141 3.47363281 C-8.34102547 3.8868705 -8.34102547 3.8868705 -9.61100769 4.30845642 C-10.51539078 4.60369705 -11.41977386 4.89893768 -12.3515625 5.203125 C-13.30239212 5.51774185 -14.25322174 5.8323587 -15.23286438 6.1565094 C-17.2888029 6.83642894 -19.34539398 7.51437776 -21.40255737 8.19058228 C-26.84830536 9.98093904 -32.28922206 11.7858621 -37.73046875 13.58984375 C-38.83775833 13.95659714 -39.94504791 14.32335052 -41.08589172 14.70121765 C-52.05856092 18.34044386 -63.00172413 22.06408718 -73.9375 25.8125 C-74.79490784 26.10636597 -75.65231567 26.40023193 -76.53570557 26.70300293 C-77.36970886 26.98889282 -78.20371216 27.27478271 -79.06298828 27.56933594 C-79.87156784 27.84647934 -80.6801474 28.12362274 -81.51322937 28.40916443 C-82.99405359 28.91698409 -84.47471368 29.42528282 -85.95515442 29.93421936 C-87.28631179 30.39126423 -88.61813599 30.84637228 -89.95066833 31.2993927 C-91.42077835 31.80198085 -92.88796401 32.31315418 -94.35316467 32.82987976 C-95.13960861 33.10258194 -95.92605255 33.37528412 -96.73632812 33.65625 C-97.44720581 33.90608643 -98.1580835 34.15592285 -98.89050293 34.41333008 C-102.44132866 35.40084634 -105.9059489 35.32115088 -109.5625 35.1875 C-110.28501953 35.17396484 -111.00753906 35.16042969 -111.75195312 35.14648438 C-113.50163812 35.11172242 -115.25092928 35.05794467 -117 35 C-117 34.34 -117 33.68 -117 33 C-94.97840259 25.56841999 -72.89306464 18.35955106 -50.73608398 11.34155273 C-49.79463531 11.04285278 -48.85318665 10.74415283 -47.88320923 10.43640137 C-46.01878896 9.84504518 -44.15394636 9.25501874 -42.28866577 8.66638184 C-37.56847575 7.16895592 -32.87226591 5.62237258 -28.19604492 3.99243164 C-27.25280869 3.66660599 -26.30957245 3.34078033 -25.3377533 3.00508118 C-23.55640616 2.38655664 -21.77846501 1.7580919 -20.00489807 1.11759949 C-13.04407102 -1.29200625 -7.27597211 -1.60638345 0 0 Z " fill="#3D9199" transform="translate(484,417)"/>
<path d="M0 0 C4.62 0 9.24 0 14 0 C16.46747559 2.46747559 15.78334819 8.54172061 16.0625 11.875 C16.15337891 12.8753125 16.24425781 13.875625 16.33789062 14.90625 C16.91477863 21.62070589 17.11215672 28.26228864 17 35 C14.04160645 35.02689449 11.08345573 35.04678741 8.125 35.0625 C7.28324219 35.07087891 6.44148437 35.07925781 5.57421875 35.08789062 C4.76855469 35.09111328 3.96289062 35.09433594 3.1328125 35.09765625 C2.01737061 35.10551147 2.01737061 35.10551147 0.87939453 35.11352539 C-1 35 -1 35 -3 34 C-2.01 22.78 -1.02 11.56 0 0 Z " fill="#43A0A7" transform="translate(666,417)"/>
<path d="M0 0 C2.97 0 5.94 0 9 0 C9.66 3.63 10.32 7.26 11 11 C11.99 7.37 12.98 3.74 14 0 C16.64 0 19.28 0 22 0 C22 10.23 22 20.46 22 31 C20.02 31 18.04 31 16 31 C15.67 28.69 15.34 26.38 15 24 C14.34 26.31 13.68 28.62 13 31 C11.68 31 10.36 31 9 31 C8.34 27.7 7.68 24.4 7 21 C6.67 24.3 6.34 27.6 6 31 C4.02 31 2.04 31 0 31 C0 20.77 0 10.54 0 0 Z " fill="#439FA7" transform="translate(321,617)"/>
<path d="M0 0 C2.64 0 5.28 0 8 0 C9.05496286 3.65720457 10.07671407 7.30685628 11 11 C11.99 7.37 12.98 3.74 14 0 C16.64 0 19.28 0 22 0 C22 10.23 22 20.46 22 31 C20.02 31 18.04 31 16 31 C15.67 28.36 15.34 25.72 15 23 C14.34 25.64 13.68 28.28 13 31 C11.68 31 10.36 31 9 31 C8.34 28.03 7.68 25.06 7 22 C6.67 24.97 6.34 27.94 6 31 C4.02 31 2.04 31 0 31 C0 20.77 0 10.54 0 0 Z " fill="#12A04C" transform="translate(675,617)"/>
<path d="M0 0 C-0.66 0.33 -1.32 0.66 -2 1 C-2 1.66 -2 2.32 -2 3 C-44.78704692 17.67246241 -44.78704692 17.67246241 -65.69458008 24.57226562 C-72.58629666 26.84872778 -79.46604876 29.1493311 -86.3160553 31.54891968 C-89.56974988 32.68717375 -92.8284171 33.81079687 -96.0874939 34.93353271 C-97.62633939 35.46817686 -99.16278424 36.00979366 -100.69644165 36.55914307 C-109.9163211 39.85918646 -118.07007974 41.81043072 -128 41 C-125.65963604 38.65963604 -124.01492264 38.18022636 -120.8828125 37.15234375 C-119.81683838 36.79954346 -118.75086426 36.44674316 -117.65258789 36.08325195 C-116.48848389 35.70515381 -115.32437988 35.32705566 -114.125 34.9375 C-112.29666626 34.33651489 -112.29666626 34.33651489 -110.43139648 33.72338867 C-106.62386295 32.47314965 -102.81223303 31.23583651 -99 30 C-97.90800293 29.64518555 -96.81600586 29.29037109 -95.69091797 28.92480469 C-83.87185767 25.09031407 -72.03056784 21.32590611 -60.1875 17.56640625 C-58.2512198 16.95141887 -56.31494051 16.33642861 -54.37866211 15.72143555 C-50.60926865 14.52429941 -46.83917584 13.32940359 -43.06860352 12.13598633 C-41.27615047 11.56739013 -39.4837509 10.99862531 -37.69140625 10.4296875 C-36.81569473 10.15253403 -35.93998322 9.87538055 -35.03773499 9.58982849 C-30.40356006 8.11511123 -25.7892857 6.59578245 -21.19091797 5.01269531 C-19.76742287 4.52556564 -19.76742287 4.52556564 -18.31517029 4.02859497 C-16.5062855 3.40681217 -14.69998812 2.77743059 -12.89686584 2.13912964 C-8.44435901 0.61088861 -4.78064911 -0.38151997 0 0 Z " fill="#8EB332" transform="translate(601,376)"/>
<path d="M0 0 C0.99 1.485 0.99 1.485 2 3 C-3.08186172 4.74250755 -8.16407474 6.48398572 -13.24658203 8.22460938 C-14.96672529 8.8138615 -16.68678089 9.40336961 -18.40673828 9.99316406 C-22.59077246 11.42782997 -26.77599657 12.85879515 -30.96386719 14.28222656 C-34.37114073 15.44052389 -37.77156546 16.61672891 -41.16894531 17.80371094 C-42.80265293 18.36677281 -44.43643879 18.92960774 -46.0703125 19.4921875 C-46.82585419 19.76016144 -47.58139587 20.02813538 -48.35983276 20.30422974 C-53.66016067 22.11327978 -53.66016067 22.11327978 -57 21 C-57.495 20.01 -57.495 20.01 -58 19 C-57.19369141 18.74307373 -56.38738281 18.48614746 -55.55664062 18.22143555 C-52.52943023 17.25576239 -49.50281015 16.28826568 -46.4765625 15.31958008 C-45.17340631 14.90284695 -43.87002566 14.48681499 -42.56640625 14.0715332 C-35.64683261 11.86671507 -28.76686077 9.64010098 -22 7 C-22.95962646 7.24121582 -23.91925293 7.48243164 -24.90795898 7.73095703 C-26.27066269 8.07327356 -27.63337503 8.41555574 -28.99609375 8.7578125 C-29.72770218 8.94162476 -30.45931061 9.12543701 -31.21308899 9.31481934 C-35.2745059 10.33432218 -39.33697245 11.3493635 -43.40136719 12.35693359 C-45.06316892 12.76913367 -46.72495277 13.18140582 -48.38671875 13.59375 C-49.21313873 13.79876129 -50.03955872 14.00377258 -50.89102173 14.21499634 C-55.73829 15.42214188 -60.56992254 16.67409609 -65.39453125 17.96875 C-77.03522305 21.03656999 -86.99534152 22.9679768 -99 21 C-98.67 20.34 -98.34 19.68 -98 19 C-96.02915955 18.37553406 -96.02915955 18.37553406 -93.40209961 17.8425293 C-92.41853989 17.63859055 -91.43498016 17.43465179 -90.4216156 17.22453308 C-89.34275589 17.00992935 -88.26389618 16.79532562 -87.15234375 16.57421875 C-86.03428848 16.34475052 -84.91623322 16.11528229 -83.76429749 15.87886047 C-80.15695387 15.14035398 -76.5473383 14.41370405 -72.9375 13.6875 C-70.59163482 13.20977947 -68.24592966 12.73127245 -65.90039062 12.25195312 C-62.39964611 11.5367676 -58.8985865 10.82346081 -55.39608765 10.11691284 C-49.64921995 8.95693887 -43.9096606 7.77301332 -38.18017578 6.52978516 C-37.09684464 6.29669144 -36.01351349 6.06359772 -34.89735413 5.82344055 C-32.86855479 5.38526858 -30.84111497 4.94073076 -28.81541443 4.4884491 C-23.39085071 3.32239006 -18.54034854 2.88862284 -13 3 C-10.65789079 2.36485174 -8.32315031 1.7013284 -6 1 C-4.33372702 0.96377667 -2.66594626 0.95100158 -1 1 C-0.67 0.67 -0.34 0.34 0 0 Z " fill="#0F843E" transform="translate(656,356)"/>
<path d="M0 0 C1.56423326 1.21752176 3.12868045 2.43477645 4.69628906 3.64794922 C12.24436314 9.50903085 19.61713293 15.5807508 26.9765625 21.67578125 C29.48106417 23.74980314 31.99396053 25.81198262 34.5234375 27.85546875 C35.52632812 28.66628906 36.52921875 29.47710937 37.5625 30.3125 C38.43003906 31.00988281 39.29757812 31.70726562 40.19140625 32.42578125 C40.78824219 32.94527344 41.38507812 33.46476562 42 34 C42 34.33 42 34.66 42 35 C35.27660372 36.00432476 29.57927908 36.62467045 23.70703125 32.92578125 C20.89075641 30.4610974 18.3500638 27.74217049 15.83056641 24.97851562 C13.0193654 21.94010899 10.07276969 19.04141641 7.13623047 16.12475586 C5.60306712 14.59916329 4.07715685 13.06624223 2.55908203 11.52563477 C1.86540527 10.82237061 1.17172852 10.11910645 0.45703125 9.39453125 C-0.16196045 8.76393799 -0.78095215 8.13334473 -1.41870117 7.48364258 C-2.94854454 5.90662131 -2.94854454 5.90662131 -5 5 C-5 4.34 -5 3.68 -5 3 C-5.5775 2.7525 -6.155 2.505 -6.75 2.25 C-9.32939979 0.81700012 -11.06121592 -0.78424676 -13 -3 C-13 -3.66 -13 -4.32 -13 -5 C-7.27672256 -7.50393388 -4.2120275 -3.49225065 0 0 Z " fill="#9AC237" transform="translate(712,382)"/>
<path d="M0 0 C1.98 0 3.96 0 6 0 C6.99 2.64 7.98 5.28 9 8 C9.33 5.36 9.66 2.72 10 0 C11.99954746 -0.04254356 14.00041636 -0.04080783 16 0 C17 1 17 1 17.11352539 3.86743164 C17.10828857 5.11903076 17.10305176 6.37062988 17.09765625 7.66015625 C17.0962413 8.32462265 17.09482635 8.98908905 17.09336853 9.6736908 C17.08775518 11.80333899 17.07520054 13.93288339 17.0625 16.0625 C17.05748671 17.50325369 17.05292351 18.94400903 17.04882812 20.38476562 C17.03778145 23.92321102 17.02050792 27.46159539 17 31 C15.02 31 13.04 31 11 31 C9.68 28.03 8.36 25.06 7 22 C6.67 24.97 6.34 27.94 6 31 C4.02 31 2.04 31 0 31 C0 20.77 0 10.54 0 0 Z M10 11 C11 13 11 13 11 13 Z " fill="#9CC538" transform="translate(502,617)"/>
<path d="M0 0 C1.98 0 3.96 0 6 0 C7.32 2.97 8.64 5.94 10 9 C10.33 6.03 10.66 3.06 11 0 C12.98 0 14.96 0 17 0 C17 10.23 17 20.46 17 31 C15.02 31 13.04 31 11 31 C9.68 27.37 8.36 23.74 7 20 C6.67 23.63 6.34 27.26 6 31 C4.02 31 2.04 31 0 31 C0 20.77 0 10.54 0 0 Z " fill="#429EA6" transform="translate(221,617)"/>
<path d="M0 0 C1.98 0 3.96 0 6 0 C6.99 2.64 7.98 5.28 9 8 C9.33 5.36 9.66 2.72 10 0 C11.98 0 13.96 0 16 0 C16 10.23 16 20.46 16 31 C14.02 31 12.04 31 10 31 C9.01 28.03 8.02 25.06 7 22 C6.67 24.97 6.34 27.94 6 31 C4.02 31 2.04 31 0 31 C0 20.77 0 10.54 0 0 Z " fill="#429DA5" transform="translate(438,617)"/>
<path d="M0 0 C2.31 0 4.62 0 7 0 C7 3.96 7 7.92 7 12 C8.32 12 9.64 12 11 12 C11 8.04 11 4.08 11 0 C12.98 0 14.96 0 17 0 C17 10.23 17 20.46 17 31 C15.02 31 13.04 31 11 31 C11 26.71 11 22.42 11 18 C9.68 18 8.36 18 7 18 C7 22.29 7 26.58 7 31 C4.69 31 2.38 31 0 31 C0 20.77 0 10.54 0 0 Z " fill="#9DC538" transform="translate(593,617)"/>
<path d="M0 0 C2.2109375 1.3515625 2.2109375 1.3515625 4 4 C4.62506481 7.65271041 4.60329526 11.23953008 4.5625 14.9375 C4.58634766 15.92685547 4.61019531 16.91621094 4.63476562 17.93554688 C4.62510532 22.72384036 4.57962846 25.21119702 1.68359375 29.15234375 C-1.87598107 31.6031136 -3.76253058 31.75669097 -8 31 C-10.94776224 28.92883178 -12.72651717 27.31087952 -13.47949219 23.70166016 C-13.67417576 20.95085331 -13.68188118 18.25684107 -13.625 15.5 C-13.64433594 14.56285156 -13.66367187 13.62570312 -13.68359375 12.66015625 C-13.65073658 8.02729581 -13.51100755 5.69794023 -10.71484375 1.87890625 C-6.61186853 -0.96070681 -4.90100911 -0.70014416 0 0 Z M-6 6 C-6 12.27 -6 18.54 -6 25 C-5.01 25 -4.02 25 -3 25 C-3 18.73 -3 12.46 -3 6 C-3.99 6 -4.98 6 -6 6 Z " fill="#439FA7" transform="translate(283,617)"/>
<path d="M0 0 C11 0 11 0 15 2 C17.04054717 5.67298491 17.36163474 8.84120044 17 13 C16.01 14.485 16.01 14.485 15 16 C15.35089276 21.26339138 16.43066185 25.97811793 18 31 C15.69 31 13.38 31 11 31 C10.49440092 29.56445975 9.9957251 28.1264798 9.5 26.6875 C9.2215625 25.88699219 8.943125 25.08648438 8.65625 24.26171875 C8 22 8 22 8 19 C7.34 19 6.68 19 6 19 C6 22.96 6 26.92 6 31 C4.02 31 2.04 31 0 31 C0 20.77 0 10.54 0 0 Z M6 6 C6 8.31 6 10.62 6 13 C7.32 13 8.64 13 10 13 C10 11.02 10 9.04 10 7 C8.68 6.67 7.36 6.34 6 6 Z " fill="#419CA4" transform="translate(296,617)"/>
<path d="M0 0 C0.83265381 0.00523682 1.66530762 0.01047363 2.52319336 0.01586914 C3.33280518 0.0183667 4.14241699 0.02086426 4.9765625 0.0234375 C6.01159912 0.0325415 7.04663574 0.04164551 8.11303711 0.05102539 C11.39241211 0.07165039 14.67178711 0.09227539 18.05053711 0.11352539 C18.05053711 6.71352539 18.05053711 13.31352539 18.05053711 20.11352539 C14.77116211 20.13415039 11.49178711 20.15477539 8.11303711 20.17602539 C7.07800049 20.18512939 6.04296387 20.1942334 4.9765625 20.20361328 C4.16695068 20.20611084 3.35733887 20.2086084 2.52319336 20.21118164 C1.27421265 20.21903687 1.27421265 20.21903687 0 20.22705078 C-1.94946289 20.11352539 -1.94946289 20.11352539 -2.94946289 19.11352539 C-3.04783499 17.78308914 -3.08024881 16.44759195 -3.08227539 15.11352539 C-3.08356445 14.30915039 -3.08485352 13.50477539 -3.08618164 12.67602539 C-3.08231445 11.83040039 -3.07844727 10.98477539 -3.07446289 10.11352539 C-3.07833008 9.26790039 -3.08219727 8.42227539 -3.08618164 7.55102539 C-3.08489258 6.74665039 -3.08360352 5.94227539 -3.08227539 5.11352539 C-3.08114746 4.37102539 -3.08001953 3.62852539 -3.07885742 2.86352539 C-2.89273783 0.34634569 -2.51220716 0.14629635 0 0 Z " fill="#555557" transform="translate(776.949462890625,470.886474609375)"/>
<path d="M0 0 C0.7528125 -0.02449219 1.505625 -0.04898438 2.28125 -0.07421875 C5.94880678 1.18488965 6.82221435 3.27187374 8.5 6.6875 C9.02775924 9.89511924 9.01526669 13.00637663 8.9375 16.25 C8.94458984 17.08724609 8.95167969 17.92449219 8.95898438 18.78710938 C8.91003129 23.54308977 8.60916664 26.84855342 5.5 30.6875 C2.36599115 32.25450442 -1.13155095 32.53914561 -4.5 31.6875 C-7.09149581 29.5142807 -8.32419699 27.75570179 -8.87841797 24.38818359 C-9.03934517 21.64316656 -9.04537831 18.93666957 -9 16.1875 C-9.01546875 15.25035156 -9.0309375 14.31320312 -9.046875 13.34765625 C-9.02253954 9.05853188 -8.87988109 6.36331524 -6.75 2.57421875 C-4.26847078 0.4933531 -3.20168051 -0.01644699 0 0 Z M-1.5 6.6875 C-3.31187842 8.49937842 -2.63234462 10.9572751 -2.63671875 13.36523438 C-2.63285156 14.11095703 -2.62898438 14.85667969 -2.625 15.625 C-2.62886719 16.36685547 -2.63273437 17.10871094 -2.63671875 17.87304688 C-2.71739668 21.91072878 -2.71739668 21.91072878 -1.5 25.6875 C-0.51 25.6875 0.48 25.6875 1.5 25.6875 C1.5 19.4175 1.5 13.1475 1.5 6.6875 C0.51 6.6875 -0.48 6.6875 -1.5 6.6875 Z " fill="#439FA7" transform="translate(420.5,616.3125)"/>
<path d="M0 0 C2.31 0 4.62 0 7 0 C7.43214646 4.41034579 7.85919878 8.82114778 8.28173828 13.23242188 C8.42588018 14.72994981 8.57136199 16.22734945 8.71826172 17.72460938 C8.93037111 19.88899093 9.13749923 22.05380321 9.34375 24.21875 C9.46943359 25.51748047 9.59511719 26.81621094 9.72460938 28.15429688 C10.00930908 32.12999702 10.04650122 36.01639567 10 40 C5.38 40 0.76 40 -4 40 C-3.59410395 35.26747354 -3.18506949 30.53523242 -2.77319336 25.80322266 C-2.6336696 24.19522343 -2.49498615 22.58715105 -2.35717773 20.97900391 C-2.15832755 18.66028159 -1.95640267 16.34184389 -1.75390625 14.0234375 C-1.6934462 13.31069672 -1.63298615 12.59795593 -1.57069397 11.86361694 C-1.21849718 7.86968817 -0.71509392 3.94515964 0 0 Z " fill="#A1CA39" transform="translate(670,377)"/>
<path d="M0 0 C6.93 0 13.86 0 21 0 C21 6.27 21 12.54 21 19 C14.07 19 7.14 19 0 19 C0 12.73 0 6.46 0 0 Z " fill="#57575A" transform="translate(663,472)"/>
<path d="M0 0 C1.90625 0.44921875 1.90625 0.44921875 4.40625 2.57421875 C6.10136045 5.82318044 6.24234819 7.83616317 5.90625 11.44921875 C3.92625 11.44921875 1.94625 11.44921875 -0.09375 11.44921875 C-0.42375 10.12921875 -0.75375 8.80921875 -1.09375 7.44921875 C-1.75375 7.44921875 -2.41375 7.44921875 -3.09375 7.44921875 C-3.09375 13.05921875 -3.09375 18.66921875 -3.09375 24.44921875 C-2.43375 24.44921875 -1.77375 24.44921875 -1.09375 24.44921875 C-0.76375 23.12921875 -0.43375 21.80921875 -0.09375 20.44921875 C-1.08375 20.44921875 -2.07375 20.44921875 -3.09375 20.44921875 C-3.09375 18.46921875 -3.09375 16.48921875 -3.09375 14.44921875 C-0.12375 14.44921875 2.84625 14.44921875 5.90625 14.44921875 C5.90625 20.05921875 5.90625 25.66921875 5.90625 31.44921875 C-5.46485562 31.94361465 -5.46485562 31.94361465 -8.24902344 29.75488281 C-10.4634282 26.98716993 -10.60776524 25.67154837 -10.625 22.16796875 C-10.63015625 21.16121094 -10.6353125 20.15445313 -10.640625 19.1171875 C-10.62515625 18.07175781 -10.6096875 17.02632812 -10.59375 15.94921875 C-10.60921875 14.90378906 -10.6246875 13.85835937 -10.640625 12.78125 C-10.63546875 11.77449219 -10.6303125 10.76773438 -10.625 9.73046875 C-10.62048828 8.81330078 -10.61597656 7.89613281 -10.61132812 6.95117188 C-9.40221129 1.1063467 -5.35790559 -0.28988668 0 0 Z " fill="#99C136" transform="translate(578.09375,616.55078125)"/>
<path d="M0 0 C12 0 12 0 17 3 C18.74194959 6.48389917 18.57670324 10.19900139 18 14 C15.875 17.0625 15.875 17.0625 13 19 C11.02 19 9.04 19 7 19 C7 22.96 7 26.92 7 31 C4.69 31 2.38 31 0 31 C0 20.77 0 10.54 0 0 Z M7 6 C7 8.31 7 10.62 7 13 C8.32 13 9.64 13 11 13 C12.00217064 9.41672247 12.00217064 9.41672247 11 6 C9.68 6 8.36 6 7 6 Z " fill="#129D4B" transform="translate(705,617)"/>
<path d="M0 0 C2.33294775 -0.04241723 4.66702567 -0.04092937 7 0 C8.78946991 1.78946991 8.7448625 4.47846984 9.19140625 6.8984375 C9.41376953 8.09984375 9.63613281 9.30125 9.86523438 10.5390625 C10.09533203 11.80492187 10.32542969 13.07078125 10.5625 14.375 C10.79646484 15.633125 11.03042969 16.89125 11.27148438 18.1875 C13 27.60110696 13 27.60110696 13 31 C10.69 31 8.38 31 6 31 C5.67 29.02 5.34 27.04 5 25 C4.01 25 3.02 25 2 25 C1.67 26.98 1.34 28.96 1 31 C-0.98 31 -2.96 31 -5 31 C-5.23839634 24.4633262 -4.35039134 18.52434934 -3.0625 12.125 C-2.88009766 11.17625 -2.69769531 10.2275 -2.50976562 9.25 C-1.14749524 2.29499049 -1.14749524 2.29499049 0 0 Z M3 12 C3 13.98 3 15.96 3 18 C3.33 18 3.66 18 4 18 C4 16.02 4 14.04 4 12 C3.67 12 3.34 12 3 12 Z " fill="#119C4A" transform="translate(735,617)"/>
<path d="M0 0 C2.64 0 5.28 0 8 0 C8.83919128 4.41557456 9.6703408 8.83262534 10.5 13.25 C10.73847656 14.50425781 10.97695313 15.75851562 11.22265625 17.05078125 C11.44824219 18.25605469 11.67382812 19.46132813 11.90625 20.703125 C12.11572266 21.81333008 12.32519531 22.92353516 12.54101562 24.06738281 C13 27 13 27 13 31 C11.02 31 9.04 31 7 31 C6.67 28.69 6.34 26.38 6 24 C4.68 24 3.36 24 2 24 C1.67 26.31 1.34 28.62 1 31 C-0.98 31 -2.96 31 -5 31 C-3.83100289 20.53403763 -2.21936179 10.29783869 0 0 Z M3 14 C3 15.32 3 16.64 3 18 C3.66 18 4.32 18 5 18 C4.67 16.68 4.34 15.36 4 14 C3.67 14 3.34 14 3 14 Z " fill="#419AA2" transform="translate(355,617)"/>
<path d="M0 0 C1.90625 0.375 1.90625 0.375 4.40625 1.875 C6.59030234 5.51508723 6.18648018 8.17154733 5.90625 12.375 C3.92625 12.375 1.94625 12.375 -0.09375 12.375 C-0.42375 10.725 -0.75375 9.075 -1.09375 7.375 C-1.75375 7.375 -2.41375 7.375 -3.09375 7.375 C-3.09375 12.985 -3.09375 18.595 -3.09375 24.375 C-2.43375 24.375 -1.77375 24.375 -1.09375 24.375 C-0.76375 22.725 -0.43375 21.075 -0.09375 19.375 C1.88625 19.375 3.86625 19.375 5.90625 19.375 C6.38625 26.575 6.38625 26.575 4.40625 29.875 C1.40136516 31.67793091 -0.65047118 31.85244877 -4.09375 31.90625 C-7.00440063 31.13310843 -8.18589945 29.67145061 -10.09375 27.375 C-10.61132812 24.87304688 -10.61132812 24.87304688 -10.625 22.09375 C-10.63015625 21.08699219 -10.6353125 20.08023438 -10.640625 19.04296875 C-10.62515625 17.99753906 -10.6096875 16.95210937 -10.59375 15.875 C-10.60921875 14.82957031 -10.6246875 13.78414062 -10.640625 12.70703125 C-10.63546875 11.70027344 -10.6303125 10.69351563 -10.625 9.65625 C-10.62048828 8.73908203 -10.61597656 7.82191406 -10.61132812 6.87695312 C-9.39366885 0.99083415 -5.36846833 -0.32050557 0 0 Z " fill="#129E4B" transform="translate(765.09375,616.625)"/>
<path d="M0 0 C1.90625 0.52734375 1.90625 0.52734375 4.40625 3.33984375 C5.90625 6.52734375 5.90625 6.52734375 5.90625 9.52734375 C3.92625 9.52734375 1.94625 9.52734375 -0.09375 9.52734375 C-0.42375 8.53734375 -0.75375 7.54734375 -1.09375 6.52734375 C-2.08375 6.52734375 -3.07375 6.52734375 -4.09375 6.52734375 C-2.69024895 11.43959741 0.02436724 13.37331401 3.90625 16.52734375 C6.20812416 19.7708937 6.46619608 22.60772119 5.90625 26.52734375 C3.84375 29.40234375 3.84375 29.40234375 0.90625 31.52734375 C-3.09182408 32.1586186 -5.10110985 32.20651859 -8.46875 29.90234375 C-10.3937463 27.08888762 -10.78768785 24.89402745 -11.09375 21.52734375 C-9.11375 21.52734375 -7.13375 21.52734375 -5.09375 21.52734375 C-4.76375 22.84734375 -4.43375 24.16734375 -4.09375 25.52734375 C-3.10375 25.19734375 -2.11375 24.86734375 -1.09375 24.52734375 C-1.64977525 20.95951504 -2.77981826 19.60505261 -5.59375 17.40234375 C-9.00561441 14.70361494 -9.00561441 14.70361494 -10.09375 12.52734375 C-10.66247038 5.47521105 -10.66247038 5.47521105 -8.59375 2.02734375 C-5.57444017 0.21575785 -3.48977461 -0.16276934 0 0 Z " fill="#9AC137" transform="translate(537.09375,616.47265625)"/>
<path d="M0 0 C-2.56828167 2.92686566 -5.49362196 4.52349348 -8.8984375 6.37109375 C-9.4814563 6.68971878 -10.0644751 7.00834381 -10.66516113 7.33662415 C-11.91650214 8.01995704 -13.16908797 8.70101441 -14.42279053 9.38000488 C-17.71477315 11.16324362 -20.99753718 12.96331119 -24.28125 14.76171875 C-24.9384201 15.12109528 -25.59559021 15.4804718 -26.27267456 15.85073853 C-33.81920014 19.9837586 -41.28368575 24.25757898 -48.7421875 28.546875 C-49.46688232 28.96163086 -50.19157715 29.37638672 -50.93823242 29.80371094 C-52.28913331 30.58753738 -53.63098897 31.38721383 -54.9621582 32.20410156 C-59.80954435 35.13877727 -62.49712736 35.3861665 -68 35 C-68 34.01 -68 33.02 -68 32 C-67.35788574 31.6690332 -66.71577148 31.33806641 -66.05419922 30.99707031 C-54.43551171 25.00099397 -42.8429759 18.967969 -31.375 12.6875 C-30.47442871 12.19644775 -29.57385742 11.70539551 -28.64599609 11.19946289 C-24.58006022 8.97872128 -20.52897944 6.73839123 -16.5078125 4.4375 C-15.82412598 4.05376221 -15.14043945 3.67002441 -14.43603516 3.2746582 C-12.64893531 2.2711329 -10.87089826 1.25151379 -9.09375 0.23046875 C-5.53998925 -1.18295882 -3.64600833 -0.98288477 0 0 Z " fill="#3C8F95" transform="translate(559,417)"/>
<path d="M0 0 C-1.26041633 3.78124899 -2.2885606 3.97971798 -5.75 5.78515625 C-6.74169189 6.31028809 -7.73338379 6.83541992 -8.75512695 7.37646484 C-9.82593506 7.93285645 -10.89674316 8.48924805 -12 9.0625 C-14.22392836 10.24109232 -16.44658182 11.42209336 -18.66796875 12.60546875 C-19.75899902 13.18603027 -20.8500293 13.7665918 -21.97412109 14.36474609 C-25.81368362 16.43973317 -29.57141402 18.62872725 -33.3125 20.875 C-40.27086975 25.0095438 -47.25969781 29.09046336 -54.2996521 33.08453369 C-55.50507792 33.7716383 -56.70749376 34.46405385 -57.90664673 35.16204834 C-59.59881999 36.14573978 -61.30317634 37.10837968 -63.0078125 38.0703125 C-63.99410645 38.63508301 -64.98040039 39.19985352 -65.99658203 39.78173828 C-69.51209084 41.2077169 -72.24078904 41.22023186 -76 41 C-72.80067696 37.39744719 -69.21722915 35.29153935 -64.98046875 33.12890625 C-63.9497953 32.59060432 -63.9497953 32.59060432 -62.89830017 32.04142761 C-61.42707533 31.27359086 -59.95418652 30.5089354 -58.47979736 29.74719238 C-54.61489954 27.74975737 -50.76246637 25.72861022 -46.91015625 23.70703125 C-46.14403015 23.30547821 -45.37790405 22.90392517 -44.58856201 22.49020386 C-38.02509984 19.03870534 -31.5597709 15.4365476 -25.125 11.75 C-4.55979429 0 -4.55979429 0 0 0 Z " fill="#8DB333" transform="translate(630,376)"/>
<path d="M0 0 C4.95 0 9.9 0 15 0 C15 1.98 15 3.96 15 6 C12.03 6 9.06 6 6 6 C6 7.98 6 9.96 6 12 C8.31 12 10.62 12 13 12 C13 13.98 13 15.96 13 18 C10.69 18 8.38 18 6 18 C6 22.29 6 26.58 6 31 C4.02 31 2.04 31 0 31 C0 20.77 0 10.54 0 0 Z " fill="#419BA3" transform="translate(247,617)"/>
<path d="M0 0 C5.28 0 10.56 0 16 0 C16 1.98 16 3.96 16 6 C14.35 6 12.7 6 11 6 C11 14.25 11 22.5 11 31 C8.69 31 6.38 31 4 31 C4 22.75 4 14.5 4 6 C2.68 6 1.36 6 0 6 C0 4.02 0 2.04 0 0 Z " fill="#129D4B" transform="translate(779,617)"/>
<path d="M0 0 C5.28 0 10.56 0 16 0 C16 1.98 16 3.96 16 6 C14.35 6 12.7 6 11 6 C11 14.25 11 22.5 11 31 C8.69 31 6.38 31 4 31 C4 22.75 4 14.5 4 6 C2.68 6 1.36 6 0 6 C0 4.02 0 2.04 0 0 Z " fill="#419CA3" transform="translate(372,617)"/>
<path d="M0 0 C4.95 0 9.9 0 15 0 C15 1.98 15 3.96 15 6 C13.68 6.33 12.36 6.66 11 7 C11 14.92 11 22.84 11 31 C8.69 31 6.38 31 4 31 C4 22.75 4 14.5 4 6 C2.68 6 1.36 6 0 6 C0 4.02 0 2.04 0 0 Z " fill="#9AC237" transform="translate(618,617)"/>
<path d="M0 0 C2.475 0.495 2.475 0.495 5 1 C1.88960269 5.86188318 -1.58161463 10.29838639 -5.25 14.75 C-6.40780029 16.16516155 -7.56535265 17.58052598 -8.72265625 18.99609375 C-9.28227051 19.67913574 -9.84188477 20.36217773 -10.41845703 21.06591797 C-12.52142648 23.63765677 -14.60801355 26.22172698 -16.6875 28.8125 C-17.28949219 29.56144531 -17.89148438 30.31039063 -18.51171875 31.08203125 C-19.74383929 32.66988212 -20.88515038 34.32772558 -22 36 C-25.125 36.1875 -25.125 36.1875 -28 36 C-27.52787109 31.58988676 -24.5729311 28.85409613 -21.75 25.6875 C-21.22293457 25.08446045 -20.69586914 24.4814209 -20.15283203 23.86010742 C-19.02756204 22.57321015 -17.89937468 21.28885906 -16.76855469 20.00683594 C-14.3688797 17.28384748 -11.98614555 14.5463574 -9.60644531 11.8059082 C-8.47014667 10.49769072 -7.33154724 9.19146739 -6.19042969 7.88745117 C-5.67125977 7.2916626 -5.15208984 6.69587402 -4.6171875 6.08203125 C-3.93052002 5.29662964 -3.93052002 5.29662964 -3.22998047 4.49536133 C-1.7972676 2.80440602 -1.7972676 2.80440602 0 0 Z " fill="#4099A0" transform="translate(617,416)"/>
<path d="M0 0 C0.66 0.99 1.32 1.98 2 3 C-3.08186172 4.74250755 -8.16407474 6.48398572 -13.24658203 8.22460938 C-14.96672529 8.8138615 -16.68678089 9.40336961 -18.40673828 9.99316406 C-22.59077246 11.42782997 -26.77599657 12.85879515 -30.96386719 14.28222656 C-34.37114073 15.44052389 -37.77156546 16.61672891 -41.16894531 17.80371094 C-42.80265293 18.36677281 -44.43643879 18.92960774 -46.0703125 19.4921875 C-47.20362503 19.89414841 -47.20362503 19.89414841 -48.35983276 20.30422974 C-53.66016067 22.11327978 -53.66016067 22.11327978 -57 21 C-57.33 20.34 -57.66 19.68 -58 19 C-57.19369141 18.74307373 -56.38738281 18.48614746 -55.55664062 18.22143555 C-52.52943023 17.25576239 -49.50281015 16.28826568 -46.4765625 15.31958008 C-45.17340631 14.90284695 -43.87002566 14.48681499 -42.56640625 14.0715332 C-35.64683261 11.86671507 -28.76686077 9.64010098 -22 7 C-24.97 7.66 -27.94 8.32 -31 9 C-31 8.34 -31 7.68 -31 7 C-32.32 6.67 -33.64 6.34 -35 6 C-21.33932992 2.77669582 -21.33932992 2.77669582 -16.5625 2.9375 C-12.65900905 3.0059823 -9.71660744 2.1219947 -6 1 C-4.33372702 0.96377667 -2.66594626 0.95100158 -1 1 C-0.67 0.67 -0.34 0.34 0 0 Z " fill="#0E7E3C" transform="translate(656,356)"/>
<path d="M0 0 C2.31 0 4.62 0 7 0 C7 10.23 7 20.46 7 31 C4.69 31 2.38 31 0 31 C0 20.77 0 10.54 0 0 Z " fill="#12A14C" transform="translate(659,617)"/>
<path d="M0 0 C0.495 0.99 0.495 0.99 1 2 C-3.68133301 4.81557889 -8.26550075 7.03017895 -13.4453125 8.796875 C-14.13704559 9.0353717 -14.82877869 9.27386841 -15.54147339 9.51959229 C-16.99729888 10.01759851 -18.45453202 10.51150715 -19.91308594 11.00146484 C-22.10550422 11.74340242 -24.28660076 12.5136247 -26.46875 13.28515625 C-35.16311575 16.2692488 -42.69074163 17.76348441 -52 17 C-49.59107808 14.59107808 -47.76367513 14.10191703 -44.53125 13.046875 C-43.41057129 12.67747803 -42.28989258 12.30808105 -41.13525391 11.92749023 C-39.93562012 11.53891846 -38.73598633 11.15034668 -37.5 10.75 C-35.03897598 9.94427463 -32.57803871 9.13828425 -30.1171875 8.33203125 C-28.90643555 7.93709473 -27.69568359 7.5421582 -26.44824219 7.13525391 C-23.41793725 6.13759616 -20.39815584 5.11603371 -17.3828125 4.07421875 C-16.15981445 3.65414551 -16.15981445 3.65414551 -14.91210938 3.22558594 C-13.42973926 2.71479487 -11.94913653 2.1988338 -10.47070312 1.67675781 C-6.86763794 0.44691627 -3.81504517 -0.28723313 0 0 Z " fill="#87AB30" transform="translate(525,400)"/>
<path d="M0 0 C2.87192366 3.48022687 5.4012984 7.04395717 7.8203125 10.8515625 C8.52027344 11.94984375 9.22023438 13.048125 9.94140625 14.1796875 C10.6693661 15.32806461 11.39722973 16.47650273 12.125 17.625 C12.86040478 18.78142321 13.59607953 19.93767479 14.33203125 21.09375 C15.67867118 23.20954287 17.02402478 25.32615539 18.36767578 27.44384766 C19.55857236 29.30874254 20.77261158 31.15891737 22 33 C22 33.99 22 34.98 22 36 C19.79296875 36.43359375 19.79296875 36.43359375 17 36 C15.15116206 33.69128305 13.75939056 31.60914526 12.3125 29.0625 C11.68045654 27.99878174 11.68045654 27.99878174 11.03564453 26.91357422 C10.14070459 25.40259798 9.25388768 23.88678626 8.37451172 22.36669922 C6.98287472 19.97051289 5.56041011 17.59520985 4.12890625 15.22265625 C3.21002439 13.69065147 2.29202925 12.15811443 1.375 10.625 C0.93712158 9.89418213 0.49924316 9.16336426 0.0480957 8.41040039 C-3 3.23324207 -3 3.23324207 -3 1 C-2.01 0.67 -1.02 0.34 0 0 Z " fill="#3E949B" transform="translate(714,416)"/>
<path d="M0 0 C1.98 0 3.96 0 6 0 C6 10.23 6 20.46 6 31 C4.02 31 2.04 31 0 31 C0 20.77 0 10.54 0 0 Z " fill="#9DC638" transform="translate(552,617)"/>
<path d="M0 0 C1.98 0 3.96 0 6 0 C6 10.23 6 20.46 6 31 C4.02 31 2.04 31 0 31 C0 20.77 0 10.54 0 0 Z " fill="#9DC638" transform="translate(486,617)"/>
<path d="M0 0 C1.98 0 3.96 0 6 0 C6 10.23 6 20.46 6 31 C4.02 31 2.04 31 0 31 C0 20.77 0 10.54 0 0 Z " fill="#439FA7" transform="translate(396,617)"/>
<path d="M0 0 C1.98 0 3.96 0 6 0 C6 10.23 6 20.46 6 31 C4.02 31 2.04 31 0 31 C0 20.77 0 10.54 0 0 Z " fill="#439FA7" transform="translate(205,617)"/>
<path d="M0 0 C0.66 0.33 1.32 0.66 2 1 C0.60159108 5.09954616 -1.33212862 7.89346877 -4.125 11.1875 C-4.93453125 12.15429688 -5.7440625 13.12109375 -6.578125 14.1171875 C-7.37734375 15.06851562 -8.1765625 16.01984375 -9 17 C-10.29777616 18.5992281 -11.58970403 20.20322447 -12.875 21.8125 C-13.51824219 22.61042969 -14.16148437 23.40835937 -14.82421875 24.23046875 C-16.51109304 26.37767498 -18.14852381 28.54209546 -19.76953125 30.73828125 C-20.25244629 31.38112061 -20.73536133 32.02395996 -21.23291016 32.6862793 C-22.18705614 33.95799351 -23.12867269 35.23922633 -24.05615234 36.53051758 C-27.37092859 40.91149616 -27.37092859 40.91149616 -30.83203125 41.3984375 C-31.54746094 41.26695312 -32.26289062 41.13546875 -33 41 C-31.31657593 36.93997725 -28.48841033 33.88742871 -25.625 30.625 C-24.5403253 29.37373196 -23.45569106 28.12242886 -22.37109375 26.87109375 C-21.81405762 26.23155762 -21.25702148 25.59202148 -20.68310547 24.93310547 C-18.00755064 21.86013721 -15.34438123 18.77662138 -12.6875 15.6875 C-12.18911621 15.10806641 -11.69073242 14.52863281 -11.17724609 13.93164062 C-7.30104256 9.40185353 -3.58168718 4.7671752 0 0 Z " fill="#90B633" transform="translate(651,376)"/>
<path d="M0 0 C4.32234087 1.48249553 5.8328355 4.587686 7.9375 8.375 C12.26980828 15.91680863 16.9811788 23.16730451 21.83374023 30.38427734 C22.37458252 31.20105957 22.9154248 32.0178418 23.47265625 32.859375 C24.20367554 33.94943848 24.20367554 33.94943848 24.94946289 35.06152344 C26 37 26 37 26 40 C23.76171875 39.9375 23.76171875 39.9375 21 39 C19.35789132 36.66022363 18.09164293 34.52779483 16.8125 32 C16.03836955 30.5471571 15.26225465 29.09537022 14.484375 27.64453125 C14.08283203 26.8860791 13.68128906 26.12762695 13.26757812 25.34619141 C11.13540738 21.39970434 8.84882606 17.54606672 6.5625 13.6875 C6.13751221 12.96498047 5.71252441 12.24246094 5.2746582 11.49804688 C3.57389962 8.61407718 1.85832119 5.78748178 0 3 C0 2.01 0 1.02 0 0 Z " fill="#97BE36" transform="translate(688,377)"/>
<path d="M0 0 C0 0.66 0 1.32 0 2 C-3.91275927 3.03622938 -7.83070776 4.05128673 -11.75 5.0625 C-12.86117187 5.35705078 -13.97234375 5.65160156 -15.1171875 5.95507812 C-16.72207031 6.3659668 -16.72207031 6.3659668 -18.359375 6.78515625 C-19.34389648 7.04176025 -20.32841797 7.29836426 -21.34277344 7.56274414 C-23.98333592 7.99725787 -25.50203857 7.87325 -28 7 C-28.33 5.68 -28.66 4.36 -29 3 C-19.45075869 -1.45631261 -10.28381224 -1.09654482 0 0 Z " fill="#8CB032" transform="translate(568,377)"/>
<path d="M0 0 C-0.33 0.33 -0.66 0.66 -1 1 C-0.34 1.66 0.32 2.32 1 3 C-6.625 4 -6.625 4 -10 4 C-9.34 4.66 -8.68 5.32 -8 6 C-8.66 6 -9.32 6 -10 6 C-10 6.66 -10 7.32 -10 8 C-11.93558599 8.67220351 -13.87354372 9.33758077 -15.8125 10 C-16.89144531 10.37125 -17.97039062 10.7425 -19.08203125 11.125 C-22 12 -22 12 -25 12 C-25.33 10.02 -25.66 8.04 -26 6 C-22.42211911 4.79561349 -18.83698135 3.61447826 -15.25 2.4375 C-14.23421875 2.09525391 -13.2184375 1.75300781 -12.171875 1.40039062 C-11.1921875 1.08134766 -10.2125 0.76230469 -9.203125 0.43359375 C-8.30239258 0.13509521 -7.40166016 -0.16340332 -6.47363281 -0.47094727 C-3.88194396 -1.02524945 -2.47168427 -0.87013375 0 0 Z " fill="#3C9097" transform="translate(429,432)"/>
<path d="M0 0 C2.49361571 1.20381448 4.68143083 2.45428722 7 4 C6.52354792 8.28806873 5.34097516 10.26647487 2 13 C1.34 13 0.68 13 0 13 C-0.33 11.68 -0.66 10.36 -1 9 C-3.31 9 -5.62 9 -8 9 C-8 7.35 -8 5.7 -8 4 C-5.69 4 -3.38 4 -1 4 C-0.67 2.68 -0.34 1.36 0 0 Z " fill="#8C8D90" transform="translate(647,626)"/>
<path d="M0 0 C2.84383123 1.2748209 5.13754018 2.45137078 7 5 C7 6.9375 7 6.9375 6 9 C3.4375 11.25 3.4375 11.25 1 13 C0.34 11.68 -0.32 10.36 -1 9 C-3.31 9 -5.62 9 -8 9 C-8 7.35 -8 5.7 -8 4 C-5.69 4 -3.38 4 -1 4 C-0.67 2.68 -0.34 1.36 0 0 Z " fill="#A1A1A4" transform="translate(472,626)"/>
<path d="M0 0 C0.66 0.33 1.32 0.66 2 1 C2 1.99 2 2.98 2 4 C1.30962646 4.37286133 0.61925293 4.74572266 -0.09204102 5.12988281 C-3.24932888 6.83572359 -6.40591933 8.54285099 -9.5625 10.25 C-10.64853516 10.83652344 -11.73457031 11.42304688 -12.85351562 12.02734375 C-14.44389648 12.88779297 -14.44389648 12.88779297 -16.06640625 13.765625 C-17.09652832 14.31927734 -18.12665039 14.87292969 -19.18798828 15.44335938 C-21.52876132 16.73913719 -23.77112135 18.11301403 -26.02734375 19.546875 C-27.00832031 20.02640625 -27.98929688 20.5059375 -29 21 C-31.18579102 20.09082031 -31.18579102 20.09082031 -33 19 C-32.10692139 18.53102295 -31.21384277 18.0620459 -30.29370117 17.57885742 C-26.9753166 15.83442719 -23.66080854 14.08274102 -20.34741211 12.32885742 C-18.9138867 11.57134287 -17.47932301 10.81578975 -16.04370117 10.06225586 C-13.97818124 8.97766128 -11.91652035 7.88602552 -9.85546875 6.79296875 C-9.21473923 6.45847214 -8.5740097 6.12397552 -7.91386414 5.77934265 C-4.87106514 4.15705242 -2.24724132 2.64866241 0 0 Z " fill="#108941" transform="translate(661,356)"/>
<path d="M0 0 C-0.66 1.32 -1.32 2.64 -2 4 C-1.01 4.33 -0.02 4.66 1 5 C-3.97011673 6.99118241 -8.12333135 7.24845695 -13.375 7.125 C-14.47908203 7.11146484 -14.47908203 7.11146484 -15.60546875 7.09765625 C-17.4037888 7.07430144 -19.20193911 7.03843836 -21 7 C-21 6.34 -21 5.68 -21 5 C-18.25435036 3.96588523 -15.5045139 2.94748843 -12.75 1.9375 C-11.97269531 1.64294922 -11.19539063 1.34839844 -10.39453125 1.04492188 C-9.26337891 0.6340332 -9.26337891 0.6340332 -8.109375 0.21484375 C-7.41811523 -0.04176025 -6.72685547 -0.29836426 -6.01464844 -0.56274414 C-3.67968529 -1.06952056 -2.24624397 -0.74214139 0 0 Z " fill="#37858B" transform="translate(388,445)"/>
<path d="M0 0 C2.08745045 3.13117567 2.27653996 4.06946224 2.4140625 7.66796875 C2.45273437 8.56064453 2.49140625 9.45332031 2.53125 10.37304688 C2.5621875 11.30181641 2.593125 12.23058594 2.625 13.1875 C2.66367187 14.12787109 2.70234375 15.06824219 2.7421875 16.03710938 C2.83643187 18.3578771 2.92204025 20.67863748 3 23 C1.02 23 -0.96 23 -3 23 C-2.88535985 20.29087219 -2.75862846 17.58320339 -2.625 14.875 C-2.5940625 14.11445313 -2.563125 13.35390625 -2.53125 12.5703125 C-2.297631 8.05367842 -1.67345883 4.25847653 0 0 Z " fill="#15A44D" transform="translate(673,354)"/>
<path d="M0 0 C-3.94432408 4.72298806 -10.37419314 5.83650131 -16 7.75 C-17.80210937 8.38615234 -17.80210937 8.38615234 -19.640625 9.03515625 C-21.36539063 9.62876953 -21.36539063 9.62876953 -23.125 10.234375 C-24.17945313 10.59756836 -25.23390625 10.96076172 -26.3203125 11.33496094 C-29 12 -29 12 -32 11 C-32.33 10.34 -32.66 9.68 -33 9 C-29.10698271 7.70881402 -25.21089628 6.42740074 -21.31176758 5.15478516 C-19.98700451 4.72090867 -18.66309522 4.28441594 -17.34008789 3.84521484 C-15.4334444 3.21277424 -13.52339014 2.59064592 -11.61328125 1.96875 C-10.46641846 1.59169922 -9.31955566 1.21464844 -8.13793945 0.82617188 C-5.25060151 0.06597958 -2.96269216 -0.17470421 0 0 Z " fill="#108B42" transform="translate(631,366)"/>
<path d="M0 0 C-0.5625 1.875 -0.5625 1.875 -2 4 C-7.36843256 6.02685719 -11.77593235 6.14298423 -17.4375 5.625 C-18.16904297 5.56828125 -18.90058594 5.5115625 -19.65429688 5.453125 C-21.43711286 5.3132963 -23.21872382 5.15824062 -25 5 C-24.67 4.34 -24.34 3.68 -24 3 C-22.11401367 2.38989258 -22.11401367 2.38989258 -19.66796875 1.89453125 C-18.78689453 1.71599609 -17.90582031 1.53746094 -16.99804688 1.35351562 C-16.07056641 1.17498047 -15.14308594 0.99644531 -14.1875 0.8125 C-13.27162109 0.62236328 -12.35574219 0.43222656 -11.41210938 0.23632812 C-10.52716797 0.06166016 -9.64222656 -0.11300781 -8.73046875 -0.29296875 C-7.51460083 -0.53309692 -7.51460083 -0.53309692 -6.27416992 -0.77807617 C-3.90333391 -1.00943312 -2.25460447 -0.71988445 0 0 Z " fill="#108941" transform="translate(582,372)"/>
<path d="M0 0 C0.33 0.99 0.66 1.98 1 3 C-0.62256691 5.55271974 -2.25312257 7.83110884 -4.125 10.1875 C-4.61226562 10.84169922 -5.09953125 11.49589844 -5.6015625 12.16992188 C-9.30855168 16.89731898 -9.30855168 16.89731898 -12.8671875 17.42578125 C-13.57101562 17.28527344 -14.27484375 17.14476562 -15 17 C-13.33219831 13.10846271 -10.75318094 10.03122222 -8.0625 6.8125 C-7.61970703 6.26658203 -7.17691406 5.72066406 -6.72070312 5.15820312 C-4.52770093 2.52071763 -3.31698962 1.10566321 0 0 Z " fill="#97BF36" transform="translate(633,400)"/>
<path d="M0 0 C0 0.66 0 1.32 0 2 C-7.50216736 5.0517291 -13.94635715 5.33608711 -22 5 C-19.28256973 2.28256973 -16.13057954 1.49067114 -12.5625 0.3125 C-11.88123047 0.07466797 -11.19996094 -0.16316406 -10.49804688 -0.40820312 C-6.14543444 -1.86191599 -4.13899067 -2.06949533 0 0 Z M-6 0 C-6 0.66 -6 1.32 -6 2 C-5.34 2 -4.68 2 -4 2 C-4 1.34 -4 0.68 -4 0 C-4.66 0 -5.32 0 -6 0 Z " fill="#9DC639" transform="translate(495,412)"/>
<path d="M0 0 C13.53 0 27.06 0 41 0 C37.55725619 1.7213719 34.75574737 2.70285249 31.0625 3.625 C30.04285156 3.88539063 29.02320313 4.14578125 27.97265625 4.4140625 C25.21832521 4.95696612 22.79607237 5.1132847 20 5 C22 4 24 3 26 2 C13.13 1.505 13.13 1.505 0 1 C0 0.67 0 0.34 0 0 Z " fill="#48998F" transform="translate(367,417)"/>
<path d="M0 0 C-0.99 0.495 -0.99 0.495 -2 1 C-2 1.66 -2 2.32 -2 3 C-4.93253346 4.03551045 -7.87166938 5.05081838 -10.8125 6.0625 C-11.64587891 6.35705078 -12.47925781 6.65160156 -13.33789062 6.95507812 C-14.54155273 7.3659668 -14.54155273 7.3659668 -15.76953125 7.78515625 C-16.50792236 8.04176025 -17.24631348 8.29836426 -18.00708008 8.56274414 C-20 9 -20 9 -23 8 C-19.72997505 4.72997505 -16.50001174 3.33962663 -12.1875 1.875 C-11.17042969 1.52179688 -10.15335938 1.16859375 -9.10546875 0.8046875 C-5.93558781 -0.01669046 -3.25887188 -0.14613775 0 0 Z " fill="#80AA32" transform="translate(601,376)"/>
<path d="M0 0 C0.33 0.66 0.66 1.32 1 2 C0.01 2.495 0.01 2.495 -1 3 C-0.34 3.66 0.32 4.32 1 5 C-1.45546966 5.86329773 -3.91378043 6.71589436 -6.375 7.5625 C-7.42300781 7.9327832 -7.42300781 7.9327832 -8.4921875 8.31054688 C-10.30959075 8.93091049 -12.15391397 9.47106524 -14 10 C-14.66 9.67 -15.32 9.34 -16 9 C-15.34 8.34 -14.68 7.68 -14 7 C-14.33 6.34 -14.66 5.68 -15 5 C-10.05 3.35 -5.1 1.7 0 0 Z " fill="#7C9D2C" transform="translate(539,394)"/>
<path d="M0 0 C3.26492274 3.91640962 6.03134392 8.01312695 8.75 12.3125 C9.16121094 12.95767578 9.57242188 13.60285156 9.99609375 14.26757812 C10.99996311 15.84341957 12.00034356 17.42148267 13 19 C12.01 19.66 11.02 20.32 10 21 C8.12914904 18.0728152 6.28131993 15.13177275 4.4375 12.1875 C3.90447266 11.35412109 3.37144531 10.52074219 2.82226562 9.66210938 C2.32275391 8.85966797 1.82324219 8.05722656 1.30859375 7.23046875 C0.60947876 6.12288208 0.60947876 6.12288208 -0.10375977 4.99291992 C-1 3 -1 3 0 0 Z " fill="#138C41" transform="translate(677,357)"/>
<path d="M0 0 C4.29 0.33 8.58 0.66 13 1 C8.45571454 4.02952364 3.460662 6.25108796 -2.0625 5.6875 C-2.701875 5.460625 -3.34125 5.23375 -4 5 C-3.67 4.34 -3.34 3.68 -3 3 C-2.34 3 -1.68 3 -1 3 C-0.67 2.01 -0.34 1.02 0 0 Z " fill="#3B8688" transform="translate(471,416)"/>
<path d="M0 0 C0 0.99 0 1.98 0 3 C-0.66 3 -1.32 3 -2 3 C-2 3.66 -2 4.32 -2 5 C-6.455 5.495 -6.455 5.495 -11 6 C-11 4.68 -11 3.36 -11 2 C-9.54494642 1.47007308 -8.08581873 0.9513211 -6.625 0.4375 C-5.81289063 0.14746094 -5.00078125 -0.14257812 -4.1640625 -0.44140625 C-2 -1 -2 -1 0 0 Z " fill="#43A0A8" transform="translate(397,443)"/>
<path d="M0 0 C-0.33 0.33 -0.66 0.66 -1 1 C-0.34 1.66 0.32 2.32 1 3 C-6.625 4 -6.625 4 -10 4 C-9.34 4.66 -8.68 5.32 -8 6 C-9.98 6.33 -11.96 6.66 -14 7 C-14.33 6.01 -14.66 5.02 -15 4 C-13.730447 3.35165346 -12.45930294 2.70642185 -11.1875 2.0625 C-10.47980469 1.70285156 -9.77210938 1.34320313 -9.04296875 0.97265625 C-5.54717095 -0.69169108 -3.67208522 -1.13961265 0 0 Z " fill="#43A0A7" transform="translate(429,432)"/>
<path d="M0 0 C0.66 0.33 1.32 0.66 2 1 C2 1.99 2 2.98 2 4 C-0.0978523 5.20005531 -2.2020249 6.38502983 -4.3125 7.5625 C-4.90740234 7.90474609 -5.50230469 8.24699219 -6.11523438 8.59960938 C-7.70282559 9.47766262 -9.34993931 10.24586268 -11 11 C-11.99 10.67 -12.98 10.34 -14 10 C-11.2332146 7.65242451 -8.47623477 5.63557207 -5.3125 3.875 C-2.03833934 2.21636933 -2.03833934 2.21636933 0 0 Z " fill="#0D7638" transform="translate(661,356)"/>
<path d="M0 0 C0.66 0.99 1.32 1.98 2 3 C0.06643218 3.69848264 -1.87202298 4.38344814 -3.8125 5.0625 C-4.89144531 5.44535156 -5.97039063 5.82820313 -7.08203125 6.22265625 C-10 7 -10 7 -13 6 C-13 5.01 -13 4.02 -13 3 C-8.84616096 1.69683481 -5.34853087 0.87210203 -1 1 C-0.67 0.67 -0.34 0.34 0 0 Z " fill="#0B6730" transform="translate(656,356)"/>
<path d="M0 0 C0 0.66 0 1.32 0 2 C-0.99 2 -1.98 2 -3 2 C-3 2.66 -3 3.32 -3 4 C-9.93 3.505 -9.93 3.505 -17 3 C-16.67 2.34 -16.34 1.68 -16 1 C-10.74469407 -0.34751434 -5.38420602 -0.09576651 0 0 Z " fill="#26A046" transform="translate(574,374)"/>
<path d="M0 0 C-1.32 0.33 -2.64 0.66 -4 1 C-4 1.66 -4 2.32 -4 3 C-1.69 3.33 0.62 3.66 3 4 C-0.03525486 6.02350324 -1.19426202 6.32124018 -4.6875 6.625 C-5.49574219 6.69976562 -6.30398438 6.77453125 -7.13671875 6.8515625 C-8.05904297 6.92503906 -8.05904297 6.92503906 -9 7 C-9.33 5.35 -9.66 3.7 -10 2 C-6.49223216 0.39644899 -3.85645121 -0.22036864 0 0 Z " fill="#7D9E2C" transform="translate(549,378)"/>
<path d="M0 0 C6.0546875 -0.1953125 6.0546875 -0.1953125 8 0 C8.66 0.66 9.32 1.32 10 2 C9.34 2 8.68 2 8 2 C8 2.66 8 3.32 8 4 C6.54364629 4.22174933 5.08477044 4.42698698 3.625 4.625 C2.81289063 4.74101562 2.00078125 4.85703125 1.1640625 4.9765625 C0.44992187 4.98429687 -0.26421875 4.99203125 -1 5 C-1.66 4.34 -2.32 3.68 -3 3 C-2.34 3 -1.68 3 -1 3 C-0.67 2.01 -0.34 1.02 0 0 Z " fill="#43A0A7" transform="translate(452,422)"/>
<path d="M0 0 C0 1.32 0 2.64 0 4 C-2.97 3.67 -5.94 3.34 -9 3 C-9.33 3.66 -9.66 4.32 -10 5 C-12.28515625 5.4140625 -12.28515625 5.4140625 -15.0625 5.625 C-15.98160156 5.69976562 -16.90070312 5.77453125 -17.84765625 5.8515625 C-18.91306641 5.92503906 -18.91306641 5.92503906 -20 6 C-20 5.34 -20 4.68 -20 4 C-17.04222581 3.33076624 -14.08383702 2.66450361 -11.125 2 C-10.28324219 1.80921875 -9.44148437 1.6184375 -8.57421875 1.421875 C-7.76855469 1.24140625 -6.96289062 1.0609375 -6.1328125 0.875 C-5.38918457 0.70742188 -4.64555664 0.53984375 -3.87939453 0.3671875 C-2 0 -2 0 0 0 Z " fill="#119546" transform="translate(659,354)"/>
<path d="M0 0 C0.66 1.32 1.32 2.64 2 4 C-2.95 6.475 -2.95 6.475 -8 9 C-8 8.34 -8 7.68 -8 7 C-8.99 6.67 -9.98 6.34 -11 6 C-7.37 4.02 -3.74 2.04 0 0 Z " fill="#87AA30" transform="translate(595,393)"/>
<path d="M0 0 C0.66 0 1.32 0 2 0 C1.38722388 2.96175123 0.74627478 4.38058783 -1 7 C-4.125 7.1875 -4.125 7.1875 -7 7 C-6.8125 5.125 -6.8125 5.125 -6 3 C-3.5 1.8125 -3.5 1.8125 -1 1 C-0.67 0.67 -0.34 0.34 0 0 Z " fill="#3B8D94" transform="translate(596,445)"/>
<path d="M0 0 C0.33 0.99 0.66 1.98 1 3 C2.98 3 4.96 3 7 3 C4.39457984 4.73694677 2.41657225 5.69100448 -0.5 6.6875 C-1.2734375 6.95949219 -2.046875 7.23148437 -2.84375 7.51171875 C-5 8 -5 8 -8 7 C-6.68 6.67 -5.36 6.34 -4 6 C-3.67 4.35 -3.34 2.7 -3 1 C-2.01 0.67 -1.02 0.34 0 0 Z " fill="#39878E" transform="translate(450,423)"/>
<path d="M0 0 C-0.99 0.33 -1.98 0.66 -3 1 C-3 1.66 -3 2.32 -3 3 C-6.3 3 -9.6 3 -13 3 C-12.34 2.67 -11.68 2.34 -11 2 C-11 1.34 -11 0.68 -11 0 C-7.18243176 -1.37432457 -3.92744671 -0.67975039 0 0 Z " fill="#A3CD3A" transform="translate(556,379)"/>
<path d="M0 0 C0.33 0.66 0.66 1.32 1 2 C-0.43344 2.53190541 -1.87195367 3.05015258 -3.3125 3.5625 C-4.51326172 3.99755859 -4.51326172 3.99755859 -5.73828125 4.44140625 C-8 5 -8 5 -11 4 C-11.33 3.34 -11.66 2.68 -12 2 C-10.56656 1.46809459 -9.12804633 0.94984742 -7.6875 0.4375 C-6.48673828 0.00244141 -6.48673828 0.00244141 -5.26171875 -0.44140625 C-3 -1 -3 -1 0 0 Z " fill="#137F3B" transform="translate(610,373)"/>
<path d="M0 0 C2.40072955 2.88087546 4.47291037 5.56404834 6 9 C4.68 9.33 3.36 9.66 2 10 C0.68 8.02 -0.64 6.04 -2 4 C-1.34 2.68 -0.68 1.36 0 0 Z " fill="#8BAF31" transform="translate(701,395)"/>
<path d="M0 0 C-0.495 0.474375 -0.99 0.94875 -1.5 1.4375 C-3.11542197 2.75923698 -3.11542197 2.75923698 -3 4 C-6.63 4 -10.26 4 -14 4 C-14 3.34 -14 2.68 -14 2 C-4.58997722 -0.29612756 -4.58997722 -0.29612756 0 0 Z " fill="#3A8A91" transform="translate(223,447)"/>
<path d="M0 0 C-0.625 1.875 -0.625 1.875 -2 4 C-5.125 5.25 -5.125 5.25 -8 6 C-8 4.35 -8 2.7 -8 1 C-5.07175348 0.02391783 -3.04386724 -0.08226668 0 0 Z " fill="#419CA4" transform="translate(448,425)"/>
<path d="M0 0 C0.99 0.33 1.98 0.66 3 1 C3 1.99 3 2.98 3 4 C0.04335481 5.4783226 -2.74229737 5.06032783 -6 5 C-2.25 1.125 -2.25 1.125 0 0 Z " fill="#94BB35" transform="translate(560,412)"/>
<path d="M0 0 C0 0.66 0 1.32 0 2 C-2.64 2.66 -5.28 3.32 -8 4 C-8 3.34 -8 2.68 -8 2 C-8.99 1.34 -9.98 0.68 -11 0 C-6.42393097 -1.72873719 -4.45846882 -2.22923441 0 0 Z M-6 0 C-6 0.66 -6 1.32 -6 2 C-5.34 2 -4.68 2 -4 2 C-4 1.34 -4 0.68 -4 0 C-4.66 0 -5.32 0 -6 0 Z " fill="#7D9E2C" transform="translate(495,412)"/>
<path d="M0 0 C0.33 0.66 0.66 1.32 1 2 C-2.44450737 4.29633824 -4.93812283 4.54016485 -9 5 C-6.81610567 0.16423399 -5.20641855 -0.13701101 0 0 Z " fill="#9EC738" transform="translate(525,400)"/>
<path d="M0 0 C0.99 0.33 1.98 0.66 3 1 C4.39439664 1.06665376 5.79169875 1.08538199 7.1875 1.0625 C8.445625 1.041875 9.70375 1.02125 11 1 C8.14521674 2.90318884 6.58058692 3.4619099 3.3125 4.125 C2.50425781 4.29257812 1.69601562 4.46015625 0.86328125 4.6328125 C0.24839844 4.75398438 -0.36648438 4.87515625 -1 5 C-1.33 4.01 -1.66 3.02 -2 2 C-1.34 1.34 -0.68 0.68 0 0 Z " fill="#347D83" transform="translate(420,434)"/>
<path d="M0 0 C1.65 0.99 3.3 1.98 5 3 C4.67 4.65 4.34 6.3 4 8 C1 7 1 7 -0.25 4.5625 C-1 2 -1 2 0 0 Z " fill="#429EA6" transform="translate(719,427)"/>
<path d="M0 0 C0.66 0 1.32 0 2 0 C2.33 0.99 2.66 1.98 3 3 C0.03 5.475 0.03 5.475 -3 8 C-3.66 7.67 -4.32 7.34 -5 7 C-4.67 5.68 -4.34 4.36 -4 3 C-2.68 2.67 -1.36 2.34 0 2 C0 1.34 0 0.68 0 0 Z " fill="#429DA4" transform="translate(522,433)"/>
<path d="M0 0 C3.29148243 1.13499394 3.9959869 1.99283376 5.75 5.125 C6.1625 6.07375 6.575 7.0225 7 8 C6.34 8 5.68 8 5 8 C4.67 8.66 4.34 9.32 4 10 C0 3.375 0 3.375 0 0 Z " fill="#8CB032" transform="translate(688,377)"/>
<path d="M0 0 C0.66 0.33 1.32 0.66 2 1 C0.68775452 4.93673644 -0.91910327 7.22719294 -4 10 C-4.8125 8.375 -4.8125 8.375 -5 6 C-3.53181864 3.75390165 -1.84147142 1.97621323 0 0 Z " fill="#89AC30" transform="translate(651,376)"/>
<path d="M0 0 C4.37859255 0.50522222 6.81651224 3.17827222 10 6 C8.25 6.6875 8.25 6.6875 6 7 C2.8201238 5.22301036 1.3809002 3.33717549 0 0 Z " fill="#12A04C" transform="translate(675,354)"/>
<path d="M0 0 C2.31 0 4.62 0 7 0 C7 0.66 7 1.32 7 2 C6.34 2 5.68 2 5 2 C5 2.66 5 3.32 5 4 C2.69 3.67 0.38 3.34 -2 3 C-1.34 2.67 -0.68 2.34 0 2 C0 1.34 0 0.68 0 0 Z M-4 3 C-3.34 3 -2.68 3 -2 3 C-2 3.66 -2 4.32 -2 5 C-2.66 5 -3.32 5 -4 5 C-4 4.34 -4 3.68 -4 3 Z " fill="#9FC839" transform="translate(493,409)"/>
<path d="M0 0 C0 0.66 0 1.32 0 2 C-4.455 2.495 -4.455 2.495 -9 3 C-9.33 2.34 -9.66 1.68 -10 1 C-3.375 -1.125 -3.375 -1.125 0 0 Z " fill="#99C136" transform="translate(513,406)"/>
<path d="M0 0 C0.33 0.99 0.66 1.98 1 3 C-0.65 4.65 -2.3 6.3 -4 8 C-4 7.34 -4 6.68 -4 6 C-4.66 5.67 -5.32 5.34 -6 5 C-3.375 1.125 -3.375 1.125 0 0 Z " fill="#9CC538" transform="translate(633,400)"/>
<path d="M0 0 C0.33 0.66 0.66 1.32 1 2 C1.99 2.33 2.98 2.66 4 3 C2.56656 3.53190541 1.12804633 4.05015258 -0.3125 4.5625 C-1.51326172 4.99755859 -1.51326172 4.99755859 -2.73828125 5.44140625 C-5 6 -5 6 -8 5 C-5.49187986 2.49187986 -3.37065593 1.12355198 0 0 Z " fill="#6E8A27" transform="translate(586,379)"/>
<path d="M0 0 C2.625 -0.1875 2.625 -0.1875 5 0 C4.6875 1.9375 4.6875 1.9375 4 4 C3.01 4.33 2.02 4.66 1 5 C0.01 4.34 -0.98 3.68 -2 3 C-1.34 2.01 -0.68 1.02 0 0 Z " fill="#429EA6" transform="translate(541,422)"/>
<path d="M0 0 C2.97 0 5.94 0 9 0 C9 0.66 9 1.32 9 2 C5.52674819 3.1577506 2.63932552 3.06866652 -1 3 C-0.67 2.01 -0.34 1.02 0 0 Z " fill="#119B49" transform="translate(616,363)"/>
<path d="M0 0 C3.68754757 0.49831724 5.60490662 1.10067643 8 4 C7.67 4.99 7.34 5.98 7 7 C5.83040013 6.02433888 4.66438823 5.044375 3.5 4.0625 C2.8503125 3.51722656 2.200625 2.97195313 1.53125 2.41015625 C1.0259375 1.94480469 0.520625 1.47945313 0 1 C0 0.67 0 0.34 0 0 Z " fill="#108E43" transform="translate(682,361)"/>
<path d="M0 0 C0.99 0 1.98 0 3 0 C3.66 1.65 4.32 3.3 5 5 C2.03 5.66 -0.94 6.32 -4 7 C-3.34 6.67 -2.68 6.34 -2 6 C-2 5.34 -2 4.68 -2 4 C-1.01 3.34 -0.02 2.68 1 2 C0.67 1.34 0.34 0.68 0 0 Z " fill="#37848A" transform="translate(437,427)"/>
<path d="M0 0 C-1.125 1.5 -1.125 1.5 -3 3 C-6.1875 3.1875 -6.1875 3.1875 -9 3 C-8.67 2.01 -8.34 1.02 -8 0 C-5.13822943 -1.43088528 -3.06624227 -0.59991697 0 0 Z " fill="#449C9E" transform="translate(559,417)"/>
<path d="M0 0 C2.64 0 5.28 0 8 0 C8 0.99 8 1.98 8 3 C5.36 3 2.72 3 0 3 C0 2.01 0 1.02 0 0 Z " fill="#ABACAF" transform="translate(639,631)"/>
<path d="M0 0 C3.875 1.75 3.875 1.75 5 4 C0.59085217 5.10228696 -3.48382401 5.07654536 -8 5 C-8 4.67 -8 4.34 -8 4 C-5.69 4 -3.38 4 -1 4 C-0.67 2.68 -0.34 1.36 0 0 Z " fill="#6D6E70" transform="translate(472,626)"/>
<path d="M0 0 C2 1.8125 2 1.8125 4 4 C4 4.99 4 5.98 4 7 C2.35 6.67 0.7 6.34 -1 6 C-1.33 5.01 -1.66 4.02 -2 3 C-1.34 2.67 -0.68 2.34 0 2 C0 1.34 0 0.68 0 0 Z " fill="#8DB131" transform="translate(710,410)"/>
<path d="M0 0 C0.99 1.32 1.98 2.64 3 4 C1.02 4.33 -0.96 4.66 -3 5 C-3 4.34 -3 3.68 -3 3 C-4.65 3 -6.3 3 -8 3 C-5.36095629 1.58622659 -2.92879371 0.62759865 0 0 Z " fill="#0E7839" transform="translate(615,363)"/>
<path d="M0 0 C0 0.66 0 1.32 0 2 C-4.1196377 3.29243536 -7.66831683 4.26252625 -12 4 C-11.1028125 3.566875 -11.1028125 3.566875 -10.1875 3.125 C-3.7201087 -0.20108696 -3.7201087 -0.20108696 0 0 Z " fill="#337C84" transform="translate(399,418)"/>
<path d="M0 0 C1.65 0 3.3 0 5 0 C5 0.66 5 1.32 5 2 C4.01 2 3.02 2 2 2 C2 2.66 2 3.32 2 4 C0.125 4.625 0.125 4.625 -2 5 C-2.66 4.34 -3.32 3.68 -4 3 C-3.01 3 -2.02 3 -1 3 C-0.67 2.01 -0.34 1.02 0 0 Z " fill="#12A44E" transform="translate(582,371)"/>
<path d="M0 0 C2 1 2 1 4 4 C1.625 5.5625 1.625 5.5625 -1 7 C-1.66 6.67 -2.32 6.34 -3 6 C-2.34 5.34 -1.68 4.68 -1 4 C-1.33 3.01 -1.66 2.02 -2 1 C-1.34 0.67 -0.68 0.34 0 0 Z " fill="#3A8B91" transform="translate(525,431)"/>
<path d="M0 0 C0.86625 0.556875 0.86625 0.556875 1.75 1.125 C1.75 1.785 1.75 2.445 1.75 3.125 C0 3.8125 0 3.8125 -2.25 4.125 C-4.5 2.6875 -4.5 2.6875 -6.25 1.125 C-2.80384615 -1.09038462 -2.80384615 -1.09038462 0 0 Z " fill="#39878E" transform="translate(540.25,424.875)"/>
<path d="M0 0 C-1.32 0.33 -2.64 0.66 -4 1 C-4 1.66 -4 2.32 -4 3 C-6.31 3 -8.62 3 -11 3 C-7.68381684 -0.31618316 -4.50821267 -1.6697084 0 0 Z " fill="#8DB131" transform="translate(484,414)"/>
<path d="M0 0 C1.32 0.33 2.64 0.66 4 1 C3.67 1.99 3.34 2.98 3 4 C1.35 4 -0.3 4 -2 4 C-1.34 2.68 -0.68 1.36 0 0 Z " fill="#8EB332" transform="translate(620,413)"/>
<path d="M0 0 C2.64 0 5.28 0 8 0 C8 0.66 8 1.32 8 2 C5.69 2.33 3.38 2.66 1 3 C0.67 2.01 0.34 1.02 0 0 Z " fill="#2F7277" transform="translate(335,617)"/>
<path d="M0 0 C0.66 0.99 1.32 1.98 2 3 C1 4 1 4 -2.5625 4.0625 C-3.696875 4.041875 -4.83125 4.02125 -6 4 C-4.03617993 2.49440461 -2.21736634 1.10868317 0 0 Z " fill="#46A7AF" transform="translate(498,447)"/>
<path d="M0 0 C0.66 1.32 1.32 2.64 2 4 C0.35 4.66 -1.3 5.32 -3 6 C-3 5.34 -3 4.68 -3 4 C-3.66 3.67 -4.32 3.34 -5 3 C-3.35 2.01 -1.7 1.02 0 0 Z " fill="#7FA12D" transform="translate(595,393)"/>
<path d="M0 0 C2.31 0.33 4.62 0.66 7 1 C3.81237635 3.12508244 1.73487777 3.5020163 -2 4 C-1.34 2.68 -0.68 1.36 0 0 Z " fill="#13AC52" transform="translate(592,368)"/>
<path d="M0 0 C0 0.66 0 1.32 0 2 C0.66 2.33 1.32 2.66 2 3 C0.35 3.33 -1.3 3.66 -3 4 C-3 3.34 -3 2.68 -3 2 C-4.32 1.67 -5.64 1.34 -7 1 C-4.50935112 0.31292445 -2.62113708 0 0 0 Z " fill="#0D7738" transform="translate(628,361)"/>
</svg>
