<?xml version="1.0" encoding="UTF-8"?>
<svg version="1.1" xmlns="http://www.w3.org/2000/svg" width="200" height="200">
<path d="M0 0 C66 0 132 0 200 0 C200 66 200 132 200 200 C134 200 68 200 0 200 C0 134 0 68 0 0 Z " fill="#FEFEFE" transform="translate(0,0)"/>
<path d="M0 0 C7.42225806 6.10243015 12.98729468 14.03048454 14.1015625 23.71875 C14.27947298 32.82358019 13.02932694 40.97338307 7.28515625 48.34765625 C5.91796875 49.7421875 5.91796875 49.7421875 3.73046875 51.4921875 C4.54128906 51.69972656 5.35210937 51.90726563 6.1875 52.12109375 C17.6860594 55.32034369 27.9473874 60.2999012 34.73046875 70.4921875 C40.55690754 81.55331739 42.61802325 91.83755131 39.60546875 104.2421875 C36.4037979 114.33634422 30.42498515 123.14066612 21.05523682 128.43959045 C16.01740844 131.03148223 10.98439077 132.82818959 5.55078125 134.40234375 C4.69797577 134.65592148 3.84517029 134.90949921 2.96652222 135.17076111 C0.26484702 135.97239387 -2.43970917 136.76374588 -5.14453125 137.5546875 C-6.95072425 138.08850491 -8.75671575 138.62300463 -10.5625 139.15820312 C-14.67154515 140.3749583 -18.78103733 141.58996672 -22.8973999 142.7817688 C-24.5749285 143.28416412 -26.24387204 143.81565565 -27.90582275 144.36740112 C-28.77753113 144.65148834 -29.6492395 144.93557556 -30.54736328 145.22827148 C-31.72469528 145.6257383 -31.72469528 145.6257383 -32.92581177 146.03123474 C-35.7007392 146.57699564 -37.56476123 146.26976563 -40.26953125 145.4921875 C-44.91824753 142.23744593 -45.79332109 137.53145945 -47.23046875 132.32421875 C-47.63115318 130.93392708 -47.63115318 130.93392708 -48.03993225 129.51554871 C-48.92055439 126.44866141 -49.78249046 123.3768444 -50.64453125 120.3046875 C-51.25799536 118.15525593 -51.87267922 116.00617216 -52.48852539 113.85742188 C-53.77557271 109.35833476 -55.05483032 104.85714034 -56.32763672 100.35400391 C-58.22280611 93.64998634 -60.13624231 86.95129522 -62.0546875 80.25390625 C-63.83570663 74.03469764 -65.61626629 67.81538299 -67.38623047 61.59301758 C-67.65693359 60.64211746 -67.92763672 59.69121735 -68.20654297 58.71150208 C-68.74143703 56.83109078 -69.27530899 54.95038841 -69.80810547 53.06938171 C-71.24244832 48.02273276 -72.7154519 42.9904941 -74.23486328 37.96875 C-74.5593898 36.88674316 -74.88391632 35.80473633 -75.21827698 34.68994141 C-75.8423341 32.61426087 -76.4740073 30.54084922 -77.11460876 28.47021484 C-80.09774974 18.5086881 -80.09774974 18.5086881 -79.26953125 13.4921875 C-75.47608045 8.99126696 -69.94031952 7.87764581 -64.47265625 6.328125 C-63.52445007 6.04997955 -62.5762439 5.77183411 -61.5993042 5.48526001 C-58.5757663 4.60165782 -55.54774951 3.73459566 -52.51953125 2.8671875 C-50.49840483 2.2770445 -48.47756804 1.68590861 -46.45703125 1.09375 C-44.50416897 0.5251386 -42.55105175 -0.04259812 -40.59765625 -0.609375 C-39.6973468 -0.87086334 -38.79703735 -1.13235168 -37.8694458 -1.40176392 C-24.39833411 -5.25569947 -12.55989107 -8.34443709 0 0 Z " fill="#7E3486" transform="translate(119.26953125,29.5078125)"/>
<path d="M0 0 C7.42225806 6.10243015 12.98729468 14.03048454 14.1015625 23.71875 C14.27947298 32.82358019 13.02932694 40.97338307 7.28515625 48.34765625 C5.91796875 49.7421875 5.91796875 49.7421875 3.73046875 51.4921875 C4.54128906 51.69972656 5.35210937 51.90726563 6.1875 52.12109375 C17.6860594 55.32034369 27.9473874 60.2999012 34.73046875 70.4921875 C40.55690754 81.55331739 42.61802325 91.83755131 39.60546875 104.2421875 C36.0242197 115.53306992 29.0538035 124.32256916 18.54296875 129.9296875 C15.3305008 131.39107072 12.25872321 132.13936205 8.73046875 132.4921875 C8.73046875 131.8321875 8.73046875 131.1721875 8.73046875 130.4921875 C10.38046875 129.8321875 12.03046875 129.1721875 13.73046875 128.4921875 C13.73046875 127.8321875 13.73046875 127.1721875 13.73046875 126.4921875 C15.05659114 125.15168201 16.39120167 123.81956056 17.73046875 122.4921875 C18.84877825 120.90507846 19.91184339 119.27768231 20.91796875 117.6171875 C21.42714844 116.79476562 21.93632812 115.97234375 22.4609375 115.125 C26.18643223 107.39889708 25.88493621 95.80551966 24.08203125 87.5078125 C20.62064779 77.98161186 13.56893846 71.21366208 4.73046875 66.4921875 C2.56526258 65.8258523 2.56526258 65.8258523 0.73046875 65.4921875 C0.73046875 64.8321875 0.73046875 64.1721875 0.73046875 63.4921875 C-2.56953125 63.1621875 -5.86953125 62.8321875 -9.26953125 62.4921875 C-8.77453125 60.5121875 -8.77453125 60.5121875 -8.26953125 58.4921875 C-7.60953125 58.4921875 -6.94953125 58.4921875 -6.26953125 58.4921875 C-6.00140625 57.6671875 -5.73328125 56.8421875 -5.45703125 55.9921875 C-4.26953125 52.4921875 -4.26953125 52.4921875 -2.64453125 48.8671875 C0.45887447 40.51186439 -0.75512139 32.0526577 -4.06640625 23.97265625 C-6.79556393 18.34598375 -9.66745732 14.53331335 -15.26953125 11.4921875 C-15.26953125 10.8321875 -15.26953125 10.1721875 -15.26953125 9.4921875 C-33.25354407 3.95864509 -51.07083315 10.99358488 -68.33496094 16.20532227 C-69.32141602 16.50108154 -70.30787109 16.79684082 -71.32421875 17.1015625 C-72.64655518 17.5032666 -72.64655518 17.5032666 -73.99560547 17.91308594 C-76.26953125 18.4921875 -76.26953125 18.4921875 -79.26953125 18.4921875 C-79.58203125 16.2421875 -79.58203125 16.2421875 -79.26953125 13.4921875 C-75.07099495 9.14639071 -70.11187163 7.92626321 -64.47265625 6.328125 C-63.52445007 6.04997955 -62.5762439 5.77183411 -61.5993042 5.48526001 C-58.5757663 4.60165782 -55.54774951 3.73459566 -52.51953125 2.8671875 C-50.49840483 2.2770445 -48.47756804 1.68590861 -46.45703125 1.09375 C-44.50416897 0.5251386 -42.55105175 -0.04259812 -40.59765625 -0.609375 C-39.6973468 -0.87086334 -38.79703735 -1.13235168 -37.8694458 -1.40176392 C-24.39833411 -5.25569947 -12.55989107 -8.34443709 0 0 Z " fill="#4C225B" transform="translate(119.26953125,29.5078125)"/>
<path d="M0 0 C2.63296711 2.63296711 2.96656028 4.9125922 3.9375 8.5 C4.28167969 9.75039062 4.62585938 11.00078125 4.98046875 12.2890625 C5.31691406 13.51367188 5.65335937 14.73828125 6 16 C6.98184806 19.33911197 7.99062738 22.66907037 9 26 C13.95 25.67 18.9 25.34 24 25 C24 25.66 24 26.32 24 27 C14.17431193 30.78899083 14.17431193 30.78899083 10 29 C5.06144003 25.41829691 4.24037034 20.10409662 2.75 14.5 C2.481875 13.54996094 2.21375 12.59992188 1.9375 11.62109375 C0.81479502 7.54842414 0 4.25984649 0 0 Z " fill="#7A417B" transform="translate(69,146)"/>
<path d="M0 0 C0 0.66 0 1.32 0 2 C-9.41002278 5.62870159 -9.41002278 5.62870159 -14 4 C-14.33 3.01 -14.66 2.02 -15 1 C-9.9752761 0.37470103 -5.07471573 -0.13012092 0 0 Z " fill="#7F4684" transform="translate(93,171)"/>
<path d="M0 0 C0.66 1.32 1.32 2.64 2 4 C1.360625 4.598125 0.72125 5.19625 0.0625 5.8125 C-2.20310389 7.90810337 -2.20310389 7.90810337 -3 11 C-4.62332967 12.38576923 -6.28724465 13.72641268 -8 15 C-8.66 14.67 -9.32 14.34 -10 14 C-9.52949219 13.49210938 -9.05898437 12.98421875 -8.57421875 12.4609375 C-4.98265595 8.49014136 -2.0977575 4.93590001 0 0 Z " fill="#ECDEEF" transform="translate(156,139)"/>
<path d="M0 0 C0.66 0.33 1.32 0.66 2 1 C1.67 1.66 1.34 2.32 1 3 C2.65 2.67 4.3 2.34 6 2 C3.6870518 4.3129482 2.52095125 4.49580975 -0.625 5.125 C-1.44226563 5.29257813 -2.25953125 5.46015625 -3.1015625 5.6328125 C-4.04128906 5.81457031 -4.04128906 5.81457031 -5 6 C-5 5.34 -5 4.68 -5 4 C-3.35 3.34 -1.7 2.68 0 2 C0 1.34 0 0.68 0 0 Z " fill="#552D60" transform="translate(133,156)"/>
<path d="M0 0 C-2.95070119 1.96713413 -4.53581611 2.65358161 -8 3 C-8.99 2.34 -9.98 1.68 -11 1 C-7.2297564 -1.56376565 -4.32597804 -0.83191885 0 0 Z " fill="#4E2E59" transform="translate(96,27)"/>
<path d="M0 0 C0.66 0.33 1.32 0.66 2 1 C1.45773019 4.79588866 -0.20127563 6.47211993 -3 9 C-4 6 -4 6 -3.1875 3.9375 C-2 2 -2 2 0 0 Z " fill="#442252" transform="translate(124,74)"/>
<path d="M0 0 C0 0.66 0 1.32 0 2 C-2.64 2.66 -5.28 3.32 -8 4 C-7.67 3.01 -7.34 2.02 -7 1 C-2.25 0 -2.25 0 0 0 Z " fill="#452352" transform="translate(142,155)"/>
<path d="M0 0 C0.99 0.33 1.98 0.66 3 1 C3 2.98 3 4.96 3 7 C2.34 7 1.68 7 1 7 C0.67 4.69 0.34 2.38 0 0 Z " fill="#783E7C" transform="translate(52,87)"/>
</svg>
