<?xml version="1.0" encoding="UTF-8"?>
<svg version="1.1" xmlns="http://www.w3.org/2000/svg" width="200" height="200">
<path d="M0 0 C66 0 132 0 200 0 C200 66 200 132 200 200 C134 200 68 200 0 200 C0 134 0 68 0 0 Z " fill="#FEFEFE" transform="translate(0,0)"/>
<path d="M0 0 C1.38857517 -0.01234733 2.77713671 -0.02632497 4.16567993 -0.04185486 C7.07286044 -0.06567616 9.97854958 -0.06274151 12.88574219 -0.04223633 C16.59874146 -0.01917296 20.30603058 -0.07316905 24.01816368 -0.14884281 C26.88567075 -0.196841 29.75182057 -0.19810797 32.61964798 -0.18618584 C33.98717802 -0.18705493 35.35479501 -0.20344118 36.72193527 -0.23610115 C47.33173159 -0.45668436 47.33173159 -0.45668436 51.24685669 3.09428406 C53.06254154 5.66023519 54.53479147 8.24468454 55.9765625 11.03515625 C56.79541172 12.27498164 57.63206926 13.50338638 58.49267578 14.71459961 C59.2615239 15.85087119 60.02958161 16.98767797 60.796875 18.125 C61.21849411 18.74829193 61.64011322 19.37158386 62.07450867 20.01376343 C63.41764335 21.99953276 64.75970715 23.98602225 66.1015625 25.97265625 C73.62912032 37.12157367 73.62912032 37.12157367 81.23828125 48.21484375 C81.84849121 49.09793213 82.45870117 49.98102051 83.08740234 50.89086914 C84.19443924 52.48916359 85.30524794 54.08485434 86.42041016 55.67749023 C89.9765625 60.81541818 89.9765625 60.81541818 89.9765625 63.03515625 C84.96607468 61.26377167 80.50315727 58.61251649 75.9140625 55.97265625 C75.01880859 55.46041504 74.12355469 54.94817383 73.20117188 54.42041016 C67.60456991 51.19488042 62.05914487 47.89178771 56.54296875 44.53125 C55.91494858 44.14865524 55.28692841 43.76606049 54.63987732 43.37187195 C51.52471505 41.47145254 48.41403634 39.56405704 45.30834961 37.64819336 C44.15608928 36.94124016 43.003827 36.23429014 41.8515625 35.52734375 C40.83835937 34.9019873 39.82515625 34.27663086 38.78125 33.63232422 C36.22454233 32.17637178 33.7347031 31.0460956 30.9765625 30.03515625 C30.64035889 30.53217041 30.30415527 31.02918457 29.95776367 31.54125977 C28.362799 33.89539621 26.7635605 36.24659768 25.1640625 38.59765625 C24.58325928 39.45504395 24.00245605 40.31243164 23.40405273 41.19580078 C20.56216231 45.36411293 17.68602243 49.47382164 14.59375 53.4609375 C13.81994995 54.4662854 13.81994995 54.4662854 13.03051758 55.49194336 C12.05359611 56.74839646 11.0616429 57.99333782 10.0534668 59.22485352 C8.5442007 61.0896375 8.5442007 61.0896375 6.9765625 64.03515625 C7.72582425 68.62438446 11.14224571 72.20462835 13.9140625 75.84765625 C19.83064833 83.75732294 25.42647887 91.8656908 30.9765625 100.03515625 C34.79552569 98.61853527 38.17235167 96.84785463 41.66796875 94.76171875 C43.31865356 93.77993652 43.31865356 93.77993652 45.00268555 92.77832031 C46.18149997 92.07230254 47.36029183 91.36624707 48.5390625 90.66015625 C49.75086597 89.93815426 50.96286317 89.21647734 52.17504883 88.49511719 C57.76781204 85.16384059 63.34927792 81.8141294 68.921875 78.44921875 C70.26076782 77.64170166 70.26076782 77.64170166 71.62670898 76.81787109 C73.26352856 75.82913317 74.89859443 74.83748339 76.53149414 73.84228516 C81.24475255 70.99078182 86.01873831 68.43826922 90.9765625 66.03515625 C89.22654145 69.63089886 87.14614958 72.91121809 84.9140625 76.22265625 C84.48923584 76.85631104 84.06440918 77.48996582 83.62670898 78.14282227 C73.50880516 93.20125273 63.27907002 108.18574991 52.98046875 123.12109375 C51.63153938 125.08269475 50.29710888 127.05433667 48.9765625 129.03515625 C46.42507935 129.51031494 46.42507935 129.51031494 43.15673828 129.64550781 C41.93431427 129.70015198 40.71189026 129.75479614 39.4524231 129.81109619 C38.10899275 129.85222579 36.76546841 129.89037684 35.421875 129.92578125 C34.74363552 129.94424858 34.06539604 129.96271591 33.36660385 129.98174286 C29.76734966 130.07373981 26.16837879 130.14194703 22.56835938 130.1953125 C19.60477606 130.24405378 16.64905856 130.34097632 13.68847656 130.48242188 C-10.04774559 131.59088759 -10.04774559 131.59088759 -16.47827148 127.45709229 C-20.41883947 123.58738306 -22.84734487 119.10425143 -25.07550049 114.09375 C-26.30853282 111.4160271 -27.92430454 109.15743685 -29.6953125 106.80859375 C-32.49897636 102.80582034 -35.29592875 98.79836218 -38.09375 94.79150391 C-40.18873614 91.79904521 -42.29338702 88.81351128 -44.3984375 85.828125 C-45.85689407 83.75138863 -47.31522972 81.67456733 -48.7734375 79.59765625 C-49.4653418 78.62038574 -50.15724609 77.64311523 -50.87011719 76.63623047 C-51.51368164 75.71729004 -52.15724609 74.79834961 -52.8203125 73.8515625 C-53.39104492 73.04146729 -53.96177734 72.23137207 -54.54980469 71.39672852 C-56.10133156 68.91032702 -57.31132416 66.88806727 -58.0234375 64.03515625 C-57.00390625 61.67358398 -57.00390625 61.67358398 -55.2109375 59.21875 C-54.55424072 58.2994873 -53.89754395 57.38022461 -53.22094727 56.43310547 C-52.49576904 55.45615723 -51.77059082 54.47920898 -51.0234375 53.47265625 C-49.53246546 51.40110401 -48.04158168 49.32948824 -46.55078125 47.2578125 C-45.7913623 46.21641113 -45.03194336 45.17500977 -44.24951172 44.10205078 C-40.96742549 39.58027329 -37.77761464 34.99594518 -34.5859375 30.41015625 C-33.44312924 28.77835098 -32.29991383 27.14683075 -31.15625 25.515625 C-27.74628322 20.64439141 -24.36175999 15.75592929 -20.98828125 10.859375 C-20.33988281 9.92738281 -19.69148438 8.99539062 -19.0234375 8.03515625 C-18.63109169 7.15867935 -18.63109169 7.15867935 -18.2308197 6.26449585 C-14.40456097 -1.1220941 -7.42058924 -0.0385561 0 0 Z " fill="#264483" transform="translate(83.0234375,34.96484375)"/>
<path d="M0 0 C8.18972258 -0.14790376 16.37645215 -0.23013775 24.56738186 -0.23059464 C28.37186967 -0.23282693 32.17350158 -0.25691759 35.97729492 -0.33251953 C39.65482194 -0.40478186 43.32836535 -0.41759065 47.00645638 -0.39070892 C48.40309352 -0.3906535 49.79990347 -0.41134515 51.19589043 -0.4539566 C57.39338473 -0.63152832 62.13365065 -0.7370998 66.82249451 3.62702942 C69.18771531 6.56719764 71.10081827 9.74160722 73 13 C73.93449382 14.3184449 74.88126916 15.62858486 75.85546875 16.91796875 C76.6346419 18.00650534 77.41204915 19.0963086 78.1875 20.1875 C78.60112793 20.76773926 79.01475586 21.34797852 79.44091797 21.94580078 C82.72253938 26.56774862 85.90794743 31.24879727 89 36 C92.81896319 34.58337902 96.19578917 32.81269838 99.69140625 30.7265625 C100.79186279 30.07204102 101.89231934 29.41751953 103.02612305 28.74316406 C104.20493747 28.03714629 105.38372933 27.33109082 106.5625 26.625 C107.77430347 25.90299801 108.98630067 25.18132109 110.19848633 24.45996094 C115.79124954 21.12868434 121.37271542 17.77897315 126.9453125 14.4140625 C127.83790771 13.87571777 128.73050293 13.33737305 129.65014648 12.78271484 C131.28696606 11.79397692 132.92203193 10.80232714 134.55493164 9.80712891 C139.26819005 6.95562557 144.04217581 4.40311297 149 2 C147.24997895 5.59574261 145.16958708 8.87606184 142.9375 12.1875 C142.51267334 12.82115479 142.08784668 13.45480957 141.65014648 14.10766602 C131.53224266 29.16609648 121.30250752 44.15059366 111.00390625 59.0859375 C109.65497688 61.0475385 108.32054638 63.01918042 107 65 C104.44851685 65.47515869 104.44851685 65.47515869 101.18017578 65.61035156 C99.95775177 65.66499573 98.73532776 65.71963989 97.4758606 65.77593994 C96.13243025 65.81706954 94.78890591 65.85522059 93.4453125 65.890625 C92.76707302 65.90909233 92.08883354 65.92755966 91.39004135 65.94658661 C87.79078716 66.03858356 84.19181629 66.10679078 80.59179688 66.16015625 C77.62821356 66.20889753 74.67249606 66.30582007 71.71191406 66.44726562 C47.97569191 67.55573134 47.97569191 67.55573134 41.54516602 63.42193604 C37.60459803 59.55222681 35.17609263 55.06909518 32.94793701 50.05859375 C31.71490468 47.38087085 30.09913296 45.1222806 28.328125 42.7734375 C25.52446114 38.77066409 22.72750875 34.76320593 19.9296875 30.75634766 C17.83470136 27.76388896 15.73005048 24.77835503 13.625 21.79296875 C12.16654343 19.71623238 10.70820778 17.63941108 9.25 15.5625 C8.21214355 14.09659424 8.21214355 14.09659424 7.15332031 12.60107422 C6.18797363 11.22266357 6.18797363 11.22266357 5.203125 9.81640625 C4.63239258 9.00631104 4.06166016 8.19621582 3.47363281 7.36157227 C1.98225783 4.97156725 1.01185074 2.62174779 0 0 Z " fill="#437EBB" transform="translate(25,99)"/>
<path d="M0 0 C8.0929146 -0.23226897 16.18442557 -0.40965367 24.27985477 -0.51812172 C28.0395783 -0.57019843 31.79701365 -0.64074544 35.55541992 -0.75439453 C39.18663701 -0.86350341 42.8156626 -0.92292777 46.44839287 -0.94877243 C47.83012849 -0.96717343 49.21175113 -1.00311408 50.59254646 -1.05730057 C61.36659978 -1.46307502 61.36659978 -1.46307502 65.28143311 2.04353333 C67.09997246 4.61394708 68.56479163 7.20030748 70 10 C70.81826776 11.24020922 71.65486488 12.46868647 72.51611328 13.67944336 C73.2849614 14.81571494 74.05301911 15.95252172 74.8203125 17.08984375 C75.24193161 17.71313568 75.66355072 18.33642761 76.09794617 18.97860718 C77.44108085 20.96437651 78.78314465 22.950866 80.125 24.9375 C87.65255782 36.08641742 87.65255782 36.08641742 95.26171875 47.1796875 C95.87192871 48.06277588 96.48213867 48.94586426 97.11083984 49.85571289 C98.21787674 51.45400734 99.32868544 53.04969809 100.44384766 54.64233398 C104 59.78026193 104 59.78026193 104 62 C98.98963464 60.22865871 94.52627408 57.57772975 89.9375 54.9375 C89.0400708 54.4230835 88.1426416 53.90866699 87.21801758 53.37866211 C71.07085943 44.06031816 55.05699976 34.39378556 39.375 24.3125 C37.00217384 22.89690318 37.00217384 22.89690318 34.1875 22.125 C28.35817466 20.06759106 23.73710992 16.77032922 19.25 12.5625 C15.15773403 8.8282056 10.65173877 6.64535083 5.63671875 4.359375 C3.19160159 3.09878127 1.8544418 1.96532176 0 0 Z " fill="#5F8CC5" transform="translate(69,36)"/>
<path d="M0 0 C0 4.12808245 -2.12077066 6.38743582 -4.4375 9.625 C-5.44764155 11.064384 -6.45668064 12.50454208 -7.46484375 13.9453125 C-8.30571533 15.14269043 -8.30571533 15.14269043 -9.16357422 16.36425781 C-12.65627944 21.37718596 -16.07161314 26.44297728 -19.5 31.5 C-29.97565306 46.91540133 -29.97565306 46.91540133 -34.4375 53.4375 C-34.87964844 54.0871875 -35.32179688 54.736875 -35.77734375 55.40625 C-37.40510898 57.7800743 -38.95968498 59.95968498 -41 62 C-43.55630493 62.24050903 -43.55630493 62.24050903 -46.82666016 62.22705078 C-48.65833237 62.22682419 -48.65833237 62.22682419 -50.52700806 62.22659302 C-51.86436118 62.21637903 -53.20171265 62.20594702 -54.5390625 62.1953125 C-55.90383701 62.1915828 -57.26861419 62.18873563 -58.63339233 62.18673706 C-62.22720723 62.17909714 -65.82086073 62.15944572 -69.41461182 62.1373291 C-73.08107317 62.11687832 -76.74756057 62.107737 -80.4140625 62.09765625 C-87.60944862 62.07620003 -94.8047017 62.04205992 -102 62 C-99.63008643 59.58600914 -97.55181197 57.52982564 -94.56640625 55.921875 C-93.5909082 55.38626953 -93.5909082 55.38626953 -92.59570312 54.83984375 C-91.58926758 54.30037109 -91.58926758 54.30037109 -90.5625 53.75 C-84.4221195 50.42784885 -78.47574979 46.85416101 -72.54077148 43.17724609 C-66.99577749 39.75364809 -61.37898088 36.44995611 -55.7701416 33.13244629 C-52.27236256 31.06345366 -48.77671399 28.9908695 -45.28125 26.91796875 C-44.23097626 26.29518539 -44.23097626 26.29518539 -43.15948486 25.65982056 C-35.52793605 21.13146913 -27.92009832 16.56396377 -20.31933594 11.98413086 C-13.58094766 7.92901057 -6.8018835 3.94765468 0 0 Z " fill="#275975" transform="translate(173,101)"/>
<path d="M0 0 C3.21188754 3.90173868 6.09794663 7.9517249 8.9375 12.125 C9.90093791 13.53652916 10.86448459 14.94798408 11.828125 16.359375 C12.33666016 17.10509766 12.84519531 17.85082031 13.36914062 18.61914062 C15.1056975 21.1543057 16.85636401 23.67931301 18.609375 26.203125 C19.20500244 27.06405762 19.80062988 27.92499023 20.41430664 28.81201172 C21.58455974 30.50350518 22.75816008 32.19268838 23.93530273 33.87939453 C24.46583252 34.64880371 24.9963623 35.41821289 25.54296875 36.2109375 C26.2548938 37.23646729 26.2548938 37.23646729 26.98120117 38.28271484 C28 40 28 40 28 42 C24.66546877 40.72830384 21.57971184 39.29826031 18.48046875 37.53125 C17.6299292 37.04688477 16.77938965 36.56251953 15.90307617 36.06347656 C14.55886597 35.28955566 14.55886597 35.28955566 13.1875 34.5 C12.26493408 33.97116211 11.34236816 33.44232422 10.3918457 32.89746094 C2.13185369 28.133479 -5.96700239 23.13566467 -14 18 C-13.67 17.34 -13.34 16.68 -13 16 C-8.25 17.875 -8.25 17.875 -6 19 C-5.67 18.01 -5.34 17.02 -5 16 C-4.01 16 -3.02 16 -2 16 C-1.34 14.68 -0.68 13.36 0 12 C0.99 13.485 0.99 13.485 2 15 C2.66 13.68 3.32 12.36 4 11 C2.62514468 9.45833358 2.62514468 9.45833358 1 8 C0.34 8 -0.32 8 -1 8 C-1.125 2.25 -1.125 2.25 0 0 Z " fill="#74B0CC" transform="translate(145,56)"/>
<path d="M0 0 C13.86 0.495 13.86 0.495 28 1 C27.01 1.495 27.01 1.495 26 2 C25.67 2.66 25.34 3.32 25 4 C25 3.34 25 2.68 25 2 C24.34 2 23.68 2 23 2 C23 2.66 23 3.32 23 4 C22.443125 3.9278125 21.88625 3.855625 21.3125 3.78125 C16.1640555 3.15508783 11.18536962 2.90572055 6 3 C6.33 4.32 6.66 5.64 7 7 C8.65 7.33 10.3 7.66 12 8 C12 8.66 12 9.32 12 10 C12.99 9.67 13.98 9.34 15 9 C15 12.63 15 16.26 15 20 C18.9595774 21.16169042 18.9595774 21.16169042 23 21 C23 23.33333333 23 25.66666667 23 28 C23.99 28.33 24.98 28.66 26 29 C26.33 21.41 26.66 13.82 27 6 C27.33 6 27.66 6 28 6 C28 13.59 28 21.18 28 29 C28.99 29.33 29.98 29.66 31 30 C31 31.32 31 32.64 31 34 C31.02320312 34.68320313 31.04640625 35.36640625 31.0703125 36.0703125 C31.1229057 38.04631417 31.06373141 40.02432621 31 42 C30.34 42.66 29.68 43.32 29 44 C28.67950684 43.52916992 28.35901367 43.05833984 28.02880859 42.57324219 C26.47885415 40.2979288 24.92711575 38.02383961 23.375 35.75 C22.79903076 34.90550293 22.22306152 34.06100586 21.62963867 33.19091797 C18.48352289 28.58971834 15.31158524 24.00956277 12.08984375 19.4609375 C11.45836426 18.56793945 10.82688477 17.67494141 10.17626953 16.75488281 C8.95371885 15.02979557 7.72696663 13.30767661 6.49560547 11.58886719 C5.93631348 10.79899414 5.37702148 10.00912109 4.80078125 9.1953125 C4.30747314 8.50453613 3.81416504 7.81375977 3.3059082 7.10205078 C2 5 2 5 0 0 Z " fill="#3F61BC" transform="translate(25,99)"/>
<path d="M0 0 C0.66 0.33 1.32 0.66 2 1 C1.814375 2.0725 1.62875 3.145 1.4375 4.25 C1.0695432 7.40391546 0.95534657 9.09818492 2 12 C-0.64 12 -3.28 12 -6 12 C-6.98120464 15.05263664 -6.98120464 16.94736336 -6 20 C-8.31 20.33 -10.62 20.66 -13 21 C-13.33 23.31 -13.66 25.62 -14 28 C-14.61875 28.12375 -15.2375 28.2475 -15.875 28.375 C-18.19120832 28.87197356 -18.19120832 28.87197356 -20 31 C-19.34 31.33 -18.68 31.66 -18 32 C-17.67 31.34 -17.34 30.68 -17 30 C-16.67 30.99 -16.34 31.98 -16 33 C-16.33 33.66 -16.66 34.32 -17 35 C-16.01 35.33 -15.02 35.66 -14 36 C-14.66 36 -15.32 36 -16 36 C-16 36.66 -16 37.32 -16 38 C-10.39 38 -4.78 38 1 38 C0.67 38.66 0.34 39.32 0 40 C-9.24 40 -18.48 40 -28 40 C-27.07518114 36.30072457 -26.32436539 34.72565244 -24.19140625 31.7265625 C-23.61366455 30.90784668 -23.03592285 30.08913086 -22.44067383 29.24560547 C-21.82087646 28.38080566 -21.2010791 27.51600586 -20.5625 26.625 C-19.93303467 25.73828613 -19.30356934 24.85157227 -18.6550293 23.93798828 C-17.37856853 22.14117546 -16.09969137 20.34607671 -14.81835938 18.55273438 C-13.18345149 16.25754145 -11.56430406 13.95250476 -9.953125 11.640625 C-9.07307818 10.38530343 -8.19288133 9.130087 -7.3125 7.875 C-6.71707397 7.01575928 -6.71707397 7.01575928 -6.10961914 6.13916016 C-4.20907938 3.45365982 -2.78272042 1.85514695 0 0 Z " fill="#1E237D" transform="translate(54,60)"/>
<path d="M0 0 C4.07697348 3.81299678 7.15722539 7.86613298 10.25 12.5 C11.20922208 13.91955022 12.16886432 15.33881661 13.12890625 16.7578125 C13.60602051 17.46583008 14.08313477 18.17384766 14.57470703 18.90332031 C15.93570819 20.90542342 17.31875391 22.8894362 18.71484375 24.8671875 C19.13282227 25.46080078 19.55080078 26.05441406 19.98144531 26.66601562 C21.12504665 28.28650336 22.27142809 29.90502809 23.41796875 31.5234375 C25 34 25 34 25 36 C22.56943154 37.66473242 20.15685489 39.19287399 17.625 40.6875 C16.92632812 41.11611328 16.22765625 41.54472656 15.5078125 41.98632812 C13.71097069 43.05925001 11.85830122 44.03744173 10 45 C9.34 44.67 8.68 44.34 8 44 C9.49008041 39.64438035 10.81585187 38.09207407 15 36 C15 32.7 15 29.4 15 26 C12.69 25.67 10.38 25.34 8 25 C8.66 23.02 9.32 21.04 10 19 C9.01 18.67 8.02 18.34 7 18 C7 16.02 7 14.04 7 12 C5.865625 11.87625 4.73125 11.7525 3.5625 11.625 C1.7990625 11.315625 1.7990625 11.315625 0 11 C-1.49297212 8.01405576 -1.11755228 5.29146376 -1 2 C-0.67 1.34 -0.34 0.68 0 0 Z " fill="#4BA9BB" transform="translate(89,101)"/>
<path d="M0 0 C0 3.27743733 -0.35016374 3.87196652 -2.16015625 6.44140625 C-2.62107666 7.10333984 -3.08199707 7.76527344 -3.55688477 8.44726562 C-4.05373779 9.14529297 -4.55059082 9.84332031 -5.0625 10.5625 C-5.56257568 11.27470703 -6.06265137 11.98691406 -6.57788086 12.72070312 C-7.58201538 14.15032935 -8.58857848 15.57825312 -9.59765625 17.00439453 C-10.82356786 18.74892822 -12.02342409 20.5117127 -13.21875 22.27734375 C-14.13140625 23.62505859 -14.13140625 23.62505859 -15.0625 25 C-15.58972656 25.78375 -16.11695313 26.5675 -16.66015625 27.375 C-17.10230469 27.91125 -17.54445312 28.4475 -18 29 C-18.66 29 -19.32 29 -20 29 C-20.07347656 28.06027344 -20.07347656 28.06027344 -20.1484375 27.1015625 C-20.22320312 26.28429687 -20.29796875 25.46703125 -20.375 24.625 C-20.44460937 23.81289062 -20.51421875 23.00078125 -20.5859375 22.1640625 C-20.82892588 19.79665809 -20.82892588 19.79665809 -23 18 C-24.98 18.66 -26.96 19.32 -29 20 C-29.66 19.34 -30.32 18.68 -31 18 C-29.99582031 17.443125 -28.99164063 16.88625 -27.95703125 16.3125 C-20.0166246 11.88880993 -12.18367138 7.35058359 -4.4765625 2.53125 C-2 1 -2 1 0 0 Z " fill="#33767E" transform="translate(173,101)"/>
<path d="M0 0 C3.98440872 1.29224067 5.63628473 2.58959557 8 6 C0.45914041 17.09243008 -7.14340244 28.12845529 -15 39 C-17.9765625 36.3359375 -17.9765625 36.3359375 -18.1875 33.3125 C-18.125625 32.549375 -18.06375 31.78625 -18 31 C-13.25 29 -13.25 29 -11 29 C-9.02905192 24.07262981 -8.8200072 20.21979128 -9 15 C-8.21625 14.87625 -7.4325 14.7525 -6.625 14.625 C-3.85942178 14.20882007 -3.85942178 14.20882007 -2 12 C-1.60235737 10.01178687 -1.26224651 8.01055661 -1 6 C-0.01 5.67 0.98 5.34 2 5 C1.34 3.35 0.68 1.7 0 0 Z " fill="#356B8D" transform="translate(106,59)"/>
<path d="M0 0 C5.61244107 2.48863342 8.11138397 7.08774009 11.3125 12.0625 C12.13717773 13.30483398 12.13717773 13.30483398 12.97851562 14.57226562 C17 20.71189829 17 20.71189829 17 23 C12.26525903 21.3003494 8.03832889 18.86340973 3.6875 16.375 C2.94693359 15.95476562 2.20636719 15.53453125 1.44335938 15.1015625 C-0.37269011 14.07051505 -2.18656533 13.03563954 -4 12 C-4 11.34 -4 10.68 -4 10 C-2.68 9.67 -1.36 9.34 0 9 C0 8.01 0 7.02 0 6 C-0.99 5.34 -1.98 4.68 -3 4 C-2.01 2.68 -1.02 1.36 0 0 Z " fill="#7DBCCF" transform="translate(156,75)"/>
<path d="M0 0 C13.86 0.495 13.86 0.495 28 1 C27.01 1.495 27.01 1.495 26 2 C25.67 2.66 25.34 3.32 25 4 C25 3.34 25 2.68 25 2 C24.34 2 23.68 2 23 2 C23 2.66 23 3.32 23 4 C22.443125 3.9278125 21.88625 3.855625 21.3125 3.78125 C16.1640555 3.15508783 11.18536962 2.90572055 6 3 C6.33 4.32 6.66 5.64 7 7 C8.65 7.33 10.3 7.66 12 8 C12 8.66 12 9.32 12 10 C12.99 9.67 13.98 9.34 15 9 C15 11.64 15 14.28 15 17 C14.34 17.33 13.68 17.66 13 18 C8.96282004 15.07286777 6.40625103 12.04272757 3.6875 7.875 C2.99011719 6.82054688 2.29273438 5.76609375 1.57421875 4.6796875 C0 2 0 2 0 0 Z " fill="#3A4CBA" transform="translate(25,99)"/>
<path d="M0 0 C0.99 0.33 1.98 0.66 3 1 C2.34 1.66 1.68 2.32 1 3 C1.66 3.33 2.32 3.66 3 4 C3.33 3.34 3.66 2.68 4 2 C4.33 2.99 4.66 3.98 5 5 C4.67 5.66 4.34 6.32 4 7 C4.99 7.33 5.98 7.66 7 8 C6.34 8 5.68 8 5 8 C5 8.66 5 9.32 5 10 C10.61 10 16.22 10 22 10 C21.67 10.66 21.34 11.32 21 12 C11.76 12 2.52 12 -7 12 C-6.04739717 8.18958866 -5.2725068 6.73085974 -2.9375 3.75 C-2.38964844 3.04359375 -1.84179688 2.3371875 -1.27734375 1.609375 C-0.85582031 1.07828125 -0.43429688 0.5471875 0 0 Z " fill="#161179" transform="translate(33,88)"/>
<path d="M0 0 C0.66 0.33 1.32 0.66 2 1 C0 4 0 4 -3 5 C-3.33 5.66 -3.66 6.32 -4 7 C13.16 7.33 30.32 7.66 48 8 C48 8.33 48 8.66 48 9 C27.87 9 7.74 9 -13 9 C-9.92862825 5.92862825 -8.00764439 4.19821119 -4.375 2.1875 C-3.59898438 1.74792969 -2.82296875 1.30835938 -2.0234375 0.85546875 C-1.02183594 0.43201172 -1.02183594 0.43201172 0 0 Z " fill="#0F3B64" transform="translate(84,154)"/>
<path d="M0 0 C18.81 0 37.62 0 57 0 C57 0.33 57 0.66 57 1 C55.65591064 1.03758423 55.65591064 1.03758423 54.28466797 1.07592773 C50.88875785 1.17233538 47.49294812 1.27146826 44.09716797 1.37231445 C42.6408183 1.41503532 41.18443836 1.45673898 39.72802734 1.49731445 C34.81730744 1.6345706 29.90871677 1.80402903 25 2 C24.32070435 2.0245929 23.64140869 2.04918579 22.94152832 2.07452393 C21.00461284 2.14980604 19.06863975 2.2482489 17.1328125 2.34765625 C16.0205127 2.40058838 14.90821289 2.45352051 13.76220703 2.50805664 C10.77463048 3.04013785 9.81453965 3.62887986 8 6 C6.66402348 5.19185349 5.331275 4.37836819 4 3.5625 C3.2575 3.11003906 2.515 2.65757813 1.75 2.19140625 C1.1725 1.79824219 0.595 1.40507813 0 1 C0 0.67 0 0.34 0 0 Z " fill="#3F64B9" transform="translate(71,37)"/>
<path d="M0 0 C3.98440872 1.29224067 5.63628473 2.58959557 8 6 C6.69161864 8.002807 5.37857806 10.00226099 4.0625 12 C3.50272461 12.85851562 3.50272461 12.85851562 2.93164062 13.734375 C1.98055411 15.17385729 0.99305724 16.58914489 0 18 C-0.33 18 -0.66 18 -1 18 C-1.22245393 16.39773045 -1.42746669 14.79303233 -1.625 13.1875 C-1.74101563 12.29417969 -1.85703125 11.40085937 -1.9765625 10.48046875 C-2 8 -2 8 0 5 C0.66 5 1.32 5 2 5 C1.34 3.35 0.68 1.7 0 0 Z " fill="#397890" transform="translate(106,59)"/>
<path d="M0 0 C2.475 0.99 2.475 0.99 5 2 C3.89789095 3.75129657 2.79322568 5.50098464 1.6875 7.25 C1.07261719 8.22453125 0.45773438 9.1990625 -0.17578125 10.203125 C-3.31920904 15.02259887 -3.31920904 15.02259887 -5 17 C-5.66 17 -6.32 17 -7 17 C-6.745504 15.51793505 -6.47088238 14.03931385 -6.1875 12.5625 C-6.03667969 11.73878906 -5.88585937 10.91507813 -5.73046875 10.06640625 C-5.48941406 9.38449219 -5.24835938 8.70257813 -5 8 C-4.01 7.67 -3.02 7.34 -2 7 C-0.77030122 3.48809191 -0.77030122 3.48809191 0 0 Z " fill="#2F677A" transform="translate(138,145)"/>
<path d="M0 0 C2.56864728 1.28432364 2.946539 2.36634751 4 5 C4 6.32 4 7.64 4 9 C2.35 9.66 0.7 10.32 -1 11 C-1.33 9.35 -1.66 7.7 -2 6 C-4.31 6.66 -6.62 7.32 -9 8 C-9.66 7.34 -10.32 6.68 -11 6 C-9.21385682 4.96953278 -7.42089982 3.95086764 -5.625 2.9375 C-4.62726563 2.36902344 -3.62953125 1.80054687 -2.6015625 1.21484375 C-1.74304688 0.81394531 -0.88453125 0.41304688 0 0 Z " fill="#2C6F79" transform="translate(153,113)"/>
<path d="M0 0 C6.15234375 0.5859375 6.15234375 0.5859375 8 1 C8.33 1.66 8.66 2.32 9 3 C7.02 5.97 5.04 8.94 3 12 C2.34 11.67 1.68 11.34 1 11 C0.5859375 8.49609375 0.5859375 8.49609375 0.375 5.4375 C0.30023438 4.42558594 0.22546875 3.41367188 0.1484375 2.37109375 C0.09945312 1.58863281 0.05046875 0.80617187 0 0 Z " fill="#326E7C" transform="translate(144,130)"/>
<path d="M0 0 C0.33 1.65 0.66 3.3 1 5 C-5.5 8 -5.5 8 -10 8 C-9.9375 6.25 -9.9375 6.25 -9 4 C-6.29950956 1.99159505 -3.44873267 0 0 0 Z " fill="#214A72" transform="translate(103,144)"/>
<path d="M0 0 C0.8125 1.6875 0.8125 1.6875 1 4 C-1.4375 6.75 -1.4375 6.75 -4 9 C-3.67 9.33 -3.34 9.66 -3 10 C-6 11 -6 11 -8.04296875 10.00390625 C-8.75066406 9.52824219 -9.45835937 9.05257812 -10.1875 8.5625 C-10.90292969 8.08941406 -11.61835938 7.61632812 -12.35546875 7.12890625 C-12.89816406 6.75636719 -13.44085938 6.38382812 -14 6 C-13.67 5.34 -13.34 4.68 -13 4 C-8.25 5.875 -8.25 5.875 -6 7 C-5.67 6.01 -5.34 5.02 -5 4 C-4.01 4 -3.02 4 -2 4 C-1.34 2.68 -0.68 1.36 0 0 Z " fill="#6EA4CA" transform="translate(145,68)"/>
<path d="M0 0 C3.27286682 2.7819368 4.96427697 6.27954067 7 10 C6.01 11.485 6.01 11.485 5 13 C3.68 13 2.36 13 1 13 C-0.10228696 8.59085217 -0.07654536 4.51617599 0 0 Z " fill="#6FA4C9" transform="translate(136,43)"/>
<path d="M0 0 C1.33895632 1.66215268 2.67130142 3.32963607 4 5 C4.86625 6.0828125 4.86625 6.0828125 5.75 7.1875 C7 9 7 9 7 11 C3.40608886 9.66511872 0.24509304 8.03977277 -3 6 C-2 4 -1 2 0 0 Z " fill="#84C7D1" transform="translate(166,87)"/>
<path d="M0 0 C0.33 0 0.66 0 1 0 C0.95875 0.763125 0.9175 1.52625 0.875 2.3125 C0.77919176 5.22718416 0.77919176 5.22718416 3 8 C1.71475739 8.86380259 0.42157581 9.71580369 -0.875 10.5625 C-1.59429687 11.03816406 -2.31359375 11.51382813 -3.0546875 12.00390625 C-3.69664063 12.33261719 -4.33859375 12.66132813 -5 13 C-5.66 12.67 -6.32 12.34 -7 12 C-5.50991959 7.64438035 -4.18414813 6.09207407 0 4 C0 2.68 0 1.36 0 0 Z " fill="#46A3B9" transform="translate(104,133)"/>
<path d="M0 0 C0.66 0.33 1.32 0.66 2 1 C0 4 0 4 -3 5 C-3.33 5.66 -3.66 6.32 -4 7 C-3.01 7.33 -2.02 7.66 -1 8 C-4.63 8 -8.26 8 -12 8 C-8.20182235 4.77730382 -4.42608146 2.25479622 0 0 Z " fill="#1C4071" transform="translate(84,154)"/>
<path d="M0 0 C0 3.39593478 -0.52165948 4.06619881 -2.5 6.6875 C-2.9640625 7.31011719 -3.428125 7.93273437 -3.90625 8.57421875 C-4.2671875 9.04472656 -4.628125 9.51523438 -5 10 C-5.66 9.34 -6.32 8.68 -7 8 C-8.32 7.34 -9.64 6.68 -11 6 C-7.37 4.02 -3.74 2.04 0 0 Z " fill="#418485" transform="translate(173,101)"/>
<path d="M0 0 C2.0625 1.6875 2.0625 1.6875 4 4 C3.9375 6.625 3.9375 6.625 3 9 C2.01 9.66 1.02 10.32 0 11 C-1.49297212 8.01405576 -1.11755228 5.29146376 -1 2 C-0.67 1.34 -0.34 0.68 0 0 Z " fill="#4596BA" transform="translate(89,101)"/>
<path d="M0 0 C3.29680965 0.65784963 5.84117922 1.89420573 8.75 3.5625 C9.94882813 4.24505859 9.94882813 4.24505859 11.171875 4.94140625 C11.77515625 5.29074219 12.3784375 5.64007813 13 6 C13 6.66 13 7.32 13 8 C13.99 8 14.98 8 16 8 C16 8.66 16 9.32 16 10 C9.67804014 8.7158519 4.24192045 4.77216051 0 0 Z " fill="#3E6AA5" transform="translate(88,48)"/>
<path d="M0 0 C0.99 0.33 1.98 0.66 3 1 C1.35 3.64 -0.3 6.28 -2 9 C-3.32 8.01 -4.64 7.02 -6 6 C-4.02 4.02 -2.04 2.04 0 0 Z " fill="#F4F6F9" transform="translate(62,41)"/>
<path d="M0 0 C0.33 0.99 0.66 1.98 1 3 C1.66 3.33 2.32 3.66 3 4 C1.906875 4.309375 0.81375 4.61875 -0.3125 4.9375 C-2.55407994 5.58337897 -4.7869351 6.2623117 -7 7 C-7.66 6.34 -8.32 5.68 -9 5 C-6.03 3.35 -3.06 1.7 0 0 Z " fill="#37727E" transform="translate(151,114)"/>
<path d="M0 0 C0.82638376 2.89234315 1 4.88742431 1 8 C0.34 8.66 -0.32 9.32 -1 10 C-3.1387261 6.79191085 -3.47730962 5.72301503 -3 2 C-2.01 1.34 -1.02 0.68 0 0 Z " fill="#315F89" transform="translate(91,88)"/>
<path d="M0 0 C0.66 0 1.32 0 2 0 C2 0.66 2 1.32 2 2 C3.32 1.67 4.64 1.34 6 1 C6 4.10551666 5.4606285 5.35261084 4 8 C0 3.375 0 3.375 0 0 Z " fill="#406CB8" transform="translate(57,144)"/>
<path d="M0 0 C0.66 0.33 1.32 0.66 2 1 C2.33 1.99 2.66 2.98 3 4 C0.1875 4.6875 0.1875 4.6875 -3 5 C-4.875 3.5625 -4.875 3.5625 -6 2 C-3 0 -3 0 0 0 Z " fill="#6492C7" transform="translate(125,64)"/>
<path d="M0 0 C0.99 0.99 1.98 1.98 3 3 C2.01 3 1.02 3 0 3 C0 4.65 0 6.3 0 8 C-1.32 7.34 -2.64 6.68 -4 6 C-4 5.01 -4 4.02 -4 3 C-2 1.3125 -2 1.3125 0 0 Z " fill="#366D7F" transform="translate(141,120)"/>
<path d="M0 0 C0.99 0.33 1.98 0.66 3 1 C1.68 3.31 0.36 5.62 -1 8 C-1.99 7.01 -2.98 6.02 -4 5 C-2.68 3.35 -1.36 1.7 0 0 Z " fill="#397D83" transform="translate(164,111)"/>
<path d="M0 0 C-0.66 1.65 -1.32 3.3 -2 5 C-3.98 5 -5.96 5 -8 5 C-7.67 4.01 -7.34 3.02 -7 2 C-4.56723614 0.81480735 -2.71982714 0 0 0 Z " fill="#223980" transform="translate(70,43)"/>
<path d="M0 0 C2.475 0.99 2.475 0.99 5 2 C4.67 3.65 4.34 5.3 4 7 C3.01 5.68 2.02 4.36 1 3 C-0.32 3.99 -1.64 4.98 -3 6 C-1.125 1.125 -1.125 1.125 0 0 Z " fill="#EAF2F4" transform="translate(114,64)"/>
<path d="M0 0 C2.31 0.33 4.62 0.66 7 1 C2.25 5 2.25 5 0 5 C0 3.35 0 1.7 0 0 Z " fill="#4797BA" transform="translate(90,145)"/>
<path d="M0 0 C0.66 0.99 1.32 1.98 2 3 C1.01 3 0.02 3 -1 3 C-1.33 3.99 -1.66 4.98 -2 6 C-2.99 6 -3.98 6 -5 6 C-4.67 4.35 -4.34 2.7 -4 1 C-2.02 1.495 -2.02 1.495 0 2 C0 1.34 0 0.68 0 0 Z " fill="#24357F" transform="translate(62,50)"/>
<path d="M0 0 C1.0625 1.875 1.0625 1.875 2 4 C1.67 4.66 1.34 5.32 1 6 C0.01 6 -0.98 6 -2 6 C-1.125 1.125 -1.125 1.125 0 0 Z " fill="#181878" transform="translate(43,74)"/>
<path d="M0 0 C3 2 3 2 4 5 C3.01 5.33 2.02 5.66 1 6 C-1 4 -1 4 -2 1 C-1.34 0.67 -0.68 0.34 0 0 Z " fill="#2F627C" transform="translate(124,130)"/>
<path d="M0 0 C2.475 0.99 2.475 0.99 5 2 C4.67 3.65 4.34 5.3 4 7 C2 5.1875 2 5.1875 0 3 C0 2.01 0 1.02 0 0 Z " fill="#4552BC" transform="translate(31,107)"/>
<path d="M0 0 C0.66 0.33 1.32 0.66 2 1 C1.34 2.98 0.68 4.96 0 7 C-0.99 6.34 -1.98 5.68 -3 5 C-1.125 1.125 -1.125 1.125 0 0 Z " fill="#3E73B6" transform="translate(67,152)"/>
<path d="M0 0 C2.12038635 2.61514317 4.13091744 5.19637616 6 8 C4.125 7.6875 4.125 7.6875 2 7 C0 4 0 4 0 0 Z " fill="#EBF0F6" transform="translate(46,131)"/>
<path d="M0 0 C1.32 0 2.64 0 4 0 C4.12375 0.598125 4.2475 1.19625 4.375 1.8125 C4.95475985 4.26231348 4.95475985 4.26231348 7 7 C6.01 7 5.02 7 4 7 C2.02 3.535 2.02 3.535 0 0 Z " fill="#495BBF" transform="translate(36,116)"/>
<path d="M0 0 C1 3 1 3 1 6 C0.01 6.66 -0.98 7.32 -2 8 C-2.99 7.67 -3.98 7.34 -5 7 C-3.35 4.69 -1.7 2.38 0 0 Z " fill="#251C7E" transform="translate(31,90)"/>
<path d="M0 0 C2.31 0.33 4.62 0.66 7 1 C7.33 2.32 7.66 3.64 8 5 C5.36 3.68 2.72 2.36 0 1 C0 0.67 0 0.34 0 0 Z " fill="#3C56B3" transform="translate(72,38)"/>
</svg>
