<?xml version="1.0" encoding="UTF-8"?>
<svg version="1.1" xmlns="http://www.w3.org/2000/svg" width="200" height="200">
<path d="M0 0 C66 0 132 0 200 0 C200 66 200 132 200 200 C134 200 68 200 0 200 C0 134 0 68 0 0 Z " fill="#000100" transform="translate(0,0)"/>
<path d="M0 0 C57.20589115 0 57.20589115 0 71.75 13.1875 C82.75817279 24.95037022 83.65881946 38.65342346 83.37109375 53.91796875 C82.76550858 67.80332546 77.87745822 79.15243726 67.94140625 89.05078125 C49.1375642 105.16343123 22.73936707 100 0 100 C0 67 0 34 0 0 Z " fill="#FAFAFA" transform="translate(54,52)"/>
<path d="M0 0 C16.57723577 0 16.57723577 0 21.64453125 4.44140625 C27.6836837 10.77443473 29.15538728 17.41425212 29.3125 26 C29.10511022 34.38576085 28.16778479 43.06428884 23 50 C15.60693411 56.1304641 9.92041545 56 0 56 C0 37.52 0 19.04 0 0 Z " fill="#030303" transform="translate(81,74)"/>
<path d="M0 0 C4.81706073 2.3630864 7.6369136 5.18293927 10 10 C10.82454452 14.68644179 10.47650352 18.02866591 8.375 22.3125 C4.60928275 26.57370636 1.8333278 28.73387177 -3.875 29.5625 C-8.73788119 29.28248765 -12.43627429 27.25241174 -16 24 C-18.7785587 19.31118219 -19.68905374 15.4139937 -19 10 C-14.89841531 1.95458388 -8.85501688 -1.55797424 0 0 Z " fill="#84B825" transform="translate(156,125)"/>
<path d="M0 0 C0 3.10551666 -0.5393715 4.35261084 -2 7 C-2.66 7 -3.32 7 -4 7 C-4 10.3 -4 13.6 -4 17 C-6 15 -6 15 -6.375 11.75 C-5.8557351 6.557351 -3.62661574 3.62661574 0 0 Z " fill="#81A638" transform="translate(143,127)"/>
</svg>
