<?xml version="1.0" encoding="UTF-8"?>
<svg version="1.1" xmlns="http://www.w3.org/2000/svg" width="1000" height="1000">
<path d="M0 0 C15.31134288 5.23299061 30.43487728 10.79369851 45.515625 16.65283203 C51.70793308 19.04697133 57.91629339 21.39880052 64.125 23.75 C64.74751648 23.98576752 65.37003296 24.22153503 66.01141357 24.46444702 C68.98225589 25.5893654 71.95341253 26.71344886 74.92480469 27.83691406 C77.4531446 28.79317092 79.98066167 29.75154519 82.5078125 30.7109375 C90.47481983 33.72657189 98.48262304 36.62137481 106.5 39.5 C122.53165863 45.2628257 122.53165863 45.2628257 128.4375 47.4375 C129.67371094 47.88996094 130.90992188 48.34242188 132.18359375 48.80859375 C135 50 135 50 137 52 C137.17532289 54.86888581 137.23137614 57.63992645 137.1953125 60.5078125 C137.1924826 61.34843231 137.18965271 62.18905212 137.18673706 63.05514526 C137.1755243 65.74524046 137.15041803 68.4350051 137.125 71.125 C137.1149716 72.94660978 137.10584551 74.76822477 137.09765625 76.58984375 C137.07558142 81.06002358 137.04104434 85.52995571 137 90 C134.91891315 90.67364661 132.8350329 91.33866798 130.75 92 C129.58984375 92.37125 128.4296875 92.7425 127.234375 93.125 C124 94 124 94 120 94 C120 94.66 120 95.32 120 96 C120.556875 96.09796875 121.11375 96.1959375 121.6875 96.296875 C122.450625 96.44640625 123.21375 96.5959375 124 96.75 C124.7425 96.88921875 125.485 97.0284375 126.25 97.171875 C130.01130729 98.3045414 133.48655546 100.24327773 137 102 C137 114.54 137 127.08 137 140 C131.4408564 142.08467885 126.66066558 143.68591692 121 145 C122.155 145.598125 123.31 146.19625 124.5 146.8125 C125.1496875 147.14894531 125.799375 147.48539063 126.46875 147.83203125 C129.89676636 149.41378571 133.46503265 150.67438724 137 152 C137 164.54 137 177.08 137 190 C129.12560887 193.37473905 129.12560887 193.37473905 125.73754883 194.28344727 C124.97198166 194.49157547 124.20641449 194.69970367 123.41764832 194.91413879 C122.19964287 195.23701118 122.19964287 195.23701118 120.95703125 195.56640625 C120.08810745 195.801353 119.21918365 196.03629974 118.32392883 196.27836609 C115.48799154 197.04429863 112.65025082 197.80331709 109.8125 198.5625 C106.8240996 199.36809615 103.83621946 200.17560099 100.84838867 200.98330688 C98.82754049 201.5295697 96.80654356 202.07528251 94.78540039 202.62045288 C85.55110295 205.11339451 76.33645816 207.67419795 67.125 210.25 C54.77984283 213.6997309 42.40855919 217.03431877 30.01245117 220.29589844 C22.23233496 222.3580593 14.55628372 224.60411343 6.93359375 227.1875 C4.10302024 227.9714671 1.90995102 228.06378647 -1 228 C-1.0740324 222.62486811 -1.12854569 217.25003146 -1.16479492 211.87451172 C-1.17990251 210.04503207 -1.20038968 208.21558875 -1.22631836 206.38623047 C-1.26261585 203.76000008 -1.27970615 201.13424751 -1.29296875 198.5078125 C-1.30845261 197.68693146 -1.32393646 196.86605042 -1.33988953 196.02029419 C-1.34057617 193.71533203 -1.34057617 193.71533203 -1 190 C1.97756176 188.01495883 3.92834587 187.36763589 7.35546875 186.51953125 C8.44085938 186.24608887 9.52625 185.97264648 10.64453125 185.69091797 C11.81371094 185.40104004 12.98289063 185.11116211 14.1875 184.8125 C23.34417947 182.49520465 32.44501275 180.06289836 41.5 177.375 C48.91480704 175.18010921 56.33775466 173.04491994 63.8125 171.0625 C64.60140625 170.85093262 65.3903125 170.63936523 66.203125 170.42138672 C69.21675469 169.63239053 71.87073301 169 75 169 C75 168.34 75 167.68 75 167 C73.7625 166.8453125 73.7625 166.8453125 72.5 166.6875 C69.11057038 166.02171918 66.4208607 164.98646674 63.3203125 163.5234375 C55.98986943 161.86976852 47.57816089 165.31057451 40.5625 167.25 C38.83966797 167.71925903 38.83966797 167.71925903 37.08203125 168.19799805 C30.53073222 169.99235258 24.00563879 171.85968087 17.5 173.8125 C5.23320027 177.49121664 5.23320027 177.49121664 0 178 C-1.73467926 176.26532074 -1.12603635 174.02539124 -1.13552856 171.71310425 C-1.13350433 170.95353424 -1.1314801 170.19396423 -1.12939453 169.41137695 C-1.13114685 168.61395584 -1.13289917 167.81653473 -1.13470459 166.99494934 C-1.13914341 164.32603846 -1.13616794 161.65719296 -1.1328125 158.98828125 C-1.13348739 157.10776253 -1.13445895 155.22724389 -1.13571167 153.34672546 C-1.13719327 149.36924422 -1.13502824 145.39178529 -1.13037109 141.41430664 C-1.12481572 136.43837671 -1.12794612 131.46250195 -1.13382339 126.48657417 C-1.1588378 101.30842199 -0.82087724 76.16506155 0 51 C11.61377115 54.06749593 11.61377115 54.06749593 16.40234375 56.015625 C17.75356323 56.55703125 17.75356323 56.55703125 19.13208008 57.109375 C20.05786865 57.48578125 20.98365723 57.8621875 21.9375 58.25 C31.29023373 61.98771234 40.71092224 65.42390845 50.23828125 68.6875 C54 70 54 70 56 71 C57.9126008 71.01364274 57.9126008 71.01364274 60.0625 70.75 C60.77535156 70.68296875 61.48820312 70.6159375 62.22265625 70.546875 C66.27530853 69.7488844 70.10756062 68.3657682 74 67 C70.83362453 65.79090272 67.66684023 64.58287942 64.5 63.375 C63.63246094 63.04371094 62.76492187 62.71242188 61.87109375 62.37109375 C50.55368994 58.05582467 39.20910361 53.81379394 27.8515625 49.60546875 C27.09232483 49.32411072 26.33308716 49.04275269 25.55084229 48.75286865 C22.44266746 47.60126832 19.33441391 46.44988498 16.22558594 45.30004883 C13.91303412 44.44453696 11.60100625 43.58762227 9.2890625 42.73046875 C8.58399567 42.47009323 7.87892883 42.20971771 7.15249634 41.94145203 C2.22722734 40.11361367 2.22722734 40.11361367 0 39 C0 26.13 0 13.26 0 0 Z M42 116 C46.11727743 120.11727743 53.21529062 122.20947204 59 122.4375 C64.09230866 122.15165315 69.25024188 120.81976673 74 119 C74.33 118.34 74.66 117.68 75 117 C61.96536277 111.43643533 55.3371151 111.02081036 42 116 Z " fill="#0F9CD6" transform="translate(137,387)"/>
<path d="M0 0 C0 12.54 0 25.08 0 38 C-7.87439113 41.37473905 -7.87439113 41.37473905 -11.26245117 42.28344727 C-12.02801834 42.49157547 -12.79358551 42.69970367 -13.58235168 42.91413879 C-14.39435532 43.12938705 -15.20635895 43.34463531 -16.04296875 43.56640625 C-16.91189255 43.801353 -17.78081635 44.03629974 -18.67607117 44.27836609 C-21.51200846 45.04429863 -24.34974918 45.80331709 -27.1875 46.5625 C-30.1759004 47.36809615 -33.16378054 48.17560099 -36.15161133 48.98330688 C-38.17245951 49.5295697 -40.19345644 50.07528251 -42.21459961 50.62045288 C-51.44889705 53.11339451 -60.66354184 55.67419795 -69.875 58.25 C-82.22015717 61.6997309 -94.59144081 65.03431877 -106.98754883 68.29589844 C-114.76766504 70.3580593 -122.44371628 72.60411343 -130.06640625 75.1875 C-132.89697976 75.9714671 -135.09004898 76.06378647 -138 76 C-138.0740324 70.62486811 -138.12854569 65.25003146 -138.16479492 59.87451172 C-138.17990251 58.04503207 -138.20038968 56.21558875 -138.22631836 54.38623047 C-138.26261585 51.76000008 -138.27970615 49.13424751 -138.29296875 46.5078125 C-138.30845261 45.68693146 -138.32393646 44.86605042 -138.33988953 44.02029419 C-138.34057617 41.71533203 -138.34057617 41.71533203 -138 38 C-135.02243824 36.01495883 -133.07165413 35.36763589 -129.64453125 34.51953125 C-128.56042969 34.24641113 -127.47632813 33.97329102 -126.359375 33.69189453 C-125.18890625 33.40169434 -124.0184375 33.11149414 -122.8125 32.8125 C-113.98706618 30.57929168 -105.21961077 28.24080739 -96.5 25.625 C-86.30484341 22.58493702 -76.02995942 19.930689 -65.71655273 17.3309021 C-49.66504607 13.27390574 -33.75216044 8.74625628 -17.84326172 4.16552734 C-16.8783078 3.88913925 -15.91335388 3.61275116 -14.91915894 3.32798767 C-13.09826811 2.80622595 -11.27832831 2.28113012 -9.45950317 1.75221252 C-8.65044525 1.52065964 -7.84138733 1.28910675 -7.0078125 1.05053711 C-6.30285645 0.84673935 -5.59790039 0.64294159 -4.87158203 0.43296814 C-3 0 -3 0 0 0 Z " fill="#0568A5" transform="translate(274,539)"/>
<path d="M0 0 C15.31134288 5.23299061 30.43487728 10.79369851 45.515625 16.65283203 C51.70793308 19.04697133 57.91629339 21.39880052 64.125 23.75 C64.74751648 23.98576752 65.37003296 24.22153503 66.01141357 24.46444702 C68.98225589 25.5893654 71.95341253 26.71344886 74.92480469 27.83691406 C77.4531446 28.79317092 79.98066167 29.75154519 82.5078125 30.7109375 C90.47481983 33.72657189 98.48262304 36.62137481 106.5 39.5 C122.53165863 45.2628257 122.53165863 45.2628257 128.4375 47.4375 C129.67371094 47.88996094 130.90992188 48.34242188 132.18359375 48.80859375 C135 50 135 50 137 52 C137.17532289 54.86888581 137.23137614 57.63992645 137.1953125 60.5078125 C137.1924826 61.34843231 137.18965271 62.18905212 137.18673706 63.05514526 C137.1755243 65.74524046 137.15041803 68.4350051 137.125 71.125 C137.1149716 72.94660978 137.10584551 74.76822477 137.09765625 76.58984375 C137.07558142 81.06002358 137.04104434 85.52995571 137 90 C135 89 135 89 134.38110352 87.39941406 C133.85951731 84.11552601 133.88914942 80.93434729 133.90234375 77.609375 C133.90446617 76.55245453 133.90446617 76.55245453 133.90663147 75.47418213 C133.91221067 73.23274416 133.92475927 70.99140757 133.9375 68.75 C133.94251769 67.22656395 133.94708013 65.70312632 133.95117188 64.1796875 C133.96217326 60.45309228 133.97942354 56.72655604 134 53 C127.15674653 54.27080101 120.48463979 55.87693786 113.79296875 57.78515625 C112.86454666 58.04630722 111.93612457 58.30745819 110.97956848 58.57652283 C108.04786721 59.40164382 105.1176002 60.23171308 102.1875 61.0625 C99.23936535 61.8961869 96.29092884 62.72876564 93.34187317 63.55918884 C91.51600718 64.07354575 89.69069186 64.58986268 87.86601257 65.1084137 C85.58095065 65.75322896 83.29208692 66.3807142 81 67 C80.08041504 67.25394531 79.16083008 67.50789063 78.21337891 67.76953125 C75.37462037 68.06511784 73.67441401 67.42352929 71.04296875 66.33984375 C70.09357422 65.95763672 69.14417969 65.57542969 68.16601562 65.18164062 C67.18310547 64.77107422 66.20019531 64.36050781 65.1875 63.9375 C63.26493271 63.15345097 61.34174019 62.37093356 59.41796875 61.58984375 C58.39703125 61.17355713 57.37609375 60.75727051 56.32421875 60.32836914 C49.92620532 57.77170117 43.46000625 55.39450172 37 53 C35.49275381 52.4405201 33.98551103 51.881031 32.47827148 51.3215332 C27.06158074 49.31202153 21.64425949 47.3042082 16.22558594 45.30004883 C13.91303412 44.44453696 11.60100625 43.58762227 9.2890625 42.73046875 C8.58399567 42.47009323 7.87892883 42.20971771 7.15249634 41.94145203 C2.22722734 40.11361367 2.22722734 40.11361367 0 39 C0 26.13 0 13.26 0 0 Z " fill="#94D3E6" transform="translate(137,387)"/>
<path d="M0 0 C3.09603193 1.17363167 5.71658067 2.03480761 9 2.5625 C11.9864204 3.08512357 12.68012484 3.61780387 14.5 6 C15.046875 8.62890625 15.046875 8.62890625 15.25 11.5625 C15.36601562 13.01849609 15.36601562 13.01849609 15.484375 14.50390625 C15.5 17 15.5 17 14.5 19 C15.1615804 22.10443277 15.1615804 22.10443277 17.5 23.125 C18.49 23.558125 18.49 23.558125 19.5 24 C19.83 24.33 20.16 24.66 20.5 25 C20.5 22.69 20.5 20.38 20.5 18 C21.49 17.505 21.49 17.505 22.5 17 C22.5 22.28 22.5 27.56 22.5 33 C21.84 33 21.18 33 20.5 33 C20.17 33.99 19.84 34.98 19.5 36 C17.5 36.625 17.5 36.625 15.5 37 C15.17 37.33 14.84 37.66 14.5 38 C18.22965721 38.96752614 20.63322683 38.97160096 24.31518555 37.87255859 C25.24352707 37.60253021 26.17186859 37.33250183 27.12834167 37.05429077 C28.12110611 36.75535919 29.11387054 36.45642761 30.13671875 36.1484375 C32.26210986 35.53815651 34.38776975 34.92881097 36.51367188 34.3203125 C39.8500686 33.35227441 43.18350663 32.37619165 46.51245117 31.3828125 C49.73491168 30.42637991 52.96570067 29.50417837 56.19921875 28.5859375 C57.18186203 28.28295746 58.16450531 27.97997742 59.17692566 27.66781616 C66.19922086 25.70621925 70.79093843 26.2708577 77.5 29 C79.04148576 29.56299557 80.58314035 30.1255292 82.125 30.6875 C83.23875 31.120625 84.3525 31.55375 85.5 32 C84.5 34 84.5 34 82.59594727 34.75854492 C81.34382446 35.11589722 81.34382446 35.11589722 80.06640625 35.48046875 C79.11967041 35.75415283 78.17293457 36.02783691 77.19750977 36.30981445 C76.16295654 36.59945068 75.12840332 36.88908691 74.0625 37.1875 C73.00023193 37.49067139 71.93796387 37.79384277 70.84350586 38.10620117 C39.36316601 47.0365495 39.36316601 47.0365495 25.5 50 C25.5 49.34 25.5 48.68 25.5 48 C24.675 47.896875 23.85 47.79375 23 47.6875 C19.61057038 47.02171918 16.9208607 45.98646674 13.8203125 44.5234375 C6.48986943 42.86976852 -1.92183911 46.31057451 -8.9375 48.25 C-10.08605469 48.56283936 -11.23460937 48.87567871 -12.41796875 49.19799805 C-18.96926778 50.99235258 -25.49436121 52.85968087 -32 54.8125 C-44.26679973 58.49121664 -44.26679973 58.49121664 -49.5 59 C-51.25990741 57.24009259 -50.62837157 54.92304709 -50.63894653 52.57891846 C-50.6369223 51.81553162 -50.63489807 51.05214478 -50.6328125 50.265625 C-50.63376923 49.47661804 -50.63472595 48.68761108 -50.63571167 47.87469482 C-50.6363944 46.19331788 -50.6345337 44.51193834 -50.63037109 42.83056641 C-50.62510895 40.30234522 -50.63026796 37.77430873 -50.63671875 35.24609375 C-50.64010269 26.11080387 -50.39997916 17.09819475 -49.5 8 C-45.63098846 6.14960318 -42.141901 4.84259426 -37.9140625 4.09765625 C-31.46393144 2.8633061 -25.26136948 0.9188561 -19.00390625 -1.05273438 C-11.68231385 -3.2492121 -7.13535966 -2.78853136 0 0 Z M15.5 10 C16.49 10.33 17.48 10.66 18.5 11 C17.51 11 16.52 11 15.5 11 C15.5 10.67 15.5 10.34 15.5 10 Z " fill="#109DD7" transform="translate(186.5,506)"/>
<path d="M0 0 C-0.00785522 1.39907593 -0.00785522 1.39907593 -0.01586914 2.82641602 C-0.03299302 6.31340157 -0.04548993 9.8003419 -0.05493164 13.28735352 C-0.05993555 14.7915925 -0.06674073 16.29582668 -0.07543945 17.80004883 C-0.08767884 19.97218009 -0.09326786 22.14424659 -0.09765625 24.31640625 C-0.10551147 26.27235718 -0.10551147 26.27235718 -0.11352539 28.26782227 C-0.00145975 31.95201033 0.40625214 35.36971466 1 39 C-7.58972682 41.35758437 -16.18245473 43.7037887 -24.77905273 46.03619385 C-29.59305644 47.34304488 -34.40403631 48.66039157 -39.21316528 49.98506165 C-42.31008276 50.83559768 -45.40949447 51.67675772 -48.50958252 52.51565552 C-49.99823075 52.92053523 -51.48583752 53.32926458 -52.97235107 53.74191284 C-55.05706627 54.31993178 -57.14507407 54.88413241 -59.234375 55.4453125 C-60.42256836 55.77031738 -61.61076172 56.09532227 -62.83496094 56.43017578 C-65.97817966 56.99607153 -67.9586655 56.8743658 -71 56 C-71.33 54.68 -71.66 53.36 -72 52 C-70.02 52 -68.04 52 -66 52 C-65.67 49.36 -65.34 46.72 -65 44 C-64.67 44 -64.34 44 -64 44 C-64 43.67 -64 43.34 -64 43 C-65.98075027 41.63823419 -67.98079663 40.30406884 -70 39 C-70.33 39.66 -70.66 40.32 -71 41 C-72.125 35.25 -72.125 35.25 -71 33 C-71.13596854 31.07702776 -71.13596854 31.07702776 -71.5 29 C-72.11111111 25.22222222 -72.11111111 25.22222222 -71 23 C-72.65 22.67 -74.3 22.34 -76 22 C-72.59271499 18.9368852 -69.11917226 18.13534444 -64.75 17.25 C-57.55632287 15.67266718 -50.49977938 13.77412165 -43.4375 11.6875 C-42.43581787 11.39182129 -41.43413574 11.09614258 -40.40209961 10.79150391 C-38.33312415 10.17882623 -36.26452505 9.56487632 -34.19628906 8.94970703 C-28.73891923 7.32816955 -23.27602873 5.7256383 -17.8125 4.125 C-16.29837524 3.6777356 -16.29837524 3.6777356 -14.75366211 3.22143555 C-13.33839233 2.80631714 -13.33839233 2.80631714 -11.89453125 2.3828125 C-11.06800049 2.13934082 -10.24146973 1.89586914 -9.38989258 1.64501953 C-6.27595464 0.80458394 -3.23659393 0 0 0 Z M-70 27 C-69.67 27.66 -69.34 28.32 -69 29 C-68.34 28.67 -67.68 28.34 -67 28 C-67.99 27.67 -68.98 27.34 -70 27 Z " fill="#048AC8" transform="translate(272,489)"/>
<path d="M0 0 C4.73007122 0.48852282 8.93082492 1.95795308 13.3203125 3.6953125 C14.01307281 3.96375977 14.70583313 4.23220703 15.41958618 4.50878906 C16.89534617 5.08099518 18.37016964 5.65562166 19.84411621 6.23248291 C23.67005015 7.72958304 27.50264829 9.20935256 31.3359375 10.6875 C32.08790405 10.97771027 32.83987061 11.26792053 33.61462402 11.56692505 C40.38536152 14.16944702 47.20741292 16.60510827 54.08642578 18.90673828 C64.38950088 22.38950088 64.38950088 22.38950088 67 25 C67.08861992 27.8116338 67.11522355 30.59858255 67.09765625 33.41015625 C67.0962413 34.25219101 67.09482635 35.09422577 67.09336853 35.96177673 C67.08775263 38.66205335 67.07519748 41.36224828 67.0625 44.0625 C67.05748705 45.88867068 67.05292379 47.71484266 67.04882812 49.54101562 C67.03777804 54.02737542 67.02050279 58.51367384 67 63 C65 62 65 62 64.38110352 60.39941406 C63.85951731 57.11552601 63.88914942 53.93434729 63.90234375 50.609375 C63.9037587 49.90476135 63.90517365 49.20014771 63.90663147 48.47418213 C63.91221067 46.23274416 63.92475927 43.99140757 63.9375 41.75 C63.94251769 40.22656395 63.94708013 38.70312632 63.95117188 37.1796875 C63.96217326 33.45309228 63.97942354 29.72655604 64 26 C57.15674653 27.27080101 50.48463979 28.87693786 43.79296875 30.78515625 C42.86454666 31.04630722 41.93612457 31.30745819 40.97956848 31.57652283 C38.04786721 32.40164382 35.1176002 33.23171308 32.1875 34.0625 C29.23936535 34.8961869 26.29092884 35.72876564 23.34187317 36.55918884 C21.51600718 37.07354575 19.69069186 37.58986268 17.86601257 38.1084137 C15.58097412 38.75322234 13.29127529 39.37783888 11 40 C10.10104004 40.26280762 9.20208008 40.52561523 8.27587891 40.79638672 C5.08729463 41.0816559 2.98633024 40.13278333 0.04296875 38.91015625 C-1.06884766 38.45576172 -2.18066406 38.00136719 -3.32617188 37.53320312 C-4.47666016 37.04787109 -5.62714844 36.56253906 -6.8125 36.0625 C-7.98232422 35.58103516 -9.15214844 35.09957031 -10.35742188 34.60351562 C-13.24327791 33.4138362 -16.12361574 32.21236031 -19 31 C-19 30.01 -19 29.02 -19 28 C-15.28400809 27.79913557 -14.22791555 27.8480563 -11 30 C-11.33 28.35 -11.66 26.7 -12 25 C-12.928125 25.309375 -12.928125 25.309375 -13.875 25.625 C-14.57625 25.74875 -15.2775 25.8725 -16 26 C-16.66 25.34 -17.32 24.68 -18 24 C-17.34 24 -16.68 24 -16 24 C-15.67 23.34 -15.34 22.68 -15 22 C-14.34 22 -13.68 22 -13 22 C-13 22.66 -13 23.32 -13 24 C-11.68 23.67 -10.36 23.34 -9 23 C-9.185625 22.401875 -9.37125 21.80375 -9.5625 21.1875 C-10.17993664 18.1003168 -8.98311714 15.94935142 -8 13 C-7.01 13.33 -6.02 13.66 -5 14 C-5.64544429 10.51460083 -7.10134397 7.97180943 -9 5 C-8.34 5 -7.68 5 -7 5 C-6.67 4.01 -6.34 3.02 -6 2 C-5.34 2.66 -4.68 3.32 -4 4 C-1.83333333 3.16666667 -1.83333333 3.16666667 -1 1 C-0.67 0.67 -0.34 0.34 0 0 Z " fill="#84CDE8" transform="translate(207,414)"/>
<path d="M0 0 C-0.00785522 1.46808105 -0.00785522 1.46808105 -0.01586914 2.96582031 C-0.03399561 6.60366905 -0.04545997 10.24151381 -0.05493164 13.87939453 C-0.05995437 15.45264355 -0.06677375 17.02588792 -0.07543945 18.59912109 C-0.08759529 20.86296743 -0.09324896 23.12675193 -0.09765625 25.390625 C-0.10281754 26.09181458 -0.10797882 26.79300415 -0.11329651 27.51544189 C-0.11367502 30.82485751 -0.02514727 33.83587763 1 37 C-0.82983141 37.65568959 -2.6640921 38.29902213 -4.5 38.9375 C-6.03140625 39.47697266 -6.03140625 39.47697266 -7.59375 40.02734375 C-14.64125681 42.03976255 -19.04350027 42.53165736 -25.9375 39.4375 C-27.25901648 38.86653988 -28.58199165 38.29894659 -29.90625 37.734375 C-30.58300781 37.44240234 -31.25976562 37.15042969 -31.95703125 36.84960938 C-35.23489522 35.48644415 -38.58066108 34.33907217 -41.9375 33.1875 C-53.03792576 29.34179747 -64.01222195 25.15423759 -75 21 C-75 20.34 -75 19.68 -75 19 C-66.99413345 16.21647386 -58.9714326 13.86395863 -50.75 11.8125 C-42.88731016 9.82463154 -35.06118421 7.76019472 -27.26953125 5.51171875 C-26.54259064 5.30279495 -25.81565002 5.09387115 -25.06668091 4.87861633 C-21.49409777 3.85056657 -17.92521919 2.81156536 -14.36035156 1.75708008 C-13.05414915 1.37933017 -11.74783927 1.00195161 -10.44140625 0.625 C-8.71966187 0.11839844 -8.71966187 0.11839844 -6.96313477 -0.3984375 C-4.12003627 -0.97563077 -2.67427589 -1.00709396 0 0 Z " fill="#0389C7" transform="translate(272,440)"/>
<path d="M0 0 C11 0 11 0 13.54296875 1.984375 C14.08566406 2.89703125 14.62835938 3.8096875 15.1875 4.75 C15.82042969 5.75546875 16.45335937 6.7609375 17.10546875 7.796875 C17.73066406 8.85390625 18.35585938 9.9109375 19 11 C20.32311817 13.00677255 21.65644946 15.0068493 23 17 C23.5775 17.886875 24.155 18.77375 24.75 19.6875 C28.04717934 24.54168069 31.54855647 29.25426514 35 34 C35.33 22.78 35.66 11.56 36 0 C39.63 0 43.26 0 47 0 C47 19.14 47 38.28 47 58 C37 58 37 58 34.5546875 56.015625 C34.00039063 55.10296875 33.44609375 54.1903125 32.875 53.25 C32.23175781 52.24195313 31.58851563 51.23390625 30.92578125 50.1953125 C30.29027344 49.14085937 29.65476562 48.08640625 29 47 C27.69531011 45.03645474 26.38278914 43.07809044 25.0625 41.125 C23.0515625 38.093125 23.0515625 38.093125 21 35 C18.03 30.71 15.06 26.42 12 22 C11.67 33.88 11.34 45.76 11 58 C7.37 58 3.74 58 0 58 C0 38.86 0 19.72 0 0 Z " fill="#046BAA" transform="translate(373,479)"/>
<path d="M0 0 C3.96 0 7.92 0 12 0 C15.625 4.625 15.625 4.625 17.22265625 7.65625 C19.21685806 11.40797912 21.55084448 14.70996468 24.0625 18.125 C27.83318856 23.33742242 31.49024241 28.60695785 35 34 C36.14411119 25.46002723 36.06852211 16.9514372 35.96289062 8.35498047 C35.95451172 7.42057129 35.94613281 6.48616211 35.9375 5.5234375 C35.92589844 4.67700684 35.91429687 3.83057617 35.90234375 2.95849609 C36 1 36 1 37 0 C40.3 0 43.6 0 47 0 C47 19.14 47 38.28 47 58 C37 58 37 58 34.109375 55.23828125 C33.2875144 53.95162688 32.5029161 52.64067607 31.75 51.3125 C30.84316827 49.86022703 29.93557416 48.40842991 29.02734375 46.95703125 C28.55022949 46.1676416 28.07311523 45.37825195 27.58154297 44.56494141 C25.28974052 40.84810341 22.84840359 37.23664414 20.40844727 33.6159668 C17.58778535 29.4225937 14.79692905 25.20923976 12 21 C11.67 33.21 11.34 45.42 11 58 C7.37 58 3.74 58 0 58 C0 38.86 0 19.72 0 0 Z " fill="#0D6FAA" transform="translate(693,479)"/>
<path d="M0 0 C11.55 0 23.1 0 35 0 C35 3.3 35 6.6 35 10 C27.41 10 19.82 10 12 10 C12.33 13.96 12.66 17.92 13 22 C18.94 22 24.88 22 31 22 C32.31625194 24.63250388 31.74813658 25.80179056 31.0625 28.625 C30.86785156 29.44226563 30.67320312 30.25953125 30.47265625 31.1015625 C30.31667969 31.72804688 30.16070313 32.35453125 30 33 C23.67370431 33.90375653 18.32629569 33.90375653 12 33 C12 37.95 12 42.9 12 48 C19.59 48 27.18 48 35 48 C35 51.3 35 54.6 35 58 C23.45 58 11.9 58 0 58 C0 38.86 0 19.72 0 0 Z " fill="#257DB1" transform="translate(765,479)"/>
<path d="M0 0 C11.22 0 22.44 0 34 0 C34 3.3 34 6.6 34 10 C26.74 10 19.48 10 12 10 C12 14.29 12 18.58 12 23 C12.95261719 22.91621094 13.90523438 22.83242188 14.88671875 22.74609375 C16.14097656 22.64425781 17.39523437 22.54242188 18.6875 22.4375 C19.92886719 22.33308594 21.17023438 22.22867187 22.44921875 22.12109375 C25.55835533 22.01506159 28.00810972 22.22771475 31 23 C30.67 26.3 30.34 29.6 30 33 C24.06 33 18.12 33 12 33 C12 37.95 12 42.9 12 48 C19.26 48 26.52 48 34 48 C34 51.3 34 54.6 34 58 C22.78 58 11.56 58 0 58 C0 38.86 0 19.72 0 0 Z " fill="#0167A7" transform="translate(316,479)"/>
<path d="M0 0 C11.22 0 22.44 0 34 0 C34 3.3 34 6.6 34 10 C26.74 10 19.48 10 12 10 C12.33 13.96 12.66 17.92 13 22 C18.94 22.33 24.88 22.66 31 23 C30.125 31.875 30.125 31.875 29 33 C26.13732433 33.07325168 23.299281 33.09238205 20.4375 33.0625 C19.63119141 33.05798828 18.82488281 33.05347656 17.99414062 33.04882812 C15.99606244 33.03700518 13.99802217 33.01906914 12 33 C12 37.95 12 42.9 12 48 C19.26 48 26.52 48 34 48 C34 51.3 34 54.6 34 58 C22.78 58 11.56 58 0 58 C0 38.86 0 19.72 0 0 Z " fill="#056BAA" transform="translate(514,479)"/>
<path d="M0 0 C3.96 0 7.92 0 12 0 C15.84970722 8.96184096 19.18285694 18.02129934 22.3125 27.25 C22.77111781 28.59257319 23.23010032 29.93502185 23.68945312 31.27734375 C24.79715848 34.51681078 25.89998328 37.75791287 27 41 C29.39450162 37.40824756 30.64183812 33.66084687 32.0390625 29.61328125 C32.32478119 28.79627243 32.61049988 27.97926361 32.90487671 27.13749695 C33.81554862 24.53052763 34.7203399 21.92156086 35.625 19.3125 C36.24180099 17.54348498 36.85898393 15.77460309 37.4765625 14.00585938 C38.98880955 9.67210457 40.49578614 5.33654928 42 1 C45.96 1 49.92 1 54 1 C53.40156202 5.33068406 52.34838517 9.11570631 50.77734375 13.19140625 C50.09865234 14.96572021 50.09865234 14.96572021 49.40625 16.77587891 C48.91693 18.03818805 48.42734137 19.30039309 47.9375 20.5625 C47.43834958 21.85838699 46.93965536 23.15444979 46.44140625 24.45068359 C45.68753998 26.41152374 44.93318198 28.37216019 44.17648315 30.33190918 C42.61954366 34.36785851 41.09553389 38.41444548 39.59765625 42.47265625 C39.06120483 43.91692993 39.06120483 43.91692993 38.51391602 45.39038086 C37.8535099 47.17155324 37.19875596 48.95483476 36.55053711 50.74047852 C36.25542236 51.52994873 35.96030762 52.31941895 35.65625 53.1328125 C35.40681641 53.81230957 35.15738281 54.49180664 34.90039062 55.19189453 C33.85517814 57.29082177 32.84191593 58.54729182 31 60 C27.27013478 60.26641894 24.55353929 60.1845131 21 59 C19.63183594 56.25830078 19.63183594 56.25830078 18.234375 52.5703125 C17.97895935 51.90476349 17.7235437 51.23921448 17.46038818 50.55349731 C16.62797003 48.37343407 15.81306051 46.18734969 15 44 C14.44370363 42.52168031 13.88706159 41.04349064 13.33007812 39.56542969 C11.61951757 35.0082676 9.93333877 30.44227292 8.25 25.875 C7.38421402 23.53046509 6.51785351 21.1861446 5.65081787 18.84207153 C5.11796643 17.40103234 4.58589312 15.95970508 4.05474854 14.51803589 C3.02991342 11.74288734 1.99593274 8.99057779 0.82324219 6.27392578 C0 4 0 4 0 0 Z " fill="#0F70AB" transform="translate(439,478)"/>
<path d="M0 0 C-0.33 2.97 -0.66 5.94 -1 9 C-4.38125573 10.12708524 -4.69113412 9.93898965 -7.75 8.5625 C-11.63591185 7.00241016 -14.77827761 6.58610565 -19 7 C-19.99 7.66 -20.98 8.32 -22 9 C-22.2502157 12.08365871 -22.2502157 12.08365871 -22 15 C-18.62589344 16.96168986 -15.25632488 18.86872682 -11.78125 20.6484375 C-10.6365625 21.23882812 -9.491875 21.82921875 -8.3125 22.4375 C-7.21550781 22.99308594 -6.11851562 23.54867188 -4.98828125 24.12109375 C-1.38741864 26.38516553 1.15301804 28.8825451 2.75 32.875 C3.47832574 39.0657688 3.06730088 43.47885842 0 49 C-5.27506081 54.27506081 -9.85075375 56.06238365 -17.1875 56.3125 C-22.36211154 56.22732121 -31.12122192 55.87877808 -35 52 C-35.14475933 48.1638778 -35.17661508 44.67692213 -34 41 C-28 43 -28 43 -25.1875 44.125 C-21.12214273 45.24098043 -17.1921588 45.54298438 -13 45 C-9.65296742 43.27561923 -9.65296742 43.27561923 -9.3125 39.6875 C-9.61195477 36.1060965 -9.61195477 36.1060965 -11.44140625 34.60546875 C-14.37589301 32.73806809 -17.45077527 31.26422612 -20.58203125 29.7578125 C-26.4253396 26.93690502 -30.82201554 24.46497528 -34.375 18.8125 C-35.51249158 13.69378787 -35.36523696 8.61832946 -32.90625 3.90234375 C-25.34585833 -5.98916868 -9.95990725 -6.63993817 0 0 Z " fill="#1170AA" transform="translate(607,482)"/>
<path d="M0 0 C0.94166016 0.39251953 0.94166016 0.39251953 1.90234375 0.79296875 C5.22181281 2.08643147 8.57134377 3.25149268 11.93969727 4.41015625 C19.3209882 6.94960066 26.59935703 9.5743438 33.76953125 12.66796875 C41.08466706 15.68424603 48.56332309 18.30070409 56 21 C56 21.99 56 22.98 56 24 C55.21052979 24.21615967 54.42105957 24.43231934 53.60766602 24.6550293 C49.92549676 25.66422834 46.24386698 26.67537937 42.5625 27.6875 C41.89995209 27.86951965 41.23740417 28.05153931 40.55477905 28.23907471 C32.78418053 30.37567947 25.02928062 32.55005502 17.3125 34.875 C5.23929191 38.4906244 5.23929191 38.4906244 0 39 C-1.81565436 37.18434564 -1.12861899 34.68730038 -1.13894653 32.27111816 C-1.1369223 31.47008667 -1.13489807 30.66905518 -1.1328125 29.84375 C-1.13376923 29.02628296 -1.13472595 28.20881592 -1.13571167 27.36657715 C-1.13639345 25.63484622 -1.13453929 23.90311276 -1.13037109 22.17138672 C-1.12502279 19.51133518 -1.13031612 16.8514525 -1.13671875 14.19140625 C-1.13605797 12.51302046 -1.1347768 10.83463477 -1.1328125 9.15625 C-1.13483673 8.35521851 -1.13686096 7.55418701 -1.13894653 6.72888184 C-1.11495079 1.11495079 -1.11495079 1.11495079 0 0 Z " fill="#0D7EBC" transform="translate(137,526)"/>
<path d="M0 0 C26.13278873 9.6157723 26.13278873 9.6157723 36.9375 13.875 C43.55337258 16.4819366 50.21646876 18.8585323 57 21 C53.68380343 23.901672 50.77131033 24.73574063 46.5 25.6875 C37.09752086 27.87150006 27.85330306 30.57760341 18.5859375 33.27026367 C16.83603516 33.77650269 16.83603516 33.77650269 15.05078125 34.29296875 C14.00575439 34.5974292 12.96072754 34.90188965 11.8840332 35.21557617 C9.26485835 35.92796158 6.66602037 36.4974431 4 37 C3.0925 37.20625 2.185 37.4125 1.25 37.625 C0.5075 37.74875 -0.235 37.8725 -1 38 C-2.93150884 36.06849116 -2.16380653 32.45781348 -2.16796875 29.82421875 C-2.17129715 29.10265091 -2.17462555 28.38108307 -2.17805481 27.63764954 C-2.18312803 26.1068282 -2.18546301 24.57599575 -2.18530273 23.04516602 C-2.18748121 20.70765771 -2.20560994 18.37062733 -2.22460938 16.03320312 C-2.22754486 14.54687662 -2.22952862 13.06054786 -2.23046875 11.57421875 C-2.23765427 10.87616623 -2.24483978 10.17811371 -2.25224304 9.45890808 C-2.23512175 5.80187255 -2.00756447 3.10956172 0 0 Z " fill="#1885C0" transform="translate(138,476)"/>
<path d="M0 0 C-0.875 6.875 -0.875 6.875 -2 8 C-0.35 8.66 1.3 9.32 3 10 C2.34 11.98 1.68 13.96 1 16 C1.66 16.33 2.32 16.66 3 17 C3 17.33 3 17.66 3 18 C3.78375 17.814375 4.5675 17.62875 5.375 17.4375 C8 17 8 17 10 18 C11.79300638 21.88484717 10.22761765 25.11254411 9 29 C8.64628502 30.66246041 8.30404678 32.32774271 8 34 C7.67 33.34 7.34 32.68 7 32 C6.01 32.99 5.02 33.98 4 35 C6.31 34.34 8.62 33.68 11 33 C11 32.34 11 31.68 11 31 C14.75 29.875 14.75 29.875 17 31 C17.66 30.01 18.32 29.02 19 28 C19.66 28.66 20.32 29.32 21 30 C22.98821313 30.39764263 24.98944339 30.73775349 27 31 C23.90100709 32.69073374 20.897018 33.66462062 17.484375 34.55078125 C16.40502686 34.83493896 15.32567871 35.11909668 14.21362305 35.41186523 C12.49912964 35.85767944 12.49912964 35.85767944 10.75 36.3125 C1.76251715 38.67880415 -7.11680876 41.19062435 -15.92578125 44.15234375 C-18.82381888 44.95142147 -21.02623163 45.06826486 -24 45 C-24.0740324 39.62486811 -24.12854569 34.25003146 -24.16479492 28.87451172 C-24.17990251 27.04503207 -24.20038968 25.21558875 -24.22631836 23.38623047 C-24.26261585 20.76000008 -24.27970615 18.13424751 -24.29296875 15.5078125 C-24.30845261 14.68693146 -24.32393646 13.86605042 -24.33988953 13.02029419 C-24.34057617 10.71533203 -24.34057617 10.71533203 -24 7 C-21.28523485 5.19015657 -19.68908906 4.50635562 -16.62109375 3.7109375 C-15.78255859 3.49179687 -14.94402344 3.27265625 -14.08007812 3.046875 C-13.20802734 2.82515625 -12.33597656 2.6034375 -11.4375 2.375 C-10.56158203 2.14554688 -9.68566406 1.91609375 -8.78320312 1.6796875 C-2.28941127 0 -2.28941127 0 0 0 Z " fill="#097BBB" transform="translate(160,570)"/>
<path d="M0 0 C12.35870099 3.37055482 12.35870099 3.37055482 16.40234375 5.015625 C17.30291504 5.37648193 18.20348633 5.73733887 19.13134766 6.10913086 C20.05737793 6.48561768 20.9834082 6.86210449 21.9375 7.25 C31.19489789 10.94825381 40.51583727 14.35868877 49.9453125 17.58984375 C53.00252701 18.63940826 56.01406945 19.75886019 59 21 C56.06952256 22.95365163 54.11845354 23.64104021 50.7578125 24.515625 C49.70118408 24.79446533 48.64455566 25.07330566 47.5559082 25.3605957 C46.4237085 25.65409912 45.29150879 25.94760254 44.125 26.25 C41.7665748 26.87236448 39.40850642 27.49608254 37.05078125 28.12109375 C35.86822754 28.4341748 34.68567383 28.74725586 33.46728516 29.06982422 C28.39979706 30.42928976 23.35429503 31.86103266 18.3125 33.3125 C17.47154785 33.55452148 16.6305957 33.79654297 15.76416016 34.04589844 C14.21614621 34.49232589 12.66918008 34.94241085 11.12353516 35.39697266 C9.72455878 35.79424463 8.3175914 36.16452199 6.90380859 36.50537109 C4.78320338 36.99950008 4.78320338 36.99950008 2 38 C1.67 38.99 1.34 39.98 1 41 C0.34 41 -0.32 41 -1 41 C-0.67 27.47 -0.34 13.94 0 0 Z " fill="#A2D9E5" transform="translate(137,438)"/>
<path d="M0 0 C0 12.54 0 25.08 0 38 C-0.33 38 -0.66 38 -1 38 C-1.495 25.13 -1.495 25.13 -2 12 C-2 20.58 -2 29.16 -2 38 C-12.10398379 34.6320054 -12.10398379 34.6320054 -15.875 33.16796875 C-16.70660645 32.84731445 -17.53821289 32.52666016 -18.39501953 32.19628906 C-19.25466309 31.86338867 -20.11430664 31.53048828 -21 31.1875 C-29.66692003 27.85702073 -38.38136179 24.70305993 -47.14892578 21.64941406 C-51.44757338 20.14131559 -55.72370132 18.57013126 -60 17 C-57.1460877 15.48066571 -54.37573899 14.42190244 -51.2734375 13.51953125 C-50.33588623 13.2457666 -49.39833496 12.97200195 -48.43237305 12.68994141 C-47.42343994 12.40038574 -46.41450684 12.11083008 -45.375 11.8125 C-44.33061768 11.51005371 -43.28623535 11.20760742 -42.21020508 10.89599609 C-30.96324023 7.66160754 -19.66005319 4.6365107 -8.34643555 1.64501953 C-2.36222559 0 -2.36222559 0 0 0 Z " fill="#0C8FCB" transform="translate(274,539)"/>
<path d="M0 0 C13.06499487 4.51053394 26.09349835 9.05469313 39 14 C38.01 14.99 37.02 15.98 36 17 C36.495 17.99 36.495 17.99 37 19 C35.02 19.99 33.04 20.98 31 22 C31 21.34 31 20.68 31 20 C30.01 20 29.02 20 28 20 C28.33 21.65 28.66 23.3 29 25 C29.66 24.67 30.32 24.34 31 24 C31.33 25.98 31.66 27.96 32 30 C30.68 30.99 29.36 31.98 28 33 C26 31 26 31 25.875 27.375 C25.91625 26.26125 25.9575 25.1475 26 24 C25.7834375 25.1446875 25.7834375 25.1446875 25.5625 26.3125 C25 29 25 29 24 32 C24.87483915 34.16715557 24.87483915 34.16715557 26 36 C23.9927092 39.0109362 23.16115776 39.63016497 20 41 C21.175625 41.185625 21.175625 41.185625 22.375 41.375 C25 42 25 42 27 44 C26.01 44.495 26.01 44.495 25 45 C25 45.99 25 46.98 25 48 C16.53471672 45.27901609 8.35801105 42.13425415 0 39 C0 26.13 0 13.26 0 0 Z " fill="#A2D9E5" transform="translate(137,387)"/>
<path d="M0 0 C15.51 0 31.02 0 47 0 C46.34 3.3 45.68 6.6 45 10 C39.72 10 34.44 10 29 10 C29 25.84 29 41.68 29 58 C25.04 58 21.08 58 17 58 C17 42.16 17 26.32 17 10 C11.39 10 5.78 10 0 10 C0 6.7 0 3.4 0 0 Z " fill="#036AA9" transform="translate(627,479)"/>
<path d="M0 0 C15.18 0 30.36 0 46 0 C45 8 45 8 44 10 C39.05 10 34.1 10 29 10 C29 25.84 29 41.68 29 58 C25.04 58 21.08 58 17 58 C17 42.16 17 26.32 17 10 C11.39 10 5.78 10 0 10 C0 6.7 0 3.4 0 0 Z " fill="#0169AA" transform="translate(818,479)"/>
<path d="M0 0 C4.83211715 1.56915344 9.57945624 3.31583807 14.328125 5.1171875 C15.11717224 5.41561554 15.90621948 5.71404358 16.71917725 6.02151489 C18.38347707 6.65130271 20.04755594 7.28167472 21.71142578 7.91259766 C24.22758951 8.86650393 26.74459618 9.81815844 29.26171875 10.76953125 C37.20346312 13.77501061 45.13888129 16.78774095 53 20 C49.48803753 21.95602279 45.89408389 22.97899275 42.03125 24.05859375 C41.35509644 24.24841324 40.67894287 24.43823273 39.9822998 24.63380432 C38.55058334 25.0348821 37.11831776 25.43400421 35.68554688 25.83129883 C33.53391138 26.42809406 31.38402338 27.03085682 29.234375 27.63476562 C25.79892131 28.59721131 22.3591459 29.5426428 18.91601562 30.47723389 C17.09810172 30.97323391 15.28332195 31.48067935 13.46875 31.98876953 C12.416875 32.27220215 11.365 32.55563477 10.28125 32.84765625 C9.37439453 33.09652588 8.46753906 33.34539551 7.53320312 33.60180664 C4.73821505 34.04114989 2.71905826 33.71678145 0 33 C-0.33 31.68 -0.66 30.36 -1 29 C0.98 29 2.96 29 5 29 C5.33 26.36 5.66 23.72 6 21 C6.33 21 6.66 21 7 21 C7 20.67 7 20.34 7 20 C5.01924973 18.63823419 3.01920337 17.30406884 1 16 C0.67 16.66 0.34 17.32 0 18 C-1.125 12.25 -1.125 12.25 0 10 C-0.13596854 8.07702776 -0.13596854 8.07702776 -0.5 6 C-1.11111111 2.22222222 -1.11111111 2.22222222 0 0 Z M1 4 C1.33 4.66 1.66 5.32 2 6 C2.66 5.67 3.32 5.34 4 5 C3.01 4.67 2.02 4.34 1 4 Z " fill="#0C95D1" transform="translate(201,512)"/>
<path d="M0 0 C0 0.66 0 1.32 0 2 C0.556875 2.09796875 1.11375 2.1959375 1.6875 2.296875 C2.450625 2.44640625 3.21375 2.5959375 4 2.75 C4.7425 2.88921875 5.485 3.0284375 6.25 3.171875 C10.01130729 4.3045414 13.48655546 6.24327773 17 8 C17 20.54 17 33.08 17 46 C16.34 45.67 15.68 45.34 15 45 C14.06908831 40.95241367 13.87174034 37.04380263 13.8671875 32.90234375 C13.86589844 31.77119141 13.86460937 30.64003906 13.86328125 29.47460938 C13.86714844 28.30736328 13.87101562 27.14011719 13.875 25.9375 C13.87113281 24.76638672 13.86726563 23.59527344 13.86328125 22.38867188 C13.86457031 21.25880859 13.86585938 20.12894531 13.8671875 18.96484375 C13.86831543 17.9399585 13.86944336 16.91507324 13.87060547 15.85913086 C13.99391417 13.13447391 14.38673482 10.65311792 15 8 C14.39865234 8.17539307 13.79730469 8.35078613 13.17773438 8.53149414 C12.32501953 8.78020264 11.47230469 9.02891113 10.59375 9.28515625 C9.1538269 9.70522949 9.1538269 9.70522949 7.68481445 10.13378906 C5.53765435 10.75991379 3.39035302 11.38555441 1.24291992 12.01074219 C-4.33489321 13.63535583 -9.91036645 15.26709555 -15.48046875 16.91796875 C-25.59628427 19.90830712 -35.65867513 22.87922048 -46 25 C-46.33 24.34 -46.66 23.68 -47 23 C-52.40768132 20.55871286 -58.08567056 18.63938697 -64 18 C-60.91558767 16.31301344 -57.95393384 15.36728226 -54.546875 14.51953125 C-53.46374023 14.24584717 -52.38060547 13.97216309 -51.26464844 13.69018555 C-50.10481445 13.40054932 -48.94498047 13.11091309 -47.75 12.8125 C-34.01444457 9.32297157 -20.42723512 5.41208315 -6.84960938 1.35791016 C-2.22724036 0 -2.22724036 0 0 0 Z " fill="#74C8E9" transform="translate(257,481)"/>
<path d="M0 0 C3.65683722 1.62194992 7.35449743 3.04030372 11.10546875 4.42578125 C11.77674805 4.67521484 12.44802734 4.92464844 13.13964844 5.18164062 C14.51586132 5.69289881 15.8923286 6.20347269 17.26904297 6.71337891 C20.05645539 7.74862897 22.83918553 8.79615899 25.62207031 9.84350586 C32.51668984 12.43762703 39.42473753 14.99204331 46.35546875 17.48828125 C43.60675207 20.23699793 40.50849125 20.82373203 36.85546875 21.80078125 C36.18515625 22.00767578 35.51484375 22.21457031 34.82421875 22.42773438 C28.6315207 24.07560194 24.23901202 22.70630407 18.35546875 20.48828125 C17.2979541 20.1013208 16.24043945 19.71436035 15.15087891 19.31567383 C11.56264912 17.98298262 7.98961131 16.61477588 4.41796875 15.23828125 C1.85350036 14.25614703 -0.71193438 13.2765482 -3.27734375 12.296875 C-3.90693497 12.05607712 -4.53652618 11.81527924 -5.18519592 11.56718445 C-13.30965951 8.46320932 -21.47437404 5.46942205 -29.64453125 2.48828125 C-29.64453125 1.82828125 -29.64453125 1.16828125 -29.64453125 0.48828125 C-18.09661128 -3.88859536 -11.36052336 -5.11151558 0 0 Z " fill="#06619B" transform="translate(226.64453125,458.51171875)"/>
<path d="M0 0 C0.89968506 0.31646484 1.79937012 0.63292969 2.72631836 0.95898438 C8.30714438 2.94104451 13.78213394 5.08018678 19.22265625 7.421875 C23.58758641 9.22512683 28.00696678 10.86574941 32.4375 12.5 C33.67705444 12.95922852 33.67705444 12.95922852 34.94165039 13.42773438 C35.72403076 13.71455078 36.50641113 14.00136719 37.3125 14.296875 C38.01117188 14.55307617 38.70984375 14.80927734 39.4296875 15.07324219 C41.41526984 15.74250705 43.39844563 16.27109654 45.4375 16.75 C45.4375 17.41 45.4375 18.07 45.4375 18.75 C43.1085187 19.45657896 40.77637364 20.1401293 38.4375 20.8125 C37.78910156 21.01166016 37.14070313 21.21082031 36.47265625 21.41601562 C27.65368899 23.90453609 20.52879608 21.33215323 12.25 18.1875 C11.29891357 17.83397461 10.34782715 17.48044922 9.36791992 17.11621094 C6.38707027 16.00456608 3.41164397 14.87945264 0.4375 13.75 C-0.51640625 13.3885791 -1.4703125 13.0271582 -2.453125 12.65478516 C-6.94837166 10.94966483 -11.44025327 9.23598449 -15.9296875 7.515625 C-21.11841264 5.53114304 -26.32882925 3.6130397 -31.5625 1.75 C-28.28536868 -1.10246638 -25.33647806 -2.04572289 -21.125 -3 C-20.01253906 -3.26296875 -18.90007812 -3.5259375 -17.75390625 -3.796875 C-11.44537665 -4.6925781 -5.88096217 -2.0802063 0 0 Z " fill="#07619C" transform="translate(227.5625,509.25)"/>
<path d="M0 0 C2.56939752 0.85745769 5.12296474 1.75096502 7.67431641 2.66064453 C8.53734375 2.96035156 9.40037109 3.26005859 10.28955078 3.56884766 C21.94281338 7.6791415 21.94281338 7.6791415 24.48681641 10.22314453 C24.57543633 13.03477833 24.60203996 15.82172709 24.58447266 18.63330078 C24.58305771 19.47533554 24.58164276 20.3173703 24.58018494 21.18492126 C24.57456904 23.88519788 24.56201389 26.58539281 24.54931641 29.28564453 C24.54430345 31.11181521 24.53974019 32.93798719 24.53564453 34.76416016 C24.52459445 39.25051995 24.5073192 43.73681837 24.48681641 48.22314453 C22.48681641 47.22314453 22.48681641 47.22314453 21.86791992 45.62255859 C21.34633371 42.33867054 21.37596582 39.15749182 21.38916016 35.83251953 C21.3905751 35.12790588 21.39199005 34.42329224 21.39344788 33.69732666 C21.39902707 31.45588869 21.41157567 29.2145521 21.42431641 26.97314453 C21.4293341 25.44970848 21.43389654 23.92627085 21.43798828 22.40283203 C21.44898966 18.67623681 21.46623994 14.94970057 21.48681641 11.22314453 C14.88258788 12.45629201 8.43479014 13.96973218 1.97900391 15.82470703 C0.70175949 16.18669693 0.70175949 16.18669693 -0.60128784 16.55599976 C-3.28129505 17.31643782 -5.95974912 18.08218761 -8.63818359 18.84814453 C-10.4714162 19.3693323 -12.30474873 19.89016873 -14.13818359 20.41064453 C-18.59768047 21.67742598 -23.05579414 22.94896855 -27.51318359 24.22314453 C-28.83318359 22.90314453 -30.15318359 21.58314453 -31.51318359 20.22314453 C-30.56443359 19.79001953 -29.61568359 19.35689453 -28.63818359 18.91064453 C-25.31276423 17.43012252 -25.31276423 17.43012252 -23.51318359 14.22314453 C-24.50318359 14.22314453 -25.49318359 14.22314453 -26.51318359 14.22314453 C-27.17318359 12.57314453 -27.83318359 10.92314453 -28.51318359 9.22314453 C-26.86318359 7.90314453 -25.21318359 6.58314453 -23.51318359 5.22314453 C-22.85318359 6.54314453 -22.19318359 7.86314453 -21.51318359 9.22314453 C-20.82610804 6.73249565 -20.51318359 4.84428162 -20.51318359 2.22314453 C-19.19318359 1.89314453 -17.87318359 1.56314453 -16.51318359 1.22314453 C-16.84318359 2.54314453 -17.17318359 3.86314453 -17.51318359 5.22314453 C-16.19318359 5.55314453 -14.87318359 5.88314453 -13.51318359 6.22314453 C-13.69880859 5.64564453 -13.88443359 5.06814453 -14.07568359 4.47314453 C-14.56022378 1.98122356 -14.40851095 0.58355301 -13.51318359 -1.77685547 C-9.47359243 -3.79665105 -4.12342699 -1.27460119 0 0 Z " fill="#75C9E9" transform="translate(249.51318359375,428.77685546875)"/>
<path d="M0 0 C1.18553467 0.43107056 1.18553467 0.43107056 2.39501953 0.87084961 C4.27171824 1.55812322 6.1373092 2.27562024 8 3 C7 5 7 5 5.09594727 5.75854492 C4.26119873 5.99677979 3.4264502 6.23501465 2.56640625 6.48046875 C1.61967041 6.75415283 0.67293457 7.02783691 -0.30249023 7.30981445 C-1.33704346 7.59945068 -2.37159668 7.88908691 -3.4375 8.1875 C-4.49976807 8.49067139 -5.56203613 8.79384277 -6.65649414 9.10620117 C-38.13683399 18.0365495 -38.13683399 18.0365495 -52 21 C-52 20.34 -52 19.68 -52 19 C-52.763125 18.9175 -53.52625 18.835 -54.3125 18.75 C-59.4149117 17.71222135 -64.1455494 15.85712968 -69 14 C-65.64714302 11.76476202 -62.94066153 11.05576531 -59.04296875 10.046875 C-58.35161331 9.865802 -57.66025787 9.684729 -56.94795227 9.49816895 C-54.69594934 8.9095678 -52.44196279 8.32910292 -50.1875 7.75 C-47.08665925 6.95014629 -43.98643613 6.14794597 -40.88671875 5.34375 C-40.12015961 5.14533508 -39.35360046 4.94692017 -38.56381226 4.74249268 C-34.08184619 3.57327369 -29.6378823 2.3218882 -25.20703125 0.96875 C-24.22645752 0.67516602 -23.24588379 0.38158203 -22.2355957 0.07910156 C-20.47599723 -0.45419575 -18.72240666 -1.00796864 -16.97729492 -1.58691406 C-10.55863785 -3.49877054 -6.1535185 -2.40288315 0 0 Z " fill="#81CCE7" transform="translate(264,535)"/>
<path d="M0 0 C7.02094174 1.99572395 13.82406577 4.35519224 20.625 7 C22.40879084 7.68766429 24.19264408 8.37516673 25.9765625 9.0625 C26.81993164 9.38863281 27.66330078 9.71476562 28.53222656 10.05078125 C32.01319469 11.38972111 35.50554478 12.69670668 39 14 C39 14.66 39 15.32 39 16 C38.27111572 16.1858667 37.54223145 16.3717334 36.79125977 16.56323242 C17.53124261 21.48309817 17.53124261 21.48309817 -1.546875 27.0546875 C-5.06488129 28.01776162 -8.38599344 28.56446588 -12 29 C-12 28.34 -12 27.68 -12 27 C-11.21625 26.9175 -10.4325 26.835 -9.625 26.75 C-6.94887747 26.26677933 -6.94887747 26.26677933 -5.75 24.375 C-4.15150142 19.31308783 -3.8712784 14.27758577 -4 9 C-3.01 8.67 -2.02 8.34 -1 8 C-1.33 6.68 -1.66 5.36 -2 4 C-1.34 3.67 -0.68 3.34 0 3 C0 2.01 0 1.02 0 0 Z " fill="#0B93CF" transform="translate(214,467)"/>
<path d="M0 0 C3.8357754 1.44430288 7.39955195 2.55670832 11.5 3 C11.5 3.33 11.5 3.66 11.5 4 C10.45996826 4.27880005 10.45996826 4.27880005 9.39892578 4.56323242 C-16.88548054 11.46358857 -16.88548054 11.46358857 -42.8984375 19.30078125 C-45.5 20 -45.5 20 -49.5 20 C-49.5 16.04 -49.5 12.08 -49.5 8 C-45.63098846 6.14960318 -42.141901 4.84259426 -37.9140625 4.09765625 C-31.46393144 2.8633061 -25.26136948 0.9188561 -19.00390625 -1.05273438 C-11.68231385 -3.2492121 -7.13535966 -2.78853136 0 0 Z " fill="#9AD6E6" transform="translate(186.5,506)"/>
<path d="M0 0 C3.63 0 7.26 0 11 0 C13.39223697 2.39223697 13.6758631 3.67759676 14 7 C13.01 8.485 13.01 8.485 12 10 C11.01 10 10.02 10 9 10 C9.16298584 11.12341797 9.32597168 12.24683594 9.49389648 13.40429688 C10.08153612 18.12614427 10.12708078 22.77854254 10.09765625 27.53125 C10.0962413 28.40777222 10.09482635 29.28429443 10.09336853 30.18737793 C10.08781768 32.95828821 10.07527461 35.72911457 10.0625 38.5 C10.05747864 40.39062382 10.05291685 42.28124893 10.04882812 44.171875 C10.0378644 48.78128183 10.02063425 53.39062673 10 58 C6.7 58 3.4 58 0 58 C0 38.86 0 19.72 0 0 Z " fill="#0567A4" transform="translate(373,479)"/>
<path d="M0 0 C3.63 0 7.26 0 11 0 C11 0.33 11 0.66 11 1 C7.7 1 4.4 1 1 1 C1 14.2 1 27.4 1 41 C-0.98 41.495 -0.98 41.495 -3 42 C-3.33 42.99 -3.66 43.98 -4 45 C-4.33 45.99 -4.66 46.98 -5 48 C-7.75893783 45.36327467 -10.02835171 42.71838157 -12.1640625 39.55859375 C-12.72867187 38.72779297 -13.29328125 37.89699219 -13.875 37.04101562 C-14.4525 36.18185547 -15.03 35.32269531 -15.625 34.4375 C-16.21023438 33.57447266 -16.79546875 32.71144531 -17.3984375 31.82226562 C-19.61128943 28.55627889 -21.811682 25.282477 -24 22 C-24.33 33.88 -24.66 45.76 -25 58 C-25.33 58 -25.66 58 -26 58 C-26.02505615 56.83017578 -26.0501123 55.66035156 -26.07592773 54.45507812 C-26.17058729 50.08649018 -26.27066153 45.71803972 -26.37231445 41.34960938 C-26.41544309 39.46422558 -26.45713222 37.57880826 -26.49731445 35.69335938 C-26.5555558 32.97255376 -26.61909068 30.25191352 -26.68359375 27.53125 C-26.70030624 26.69758911 -26.71701874 25.86392822 -26.73423767 25.00500488 C-26.86053855 19.9376645 -27.29184809 15.02006618 -28 10 C-26.68 9.67 -25.36 9.34 -24 9 C-23.67 7.35 -23.34 5.7 -23 4 C-19.38364075 7.30946638 -16.88293007 10.97562595 -14.25 15.0625 C-10.04600768 21.55517893 -5.56406086 27.72441631 -1 34 C-0.67 22.78 -0.34 11.56 0 0 Z " fill="#1372AB" transform="translate(409,479)"/>
<path d="M0 0 C4.85481745 0.80913624 8.86514735 1.93244073 13.3671875 3.72265625 C14.04677521 3.98759384 14.72636292 4.25253143 15.42654419 4.52549744 C17.57819715 5.36574735 19.72659782 6.21397748 21.875 7.0625 C23.34093767 7.63659954 24.80708159 8.2101727 26.2734375 8.78320312 C29.85137288 10.18272478 33.42641543 11.5894079 37 13 C37 13.66 37 14.32 37 15 C33.17995185 16.13068508 29.35708384 17.25124153 25.53149414 18.36303711 C23.6008605 18.92630815 21.67247235 19.49725755 19.74414062 20.06835938 C18.50986328 20.42607422 17.27558594 20.78378906 16.00390625 21.15234375 C14.87799072 21.48226318 13.7520752 21.81218262 12.59204102 22.15209961 C8.46320683 23.1267099 4.21635621 23.53151598 0 24 C0 16.08 0 8.16 0 0 Z " fill="#24A8E0" transform="translate(138,489)"/>
<path d="M0 0 C0.66 0 1.32 0 2 0 C2.33 7.92 2.66 15.84 3 24 C2.88136713 17.17859702 2.88136713 17.17859702 2.72973633 10.35791016 C2.72224365 9.51019043 2.71475098 8.6624707 2.70703125 7.7890625 C2.6913208 6.91975098 2.67561035 6.05043945 2.65942383 5.15478516 C2.77181396 4.44370605 2.8842041 3.73262695 3 3 C3.99 2.34 4.98 1.68 6 1 C6.66 1.66 7.32 2.32 8 3 C8.99 2.01 9.98 1.02 11 0 C11 15.84 11 31.68 11 48 C7.37 48 3.74 48 0 48 C0 32.16 0 16.32 0 0 Z " fill="#0566A3" transform="translate(836,489)"/>
<path d="M0 0 C-0.66 0.33 -1.32 0.66 -2 1 C-2.33 1.66 -2.66 2.32 -3 3 C-3.66 3.66 -4.32 4.32 -5 5 C-2.525 5.99 -2.525 5.99 0 7 C-0.2784375 7.8353125 -0.2784375 7.8353125 -0.5625 8.6875 C-1.17591323 11.02283746 -1.17591323 11.02283746 -0.375 13.375 C0.14128604 16.98900227 -1.20532156 18.91315308 -3 22 C-9.78525972 20.99422035 -15.68038258 19.0552627 -21.953125 16.30078125 C-25.87502009 14.62643373 -29.87752109 13.25290779 -33.91796875 11.89453125 C-36 11 -36 11 -37 9 C-30.21500533 6.27075495 -23.30344675 4.15244422 -16.25 2.25 C-15.44651123 2.02739502 -14.64302246 1.80479004 -13.81518555 1.57543945 C-9.06044205 0.32274269 -4.91563982 -0.2365816 0 0 Z " fill="#19A3DB" transform="translate(176,517)"/>
<path d="M0 0 C-0.309375 0.556875 -0.61875 1.11375 -0.9375 1.6875 C-2.11263352 3.99699948 -2.11263352 3.99699948 -2.5 6.6875 C-2.665 7.450625 -2.83 8.21375 -3 9 C-3.66 9.33 -4.32 9.66 -5 10 C-5.66 9.67 -6.32 9.34 -7 9 C-6.979375 9.804375 -6.95875 10.60875 -6.9375 11.4375 C-7 14 -7 14 -8 15 C-7.505 16.485 -7.505 16.485 -7 18 C-6.01 18 -5.02 18 -4 18 C-4.33 18.66 -4.66 19.32 -5 20 C-5.66 20 -6.32 20 -7 20 C-7 20.66 -7 21.32 -7 22 C-12.80869183 22.43027347 -16.67899369 21.60421592 -21.9921875 19.2890625 C-25.8240087 17.64685342 -29.71732681 16.20031483 -33.625 14.75 C-35.03387829 14.22402295 -36.44273436 13.69798637 -37.8515625 13.171875 C-38.89054688 12.78515625 -39.92953125 12.3984375 -41 12 C-37.82969887 10.26263533 -34.73157444 9.29001858 -31.23828125 8.37890625 C-30.11873047 8.08306641 -28.99917969 7.78722656 -27.84570312 7.48242188 C-26.67974609 7.17884766 -25.51378906 6.87527344 -24.3125 6.5625 C-17.36437629 4.74637997 -10.46571678 2.94046992 -3.69604492 0.53100586 C-2 0 -2 0 0 0 Z " fill="#0990CC" transform="translate(255,443)"/>
<path d="M0 0 C0.928125 0.8353125 0.928125 0.8353125 1.875 1.6875 C1.875 2.6775 1.875 3.6675 1.875 4.6875 C0.885 4.3575 -0.105 4.0275 -1.125 3.6875 C-1.455 4.6775 -1.785 5.6675 -2.125 6.6875 C-2.455 7.3475 -2.785 8.0075 -3.125 8.6875 C-2.465 9.0175 -1.805 9.3475 -1.125 9.6875 C-1.33125 10.30625 -1.5375 10.925 -1.75 11.5625 C-1.935625 12.614375 -1.935625 12.614375 -2.125 13.6875 C-1.465 14.3475 -0.805 15.0075 -0.125 15.6875 C-0.455 16.3475 -0.785 17.0075 -1.125 17.6875 C-5.9080729 17.13672191 -10.0189857 16.16200313 -14.49609375 14.40234375 C-15.64658203 13.95439453 -16.79707031 13.50644531 -17.98242188 13.04492188 C-19.16384766 12.57634766 -20.34527344 12.10777344 -21.5625 11.625 C-23.37524414 10.91633789 -23.37524414 10.91633789 -25.22460938 10.19335938 C-28.1940912 9.03138823 -31.16069469 7.86260011 -34.125 6.6875 C-34.125 6.0275 -34.125 5.3675 -34.125 4.6875 C-30.83998476 3.66472959 -27.54616583 2.67368439 -24.25 1.6875 C-23.3321875 1.40132813 -22.414375 1.11515625 -21.46875 0.8203125 C-14.35429416 -1.28396317 -7.06144972 -2.96580888 0 0 Z M-7.125 12.6875 C-6.795 13.6775 -6.465 14.6675 -6.125 15.6875 C-5.135 15.3575 -4.145 15.0275 -3.125 14.6875 C-4.445 14.0275 -5.765 13.3675 -7.125 12.6875 Z " fill="#1FA5DE" transform="translate(173.125,470.3125)"/>
<path d="M0 0 C6.26299788 -0.33854043 10.73109571 0.62833935 16.5 3 C17.22703125 3.28617187 17.9540625 3.57234375 18.703125 3.8671875 C20.47356588 4.56604574 22.23751382 5.28131632 24 6 C21.0009104 7.99939306 18.89078394 8.70893303 15.44140625 9.62109375 C14.33216797 9.91693359 13.22292969 10.21277344 12.08007812 10.51757812 C10.91927734 10.82115234 9.75847656 11.12472656 8.5625 11.4375 C6.87350586 11.88706055 6.87350586 11.88706055 5.15039062 12.34570312 C-2.21625746 14.29856383 -9.6016449 16.17122146 -17 18 C-16.01 14.7 -15.02 11.4 -14 8 C-13.34 8 -12.68 8 -12 8 C-12.33 6.68 -12.66 5.36 -13 4 C-12.34 4 -11.68 4 -11 4 C-10.34 5.32 -9.68 6.64 -9 8 C-8.67 7.34 -8.34 6.68 -8 6 C-7.34 6 -6.68 6 -6 6 C-5.67 5.34 -5.34 4.68 -5 4 C-4.01 4 -3.02 4 -2 4 C-1.34 2.68 -0.68 1.36 0 0 Z " fill="#98D5E6" transform="translate(172,453)"/>
<path d="M0 0 C2.63397911 2.03534749 3.07075276 3.2520567 4 6.5625 C4.67139937 10.24603436 4.67139937 10.24603436 8 12 C8.33 11.67 8.66 11.34 9 11 C10.70772358 10.91286169 12.41898649 10.89299993 14.12890625 10.90234375 C15.68061523 10.90717773 15.68061523 10.90717773 17.26367188 10.91210938 C18.35228516 10.92048828 19.44089844 10.92886719 20.5625 10.9375 C22.2012207 10.94426758 22.2012207 10.94426758 23.87304688 10.95117188 C26.58208495 10.96300174 29.29101599 10.97948457 32 11 C32 13.97 32 16.94 32 20 C21.11 20 10.22 20 -1 20 C-1 6 -1 6 0 0 Z " fill="#0267A6" transform="translate(767,517)"/>
<path d="M0 0 C-1.65 1.65 -3.3 3.3 -5 5 C-4.67 5.33 -4.34 5.66 -4 6 C-3.67 6.99 -3.34 7.98 -3 9 C-3.99 9.33 -4.98 9.66 -6 10 C-5.34 11.65 -4.68 13.3 -4 15 C-6.25 17.0625 -6.25 17.0625 -9 19 C-10.87841797 18.71850586 -10.87841797 18.71850586 -13 18 C-13.74523926 17.76095947 -14.49047852 17.52191895 -15.25830078 17.27563477 C-17.88265852 16.37727468 -20.50462171 15.47240505 -23.125 14.5625 C-24.04410156 14.24990234 -24.96320313 13.93730469 -25.91015625 13.61523438 C-26.78800781 13.31037109 -27.66585937 13.00550781 -28.5703125 12.69140625 C-29.37227051 12.41498291 -30.17422852 12.13855957 -31.00048828 11.85375977 C-33 11 -33 11 -35 9 C-31.92220779 6.94813853 -29.67666007 6.23965623 -26.125 5.30859375 C-24.97515625 5.00373047 -23.8253125 4.69886719 -22.640625 4.38476562 C-21.43921875 4.07216797 -20.2378125 3.75957031 -19 3.4375 C-16.62482784 2.81185111 -14.24981996 2.18557817 -11.875 1.55859375 C-10.82054687 1.28329834 -9.76609375 1.00800293 -8.6796875 0.72436523 C-2.68682397 -0.89560799 -2.68682397 -0.89560799 0 0 Z " fill="#0A91CD" transform="translate(251,496)"/>
<path d="M0 0 C15.51 0 31.02 0 47 0 C45 2 45 2 41.6640625 2.0546875 C39.63550245 1.97851627 37.6118837 1.87417081 35.5859375 1.74609375 C32.05647978 1.62798198 30.41955999 1.6373295 27.6953125 3.9921875 C27.13585937 4.65476562 26.57640625 5.31734375 26 6 C23.25 6.25 23.25 6.25 21 6 C21.33 6.33 21.66 6.66 22 7 C22.66 7 23.32 7 24 7 C24.66 8.32 25.32 9.64 26 11 C23.36 10.67 20.72 10.34 18 10 C18 25.84 18 41.68 18 58 C17.67 58 17.34 58 17 58 C17 42.16 17 26.32 17 10 C11.39 10 5.78 10 0 10 C0 6.7 0 3.4 0 0 Z " fill="#1E7DB5" transform="translate(627,479)"/>
<path d="M0 0 C0.33 0 0.66 0 1 0 C1 5.61 1 11.22 1 17 C8.59 17 16.18 17 24 17 C24 19.97 24 22.94 24 26 C13.11 26 2.22 26 -9 26 C-9 22.7 -9 19.4 -9 16 C-7.68 16.33 -6.36 16.66 -5 17 C-3.68 17 -2.36 17 -1 17 C-1 16.01 -1 15.02 -1 14 C-0.84376481 11.60346381 -0.6757931 9.20768098 -0.5 6.8125 C-0.4071875 5.54019531 -0.314375 4.26789062 -0.21875 2.95703125 C-0.1465625 1.98121094 -0.074375 1.00539063 0 0 Z " fill="#0267A5" transform="translate(326,511)"/>
<path d="M0 0 C0 0.99 0 1.98 0 3 C-1.32 3.33 -2.64 3.66 -4 4 C-3.34 4.33 -2.68 4.66 -2 5 C-3 7 -3 7 -5 8 C-4.34 8.33 -3.68 8.66 -3 9 C-3 9.66 -3 10.32 -3 11 C-5.78920389 11.8630406 -8.58086072 12.71572307 -11.375 13.5625 C-12.1690625 13.80935547 -12.963125 14.05621094 -13.78125 14.31054688 C-14.54179687 14.53935547 -15.30234375 14.76816406 -16.0859375 15.00390625 C-17.1385376 15.32597046 -17.1385376 15.32597046 -18.21240234 15.65454102 C-20 16 -20 16 -22 15 C-23.9107989 14.15329869 -25.82850254 13.32213324 -27.75 12.5 C-29.28914062 11.83484375 -29.28914062 11.83484375 -30.859375 11.15625 C-33.92772449 10.02660889 -36.76595831 9.42604142 -40 9 C-36.69460769 7.16495119 -33.4324947 6.2302077 -29.7734375 5.30859375 C-27.9790625 4.85129883 -27.9790625 4.85129883 -26.1484375 4.38476562 C-24.28058594 3.91586914 -24.28058594 3.91586914 -22.375 3.4375 C-19.90314474 2.81317853 -17.43176419 2.18697354 -14.9609375 1.55859375 C-13.86571777 1.28329834 -12.77049805 1.00800293 -11.64208984 0.72436523 C-7.08266224 -0.52566449 -4.88290086 -0.81381681 0 0 Z " fill="#7FCCE8" transform="translate(233,490)"/>
<path d="M0 0 C7.05560447 0.56321951 13.34192415 3.11400027 19.9375 5.5625 C21.09830078 5.98724609 22.25910156 6.41199219 23.45507812 6.84960938 C26.3056841 7.89365848 29.15382634 8.94394071 32 10 C29.07519816 12.27514575 26.69400272 13.63681228 23.125 14.6875 C21.89136719 15.06455078 21.89136719 15.06455078 20.6328125 15.44921875 C14.82449628 16.66431161 10.66903056 15.7925538 5.1875 13.625 C4.04667969 13.18414062 2.90585938 12.74328125 1.73046875 12.2890625 C-1 11 -1 11 -2 9 C-1.67 8.67 -1.34 8.34 -1 8 C-1.66 7.67 -2.32 7.34 -3 7 C-2.67 5.35 -2.34 3.7 -2 2 C-1.34 2 -0.68 2 0 2 C0 1.34 0 0.68 0 0 Z " fill="#0271B3" transform="translate(163,487)"/>
<path d="M0 0 C0.66 0 1.32 0 2 0 C2 5.61 2 11.22 2 17 C2.99 17 3.98 17 5 17 C6.65 17 8.3 17 10 17 C10 21.62 10 26.24 10 31 C9.01 31 8.02 31 7 31 C7 28.36 7 25.72 7 23 C5.68 22.67 4.36 22.34 3 22 C3.33 22.99 3.66 23.98 4 25 C4 28.86695678 2.58090029 31.5088452 1 35 C1.61875 34.505 2.2375 34.01 2.875 33.5 C5.58615121 31.5862462 6.67455984 32 10 32 C10 37.28 10 42.56 10 48 C6.7 48 3.4 48 0 48 C0 32.16 0 16.32 0 0 Z " fill="#0266A5" transform="translate(645,489)"/>
<path d="M0 0 C10.23 0.33 20.46 0.66 31 1 C31 2.98 31 4.96 31 7 C27.94727951 8.77650101 25.85453948 9.22009654 22.33984375 9.08984375 C21.46392578 9.06986328 20.58800781 9.04988281 19.68554688 9.02929688 C17.84947951 8.96796413 16.01353489 8.90284313 14.17773438 8.83398438 C13.30310547 8.81529297 12.42847656 8.79660156 11.52734375 8.77734375 C10.73062256 8.74890381 9.93390137 8.72046387 9.11303711 8.69116211 C6.47335536 9.07697348 5.74827153 10.06408426 4 12 C3.34 12 2.68 12 2 12 C1.34 13.32 0.68 14.64 0 16 C0 10.72 0 5.44 0 0 Z " fill="#0167A6" transform="translate(766,479)"/>
<path d="M0 0 C1.53946587 0.56849557 3.08099766 1.13144321 4.625 1.6875 C6.295625 2.3371875 6.295625 2.3371875 8 3 C7 5 7 5 4.76269531 5.86962891 C3.79428711 6.15241699 2.82587891 6.43520508 1.828125 6.7265625 C0.77109375 7.0359375 -0.2859375 7.3453125 -1.375 7.6640625 C-2.48875 7.98117187 -3.6025 8.29828125 -4.75 8.625 C-5.84828125 8.94984375 -6.9465625 9.2746875 -8.078125 9.609375 C-17.08043804 12.20955765 -17.08043804 12.20955765 -22 12 C-21.6875 9.125 -21.6875 9.125 -21 6 C-20.01 5.34 -19.02 4.68 -18 4 C-18.61875 3.87625 -19.2375 3.7525 -19.875 3.625 C-22 3 -22 3 -24 1 C-15.1100867 -2.21522801 -8.9149747 -3.96562668 0 0 Z " fill="#78CAE9" transform="translate(264,535)"/>
<path d="M0 0 C4.10232099 -0.260583 6.82056039 0.53290085 10.5625 2.1875 C11.60019531 2.63867188 12.63789063 3.08984375 13.70703125 3.5546875 C14.79371094 4.03164063 15.88039062 4.50859375 17 5 C19.24811233 5.94201762 21.49803378 6.87973293 23.75 7.8125 C25.5 8.54166667 27.25 9.27083333 29 10 C28 12 28 12 24.359375 13.32421875 C22.82543309 13.78706905 21.2888145 14.24111662 19.75 14.6875 C18.98558594 14.92533203 18.22117188 15.16316406 17.43359375 15.40820312 C13.28679968 16.62932297 10.25048504 17.40266006 6 16 C5.67 15.01 5.34 14.02 5 13 C5.66 13 6.32 13 7 13 C7 12.34 7 11.68 7 11 C6.01 11.33 5.02 11.66 4 12 C3.33139964 10.18821242 2.66516988 8.37554984 2 6.5625 C1.62875 5.55316406 1.2575 4.54382813 0.875 3.50390625 C0 1 0 1 0 0 Z " fill="#1376B2" transform="translate(165,538)"/>
<path d="M0 0 C11.22 0 22.44 0 34 0 C34 3.3 34 6.6 34 10 C26.74 10 19.48 10 12 10 C12 14.29 12 18.58 12 23 C11.67 23 11.34 23 11 23 C11 18.38 11 13.76 11 9 C15.455 8.505 15.455 8.505 20 8 C20.33 7.01 20.66 6.02 21 5 C15.69421454 0.44885995 15.69421454 0.44885995 1 1 C1 19.81 1 38.62 1 58 C0.67 58 0.34 58 0 58 C0 38.86 0 19.72 0 0 Z " fill="#2C86BB" transform="translate(316,479)"/>
<path d="M0 0 C7.59 0 15.18 0 23 0 C23 0.33 23 0.66 23 1 C15.74 1 8.48 1 1 1 C1.33 4.96 1.66 8.92 2 13 C7.94 13.33 13.88 13.66 20 14 C19.125 22.875 19.125 22.875 18 24 C15.13732433 24.07325168 12.299281 24.09238205 9.4375 24.0625 C8.63119141 24.05798828 7.82488281 24.05347656 6.99414062 24.04882812 C4.99606244 24.03700518 2.99802217 24.01906914 1 24 C1 28.95 1 33.9 1 39 C8.26 39 15.52 39 23 39 C23 39.33 23 39.66 23 40 C15.41 40 7.82 40 0 40 C-0.061875 37.256875 -0.12375 34.51375 -0.1875 31.6875 C-0.21481201 30.82729248 -0.24212402 29.96708496 -0.27026367 29.08081055 C-0.27775635 28.39801025 -0.28524902 27.71520996 -0.29296875 27.01171875 C-0.3086792 26.31522217 -0.32438965 25.61872559 -0.34057617 24.90112305 C0.10102722 22.43605811 1.19749805 21.67711051 3 20 C3.33 19.01 3.66 18.02 4 17 C4.66 17 5.32 17 6 17 C6 16.34 6 15.68 6 15 C5.195625 15.020625 4.39125 15.04125 3.5625 15.0625 C1 15 1 15 0 14 C-0.14426614 9.33154772 -0.04208415 4.67134047 0 0 Z " fill="#3486B5" transform="translate(525,488)"/>
<path d="M0 0 C15.18 0 30.36 0 46 0 C45.67 1.32 45.34 2.64 45 4 C45 3.01 45 2.02 45 1 C35.1 1.33 25.2 1.66 15 2 C15 2.66 15 3.32 15 4 C14.34 4 13.68 4 13 4 C13.33 4.99 13.66 5.98 14 7 C15.32 7.33 16.64 7.66 18 8 C18 24.5 18 41 18 58 C17.67 58 17.34 58 17 58 C17 42.16 17 26.32 17 10 C11.39 10 5.78 10 0 10 C0 6.7 0 3.4 0 0 Z " fill="#3A8ABA" transform="translate(818,479)"/>
<path d="M0 0 C1.81242052 -0.02687279 3.62495233 -0.04633715 5.4375 -0.0625 C6.44683594 -0.07410156 7.45617187 -0.08570313 8.49609375 -0.09765625 C11 0 11 0 12 1 C11.82236496 4.35214508 11.38013585 7.66325198 11 11 C5.06 11 -0.88 11 -7 11 C-7 15.95 -7 20.9 -7 26 C0.26 26 7.52 26 15 26 C15 26.33 15 26.66 15 27 C7.41 27 -0.18 27 -8 27 C-8 21.06 -8 15.12 -8 9 C-8.66 8.67 -9.32 8.34 -10 8 C-9.75 6.125 -9.75 6.125 -9 4 C-6.04454879 1.88896342 -3.56144099 1.80214217 0 2 C0 1.34 0 0.68 0 0 Z " fill="#1F75AA" transform="translate(335,501)"/>
<path d="M0 0 C-0.33 2.97 -0.66 5.94 -1 9 C-4.38125573 10.12708524 -4.69113412 9.93898965 -7.75 8.5625 C-11.63591185 7.00241016 -14.77827761 6.58610565 -19 7 C-22.22404978 8.66954819 -22.22404978 8.66954819 -22.6875 11.625 C-22.790625 12.40875 -22.89375 13.1925 -23 14 C-23.33 14 -23.66 14 -24 14 C-24 11.69 -24 9.38 -24 7 C-23.34 7 -22.68 7 -22 7 C-22 6.34 -22 5.68 -22 5 C-20.5 3.375 -20.5 3.375 -19 2 C-19.99 1.67 -20.98 1.34 -22 1 C-22 0.01 -22 -0.98 -22 -2 C-22.66 -2.33 -23.32 -2.66 -24 -3 C-15.88263478 -5.0293413 -7.09092373 -4.72728249 0 0 Z " fill="#2E81B2" transform="translate(607,482)"/>
<path d="M0 0 C0.79921875 0.00902344 1.5984375 0.01804687 2.421875 0.02734375 C3.02515625 0.03894531 3.6284375 0.05054688 4.25 0.0625 C5.12840996 3.15970845 5.24435406 4.96895403 4.25 8.0625 C3.59 8.0625 2.93 8.0625 2.25 8.0625 C4.30611756 11.05647838 4.30611756 11.05647838 7.25 13.0625 C6.92 13.7225 6.59 14.3825 6.25 15.0625 C0.16913584 13.9766314 -5.47079219 12.19946887 -11.25 10.0625 C-11.96865234 9.80130371 -12.68730469 9.54010742 -13.42773438 9.27099609 C-18.62794481 7.30661038 -18.62794481 7.30661038 -19.75 5.0625 C-18.00093469 4.41413958 -16.25070781 3.76891216 -14.5 3.125 C-13.52546875 2.76535156 -12.5509375 2.40570312 -11.546875 2.03515625 C-7.52377517 0.63606148 -4.2691243 -0.06278124 0 0 Z " fill="#22A7DF" transform="translate(158.75,520.9375)"/>
<path d="M0 0 C2.3125 1.0625 2.3125 1.0625 4 3 C5.10373378 6.97344161 5.41543583 9.08999772 3.6875 12.875 C2 15 2 15 0 16 C-6.47058824 16.35294118 -6.47058824 16.35294118 -10 14 C-11.03440929 11.00844132 -11.26593322 8.14778097 -11 5 C-7.9423553 0.4598609 -5.42670266 -0.92369407 0 0 Z " fill="#9BC2D3" transform="translate(886,479)"/>
<path d="M0 0 C0.33 0 0.66 0 1 0 C1 17.82 1 35.64 1 54 C-9 54 -9 54 -11.32421875 52.13671875 C-11.77410156 51.32847656 -12.22398437 50.52023437 -12.6875 49.6875 C-13.40486328 48.48673828 -13.40486328 48.48673828 -14.13671875 47.26171875 C-15 45 -15 45 -14 42 C-13.34 42 -12.68 42 -12 42 C-11.67 40.35 -11.34 38.7 -11 37 C-9.68 38.32 -8.36 39.64 -7 41 C-7.33 41.66 -7.66 42.32 -8 43 C-5.69 43 -3.38 43 -1 43 C-0.67 28.81 -0.34 14.62 0 0 Z " fill="#0668A4" transform="translate(739,483)"/>
<path d="M0 0 C3.18005028 3.88672813 6.10554447 7.89952133 9 12 C9.33 8.7 9.66 5.4 10 2 C10.33 2 10.66 2 11 2 C11.05398987 4.27057377 11.09278742 6.54151288 11.125 8.8125 C11.14820313 10.07707031 11.17140625 11.34164062 11.1953125 12.64453125 C11 16 11 16 9 19 C8.34 19 7.68 19 7 19 C7 19.99 7 20.98 7 22 C5.35 22.33 3.7 22.66 2 23 C0.12902515 20.4075352 -1.71870837 17.799351 -3.5625 15.1875 C-4.09552734 14.44951172 -4.62855469 13.71152344 -5.17773438 12.95117188 C-5.67724609 12.23896484 -6.17675781 11.52675781 -6.69140625 10.79296875 C-7.15748291 10.1383667 -7.62355957 9.48376465 -8.10375977 8.80932617 C-9 7 -9 7 -8 4 C-7.34 4.33 -6.68 4.66 -6 5 C-5.375 7.5625 -5.375 7.5625 -5 10 C-3.68 10 -2.36 10 -1 10 C-1.020625 8.906875 -1.04125 7.81375 -1.0625 6.6875 C-1 3 -1 3 0 0 Z " fill="#1C75AB" transform="translate(719,501)"/>
<path d="M0 0 C0 0.99 0 1.98 0 3 C1.65 3.33 3.3 3.66 5 4 C3.625 5.5 3.625 5.5 2 7 C1.34 7 0.68 7 0 7 C0 7.66 0 8.32 0 9 C-0.66 9 -1.32 9 -2 9 C-1.835 10.093125 -1.67 11.18625 -1.5 12.3125 C-1 16 -1 16 -1 19 C-4.4352048 21.29013653 -5.985331 21.17842973 -10 21 C-12.01248119 16.97503762 -12.31771296 12.44187156 -12 8 C-9.193339 2.76029196 -5.98401054 0 0 0 Z " fill="#0C6FAB" transform="translate(585,480)"/>
<path d="M0 0 C3.34292611 3.1019945 5.76244801 6.43575362 8.25 10.25 C8.95640625 11.32765625 9.6628125 12.4053125 10.390625 13.515625 C10.92171875 14.33546875 11.4528125 15.1553125 12 16 C11.34 16.33 10.68 16.66 10 17 C10 16.34 10 15.68 10 15 C9.34 15 8.68 15 8 15 C7.34 15.66 6.68 16.32 6 17 C3.375 16.625 3.375 16.625 1 16 C1.33 17.65 1.66 19.3 2 21 C1.01 20.01 0.02 19.02 -1 18 C-1.33 29.88 -1.66 41.76 -2 54 C-2.33 54 -2.66 54 -3 54 C-3.02505615 52.83017578 -3.0501123 51.66035156 -3.07592773 50.45507812 C-3.17058729 46.08649018 -3.27066153 41.71803972 -3.37231445 37.34960938 C-3.41544309 35.46422558 -3.45713222 33.57880826 -3.49731445 31.69335938 C-3.5555558 28.97255376 -3.61909068 26.25191352 -3.68359375 23.53125 C-3.70030624 22.69758911 -3.71701874 21.86392822 -3.73423767 21.00500488 C-3.86053855 15.9376645 -4.29184809 11.02006618 -5 6 C-3.68 5.67 -2.36 5.34 -1 5 C-0.67 3.35 -0.34 1.7 0 0 Z " fill="#2C85B7" transform="translate(386,483)"/>
<path d="M0 0 C0.66 0.66 1.32 1.32 2 2 C1.01 2.33 0.02 2.66 -1 3 C-1.1315587 5.87392291 -1.1315587 5.87392291 -0.4375 8.0625 C0 10 0 10 -1 12 C0.32 12 1.64 12 3 12 C3 12.66 3 13.32 3 14 C-5.13815304 11.69356492 -13.05682118 8.89571216 -21 6 C-21 5.34 -21 4.68 -21 4 C-13.81921437 1.27834859 -7.71908047 -0.74700779 0 0 Z " fill="#096AA6" transform="translate(218,455)"/>
<path d="M0 0 C-0.33 0.66 -0.66 1.32 -1 2 C-0.67 2.99 -0.34 3.98 0 5 C-1.65 5.33 -3.3 5.66 -5 6 C-4.01 7.485 -4.01 7.485 -3 9 C-3.33 9.99 -3.66 10.98 -4 12 C-6.0625 12.6875 -6.0625 12.6875 -8 13 C-8 12.34 -8 11.68 -8 11 C-8.763125 10.9175 -9.52625 10.835 -10.3125 10.75 C-15.4149117 9.71222135 -20.1455494 7.85712968 -25 6 C-21.69214225 3.7947615 -18.53628252 2.8752899 -14.75 1.875 C-14.10675781 1.69324219 -13.46351563 1.51148438 -12.80078125 1.32421875 C-8.44202859 0.15779198 -4.49960249 -0.17485502 0 0 Z " fill="#8CD0E6" transform="translate(220,543)"/>
<path d="M0 0 C3.63 0 7.26 0 11 0 C11 0.33 11 0.66 11 1 C7.7 1 4.4 1 1 1 C1 14.2 1 27.4 1 41 C-0.98 41.495 -0.98 41.495 -3 42 C-3.33 42.99 -3.66 43.98 -4 45 C-4.33 45.99 -4.66 46.98 -5 48 C-8.08089673 45.22719294 -9.68775452 42.93673644 -11 39 C-7.58452396 34.92770164 -6.78841501 34.96473584 -1 34 C-0.67 22.78 -0.34 11.56 0 0 Z " fill="#3588B9" transform="translate(409,479)"/>
<path d="M0 0 C0.33 0 0.66 0 1 0 C1 5.61 1 11.22 1 17 C8.59 17 16.18 17 24 17 C20.25643858 18.87178071 19.49193805 19.24942415 15.671875 18.9765625 C14.87265625 18.925 14.0734375 18.8734375 13.25 18.8203125 C12.425 18.75585938 11.6 18.69140625 10.75 18.625 C9.90953125 18.56828125 9.0690625 18.5115625 8.203125 18.453125 C6.13470958 18.31209668 4.0672354 18.15738212 2 18 C2.33 19.65 2.66 21.3 3 23 C1.68 23 0.36 23 -1 23 C-0.01 23.66 0.98 24.32 2 25 C-0.52053595 26.26026798 -1.8542098 25.91874445 -4.625 25.5625 C-5.44226563 25.46066406 -6.25953125 25.35882812 -7.1015625 25.25390625 C-7.72804688 25.17011719 -8.35453125 25.08632813 -9 25 C-9 22.36 -9 19.72 -9 17 C-8.01 16.67 -7.02 16.34 -6 16 C-6 16.99 -6 17.98 -6 19 C-5.16640629 18.16640629 -4.36066808 17.305074 -3.5625 16.4375 C-2 15 -2 15 0 15 C0 10.05 0 5.1 0 0 Z " fill="#0264A2" transform="translate(524,511)"/>
<path d="M0 0 C5.11476819 -0.63934602 8.67254378 1.59466453 13 4 C12.34 5.65 11.68 7.3 11 9 C11.99 9.33 12.98 9.66 14 10 C12.6875 12.5 12.6875 12.5 11 15 C10.01 15 9.02 15 8 15 C7.67 15.66 7.34 16.32 7 17 C6.34 15.68 5.68 14.36 5 13 C5.66 13 6.32 13 7 13 C7 12.34 7 11.68 7 11 C6.01 11.33 5.02 11.66 4 12 C3.33139964 10.18821242 2.66516988 8.37554984 2 6.5625 C1.62875 5.55316406 1.2575 4.54382813 0.875 3.50390625 C0 1 0 1 0 0 Z " fill="#0271B3" transform="translate(165,538)"/>
<path d="M0 0 C-0.99 0.33 -1.98 0.66 -3 1 C-2.01 1.66 -1.02 2.32 0 3 C0 3.66 0 4.32 0 5 C1.32 5 2.64 5 4 5 C3.67 6.32 3.34 7.64 3 9 C3.66 9.33 4.32 9.66 5 10 C-0.02736679 11.25494027 -2.93161658 10.64840431 -7.6875 8.6875 C-8.80511719 8.23761719 -9.92273438 7.78773438 -11.07421875 7.32421875 C-14 6 -14 6 -17 4 C-15.75108386 3.51801537 -14.50081192 3.03954323 -13.25 2.5625 C-12.55390625 2.29566406 -11.8578125 2.02882813 -11.140625 1.75390625 C-7.29793578 0.40055037 -4.08542913 -0.11348414 0 0 Z " fill="#0266A4" transform="translate(213,506)"/>
<path d="M0 0 C0.33 0 0.66 0 1 0 C1 15.84 1 31.68 1 48 C0.67 48 0.34 48 0 48 C0 42.72 0 37.44 0 32 C-0.99 32 -1.98 32 -3 32 C-3.33 32.66 -3.66 33.32 -4 34 C-4.66 34 -5.32 34 -6 34 C-7.485 34.495 -7.485 34.495 -9 35 C-8.67 33.906875 -8.34 32.81375 -8 31.6875 C-6.88755617 27.58536337 -6.89270386 25.01394851 -8 21 C-5.525 21.99 -5.525 21.99 -3 23 C-3 25.64 -3 28.28 -3 31 C-2.01 31 -1.02 31 0 31 C0 20.77 0 10.54 0 0 Z " fill="#1779B5" transform="translate(655,489)"/>
<path d="M0 0 C0 1.32 0 2.64 0 4 C-0.99 4.33 -1.98 4.66 -3 5 C-0.03 5.33 2.94 5.66 6 6 C4 8 4 8 1.6171875 8.1953125 C0.71226562 8.17210937 -0.19265625 8.14890625 -1.125 8.125 C-3.538125 8.063125 -3.538125 8.063125 -6 8 C-6 13.28 -6 18.56 -6 24 C1.26 24 8.52 24 16 24 C16 24.33 16 24.66 16 25 C8.41 25 0.82 25 -7 25 C-7 19.06 -7 13.12 -7 7 C-7.66 6.67 -8.32 6.34 -9 6 C-8.75 4.125 -8.75 4.125 -8 2 C-5.06004981 -0.02755186 -3.72295997 0 0 0 Z " fill="#2D8DC2" transform="translate(334,503)"/>
<path d="M0 0 C0.99 0.33 1.98 0.66 3 1 C3 1.66 3 2.32 3 3 C3.99 3.33 4.98 3.66 6 4 C7.15837626 8.05431692 6.83691257 10.21812119 5 14 C3.68 14 2.36 14 1 14 C0.67 13.01 0.34 12.02 0 11 C-0.81562924 8.81846156 -0.81562924 8.81846156 -3 8.1875 C-5 7 -5 7 -5.75 4.375 C-5.8325 3.59125 -5.915 2.8075 -6 2 C-4.35 2 -2.7 2 -1 2 C-0.67 1.34 -0.34 0.68 0 0 Z M3 9 C2.67 9.66 2.34 10.32 2 11 C2.66 11 3.32 11 4 11 C3.67 10.34 3.34 9.68 3 9 Z " fill="#0169A9" transform="translate(393,497)"/>
<path d="M0 0 C3.27275026 0 5.846632 0.29925156 9 1 C9 4.3 9 7.6 9 11 C6.03 11 3.06 11 0 11 C0 7.37 0 3.74 0 0 Z " fill="#0167A7" transform="translate(694,526)"/>
<path d="M0 0 C3.96 0 7.92 0 12 0 C12.66 1.98 13.32 3.96 14 6 C12.02 6.66 10.04 7.32 8 8 C7.67 6.68 7.34 5.36 7 4 C6.34 4 5.68 4 5 4 C5.33 5.32 5.66 6.64 6 8 C4.68 8.33 3.36 8.66 2 9 C0.50178941 5.62902617 0 3.79557881 0 0 Z " fill="#2B7EB0" transform="translate(439,478)"/>
<path d="M0 0 C10.89 0 21.78 0 33 0 C33 3.3 33 6.6 33 10 C25.41 10 17.82 10 10 10 C10 9.67 10 9.34 10 9 C11.68029297 8.92652344 11.68029297 8.92652344 13.39453125 8.8515625 C14.86721203 8.77652144 16.33986707 8.70097418 17.8125 8.625 C18.55048828 8.5940625 19.28847656 8.563125 20.04882812 8.53125 C23.81893115 8.32653852 25.79650741 8.13566173 29 6 C29.33 4.35 29.66 2.7 30 1 C20.1 1 10.2 1 0 1 C0 0.67 0 0.34 0 0 Z " fill="#3188BB" transform="translate(767,479)"/>
<path d="M0 0 C1.84765625 0.33984375 1.84765625 0.33984375 4.0625 0.9375 C4.79597656 1.13214844 5.52945313 1.32679688 6.28515625 1.52734375 C7.13400391 1.76130859 7.13400391 1.76130859 8 2 C2.93074271 6.16987293 -3.0100158 7.7864297 -9.5 8.25 C-12 8 -12 8 -14 7 C-14 6.01 -14 5.02 -14 4 C-13.39671875 3.95101563 -12.7934375 3.90203125 -12.171875 3.8515625 C-11.37265625 3.77679688 -10.5734375 3.70203125 -9.75 3.625 C-8.56664062 3.52058594 -8.56664062 3.52058594 -7.359375 3.4140625 C-4.51655952 2.9151578 -2.07250561 2.07250561 0 0 Z " fill="#1478B2" transform="translate(187,495)"/>
<path d="M0 0 C2.97 0.495 2.97 0.495 6 1 C6 1.66 6 2.32 6 3 C7.65 3 9.3 3 11 3 C11.125 9.625 11.125 9.625 10 13 C8.68 13 7.36 13 6 13 C5.38125 11.6696875 5.38125 11.6696875 4.75 10.3125 C3.09872712 7.18687634 1.28668741 4.68094386 -1 2 C-0.67 1.34 -0.34 0.68 0 0 Z " fill="#016AAA" transform="translate(708,498)"/>
<path d="M0 0 C0.66 0 1.32 0 2 0 C2 12.54 2 25.08 2 38 C0 37 0 37 -0.61669922 35.3972168 C-1.13948053 32.12766921 -1.12996876 28.95565951 -1.1328125 25.64453125 C-1.13424759 24.59116829 -1.13424759 24.59116829 -1.13571167 23.51652527 C-1.1363902 22.03811554 -1.13455875 20.55970278 -1.13037109 19.08129883 C-1.12499406 16.80999142 -1.13033938 14.5388796 -1.13671875 12.26757812 C-1.13605838 10.83072873 -1.13477808 9.39387945 -1.1328125 7.95703125 C-1.13168457 6.64710205 -1.13055664 5.33717285 -1.12939453 3.98754883 C-1 1 -1 1 0 0 Z " fill="#5AACD3" transform="translate(272,439)"/>
<path d="M0 0 C0 0.66 0 1.32 0 2 C1.32 2.33 2.64 2.66 4 3 C4.36923077 8.53846154 4.36923077 8.53846154 2.5 10.875 C2.005 11.24625 1.51 11.6175 1 12 C-1.9375 10.375 -1.9375 10.375 -5 8 C-5.875 4.75 -5.875 4.75 -6 2 C-3 0 -3 0 0 0 Z M-3 12 C-2.01 12 -1.02 12 0 12 C0 12.66 0 13.32 0 14 C-0.99 13.67 -1.98 13.34 -3 13 C-3 12.67 -3 12.34 -3 12 Z " fill="#0169AA" transform="translate(604,515)"/>
<path d="M0 0 C0.66 0 1.32 0 2 0 C2 12.54 2 25.08 2 38 C1.34 37.67 0.68 37.34 0 37 C-0.93091169 32.95241367 -1.12825966 29.04380263 -1.1328125 24.90234375 C-1.13410156 23.77119141 -1.13539063 22.64003906 -1.13671875 21.47460938 C-1.13285156 20.30736328 -1.12898438 19.14011719 -1.125 17.9375 C-1.12886719 16.76638672 -1.13273437 15.59527344 -1.13671875 14.38867188 C-1.13542969 13.25880859 -1.13414062 12.12894531 -1.1328125 10.96484375 C-1.13168457 9.9399585 -1.13055664 8.91507324 -1.12939453 7.85913086 C-1.00608583 5.13447391 -0.61326518 2.65311792 0 0 Z " fill="#5EAED5" transform="translate(272,489)"/>
<path d="M0 0 C3.875 0.875 3.875 0.875 5 2 C5.23287008 3.68183948 5.41264166 5.3712416 5.5625 7.0625 C5.64628906 7.98160156 5.73007812 8.90070312 5.81640625 9.84765625 C5.87699219 10.55792969 5.93757813 11.26820313 6 12 C2.625 12.1875 2.625 12.1875 -1 12 C-3 9 -3 9 -2.75 6.5625 C-2.05282249 4.18047686 -1.20252143 2.16453858 0 0 Z " fill="#0168A8" transform="translate(414,525)"/>
<path d="M0 0 C6.15743187 0.25655966 11.39480723 2.57521842 17 5 C11.50692074 7.85448224 6.23812752 9.4352182 0 9 C-0.66 8.67 -1.32 8.34 -2 8 C-2 7.34 -2 6.68 -2 6 C-0.35 5.34 1.3 4.68 3 4 C2.67 5.32 2.34 6.64 2 8 C3.32 7.34 4.64 6.68 6 6 C5.34 5.34 4.68 4.68 4 4 C4 3.67 4 3.34 4 3 C1.03 2.505 1.03 2.505 -2 2 C-1.34 1.34 -0.68 0.68 0 0 Z " fill="#088BC9" transform="translate(237,527)"/>
<path d="M0 0 C-1.96382007 1.50559539 -3.78263366 2.89131683 -6 4 C-5.34 4.33 -4.68 4.66 -4 5 C-4 5.66 -4 6.32 -4 7 C-2.68 7.66 -1.36 8.32 0 9 C0.33 8.34 0.66 7.68 1 7 C1.33 7.99 1.66 8.98 2 10 C1.31292969 10.04898437 0.62585938 10.09796875 -0.08203125 10.1484375 C-0.98308594 10.22320312 -1.88414062 10.29796875 -2.8125 10.375 C-3.70582031 10.44460938 -4.59914063 10.51421875 -5.51953125 10.5859375 C-8.24398499 10.86645036 -8.24398499 10.86645036 -11 13 C-11.72965366 15.56282742 -11.72965366 15.56282742 -12 18 C-12.33 18 -12.66 18 -13 18 C-13 15.69 -13 13.38 -13 11 C-12.34 11 -11.68 11 -11 11 C-11 10.34 -11 9.68 -11 9 C-9.5 7.375 -9.5 7.375 -8 6 C-8.99 5.67 -9.98 5.34 -11 5 C-11 4.01 -11 3.02 -11 2 C-11.66 1.67 -12.32 1.34 -13 1 C-8.59085217 -0.10228696 -4.51617599 -0.07654536 0 0 Z " fill="#297AAA" transform="translate(596,478)"/>
<path d="M0 0 C0.33 0 0.66 0 1 0 C1.05398987 2.27057377 1.09278742 4.54151288 1.125 6.8125 C1.14820313 8.07707031 1.17140625 9.34164062 1.1953125 10.64453125 C1 14 1 14 -1 17 C-1.66 17 -2.32 17 -3 17 C-3 17.99 -3 18.98 -3 20 C-4.65 20.33 -6.3 20.66 -8 21 C-8.99 19.02 -9.98 17.04 -11 15 C-9.02 15 -7.04 15 -5 15 C-5 14.01 -5 13.02 -5 12 C-4.34 12 -3.68 12 -3 12 C-3 11.34 -3 10.68 -3 10 C-2.34 10 -1.68 10 -1 10 C-0.67 6.7 -0.34 3.4 0 0 Z " fill="#3184B5" transform="translate(729,503)"/>
<path d="M0 0 C0.61875 0.33 1.2375 0.66 1.875 1 C3.91018344 2.14193235 3.91018344 2.14193235 6 2 C6.33 1.34 6.66 0.68 7 0 C7.6640625 1.76953125 7.6640625 1.76953125 8 4 C5.91470775 7.78645171 3.23756569 10.59644597 -0.875 11.9375 C-1.57625 11.958125 -2.2775 11.97875 -3 12 C-2.49396008 9.83125748 -2.00016187 8.00032373 -1 6 C-1.99 5.34 -2.98 4.68 -4 4 C-2.68 2.68 -1.36 1.36 0 0 Z M0 3 C0.33 3.66 0.66 4.32 1 5 C1.66 5 2.32 5 3 5 C3 4.34 3 3.68 3 3 C2.01 3 1.02 3 0 3 Z " fill="#0F6EA9" transform="translate(601,524)"/>
<path d="M0 0 C0.66 0 1.32 0 2 0 C2 0.99 2 1.98 2 3 C3.65 3.33 5.3 3.66 7 4 C5.625 5.5 5.625 5.5 4 7 C3.34 7 2.68 7 2 7 C2 7.66 2 8.32 2 9 C1.34 9 0.68 9 0 9 C0.33 11.64 0.66 14.28 1 17 C-0.32 16.67 -1.64 16.34 -3 16 C-4.28571429 8.57142857 -4.28571429 8.57142857 -3 5 C-2.34 5 -1.68 5 -1 5 C-1 4.34 -1 3.68 -1 3 C-1.66 2.67 -2.32 2.34 -3 2 C-2.01 2 -1.02 2 0 2 C0 1.34 0 0.68 0 0 Z " fill="#0268A8" transform="translate(583,480)"/>
<path d="M0 0 C0.66 0 1.32 0 2 0 C2.66 0.99 3.32 1.98 4 3 C5.65 2.67 7.3 2.34 9 2 C9.93423645 5.01031744 10.04449911 5.86650268 9 9 C8.01 9 7.02 9 6 9 C5.67 9.99 5.34 10.98 5 12 C4.67 11.01 4.34 10.02 4 9 C3.34 9 2.68 9 2 9 C1.67 8.34 1.34 7.68 1 7 C0.01 6.34 -0.98 5.68 -2 5 C-1.34 4.34 -0.68 3.68 0 3 C0 2.01 0 1.02 0 0 Z " fill="#036BAB" transform="translate(444,482)"/>
<path d="M0 0 C3.63 0 7.26 0 11 0 C11 1.65 11 3.3 11 5 C10.34 5 9.68 5 9 5 C9 5.66 9 6.32 9 7 C5.37471432 7.20140476 3.13498292 6.85776765 0 5 C0 3.35 0 1.7 0 0 Z " fill="#0267A5" transform="translate(694,480)"/>
<path d="M0 0 C0.66 0 1.32 0 2 0 C2.06058594 0.96421875 2.12117187 1.9284375 2.18359375 2.921875 C2.26738281 4.18515625 2.35117188 5.4484375 2.4375 6.75 C2.55931641 8.62945313 2.55931641 8.62945313 2.68359375 10.546875 C2.88822208 13.83007658 2.88822208 13.83007658 3.59765625 16.265625 C4 18 4 18 3 21 C3.66 21 4.32 21 5 21 C5 21.66 5 22.32 5 23 C4.01 23 3.02 23 2 23 C2 23.99 2 24.98 2 26 C2.99 26.33 3.98 26.66 5 27 C3.35 27 1.7 27 0 27 C0 18.09 0 9.18 0 0 Z " fill="#539BC0" transform="translate(136,588)"/>
<path d="M0 0 C2.97 0 5.94 0 9 0 C8.01 0.66 7.02 1.32 6 2 C8.31 2 10.62 2 13 2 C13 2.66 13 3.32 13 4 C12.34 4.66 11.68 5.32 11 6 C11 6.66 11 7.32 11 8 C7 8 7 8 4 7 C3.67 6.01 3.34 5.02 3 4 C0.99983534 2.79117904 0.99983534 2.79117904 -1 2 C-0.67 1.34 -0.34 0.68 0 0 Z " fill="#0167A6" transform="translate(589,479)"/>
<path d="M0 0 C3.3 0.99 6.6 1.98 10 3 C10 3.66 10 4.32 10 5 C4.83430559 6.79217969 1.48946087 7.12029814 -4 6 C-3 4 -3 4 -1 2 C-0.67 1.34 -0.34 0.68 0 0 Z " fill="#1AA0D9" transform="translate(165,499)"/>
<path d="M0 0 C0.33 0 0.66 0 1 0 C0.67 2.97 0.34 5.94 0 9 C-0.99 9 -1.98 9 -3 9 C-2.91621094 9.83144531 -2.83242188 10.66289062 -2.74609375 11.51953125 C-2.64425781 12.60621094 -2.54242187 13.69289063 -2.4375 14.8125 C-2.33308594 15.89144531 -2.22867188 16.97039062 -2.12109375 18.08203125 C-2 21 -2 21 -3 24 C-3.66 23.67 -4.32 23.34 -5 23 C-5 16.73 -5 10.46 -5 4 C-4.34 4 -3.68 4 -3 4 C-3 4.66 -3 5.32 -3 6 C-2.34 6 -1.68 6 -1 6 C-0.67 4.02 -0.34 2.04 0 0 Z " fill="#016BAD" transform="translate(775,493)"/>
<path d="M0 0 C1.875 0.625 1.875 0.625 4 2 C6.0226284 6.34865106 6.3660622 10.2411914 6 15 C5.34 15.66 4.68 16.32 4 17 C3.67 14.36 3.34 11.72 3 9 C2.01 8.67 1.02 8.34 0 8 C0 7.34 0 6.68 0 6 C-0.66 6 -1.32 6 -2 6 C-1.34 4.02 -0.68 2.04 0 0 Z " fill="#1B77AD" transform="translate(604,509)"/>
<path d="M0 0 C-0.66 1.32 -1.32 2.64 -2 4 C-2.66 4 -3.32 4 -4 4 C-4.268125 4.804375 -4.53625 5.60875 -4.8125 6.4375 C-5.204375 7.283125 -5.59625 8.12875 -6 9 C-6.99 9.33 -7.98 9.66 -9 10 C-9.33 7.69 -9.66 5.38 -10 3 C-10.99 2.67 -11.98 2.34 -13 2 C-8.46298506 0.54815522 -4.81938524 -0.23509196 0 0 Z " fill="#177CB7" transform="translate(174,567)"/>
<path d="M0 0 C0.99 0.66 1.98 1.32 3 2 C4.9896995 2.39013716 6.99019869 2.73202649 9 3 C5.54792524 4.96529009 2.11523774 5.7746477 -1.75 6.625 C-2.92046875 6.88539063 -4.0909375 7.14578125 -5.296875 7.4140625 C-6.18890625 7.60742188 -7.0809375 7.80078125 -8 8 C-7.67 6.35 -7.34 4.7 -7 3 C-3.25 1.875 -3.25 1.875 -1 3 C-0.67 2.01 -0.34 1.02 0 0 Z " fill="#247DB2" transform="translate(178,598)"/>
<path d="M0 0 C2.97 0.495 2.97 0.495 6 1 C5.979375 1.94875 5.95875 2.8975 5.9375 3.875 C5.77448174 6.90666283 5.77448174 6.90666283 7 9 C6.01 9 5.02 9 4 9 C3.67 8.34 3.34 7.68 3 7 C2.67 7.66 2.34 8.32 2 9 C1.34 9 0.68 9 0 9 C0 6.03 0 3.06 0 0 Z " fill="#2B7CAD" transform="translate(880,482)"/>
<path d="M0 0 C0.66 0.99 1.32 1.98 2 3 C0.73160474 3.50615298 -0.53983102 4.00469099 -1.8125 4.5 C-2.87404297 4.91765625 -2.87404297 4.91765625 -3.95703125 5.34375 C-6 6 -6 6 -9 6 C-9.33 5.01 -9.66 4.02 -10 3 C-6.71936549 -0.02827801 -4.42849243 -0.57762945 0 0 Z " fill="#2175A8" transform="translate(197,595)"/>
<path d="M0 0 C1.37478516 0.01740234 1.37478516 0.01740234 2.77734375 0.03515625 C3.69644531 0.04417969 4.61554687 0.05320312 5.5625 0.0625 C6.27277344 0.07410156 6.98304688 0.08570313 7.71484375 0.09765625 C7.38484375 2.73765625 7.05484375 5.37765625 6.71484375 8.09765625 C5.50856367 5.76551477 4.54936995 3.60123486 3.71484375 1.09765625 C1.71620619 1.67710557 1.71620619 1.67710557 -0.28515625 3.09765625 C-1.57747267 6.13965097 -1.57747267 6.13965097 -2.28515625 9.09765625 C-2.61515625 9.09765625 -2.94515625 9.09765625 -3.28515625 9.09765625 C-3.3828125 2.9453125 -3.3828125 2.9453125 -3.28515625 1.09765625 C-2.28515625 0.09765625 -2.28515625 0.09765625 0 0 Z " fill="#1175B2" transform="translate(732.28515625,478.90234375)"/>
<path d="M0 0 C0.721875 0.680625 1.44375 1.36125 2.1875 2.0625 C-1.7725 3.0525 -5.7325 4.0425 -9.8125 5.0625 C-9.1525 3.0825 -8.4925 1.1025 -7.8125 -0.9375 C-4.17291729 -2.18535693 -3.26390008 -2.2484645 0 0 Z " fill="#98D5E6" transform="translate(164.8125,465.9375)"/>
<path d="M0 0 C0.33 1.32 0.66 2.64 1 4 C1.66 4 2.32 4 3 4 C3 4.66 3 5.32 3 6 C2.34 6 1.68 6 1 6 C1 7.32 1 8.64 1 10 C1.99 10.33 2.98 10.66 4 11 C4 11.33 4 11.66 4 12 C2.02 12.33 0.04 12.66 -2 13 C-2.33 12.34 -2.66 11.68 -3 11 C-6.02934491 10.34227572 -6.02934491 10.34227572 -9 10 C-9 9.67 -9 9.34 -9 9 C-7.329375 8.7215625 -7.329375 8.7215625 -5.625 8.4375 C-4.42875 7.963125 -3.2325 7.48875 -2 7 C-0.45913678 3.48599332 -0.45913678 3.48599332 0 0 Z " fill="#3388B8" transform="translate(598,519)"/>
<path d="M0 0 C-0.3125 1.9375 -0.3125 1.9375 -1 4 C-4.76624671 5.25541557 -6.37188934 4.37061958 -10 3 C-10 2.34 -10 1.68 -10 1 C-6.21812119 -0.83691257 -4.05431692 -1.15837626 0 0 Z " fill="#1370A9" transform="translate(207,458)"/>
<path d="M0 0 C0.33 0 0.66 0 1 0 C1.33 3.63 1.66 7.26 2 11 C3.65 11 5.3 11 7 11 C6.67 11.99 6.34 12.98 6 14 C3.9375 14.6875 3.9375 14.6875 2 15 C-0.20155845 10.4134199 -1.48320315 7.19443385 -1 2 C-0.67 1.34 -0.34 0.68 0 0 Z " fill="#3282B0" transform="translate(573,490)"/>
<path d="M0 0 C0.99 0.99 1.98 1.98 3 3 C2.2884375 3.928125 2.2884375 3.928125 1.5625 4.875 C-0.02417441 6.90705546 -0.02417441 6.90705546 -1 9 C-1.66 9 -2.32 9 -3 9 C-3.33 8.01 -3.66 7.02 -4 6 C-4.66 5.67 -5.32 5.34 -6 5 C-2.25 1.125 -2.25 1.125 0 0 Z " fill="#016AAA" transform="translate(404,513)"/>
<path d="M0 0 C0 0.66 0 1.32 0 2 C-0.66 2 -1.32 2 -2 2 C-2 2.99 -2 3.98 -2 5 C-2.99 5.33 -3.98 5.66 -5 6 C-5.99 5.34 -6.98 4.68 -8 4 C-5.97675095 -0.48005146 -4.79569304 -1.43870791 0 0 Z " fill="#0169AA" transform="translate(726,513)"/>
<path d="M0 0 C-1.96382007 1.50559539 -3.78263366 2.89131683 -6 4 C-5.34 4.33 -4.68 4.66 -4 5 C-4.33 5.66 -4.66 6.32 -5 7 C-6.98 6.34 -8.96 5.68 -11 5 C-11 4.01 -11 3.02 -11 2 C-11.66 1.67 -12.32 1.34 -13 1 C-8.59085217 -0.10228696 -4.51617599 -0.07654536 0 0 Z " fill="#358ABC" transform="translate(596,478)"/>
<path d="M0 0 C0.33 1.65 0.66 3.3 1 5 C-0.65 5.33 -2.3 5.66 -4 6 C-4 5.01 -4 4.02 -4 3 C-3.34 3 -2.68 3 -2 3 C-2 2.34 -2 1.68 -2 1 C-4.64 1.33 -7.28 1.66 -10 2 C-10.33 1.34 -10.66 0.68 -11 0 C-7.01803543 -1.05404945 -4.01804691 -0.84098656 0 0 Z " fill="#1775AD" transform="translate(604,480)"/>
<path d="M0 0 C0.66 0 1.32 0 2 0 C2 4.29 2 8.58 2 13 C4.64 13 7.28 13 10 13 C10 13.33 10 13.66 10 14 C7.36 14.66 4.72 15.32 2 16 C-0.42130331 12.36804504 -0.21022785 10.61650652 -0.125 6.3125 C-0.09792969 4.54326172 -0.09792969 4.54326172 -0.0703125 2.73828125 C-0.04710937 1.83464844 -0.02390625 0.93101562 0 0 Z " fill="#0B6097" transform="translate(325,489)"/>
<path d="M0 0 C0.66 0.33 1.32 0.66 2 1 C2 1.66 2 2.32 2 3 C2.99 3 3.98 3 5 3 C5 3.66 5 4.32 5 5 C2.36 5.66 -0.28 6.32 -3 7 C-3.33 5.68 -3.66 4.36 -4 3 C-2.68 3 -1.36 3 0 3 C0 2.01 0 1.02 0 0 Z " fill="#DBF1F5" transform="translate(882,488)"/>
<path d="M0 0 C0.93423645 3.01031744 1.04449911 3.86650268 0 7 C0.66 7 1.32 7 2 7 C2 7.66 2 8.32 2 9 C1.01 9 0.02 9 -1 9 C-1 9.99 -1 10.98 -1 12 C-0.01 12.33 0.98 12.66 2 13 C0.35 13 -1.3 13 -3 13 C-3.46192125 8.07284004 -1.8275283 4.49267375 0 0 Z " fill="#369AC9" transform="translate(139,602)"/>
<path d="M0 0 C1.65 0 3.3 0 5 0 C4.34 1.32 3.68 2.64 3 4 C4.32 3.67 5.64 3.34 7 3 C6.67 4.32 6.34 5.64 6 7 C3.03 6.505 3.03 6.505 0 6 C0 4.02 0 2.04 0 0 Z " fill="#0265A3" transform="translate(787,505)"/>
<path d="M0 0 C1.65 1.65 3.3 3.3 5 5 C4.360625 5.268125 3.72125 5.53625 3.0625 5.8125 C0.66868314 6.88667752 0.66868314 6.88667752 0 10 C-1.125 2.25 -1.125 2.25 0 0 Z " fill="#1874AD" transform="translate(706,483)"/>
<path d="M0 0 C1.98 0.495 1.98 0.495 4 1 C3.01 3.97 2.02 6.94 1 10 C-0.87376865 6.2524627 -1.3214079 4.96403081 -1 1 C-0.67 0.67 -0.34 0.34 0 0 Z " fill="#1E7AB0" transform="translate(481,501)"/>
<path d="M0 0 C2.97 0.495 2.97 0.495 6 1 C4.8125 3.5 4.8125 3.5 3 6 C0.3125 6.3125 0.3125 6.3125 -2 6 C-1.67 5.38125 -1.34 4.7625 -1 4.125 C0.14193235 2.08981656 0.14193235 2.08981656 0 0 Z " fill="#02619E" transform="translate(206,457)"/>
<path d="M0 0 C1.74271938 2.297221 3.39911152 4.59866729 5 7 C7.05003955 8.19232613 7.05003955 8.19232613 9 9 C8.01 9.495 8.01 9.495 7 10 C4.64018187 9.06421005 2.30368736 8.06652192 0 7 C0 4.69 0 2.38 0 0 Z " fill="#3284B2" transform="translate(572,527)"/>
<path d="M0 0 C3.33537489 1.11179163 4.63707344 2.47411298 7 5 C6.34 6.32 5.68 7.64 5 9 C3.35 6.03 1.7 3.06 0 0 Z M8 2 C8.33 2.66 8.66 3.32 9 4 C8.34 3.67 7.68 3.34 7 3 C7.33 2.67 7.66 2.34 8 2 Z " fill="#267AAC" transform="translate(388,504)"/>
<path d="M0 0 C1.32 0 2.64 0 4 0 C4 2.31 4 4.62 4 7 C3.34 7 2.68 7 2 7 C2 6.34 2 5.68 2 5 C1.34 5 0.68 5 0 5 C0 3.35 0 1.7 0 0 Z " fill="#0F6CA5" transform="translate(859,480)"/>
<path d="M0 0 C1.68437744 0.62056011 3.35008418 1.29289322 5 2 C6.32676508 2.35858516 7.65835921 2.7018576 9 3 C6 5 6 5 3.95703125 4.7578125 C1.97135417 4.171875 -0.01432292 3.5859375 -2 3 C-2 2.34 -2 1.68 -2 1 C-1.34 0.67 -0.68 0.34 0 0 Z " fill="#0468A7" transform="translate(579,503)"/>
<path d="M0 0 C1.9375 0.8125 1.9375 0.8125 4 2 C4.33 2.99 4.66 3.98 5 5 C4.34 5.66 3.68 6.32 3 7 C2.34 6.67 1.68 6.34 1 6 C1 5.01 1 4.02 1 3 C0.34 3 -0.32 3 -1 3 C-0.67 2.01 -0.34 1.02 0 0 Z " fill="#016BAD" transform="translate(449,498)"/>
<path d="M0 0 C0.99 0.33 1.98 0.66 3 1 C2.67 2.32 2.34 3.64 2 5 C0.68 5.33 -0.64 5.66 -2 6 C-2 5.34 -2 4.68 -2 4 C-2.99 3.67 -3.98 3.34 -5 3 C-3.68 3 -2.36 3 -1 3 C-0.67 2.01 -0.34 1.02 0 0 Z " fill="#98D4E7" transform="translate(214,550)"/>
<path d="M0 0 C0.33 0 0.66 0 1 0 C1 2.64 1 5.28 1 8 C1.66 8 2.32 8 3 8 C3 9.65 3 11.3 3 13 C2.01 12.67 1.02 12.34 0 12 C0 8.04 0 4.08 0 0 Z " fill="#026DB0" transform="translate(411,493)"/>
<path d="M0 0 C0.33 1.32 0.66 2.64 1 4 C0.34 3.34 -0.32 2.68 -1 2 C-0.67 1.34 -0.34 0.68 0 0 Z M-2 4 C-1.34 4 -0.68 4 0 4 C0.33 4.99 0.66 5.98 1 7 C-1.76264289 7.59732819 -4.16032769 8 -7 8 C-7 7.34 -7 6.68 -7 6 C-5.35 6 -3.7 6 -2 6 C-2 5.34 -2 4.68 -2 4 Z " fill="#096FAE" transform="translate(705,481)"/>
<path d="M0 0 C0.33 0.66 0.66 1.32 1 2 C1.66 2.33 2.32 2.66 3 3 C1.6875 4.5 1.6875 4.5 0 6 C-0.99 6 -1.98 6 -3 6 C-3.33 5.01 -3.66 4.02 -4 3 C-2.68 2.01 -1.36 1.02 0 0 Z " fill="#167AB6" transform="translate(191,595)"/>
<path d="M0 0 C0.99 0 1.98 0 3 0 C3 0.66 3 1.32 3 2 C4.32 2.33 5.64 2.66 7 3 C7 3.99 7 4.98 7 6 C4.525 5.01 4.525 5.01 2 4 C2 3.34 2 2.68 2 2 C1.34 2 0.68 2 0 2 C0 1.34 0 0.68 0 0 Z " fill="#016CAF" transform="translate(192,591)"/>
<path d="M0 0 C-0.375 2.4375 -0.375 2.4375 -1 5 C-1.99 5.495 -1.99 5.495 -3 6 C-3.33 5.01 -3.66 4.02 -4 3 C-4.99 2.34 -5.98 1.68 -7 1 C-2.25 0 -2.25 0 0 0 Z " fill="#2E8BC0" transform="translate(160,570)"/>
<path d="M0 0 C2 2 2 2 2.25 5.5 C2 9 2 9 0 11 C-0.19491452 9.54263913 -0.38069358 8.08405407 -0.5625 6.625 C-0.66691406 5.81289063 -0.77132812 5.00078125 -0.87890625 4.1640625 C-1 2 -1 2 0 0 Z " fill="#448CB2" transform="translate(608,515)"/>
<path d="M0 0 C1.485 0.99 1.485 0.99 3 2 C2.01 4.31 1.02 6.62 0 9 C-0.33 9 -0.66 9 -1 9 C-1.09765625 2.84765625 -1.09765625 2.84765625 -1 1 C-0.67 0.67 -0.34 0.34 0 0 Z " fill="#5495BC" transform="translate(730,479)"/>
<path d="M0 0 C0.5625 1.9375 0.5625 1.9375 1 4 C0.67 4.33 0.34 4.66 0 5 C0 5.66 0 6.32 0 7 C-1.32 7.33 -2.64 7.66 -4 8 C-3.67 5.69 -3.34 3.38 -3 1 C-2.01 1.33 -1.02 1.66 0 2 C0 1.34 0 0.68 0 0 Z " fill="#0B94D0" transform="translate(247,453)"/>
<path d="M0 0 C2.97 0.99 5.94 1.98 9 3 C5 4 5 4 2 4 C1.67 4.66 1.34 5.32 1 6 C0.67 4.02 0.34 2.04 0 0 Z " fill="#8ED0E8" transform="translate(233,423)"/>
<path d="M0 0 C2.475 0.495 2.475 0.495 5 1 C4.67 1.66 4.34 2.32 4 3 C4.66 3.66 5.32 4.32 6 5 C4.35 4.67 2.7 4.34 1 4 C0.67 2.68 0.34 1.36 0 0 Z " fill="#016BAE" transform="translate(575,530)"/>
<path d="M0 0 C-1.9626228 2.04795423 -3.4277307 2.94976638 -6.26953125 3.19921875 C-8.51954383 3.18858877 -10.75385562 3.12958525 -13 3 C-8.49192825 0.69441653 -5.09714099 -0.14158725 0 0 Z " fill="#3B7FA7" transform="translate(213,506)"/>
<path d="M0 0 C1.67542976 0.28604898 3.34385343 0.61781233 5 1 C5 1.66 5 2.32 5 3 C5.33 3.66 5.66 4.32 6 5 C3.625 4.6875 3.625 4.6875 1 4 C0.34 3.01 -0.32 2.02 -1 1 C-0.67 0.67 -0.34 0.34 0 0 Z " fill="#81CCE8" transform="translate(228,444)"/>
<path d="M0 0 C4.875 2.625 4.875 2.625 6 6 C3.69 5.34 1.38 4.68 -1 4 C-0.67 2.68 -0.34 1.36 0 0 Z " fill="#A0D9E9" transform="translate(182,439)"/>
<path d="M0 0 C-0.66 1.32 -1.32 2.64 -2 4 C-4.31 3.67 -6.62 3.34 -9 3 C-5.87496336 0.91664224 -3.72863529 0 0 0 Z " fill="#4185AD" transform="translate(211,556)"/>
<path d="M0 0 C0.99 1.32 1.98 2.64 3 4 C2.34 4.66 1.68 5.32 1 6 C0.01 6 -0.98 6 -2 6 C-1.34 4.02 -0.68 2.04 0 0 Z " fill="#1A76AD" transform="translate(470,512)"/>
<path d="M0 0 C2.64 0 5.28 0 8 0 C8.33 0.66 8.66 1.32 9 2 C8.34 2.66 7.68 3.32 7 4 C4.69 3.34 2.38 2.68 0 2 C0 1.34 0 0.68 0 0 Z " fill="#5793B2" transform="translate(788,501)"/>
<path d="M0 0 C1.32 0.33 2.64 0.66 4 1 C3.67 2.98 3.34 4.96 3 7 C1.25372522 4.38058783 0.61277612 2.96175123 0 0 Z " fill="#1A77AE" transform="translate(442,488)"/>
<path d="M0 0 C1.79093191 -0.08086147 3.58289628 -0.13912702 5.375 -0.1875 C6.87160156 -0.23970703 6.87160156 -0.23970703 8.3984375 -0.29296875 C9.25695312 -0.19628906 10.11546875 -0.09960938 11 0 C11.66 0.99 12.32 1.98 13 3 C12.01 3 11.02 3 10 3 C10 2.34 10 1.68 10 1 C6.7 1 3.4 1 0 1 C0 0.67 0 0.34 0 0 Z " fill="#3488BA" transform="translate(373,479)"/>
<path d="M0 0 C1.65 1.32 3.3 2.64 5 4 C3.68 4.33 2.36 4.66 1 5 C1 4.34 1 3.68 1 3 C-0.32 2.67 -1.64 2.34 -3 2 C-2.01 1.34 -1.02 0.68 0 0 Z " fill="#8BCEE4" transform="translate(162,464)"/>
</svg>
