<?xml version="1.0" encoding="UTF-8"?>
<svg version="1.1" xmlns="http://www.w3.org/2000/svg" width="200" height="200">
<path d="M0 0 C66 0 132 0 200 0 C200 66 200 132 200 200 C134 200 68 200 0 200 C0 134 0 68 0 0 Z " fill="#FEFEFE" transform="translate(0,0)"/>
<path d="M0 0 C2.31 0 4.62 0 7 0 C8.125 6.75 8.125 6.75 7 9 C7.08780403 11.04498425 7.24241538 13.08744948 7.4375 15.125 C7.59025391 16.76855469 7.59025391 16.76855469 7.74609375 18.4453125 C7.82988281 19.28835937 7.91367188 20.13140625 8 21 C8.37125 19.948125 8.7425 18.89625 9.125 17.8125 C10.99044805 13.52371289 13.03740238 11.51472541 17 9 C22.20661025 8.25619854 25.6010766 9.16513825 30 12 C33.4313333 15.52407204 33.99741327 16.98706633 35 22 C35.33 18.04 35.66 14.08 36 10 C38.31 10 40.62 10 43 10 C43.495 10.99 43.495 10.99 44 12 C44.53625 11.505 45.0725 11.01 45.625 10.5 C48.71852796 8.54619287 50.39369166 8.48481309 54 9 C56.69990662 10.79993774 58.5418865 12.083773 60 15 C60.08342159 16.44848582 60.10732861 17.90070869 60.09765625 19.3515625 C60.09282227 20.62773438 60.09282227 20.62773438 60.08789062 21.9296875 C60.07532227 23.26386719 60.07532227 23.26386719 60.0625 24.625 C60.05798828 25.5221875 60.05347656 26.419375 60.04882812 27.34375 C60.03702591 29.56256648 60.02056155 31.78125018 60 34 C57.69 34 55.38 34 53 34 C52.67 27.73 52.34 21.46 52 15 C49.69 15.33 47.38 15.66 45 16 C44.67 21.94 44.34 27.88 44 34 C42.02 34.99 42.02 34.99 40 36 C40.05800781 36.97582031 40.11601562 37.95164063 40.17578125 38.95703125 C40.24345703 40.86548828 40.24345703 40.86548828 40.3125 42.8125 C40.37050781 44.07707031 40.42851562 45.34164062 40.48828125 46.64453125 C40 50 40 50 37.54296875 51.88671875 C36.70378906 52.25410156 35.86460937 52.62148437 35 53 C34.67 53.33 34.34 53.66 34 54 C32.33382885 54.04063832 30.66611905 54.042721 29 54 C28.67 53.01 28.34 52.02 28 51 C30.97 51.495 30.97 51.495 34 52 C34 51.34 34 50.68 34 50 C32.824375 50.0928125 32.824375 50.0928125 31.625 50.1875 C30.75875 50.125625 29.8925 50.06375 29 50 C28.34 49.01 27.68 48.02 27 47 C26.608125 47.495 26.21625 47.99 25.8125 48.5 C24 50 24 50 21.4375 50.3125 C19 50 19 50 17 48 C16.505 48.99 16.505 48.99 16 50 C15.071875 49.7215625 15.071875 49.7215625 14.125 49.4375 C11.95839822 48.76313824 11.95839822 48.76313824 10 50 C8.12620395 50.07033769 6.24998898 50.0843022 4.375 50.0625 C3.37210938 50.05347656 2.36921875 50.04445312 1.3359375 50.03515625 C0.56507813 50.02355469 -0.20578125 50.01195312 -1 50 C-1 47.36 -1 44.72 -1 42 C-2.485 42.495 -2.485 42.495 -4 43 C-4.33 45.31 -4.66 47.62 -5 50 C-6.98 50 -8.96 50 -11 50 C-11 47.36 -11 44.72 -11 42 C-12.485 42.495 -12.485 42.495 -14 43 C-14.33 45.31 -14.66 47.62 -15 50 C-15.99 49.67 -16.98 49.34 -18 49 C-19.175625 49.185625 -20.35125 49.37125 -21.5625 49.5625 C-22.696875 49.706875 -23.83125 49.85125 -25 50 C-27 48 -27 48 -27.25 45 C-27 42 -27 42 -25 40 C-21.875 40.375 -21.875 40.375 -19 41 C-19 41.66 -19 42.32 -19 43 C-18.34 43 -17.68 43 -17 43 C-16.95758277 40.66705225 -16.95907063 38.33297433 -17 36 C-17.33 35.67 -17.66 35.34 -18 35 C-18.08737645 33.14630389 -18.10698153 31.28932459 -18.09765625 29.43359375 C-18.09443359 28.30888672 -18.09121094 27.18417969 -18.08789062 26.02539062 C-18.07951172 24.84138672 -18.07113281 23.65738281 -18.0625 22.4375 C-18.05798828 21.24962891 -18.05347656 20.06175781 -18.04882812 18.83789062 C-18.03699675 15.89187774 -18.02051287 12.94596319 -18 10 C-16.02 10 -14.04 10 -12 10 C-11.67 10.99 -11.34 11.98 -11 13 C-10.278125 12.319375 -9.55625 11.63875 -8.8125 10.9375 C-6 9 -6 9 -3.1875 9.25 C-2.465625 9.4975 -1.74375 9.745 -1 10 C-0.67 6.7 -0.34 3.4 0 0 Z " fill="#F1F1F1" transform="translate(131,73)"/>
<path d="M0 0 C3.98598773 2.14630108 6.34214945 3.78693025 8 8 C8.7121481 13.01815989 8.52912753 16.94174495 6.25 21.5 C3.16748005 24.92502216 1.56049422 25.83744852 -3 26.3125 C-6 26 -6 26 -10 23 C-10 26.63 -10 30.26 -10 34 C-12.31 34 -14.62 34 -17 34 C-17 23.11 -17 12.22 -17 1 C-14 1 -11 1 -8 1 C-5.13391871 -0.43304064 -3.18699217 -0.30644155 0 0 Z " fill="#121212" transform="translate(77,82)"/>
<path d="M0 0 C4.62229488 1.72203143 7.55449419 3.67333588 10 8 C10.69956198 12.32313582 10.49989873 15.85023292 8.75 19.875 C5.28798298 24.07887781 2.16598085 25.70842565 -3.25 26.4375 C-8.1843364 25.86182742 -10.79803186 23.71753928 -14 20 C-15.36439276 15.90682172 -15.77052642 12.26970603 -15 8 C-11.11305198 1.54168636 -7.54657548 -0.50310503 0 0 Z " fill="#0D0D0D" transform="translate(155,82)"/>
<path d="M0 0 C3.05490716 2.63832891 4.36347955 4.60058321 5.75 8.375 C5.75 10.025 5.75 11.675 5.75 13.375 C-0.19 13.375 -6.13 13.375 -12.25 13.375 C-11.26 15.025 -10.27 16.675 -9.25 18.375 C-4.90815798 18.19035634 -4.90815798 18.19035634 -1.25 16.375 C0.74958364 16.33419217 2.75045254 16.33245644 4.75 16.375 C2.68445094 20.39738501 0.93935171 22.56596176 -3.25 24.375 C-7.56807946 24.92457375 -9.69328894 24.6691115 -13.5625 22.625 C-16.86667217 19.85871632 -18.03799311 18.02914679 -18.5859375 13.75390625 C-18.69143534 6.14751185 -18.69143534 6.14751185 -16.5 2.3125 C-11.28967239 -2.174171 -6.41615618 -3.20807809 0 0 Z " fill="#141414" transform="translate(105.25,83.625)"/>
<path d="M0 0 C3.23485183 1.18207598 4.99616764 3.03456565 7.1953125 5.62109375 C8.19140625 7.80078125 8.19140625 7.80078125 8.19140625 14.80078125 C2.58140625 14.80078125 -3.02859375 14.80078125 -8.80859375 14.80078125 C-7.81859375 16.45078125 -6.82859375 18.10078125 -5.80859375 19.80078125 C-3.2656875 20.3842863 -3.2656875 20.3842863 -0.80859375 19.80078125 C-0.14859375 19.14078125 0.51140625 18.48078125 1.19140625 17.80078125 C4.31640625 17.67578125 4.31640625 17.67578125 7.19140625 17.80078125 C6.27579348 21.18854851 5.49668061 22.57740977 2.62890625 24.67578125 C-1.86172641 26.14544285 -5.31261734 26.35553958 -9.80859375 24.80078125 C-13.30006233 22.38745532 -15.41855287 19.70548089 -16.27734375 15.51171875 C-16.46364765 10.86964647 -15.90757926 7.41626434 -12.80859375 3.80078125 C-8.61657925 0.00800623 -5.44954675 -0.91286824 0 0 Z " fill="#121212" transform="translate(25.80859375,82.19921875)"/>
<path d="M0 0 C2.69990662 1.79993774 4.5418865 3.083773 6 6 C6.08342159 7.44848582 6.10732861 8.90070869 6.09765625 10.3515625 C6.09443359 11.20234375 6.09121094 12.053125 6.08789062 12.9296875 C6.07951172 13.81914063 6.07113281 14.70859375 6.0625 15.625 C6.05798828 16.5221875 6.05347656 17.419375 6.04882812 18.34375 C6.03702591 20.56256648 6.02056155 22.78125018 6 25 C3.69 25 1.38 25 -1 25 C-1.33 18.73 -1.66 12.46 -2 6 C-4.31 6.33 -6.62 6.66 -9 7 C-9.33 12.94 -9.66 18.88 -10 25 C-12.31 25 -14.62 25 -17 25 C-17 17.08 -17 9.16 -17 1 C-15.02 1 -13.04 1 -11 1 C-10.67 1.66 -10.34 2.32 -10 3 C-9.46375 2.505 -8.9275 2.01 -8.375 1.5 C-5.28147204 -0.45380713 -3.60630834 -0.51518691 0 0 Z " fill="#0E0E0E" transform="translate(185,82)"/>
<path d="M0 0 C5.28497409 -0.44041451 5.28497409 -0.44041451 8 0 C10.5 2.5 10.5 2.5 12 5 C12.515625 4.175 13.03125 3.35 13.5625 2.5 C16 0 16 0 19.75 -0.3125 C20.8225 -0.209375 21.895 -0.10625 23 0 C22.55527344 0.67546875 22.11054687 1.3509375 21.65234375 2.046875 C21.08644531 2.93890625 20.52054688 3.8309375 19.9375 4.75 C19.36902344 5.63171875 18.80054687 6.5134375 18.21484375 7.421875 C16.82602366 9.83330361 16.82602366 9.83330361 17.125 12.03515625 C18.20353809 14.45705206 19.54345595 16.51487199 21.0625 18.6875 C24 22.91058824 24 22.91058824 24 24 C18.71502591 24.52849741 18.71502591 24.52849741 16 24 C13.5 21 13.5 21 12 18 C11.360625 18.804375 10.72125 19.60875 10.0625 20.4375 C8 23 8 23 7 24 C4.66702567 24.04092937 2.33294775 24.04241723 0 24 C1.65128827 19.1962523 4.26388311 15.24818148 7 11 C4.69 7.37 2.38 3.74 0 0 Z " fill="#090909" transform="translate(35,83)"/>
<path d="M0 0 C0 2.31 0 4.62 0 7 C-1.134375 7.12375 -2.26875 7.2475 -3.4375 7.375 C-5.2009375 7.684375 -5.2009375 7.684375 -7 8 C-8.52106634 11.04213267 -8.37429338 14.28047572 -8.5625 17.625 C-8.60568359 18.33140625 -8.64886719 19.0378125 -8.69335938 19.765625 C-8.79944751 21.51018537 -8.90022889 23.25506697 -9 25 C-11.31 25 -13.62 25 -16 25 C-16 17.08 -16 9.16 -16 1 C-14.02 1 -12.04 1 -10 1 C-9.67 1.99 -9.34 2.98 -9 4 C-8.2575 3.34 -7.515 2.68 -6.75 2 C-4 0 -4 0 0 0 Z " fill="#0E0E0E" transform="translate(129,82)"/>
<path d="M0 0 C2.99710417 0.44956563 3.68343232 0.99789144 5.5 3.375 C5.8984375 5.75 5.8984375 5.75 5.875 8.375 C5.88273438 9.24125 5.89046875 10.1075 5.8984375 11 C5.42757752 13.80669477 4.76234706 14.6971828 2.5 16.375 C0 16.75 0 16.75 -2.5 16.375 C-4.76234706 14.6971828 -5.42757752 13.80669477 -5.8984375 11 C-5.89070312 10.13375 -5.88296875 9.2675 -5.875 8.375 C-5.88273438 7.50875 -5.89046875 6.6425 -5.8984375 5.75 C-5.26772498 1.99045873 -3.73328232 0.55999235 0 0 Z " fill="#F2F2F2" transform="translate(152.5,86.625)"/>
<path d="M0 0 C2.96768263 0.51934446 3.6904997 1.0748096 5.5 3.4375 C5.8984375 5.8125 5.8984375 5.8125 5.875 8.4375 C5.88273437 9.30375 5.89046875 10.17 5.8984375 11.0625 C5.42742848 13.87008318 4.75994271 14.75605937 2.5 16.4375 C0 16.875 0 16.875 -2.5 16.4375 C-4.6446305 14.66263338 -5.37365521 13.28210623 -5.78515625 10.53125 C-5.92728557 7.21901898 -5.74703256 4.95756854 -4.3125 1.9375 C-2.5 0.4375 -2.5 0.4375 0 0 Z " fill="#F1F1F1" transform="translate(72.5,86.5625)"/>
<path d="M0 0 C1.98 0 3.96 0 6 0 C6 7.92 6 15.84 6 24 C4.02 24 2.04 24 0 24 C0 16.08 0 8.16 0 0 Z " fill="#010101" transform="translate(131,83)"/>
<path d="M0 0 C0.66 0 1.32 0 2 0 C2.33 0.99 2.66 1.98 3 3 C4.65 3.33 6.3 3.66 8 4 C8 6.97 8 9.94 8 13 C7.34 13 6.68 13 6 13 C6 10.36 6 7.72 6 5 C5.01 5.33 4.02 5.66 3 6 C2.67 8.31 2.34 10.62 2 13 C1.01 12.67 0.02 12.34 -1 12 C-2.7634375 12.2784375 -2.7634375 12.2784375 -4.5625 12.5625 C-5.696875 12.706875 -6.83125 12.85125 -8 13 C-10 11 -10 11 -10.25 8 C-10 5 -10 5 -8 3 C-4.875 3.375 -4.875 3.375 -2 4 C-2 4.66 -2 5.32 -2 6 C-1.34 6 -0.68 6 0 6 C0 4.02 0 2.04 0 0 Z " fill="#CACACA" transform="translate(114,110)"/>
<path d="M0 0 C0 7.92 0 15.84 0 24 C-8.94736842 15.05263158 -8.94736842 15.05263158 -9.0625 10.5625 C-7.60027652 7.03596101 -4.53709672 0 0 0 Z " fill="#F6F6F6" transform="translate(60,83)"/>
<path d="M0 0 C2.31 0 4.62 0 7 0 C8.125 6.75 8.125 6.75 7 9 C6.915085 10.8863912 6.892807 12.77578515 6.90234375 14.6640625 C6.90556641 15.78554687 6.90878906 16.90703125 6.91210938 18.0625 C6.92048828 19.238125 6.92886719 20.41375 6.9375 21.625 C6.94201172 22.80835937 6.94652344 23.99171875 6.95117188 25.2109375 C6.96298533 28.14067507 6.97945742 31.07031272 7 34 C6.67 34 6.34 34 6 34 C6 26.08 6 18.16 6 10 C4.02 10 2.04 10 0 10 C0 6.7 0 3.4 0 0 Z " fill="#C4B1B5" transform="translate(131,73)"/>
<path d="M0 0 C0.94875 0.04125 1.8975 0.0825 2.875 0.125 C2.92889087 2.08303507 2.96774217 4.04148909 3 6 C3.02320313 7.09054688 3.04640625 8.18109375 3.0703125 9.3046875 C2.875 12.125 2.875 12.125 0.875 14.125 C-1.75 14.25 -1.75 14.25 -4.125 14.125 C-4.455 13.135 -4.785 12.145 -5.125 11.125 C-2.155 11.62 -2.155 11.62 0.875 12.125 C0.875 11.465 0.875 10.805 0.875 10.125 C0.070625 10.145625 -0.73375 10.16625 -1.5625 10.1875 C-4.125 10.125 -4.125 10.125 -5.125 9.125 C-5.3125 5.6875 -5.3125 5.6875 -5.125 2.125 C-3.125 0.125 -3.125 0.125 0 0 Z " fill="#929292" transform="translate(164.125,112.875)"/>
<path d="M0 0 C1.2375 0.1546875 1.2375 0.1546875 2.5 0.3125 C4.5 3.3125 4.5 3.3125 4.1875 6.4375 C3.5 9.3125 3.5 9.3125 2.5 10.3125 C0.50041636 10.35330783 -1.50045254 10.35504356 -3.5 10.3125 C-4.88125018 7.54999964 -4.69079306 5.36518901 -4.5 2.3125 C-2.5 0.3125 -2.5 0.3125 0 0 Z " fill="#999999" transform="translate(138.5,112.6875)"/>
<path d="M0 0 C1.2375 0.1546875 1.2375 0.1546875 2.5 0.3125 C4.64915785 3.53623677 4.88286803 4.57953674 4.5 8.3125 C2.5 10.3125 2.5 10.3125 0 10.5625 C-2.5 10.3125 -2.5 10.3125 -4.5 8.3125 C-4.75 5.3125 -4.75 5.3125 -4.5 2.3125 C-2.5 0.3125 -2.5 0.3125 0 0 Z " fill="#979797" transform="translate(152.5,112.6875)"/>
<path d="M0 0 C1.89551022 -0.05441656 3.7914792 -0.09298035 5.6875 -0.125 C6.74324219 -0.14820312 7.79898437 -0.17140625 8.88671875 -0.1953125 C12.02251859 0.00141271 14.17645373 0.66942346 17 2 C16.67 2.66 16.34 3.32 16 4 C15.05125 3.95875 14.1025 3.9175 13.125 3.875 C9.89755144 3.65026182 9.89755144 3.65026182 8 6 C5.07908607 6.37447615 3.60409928 6.4374512 1.1875 4.6875 C0 3 0 3 0 0 Z " fill="#EAEAEA" transform="translate(17,97)"/>
<path d="M0 0 C2.625 0.375 2.625 0.375 5 1 C5.33 2.65 5.66 4.3 6 6 C4.02 6.33 2.04 6.66 0 7 C1.32 7 2.64 7 4 7 C4.66 7 5.32 7 6 7 C5.67 7.99 5.34 8.98 5 10 C2.125 10.1875 2.125 10.1875 -1 10 C-3 7 -3 7 -2.75 4.4375 C-2 2 -2 2 0 0 Z " fill="#999999" transform="translate(96,113)"/>
<path d="M0 0 C0.66 0 1.32 0 2 0 C2.33 0.99 2.66 1.98 3 3 C4.65 3.33 6.3 3.66 8 4 C8 6.97 8 9.94 8 13 C7.34 13 6.68 13 6 13 C6 10.36 6 7.72 6 5 C5.01 5.33 4.02 5.66 3 6 C2.67 8.31 2.34 10.62 2 13 C1.34 13 0.68 13 0 13 C0 8.71 0 4.42 0 0 Z " fill="#989898" transform="translate(114,110)"/>
<path d="M0 0 C2.33294775 -0.04241723 4.66702567 -0.04092937 7 0 C8 1 8 1 8.09765625 3.06640625 C8.08605469 3.89011719 8.07445312 4.71382813 8.0625 5.5625 C8.05347656 6.38878906 8.04445312 7.21507813 8.03515625 8.06640625 C8.02355469 8.70449219 8.01195312 9.34257813 8 10 C7.34 10 6.68 10 6 10 C6 7.36 6 4.72 6 2 C5.01 2.33 4.02 2.66 3 3 C2.67 5.31 2.34 7.62 2 10 C1.34 10 0.68 10 0 10 C0 6.7 0 3.4 0 0 Z " fill="#9F9F9F" transform="translate(124,113)"/>
<path d="M0 0 C2 2 2 2 2 5 C-1.3 5 -4.6 5 -8 5 C-7.67 3.68 -7.34 2.36 -7 1 C-4.48718205 -0.25640898 -2.78302919 -0.20872719 0 0 Z " fill="#E9E9E9" transform="translate(25,87)"/>
<path d="M0 0 C1.2065625 0.0309375 1.2065625 0.0309375 2.4375 0.0625 C2.4375 1.0525 2.4375 2.0425 2.4375 3.0625 C1.1175 2.7325 -0.2025 2.4025 -1.5625 2.0625 C-1.5625 2.7225 -1.5625 3.3825 -1.5625 4.0625 C0.0875 4.3925 1.7375 4.7225 3.4375 5.0625 C3.4375 6.7125 3.4375 8.3625 3.4375 10.0625 C1.4575 10.0625 -0.5225 10.0625 -2.5625 10.0625 C-2.5625 9.0725 -2.5625 8.0825 -2.5625 7.0625 C-0.5825 7.5575 -0.5825 7.5575 1.4375 8.0625 C1.7675 7.4025 2.0975 6.7425 2.4375 6.0625 C0.7875 5.7325 -0.8625 5.4025 -2.5625 5.0625 C-3.125 3.125 -3.125 3.125 -3.5625 1.0625 C-2.5625 0.0625 -2.5625 0.0625 0 0 Z " fill="#959595" transform="translate(186.5625,112.9375)"/>
<path d="M0 0 C2.5625 0.1875 2.5625 0.1875 4.5625 2.1875 C4.5625 3.1775 4.5625 4.1675 4.5625 5.1875 C1.5925 5.1875 -1.3775 5.1875 -4.4375 5.1875 C-3.20220588 0.24632353 -3.20220588 0.24632353 0 0 Z " fill="#EFEFEF" transform="translate(98.4375,86.8125)"/>
<path d="M0 0 C1.98 0 3.96 0 6 0 C6 1.65 6 3.3 6 5 C4.02 5.66 2.04 6.32 0 7 C0 4.69 0 2.38 0 0 Z " fill="#AE2E49" transform="translate(131,74)"/>
<path d="M0 0 C2.475 0.495 2.475 0.495 5 1 C5 2.65 5 4.3 5 6 C3.0625 6.5625 3.0625 6.5625 1 7 C0 6 0 6 -0.0625 2.9375 C-0.041875 1.968125 -0.02125 0.99875 0 0 Z " fill="#F7F7F7" transform="translate(150,115)"/>
<path d="M0 0 C2.475 0.495 2.475 0.495 5 1 C5 2.65 5 4.3 5 6 C3.0625 6.5625 3.0625 6.5625 1 7 C0 6 0 6 -0.0625 2.9375 C-0.041875 1.968125 -0.02125 0.99875 0 0 Z " fill="#F6F6F6" transform="translate(136,115)"/>
<path d="M0 0 C0.66 0 1.32 0 2 0 C3.10228696 4.40914783 3.07654536 8.48382401 3 13 C2.01 13 1.02 13 0 13 C-0.19551338 11.39679026 -0.38111983 9.79237014 -0.5625 8.1875 C-0.71912109 6.84751953 -0.71912109 6.84751953 -0.87890625 5.48046875 C-1 3 -1 3 0 0 Z " fill="#9E9E9E" transform="translate(89,110)"/>
<path d="M0 0 C1.32 0 2.64 0 4 0 C4 1.98 4 3.96 4 6 C2.35 5.67 0.7 5.34 -1 5 C-0.67 3.35 -0.34 1.7 0 0 Z " fill="#F4F4F4" transform="translate(161,115)"/>
<path d="M0 0 C1.65 0.33 3.3 0.66 5 1 C5.33 1.99 5.66 2.98 6 4 C4 6 4 6 1.375 6.125 C0.59125 6.08375 -0.1925 6.0425 -1 6 C-1.33 5.01 -1.66 4.02 -2 3 C0.97 3.495 0.97 3.495 4 4 C4 3.34 4 2.68 4 2 C2.35 2 0.7 2 -1 2 C-0.67 1.34 -0.34 0.68 0 0 Z " fill="#A6A6A6" transform="translate(161,121)"/>
<path d="M0 0 C2.475 0.495 2.475 0.495 5 1 C5 3.97 5 6.94 5 10 C4.34 10 3.68 10 3 10 C3 7.36 3 4.72 3 2 C2.01 2 1.02 2 0 2 C0 1.34 0 0.68 0 0 Z " fill="#9E9E9E" transform="translate(117,113)"/>
<path d="M0 0 C1.65 0.33 3.3 0.66 5 1 C5.33 1.99 5.66 2.98 6 4 C3.69 4 1.38 4 -1 4 C-0.67 2.68 -0.34 1.36 0 0 Z " fill="#C8C8C8" transform="translate(96,115)"/>
<path d="M0 0 C1.65 0 3.3 0 5 0 C5 0.99 5 1.98 5 3 C5.66 3.33 6.32 3.66 7 4 C4.69 4 2.38 4 0 4 C0 2.68 0 1.36 0 0 Z " fill="#CECECE" transform="translate(174,115)"/>
<path d="M0 0 C2.31 0 4.62 0 7 0 C6.67 0.99 6.34 1.98 6 3 C3.84365964 3 2.07553648 2.5534764 0 2 C0 1.34 0 0.68 0 0 Z " fill="#F0F0F0" transform="translate(174,119)"/>
<path d="M0 0 C1.32 0 2.64 0 4 0 C3.67 1.65 3.34 3.3 3 5 C2.01 4.67 1.02 4.34 0 4 C0 2.68 0 1.36 0 0 Z " fill="#D31A3F" transform="translate(132,75)"/>
</svg>
