<?xml version="1.0" encoding="UTF-8"?>
<svg version="1.1" xmlns="http://www.w3.org/2000/svg" width="1000" height="1000">
<path d="M0 0 C17.20125 -0.20625 34.4025 -0.4125 52.125 -0.625 C57.55211426 -0.71604004 62.97922852 -0.80708008 68.57080078 -0.90087891 C75.20874023 -0.94604492 75.20874023 -0.94604492 78.31832886 -0.95443726 C80.48577406 -0.9697732 82.65313493 -1.00490591 84.82003784 -1.05575562 C88.10825156 -1.12904725 91.39126695 -1.13906022 94.68017578 -1.13525391 C95.64226519 -1.17123499 96.60435459 -1.20721607 97.59559822 -1.24428749 C100.39652819 -1.20093128 102.40339303 -1.0635392 105 0 C107.64821301 3.05844217 109.30142101 6.35090162 111 10 C112.15709254 11.81862701 113.32171603 13.63253068 114.5 15.4375 C120.36607682 24.61694329 125.12345699 34.24691398 130 44 C105.91 44 81.82 44 57 44 C57 52.91 57 61.82 57 71 C89.67 71.495 89.67 71.495 123 72 C123 85.2 123 98.4 123 112 C101.22 112 79.44 112 57 112 C57 120.91 57 129.82 57 139 C87.03 139.33 117.06 139.66 148 140 C148 153.53 148 167.06 148 181 C99.16 181 50.32 181 0 181 C0 121.27 0 61.54 0 0 Z " fill="#151C22" transform="translate(322,501)"/>
<path d="M0 0 C7.99720265 -0.18555702 15.993503 -0.32759902 23.99232769 -0.41449738 C27.70684136 -0.45621076 31.41988022 -0.51275646 35.13354492 -0.60351562 C38.71928634 -0.69059759 42.30361202 -0.73830313 45.89032936 -0.75901794 C47.25684722 -0.77377372 48.62328947 -0.80259259 49.9892025 -0.84584045 C60.69266448 -1.17118281 60.69266448 -1.17118281 63.91011047 1.71118164 C65.21900217 3.77204604 66.12834736 5.72487764 67 8 C67.6371166 9.17505145 68.28906441 10.34220737 68.95703125 11.5 C69.56933594 12.655 70.18164062 13.81 70.8125 15 C71.151604 15.63953613 71.49070801 16.27907227 71.84008789 16.93798828 C74.61406439 22.19926504 77.27204156 27.51533959 79.91357422 32.84399414 C82.51759779 38.07958015 85.20617931 43.26724685 87.9375 48.4375 C88.32736084 49.17790527 88.71722168 49.91831055 89.11889648 50.68115234 C90.75441449 54.05252849 90.75441449 54.05252849 93 57 C93.30067383 56.41847168 93.60134766 55.83694336 93.91113281 55.23779297 C100.07994583 43.32214546 106.31773288 31.45369057 112.81347656 19.71240234 C116.39477737 13.21175325 119.67244669 6.65510663 123 0 C143.46 0 163.92 0 185 0 C183.56024851 3.59937872 182.1645347 6.66035013 180.27734375 9.9921875 C179.47707764 11.40818237 179.47707764 11.40818237 178.66064453 12.8527832 C177.80768799 14.34878052 177.80768799 14.34878052 176.9375 15.875 C176.3482373 16.91293701 175.75897461 17.95087402 175.15185547 19.02026367 C171.70765243 25.06665943 168.20438068 31.06733274 164.59106445 37.01416016 C160.84281018 43.2056153 157.23663807 49.47814792 153.625 55.75 C152.97724609 56.87486816 152.32949219 57.99973633 151.66210938 59.15869141 C150.37731243 61.39094539 149.09280226 63.62336447 147.80859375 65.85595703 C135.31852543 87.5685785 135.31852543 87.5685785 128.99072266 98.02026367 C127.98848374 99.6769622 126.99417424 101.33844938 126 103 C125.31057312 104.07218277 124.62114624 105.14436554 123.91082764 106.2490387 C121.80203941 109.96695172 121.48478684 113.00864607 121.45410156 117.31225586 C121.43859505 118.3525444 121.43859505 118.3525444 121.42277527 119.41384888 C121.39353645 121.6810895 121.39185224 123.94743011 121.390625 126.21484375 C121.37563042 127.79669376 121.35890059 129.37852818 121.34051514 130.96034241 C121.29697229 135.10475414 121.27687177 139.24895473 121.26177979 143.39355469 C121.23870634 148.3764634 121.18629182 153.35914081 121.13883972 158.34186554 C121.07017513 165.89463715 121.03860595 173.44674569 121 181 C102.19 181 83.38 181 64 181 C64.09023438 176.153125 64.18046875 171.30625 64.2734375 166.3125 C64.2994612 163.18582839 64.32120965 160.06022555 64.328125 156.93359375 C64.33942114 152.00251918 64.36395539 147.07481634 64.48339844 142.14501953 C64.97610675 120.91908058 63.80342598 106.10097986 50.74926758 88.44554138 C47.95571228 84.54004678 45.65264944 80.37424487 43.3125 76.1875 C42.4267001 74.65106118 41.5389644 73.11573512 40.6484375 71.58203125 C39.30595737 69.25980931 37.96382834 66.93738534 36.62207031 64.61474609 C31.44548821 55.6544411 26.25240421 46.70501885 20.99560547 37.79150391 C16.54830732 30.2460091 12.14075045 22.67737868 7.7331543 15.10864258 C7.16250244 14.12919678 6.59185059 13.14975098 6.00390625 12.140625 C5.49674072 11.26954102 4.9895752 10.39845703 4.46704102 9.50097656 C3.44165129 7.7529166 2.38752985 6.02153618 1.31225586 4.30371094 C0 2 0 2 0 0 Z " fill="#151C22" transform="translate(443,501)"/>
<path d="M0 0 C0 22.77 0 45.54 0 69 C-5.506875 69.9075 -11.01375 70.815 -16.6875 71.75 C-31.80816498 74.25515244 -31.80816498 74.25515244 -46.875 77.0625 C-54.70772878 78.59944075 -62.5613871 79.95393747 -70.4375 81.25 C-82.81731728 83.28874137 -95.18465719 85.39365006 -107.54641724 87.53918457 C-109.52064652 87.88172976 -111.4949873 88.22363318 -113.4694519 88.56481934 C-123.62765501 90.3209099 -133.77182241 92.12700838 -143.89453125 94.078125 C-151.92876695 95.62606779 -159.97147973 97.04234133 -168.04876709 98.3505249 C-183.68175622 100.88777783 -199.28081345 103.61054081 -214.875 106.375 C-219.26171239 107.15237967 -223.64842558 107.92975479 -228.03515625 108.70703125 C-229.66527397 108.99592224 -229.66527397 108.99592224 -231.32832336 109.29064941 C-242.3192015 111.23677818 -253.3151606 113.15326928 -264.3125 115.0625 C-265.24549927 115.22454926 -266.17849854 115.38659851 -267.13977051 115.55355835 C-273.75968803 116.70328904 -280.37982425 117.85175727 -287 119 C-294.05357463 120.2235131 -301.10707106 121.44747469 -308.16036987 122.6725769 C-310.12188071 123.0132694 -312.08340797 123.35386739 -314.04495239 123.69436646 C-323.37970297 125.31520374 -332.71349113 126.94032549 -342.0390625 128.61328125 C-342.71425934 128.73438766 -343.38945618 128.85549408 -344.08511353 128.98027039 C-347.12781888 129.52679498 -350.16993597 130.076387 -353.21142578 130.62963867 C-354.22962402 130.81373291 -355.24782227 130.99782715 -356.296875 131.1875 C-357.16666992 131.34605469 -358.03646484 131.50460937 -358.93261719 131.66796875 C-361 132 -361 132 -363 132 C-362.67 131.01 -362.34 130.02 -362 129 C-359.21005903 127.83391603 -356.49684842 126.8595724 -353.625 125.9375 C-351.79337779 125.32427557 -349.96269649 124.70823578 -348.1328125 124.08984375 C-347.14442383 123.75710449 -346.15603516 123.42436523 -345.13769531 123.08154297 C-339.55408015 121.15690749 -334.03084542 119.07040131 -328.5 117 C-319.78854245 113.75290812 -311.05834702 110.5830447 -302.27416992 107.53857422 C-295.34264395 105.13268296 -288.44702094 102.6340855 -281.5546875 100.1184082 C-274.6052495 97.58213025 -267.64869688 95.06632115 -260.6875 92.5625 C-259.64360107 92.18681885 -258.59970215 91.8111377 -257.52416992 91.42407227 C-252.28682708 89.53982034 -247.04841557 87.65859714 -241.80859375 85.78125 C-230.91171535 81.87314862 -220.03706455 77.91275757 -209.1875 73.875 C-200.77227442 70.74386377 -192.33911981 67.68873964 -183.85302734 64.75561523 C-176.13844891 62.07657515 -168.47586789 59.25871133 -160.8125 56.4375 C-152.30376667 53.3056827 -143.79256268 50.18735003 -135.23486328 47.19140625 C-126.04760394 43.97304037 -116.89629243 40.65411204 -107.73974609 37.34960938 C-105.12300157 36.40527175 -102.50615557 35.46121986 -99.88916016 34.51757812 C-82.83683271 28.36866925 -65.79025654 22.20440338 -48.75744629 16.00161743 C-38.39719843 12.22884186 -28.02867606 8.4801325 -17.64770508 4.76464844 C-16.70693115 4.42723633 -15.76615723 4.08982422 -14.796875 3.7421875 C-13.98573242 3.4519873 -13.17458984 3.16178711 -12.33886719 2.86279297 C-10.70846706 2.26134891 -9.09990405 1.59872048 -7.51269531 0.89111328 C-5 0 -5 0 0 0 Z " fill="#FFE600" transform="translate(682,318)"/>
</svg>
