<?xml version="1.0" encoding="UTF-8"?>
<svg version="1.1" xmlns="http://www.w3.org/2000/svg" width="200" height="200">
<path d="M0 0 C66 0 132 0 200 0 C200 66 200 132 200 200 C134 200 68 200 0 200 C0 134 0 68 0 0 Z " fill="#066160" transform="translate(0,0)"/>
<path d="M0 0 C66 0 132 0 200 0 C200 66 200 132 200 200 C134 200 68 200 0 200 C0 134 0 68 0 0 Z M49 34 C48.18789063 34.61359375 47.37578125 35.2271875 46.5390625 35.859375 C36.00889253 44.7371183 28.09953576 60.38376027 26.80371094 74.07373047 C26.1408724 83.74742127 26.26126276 91.77447662 32 100 C34.56687367 103.8503105 33.83288724 105.58569763 33 110 C29.75 110.75 29.75 110.75 26 111 C22.55752776 108.58096545 21.21046729 105.96010635 20 102 C19.7340574 98.7253725 19.76659652 95.47080705 19.8125 92.1875 C19.81314453 91.32318359 19.81378906 90.45886719 19.81445312 89.56835938 C19.85025896 84.29694463 20.24266501 79.21652342 21 74 C15.88781013 79.11218987 16.74121029 88.49956783 16.7265625 95.25585938 C16.73429687 96.47080078 16.74203125 97.68574219 16.75 98.9375 C16.74226563 100.14857422 16.73453125 101.35964844 16.7265625 102.60742188 C16.7699247 122.62991647 23.73158169 141.08493143 37.62109375 155.75 C49.6144196 167.0934412 66.45937121 173.9320919 83 174.4375 C89.56849054 174.14250791 94.44112299 172.32666152 99.5625 168.25 C102.51062642 165.97437246 102.87461563 165.99402932 106.9375 166.1875 C107.948125 166.455625 108.95875 166.72375 110 167 C110.8125 170.1875 110.8125 170.1875 111 174 C107.73311056 178.59406327 104.46472953 180.04584088 99 181 C90.49148842 181.58722473 82.36369936 180.51086182 74 179 C79.72600547 184.72600547 91.74008475 184.32752208 99.5 184.375 C120.71445154 184.18321428 140.21123018 176.92038706 155.71484375 162.375 C162.59815547 155.22106235 166.64747168 147.27147487 170 138 C170.39445313 136.94554687 170.78890625 135.89109375 171.1953125 134.8046875 C174.45342681 125.34932079 176.1141487 115.23314699 172.00390625 105.76171875 C170.90502704 103.83333539 169.62767187 102.17589933 168.25 100.4375 C165.97437246 97.48937358 165.99402932 97.12538437 166.1875 93.0625 C166.455625 92.051875 166.72375 91.04125 167 90 C170.1875 89.1875 170.1875 89.1875 174 89 C178.22883764 92.1011476 179.64148653 95.04293531 181 100 C181.6153143 107.13040691 181.1262098 113.95527835 179.33984375 120.87890625 C178.96352836 123.22763334 179.27220601 124.75554442 180 127 C180.48473678 125.31409158 180.96248926 123.62617455 181.4375 121.9375 C181.70433594 120.99777344 181.97117188 120.05804688 182.24609375 119.08984375 C187.4198914 97.88531558 183.13032411 76.65240136 172.6875 57.8125 C162.08034931 40.3686205 146.49415585 31.63298765 127.1875 26.625 C119.21801794 25.14973328 111.24429602 25.0457574 104 29 C102.79790308 29.87614873 101.61012433 30.77228101 100.4375 31.6875 C96.99589954 34.33610496 94.34442588 34.44330876 90 34 C89.3697157 31.13947894 88.88217236 28.8867771 89 26 C92.0638595 21.72916555 95.04175158 20.36988282 100 19 C108.7840023 18.21509572 117.37046821 19.41815456 126 21 C119.08199642 14.08199642 106.91432583 15.69351712 97.80957031 15.68505859 C79.8241721 15.99423457 62.76997279 22.31638673 49 34 Z " fill="#FCFDFD" transform="translate(0,0)"/>
<path d="M0 0 C4.26386662 3.39351034 8.12753415 7.17391099 12 11 C12.98226562 11.87398437 12.98226562 11.87398437 13.984375 12.765625 C28.12540449 25.60931234 38.05330299 48.38909434 39.12426758 67.18041992 C39.95959585 92.99283928 34.4497769 118.96965462 16.4375 138.4375 C14.64304161 140.31038645 12.82316138 142.15473969 11 144 C10.41734375 144.65484375 9.8346875 145.3096875 9.234375 145.984375 C0.4522232 155.65361284 -12.01517162 161.41886955 -24 166 C-24.78761719 166.31710938 -25.57523437 166.63421875 -26.38671875 166.9609375 C-42.82896313 173.10018586 -62.30000262 172.56718121 -79 168 C-80.05316406 167.74476563 -81.10632813 167.48953125 -82.19140625 167.2265625 C-95.55286934 163.65257605 -107.78217753 156.24137528 -118 147 C-118.81726563 146.27554688 -119.63453125 145.55109375 -120.4765625 144.8046875 C-138.0235388 128.34421128 -148.09832743 104.85593541 -149.23828125 80.9140625 C-149.90060394 55.22369903 -141.05581012 31.03708978 -123.30078125 12.30078125 C-90.18596669 -20.81403331 -39.02571429 -27.81460711 0 0 Z M-106 11 C-106.81210938 11.61359375 -107.62421875 12.2271875 -108.4609375 12.859375 C-118.99110747 21.7371183 -126.90046424 37.38376027 -128.19628906 51.07373047 C-128.8591276 60.74742127 -128.73873724 68.77447662 -123 77 C-120.43312633 80.8503105 -121.16711276 82.58569763 -122 87 C-125.25 87.75 -125.25 87.75 -129 88 C-132.44247224 85.58096545 -133.78953271 82.96010635 -135 79 C-135.2659426 75.7253725 -135.23340348 72.47080705 -135.1875 69.1875 C-135.18685547 68.32318359 -135.18621094 67.45886719 -135.18554688 66.56835938 C-135.14974104 61.29694463 -134.75733499 56.21652342 -134 51 C-139.11218987 56.11218987 -138.25878971 65.49956783 -138.2734375 72.25585938 C-138.26570313 73.47080078 -138.25796875 74.68574219 -138.25 75.9375 C-138.25773437 77.14857422 -138.26546875 78.35964844 -138.2734375 79.60742188 C-138.2300753 99.62991647 -131.26841831 118.08493143 -117.37890625 132.75 C-105.3855804 144.0934412 -88.54062879 150.9320919 -72 151.4375 C-65.43150946 151.14250791 -60.55887701 149.32666152 -55.4375 145.25 C-52.48937358 142.97437246 -52.12538437 142.99402932 -48.0625 143.1875 C-47.051875 143.455625 -46.04125 143.72375 -45 144 C-44.1875 147.1875 -44.1875 147.1875 -44 151 C-47.26688944 155.59406327 -50.53527047 157.04584088 -56 158 C-64.50851158 158.58722473 -72.63630064 157.51086182 -81 156 C-75.27399453 161.72600547 -63.25991525 161.32752208 -55.5 161.375 C-34.28554846 161.18321428 -14.78876982 153.92038706 0.71484375 139.375 C7.59815547 132.22106235 11.64747168 124.27147487 15 115 C15.39445313 113.94554687 15.78890625 112.89109375 16.1953125 111.8046875 C19.45342681 102.34932079 21.1141487 92.23314699 17.00390625 82.76171875 C15.90502704 80.83333539 14.62767187 79.17589933 13.25 77.4375 C10.97437246 74.48937358 10.99402932 74.12538437 11.1875 70.0625 C11.455625 69.051875 11.72375 68.04125 12 67 C15.1875 66.1875 15.1875 66.1875 19 66 C23.22883764 69.1011476 24.64148653 72.04293531 26 77 C26.6153143 84.13040691 26.1262098 90.95527835 24.33984375 97.87890625 C23.96352836 100.22763334 24.27220601 101.75554442 25 104 C25.48473678 102.31409158 25.96248926 100.62617455 26.4375 98.9375 C26.70433594 97.99777344 26.97117188 97.05804688 27.24609375 96.08984375 C32.4198914 74.88531558 28.13032411 53.65240136 17.6875 34.8125 C7.08034931 17.3686205 -8.50584415 8.63298765 -27.8125 3.625 C-35.78198206 2.14973328 -43.75570398 2.0457574 -51 6 C-52.20209692 6.87614873 -53.38987567 7.77228101 -54.5625 8.6875 C-58.00410046 11.33610496 -60.65557412 11.44330876 -65 11 C-65.6302843 8.13947894 -66.11782764 5.8867771 -66 3 C-62.9361405 -1.27083445 -59.95824842 -2.63011718 -55 -4 C-46.2159977 -4.78490428 -37.62953179 -3.58184544 -29 -2 C-35.91800358 -8.91800358 -48.08567417 -7.30648288 -57.19042969 -7.31494141 C-75.1758279 -7.00576543 -92.23002721 -0.68361327 -106 11 Z " fill="#EFF9F9" transform="translate(155,23)"/>
<path d="M0 0 C2.87480249 3.63577962 2.83528921 6.20693067 2.59375 10.75390625 C1.04957011 20.41789876 -5.32474229 27.78353909 -12.875 33.6875 C-16.19140625 34.96875 -16.19140625 34.96875 -18.875 35.6875 C-18.545 36.6775 -18.215 37.6675 -17.875 38.6875 C-13.9504745 39.00146204 -11.32703796 38.88249677 -7.6875 37.3125 C-4.29188386 34.14325827 -3.40290143 31.33916019 -1.8671875 27.04296875 C-0.5063072 23.81221748 1.01484665 22.28050537 4.125 20.6875 C6.9375 20.9375 6.9375 20.9375 9.125 21.6875 C8.88276846 27.50105688 7.27902598 30.28313697 3.40234375 34.59765625 C1.7019975 37.37956831 1.91181029 39.4896544 2.125 42.6875 C4.56304479 41.23007101 7.00045275 39.77159532 9.4375 38.3125 C10.12779297 37.9 10.81808594 37.4875 11.52929688 37.0625 C12.19638672 36.66289063 12.86347656 36.26328125 13.55078125 35.8515625 C14.16348877 35.48498535 14.77619629 35.1184082 15.4074707 34.74072266 C17.00427115 33.7615333 18.56646886 32.72652076 20.125 31.6875 C20.5247971 28.97146843 20.5247971 28.97146843 20.5 25.8125 C21.02419863 16.87145166 23.34066658 8.90390761 29.875 2.5 C33.43431875 -0.24518346 36.583832 -1.40761998 41.07421875 -1.59375 C44.30131736 -1.15117648 45.97390289 0.33473754 48.125 2.6875 C49.88485623 6.20721245 48.89535323 9.93513425 48.125 13.6875 C45.22703976 20.61740493 38.89475788 28.30262106 32.125 31.6875 C32.62 33.6675 32.62 33.6675 33.125 35.6875 C34.02863281 35.73648438 34.93226562 35.78546875 35.86328125 35.8359375 C37.04277344 35.91070312 38.22226563 35.98546875 39.4375 36.0625 C40.60925781 36.13210937 41.78101563 36.20171875 42.98828125 36.2734375 C46.125 36.6875 46.125 36.6875 49.125 38.6875 C48.795 40.3375 48.465 41.9875 48.125 43.6875 C44.86999891 44.77250036 42.23422772 44.86186797 38.8125 45 C31.60514734 45.52795258 28.35908779 47.35186276 23.375 52.5625 C18.47077138 59.37392864 18.346071 66.55742853 19.125 74.6875 C20.77949559 81.10807095 23.69091396 84.98769674 29.125 88.6875 C33.97709133 90.30486378 37.75366656 90.30848118 42.4375 88.1875 C43.324375 87.6925 44.21125 87.1975 45.125 86.6875 C45.785 86.6875 46.445 86.6875 47.125 86.6875 C50.37546434 80.40326895 50.94753223 74.71211436 50.125 67.6875 C48.32799181 64.21965473 48.32799181 64.21965473 45.125 62.6875 C40.76643678 62.64044169 40.76643678 62.64044169 37.125 64.6875 C36.70537308 69.02882844 36.70537308 69.02882844 38.6875 72.75 C40.125 74.6875 40.125 74.6875 39.8125 77.4375 C39.585625 78.18 39.35875 78.9225 39.125 79.6875 C36.4375 80.0625 36.4375 80.0625 33.125 79.6875 C29.72160087 76.94998331 28.42843324 75.33925351 27.640625 71.05078125 C27.41575673 66.47221339 27.45430811 62.81668199 30.375 59.125 C35.53766439 54.54900202 39.41919317 54.2428006 46.2109375 54.375 C50.18123819 54.80076951 52.23978723 55.94654787 55.125 58.6875 C60.27097386 65.50243835 61.01195122 71.31753507 60.125 79.6875 C57.72466699 87.40516263 53.30430066 92.84967484 46.25 96.71484375 C39.78551244 99.54305706 32.71800207 99.74578105 26 97.625 C18.92069395 94.55825608 13.93517691 89.47713432 10.81640625 82.484375 C7.79805294 74.64006696 7.78674256 64.13359195 10.6875 56.1875 C14.10795959 49.00816079 19.31173117 43.67575493 26.125 39.6875 C23.24087704 38.67494777 23.24087704 38.67494777 20.37329102 39.44433594 C19.79764404 39.84942383 19.22199707 40.25451172 18.62890625 40.671875 C17.98759766 41.11273438 17.34628906 41.55359375 16.68554688 42.0078125 C16.02619141 42.47960937 15.36683594 42.95140625 14.6875 43.4375 C13.37693574 44.34986922 12.06575051 45.26134719 10.75390625 46.171875 C10.13273926 46.60564453 9.51157227 47.03941406 8.87158203 47.48632812 C2.76280488 51.6875 2.76280488 51.6875 0.125 51.6875 C0.17140625 52.37972656 0.2178125 53.07195312 0.265625 53.78515625 C0.77113688 67.48813907 -2.84857293 81.77064235 -12.16015625 92.1484375 C-17.28747484 96.75017674 -23.98374521 99.06904594 -30.81640625 98.96875 C-35.22573991 98.36633629 -37.97494545 95.44544068 -41.25 92.6875 C-44.14132928 87.34966134 -43.83989371 81.20333145 -42.25 75.41015625 C-36.42849103 62.28577218 -21.15923817 54.60213319 -8.875 48.6875 C-8.215 48.6875 -7.555 48.6875 -6.875 48.6875 C-6.545 47.0375 -6.215 45.3875 -5.875 43.6875 C-6.885625 44.1825 -7.89625 44.6775 -8.9375 45.1875 C-12.7547247 46.78827165 -15.70692391 47.29376561 -19.875 46.6875 C-22.93620887 44.91817744 -25.35809105 42.85916029 -26.8125 39.5625 C-28.54478118 36.50553321 -31.71600569 35.99467006 -34.875 34.6875 C-38.31805126 31.78808841 -39.68318137 29.71889078 -40.11328125 25.1640625 C-40.31562641 17.38974835 -40.31562641 17.38974835 -37.875 13.5 C-36.885 12.6028125 -36.885 12.6028125 -35.875 11.6875 C-34.555 12.0175 -33.235 12.3475 -31.875 12.6875 C-31.88660156 13.67492188 -31.89820313 14.66234375 -31.91015625 15.6796875 C-31.91917969 16.96101563 -31.92820312 18.24234375 -31.9375 19.5625 C-31.94910156 20.83867188 -31.96070313 22.11484375 -31.97265625 23.4296875 C-32.10676569 26.57414652 -32.10676569 26.57414652 -30.875 28.6875 C-29.885 29.0175 -28.895 29.3475 -27.875 29.6875 C-27.7925 28.388125 -27.71 27.08875 -27.625 25.75 C-26.50063133 15.67819049 -21.1812353 7.35492906 -13.55859375 0.88671875 C-9.23218338 -2.19497031 -4.69476355 -2.14326162 0 0 Z " fill="#F0F9F9" transform="translate(91.875,50.3125)"/>
<path d="M0 0 C4.26386662 3.39351034 8.12753415 7.17391099 12 11 C12.98226562 11.87398437 12.98226562 11.87398437 13.984375 12.765625 C28.12540449 25.60931234 38.05330299 48.38909434 39.12426758 67.18041992 C39.95959585 92.99283928 34.4497769 118.96965462 16.4375 138.4375 C14.64304161 140.31038645 12.82316138 142.15473969 11 144 C10.41734375 144.65484375 9.8346875 145.3096875 9.234375 145.984375 C0.4522232 155.65361284 -12.01517162 161.41886955 -24 166 C-24.78761719 166.31710938 -25.57523437 166.63421875 -26.38671875 166.9609375 C-42.82896313 173.10018586 -62.30000262 172.56718121 -79 168 C-80.05316406 167.74476563 -81.10632813 167.48953125 -82.19140625 167.2265625 C-95.55286934 163.65257605 -107.78217753 156.24137528 -118 147 C-118.81726563 146.27554688 -119.63453125 145.55109375 -120.4765625 144.8046875 C-138.0235388 128.34421128 -148.09832743 104.85593541 -149.23828125 80.9140625 C-149.90060394 55.22369903 -141.05581012 31.03708978 -123.30078125 12.30078125 C-90.18596669 -20.81403331 -39.02571429 -27.81460711 0 0 Z M-84 -8 C-85.01449219 -7.649375 -86.02898437 -7.29875 -87.07421875 -6.9375 C-110.89916447 2.03189133 -127.84291804 20.4190775 -138.2265625 43.25390625 C-146.49281638 61.91560062 -146.87942258 85.92621154 -140 105 C-139.79101074 105.6177832 -139.58202148 106.23556641 -139.36669922 106.87207031 C-131.81230976 129.08819991 -115.68467595 146.95548133 -94.75 157.4375 C-71.74905386 168.54326948 -46.29863126 169.05946055 -22.3046875 160.71484375 C0.66649951 151.65258426 16.93648714 134.47281563 27.49609375 112.49609375 C35.95814439 92.82457344 37.57665653 68.21272515 30 48 C29.649375 46.98550781 29.29875 45.97101563 28.9375 44.92578125 C20.20057266 21.718318 2.51503719 4.97542221 -19.5390625 -5.53125 C-39.26261626 -13.90151661 -63.75658222 -15.58816154 -84 -8 Z " fill="#176463" transform="translate(155,23)"/>
<path d="M0 0 C0.66 0.33 1.32 0.66 2 1 C-0.36011146 9.63455414 -0.36011146 9.63455414 -3.5625 13.1875 C-8.35935927 18.72233762 -8.44110063 24.68935934 -8.3125 31.73828125 C-7.71614708 37.96271481 -5.67184737 42.8441639 -0.9375 47 C3.49704401 50.01926401 6.70014104 50.35931247 12 50 C15.25058324 48.58376759 15.25058324 48.58376759 18 47 C18.66 47 19.32 47 20 47 C23.25046434 40.71576895 23.82253223 35.02461436 23 28 C21.20299181 24.53215473 21.20299181 24.53215473 18 23 C13.64143678 22.95294169 13.64143678 22.95294169 10 25 C9.58037308 29.34132844 9.58037308 29.34132844 11.5625 33.0625 C13 35 13 35 12.6875 37.75 C12.460625 38.4925 12.23375 39.235 12 40 C9.3125 40.375 9.3125 40.375 6 40 C2.59660087 37.26248331 1.30343324 35.65175351 0.515625 31.36328125 C0.29075673 26.78471339 0.32930811 23.12918199 3.25 19.4375 C8.41266439 14.86150202 12.29419317 14.5553006 19.0859375 14.6875 C23.05623819 15.11326951 25.11478723 16.25904787 28 19 C33.14597386 25.81493835 33.88695122 31.63003507 33 40 C30.59966699 47.71766263 26.17930066 53.16217484 19.125 57.02734375 C12.66051244 59.85555706 5.59300207 60.05828105 -1.125 57.9375 C-8.20430605 54.87075608 -13.18982309 49.78963432 -16.30859375 42.796875 C-19.32694706 34.95256696 -19.33825744 24.44609195 -16.4375 16.5 C-12.84874243 8.99393664 -7.58479908 3.42059567 0 0 Z " fill="#F1FAFA" transform="translate(119,90)"/>
<path d="M0 0 C2.87480249 3.63577962 2.83528921 6.20693067 2.59375 10.75390625 C1.04957011 20.41789876 -5.32474229 27.78353909 -12.875 33.6875 C-16.19140625 34.96875 -16.19140625 34.96875 -18.875 35.6875 C-18.23520151 37.71991727 -18.23520151 37.71991727 -16.875 39.6875 C-14.31980079 40.49921228 -14.31980079 40.49921228 -11.875 40.6875 C-12.205 42.6675 -12.535 44.6475 -12.875 46.6875 C-17.11470328 47.11147033 -19.85842177 47.12542242 -23.1875 44.4375 C-25.875 41.6875 -25.875 41.6875 -26.8125 39.5625 C-28.54478118 36.50553321 -31.71600569 35.99467006 -34.875 34.6875 C-38.31805126 31.78808841 -39.68318137 29.71889078 -40.11328125 25.1640625 C-40.31562641 17.38974835 -40.31562641 17.38974835 -37.875 13.5 C-36.885 12.6028125 -36.885 12.6028125 -35.875 11.6875 C-34.555 12.0175 -33.235 12.3475 -31.875 12.6875 C-31.88660156 13.67492188 -31.89820313 14.66234375 -31.91015625 15.6796875 C-31.91917969 16.96101563 -31.92820312 18.24234375 -31.9375 19.5625 C-31.94910156 20.83867188 -31.96070313 22.11484375 -31.97265625 23.4296875 C-32.10676569 26.57414652 -32.10676569 26.57414652 -30.875 28.6875 C-29.885 29.0175 -28.895 29.3475 -27.875 29.6875 C-27.7925 28.388125 -27.71 27.08875 -27.625 25.75 C-26.50063133 15.67819049 -21.1812353 7.35492906 -13.55859375 0.88671875 C-9.23218338 -2.19497031 -4.69476355 -2.14326162 0 0 Z " fill="#F2FAFA" transform="translate(91.875,50.3125)"/>
<path d="M0 0 C2.69990662 1.79993774 4.5418865 3.083773 6 6 C6.07826667 13.68578654 3.73491531 19.03533413 -1.41796875 24.62109375 C-8.35355649 31.67677824 -8.35355649 31.67677824 -11 33 C-10.67 34.32 -10.34 35.64 -10 37 C-9.09636719 37.04898438 -8.19273438 37.09796875 -7.26171875 37.1484375 C-6.08222656 37.22320312 -4.90273437 37.29796875 -3.6875 37.375 C-2.51574219 37.44460937 -1.34398437 37.51421875 -0.13671875 37.5859375 C3 38 3 38 6 40 C5.67 41.65 5.34 43.3 5 45 C0.79475143 46.40174952 -3.36471926 46.38292162 -7.7734375 46.62109375 C-10.86928633 46.98464985 -13.18601789 47.69840153 -16 49 C-15.67 46.69 -15.34 44.38 -15 42 C-15.66 41.67 -16.32 41.34 -17 41 C-17 39.68 -17 38.36 -17 37 C-17.99 37 -18.98 37 -20 37 C-20 36.34 -20 35.68 -20 35 C-20.66 34.67 -21.32 34.34 -22 34 C-21.67 33.34 -21.34 32.68 -21 32 C-20.81764576 29.79438208 -20.67844764 27.58510398 -20.5625 25.375 C-19.92297878 16.16777531 -19.14011536 9.42610382 -12 3 C-7.93408831 0.3740987 -4.8327834 -0.71977625 0 0 Z " fill="#F3FAFA" transform="translate(135,49)"/>
<path d="M0 0 C-0.28532191 11.4906913 -4.1612669 22.99907987 -12.25 31.3125 C-16.08394852 33.66515023 -18.47989001 34 -23 34 C-25.5 32.5 -25.5 32.5 -27 30 C-27.9154665 25.33112083 -26.99347856 22.48998625 -24.5625 18.5625 C-19.66750402 11.8218498 -9.01310496 0 0 0 Z " fill="#096160" transform="translate(84,107)"/>
<path d="M0 0 C2.87480249 3.63577962 2.83528921 6.20693067 2.59375 10.75390625 C1.0218982 20.59107879 -5.44593771 27.45464265 -12.875 33.6875 C-14.36 34.1825 -14.36 34.1825 -15.875 34.6875 C-16.205 34.0275 -16.535 33.3675 -16.875 32.6875 C-15.885 32.6875 -14.895 32.6875 -13.875 32.6875 C-13.875 30.7075 -13.875 28.7275 -13.875 26.6875 C-15.855 27.3475 -17.835 28.0075 -19.875 28.6875 C-19.42434712 20.57574813 -16.7649807 13.42731122 -10.875 7.6875 C-10.16052357 5.58417109 -10.16052357 5.58417109 -9.875 3.6875 C-10.865 3.3575 -11.855 3.0275 -12.875 2.6875 C-12.545 1.6975 -12.215 0.7075 -11.875 -0.3125 C-7.40626873 -1.80207709 -4.3356334 -1.9793109 0 0 Z " fill="#EFF9F8" transform="translate(91.875,50.3125)"/>
<path d="M0 0 C24.49716288 -0.6546453 46.38083368 3.01131069 67 17 C68.70993434 18.6222454 70.3910161 20.27758124 72 22 C70.02 21.34 68.04 20.68 66 20 C65.505 21.485 65.505 21.485 65 23 C64.44054687 22.56429688 63.88109375 22.12859375 63.3046875 21.6796875 C48.76431476 10.87960357 32.39687788 6.31412937 14.5625 5.4375 C13.73556641 5.39431641 12.90863281 5.35113281 12.05664062 5.30664062 C10.03790451 5.20161967 8.01897049 5.10041441 6 5 C9.57386064 1.42613936 15.14791553 2.30970752 20 2 C13.4 1.67 6.8 1.34 0 1 C0 0.67 0 0.34 0 0 Z " fill="#156462" transform="translate(88,6)"/>
<path d="M0 0 C0.33 0 0.66 0 1 0 C1.53795053 18.91378881 -0.20637225 35.58916587 -8 53 C-8.66 53.66 -9.32 54.32 -10 55 C-9.505 52.03 -9.505 52.03 -9 49 C-10.485 49.495 -10.485 49.495 -12 50 C-11.81824219 49.46632812 -11.63648438 48.93265625 -11.44921875 48.3828125 C-10.04732778 44.22746387 -8.67870056 40.062255 -7.375 35.875 C-7.01535156 34.72644531 -7.01535156 34.72644531 -6.6484375 33.5546875 C-4.97937148 26.97896959 -4.73369326 20.3069663 -4.4375 13.5625 C-4.37272461 12.17901367 -4.37272461 12.17901367 -4.30664062 10.76757812 C-4.20145069 8.51183837 -4.09930893 6.25600501 -4 4 C-3.01 4.99 -2.02 5.98 -1 7 C-0.67 4.69 -0.34 2.38 0 0 Z " fill="#1C6666" transform="translate(193,88)"/>
<path d="M0 0 C0.556875 0.268125 1.11375 0.53625 1.6875 0.8125 C2.53054473 6.29229073 0.54285069 9.26298834 -2.51953125 13.5546875 C-5.17444295 16.89790964 -7.97227449 20.1351543 -11.3125 22.8125 C-11.9725 22.8125 -12.6325 22.8125 -13.3125 22.8125 C-12.86821972 14.81545493 -10.16425983 7.65946916 -4.75 1.625 C-2.3125 -0.1875 -2.3125 -0.1875 0 0 Z " fill="#106262" transform="translate(85.3125,56.1875)"/>
<path d="M0 0 C0.33 0.66 0.66 1.32 1 2 C1.66 2.33 2.32 2.66 3 3 C1.31949716 7.62632547 -0.12540851 11.20314998 -3.8125 14.5625 C-7.46237682 16.20852288 -10.03893436 16.31688525 -14 16 C-14.33 14.68 -14.66 13.36 -15 12 C-14.50371094 11.72027344 -14.00742188 11.44054687 -13.49609375 11.15234375 C-8.2377637 8.04923057 -4.13243094 4.4811048 0 0 Z " fill="#146361" transform="translate(88,74)"/>
<path d="M0 0 C-0.5354059 4.55095015 -2.3223725 7.32782514 -5 11 C-5.66 11.9075 -6.32 12.815 -7 13.75 C-8.9699888 15.9662374 -10.36065959 16.79030231 -13 18 C-12.7614615 10.4860373 -10.86268236 5.77846605 -6 0 C-3.50907189 -1.24546405 -2.58919267 -0.7767578 0 0 Z " fill="#116161" transform="translate(134,57)"/>
<path d="M0 0 C0.66 0 1.32 0 2 0 C2 0.66 2 1.32 2 2 C1.34 2 0.68 2 0 2 C-0.33 2.99 -0.66 3.98 -1 5 C0.32 5.33 1.64 5.66 3 6 C3 6.66 3 7.32 3 8 C-8.88840168 10.96612034 -23.46006861 9.79442691 -35 6 C-35.66 5.34 -36.32 4.68 -37 4 C-36.20078125 4.144375 -35.4015625 4.28875 -34.578125 4.4375 C-24.06393085 6.2145469 -12.89006058 8.10251533 -3 3 C-1.99516917 2.00485428 -0.99435042 1.00561784 0 0 Z " fill="#347172" transform="translate(111,175)"/>
<path d="M0 0 C1.83300781 0.75561523 1.83300781 0.75561523 2.83300781 2.75561523 C2.25292969 3.08432617 1.67285156 3.41303711 1.07519531 3.75170898 C-5.08881289 7.50504071 -8.6212097 11.49835202 -12.16699219 17.75561523 C-12.82699219 17.42561523 -13.48699219 17.09561523 -14.16699219 16.75561523 C-14.16699219 14.75561523 -14.16699219 12.75561523 -14.16699219 10.75561523 C-15.15699219 10.42561523 -16.14699219 10.09561523 -17.16699219 9.75561523 C-14.76019217 8.05229532 -12.34330892 6.3682156 -9.91699219 4.69311523 C-8.89412109 3.96511719 -8.89412109 3.96511719 -7.85058594 3.22241211 C-7.18671875 2.76801758 -6.52285156 2.31362305 -5.83886719 1.84545898 C-5.23139648 1.42127686 -4.62392578 0.99709473 -3.99804688 0.56005859 C-2.16699219 -0.24438477 -2.16699219 -0.24438477 0 0 Z " fill="#126361" transform="translate(116.1669921875,88.244384765625)"/>
<path d="M0 0 C0.66 0 1.32 0 2 0 C2.35233161 4.40414508 2.35233161 4.40414508 1 7 C-2.7919751 9.493724 -6.8104774 11.27490246 -11 13 C-11.33 12.34 -11.66 11.68 -12 11 C-11.01 10.34 -10.02 9.68 -9 9 C-11.31 9 -13.62 9 -16 9 C-13.03613966 7.02409311 -10.07091912 5.50465552 -6.875 3.9375 C-3.19709011 2.32806646 -3.19709011 2.32806646 0 0 Z " fill="#E3F4F4" transform="translate(145,170)"/>
<path d="M0 0 C0.33 0 0.66 0 1 0 C1 6.93 1 13.86 1 21 C0.34 20.34 -0.32 19.68 -1 19 C-1.99 21.475 -1.99 21.475 -3 24 C-3.33 24 -3.66 24 -4 24 C-4 17.4 -4 10.8 -4 4 C-3.01 4.99 -2.02 5.98 -1 7 C-0.67 4.69 -0.34 2.38 0 0 Z " fill="#266F6F" transform="translate(193,88)"/>
<path d="M0 0 C0.99 0.33 1.98 0.66 3 1 C4.1875 4.0625 4.1875 4.0625 5 7 C4.01 7 3.02 7 2 7 C2.33 7.66 2.66 8.32 3 9 C3.99 9.33 4.98 9.66 6 10 C6 10.66 6 11.32 6 12 C6.61875 11.814375 7.2375 11.62875 7.875 11.4375 C10 11 10 11 12 12 C12.33 11.34 12.66 10.68 13 10 C13 10.99 13 11.98 13 13 C7.5610835 13.21755666 3.12919186 13.10428384 -2 11 C-2.12375 10.195625 -2.2475 9.39125 -2.375 8.5625 C-2.684375 7.2940625 -2.684375 7.2940625 -3 6 C-3.66 5.67 -4.32 5.34 -5 5 C-3.35 3.35 -1.7 1.7 0 0 Z " fill="#05605F" transform="translate(120,126)"/>
<path d="M0 0 C3.5624308 -0.05827558 7.12473819 -0.09368885 10.6875 -0.125 C12.19860352 -0.15013672 12.19860352 -0.15013672 13.74023438 -0.17578125 C14.71669922 -0.18222656 15.69316406 -0.18867187 16.69921875 -0.1953125 C17.59471436 -0.20578613 18.49020996 -0.21625977 19.4128418 -0.22705078 C22.353013 0.03098066 24.4151207 0.56599868 27 2 C27.33 3.32 27.66 4.64 28 6 C20.74 5.67 13.48 5.34 6 5 C9.57386064 1.42613936 15.14791553 2.30970752 20 2 C13.4 1.67 6.8 1.34 0 1 C0 0.67 0 0.34 0 0 Z " fill="#307373" transform="translate(88,6)"/>
<path d="M0 0 C2.375 2 2.375 2 4 4 C0.37 3.34 -3.26 2.68 -7 2 C-7.33 3.32 -7.66 4.64 -8 6 C-6.35 6 -4.7 6 -3 6 C-3.763125 6.598125 -4.52625 7.19625 -5.3125 7.8125 C-7.3483575 9.46959332 -9.1978279 11.10297674 -11 13 C-11.28875 12.21625 -11.5775 11.4325 -11.875 10.625 C-12.84912254 7.90328368 -12.84912254 7.90328368 -15 6 C-10.03543852 1.69738005 -6.91475758 -0.70558751 0 0 Z " fill="#E1F3F4" transform="translate(135,49)"/>
<path d="M0 0 C-0.11442461 1.60495567 -0.24194694 3.20898119 -0.375 4.8125 C-0.44460937 5.70582031 -0.51421875 6.59914063 -0.5859375 7.51953125 C-1 10 -1 10 -3 13 C-3 11.35 -3 9.7 -3 8 C-3.5775 8.680625 -4.155 9.36125 -4.75 10.0625 C-5.86375 11.0215625 -5.86375 11.0215625 -7 12 C-9.25 11.75 -9.25 11.75 -11 11 C-10.01 9.68 -9.02 8.36 -8 7 C-9.65 7.33 -11.3 7.66 -13 8 C-9.81692689 4.43495812 -5.03655764 0 0 0 Z " fill="#176765" transform="translate(84,107)"/>
<path d="M0 0 C0.33 0.99 0.66 1.98 1 3 C1.99 3.33 2.98 3.66 4 4 C3.67 5.32 3.34 6.64 3 8 C2.67 7.34 2.34 6.68 2 6 C1.34 6 0.68 6 0 6 C0.33 7.98 0.66 9.96 1 12 C1.33 12 1.66 12 2 12 C2.10867302 13.58179615 2.18589827 15.16577153 2.25 16.75 C2.29640625 17.63171875 2.3428125 18.5134375 2.390625 19.421875 C1.88630587 22.75038125 0.52413371 23.87336766 -2 26 C-2.05449228 23.16640156 -2.09390733 20.33387515 -2.125 17.5 C-2.14175781 16.70851563 -2.15851562 15.91703125 -2.17578125 15.1015625 C-2.21989226 9.72001921 -1.50594058 5.17000073 0 0 Z " fill="#25706E" transform="translate(8,82)"/>
<path d="M0 0 C0.33 0 0.66 0 1 0 C1.28536581 9.13170591 1.33142763 17.99356463 -0.375 27 C-0.50108643 27.67546875 -0.62717285 28.3509375 -0.75708008 29.046875 C-1.39077314 32.10820939 -1.74530266 33.74530266 -4 36 C-3.85704109 34.60386935 -3.71048442 33.20810692 -3.5625 31.8125 C-3.48128906 31.03519531 -3.40007812 30.25789063 -3.31640625 29.45703125 C-3 27 -3 27 -2.48046875 24.59375 C-0.95253454 16.34538969 -1.43358266 8.57863685 -5 1 C-3.02 1.99 -3.02 1.99 -1 3 C-0.67 2.01 -0.34 1.02 0 0 Z " fill="#407777" transform="translate(183,91)"/>
<path d="M0 0 C6.93 0 13.86 0 21 0 C21.33 0.66 21.66 1.32 22 2 C21.08476563 2.06058594 20.16953125 2.12117187 19.2265625 2.18359375 C18.03804687 2.26738281 16.84953125 2.35117188 15.625 2.4375 C13.84996094 2.55931641 13.84996094 2.55931641 12.0390625 2.68359375 C9.08481099 2.81084936 9.08481099 2.81084936 7 4 C4.62597499 4.07116382 2.24999323 4.08409085 -0.125 4.0625 C-1.40632813 4.05347656 -2.68765625 4.04445313 -4.0078125 4.03515625 C-5.48894531 4.01775391 -5.48894531 4.01775391 -7 4 C-6.67 3.34 -6.34 2.68 -6 2 C-4.02 2 -2.04 2 0 2 C0 1.34 0 0.68 0 0 Z " fill="#085E5D" transform="translate(87,7)"/>
<path d="M0 0 C0.99 1.32 1.98 2.64 3 4 C-1.01254885 7.51098025 -5.20983041 9.76537994 -10 12 C-10.36923077 5.47692308 -10.36923077 5.47692308 -8.5 3.0625 C-8.005 2.711875 -7.51 2.36125 -7 2 C-7 2.99 -7 3.98 -7 5 C-4.69 3.35 -2.38 1.7 0 0 Z " fill="#176565" transform="translate(103,82)"/>
<path d="M0 0 C-1.134375 0.268125 -2.26875 0.53625 -3.4375 0.8125 C-4.613125 1.204375 -5.78875 1.59625 -7 2 C-7.33 2.99 -7.66 3.98 -8 5 C-13.94 5 -19.88 5 -26 5 C-26 4.67 -26 4.34 -26 4 C-24.02 3.67 -22.04 3.34 -20 3 C-20 2.67 -20 2.34 -20 2 C-16.7 2 -13.4 2 -10 2 C-13.3 1.67 -16.6 1.34 -20 1 C-20 0.67 -20 0.34 -20 0 C-17.41703983 -0.19522373 -14.83395921 -0.38144403 -12.25 -0.5625 C-11.52039063 -0.61857422 -10.79078125 -0.67464844 -10.0390625 -0.73242188 C-6.45046349 -0.97709908 -3.44972775 -0.99666259 0 0 Z " fill="#2B7272" transform="translate(116,189)"/>
<path d="M0 0 C1 3 1 3 0.3125 5.375 C-1.13171334 8.26342669 -2.97209185 10.49891328 -5 13 C-5 13.66 -5 14.32 -5 15 C-6.64453125 16.62109375 -6.64453125 16.62109375 -8.8125 18.4375 C-11.31102718 20.54463676 -13.7242056 22.65241398 -16 25 C-16.66 24.34 -17.32 23.68 -18 23 C-17.18208984 22.26910156 -17.18208984 22.26910156 -16.34765625 21.5234375 C-9.50959463 15.09449068 -4.79974742 7.97688519 0 0 Z " fill="#E2F4F5" transform="translate(182,145)"/>
<path d="M0 0 C1.33651851 3.88085375 0.8849455 7.45549839 0.5625 11.5 C0.26242226 15.3592276 0 19.1279366 0 23 C0.99 23 1.98 23 3 23 C2.67 23.99 2.34 24.98 2 26 C0.02 26.33 -1.96 26.66 -4 27 C-4 23 -4 23 -3.52734375 21.1484375 C-2.57633209 17.27394556 -2.59753979 13.2616805 -2.37890625 9.2890625 C-1.9947615 5.95452768 -1.17035234 3.13673381 0 0 Z " fill="#DAEEEE" transform="translate(115,63)"/>
<path d="M0 0 C28.9389332 -0.27380359 28.9389332 -0.27380359 36 4 C32.71657795 5.09447402 31.91445558 4.89228858 28.6875 4.0625 C22.14329443 2.61792721 15.66797693 2.82705535 9 3 C9 2.34 9 1.68 9 1 C6.03 1 3.06 1 0 1 C0 0.67 0 0.34 0 0 Z " fill="#5F8D8C" transform="translate(90,16)"/>
<path d="M0 0 C0.33 0 0.66 0 1 0 C1.2361959 6.40353322 0.823321 11.84629161 -1 18 C-1.66 18 -2.32 18 -3 18 C-3.33 18.66 -3.66 19.32 -4 20 C-3.91224337 17.79095369 -3.80405633 15.58271407 -3.6875 13.375 C-3.62949219 12.14523438 -3.57148438 10.91546875 -3.51171875 9.6484375 C-2.98003547 5.8576575 -1.89352204 3.29970329 0 0 Z " fill="#166263" transform="translate(192,106)"/>
<path d="M0 0 C7.40239645 -0.12886183 14.63959083 0.20274098 22 1 C20 3 20 3 18.0546875 3.1953125 C16.03645833 3.13020833 14.01822917 3.06510417 12 3 C12 3.33 12 3.66 12 4 C8.7 4 5.4 4 2 4 C1.34 2.68 0.68 1.36 0 0 Z " fill="#0C5D5B" transform="translate(85,189)"/>
<path d="M0 0 C2 1 2 1 3.125 3.4375 C4.2500509 8.01806438 4.1668521 12.30960202 4 17 C1.28668485 14.75431031 0.11103751 13.51346438 -0.64453125 10.01953125 C-0.69996094 8.96121094 -0.75539062 7.90289062 -0.8125 6.8125 C-0.88082031 5.74644531 -0.94914063 4.68039063 -1.01953125 3.58203125 C-1 1 -1 1 0 0 Z " fill="#0A5E5B" transform="translate(189,79)"/>
<path d="M0 0 C0.99 0.66 1.98 1.32 3 2 C3 2.66 3 3.32 3 4 C3.99 4 4.98 4 6 4 C6.33 3.01 6.66 2.02 7 1 C7 2.98 7 4.96 7 7 C6.01 7.495 6.01 7.495 5 8 C3.9790625 6.7934375 3.9790625 6.7934375 2.9375 5.5625 C-0.52541475 2.54165948 -2.44324917 2 -7 2 C-9.18529785 2.76838839 -9.18529785 2.76838839 -10 5 C-9.92929172 7.76306185 -9.49375718 10.26189199 -9 13 C-9.99 12.67 -10.98 12.34 -12 12 C-12 8.7 -12 5.4 -12 2 C-7.22806914 -0.38596543 -5.22573558 -0.33179274 0 0 Z " fill="#105B5A" transform="translate(176,87)"/>
<path d="M0 0 C1.5877405 0.90901174 3.17001197 1.82757924 4.75 2.75 C6.07257813 3.51570313 6.07257813 3.51570313 7.421875 4.296875 C9.96537343 5.97712548 11.92902925 7.77419032 14 10 C12.02 9.34 10.04 8.68 8 8 C7.67 8.99 7.34 9.98 7 11 C4.69 9.35 2.38 7.7 0 6 C0.66 5.67 1.32 5.34 2 5 C1.34 3.35 0.68 1.7 0 0 Z " fill="#176869" transform="translate(146,18)"/>
<path d="M0 0 C0.66 0.33 1.32 0.66 2 1 C1.67 2.65 1.34 4.3 1 6 C-3.26131585 7.42043862 -7.50347102 7.43715583 -11.96875 7.71875 C-15.0434509 7.88824496 -15.0434509 7.88824496 -18 9 C-18 8.34 -18 7.68 -18 7 C-13.9519758 4.3013172 -10.58560419 4.66774913 -5.8125 4.5390625 C-2.8696314 4.26442029 -2.8696314 4.26442029 -1.125 1.9609375 C-0.75375 1.31382813 -0.3825 0.66671875 0 0 Z " fill="#D6F0F0" transform="translate(139,88)"/>
<path d="M0 0 C0 0.66 0 1.32 0 2 C-0.99 2.33 -1.98 2.66 -3 3 C-2.34 3 -1.68 3 -1 3 C-1 3.66 -1 4.32 -1 5 C-4.63 5.66 -8.26 6.32 -12 7 C-12 6.34 -12 5.68 -12 5 C-13.32 4.34 -14.64 3.68 -16 3 C-13.89679937 2.49595192 -11.79240209 1.99689492 -9.6875 1.5 C-8.51574219 1.2215625 -7.34398438 0.943125 -6.13671875 0.65625 C-3 0 -3 0 0 0 Z " fill="#23686A" transform="translate(87,7)"/>
<path d="M0 0 C0.7734375 0.495 0.7734375 0.495 1.5625 1 C7.18592008 3.30704414 12.48605289 1.80047253 18 0 C17.67 1.65 17.34 3.3 17 5 C14.69 5.33 12.38 5.66 10 6 C10 5.34 10 4.68 10 4 C8.72125 4.020625 7.4425 4.04125 6.125 4.0625 C2.25 4.125 2.25 4.125 0 3 C0 2.01 0 1.02 0 0 Z " fill="#125F5D" transform="translate(68,94)"/>
<path d="M0 0 C0.66 0.33 1.32 0.66 2 1 C2.28431071 5.56104108 2.52145648 10.12335154 2.75 14.6875 C2.87181641 16.62786133 2.87181641 16.62786133 2.99609375 18.60742188 C3.05410156 19.85458984 3.11210937 21.10175781 3.171875 22.38671875 C3.2347168 23.53358154 3.29755859 24.68044434 3.36230469 25.86206055 C2.92186999 29.676688 1.61197853 31.2601153 -1 34 C-0.8928064 33.02099731 -0.8928064 33.02099731 -0.78344727 32.0222168 C-0.06517558 24.9292055 0.12191637 17.93789375 0.0625 10.8125 C0.05573242 9.24145508 0.05573242 9.24145508 0.04882812 7.63867188 C0.03720124 5.09238464 0.02086281 2.5462254 0 0 Z " fill="#EDFEFE" transform="translate(193,86)"/>
<path d="M0 0 C2.49361571 1.20381448 4.68143083 2.45428722 7 4 C7.6875 7.625 7.6875 7.625 8 11 C6.51444617 10.07265428 5.03672494 9.13275187 3.5625 8.1875 C2.73878906 7.66542969 1.91507813 7.14335937 1.06640625 6.60546875 C-1 5 -1 5 -2 2 C-1.34 2 -0.68 2 0 2 C0 1.34 0 0.68 0 0 Z " fill="#176362" transform="translate(41,168)"/>
<path d="M0 0 C0.66 0.33 1.32 0.66 2 1 C1 3 1 3 -1.5625 4.5 C-2.366875 4.995 -3.17125 5.49 -4 6 C-4 6.66 -4 7.32 -4 8 C-4.53625 8.061875 -5.0725 8.12375 -5.625 8.1875 C-9.11156962 9.38027382 -11.24940393 11.56197166 -14 14 C-12.64527694 8.41176736 -8.41886827 5.30998246 -4 2 C-1.8671875 0.73046875 -1.8671875 0.73046875 0 0 Z " fill="#E1F4F4" transform="translate(119,90)"/>
<path d="M0 0 C1.32 0.33 2.64 0.66 4 1 C3.67 5.62 3.34 10.24 3 15 C2.34 14.67 1.68 14.34 1 14 C1.33 10.37 1.66 6.74 2 3 C1.01 3 0.02 3 -1 3 C-1.33 4.32 -1.66 5.64 -2 7 C-2.66 7 -3.32 7 -4 7 C-2.92598892 4.08482708 -2.22189824 2.22189824 0 0 Z " fill="#C6E6E7" transform="translate(56,62)"/>
<path d="M0 0 C1 2 1 2 0.44140625 4.1640625 C0.15136719 4.97617188 -0.13867188 5.78828125 -0.4375 6.625 C-0.72496094 7.44226563 -1.01242188 8.25953125 -1.30859375 9.1015625 C-1.65083984 10.04128906 -1.65083984 10.04128906 -2 11 C-3.32 11 -4.64 11 -6 11 C-5.62671065 5.64951939 -4.0042343 3.49087093 0 0 Z " fill="#106060" transform="translate(184,136)"/>
<path d="M0 0 C2.64 0.33 5.28 0.66 8 1 C7.01 1.33 6.02 1.66 5 2 C5.66 3.32 6.32 4.64 7 6 C5.741875 5.87625 4.48375 5.7525 3.1875 5.625 C2.12595703 5.52058594 2.12595703 5.52058594 1.04296875 5.4140625 C-1 5 -1 5 -4 3 C-3.01 2.67 -2.02 2.34 -1 2 C-0.67 1.34 -0.34 0.68 0 0 Z " fill="#256D6D" transform="translate(80,187)"/>
<path d="M0 0 C-0.15481795 2.70931419 -0.48172081 4.46584039 -2.40234375 6.4453125 C-3.89771708 7.67679642 -5.4462924 8.8429837 -7 10 C-6.39169139 3.55192878 -6.39169139 3.55192878 -4.625 1.0625 C-3 0 -3 0 0 0 Z " fill="#0B5E5D" transform="translate(170,159)"/>
<path d="M0 0 C2.31 0 4.62 0 7 0 C6.2890625 1.953125 6.2890625 1.953125 5 4 C2.8359375 4.609375 2.8359375 4.609375 0.375 4.75 C-0.44226563 4.80671875 -1.25953125 4.8634375 -2.1015625 4.921875 C-2.72804688 4.94765625 -3.35453125 4.9734375 -4 5 C-4 4.34 -4 3.68 -4 3 C-2.68 3 -1.36 3 0 3 C0 2.01 0 1.02 0 0 Z " fill="#0D6060" transform="translate(126,185)"/>
<path d="M0 0 C3 0 3 0 6 1 C4.35 3.64 2.7 6.28 1 9 C0.34 8.01 -0.32 7.02 -1 6 C-1.66 5.67 -2.32 5.34 -3 5 C-1.6875 2.5 -1.6875 2.5 0 0 Z " fill="#1C6566" transform="translate(22,47)"/>
<path d="M0 0 C0.33 0.66 0.66 1.32 1 2 C1.66 2.33 2.32 2.66 3 3 C2.01 5.64 1.02 8.28 0 11 C-1 8 -1 8 -1 6 C-2.65 6.33 -4.3 6.66 -6 7 C-4.02 4.69 -2.04 2.38 0 0 Z " fill="#2D706E" transform="translate(88,74)"/>
<path d="M0 0 C4.29 0 8.58 0 13 0 C13 0.66 13 1.32 13 2 C9.535 3.485 9.535 3.485 6 5 C6 3.68 6 2.36 6 1 C3.69 1.33 1.38 1.66 -1 2 C-0.67 1.34 -0.34 0.68 0 0 Z " fill="#175F5F" transform="translate(86,17)"/>
<path d="M0 0 C-2.5654594 2.5654594 -4.47686668 2.54046087 -8 3 C-8 3.33 -8 3.66 -8 4 C-9.65 4 -11.3 4 -13 4 C-13 3.01 -13 2.02 -13 1 C-4.57142857 -1.42857143 -4.57142857 -1.42857143 0 0 Z " fill="#075D5D" transform="translate(121,189)"/>
<path d="M0 0 C1.75665645 5.69356026 -0.75511881 10.70849435 -3 16 C-3.33 16 -3.66 16 -4 16 C-3.47606294 10.13190493 -2.23891142 5.45126259 0 0 Z " fill="#DAF1F1" transform="translate(17,66)"/>
<path d="M0 0 C4.12259123 1.4550322 7.57054699 3.27202602 11 6 C11.875 8.75 11.875 8.75 12 11 C7.81576108 7.49102731 3.80411834 3.91939465 0 0 Z " fill="#D9F2F2" transform="translate(156,24)"/>
<path d="M0 0 C0.98484375 0.00902344 1.9696875 0.01804687 2.984375 0.02734375 C4.10585937 0.04474609 4.10585937 0.04474609 5.25 0.0625 C5.25 0.3925 5.25 0.7225 5.25 1.0625 C4.34507813 1.13597656 4.34507813 1.13597656 3.421875 1.2109375 C2.62265625 1.28570313 1.8234375 1.36046875 1 1.4375 C-0.18335937 1.54191406 -0.18335937 1.54191406 -1.390625 1.6484375 C-3.84733198 2.07958144 -5.54254956 2.94068092 -7.75 4.0625 C-11 4.1875 -11 4.1875 -13.75 4.0625 C-9.21239141 0.33517866 -5.79921987 -0.06903833 0 0 Z " fill="#448383" transform="translate(117.75,25.9375)"/>
<path d="M0 0 C0.66 0.33 1.32 0.66 2 1 C2 4.63 2 8.26 2 12 C1.34 12 0.68 12 0 12 C-0.33 12.66 -0.66 13.32 -1 14 C-0.67 9.38 -0.34 4.76 0 0 Z " fill="#055E5E" transform="translate(189,112)"/>
<path d="M0 0 C0.556875 0.165 1.11375 0.33 1.6875 0.5 C4.18691249 1.04041351 6.45045662 1.07082065 9 1 C8.1646875 1.37125 8.1646875 1.37125 7.3125 1.75 C4.84535202 2.99199765 4.84535202 2.99199765 2.375 5.125 C0 7 0 7 -2 7 C-1.125 2.25 -1.125 2.25 0 0 Z " fill="#1B6362" transform="translate(91,69)"/>
<path d="M0 0 C0.66 0.33 1.32 0.66 2 1 C1.73781251 5.4571874 1.42288711 7.51522698 -1.5625 10.9375 C-2.366875 11.618125 -3.17125 12.29875 -4 13 C-3.59658469 10.09540975 -3.22814394 8.30115 -1.4375 5.9375 C0.39723128 3.86669005 0.39723128 3.86669005 0 0 Z " fill="#DCF4F5" transform="translate(99,71)"/>
<path d="M0 0 C0.66 0.33 1.32 0.66 2 1 C1.67 1.99 1.34 2.98 1 4 C1.66 4 2.32 4 3 4 C2.1875 5.9375 2.1875 5.9375 1 8 C0.01 8.33 -0.98 8.66 -2 9 C-1.125 1.125 -1.125 1.125 0 0 Z " fill="#246966" transform="translate(74,70)"/>
<path d="M0 0 C0.99 0.33 1.98 0.66 3 1 C2.67 1.99 2.34 2.98 2 4 C1.34 4 0.68 4 0 4 C-0.66 5.32 -1.32 6.64 -2 8 C-2.99 7.67 -3.98 7.34 -5 7 C-3.75023244 3.34683329 -3.32901247 2.21934164 0 0 Z " fill="#035F5D" transform="translate(85,79)"/>
<path d="M0 0 C0.99 0.33 1.98 0.66 3 1 C1.02 5.455 1.02 5.455 -1 10 C-2.31223496 6.06329512 -1.24296256 3.87511856 0 0 Z M-3 1 C-2.34 1.99 -1.68 2.98 -1 4 C-1.99 4.33 -2.98 4.66 -4 5 C-3.67 3.68 -3.34 2.36 -3 1 Z " fill="#256C6B" transform="translate(185,133)"/>
<path d="M0 0 C0.66 0.99 1.32 1.98 2 3 C1.21625 3.0825 0.4325 3.165 -0.375 3.25 C-1.24125 3.4975 -2.1075 3.745 -3 4 C-4.09166275 5.93330603 -4.09166275 5.93330603 -5 8 C-7.05859375 9.12890625 -7.05859375 9.12890625 -9 10 C-8.06862408 8.70391053 -7.1296434 7.41328368 -6.1875 6.125 C-5.66542969 5.40570313 -5.14335938 4.68640625 -4.60546875 3.9453125 C-3 2 -3 2 0 0 Z " fill="#206968" transform="translate(48,35)"/>
<path d="M0 0 C0.86625 1.11375 0.86625 1.11375 1.75 2.25 C3.72253526 4.66087643 5.76044282 6.84042701 8 9 C7.01 9.495 7.01 9.495 6 10 C3.4375 9 3.4375 9 1 7 C0.1875 3.3125 0.1875 3.3125 0 0 Z " fill="#226966" transform="translate(52,78)"/>
<path d="M0 0 C0.66 0 1.32 0 2 0 C2 1.65 2 3.3 2 5 C0.02 5.33 -1.96 5.66 -4 6 C-3.67 5.01 -3.34 4.02 -3 3 C-2.34 3 -1.68 3 -1 3 C-0.67 2.01 -0.34 1.02 0 0 Z " fill="#0D605A" transform="translate(148,175)"/>
<path d="M0 0 C0.99 0.66 1.98 1.32 3 2 C2.67 3.32 2.34 4.64 2 6 C0.0625 5.1875 0.0625 5.1875 -2 4 C-2.33 3.01 -2.66 2.02 -3 1 C-2.01 0.67 -1.02 0.34 0 0 Z " fill="#0F5D5C" transform="translate(33,160)"/>
<path d="M0 0 C1.875 0.75 1.875 0.75 2.875 2.75 C0.895 3.74 -1.085 4.73 -3.125 5.75 C-3.125 4.76 -3.125 3.77 -3.125 2.75 C-3.785 2.42 -4.445 2.09 -5.125 1.75 C-2.125 -0.25 -2.125 -0.25 0 0 Z " fill="#246965" transform="translate(116.125,88.25)"/>
<path d="M0 0 C2.39073445 3.82517513 2.55966552 7.59665524 3 12 C1.66666667 10 0.33333333 8 -1 6 C-1.66 6.66 -2.32 7.32 -3 8 C-3 6.35 -3 4.7 -3 3 C-2.01 3.33 -1.02 3.66 0 4 C0 2.68 0 1.36 0 0 Z " fill="#377576" transform="translate(190,74)"/>
<path d="M0 0 C1.625 1.6875 1.625 1.6875 3 4 C2.1875 6.75 2.1875 6.75 1 9 C-0.5625 7.75 -0.5625 7.75 -2 6 C-1.7181953 3.67511119 -1.04553582 2.09107165 0 0 Z " fill="#206769" transform="translate(176,45)"/>
<path d="M0 0 C0.66 0.33 1.32 0.66 2 1 C1.67 1.66 1.34 2.32 1 3 C2.32 3.33 3.64 3.66 5 4 C2.69 4.66 0.38 5.32 -2 6 C-2 5.34 -2 4.68 -2 4 C-2.99 3.34 -3.98 2.68 -5 2 C-2.625 0.9375 -2.625 0.9375 0 0 Z " fill="#1F6966" transform="translate(134,182)"/>
<path d="M0 0 C0.66 0 1.32 0 2 0 C1.65120368 3.25543229 0.97866739 4.01873107 -1.5625 6.25 C-2.366875 6.8275 -3.17125 7.405 -4 8 C-3.67 6.35 -3.34 4.7 -3 3 C-2.34 3 -1.68 3 -1 3 C-0.67 2.01 -0.34 1.02 0 0 Z " fill="#1B6462" transform="translate(156,157)"/>
<path d="M0 0 C0.33 0 0.66 0 1 0 C0.52060632 4.71403788 0.03165952 8.66579301 -2 13 C-2.66 13 -3.32 13 -4 13 C-3.52140759 11.39566191 -3.04210442 9.79153584 -2.5625 8.1875 C-2.29566406 7.29417969 -2.02882812 6.40085938 -1.75390625 5.48046875 C-1.19612127 3.64526945 -0.60655425 1.81966274 0 0 Z " fill="#D5EBED" transform="translate(170,135)"/>
<path d="M0 0 C1.093125 0.226875 2.18625 0.45375 3.3125 0.6875 C3.3125 1.6775 3.3125 2.6675 3.3125 3.6875 C2.6525 3.6875 1.9925 3.6875 1.3125 3.6875 C1.3125 3.0275 1.3125 2.3675 1.3125 1.6875 C-1.3275 2.0175 -3.9675 2.3475 -6.6875 2.6875 C-4.58035839 -0.41123767 -3.86755884 -0.32775922 0 0 Z " fill="#226867" transform="translate(135.6875,112.3125)"/>
<path d="M0 0 C0.99 0 1.98 0 3 0 C3 0.66 3 1.32 3 2 C3.99 2.33 4.98 2.66 6 3 C2.04 4.98 2.04 4.98 -2 7 C-2 6.01 -2 5.02 -2 4 C-1.34 4 -0.68 4 0 4 C0 2.68 0 1.36 0 0 Z " fill="#18615F" transform="translate(75,98)"/>
<path d="M0 0 C2.0625 0.4375 2.0625 0.4375 4 1 C3.484375 1.33 2.96875 1.66 2.4375 2 C0.66772487 4.46229584 0.92841118 5.25492998 1.3125 8.1875 C1.539375 9.445625 1.76625 10.70375 2 12 C1.01 11.67 0.02 11.34 -1 11 C-1.02688151 9.35425434 -1.04634123 7.70838587 -1.0625 6.0625 C-1.07410156 5.14597656 -1.08570313 4.22945313 -1.09765625 3.28515625 C-1 1 -1 1 0 0 Z " fill="#19625F" transform="translate(165,88)"/>
<path d="M0 0 C0 2.97 0 5.94 0 9 C-0.99 8.67 -1.98 8.34 -3 8 C-3 5.69 -3 3.38 -3 1 C-1 0 -1 0 0 0 Z " fill="#0D5D5E" transform="translate(11,87)"/>
<path d="M0 0 C1.65 1.65 3.3 3.3 5 5 C4.01 5.495 4.01 5.495 3 6 C2.01 5.67 1.02 5.34 0 5 C-0.33 5.99 -0.66 6.98 -1 8 C-1.66 7.01 -2.32 6.02 -3 5 C-2.34 4.67 -1.68 4.34 -1 4 C-0.34786708 1.97536745 -0.34786708 1.97536745 0 0 Z " fill="#DDF2F1" transform="translate(169,44)"/>
<path d="M0 0 C2.88437779 1.29299694 4.87219421 2.65941363 7 5 C5.02 4.34 3.04 3.68 1 3 C0.67 3.99 0.34 4.98 0 6 C-0.66 4.68 -1.32 3.36 -2 2 C-1.34 2 -0.68 2 0 2 C0 1.34 0 0.68 0 0 Z " fill="#266D6F" transform="translate(153,23)"/>
<path d="M0 0 C2.64 0 5.28 0 8 0 C7.67 0.99 7.34 1.98 7 3 C5.02 3 3.04 3 1 3 C0.67 2.01 0.34 1.02 0 0 Z " fill="#075D5D" transform="translate(72,187)"/>
<path d="M0 0 C1 2 1 2 0.0625 5.125 C-0.288125 6.07375 -0.63875 7.0225 -1 8 C-1.33 7.34 -1.66 6.68 -2 6 C-2.99 6 -3.98 6 -5 6 C-5 5.34 -5 4.68 -5 4 C-3.37373596 2.61767557 -1.7074998 1.28062485 0 0 Z " fill="#166161" transform="translate(163,163)"/>
<path d="M0 0 C1.32 1.32 2.64 2.64 4 4 C2.35 4.66 0.7 5.32 -1 6 C-1.66 4.68 -2.32 3.36 -3 2 C-2.34 2 -1.68 2 -1 2 C-0.67 1.34 -0.34 0.68 0 0 Z " fill="#276C6B" transform="translate(30,156)"/>
<path d="M0 0 C0 2.64 0 5.28 0 8 C-0.99 8.495 -0.99 8.495 -2 9 C-3.35439668 6.29120665 -3.06501451 3.99066732 -3 1 C-1 0 -1 0 0 0 Z " fill="#085C5B" transform="translate(10,104)"/>
<path d="M0 0 C0.33 0 0.66 0 1 0 C1.08096803 1.45742463 1.13917774 2.91612807 1.1875 4.375 C1.22230469 5.18710938 1.25710937 5.99921875 1.29296875 6.8359375 C1.19628906 7.55007812 1.09960938 8.26421875 1 9 C0.01 9.66 -0.98 10.32 -2 11 C-1.85892253 9.54119891 -1.71197585 8.08296449 -1.5625 6.625 C-1.48128906 5.81289062 -1.40007812 5.00078125 -1.31640625 4.1640625 C-1 2 -1 2 0 0 Z " fill="#307170" transform="translate(123,64)"/>
<path d="M0 0 C0.66 0 1.32 0 2 0 C1.67 1.32 1.34 2.64 1 4 C0.360625 4.12375 -0.27875 4.2475 -0.9375 4.375 C-1.9584375 4.684375 -1.9584375 4.684375 -3 5 C-3.33 5.66 -3.66 6.32 -4 7 C-4 5.68 -4 4.36 -4 3 C-3.01 3 -2.02 3 -1 3 C-0.67 2.01 -0.34 1.02 0 0 Z " fill="#0B5D5B" transform="translate(28,42)"/>
<path d="M0 0 C-1.6232687 0.6708712 -3.24867578 1.33657029 -4.875 2 C-6.23238281 2.556875 -6.23238281 2.556875 -7.6171875 3.125 C-10 4 -10 4 -12 4 C-11.67 3.01 -11.34 2.02 -11 1 C-6.90275533 -0.54613006 -4.18142349 -1.29227216 0 0 Z " fill="#DBF4F4" transform="translate(71,11)"/>
<path d="M0 0 C2.64 0.99 5.28 1.98 8 3 C7.01 3.66 6.02 4.32 5 5 C5 5.66 5 6.32 5 7 C3.68 6.34 2.36 5.68 1 5 C1.66 5 2.32 5 3 5 C3 4.01 3 3.02 3 2 C2.01 2 1.02 2 0 2 C0 1.34 0 0.68 0 0 Z " fill="#296D6D" transform="translate(58,179)"/>
<path d="M0 0 C0.99 0.33 1.98 0.66 3 1 C3.33 3.31 3.66 5.62 4 8 C2.02 6.68 0.04 5.36 -2 4 C-1.34 3.67 -0.68 3.34 0 3 C0 2.01 0 1.02 0 0 Z " fill="#24696B" transform="translate(45,171)"/>
<path d="M0 0 C1.65 0.33 3.3 0.66 5 1 C3.25 4.875 3.25 4.875 1 6 C0.34 5.34 -0.32 4.68 -1 4 C-0.625 1.875 -0.625 1.875 0 0 Z " fill="#206768" transform="translate(169,156)"/>
<path d="M0 0 C0.66 0.33 1.32 0.66 2 1 C1.071875 2.1446875 1.071875 2.1446875 0.125 3.3125 C-2.05597052 5.99625809 -2.05597052 5.99625809 -4 9 C-4.33 8.01 -4.66 7.02 -5 6 C-3.59554165 3.7363436 -1.8032087 1.9791315 0 0 Z " fill="#DBF2F2" transform="translate(125,107)"/>
<path d="M0 0 C0.66 0.33 1.32 0.66 2 1 C0.02 3.97 0.02 3.97 -2 7 C-2.66 6.67 -3.32 6.34 -4 6 C-3.6875 4.125 -3.6875 4.125 -3 2 C-2.01 1.34 -1.02 0.68 0 0 Z " fill="#196260" transform="translate(127,79)"/>
<path d="M0 0 C1.2065625 0.0309375 1.2065625 0.0309375 2.4375 0.0625 C1.7775 1.3825 1.1175 2.7025 0.4375 4.0625 C-0.5525 4.0625 -1.5425 4.0625 -2.5625 4.0625 C-2.8925 3.0725 -3.2225 2.0825 -3.5625 1.0625 C-2.5625 0.0625 -2.5625 0.0625 0 0 Z " fill="#0C5D5C" transform="translate(39.5625,29.9375)"/>
<path d="M0 0 C0.66 0.33 1.32 0.66 2 1 C0.02 3.31 -1.96 5.62 -4 8 C-4.66 7.67 -5.32 7.34 -6 7 C-4.60667426 3.63279613 -3.0210714 2.0140476 0 0 Z " fill="#135F5D" transform="translate(80,141)"/>
<path d="M0 0 C0.33 0.99 0.66 1.98 1 3 C1.66 3 2.32 3 3 3 C2.3405469 6.69293736 1.47070566 7.70572579 -1 11 C-0.67 7.37 -0.34 3.74 0 0 Z " fill="#D1ECEC" transform="translate(193,109)"/>
<path d="M0 0 C0.33 0.66 0.66 1.32 1 2 C3.02463255 2.65213292 3.02463255 2.65213292 5 3 C3.35 3.66 1.7 4.32 0 5 C0 4.34 0 3.68 0 3 C-1.32 2.67 -2.64 2.34 -4 2 C-2.68 1.34 -1.36 0.68 0 0 Z " fill="#1B6561" transform="translate(57,16)"/>
<path d="M0 0 C0.66 0.33 1.32 0.66 2 1 C2 2.98 2 4.96 2 7 C1.01 7.495 1.01 7.495 0 8 C-0.38063221 5.6739143 -0.71269945 3.33944736 -1 1 C-0.67 0.67 -0.34 0.34 0 0 Z " fill="#0F645F" transform="translate(12,126)"/>
<path d="M0 0 C3 0 3 0 5 1 C5 3 5 3 3.625 4.625 C2 6 2 6 0 6 C0 4.02 0 2.04 0 0 Z " fill="#046060" transform="translate(124,63)"/>
<path d="M0 0 C0 1.65 0 3.3 0 5 C-0.99 5.495 -0.99 5.495 -2 6 C-2 5.34 -2 4.68 -2 4 C-2.66 4 -3.32 4 -4 4 C-4 3.01 -4 2.02 -4 1 C-2 0 -2 0 0 0 Z " fill="#19645E" transform="translate(157,170)"/>
<path d="M0 0 C0.99 0 1.98 0 3 0 C3 1.32 3 2.64 3 4 C1.68 4.33 0.36 4.66 -1 5 C-1.33 4.01 -1.66 3.02 -2 2 C-1.34 1.34 -0.68 0.68 0 0 Z " fill="#0C5F5B" transform="translate(172,153)"/>
<path d="M0 0 C0.66 0.33 1.32 0.66 2 1 C0.02 5.455 0.02 5.455 -2 10 C-2.33 10 -2.66 10 -3 10 C-2.25 2.25 -2.25 2.25 0 0 Z " fill="#DDF5F6" transform="translate(113,102)"/>
<path d="M0 0 C-0.33 1.65 -0.66 3.3 -1 5 C-1.66 5 -2.32 5 -3 5 C-3 4.34 -3 3.68 -3 3 C-4.32 2.67 -5.64 2.34 -7 2 C-2.25 0 -2.25 0 0 0 Z " fill="#3D7A76" transform="translate(86,94)"/>
<path d="M0 0 C1.98 0.99 1.98 0.99 4 2 C4 2.99 4 3.98 4 5 C4.66 5 5.32 5 6 5 C5.67 5.99 5.34 6.98 5 8 C2.74754119 5.31158141 1.11786042 3.35358125 0 0 Z " fill="#E1F6F6" transform="translate(64,87)"/>
<path d="M0 0 C0.33 0.99 0.66 1.98 1 3 C1.66 3.33 2.32 3.66 3 4 C1.02 4.99 1.02 4.99 -1 6 C-1 5.34 -1 4.68 -1 4 C-1.66 3.67 -2.32 3.34 -3 3 C-2.01 2.01 -1.02 1.02 0 0 Z " fill="#1C6969" transform="translate(133,73)"/>
<path d="M0 0 C2.25 0.25 2.25 0.25 4 1 C3.67 2.32 3.34 3.64 3 5 C2.67 4.34 2.34 3.68 2 3 C0.02 3.33 -1.96 3.66 -4 4 C-2.25 1.9375 -2.25 1.9375 0 0 Z " fill="#447F7C" transform="translate(130,56)"/>
<path d="M0 0 C-2.93720508 1.52299523 -5.9168649 2.80100302 -9 4 C-9 3.01 -9 2.02 -9 1 C-5.8035914 -0.06546953 -3.34252724 -0.07427838 0 0 Z " fill="#C0DEDF" transform="translate(89,49)"/>
<path d="M0 0 C1.98 0 3.96 0 6 0 C5.67 0.99 5.34 1.98 5 3 C3.02 3 1.04 3 -1 3 C-0.67 2.01 -0.34 1.02 0 0 Z " fill="#055E5A" transform="translate(70,11)"/>
</svg>
