<?xml version="1.0" encoding="UTF-8"?>
<!DOCTYPE svg PUBLIC "-//W3C//DTD SVG 1.1//EN" "http://www.w3.org/Graphics/SVG/1.1/DTD/svg11.dtd">
<svg xmlns="http://www.w3.org/2000/svg" version="1.1" width="200px" height="200px" style="shape-rendering:geometricPrecision; text-rendering:geometricPrecision; image-rendering:optimizeQuality; fill-rule:evenodd; clip-rule:evenodd" xmlns:xlink="http://www.w3.org/1999/xlink">
<g><path style="opacity:1" fill="#fdfefe" d="M -0.5,-0.5 C 66.1667,-0.5 132.833,-0.5 199.5,-0.5C 199.5,66.1667 199.5,132.833 199.5,199.5C 132.833,199.5 66.1667,199.5 -0.5,199.5C -0.5,132.833 -0.5,66.1667 -0.5,-0.5 Z"/></g>
<g><path style="opacity:1" fill="#9ab9fa" d="M 33.5,73.5 C 41.9839,72.507 50.6506,72.1736 59.5,72.5C 59.5,74.1667 59.5,75.8333 59.5,77.5C 50.6506,77.8264 41.9839,77.493 33.5,76.5C 41.8333,76.5 50.1667,76.5 58.5,76.5C 58.5,75.5 58.5,74.5 58.5,73.5C 50.1667,73.5 41.8333,73.5 33.5,73.5 Z"/></g>
<g><path style="opacity:1" fill="#1663f0" d="M 33.5,73.5 C 41.8333,73.5 50.1667,73.5 58.5,73.5C 58.5,74.5 58.5,75.5 58.5,76.5C 50.1667,76.5 41.8333,76.5 33.5,76.5C 33.5,75.5 33.5,74.5 33.5,73.5 Z"/></g>
<g><path style="opacity:1" fill="#1a61ef" d="M 144.5,73.5 C 151.5,73.5 158.5,73.5 165.5,73.5C 165.5,74.5 165.5,75.5 165.5,76.5C 158.159,76.6663 150.826,76.4997 143.5,76C 144.252,75.3292 144.586,74.4959 144.5,73.5 Z"/></g>
<g><path style="opacity:1" fill="#4471eb" d="M 98.5,75.5 C 86.6783,76.4951 74.6783,76.8284 62.5,76.5C 62.5,75.1667 62.5,73.8333 62.5,72.5C 72.8387,72.3335 83.172,72.5002 93.5,73C 95.1932,73.8466 96.8599,74.6799 98.5,75.5 Z"/></g>
<g><path style="opacity:1" fill="#1c62e8" d="M 127.5,73.5 C 127.5,74.5 127.5,75.5 127.5,76.5C 120.5,76.5 113.5,76.5 106.5,76.5C 106.5,75.5 106.5,74.5 106.5,73.5C 113.5,73.5 120.5,73.5 127.5,73.5 Z"/></g>
<g><path style="opacity:1" fill="#b6d9fe" d="M 98.5,75.5 C 99.0431,75.56 99.3764,75.8933 99.5,76.5C 87.0063,77.8247 74.673,77.8247 62.5,76.5C 74.6783,76.8284 86.6783,76.4951 98.5,75.5 Z"/></g>
<g><path style="opacity:1" fill="#b3d5f9" d="M 127.5,73.5 C 128.391,74.2613 129.058,75.2613 129.5,76.5C 121.677,77.8199 114.01,77.8199 106.5,76.5C 113.5,76.5 120.5,76.5 127.5,76.5C 127.5,75.5 127.5,74.5 127.5,73.5 Z"/></g>
<g><path style="opacity:1" fill="#7daefc" d="M 33.5,80.5 C 41.9839,79.507 50.6506,79.1736 59.5,79.5C 59.5,80.8333 59.5,82.1667 59.5,83.5C 59.1667,83.5 58.8333,83.5 58.5,83.5C 58.5,82.5 58.5,81.5 58.5,80.5C 50.1667,80.5 41.8333,80.5 33.5,80.5 Z"/></g>
<g><path style="opacity:1" fill="#3c71f1" d="M 165.5,83.5 C 157.5,83.5 149.5,83.5 141.5,83.5C 141.33,82.1779 141.663,81.0113 142.5,80C 150.159,79.5003 157.826,79.3336 165.5,79.5C 165.5,80.8333 165.5,82.1667 165.5,83.5 Z"/></g>
<g><path style="opacity:1" fill="#1561f3" d="M 33.5,80.5 C 41.8333,80.5 50.1667,80.5 58.5,80.5C 58.5,81.5 58.5,82.5 58.5,83.5C 50.1667,83.5 41.8333,83.5 33.5,83.5C 33.5,82.5 33.5,81.5 33.5,80.5 Z"/></g>
<g><path style="opacity:1" fill="#1762f0" d="M 63.5,80.5 C 76.8333,80.5 90.1667,80.5 103.5,80.5C 103.5,81.5 103.5,82.5 103.5,83.5C 90.1667,83.5 76.8333,83.5 63.5,83.5C 63.5,82.5 63.5,81.5 63.5,80.5 Z"/></g>
<g><path style="opacity:1" fill="#1861ef" d="M 130.5,81.5 C 122.903,83.4668 114.903,84.1335 106.5,83.5C 106.5,82.5 106.5,81.5 106.5,80.5C 114.684,80.1743 122.684,80.5076 130.5,81.5 Z"/></g>
<g><path style="opacity:1" fill="#ecf3fc" d="M 33.5,83.5 C 41.8333,83.5 50.1667,83.5 58.5,83.5C 58.8333,83.5 59.1667,83.5 59.5,83.5C 60.2216,83.9175 60.7216,84.5842 61,85.5C 61.2784,84.5842 61.7784,83.9175 62.5,83.5C 68.6446,84.4902 74.9779,84.8235 81.5,84.5C 82.388,87.0545 82.7214,89.7212 82.5,92.5C 83.9778,92.762 85.3112,92.4287 86.5,91.5C 85.4104,90.3914 85.4104,89.3914 86.5,88.5C 87.6223,89.6302 88.9557,90.2969 90.5,90.5C 91.1667,90.5 91.8333,90.5 92.5,90.5C 96.1667,90.5 99.8333,90.5 103.5,90.5C 103.5,89.5 103.5,88.5 103.5,87.5C 104.434,88.5676 104.768,89.901 104.5,91.5C 102.62,91.2291 101.287,91.8958 100.5,93.5C 90.3194,93.1726 80.3194,93.506 70.5,94.5C 70.5,95.5 70.5,96.5 70.5,97.5C 80.1724,97.6665 89.8391,97.4998 99.5,97C 100.056,96.6174 100.389,96.1174 100.5,95.5C 100.833,95.5 101.167,95.5 101.5,95.5C 102.908,97.1316 104.408,98.7982 106,100.5C 105.591,98.7749 105.758,97.1082 106.5,95.5C 108.098,97.9734 109.598,97.9734 111,95.5C 111.333,96.5 111.667,97.5 112,98.5C 112.934,97.1416 113.768,95.8083 114.5,94.5C 114.5,95.5 114.5,96.5 114.5,97.5C 117.833,97.5 121.167,97.5 124.5,97.5C 124.586,98.4959 124.252,99.3292 123.5,100C 124.416,100.278 125.082,100.778 125.5,101.5C 121.5,101.5 117.5,101.5 113.5,101.5C 113.5,102.5 113.5,103.5 113.5,104.5C 117.5,104.5 121.5,104.5 125.5,104.5C 125.5,105.833 125.5,107.167 125.5,108.5C 121.5,108.5 117.5,108.5 113.5,108.5C 113.5,109.5 113.5,110.5 113.5,111.5C 117.5,111.5 121.5,111.5 125.5,111.5C 121.366,112.485 117.032,112.818 112.5,112.5C 112.279,108.508 111.779,104.508 111,100.5C 110.405,101.899 110.572,103.232 111.5,104.5C 110.433,108.534 108.1,109.534 104.5,107.5C 104.5,105.5 104.5,103.5 104.5,101.5C 103.448,101.351 102.448,101.517 101.5,102C 102.791,103.292 102.791,104.458 101.5,105.5C 101.672,104.508 101.338,103.842 100.5,103.5C 100.389,102.883 100.056,102.383 99.5,102C 89.8391,101.5 80.1724,101.334 70.5,101.5C 69.1667,104.833 69.1667,108.167 70.5,111.5C 74.1667,111.5 77.8333,111.5 81.5,111.5C 81.5,110.5 81.5,109.5 81.5,108.5C 82.404,109.209 82.7373,110.209 82.5,111.5C 83.5,111.5 84.5,111.5 85.5,111.5C 85.238,110.022 85.5713,108.689 86.5,107.5C 87.1476,109.149 88.1476,110.482 89.5,111.5C 90.1411,110.007 91.1411,109.007 92.5,108.5C 92.5,109.5 92.5,110.5 92.5,111.5C 96.649,112.08 100.316,111.414 103.5,109.5C 104.598,110.601 104.765,111.934 104,113.5C 99.464,112.093 94.964,112.26 90.5,114C 95.0195,114.175 99.3528,114.675 103.5,115.5C 90.1667,115.5 76.8333,115.5 63.5,115.5C 63.1667,115.5 62.8333,115.5 62.5,115.5C 61.6219,113.127 59.9552,112.294 57.5,113C 58.3805,113.708 59.0472,114.542 59.5,115.5C 50.8333,115.5 42.1667,115.5 33.5,115.5C 39.9874,114.672 46.654,114.172 53.5,114C 54.8825,112.539 54.5492,111.706 52.5,111.5C 52.5,110.5 52.5,109.5 52.5,108.5C 48.8333,108.5 45.1667,108.5 41.5,108.5C 44.6893,107.834 48.0227,107.167 51.5,106.5C 48.0227,105.833 44.6893,105.166 41.5,104.5C 44.8333,104.5 48.1667,104.5 51.5,104.5C 52.4345,103.432 52.7678,102.099 52.5,100.5C 48.6286,100.185 44.9619,100.518 41.5,101.5C 40.596,102.209 40.2627,103.209 40.5,104.5C 40.5,101.167 40.5,97.8333 40.5,94.5C 40.2627,95.791 40.596,96.791 41.5,97.5C 44.8333,97.5 48.1667,97.5 51.5,97.5C 53.707,94.2802 53.707,90.9469 51.5,87.5C 48.1667,87.5 44.8333,87.5 41.5,87.5C 41.5,86.5 41.5,85.5 41.5,84.5C 38.6146,84.8064 35.9479,84.4731 33.5,83.5 Z"/></g>
<g><path style="opacity:1" fill="#bad6fd" d="M 63.5,80.5 C 63.5,81.5 63.5,82.5 63.5,83.5C 76.8333,83.5 90.1667,83.5 103.5,83.5C 96.3524,84.4916 89.0191,84.825 81.5,84.5C 74.9779,84.8235 68.6446,84.4902 62.5,83.5C 62.2627,82.209 62.596,81.209 63.5,80.5 Z"/></g>
<g><path style="opacity:1" fill="#bbd5fd" d="M 130.5,81.5 C 131.404,82.209 131.737,83.209 131.5,84.5C 122.983,84.8261 114.65,84.4927 106.5,83.5C 114.903,84.1335 122.903,83.4668 130.5,81.5 Z"/></g>
<g><path style="opacity:1" fill="#c4ddfc" d="M 141.5,83.5 C 149.5,83.5 157.5,83.5 165.5,83.5C 163.94,85.1294 164.273,86.296 166.5,87C 163.034,86.8782 160.368,88.2115 158.5,91C 151.842,91.4996 145.175,91.6663 138.5,91.5C 138.263,90.209 138.596,89.209 139.5,88.5C 145.074,90.4533 151.074,91.12 157.5,90.5C 157.5,89.5 157.5,88.5 157.5,87.5C 151.5,87.5 145.5,87.5 139.5,87.5C 146.235,86.1735 153.068,86.1735 160,87.5C 160.925,86.9535 161.758,86.2868 162.5,85.5C 155.345,84.8333 148.345,84.1666 141.5,83.5 Z"/></g>
<g><path style="opacity:1" fill="#bdd5f9" d="M 103.5,87.5 C 99.8333,87.5 96.1667,87.5 92.5,87.5C 92.5,88.5 92.5,89.5 92.5,90.5C 91.8333,90.5 91.1667,90.5 90.5,90.5C 90.5,89.1667 90.5,87.8333 90.5,86.5C 95.0323,86.1818 99.3656,86.5151 103.5,87.5 Z"/></g>
<g><path style="opacity:1" fill="#1c5feb" d="M 139.5,87.5 C 145.5,87.5 151.5,87.5 157.5,87.5C 157.5,88.5 157.5,89.5 157.5,90.5C 151.074,91.12 145.074,90.4533 139.5,88.5C 139.5,88.1667 139.5,87.8333 139.5,87.5 Z"/></g>
<g><path style="opacity:1" fill="#1b63f0" d="M 70.5,87.5 C 74.1667,87.5 77.8333,87.5 81.5,87.5C 81.5,88.5 81.5,89.5 81.5,90.5C 77.8333,90.5 74.1667,90.5 70.5,90.5C 70.5,89.5 70.5,88.5 70.5,87.5 Z"/></g>
<g><path style="opacity:1" fill="#1a60ef" d="M 103.5,87.5 C 103.5,88.5 103.5,89.5 103.5,90.5C 99.8333,90.5 96.1667,90.5 92.5,90.5C 92.5,89.5 92.5,88.5 92.5,87.5C 96.1667,87.5 99.8333,87.5 103.5,87.5 Z"/></g>
<g><path style="opacity:1" fill="#1f63f1" d="M 113.5,87.5 C 120.167,87.5 126.833,87.5 133.5,87.5C 133.5,88.5 133.5,89.5 133.5,90.5C 126.833,90.5 120.167,90.5 113.5,90.5C 113.5,89.5 113.5,88.5 113.5,87.5 Z"/></g>
<g><path style="opacity:1" fill="#aec9f6" d="M 41.5,87.5 C 41.5,88.5 41.5,89.5 41.5,90.5C 44.8333,90.5 48.1667,90.5 51.5,90.5C 51.5,89.5 51.5,88.5 51.5,87.5C 53.707,90.9469 53.707,94.2802 51.5,97.5C 51.5,96.5 51.5,95.5 51.5,94.5C 48.1667,94.5 44.8333,94.5 41.5,94.5C 41.5,95.5 41.5,96.5 41.5,97.5C 40.596,96.791 40.2627,95.791 40.5,94.5C 44.0208,93.8337 47.6875,93.1671 51.5,92.5C 47.8927,91.5108 44.226,91.1774 40.5,91.5C 40.2322,89.901 40.5655,88.5676 41.5,87.5 Z"/></g>
<g><path style="opacity:1" fill="#1860ee" d="M 41.5,87.5 C 44.8333,87.5 48.1667,87.5 51.5,87.5C 51.5,88.5 51.5,89.5 51.5,90.5C 48.1667,90.5 44.8333,90.5 41.5,90.5C 41.5,89.5 41.5,88.5 41.5,87.5 Z"/></g>
<g><path style="opacity:1" fill="#9cc0fd" d="M 70.5,94.5 C 80.3194,93.506 90.3194,93.1726 100.5,93.5C 101.338,93.8417 101.672,94.5084 101.5,95.5C 101.167,95.5 100.833,95.5 100.5,95.5C 90.6806,94.506 80.6806,94.1726 70.5,94.5 Z"/></g>
<g><path style="opacity:1" fill="#1762ed" d="M 70.5,94.5 C 80.6806,94.1726 90.6806,94.506 100.5,95.5C 100.389,96.1174 100.056,96.6174 99.5,97C 89.8391,97.4998 80.1724,97.6665 70.5,97.5C 70.5,96.5 70.5,95.5 70.5,94.5 Z"/></g>
<g><path style="opacity:1" fill="#1c61ee" d="M 114.5,94.5 C 129.167,95.8333 143.833,95.8333 158.5,94.5C 158.5,95.5 158.5,96.5 158.5,97.5C 147.833,97.5 137.167,97.5 126.5,97.5C 125.833,97.5 125.167,97.5 124.5,97.5C 121.167,97.5 117.833,97.5 114.5,97.5C 114.5,96.5 114.5,95.5 114.5,94.5 Z"/></g>
<g><path style="opacity:1" fill="#1961eb" d="M 51.5,97.5 C 48.1667,97.5 44.8333,97.5 41.5,97.5C 41.5,96.5 41.5,95.5 41.5,94.5C 44.8333,94.5 48.1667,94.5 51.5,94.5C 51.5,95.5 51.5,96.5 51.5,97.5 Z"/></g>
<g><path style="opacity:1" fill="#96b5f0" d="M 41.5,101.5 C 44.9619,100.518 48.6286,100.185 52.5,100.5C 52.7678,102.099 52.4345,103.432 51.5,104.5C 51.5,103.5 51.5,102.5 51.5,101.5C 48.1667,101.5 44.8333,101.5 41.5,101.5 Z"/></g>
<g><path style="opacity:1" fill="#1c63ee" d="M 41.5,101.5 C 44.8333,101.5 48.1667,101.5 51.5,101.5C 51.5,102.5 51.5,103.5 51.5,104.5C 48.1667,104.5 44.8333,104.5 41.5,104.5C 41.1667,104.5 40.8333,104.5 40.5,104.5C 40.2627,103.209 40.596,102.209 41.5,101.5 Z"/></g>
<g><path style="opacity:1" fill="#1763ec" d="M 70.5,101.5 C 80.1724,101.334 89.8391,101.5 99.5,102C 100.056,102.383 100.389,102.883 100.5,103.5C 90.6806,104.494 80.6806,104.827 70.5,104.5C 70.5,103.5 70.5,102.5 70.5,101.5 Z"/></g>
<g><path style="opacity:1" fill="#2667ef" d="M 125.5,101.5 C 125.5,102.5 125.5,103.5 125.5,104.5C 121.5,104.5 117.5,104.5 113.5,104.5C 113.5,103.5 113.5,102.5 113.5,101.5C 117.5,101.5 121.5,101.5 125.5,101.5 Z"/></g>
<g><path style="opacity:1" fill="#1962f0" d="M 158.5,101.5 C 158.5,102.5 158.5,103.5 158.5,104.5C 154.833,104.5 151.167,104.5 147.5,104.5C 147.5,103.5 147.5,102.5 147.5,101.5C 151.167,101.5 154.833,101.5 158.5,101.5 Z"/></g>
<g><path style="opacity:1" fill="#1962ec" d="M 127.5,101.5 C 133.167,101.5 138.833,101.5 144.5,101.5C 144.5,102.5 144.5,103.5 144.5,104.5C 139.167,104.5 133.833,104.5 128.5,104.5C 127.89,103.609 127.557,102.609 127.5,101.5 Z"/></g>
<g><path style="opacity:1" fill="#accbfe" d="M 70.5,101.5 C 70.5,102.5 70.5,103.5 70.5,104.5C 80.6806,104.827 90.6806,104.494 100.5,103.5C 101.338,103.842 101.672,104.508 101.5,105.5C 92.1429,105.168 82.8096,105.502 73.5,106.5C 76.3056,107.168 78.9723,107.834 81.5,108.5C 77.8333,108.5 74.1667,108.5 70.5,108.5C 70.5,109.5 70.5,110.5 70.5,111.5C 69.1667,108.167 69.1667,104.833 70.5,101.5 Z"/></g>
<g><path style="opacity:1" fill="#bed5fc" d="M 126.5,97.5 C 137.167,97.5 147.833,97.5 158.5,97.5C 156.302,98.1653 153.969,98.8319 151.5,99.5C 153.969,100.168 156.302,100.835 158.5,101.5C 154.833,101.5 151.167,101.5 147.5,101.5C 147.5,102.5 147.5,103.5 147.5,104.5C 151.167,104.5 154.833,104.5 158.5,104.5C 155.642,105.166 152.642,105.833 149.5,106.5C 152.642,107.167 155.642,107.834 158.5,108.5C 154.833,108.5 151.167,108.5 147.5,108.5C 147.5,109.5 147.5,110.5 147.5,111.5C 151.167,111.5 154.833,111.5 158.5,111.5C 154.979,112.166 151.313,112.833 147.5,113.5C 153.654,114.167 159.654,114.833 165.5,115.5C 159.5,115.5 153.5,115.5 147.5,115.5C 147.5,116.5 147.5,117.5 147.5,118.5C 153.5,118.5 159.5,118.5 165.5,118.5C 159.654,119.167 153.654,119.833 147.5,120.5C 153.654,121.167 159.654,121.833 165.5,122.5C 159.5,122.5 153.5,122.5 147.5,122.5C 147.5,123.5 147.5,124.5 147.5,125.5C 146.694,124.003 146.028,122.336 145.5,120.5C 146.448,115.565 146.781,110.565 146.5,105.5C 140.31,105.823 134.31,105.49 128.5,104.5C 133.833,104.5 139.167,104.5 144.5,104.5C 144.5,103.5 144.5,102.5 144.5,101.5C 138.833,101.5 133.167,101.5 127.5,101.5C 133.346,100.833 139.346,100.167 145.5,99.5C 139.012,98.8332 132.679,98.1666 126.5,97.5 Z"/></g>
<g><path style="opacity:1" fill="#a4c1fe" d="M 142.5,108.5 C 138.298,108.183 134.298,108.517 130.5,109.5C 129.957,109.44 129.624,109.107 129.5,108.5C 133.984,107.189 138.317,107.189 142.5,108.5 Z"/></g>
<g><path style="opacity:1" fill="#2967ee" d="M 41.5,108.5 C 45.1667,108.5 48.8333,108.5 52.5,108.5C 52.5,109.5 52.5,110.5 52.5,111.5C 48.5,111.5 44.5,111.5 40.5,111.5C 40.2627,110.209 40.596,109.209 41.5,108.5 Z"/></g>
<g><path style="opacity:1" fill="#1a63f2" d="M 81.5,108.5 C 81.5,109.5 81.5,110.5 81.5,111.5C 77.8333,111.5 74.1667,111.5 70.5,111.5C 70.5,110.5 70.5,109.5 70.5,108.5C 74.1667,108.5 77.8333,108.5 81.5,108.5 Z"/></g>
<g><path style="opacity:1" fill="#1562f4" d="M 92.5,108.5 C 96.3714,108.185 100.038,108.518 103.5,109.5C 100.316,111.414 96.649,112.08 92.5,111.5C 92.5,110.5 92.5,109.5 92.5,108.5 Z"/></g>
<g><path style="opacity:1" fill="#1d65f0" d="M 142.5,108.5 C 142.586,109.496 142.252,110.329 141.5,111C 139.667,111.167 137.833,111.333 136,111.5C 133.705,111.453 131.871,110.787 130.5,109.5C 134.298,108.517 138.298,108.183 142.5,108.5 Z"/></g>
<g><path style="opacity:1" fill="#1c63f2" d="M 158.5,108.5 C 158.5,109.5 158.5,110.5 158.5,111.5C 154.833,111.5 151.167,111.5 147.5,111.5C 147.5,110.5 147.5,109.5 147.5,108.5C 151.167,108.5 154.833,108.5 158.5,108.5 Z"/></g>
<g><path style="opacity:1" fill="#2666f1" d="M 125.5,108.5 C 125.5,109.5 125.5,110.5 125.5,111.5C 121.5,111.5 117.5,111.5 113.5,111.5C 113.5,110.5 113.5,109.5 113.5,108.5C 117.5,108.5 121.5,108.5 125.5,108.5 Z"/></g>
<g><path style="opacity:1" fill="#1962ef" d="M 33.5,115.5 C 42.1667,115.5 50.8333,115.5 59.5,115.5C 59.5,116.5 59.5,117.5 59.5,118.5C 50.8333,118.5 42.1667,118.5 33.5,118.5C 33.5,117.5 33.5,116.5 33.5,115.5 Z"/></g>
<g><path style="opacity:1" fill="#1e64f0" d="M 106.5,115.5 C 112.833,115.5 119.167,115.5 125.5,115.5C 125.5,116.5 125.5,117.5 125.5,118.5C 119.167,118.5 112.833,118.5 106.5,118.5C 106.5,117.5 106.5,116.5 106.5,115.5 Z"/></g>
<g><path style="opacity:1" fill="#1760f2" d="M 165.5,115.5 C 165.5,116.5 165.5,117.5 165.5,118.5C 159.5,118.5 153.5,118.5 147.5,118.5C 147.5,117.5 147.5,116.5 147.5,115.5C 153.5,115.5 159.5,115.5 165.5,115.5 Z"/></g>
<g><path style="opacity:1" fill="#1861ee" d="M 63.5,115.5 C 76.8333,115.5 90.1667,115.5 103.5,115.5C 103.737,116.791 103.404,117.791 102.5,118.5C 89.5,118.5 76.5,118.5 63.5,118.5C 63.5,117.5 63.5,116.5 63.5,115.5 Z"/></g>
<g><path style="opacity:1" fill="#2860ec" d="M 132.5,115.5 C 134.833,115.5 137.167,115.5 139.5,115.5C 139.5,116.5 139.5,117.5 139.5,118.5C 137.473,118.662 135.473,118.495 133.5,118C 132.748,117.329 132.414,116.496 132.5,115.5 Z"/></g>
<g><path style="opacity:1" fill="#9ec4fd" d="M 62.5,115.5 C 62.8333,115.5 63.1667,115.5 63.5,115.5C 63.5,116.5 63.5,117.5 63.5,118.5C 76.5,118.5 89.5,118.5 102.5,118.5C 89.3438,119.496 76.0105,119.829 62.5,119.5C 62.5,118.167 62.5,116.833 62.5,115.5 Z"/></g>
<g><path style="opacity:1" fill="#a0c1fc" d="M 97.5,123.5 C 86.3456,122.505 75.0123,122.172 63.5,122.5C 63.5,123.5 63.5,124.5 63.5,125.5C 73.1667,125.5 82.8333,125.5 92.5,125.5C 82.6806,126.494 72.6806,126.827 62.5,126.5C 62.5,124.833 62.5,123.167 62.5,121.5C 74.8513,121.168 87.1847,121.501 99.5,122.5C 99.0431,123.298 98.3764,123.631 97.5,123.5 Z"/></g>
<g><path style="opacity:1" fill="#3a64e2" d="M 135.5,122.5 C 137.337,122.639 137.67,123.306 136.5,124.5C 135.702,124.043 135.369,123.376 135.5,122.5 Z"/></g>
<g><path style="opacity:1" fill="#1662f2" d="M 33.5,122.5 C 42.1667,122.5 50.8333,122.5 59.5,122.5C 59.5,123.5 59.5,124.5 59.5,125.5C 50.8333,125.5 42.1667,125.5 33.5,125.5C 33.5,124.5 33.5,123.5 33.5,122.5 Z"/></g>
<g><path style="opacity:1" fill="#1861f3" d="M 97.5,123.5 C 96.2196,124.931 94.5529,125.598 92.5,125.5C 82.8333,125.5 73.1667,125.5 63.5,125.5C 63.5,124.5 63.5,123.5 63.5,122.5C 75.0123,122.172 86.3456,122.505 97.5,123.5 Z"/></g>
<g><path style="opacity:1" fill="#1662f2" d="M 107.5,122.5 C 113.5,122.5 119.5,122.5 125.5,122.5C 125.5,123.5 125.5,124.5 125.5,125.5C 119.5,125.5 113.5,125.5 107.5,125.5C 107.5,124.5 107.5,123.5 107.5,122.5 Z"/></g>
<g><path style="opacity:1" fill="#1363f1" d="M 165.5,122.5 C 165.5,123.5 165.5,124.5 165.5,125.5C 159.5,125.5 153.5,125.5 147.5,125.5C 147.5,124.5 147.5,123.5 147.5,122.5C 153.5,122.5 159.5,122.5 165.5,122.5 Z"/></g>
</svg>
