<?xml version="1.0" encoding="UTF-8"?>
<svg version="1.1" xmlns="http://www.w3.org/2000/svg" width="200" height="200">
<path d="M0 0 C66 0 132 0 200 0 C200 66 200 132 200 200 C134 200 68 200 0 200 C0 134 0 68 0 0 Z " fill="#246CFE" transform="translate(0,0)"/>
<path d="M0 0 C2.64 0 5.28 0 8 0 C8.01458252 0.59014893 8.02916504 1.18029785 8.04418945 1.78833008 C8.11868844 4.46371229 8.21533995 7.13784892 8.3125 9.8125 C8.33505859 10.74126953 8.35761719 11.67003906 8.38085938 12.62695312 C8.41630859 13.51962891 8.45175781 14.41230469 8.48828125 15.33203125 C8.51446533 16.15421143 8.54064941 16.9763916 8.56762695 17.82348633 C9.09566038 20.48154278 9.83757723 21.4000553 12 23 C15.04211431 23.4167552 15.04211431 23.4167552 18 23 C20.48057628 20.51942372 20.29019005 19.63807536 20.4140625 16.2109375 C20.45273438 15.26992187 20.49140625 14.32890625 20.53125 13.359375 C20.5621875 12.37453125 20.593125 11.3896875 20.625 10.375 C20.66367188 9.38242188 20.70234375 8.38984375 20.7421875 7.3671875 C20.8366314 4.91164615 20.92219875 2.4561159 21 0 C23.64 0 26.28 0 29 0 C29.08761663 3.54150893 29.14059739 7.08273633 29.1875 10.625 C29.21263672 11.62402344 29.23777344 12.62304688 29.26367188 13.65234375 C29.31850893 19.17260713 29.2551583 23.29810468 26 28 C20.82777443 31.85381513 17.39502944 32.71055883 11 32 C5.80280878 30.20097227 3.67150559 27.74934327 1 23 C0.03911617 20.11734851 -0.11670941 18.32337729 -0.09765625 15.33203125 C-0.09443359 14.43935547 -0.09121094 13.54667969 -0.08789062 12.62695312 C-0.07951172 11.69818359 -0.07113281 10.76941406 -0.0625 9.8125 C-0.05798828 8.87212891 -0.05347656 7.93175781 -0.04882812 6.96289062 C-0.03704626 4.64186288 -0.02059558 2.32096356 0 0 Z " fill="#EBF5FE" transform="translate(102,84)"/>
<path d="M0 0 C4.56349833 2.28174917 8.03192577 5.23138692 10 10 C10.47702655 13.80673025 10.37844612 17.54631755 10.25 21.375 C10.23195313 22.39722656 10.21390625 23.41945313 10.1953125 24.47265625 C10.14839491 26.98274749 10.08276729 29.49087764 10 32 C7.36 32 4.72 32 2 32 C1.98541748 31.40985107 1.97083496 30.81970215 1.95581055 30.21166992 C1.88131156 27.53628771 1.78466005 24.86215108 1.6875 22.1875 C1.66494141 21.25873047 1.64238281 20.32996094 1.61914062 19.37304688 C1.5659668 18.0340332 1.5659668 18.0340332 1.51171875 16.66796875 C1.48553467 15.84578857 1.45935059 15.0236084 1.43237305 14.17651367 C0.9067331 11.53050568 0.13000595 10.61519315 -2 9 C-4.5 8.5 -4.5 8.5 -7 9 C-9.13000595 10.61519315 -9.9067331 11.53050568 -10.43237305 14.17651367 C-10.45855713 14.99869385 -10.48474121 15.82087402 -10.51171875 16.66796875 C-10.54716797 17.56064453 -10.58261719 18.45332031 -10.61914062 19.37304688 C-10.65297852 20.76620117 -10.65297852 20.76620117 -10.6875 22.1875 C-10.72166016 23.12787109 -10.75582031 24.06824219 -10.79101562 25.03710938 C-10.87348218 27.35795393 -10.94263403 29.67842148 -11 32 C-13.64 32 -16.28 32 -19 32 C-19.11681812 28.45861382 -19.187455 24.9177276 -19.25 21.375 C-19.28351562 20.37597656 -19.31703125 19.37695312 -19.3515625 18.34765625 C-19.43071036 12.37199292 -19.17410923 8.65115029 -15 4 C-10.46257627 -0.0404678 -5.89071514 -0.74802732 0 0 Z " fill="#F7FDFD" transform="translate(56,83)"/>
<path d="M0 0 C8.91 0 17.82 0 27 0 C27 2.31 27 4.62 27 7 C24.03 7 21.06 7 18 7 C18 15.25 18 23.5 18 32 C15.36 32 12.72 32 10 32 C10 23.75 10 15.5 10 7 C6.7 7 3.4 7 0 7 C0 4.69 0 2.38 0 0 Z " fill="#FAFEFD" transform="translate(153,84)"/>
<path d="M0 0 C8.91 0 17.82 0 27 0 C27 2.31 27 4.62 27 7 C23.7 7 20.4 7 17 7 C17 14.92 17 22.84 17 31 C14.69 31 12.38 31 10 31 C10 23.08 10 15.16 10 7 C6.7 7 3.4 7 0 7 C0 4.69 0 2.38 0 0 Z " fill="#F7FDFE" transform="translate(70,84)"/>
<path d="M0 0 C2.64 0 5.28 0 8 0 C8 10.56 8 21.12 8 32 C5.36 32 2.72 32 0 32 C0 21.44 0 10.88 0 0 Z " fill="#FCFEFD" transform="translate(140,84)"/>
<path d="M0 0 C2.64 0 5.28 0 8 0 C8 10.56 8 21.12 8 32 C5.36 32 2.72 32 0 32 C0 21.44 0 10.88 0 0 Z " fill="#FDFEFE" transform="translate(21,84)"/>
<path d="M0 0 C0.66 0 1.32 0 2 0 C2.33 1.32 2.66 2.64 3 4 C4.32 4 5.64 4 7 4 C7 2.68 7 1.36 7 0 C7.66 0 8.32 0 9 0 C9 10.23 9 20.46 9 31 C8.34 30.67 7.68 30.34 7 30 C7 29.34 7 28.68 7 28 C3.6136749 26.49069817 3.6136749 26.49069817 0 26 C-0.66 26.33 -1.32 26.66 -2 27 C-1.84152588 26.28432861 -1.68305176 25.56865723 -1.51977539 24.83129883 C-1.01543043 22.08405198 -0.79773833 19.4876077 -0.68359375 16.69921875 C-0.64169922 15.72275391 -0.59980469 14.74628906 -0.55664062 13.74023438 C-0.51732422 12.73283203 -0.47800781 11.72542969 -0.4375 10.6875 C-0.37272461 9.14739258 -0.37272461 9.14739258 -0.30664062 7.57617188 C-0.20093175 5.05090431 -0.09883532 2.52554438 0 0 Z " fill="#3072F8" transform="translate(131,84)"/>
<path d="M0 0 C1.98 0 3.96 0 6 0 C6.08767555 3.37483413 6.14061628 6.74937215 6.1875 10.125 C6.22520508 11.55199219 6.22520508 11.55199219 6.26367188 13.0078125 C6.31929606 18.34773468 6.29650898 22.52616639 3 27 C0.24770339 28.08407859 -1.99069172 27.90133415 -5 28 C-4.2884375 27.1028125 -4.2884375 27.1028125 -3.5625 26.1875 C-1.29453845 21.56085844 -1.30439627 17.09054189 -1 12 C-0.81720717 9.77044241 -0.62981586 7.54125635 -0.4375 5.3125 C-0.29124598 3.54170136 -0.1452555 1.77088083 0 0 Z " fill="#F8FCFD" transform="translate(125,85)"/>
<path d="M0 0 C1.9375 0.375 1.9375 0.375 4 1 C5.27861615 3.55723229 5.11336609 5.36737102 5.09765625 8.2265625 C5.09282227 9.7734375 5.09282227 9.7734375 5.08789062 11.3515625 C5.07951172 12.43179688 5.07113281 13.51203125 5.0625 14.625 C5.05798828 15.71296875 5.05347656 16.8009375 5.04882812 17.921875 C5.03701776 20.61463789 5.02054778 23.30729188 5 26 C3.33388095 26.042721 1.66617115 26.04063832 0 26 C-2.37685473 23.62314527 -1.52857298 17.89358784 -1.6875 14.6875 C-1.74744141 13.72392578 -1.80738281 12.76035156 -1.86914062 11.76757812 C-1.91619141 10.83751953 -1.96324219 9.90746094 -2.01171875 8.94921875 C-2.08072388 7.67050903 -2.08072388 7.67050903 -2.15112305 6.3659668 C-1.98549037 3.77283871 -1.31163946 2.21917988 0 0 Z " fill="#FBFDFD" transform="translate(60,88)"/>
<path d="M0 0 C6.26079448 -0.43177893 9.09075703 0.07260562 14 4 C13.01 4.495 13.01 4.495 12 5 C11.05791514 8.36365381 10.91962884 11.39360775 11.12109375 14.86328125 C11.16943359 15.74951172 11.21777344 16.63574219 11.26757812 17.54882812 C11.32365234 18.46083984 11.37972656 19.37285156 11.4375 20.3125 C11.48970703 21.24384766 11.54191406 22.17519531 11.59570312 23.13476562 C11.7248148 25.42356353 11.85975415 27.71186186 12 30 C13.65 30.33 15.3 30.66 17 31 C17 24.07 17 17.14 17 10 C17.33 10 17.66 10 18 10 C18 17.26 18 24.52 18 32 C15.36 32 12.72 32 10 32 C9.98541748 31.40985107 9.97083496 30.81970215 9.95581055 30.21166992 C9.88131156 27.53628771 9.78466005 24.86215108 9.6875 22.1875 C9.66494141 21.25873047 9.64238281 20.32996094 9.61914062 19.37304688 C9.58369141 18.48037109 9.54824219 17.58769531 9.51171875 16.66796875 C9.48553467 15.84578857 9.45935059 15.0236084 9.43237305 14.17651367 C8.90699276 11.53181279 8.12671209 10.61658317 6 9 C2.77756457 8.5042407 1.4411615 8.71384119 -1.3125 10.5 C-1.869375 10.995 -2.42625 11.49 -3 12 C-2.75 9.625 -2.75 9.625 -2 7 C0.15101064 5.54286376 1.40286494 5 4 5 C4.33 4.34 4.66 3.68 5 3 C2.525 2.01 2.525 2.01 0 1 C0 0.67 0 0.34 0 0 Z " fill="#E4F3FD" transform="translate(48,83)"/>
<path d="M0 0 C3.3 0 6.6 0 10 0 C10 7.92 10 15.84 10 24 C12.31 24 14.62 24 17 24 C17 16.08 17 8.16 17 0 C20.3 0 23.6 0 27 0 C27 0.33 27 0.66 27 1 C24.03 1 21.06 1 18 1 C18.05329468 2.08269165 18.05329468 2.08269165 18.10766602 3.18725586 C18.264642 6.43710424 18.41367651 9.68726853 18.5625 12.9375 C18.61857422 14.07380859 18.67464844 15.21011719 18.73242188 16.38085938 C18.78076172 17.46044922 18.82910156 18.54003906 18.87890625 19.65234375 C18.9260376 20.65257568 18.97316895 21.65280762 19.02172852 22.68334961 C19 25 19 25 18 26 C16.50261876 26.0979057 15.00057108 26.12974864 13.5 26.125 C12.6853125 26.12757812 11.870625 26.13015625 11.03125 26.1328125 C9 26 9 26 8 25 C7.91286169 23.29227642 7.89299993 21.58101351 7.90234375 19.87109375 C7.90556641 18.83662109 7.90878906 17.80214844 7.91210938 16.73632812 C7.92048828 15.64771484 7.92886719 14.55910156 7.9375 13.4375 C7.94201172 12.34501953 7.94652344 11.25253906 7.95117188 10.12695312 C7.96300174 7.41791505 7.97948457 4.70898401 8 2 C5.36 2 2.72 2 0 2 C0 1.34 0 0.68 0 0 Z " fill="#618EEF" transform="translate(70,91)"/>
<path d="M0 0 C2.64 0 5.28 0 8 0 C8 10.56 8 21.12 8 32 C5.36 32 2.72 32 0 32 C0 21.44 0 10.88 0 0 Z M1 1 C1 9.91 1 18.82 1 28 C3.475 28.99 3.475 28.99 6 30 C6 20.43 6 10.86 6 1 C4.35 1 2.7 1 1 1 Z " fill="#D7EEFE" transform="translate(21,84)"/>
<path d="M0 0 C0.99 0.66 1.98 1.32 3 2 C3.1875 5.625 3.1875 5.625 3 9 C6.3 9 9.6 9 13 9 C13 16.92 13 24.84 13 33 C12.67 33 12.34 33 12 33 C11.67 25.74 11.34 18.48 11 11 C5.06 11.495 5.06 11.495 -1 12 C-1 19.26 -1 26.52 -1 34 C-1.33 34 -1.66 34 -2 34 C-2.04945386 29.64007129 -2.08574488 25.28029138 -2.10986328 20.92016602 C-2.11991821 19.43706417 -2.13356404 17.95398212 -2.15087891 16.47094727 C-2.17515006 14.33865469 -2.18648799 12.20662431 -2.1953125 10.07421875 C-2.20578613 8.79119873 -2.21625977 7.50817871 -2.22705078 6.1862793 C-2 3 -2 3 0 0 Z " fill="#487DED" transform="translate(150,82)"/>
<path d="M0 0 C0.33 0 0.66 0 1 0 C1 7.26 1 14.52 1 22 C3.64 22 6.28 22 9 22 C8.97643433 21.10692139 8.97643433 21.10692139 8.95239258 20.19580078 C8.89014199 17.50562997 8.85104217 14.81561043 8.8125 12.125 C8.78736328 11.18785156 8.76222656 10.25070313 8.73632812 9.28515625 C8.72666016 8.38925781 8.71699219 7.49335937 8.70703125 6.5703125 C8.6913208 5.74289551 8.67561035 4.91547852 8.65942383 4.06298828 C8.77181396 3.38220215 8.8842041 2.70141602 9 2 C9.99 1.34 10.98 0.68 12 0 C11.86184471 3.81281945 11.71319438 7.62515717 11.5625 11.4375 C11.52318359 12.52611328 11.48386719 13.61472656 11.44335938 14.73632812 C11.40146484 15.77080078 11.35957031 16.80527344 11.31640625 17.87109375 C11.26141968 19.30859985 11.26141968 19.30859985 11.20532227 20.77514648 C11 23 11 23 10 24 C2.54135338 24.36090226 2.54135338 24.36090226 -1 22 C-1.35644531 19.86108398 -1.35644531 19.86108398 -1.328125 17.24609375 C-1.32296875 16.30958984 -1.3178125 15.37308594 -1.3125 14.40820312 C-1.291875 13.42787109 -1.27125 12.44753906 -1.25 11.4375 C-1.24484375 10.45330078 -1.2396875 9.46910156 -1.234375 8.45507812 C-1.15386542 1.15386542 -1.15386542 1.15386542 0 0 Z " fill="#396FE0" transform="translate(36,93)"/>
<path d="M0 0 C2.64 0 5.28 0 8 0 C8 10.56 8 21.12 8 32 C5.36 32 2.72 32 0 32 C0 21.44 0 10.88 0 0 Z M1 1 C1 10.24 1 19.48 1 29 C2.65 29.33 4.3 29.66 6 30 C7.38308781 27.23382437 7.11210196 24.98982 7.09765625 21.8984375 C7.09443359 20.68671875 7.09121094 19.475 7.08789062 18.2265625 C7.07951172 16.95554687 7.07113281 15.68453125 7.0625 14.375 C7.05573242 12.456875 7.05573242 12.456875 7.04882812 10.5 C7.03701203 7.33328708 7.02053815 4.16666644 7 1 C5.02 1 3.04 1 1 1 Z " fill="#CBE1FD" transform="translate(140,84)"/>
<path d="M0 0 C0.33 0 0.66 0 1 0 C1 8.25 1 16.5 1 25 C-1.64 25 -4.28 25 -7 25 C-7 17.08 -7 9.16 -7 1 C-6.67 1 -6.34 1 -6 1 C-6 8.26 -6 15.52 -6 23 C-4.35 23 -2.7 23 -1 23 C-1.00523682 22.3387915 -1.01047363 21.67758301 -1.01586914 20.99633789 C-1.03657656 18.01840149 -1.04964012 15.04048018 -1.0625 12.0625 C-1.07087891 11.02158203 -1.07925781 9.98066406 -1.08789062 8.90820312 C-1.09111328 7.91884766 -1.09433594 6.92949219 -1.09765625 5.91015625 C-1.10289307 4.99371338 -1.10812988 4.07727051 -1.11352539 3.13305664 C-1 1 -1 1 0 0 Z " fill="#CEE6FD" transform="translate(170,91)"/>
<path d="M0 0 C2.64 0 5.28 0 8 0 C8 6.6 8 13.2 8 20 C7.67 20 7.34 20 7 20 C7 13.73 7 7.46 7 1 C5.68 1 4.36 1 3 1 C3.01160156 1.9178125 3.02320312 2.835625 3.03515625 3.78125 C3.08301493 10.29003027 3.02900697 16.56870645 2 23 C-0.13604308 19.79593538 -0.24208908 19.00399253 -0.1953125 15.33203125 C-0.18564453 13.99301758 -0.18564453 13.99301758 -0.17578125 12.62695312 C-0.15902344 11.69818359 -0.14226562 10.76941406 -0.125 9.8125 C-0.11597656 8.87212891 -0.10695313 7.93175781 -0.09765625 6.96289062 C-0.07409056 4.64167032 -0.04119116 2.32096356 0 0 Z " fill="#D7EAFC" transform="translate(102,84)"/>
<path d="M0 0 C0.66 0 1.32 0 2 0 C2.33 6.6 2.66 13.2 3 20 C3.33 20 3.66 20 4 20 C4 22.31 4 24.62 4 27 C3.01 26.34 2.02 25.68 1 25 C0.01 25.66 -0.98 26.32 -2 27 C-1.84152588 26.28432861 -1.68305176 25.56865723 -1.51977539 24.83129883 C-1.01543043 22.08405198 -0.79773833 19.4876077 -0.68359375 16.69921875 C-0.64169922 15.72275391 -0.59980469 14.74628906 -0.55664062 13.74023438 C-0.51732422 12.73283203 -0.47800781 11.72542969 -0.4375 10.6875 C-0.37272461 9.14739258 -0.37272461 9.14739258 -0.30664062 7.57617188 C-0.20093175 5.05090431 -0.09883532 2.52554438 0 0 Z " fill="#497DEC" transform="translate(131,84)"/>
<path d="M0 0 C0.33 1.32 0.66 2.64 1 4 C0.01 4.495 0.01 4.495 -1 5 C-1 12.26 -1 19.52 -1 27 C-1.99 27.33 -2.98 27.66 -4 28 C-4.11681812 24.45861382 -4.187455 20.9177276 -4.25 17.375 C-4.28351562 16.37597656 -4.31703125 15.37695312 -4.3515625 14.34765625 C-4.43280165 8.21410037 -4.06816679 4.69280657 0 0 Z " fill="#DBF2FE" transform="translate(41,87)"/>
<path d="M0 0 C0 0.66 0 1.32 0 2 C-0.88751953 2.14695312 -0.88751953 2.14695312 -1.79296875 2.296875 C-8.05276225 3.48143625 -11.72473512 5.17553326 -15.8125 10.25 C-16.204375 10.8275 -16.59625 11.405 -17 12 C-16.67 10.02 -16.34 8.04 -16 6 C-15.34 6 -14.68 6 -14 6 C-13.67 5.01 -13.34 4.02 -13 3 C-8.44293494 0.58743614 -5.23220388 -0.38284419 0 0 Z " fill="#376EE8" transform="translate(54,81)"/>
<path d="M0 0 C1.98 0 3.96 0 6 0 C5.01 0.33 4.02 0.66 3 1 C3.33 2.32 3.66 3.64 4 5 C5.65 5.33 7.3 5.66 9 6 C9 6.33 9 6.66 9 7 C6.03 7 3.06 7 0 7 C0 4.69 0 2.38 0 0 Z " fill="#E7FAFE" transform="translate(153,84)"/>
<path d="M0 0 C1.98 0.99 1.98 0.99 4 2 C4 3.65 4 5.3 4 7 C2.68 7.33 1.36 7.66 0 8 C0 5.36 0 2.72 0 0 Z " fill="#2D71F3" transform="translate(180,84)"/>
</svg>
