<?xml version="1.0" encoding="UTF-8"?>
<svg version="1.1" xmlns="http://www.w3.org/2000/svg" width="1000" height="1000">
<path d="M0 0 C0.66 0 1.32 0 2 0 C2.25990723 0.48017578 2.51981445 0.96035156 2.78759766 1.45507812 C8.86650734 12.65903303 15.13815059 23.72996134 21.59423828 34.72070312 C25.81972949 41.93165801 29.93661822 49.19661039 34 56.5 C38.57561292 64.72205393 43.23570813 72.8858154 48 81 C53.36897462 90.1440349 58.58536635 99.36352222 63.74121094 108.62915039 C67.82521668 115.95004528 72.00787254 123.20720365 76.25 130.4375 C80.70406387 138.02923705 85.07480658 145.65518297 89.32446289 153.36303711 C97.45516476 168.0979746 105.9414191 182.63479406 114.36206055 197.20507812 C118.98522149 205.21502121 123.54781797 213.25743379 128.08569336 221.31591797 C132.17726289 228.57111077 136.32908306 235.7901733 140.5 243 C145.81716919 252.19224423 151.07996267 261.41286139 156.29467773 270.66357422 C161.3365187 279.60635071 166.42865041 288.51986846 171.52929688 297.42919922 C172.985026 299.97382532 174.43826195 302.51985764 175.890625 305.06640625 C181.4239701 314.76647163 186.98211627 324.45191243 192.5625 334.125 C193.1920459 335.21707764 193.8215918 336.30915527 194.47021484 337.43432617 C197.43122926 342.56672554 200.40135239 347.69325664 203.3984375 352.8046875 C203.91462646 353.68753418 204.43081543 354.57038086 204.96264648 355.47998047 C205.92200377 357.1191935 206.88487378 358.75635746 207.85180664 360.39111328 C211 365.77677047 211 365.77677047 211 368 C207.65678045 366.88559348 206.93980381 366.02527657 204.75 363.375 C202.42624019 360.63140123 200.07119176 358.01328204 197.5 355.5 C195.06610268 353.10946833 192.78644441 350.64953738 190.5625 348.0625 C188.14382221 345.25423653 185.64100317 342.60029407 183 340 C179.72797872 336.7784145 176.70683945 333.41407855 173.71484375 329.93359375 C172.03995701 328.04505403 170.30052413 326.26844352 168.5 324.5 C166.06610268 322.10946833 163.78644441 319.64953738 161.5625 317.0625 C159.14382221 314.25423653 156.64100317 311.60029407 154 309 C150.72797872 305.7784145 147.70683945 302.41407855 144.71484375 298.93359375 C143.03995701 297.04505403 141.30052413 295.26844352 139.5 293.5 C137.06610268 291.10946833 134.78644441 288.64953738 132.5625 286.0625 C130.14382221 283.25423653 127.64100317 280.60029407 125 278 C121.72797872 274.7784145 118.70683945 271.41407855 115.71484375 267.93359375 C113.4995262 265.43568444 111.1310183 263.11975011 108.75 260.78125 C106.29365151 258.28103815 104.03690632 255.62319484 101.75 252.96875 C100.06201714 251.06976929 98.31230266 249.27994012 96.5 247.5 C94.06610268 245.10946833 91.78644441 242.64953738 89.5625 240.0625 C87.14382221 237.25423653 84.64100317 234.60029407 82 232 C78.72797872 228.7784145 75.70683945 225.41407855 72.71484375 221.93359375 C71.03995701 220.04505403 69.30052413 218.26844352 67.5 216.5 C65.06610268 214.10946833 62.78644441 211.64953738 60.5625 209.0625 C58.14382221 206.25423653 55.64100317 203.60029407 53 201 C49.72797872 197.7784145 46.70683945 194.41407855 43.71484375 190.93359375 C42.03995701 189.04505403 40.30052413 187.26844352 38.5 185.5 C31.43841393 178.53405618 26.32737839 173.22162034 24.77243042 163.19920349 C24.66454921 162.51594925 24.556668 161.832695 24.44551766 161.12873608 C24.08602255 158.84124972 23.73615195 156.55239661 23.38623047 154.26342773 C23.13035202 152.62231689 22.87388811 150.98129723 22.61688232 149.34036255 C21.92082017 144.884863 21.23313637 140.4281065 20.54705572 135.97106051 C19.82823979 131.30992156 19.10216963 126.64991267 18.37698364 121.98976135 C17.16039226 114.16484709 15.94886304 106.33916276 14.74072266 98.51293945 C13.18903539 88.46143115 11.62899459 78.41123813 10.06631279 68.36143398 C8.72389837 59.72773419 7.38536156 51.09343391 6.0474267 42.45903897 C5.61665862 39.68018198 5.18534824 36.90140956 4.75396347 34.12264824 C4.07701817 29.76050677 3.40248962 25.39799811 2.72985077 21.03519058 C2.4823019 19.43183114 2.23398149 17.82859061 1.98484421 16.22547722 C1.64564817 14.04190929 1.30925221 11.85792828 0.97360229 9.67381287 C0.68989934 7.83848071 0.68989934 7.83848071 0.40046501 5.96607113 C0 3 0 3 0 0 Z " fill="#052F62" transform="translate(502,278)"/>
<path d="M0 0 C0.66 0 1.32 0 2 0 C-2.59301927 31.03484123 -7.37976375 62.03949823 -12.21161652 93.03789139 C-13.4714942 101.12080187 -14.72774192 109.20425821 -15.97921014 117.28847516 C-16.87423227 123.06823981 -17.77321971 128.84737916 -18.67518592 134.62606418 C-19.20868347 138.04470365 -19.74049923 141.46358364 -20.268013 144.88315201 C-20.85122976 148.65741448 -21.44092242 152.43061063 -22.03222656 156.20361328 C-22.20262451 157.31609436 -22.37302246 158.42857544 -22.54858398 159.57476807 C-24.71754552 173.3003581 -24.71754552 173.3003581 -28.79296875 177.1484375 C-29.60967041 177.93806885 -29.60967041 177.93806885 -30.44287109 178.74365234 C-31.01859863 179.28199707 -31.59432617 179.8203418 -32.1875 180.375 C-33.3729503 181.51891249 -34.55655874 182.66473691 -35.73828125 183.8125 C-36.30498535 184.36035156 -36.87168945 184.90820312 -37.45556641 185.47265625 C-39.9446066 187.9341541 -42.19669619 190.57640586 -44.4609375 193.2421875 C-46.60534094 195.69137924 -48.92861221 197.93881556 -51.25 200.21875 C-53.08242487 202.08389674 -54.79353135 204.01927746 -56.5 206 C-59.28239332 209.22956367 -62.21019429 212.23322653 -65.25 215.21875 C-67.08242487 217.08389674 -68.79353135 219.01927746 -70.5 221 C-73.28239332 224.22956367 -76.21019429 227.23322653 -79.25 230.21875 C-81.08242487 232.08389674 -82.79353135 234.01927746 -84.5 236 C-86.7455794 238.60647609 -89.04551512 241.08934521 -91.5 243.5 C-93.93389732 245.89053167 -96.21355559 248.35046262 -98.4375 250.9375 C-101.47679651 254.46634763 -104.71016847 257.73005027 -108.02734375 260.99609375 C-110.57337829 263.58246151 -112.92021557 266.3153528 -115.28515625 269.06640625 C-117.5004738 271.56431556 -119.8689817 273.88024989 -122.25 276.21875 C-124.08242487 278.08389674 -125.79353135 280.01927746 -127.5 282 C-130.28239332 285.22956367 -133.21019429 288.23322653 -136.25 291.21875 C-138.08242487 293.08389674 -139.79353135 295.01927746 -141.5 297 C-144.28239332 300.22956367 -147.21019429 303.23322653 -150.25 306.21875 C-152.08242487 308.08389674 -153.79353135 310.01927746 -155.5 312 C-157.7455794 314.60647609 -160.04551512 317.08934521 -162.5 319.5 C-164.93389732 321.89053167 -167.21355559 324.35046262 -169.4375 326.9375 C-172.47679651 330.46634763 -175.71016847 333.73005027 -179.02734375 336.99609375 C-181.57337829 339.58246151 -183.92021557 342.3153528 -186.28515625 345.06640625 C-187.96004299 346.95494597 -189.69947587 348.73155648 -191.5 350.5 C-196.28049096 355.20546083 -200.61712828 360.27116428 -204.8125 365.5 C-205.8953125 366.7375 -205.8953125 366.7375 -207 368 C-207.66 368 -208.32 368 -209 368 C-207.37172256 361.78958286 -204.01473705 356.64518137 -200.75 351.1875 C-195.72263435 342.68365376 -190.79726527 334.13575698 -186 325.5 C-180.86447161 316.27025844 -175.59786397 307.12761208 -170.25 298.01953125 C-166.07756041 290.8947181 -162.01504756 283.71453859 -158 276.5 C-152.86368611 267.27068598 -147.59787465 258.12763027 -142.25 249.01953125 C-137.4742304 240.86447824 -132.853866 232.62871571 -128.25878906 224.37084961 C-123.60314229 216.02524414 -118.80552757 207.76895815 -113.96875 199.52734375 C-110.15523105 193.01687671 -106.44970711 186.45787081 -102.81616211 179.84570312 C-99.4182127 173.68978913 -95.87436005 167.62473863 -92.3125 161.5625 C-87.25038957 152.94143857 -82.32963682 144.25332544 -77.5 135.5 C-72.19794898 125.89182931 -66.76039033 116.37820894 -61.19921875 106.91796875 C-57.04099732 99.82838852 -52.9963387 92.68193905 -49 85.5 C-43.86374835 76.27065229 -38.59787376 67.12762875 -33.25 58.01953125 C-29.0775487 50.89469812 -25.01587334 43.71409331 -21 36.5 C-16.13630232 27.78185636 -11.23523157 19.08682516 -6.25 10.4375 C-5.35474609 8.86548828 -5.35474609 8.86548828 -4.44140625 7.26171875 C-3.88839844 6.3078125 -3.33539063 5.35390625 -2.765625 4.37109375 C-2.03520996 3.1015686 -2.03520996 3.1015686 -1.29003906 1.80639648 C-0.86432617 1.21028564 -0.43861328 0.6141748 0 0 Z " fill="#052E61" transform="translate(497,278)"/>
<path d="M0 0 C1.75784065 -0.04818878 1.75784065 -0.04818878 3.55119324 -0.09735107 C8.90849309 -0.18659208 14.26521612 -0.26924482 19.62304688 -0.31445312 C22.44566208 -0.34108693 25.26536833 -0.39668663 28.08691406 -0.47851562 C32.16430555 -0.59672905 36.23860996 -0.63183419 40.31762695 -0.66113281 C41.57105392 -0.70647156 42.8244809 -0.7518103 44.1158905 -0.79852295 C49.27775576 -0.7737489 52.7731951 -0.72337747 56.91812134 2.5423584 C59.19962627 5.05889702 61.20233987 7.62780508 63.1809082 10.38574219 C64.33297331 11.73171205 65.49689344 13.06779001 66.6809082 14.38574219 C67.23520508 15.02382813 67.78950195 15.66191406 68.3605957 16.31933594 C71.181915 19.52207823 74.07717707 22.65768729 76.9699707 25.79589844 C79.56674878 28.83770739 81.85625638 32.13122963 84.1809082 35.38574219 C69.3309082 35.71574219 54.4809082 36.04574219 39.1809082 36.38574219 C40.27869741 44.07026664 42.64354356 48.54721946 46.4309082 55.13574219 C47.00454102 56.17601562 47.57817383 57.21628906 48.16918945 58.28808594 C48.73508789 59.28453125 49.30098633 60.28097656 49.8840332 61.30761719 C50.39611328 62.21092773 50.90819336 63.11423828 51.43579102 64.04492188 C53.47398975 66.77886836 55.13479897 67.86857312 58.1809082 69.38574219 C60.94711182 69.77302272 60.94711182 69.77302272 63.89819336 69.62768555 C65.02351471 69.60874741 66.14883606 69.58980927 67.30825806 69.57029724 C68.51662323 69.53904251 69.7249884 69.50778778 70.9699707 69.47558594 C73.54677233 69.45399517 76.12359866 69.43520402 78.70043945 69.41894531 C82.74993001 69.3838474 86.79727702 69.32862096 90.84545898 69.21801758 C114.68005003 68.64567282 114.68005003 68.64567282 120.34155273 72.98339844 C123.18919564 75.77504272 125.18783851 78.93561349 127.1809082 82.38574219 C128.35646905 83.78886411 129.55784097 85.17170424 130.8059082 86.51074219 C131.34473633 87.13207031 131.88356445 87.75339844 132.4387207 88.39355469 C134.49591219 90.74594854 136.58687735 93.06609185 138.6809082 95.38574219 C153.1809082 111.46935993 153.1809082 111.46935993 153.1809082 114.38574219 C136.22154642 114.4558783 119.26223002 114.50875287 102.30275631 114.5411787 C94.42786239 114.55663595 86.55305867 114.57770355 78.67822266 114.61206055 C71.81309608 114.64199798 64.94803484 114.6613255 58.08284479 114.66800767 C54.44904239 114.6719126 50.81542689 114.68106569 47.18168449 114.70293236 C43.1213648 114.72716698 39.06136838 114.7277094 35.00097656 114.72631836 C33.80119675 114.73710419 32.60141693 114.74789001 31.36528015 114.75900269 C23.4137349 114.72951011 18.26071012 114.41469009 12.37719727 108.62832642 C10.0524439 105.19607848 9.03166985 102.51493303 8.0402832 98.50439453 C7.87202026 97.84314072 7.70375732 97.1818869 7.53039551 96.50059509 C6.98161375 94.32786187 6.45622995 92.15019263 5.9309082 89.97167969 C5.54790244 88.43597172 5.16343462 86.90062774 4.77758789 85.3656311 C3.76549177 81.32279009 2.77311648 77.27536087 1.78491211 73.22662354 C0.79317461 69.17779707 -0.21670745 65.13351097 -1.2253418 61.08886719 C-2.76245175 54.91835835 -4.28585514 48.7446479 -5.79956055 42.56835938 C-7.00043279 37.66997502 -8.22418583 32.77931419 -9.49487305 27.8984375 C-9.73431641 26.97253815 -9.97375977 26.04663879 -10.22045898 25.09268188 C-10.63979903 23.47979833 -11.06547777 21.86853876 -11.49975586 20.25961304 C-12.89969615 14.85068835 -13.89232562 9.80051829 -11.5690918 4.57324219 C-8.31333738 0.50354916 -5.0550779 0.12625028 0 0 Z " fill="#052E61" transform="translate(541.819091796875,532.6142578125)"/>
<path d="M0 0 C1.11696762 0.00222061 2.23393524 0.00444122 3.38475037 0.00672913 C4.64598221 0.00680466 5.90721405 0.00688019 7.20666504 0.00695801 C8.59341979 0.01206542 9.98017414 0.01728142 11.3669281 0.02259827 C12.77797394 0.0244625 14.18902042 0.02588638 15.60006714 0.02688599 C19.3204272 0.03071072 23.04074845 0.04054062 26.76109314 0.05158997 C30.55482966 0.06180504 34.34857243 0.06638381 38.14231873 0.07142639 C45.59090416 0.08216294 53.03945758 0.09923882 60.48802185 0.12025452 C62.33576218 9.5939857 64.00141166 19.03489592 65.17552185 28.62025452 C65.36984802 30.15746155 65.36984802 30.15746155 65.56809998 31.72572327 C65.87901733 34.1900312 66.18418279 36.65506385 66.48802185 39.12025452 C59.55802185 39.12025452 52.62802185 39.12025452 45.48802185 39.12025452 C45.48802185 63.87025452 45.48802185 88.62025452 45.48802185 114.12025452 C23.70802185 114.12025452 1.92802185 114.12025452 -20.51197815 114.12025452 C-19.33223311 108.22152933 -18.23990464 102.79638183 -16.54078674 97.11000061 C-16.35517685 96.48431183 -16.16956696 95.85862305 -15.97833252 95.213974 C-15.37658213 93.18926057 -14.76858752 91.16648484 -14.16041565 89.14369202 C-13.73689784 87.72320528 -13.31377846 86.30259969 -12.89103699 84.88188171 C-11.78697158 81.17527716 -10.677565 77.47029302 -9.56697083 73.76564026 C-8.43077438 69.97206378 -7.29972994 66.17695209 -6.16822815 62.38197327 C-3.95446688 54.95990178 -1.73457537 47.53968585 0.48802185 40.12025452 C-6.11197815 39.79025452 -12.71197815 39.46025452 -19.51197815 39.12025452 C-17.96177343 34.46964037 -16.25609119 30.04250935 -14.2893219 25.56947327 C-13.98377884 24.87006119 -13.67823578 24.17064911 -13.36343384 23.45004272 C-12.72176461 21.98302601 -12.07879483 20.51657753 -11.43458557 19.05067444 C-10.44554724 16.79880451 -9.46190117 14.54463278 -8.47877502 12.29017639 C-7.85344306 10.86230223 -7.22780304 9.43456294 -6.6018219 8.00697327 C-6.15962563 6.99300728 -6.15962563 6.99300728 -5.70849609 5.95855713 C-3.14912055 0.15075608 -3.14912055 0.15075608 0 0 Z " fill="#052E61" transform="translate(455.51197814941406,532.8797454833984)"/>
<path d="M0 0 C0.78868469 0.02580643 1.57736938 0.05161285 2.38995361 0.07820129 C3.61334442 0.0888134 3.61334442 0.0888134 4.8614502 0.09963989 C7.46043542 0.1275771 10.05724733 0.19030973 12.65557861 0.25398254 C14.41987036 0.27906649 16.18419596 0.3018795 17.94854736 0.32234192 C22.26839217 0.377401 26.58661724 0.4636652 30.90557861 0.56648254 C29.62496908 4.70936134 28.06794898 8.39902464 25.99932861 12.20710754 C25.42561523 13.26816711 24.85190186 14.32922668 24.26080322 15.42243958 C23.6485791 16.54247375 23.03635498 17.66250793 22.40557861 18.81648254 C21.76666126 19.99322571 21.12807397 21.17014814 20.48980713 22.34724426 C16.59121074 29.52614764 12.64655292 36.67921029 8.65875244 43.80891418 C5.24299427 49.92492562 1.91640378 56.0873626 -1.40692139 62.25398254 C-7.33054302 73.23260309 -13.43731951 84.10017121 -19.60614014 94.94245911 C-21.03756996 97.46624647 -22.45906513 99.99528739 -23.87567139 102.52742004 C-24.29622803 103.27894348 -24.71678467 104.03046692 -25.15008545 104.80476379 C-25.92409376 106.1894982 -26.69695308 107.57487572 -27.46844482 108.96101379 C-29.98450266 113.45656382 -29.98450266 113.45656382 -31.09442139 114.56648254 C-33.4369592 114.66140976 -35.74988243 114.69208046 -38.0927124 114.68000793 C-39.19020813 114.68022697 -39.19020813 114.68022697 -40.30987549 114.68045044 C-42.73938922 114.67975121 -45.16882722 114.67195839 -47.59832764 114.66413879 C-49.27841653 114.66227465 -50.95850596 114.66085073 -52.63859558 114.65985107 C-57.06915782 114.65602562 -61.49968748 114.6461951 -65.93023682 114.63514709 C-70.44785115 114.62493357 -74.96547072 114.62035358 -79.48309326 114.61531067 C-88.35355031 114.60457285 -97.22398315 114.5874961 -106.09442139 114.56648254 C-104.69636809 111.66521276 -103.31198726 109.51023653 -101.08270264 107.17585754 C-100.49319824 106.55283752 -99.90369385 105.9298175 -99.29632568 105.28791809 C-98.67282227 104.63734436 -98.04931885 103.98677063 -97.40692139 103.31648254 C-96.12739043 101.96445508 -94.84873372 100.61159966 -93.57098389 99.25788879 C-92.96286865 98.61480774 -92.35475342 97.97172668 -91.72821045 97.30915833 C-89.32724911 94.74818073 -87.0214741 92.11275786 -84.73114014 89.45320129 C-82.71568367 87.12989467 -80.65593676 84.84899789 -78.59442139 82.56648254 C-75.90458708 79.58585534 -73.23131775 76.59403022 -70.59442139 73.56648254 C-67.20189046 69.67135444 -63.74247938 65.83865492 -60.28192139 62.00398254 C-58.36887989 59.87230774 -56.47554527 57.72629144 -54.59442139 55.56648254 C-49.72298935 49.97668265 -44.73546989 44.49113357 -39.76629639 38.98835754 C-35.77737562 34.56526853 -31.81874231 30.1203325 -27.90692139 25.62898254 C-25.82230974 23.25683826 -23.71013495 20.91092189 -21.59442139 18.56648254 C-14.55818403 11.15679372 -14.55818403 11.15679372 -8.52435303 2.9790802 C-5.6629097 0.13804906 -3.95575646 -0.00201753 0 0 Z " fill="#052E61" transform="translate(411.09442138671875,532.4335174560547)"/>
<path d="M0 0 C0.88042969 -0.00128906 1.76085937 -0.00257813 2.66796875 -0.00390625 C3.57933594 -0.00003906 4.49070312 0.00382813 5.4296875 0.0078125 C6.34878906 0.00394531 7.26789063 0.00007812 8.21484375 -0.00390625 C9.09269531 -0.00261719 9.97054688 -0.00132812 10.875 0 C11.67695801 0.00112793 12.47891602 0.00225586 13.30517578 0.00341797 C15.3046875 0.1328125 15.3046875 0.1328125 17.3046875 1.1328125 C17.3046875 1.7928125 17.3046875 2.4528125 17.3046875 3.1328125 C14.6646875 3.7928125 12.0246875 4.4528125 9.3046875 5.1328125 C9.3046875 17.6728125 9.3046875 30.2128125 9.3046875 43.1328125 C17.47720373 43.68704687 17.47720373 43.68704687 24.3046875 41.1328125 C27.51801436 37.05435918 28.79860737 32.03558399 30.3046875 27.1328125 C30.9646875 27.4628125 31.6246875 27.7928125 32.3046875 28.1328125 C32.61710205 30.84728229 32.81805342 33.47190611 32.9296875 36.1953125 C32.98769531 37.33323242 32.98769531 37.33323242 33.046875 38.49414062 C33.14142312 40.37328445 33.22415506 42.25301586 33.3046875 44.1328125 C34.9546875 43.4728125 36.6046875 42.8128125 38.3046875 42.1328125 C38.3046875 34.2128125 38.3046875 26.2928125 38.3046875 18.1328125 C36.3246875 17.4728125 34.3446875 16.8128125 32.3046875 16.1328125 C32.3046875 15.4728125 32.3046875 14.8128125 32.3046875 14.1328125 C35.17102545 12.69964352 37.67704251 13.00080889 40.8671875 13.0078125 C42.63255859 13.00394531 42.63255859 13.00394531 44.43359375 13 C47.3046875 13.1328125 47.3046875 13.1328125 48.3046875 14.1328125 C48.39252292 16.35136514 48.41163359 18.57269746 48.40234375 20.79296875 C48.4009288 21.45743515 48.39951385 22.12190155 48.39805603 22.8065033 C48.39244268 24.93615149 48.37988804 27.06569589 48.3671875 29.1953125 C48.36217421 30.63606619 48.35761101 32.07682153 48.35351562 33.51757812 C48.34246895 37.05602352 48.32519542 40.59440789 48.3046875 44.1328125 C52.2646875 44.1328125 56.2246875 44.1328125 60.3046875 44.1328125 C60.3046875 35.2228125 60.3046875 26.3128125 60.3046875 17.1328125 C58.3246875 16.8028125 56.3446875 16.4728125 54.3046875 16.1328125 C54.3046875 15.1428125 54.3046875 14.1528125 54.3046875 13.1328125 C59.2546875 13.1328125 64.2046875 13.1328125 69.3046875 13.1328125 C70.2946875 15.1128125 70.2946875 15.1128125 71.3046875 17.1328125 C71.9853125 16.4934375 72.6659375 15.8540625 73.3671875 15.1953125 C76.88701334 12.72394542 79.01926556 12.20799534 83.3046875 12.1328125 C86.98773828 13.54937049 89.72928296 15.12817387 92.3046875 18.1328125 C93.1503125 17.3284375 93.9959375 16.5240625 94.8671875 15.6953125 C98.21595809 12.91520107 100.89727408 12.21294729 105.3046875 12.1328125 C109.83046319 13.18531847 111.74349529 15.33659344 114.3046875 19.1328125 C114.75878906 21.99536133 114.75878906 21.99536133 114.6953125 25.08984375 C114.68242188 26.20166016 114.66953125 27.31347656 114.65625 28.45898438 C114.62273437 29.60947266 114.58921875 30.75996094 114.5546875 31.9453125 C114.53664063 33.11513672 114.51859375 34.28496094 114.5 35.49023438 C114.4529519 38.3719303 114.38722459 41.25195047 114.3046875 44.1328125 C115.95134953 44.0192496 117.59704832 43.89163869 119.2421875 43.7578125 C120.15871094 43.68820312 121.07523438 43.61859375 122.01953125 43.546875 C122.77363281 43.41023437 123.52773438 43.27359375 124.3046875 43.1328125 C125.58330365 40.57558021 125.41805359 38.76544148 125.40234375 35.90625 C125.39912109 34.875 125.39589844 33.84375 125.39257812 32.78125 C125.38419922 31.70101562 125.37582031 30.62078125 125.3671875 29.5078125 C125.36041992 27.87585938 125.36041992 27.87585938 125.35351562 26.2109375 C125.34170526 23.51817461 125.32523528 20.82552062 125.3046875 18.1328125 C123.3246875 17.4728125 121.3446875 16.8128125 119.3046875 16.1328125 C119.3046875 15.4728125 119.3046875 14.8128125 119.3046875 14.1328125 C122.17102545 12.69964352 124.67704251 13.00080889 127.8671875 13.0078125 C129.63255859 13.00394531 129.63255859 13.00394531 131.43359375 13 C134.3046875 13.1328125 134.3046875 13.1328125 135.3046875 14.1328125 C135.39252292 16.35136514 135.41163359 18.57269746 135.40234375 20.79296875 C135.40022133 21.78966835 135.40022133 21.78966835 135.39805603 22.8065033 C135.39244268 24.93615149 135.37988804 27.06569589 135.3671875 29.1953125 C135.36217421 30.63606619 135.35761101 32.07682153 135.35351562 33.51757812 C135.34246895 37.05602352 135.32519542 40.59440789 135.3046875 44.1328125 C137.2846875 44.1328125 139.2646875 44.1328125 141.3046875 44.1328125 C141.3046875 45.1228125 141.3046875 46.1128125 141.3046875 47.1328125 C91.8046875 47.1328125 42.3046875 47.1328125 -8.6953125 47.1328125 C-8.6953125 46.1428125 -8.6953125 45.1528125 -8.6953125 44.1328125 C-5.7253125 43.6378125 -5.7253125 43.6378125 -2.6953125 43.1328125 C-2.3653125 30.2628125 -2.0353125 17.3928125 -1.6953125 4.1328125 C-4.0053125 3.8028125 -6.3153125 3.4728125 -8.6953125 3.1328125 C-8.6953125 2.4728125 -8.6953125 1.8128125 -8.6953125 1.1328125 C-5.72876947 0.27807464 -3.08323646 0.00432431 0 0 Z M74.7421875 18.3203125 C70.13469907 23.6366453 70.03288898 28.20951866 70.1796875 34.9453125 C70.18871094 35.73357422 70.19773437 36.52183594 70.20703125 37.33398438 C70.23046246 39.26705916 70.26632912 41.1999763 70.3046875 43.1328125 C75.24246008 44.87555576 77.56921487 45.34106398 82.3046875 43.1328125 C82.36253458 39.00787099 82.39823157 34.88303306 82.4296875 30.7578125 C82.44644531 29.5821875 82.46320313 28.4065625 82.48046875 27.1953125 C82.48691406 26.07382812 82.49335937 24.95234375 82.5 23.796875 C82.51571045 22.24154053 82.51571045 22.24154053 82.53173828 20.65478516 C82.56083776 17.96172627 82.56083776 17.96172627 80.3046875 16.1328125 C77.12343509 15.80818131 77.12343509 15.80818131 74.7421875 18.3203125 Z M94.3046875 20.1328125 C91.64863567 24.84662461 92.07797767 29.69943232 92.1796875 34.9453125 C92.18871094 35.82896484 92.19773437 36.71261719 92.20703125 37.62304688 C92.23049113 39.79308609 92.26635885 41.96298497 92.3046875 44.1328125 C96.99434456 45.24939751 99.84232281 44.93900773 104.3046875 43.1328125 C104.36253458 39.00787099 104.39823157 34.88303306 104.4296875 30.7578125 C104.44644531 29.5821875 104.46320313 28.4065625 104.48046875 27.1953125 C104.48691406 26.07382812 104.49335937 24.95234375 104.5 23.796875 C104.51571045 22.24154053 104.51571045 22.24154053 104.53173828 20.65478516 C104.56083776 17.96172627 104.56083776 17.96172627 102.3046875 16.1328125 C98.30992419 16.1328125 97.1625539 17.42150335 94.3046875 20.1328125 Z " fill="#052E62" transform="translate(460.6953125,673.8671875)"/>
<path d="M0 0 C0.99 0 1.98 0 3 0 C3 4.29 3 8.58 3 13 C6.3 13 9.6 13 13 13 C13 13.99 13 14.98 13 16 C9.7 16 6.4 16 3 16 C3.33 24.91 3.66 33.82 4 43 C5.65 43 7.3 43 9 43 C10.96822886 41.03177114 10.66248381 37.65191291 11 35 C11.99 35 12.98 35 14 35 C13.95359375 34.27554688 13.9071875 33.55109375 13.859375 32.8046875 C13.62900526 26.6340694 13.67396231 22.79371744 18 18 C21.66592945 14.61606512 24.99005345 12.1005177 30.10546875 11.9296875 C35.99710932 12.26522482 38.93791944 13.73976917 43 18 C45.53559534 21.45763 45.2369558 24.8137808 45 29 C44 30 44 30 41.95874023 30.11352539 C41.08419189 30.10828857 40.20964355 30.10305176 39.30859375 30.09765625 C38.36435547 30.09443359 37.42011719 30.09121094 36.44726562 30.08789062 C35.45404297 30.07951172 34.46082031 30.07113281 33.4375 30.0625 C32.44041016 30.05798828 31.44332031 30.05347656 30.41601562 30.04882812 C27.94395151 30.03700007 25.47200482 30.02051849 23 30 C23.39611961 31.96259262 23.81761694 33.92007661 24.25 35.875 C24.59804688 37.51082031 24.59804688 37.51082031 24.953125 39.1796875 C25.73286733 42.06856355 25.73286733 42.06856355 27.88671875 43.39453125 C31.16521259 44.33384095 33.72003163 43.77526525 37 43 C40.18465902 40.83898138 41.40400782 37.41998325 43 34 C43.99 34.495 43.99 34.495 45 35 C44.92709319 38.06208612 44.58577189 40.25927101 42.65625 42.69921875 C39.10163475 46.03570988 35.96435423 47.92217823 31.04296875 48.16015625 C25.18868976 47.7012166 21.33689465 45.75284991 17.5 41.3125 C16.65024233 40.22092299 15.81071693 39.12087757 15 38 C14.5875 39.093125 14.175 40.18625 13.75 41.3125 C12.33138022 44.54198466 11.32064287 46.47429922 8 48 C2.57332682 48.51682602 -0.52949113 48.38674915 -5 45 C-6 44 -6 44 -6.11352539 41.31616211 C-6.10828857 40.14835205 -6.10305176 38.98054199 -6.09765625 37.77734375 C-6.09443359 36.51728516 -6.09121094 35.25722656 -6.08789062 33.95898438 C-6.07953403 32.61848891 -6.07106907 31.27799412 -6.0625 29.9375 C-6.0574866 28.59310058 -6.05292342 27.2486994 -6.04882812 25.90429688 C-6.03699488 22.60282059 -6.02050971 19.30143197 -6 16 C-7.98 16 -9.96 16 -12 16 C-12 15.01 -12 14.02 -12 13 C-10.906875 12.773125 -9.81375 12.54625 -8.6875 12.3125 C-4.95558151 11.34655059 -4.95558151 11.34655059 -3.1875 8.75 C-1.94511331 5.87289397 -0.90681647 2.99946986 0 0 Z M25 18 C24.42676193 20.27161255 24.42676193 20.27161255 24.3125 22.6875 C24.209375 24.110625 24.10625 25.53375 24 27 C27.96 27 31.92 27 36 27 C36.061875 25.576875 36.12375 24.15375 36.1875 22.6875 C36.22230469 21.88699219 36.25710938 21.08648438 36.29296875 20.26171875 C36.18341691 17.93332263 36.18341691 17.93332263 34.64453125 16.23046875 C33.00117992 14.79836753 33.00117992 14.79836753 30.5 14.625 C27.50506717 15.07423992 26.840969 15.65081984 25 18 Z " fill="#052E62" transform="translate(609,674)"/>
<path d="M0 0 C0.97324219 -0.00257813 1.94648437 -0.00515625 2.94921875 -0.0078125 C5.3125 0.125 5.3125 0.125 6.3125 1.125 C6.43435143 2.47483748 6.49016831 3.83074701 6.51782227 5.18579102 C6.5477401 6.47701622 6.5477401 6.47701622 6.57826233 7.79432678 C6.59497482 8.72973801 6.61168732 9.66514923 6.62890625 10.62890625 C6.64968735 11.58192123 6.67046844 12.53493622 6.69187927 13.51683044 C6.75748177 16.5736441 6.81630918 19.63054656 6.875 22.6875 C6.91817506 24.75456663 6.96178901 26.82162414 7.00585938 28.88867188 C7.11317401 33.96735595 7.21441091 39.0461297 7.3125 44.125 C8.9625 44.455 10.6125 44.785 12.3125 45.125 C11.9825 46.115 11.6525 47.105 11.3125 48.125 C6.6925 48.125 2.0725 48.125 -2.6875 48.125 C-3.0175 47.135 -3.3475 46.145 -3.6875 45.125 C-4.3475 45.62 -5.0075 46.115 -5.6875 46.625 C-9.51906779 48.5407839 -12.47908306 48.74941959 -16.6875 48.125 C-21.62555306 45.99265891 -24.4130908 42.48265702 -26.9375 37.8125 C-28.44242017 32.41986938 -28.35442588 27.99883631 -26.0625 22.9375 C-23.52845765 18.45215675 -20.61432574 14.9575423 -15.4765625 13.49609375 C-11.5168432 12.8712211 -9.31073022 12.83246336 -5.625 14.5625 C-4.985625 15.078125 -4.34625 15.59375 -3.6875 16.125 C-3.6875 12.495 -3.6875 8.865 -3.6875 5.125 C-5.6675 4.465 -7.6475 3.805 -9.6875 3.125 C-9.6875 2.465 -9.6875 1.805 -9.6875 1.125 C-6.40621122 0.14295158 -3.41774479 -0.00912615 0 0 Z M-14.3125 17.25 C-18.44343607 22.88309464 -18.16219713 29.44048944 -17.6875 36.125 C-17.27507017 38.72933219 -16.68821171 40.64955524 -15.6875 43.125 C-12.45496204 45.28002531 -11.43599077 45.59356135 -7.6875 45.125 C-5.07469695 43.47990179 -4.60521852 41.90846979 -3.5 39 C-1.87431151 31.24671643 -2.2808463 25.31682448 -5.6875 18.125 C-8.79444936 16.05370043 -10.96009795 14.92910627 -14.3125 17.25 Z " fill="#052E61" transform="translate(682.6875,672.875)"/>
<path d="M0 0 C13.53 0 27.06 0 41 0 C41 6.6 41 13.2 41 20 C40.01 20 39.02 20 38 20 C37.60167969 18.87851562 37.60167969 18.87851562 37.1953125 17.734375 C36.84210938 16.74953125 36.48890625 15.7646875 36.125 14.75 C35.77695312 13.77546875 35.42890625 12.8009375 35.0703125 11.796875 C34.54050781 10.41242187 34.54050781 10.41242187 34 9 C33.77054687 8.26265625 33.54109375 7.5253125 33.3046875 6.765625 C31.63073254 4.12468083 31.63073254 4.12468083 25 3 C25.495 22.8 25.495 22.8 26 43 C28.64 43.33 31.28 43.66 34 44 C34 44.99 34 45.98 34 47 C24.76 47 15.52 47 6 47 C6 46.01 6 45.02 6 44 C10.455 43.505 10.455 43.505 15 43 C15 29.8 15 16.6 15 3 C8.35292148 5.14455472 8.35292148 5.14455472 6.4765625 8.0859375 C6.19554687 8.84132813 5.91453125 9.59671875 5.625 10.375 C5.32335937 11.16519531 5.02171875 11.95539062 4.7109375 12.76953125 C3.94759063 15.1644272 3.32206051 17.50403108 3 20 C2.01 20 1.02 20 0 20 C0 13.4 0 6.8 0 0 Z " fill="#052E61" transform="translate(340,674)"/>
<path d="M0 0 C1.69802847 0.94576799 3.37203367 1.93816037 5 3 C5.66 3 6.32 3 7 3 C7.33 2.01 7.66 1.02 8 0 C8.99 0 9.98 0 11 0 C11 6.6 11 13.2 11 20 C10.01 19.67 9.02 19.34 8 19 C6.71875 16.3828125 6.71875 16.3828125 5.5 13.125 C3.66523882 7.92302686 3.66523882 7.92302686 0 4 C-4.34060347 3.01986373 -6.73498354 2.50499356 -10.875 4.125 C-15.15524589 7.90168755 -15.32681694 12.55843694 -16 18 C-16.9118192 31.84512697 -16.9118192 31.84512697 -11.3125 44.0625 C-7.83552711 45.4720836 -4.64820913 45.61154951 -1 45 C3.27781994 43.06287399 5.166654 41.23410759 6.8125 36.9375 C7.22639841 35.6305844 7.62374499 34.31824597 8 33 C8.33 32.01 8.66 31.02 9 30 C9.99 30 10.98 30 12 30 C11.73118823 36.04826484 11.08176177 40.2379446 7 45 C1.8364255 48.74359151 -2.66871285 49.51895796 -9 49 C-16.13915571 47.01619921 -20.96960064 43.18213018 -25 37 C-28.2749499 30.21700768 -28.96564672 23.84243055 -26.875 16.5625 C-24.48807045 10.02632844 -20.49684692 3.82124008 -14.125 0.62109375 C-9.53711745 -0.71984986 -4.69899338 -0.71061072 0 0 Z " fill="#052E61" transform="translate(416,673)"/>
<path d="M0 0 C7.92 0 15.84 0 24 0 C24 0.99 24 1.98 24 3 C21.69 3.33 19.38 3.66 17 4 C17.33 16.87 17.66 29.74 18 43 C19.98 43.33 21.96 43.66 24 44 C24 44.99 24 45.98 24 47 C15.75 47 7.5 47 -1 47 C-0.67 46.01 -0.34 45.02 0 44 C3.465 43.505 3.465 43.505 7 43 C7 30.13 7 17.26 7 4 C4.36 3.67 1.72 3.34 -1 3 C-0.67 2.01 -0.34 1.02 0 0 Z " fill="#062E61" transform="translate(306,674)"/>
<path d="M0 0 C2.4375 0.8125 2.4375 0.8125 4.4375 2.8125 C4.8125 5.25 4.8125 5.25 4.4375 7.8125 C2.75 9.75 2.75 9.75 0.4375 10.8125 C-1.95513407 10.14478817 -3.78347385 9.59152615 -5.5625 7.8125 C-5.8607732 4.97890458 -5.91852594 3.37464622 -4.375 0.9375 C-2.5625 -0.1875 -2.5625 -0.1875 0 0 Z " fill="#052D61" transform="translate(504.5625,673.1875)"/>
<path d="M0 0 C2.3125 1.25 2.3125 1.25 3.3125 2.25 C3.625 4.625 3.625 4.625 3.3125 7.25 C1.625 9.1875 1.625 9.1875 -0.6875 10.25 C-3.08013407 9.58228817 -4.90847385 9.02902615 -6.6875 7.25 C-7 4.875 -7 4.875 -6.6875 2.25 C-4.33222347 -0.45420638 -3.50969299 -0.97944921 0 0 Z " fill="#052E60" transform="translate(592.6875,673.75)"/>
</svg>
