<svg xmlns="http://www.w3.org/2000/svg" width="1759.854" height="380.18" viewBox="0 0 1759.854 380.18">
  <g id="kv" transform="translate(-371.979 -201.037)">
    <g id="Group_3243" data-name="Group 3243">
      <g id="Group_128" data-name="Group 128" transform="translate(357.515 190.457)">
        <path id="Path_155" class="logo-element" data-name="Path 155" d="M80.906,72.745c9.016-15.158,17.9-30.447,27.18-45.474,13.721-22.084,32.668-22.345,46-.131q59,98.4,117.082,197.184c12.545,21.3,1.307,39.594-23.652,39.855-17.641.261-35.412.261-53.053.392H138.794c-37.895-.261-75.79-.653-113.554-.915l28.225-48.61c18.163-.261,36.2-.392,54.36-.653,18.163.131,36.327.131,54.621.261l35.8.784c7.971.131,10.715-2.352,6.142-10.062q-34.105-57.43-67.949-115.122c-3.659-6.142-6.534-5.358-9.8.131-5.75,9.8-11.63,19.6-17.379,29.4C99.723,104.106,90.315,88.425,80.906,72.745Z" transform="translate(130.042 0.167)" fill="#88898d"/>
        <path id="Path_156" class="logo-element" data-name="Path 156" d="M210.948,72.912c9.408,15.681,18.686,31.361,28.094,47.042,2.483,5.1,4.835,10.323,7.579,15.289,14.9,26.788,32.668,51.746,45.6,79.579-18.163-.131-36.327-.131-54.621-.261-9.016-15.158-18.033-30.316-26.918-45.474-9.278-15.811-17.118-32.407-28.878-46.65-5.227-13.721-13.59-25.481-22.606-39.332-25.22,42.6-49.655,83.761-74.091,124.792-3.528,6.011-2.091,8.363,4.835,8.494,11.5.131,22.868.653,34.367,1.045-9.147,15.681-18.294,31.492-27.572,47.173l-53.183-.392c-25.35-.261-36.457-17.9-23.913-39.332Q78.251,124.723,138.033,24.955c11.63-19.47,31.231-18.947,43.383.261C191.609,41.159,201.278,57.1,210.948,72.912Z" transform="translate(0 0)" fill="#03aeee"/>
        <path id="Path_157" class="logo-element" data-name="Path 157" d="M49.023,161.442c9.147-15.681,18.294-31.492,27.572-47.173C95.8,82.516,115.012,50.893,134.221,19.14c11.76,14.243,19.6,30.969,28.879,46.65C153.952,81.209,144.8,96.5,135.658,111.917l-28.225,48.61a188.8,188.8,0,0,0-22.214,37.895c49.394,0,96.828-.131,144.392.131,10.715.131,11.63-3.136,6.272-11.368-5.358-8.363-9.931-17.118-14.9-25.612h55.666c8.886,15.289,18.033,30.447,26.657,45.735,11.5,20.516,1.437,38.548-21.691,38.548q-118.193.392-236.385,0c-23,0-33.452-18.033-22.345-38.418C31.12,191.888,40.267,176.73,49.023,161.442Z" transform="translate(47.849 103.296)" fill="#f0394a"/>
      </g>
      <g id="Group_126" data-name="Group 126" transform="translate(-456 904)">
        <path id="Path_9304" class="logo-element" data-name="Path 9304" d="M48.711-162.445H23.223V0H48.711V-48.711L74.2-76.578,127.555,0h31.379L91.645-95.156l62.645-67.289H121.777L48.711-83.488ZM216.174-23.223V-73.066h70.8V-96.289h-70.8v-42.934h89.379v-23.223H190.686V0H307.819V-23.223ZM358.149-162.445H330.282L389.415-58V0H414.9V-58l59.246-104.445H446.282L402.216-84.734Z" transform="translate(1256 -467.91)" fill="#ec1a47"/>
        <path id="Path_9303" class="logo-element" data-name="Path 9303" d="M70.8,0H96.289l63.777-162.445H133.445L83.488-32.512,33.645-162.445H6.91Zm88.506,0h26.621l17.445-42.934h71.934L292.752,0h26.621L252.084-162.445H226.6ZM239.4-133.445l26.621,67.289H212.662ZM457.837,0V-23.223H378.993V-162.445H353.5V0Zm93.207-20.844q-17.389,0-30.133-12.971a42.8,42.8,0,0,1-12.744-31.1v-97.535h-25.6V-64.91q0,27.754,19.994,47.465T551.044,2.266q28.49,0,48.484-19.654T619.523-64.91v-97.535h-25.6V-64.91a42.852,42.852,0,0,1-12.744,31.039Q568.433-20.844,551.044-20.844Zm144.184-2.379V-73.066h70.8V-96.289h-70.8v-42.934h89.379v-23.223H669.74V0H786.872V-23.223Z" transform="translate(1753 -467.91)" fill="#03aeee"/>
      </g>
    </g>
  </g>
</svg>
