<?xml version="1.0" encoding="UTF-8"?>
<svg version="1.1" xmlns="http://www.w3.org/2000/svg" width="1000" height="1000">
<path d="M0 0 C0.7752301 -0.00067474 1.55046021 -0.00134949 2.34918213 -0.00204468 C15.18852875 0.01564493 27.6290155 0.72531048 40.25 3.25 C41.11689453 3.42160645 41.98378906 3.59321289 42.87695312 3.77001953 C92.48087723 13.92122492 137.90868516 41.38604691 169.25 81.25 C170.00539063 82.15363281 170.76078125 83.05726563 171.5390625 83.98828125 C197.83196308 116.31912806 215.21279976 161.15790967 215.453125 203.04296875 C215.46018463 203.86279739 215.46724426 204.68262604 215.47451782 205.52729797 C215.70138138 239.62110318 215.70138138 239.62110318 212.25 255.25 C211.95198486 256.65378906 211.95198486 256.65378906 211.64794922 258.0859375 C207.20363597 278.59303084 200.21166571 297.7922019 190.25 316.25 C189.63640625 317.405 189.0228125 318.56 188.390625 319.75 C161.79714478 368.10178222 115.48278339 405.04785589 62.68359375 420.98046875 C46.02293845 425.77349768 28.97032005 429.34968668 11.578125 429.453125 C10.78195267 429.46018463 9.98578033 429.46724426 9.16548157 429.47451782 C-24.01630808 429.70192176 -24.01630808 429.70192176 -39.75 426.25 C-41.15596436 425.95198486 -41.15596436 425.95198486 -42.59033203 425.64794922 C-63.11595791 421.19889734 -82.25849423 414.17077987 -100.75 404.25 C-101.72912354 403.73832275 -101.72912354 403.73832275 -102.72802734 403.21630859 C-127.81381306 390.08312597 -150.41027502 370.59827442 -167.75 348.25 C-168.46542969 347.35152344 -169.18085938 346.45304687 -169.91796875 345.52734375 C-183.54719963 327.9902626 -194.21352557 308.12180478 -201.75 287.25 C-202.12487549 286.21746094 -202.12487549 286.21746094 -202.50732422 285.1640625 C-210.52543587 262.6299656 -213.98130283 239.33160877 -214 215.5 C-214.00067474 214.7247699 -214.00134949 213.94953979 -214.00204468 213.15081787 C-213.92186228 154.9533864 -190.19207865 104.16474719 -150.75 62.25 C-150.13382812 61.59128906 -149.51765625 60.93257813 -148.8828125 60.25390625 C-110.75679955 20.75973494 -54.09788449 0.04244269 0 0 Z M-15.27661133 28.30786133 C-18.62147451 28.53069826 -20.36393325 28.85941784 -22.75390625 31.27734375 C-23.26824219 32.23769531 -23.78257812 33.19804687 -24.3125 34.1875 C-24.62437256 34.74542236 -24.93624512 35.30334473 -25.25756836 35.87817383 C-25.99859538 37.20399654 -26.72816861 38.5362546 -27.44921875 39.87304688 C-29.52727842 43.67034211 -31.72214518 47.39913128 -33.89819336 51.14086914 C-35.85999555 54.51929216 -37.8087118 57.9049589 -39.75390625 61.29296875 C-43.57646047 67.95079267 -47.41185863 74.60115198 -51.25 81.25 C-52.50006112 83.41663141 -53.750061 85.58329814 -55 87.75 C-57.5 92.08333333 -60 96.41666667 -62.5 100.75 C-63.11883057 101.82266113 -63.73766113 102.89532227 -64.37524414 104.00048828 C-65.62435518 106.16557071 -66.87354129 108.33060982 -68.12280273 110.49560547 C-71.26202309 115.93615706 -74.39990563 121.37747216 -77.53515625 126.8203125 C-83.71054834 137.53840269 -89.89807214 148.24924993 -96.125 158.9375 C-96.70145264 159.92717773 -97.27790527 160.91685547 -97.87182617 161.93652344 C-100.42719642 166.31294093 -102.99691771 170.67851164 -105.625 175.01171875 C-106.05248535 175.71659424 -106.4799707 176.42146973 -106.92041016 177.14770508 C-107.69694529 178.42236216 -108.47756965 179.69454141 -109.26318359 180.96362305 C-111.17275426 183.89128393 -111.17275426 183.89128393 -111.75 187.25 C-74.46 187.25 -37.17 187.25 1.25 187.25 C-4.74119547 198.03415185 -10.72862968 208.73947407 -17.0625 219.3125 C-18.41395117 221.57350744 -19.76423768 223.83521148 -21.11328125 226.09765625 C-21.98400269 227.5518396 -21.98400269 227.5518396 -22.87231445 229.03540039 C-25.22904697 233.07012892 -27.48078319 237.16540975 -29.75 241.25 C-77.93 241.58 -126.11 241.91 -175.75 242.25 C-166.0665869 225.30402707 -156.37361152 208.36657895 -146.60888672 191.46777344 C-143.48675395 186.06329355 -140.36858796 180.65652588 -137.25 175.25 C-136.00001878 173.0833225 -134.75001879 170.91665583 -133.5 168.75 C-132.88125 167.6775 -132.2625 166.605 -131.625 165.5 C-129.75 162.25 -127.875 159 -126 155.75 C-125.38116943 154.67733887 -124.76233887 153.60467773 -124.12475586 152.49951172 C-122.87564482 150.33442929 -121.62645871 148.16939018 -120.37719727 146.00439453 C-117.23797691 140.56384294 -114.10009437 135.12252784 -110.96484375 129.6796875 C-104.9425265 119.22793764 -98.90325836 108.78703298 -92.8125 98.375 C-86.98762116 88.41470576 -81.25044061 78.40582777 -75.53540039 68.38232422 C-69.98352087 58.64631252 -64.38239239 48.9396242 -58.75 39.25 C-59.74 38.755 -59.74 38.755 -60.75 38.25 C-63.66932149 39.28892606 -66.47177685 40.3990505 -69.3125 41.625 C-70.16368408 41.99004639 -71.01486816 42.35509277 -71.8918457 42.73120117 C-92.29897112 51.63127507 -110.37496987 63.14244456 -126.75 78.25 C-127.32991699 78.78463867 -127.90983398 79.31927734 -128.50732422 79.87011719 C-158.17608727 107.582788 -175.67764322 143.86187075 -183.75 183.25 C-183.89840332 183.96800781 -184.04680664 184.68601562 -184.19970703 185.42578125 C-188.25669174 206.2995348 -187.10185447 230.53199326 -182.75 251.25 C-182.56195801 252.15057129 -182.37391602 253.05114258 -182.18017578 253.97900391 C-174.85854764 287.63985437 -158.65960504 318.42955287 -134.75 343.25 C-134.24243164 343.78334961 -133.73486328 344.31669922 -133.21191406 344.86621094 C-120.71329814 357.94853338 -107.32723747 368.0873713 -91.75 377.25 C-91.14462402 377.60835937 -90.53924805 377.96671875 -89.91552734 378.3359375 C-71.48974421 389.09906309 -50.02300554 396.96645703 -28.75 399.25 C-28.13294189 398.1662207 -28.13294189 398.1662207 -27.50341797 397.06054688 C-20.30589999 384.42548066 -13.09813002 371.79829585 -5.75 359.25 C-0.71807407 350.65484107 4.25374932 342.02679765 9.1875 333.375 C19.12473339 315.95148209 29.13287597 298.56979736 39.25 281.25 C44.04776655 273.03441038 48.83713979 264.81403747 53.60205078 256.5793457 C54.60955896 254.83916988 55.61921615 253.10023885 56.62890625 251.36132812 C57.23347656 250.31525391 57.83804688 249.26917969 58.4609375 248.19140625 C59.26990479 246.79450562 59.26990479 246.79450562 60.09521484 245.36938477 C61.32974253 243.50590969 61.32974253 243.50590969 61.25 242.25 C41.12 242.25 20.99 242.25 0.25 242.25 C11.7393617 221.56914894 11.7393617 221.56914894 17.4375 211.875 C18.00146484 210.91207031 18.56542969 209.94914063 19.14648438 208.95703125 C20.24503187 207.08133987 21.356218 205.21296296 22.48299313 203.35409164 C24.29502072 200.30027067 24.29502072 200.30027067 25.61363316 197.11078262 C29.43340116 188.92412559 29.43340116 188.92412559 34.21491814 187.14974213 C37.98691449 186.7297424 41.66274905 186.69745341 45.44702148 186.79589844 C46.88649166 186.78941405 48.32594624 186.77765157 49.76533508 186.7610321 C53.65881109 186.73094465 57.54836021 186.77438421 61.44140506 186.83134365 C65.51471587 186.87833749 69.58767088 186.85729745 73.66114807 186.84356689 C81.36807737 186.82787891 89.07338926 186.87310719 96.77999216 186.94038892 C105.55632319 187.01403159 114.33228637 187.01951499 123.10887802 187.01935911 C141.15655247 187.02056117 159.20291931 187.10707864 177.25 187.25 C176.79247849 188.02128738 176.33495697 188.79257477 175.86357117 189.5872345 C174.13169654 192.52099286 172.41182678 195.46118034 170.69902039 198.40608215 C169.96296157 199.66640376 169.22254405 200.92419236 168.47727966 202.17909241 C163.77041749 210.11279019 160.04056395 217.80611285 157.25175476 226.61354065 C155.33432732 231.97273793 153.07657737 236.98112632 148.28430176 240.32580566 C138.01456401 244.99140329 123.1113803 242.65637299 112.21606445 241.72729492 C101.27827276 240.38053761 101.27827276 240.38053761 91.27093506 243.69229126 C87.86157141 247.62798762 85.96123569 252.16921298 84.14028931 257.00161743 C82.83626046 260.29487918 81.09315288 263.15630434 79.265625 266.19140625 C78.00958064 268.39796181 76.75438292 270.60499952 75.5 272.8125 C70.40575613 281.75987249 65.26755448 290.67894369 60.0625 299.5625 C55.00456635 308.19731884 50.04825819 316.88392322 45.14379883 325.60668945 C41.24478807 332.52691703 37.26597223 339.39707182 33.25 346.25 C28.06993847 355.09003576 22.9837877 363.97777506 17.9621582 372.90869141 C13.87481312 380.17101083 9.71505584 387.38886888 5.49926758 394.57739258 C3.27593733 397.73245491 3.27593733 397.73245491 2.25 401.25 C46.60999748 402.9227932 91.78205889 384.55727 124.47070312 354.90039062 C140.01714835 340.48025208 152.50850956 325.51143488 163.25 307.25 C163.60835937 306.64462402 163.96671875 306.03924805 164.3359375 305.41552734 C173.93590986 288.9809882 180.21977312 270.80388363 184.25 252.25 C184.49556641 251.15776123 184.49556641 251.15776123 184.74609375 250.04345703 C189.67942472 227.12487296 189.42463126 200.09044204 184.25 177.25 C184.07307617 176.45787109 183.89615234 175.66574219 183.71386719 174.84960938 C175.70857271 140.03556535 158.82797885 109.9983588 134.25 84.25 C133.44949219 83.39664063 132.64898438 82.54328125 131.82421875 81.6640625 C103.42149582 52.19216996 64.33590871 35.0098218 24.25 29.25 C23.54383545 29.1454248 22.8376709 29.04084961 22.11010742 28.93310547 C15.15396447 28.02379525 8.19204652 28.10286873 1.1875 28.125 C-0.04033203 28.12113281 -1.26816406 28.11726563 -2.53320312 28.11328125 C-6.78354402 28.11785889 -11.02771585 28.21055838 -15.27661133 28.30786133 Z " fill="#004E8A" transform="translate(499.75,285.75)"/>
</svg>
