<?xml version="1.0" encoding="UTF-8"?>
<svg version="1.1" xmlns="http://www.w3.org/2000/svg" width="100" height="100">
<path d="M0 0 C33 0 66 0 100 0 C100 33 100 66 100 100 C67 100 34 100 0 100 C0 67 0 34 0 0 Z " fill="#090B17" transform="translate(0,0)"/>
<path d="M0 0 C1.65 0 3.3 0 5 0 C5 4.62 5 9.24 5 14 C2.69 14 0.38 14 -2 14 C-2 11.36 -2 8.72 -2 6 C-3.32 6 -4.64 6 -6 6 C-6 8.64 -6 11.28 -6 14 C-6.99 14 -7.98 14 -9 14 C-9 11.36 -9 8.72 -9 6 C-10.32 6 -11.64 6 -13 6 C-13 8.64 -13 11.28 -13 14 C-13.99 14 -14.98 14 -16 14 C-16 10.37 -16 6.74 -16 3 C-10.72 3 -5.44 3 0 3 C0 2.01 0 1.02 0 0 Z " fill="#C4C4CB" transform="translate(30,41)"/>
<path d="M0 0 C0.99 0 1.98 0 3 0 C3 1.32 3 2.64 3 4 C4.94603274 4.59070014 4.94603274 4.59070014 7 5 C7.33 4.67 7.66 4.34 8 4 C10.4375 3.75 10.4375 3.75 13 4 C13.99 5.485 13.99 5.485 15 7 C13.35 7 11.7 7 10 7 C11.65 7.99 13.3 8.98 15 10 C14.125 13.875 14.125 13.875 13 15 C11.33388095 15.042721 9.66617115 15.04063832 8 15 C7.34 15 6.68 15 6 15 C1.17647059 14.17647059 1.17647059 14.17647059 0 13 C-0.07258946 10.81360547 -0.08373783 8.62499611 -0.0625 6.4375 C-0.05347656 5.23996094 -0.04445312 4.04242188 -0.03515625 2.80859375 C-0.02355469 1.88175781 -0.01195312 0.95492187 0 0 Z " fill="#D4D5DA" transform="translate(36,40)"/>
<path d="M0 0 C2.875 0.6875 2.875 0.6875 3.875 1.6875 C4.125 5.125 4.125 5.125 3.875 8.6875 C0.875 10.6875 0.875 10.6875 -2.25 10.375 C-5.125 9.6875 -5.125 9.6875 -6.125 8.6875 C-6.375 5.25 -6.375 5.25 -6.125 1.6875 C-3.125 -0.3125 -3.125 -0.3125 0 0 Z " fill="#DADADE" transform="translate(58.125,44.3125)"/>
<path d="M0 0 C1.66611905 -0.042721 3.33382885 -0.04063832 5 0 C6.80746134 1.80746134 6.17303483 4.50445781 6.1875 6.9375 C6.20167969 8.01902344 6.21585938 9.10054687 6.23046875 10.21484375 C6 13 6 13 4 15 C0.875 15.125 0.875 15.125 -2 15 C-2.33 14.01 -2.66 13.02 -3 12 C-1.02 11.67 0.96 11.34 3 11 C2.195625 10.773125 1.39125 10.54625 0.5625 10.3125 C-0.7059375 9.6628125 -0.7059375 9.6628125 -2 9 C-2.8125 6.375 -2.8125 6.375 -3 4 C-2.34 4.66 -1.68 5.32 -1 6 C0.32 6 1.64 6 3 6 C2.42655063 3.13275314 2.1385485 2.1385485 0 0 Z " fill="#E2E3E6" transform="translate(67,45)"/>
<path d="M0 0 C1.65 0 3.3 0 5 0 C5 4.62 5 9.24 5 14 C3.35 14 1.7 14 0 14 C-0.19627391 12.41773035 -0.38165538 10.83410729 -0.5625 9.25 C-0.66691406 8.36828125 -0.77132813 7.4865625 -0.87890625 6.578125 C-0.99456676 4.11567549 -0.73638695 2.33461936 0 0 Z " fill="#414249" transform="translate(30,41)"/>
<path d="M0 0 C0.33 0.99 0.66 1.98 1 3 C2.65614657 3.38218767 4.32457024 3.71395102 6 4 C6.33 3.67 6.66 3.34 7 3 C9.4375 2.75 9.4375 2.75 12 3 C12.99 4.485 12.99 4.485 14 6 C12.35 6 10.7 6 9 6 C10.65 6.99 12.3 7.98 14 9 C13.67 10.32 13.34 11.64 13 13 C11.68 12.67 10.36 12.34 9 12 C9.99 12 10.98 12 12 12 C12 11.34 12 10.68 12 10 C11.21625 9.87625 10.4325 9.7525 9.625 9.625 C7 9 7 9 5 7 C2.93125966 6.3574765 2.93125966 6.3574765 1 6 C1 7.65 1 9.3 1 11 C0.67 11 0.34 11 0 11 C0 7.37 0 3.74 0 0 Z " fill="#D6D7DA" transform="translate(37,41)"/>
<path d="M0 0 C2.375 -0.125 2.375 -0.125 5 0 C7 2 7 2 7.3125 4.4375 C7 7 7 7 5.8125 8.8125 C3.3864306 10.40199375 1.84602594 10.36487512 -1 10 C-3 8 -3 8 -3.125 5.375 C-3.08375 4.59125 -3.0425 3.8075 -3 3 C-2.34 2.67 -1.68 2.34 -1 2 C-0.67 3.32 -0.34 4.64 0 6 C1.32 6.33 2.64 6.66 4 7 C3.72965366 4.56282742 3.72965366 4.56282742 3 2 C2.01 1.34 1.02 0.68 0 0 Z " fill="#EDF0F3" transform="translate(78,45)"/>
<path d="M0 0 C0 2.66666667 0 5.33333333 0 8 C-1.65 7.67 -3.3 7.34 -5 7 C-5.33 6.01 -5.66 5.02 -6 4 C-6.66 6.64 -7.32 9.28 -8 12 C-8.33 12 -8.66 12 -9 12 C-9.621881 3.76007678 -9.621881 3.76007678 -7.3125 0.9375 C-4.69914404 -0.12196863 -2.79491785 -0.23290982 0 0 Z " fill="#B1B2B7" transform="translate(82,44)"/>
<path d="M0 0 C0.598125 0.226875 1.19625 0.45375 1.8125 0.6875 C1.8125 1.3475 1.8125 2.0075 1.8125 2.6875 C2.12728446 4.02533393 2.45837656 5.35953709 2.8125 6.6875 C0.04985711 7.28482819 -2.34782769 7.6875 -5.1875 7.6875 C-5.41803497 4.84423536 -5.54653101 3.22604651 -3.9375 0.8125 C-2.1875 -0.3125 -2.1875 -0.3125 0 0 Z " fill="#D5D5DA" transform="translate(68.1875,44.3125)"/>
<path d="M0 0 C0.99 0 1.98 0 3 0 C3 3.63 3 7.26 3 11 C2.01 11 1.02 11 0 11 C0 7.37 0 3.74 0 0 Z " fill="#DBDCDE" transform="translate(32,44)"/>
<path d="M0 0 C3.87132028 0.57352893 6.08172796 2.48704352 9 5 C6.03 5 3.06 5 0 5 C0 3.35 0 1.7 0 0 Z " fill="#121219" transform="translate(39,47)"/>
<path d="M0 0 C0.66 0 1.32 0 2 0 C2.1875 2.375 2.1875 2.375 2 5 C-1 7 -1 7 -3.6875 6.625 C-4.450625 6.41875 -5.21375 6.2125 -6 6 C-5.38125 5.7525 -4.7625 5.505 -4.125 5.25 C-1.64931313 3.79371361 -1.04874998 2.62187494 0 0 Z " fill="#EBEBEF" transform="translate(60,48)"/>
<path d="M0 0 C0.268125 0.61875 0.53625 1.2375 0.8125 1.875 C1.95556848 4.2995233 1.95556848 4.2995233 5 6 C5.33 6.66 5.66 7.32 6 8 C3.625 8.125 3.625 8.125 1 8 C-1 6 -1 6 -1.1875 3.4375 C-1 1 -1 1 0 0 Z " fill="#E0E0E6" transform="translate(76,47)"/>
<path d="M0 0 C1.32 0 2.64 0 4 0 C4 1.65 4 3.3 4 5 C2.35 4.67 0.7 4.34 -1 4 C-0.67 2.68 -0.34 1.36 0 0 Z " fill="#181A20" transform="translate(78,47)"/>
<path d="M0 0 C1.98 0.495 1.98 0.495 4 1 C3.67 2.32 3.34 3.64 3 5 C1.68 5 0.36 5 -1 5 C-0.67 3.35 -0.34 1.7 0 0 Z " fill="#14141A" transform="translate(67,47)"/>
<path d="M0 0 C0.99 0 1.98 0 3 0 C2.67 3.3 2.34 6.6 2 10 C1.34 10 0.68 10 0 10 C0 6.7 0 3.4 0 0 Z " fill="#FAFBFD" transform="translate(15,45)"/>
<path d="M0 0 C0 1.32 0 2.64 0 4 C-3.85645121 4.22036864 -6.49223216 3.60355101 -10 2 C-6.5980513 -0.09350689 -3.94727588 -0.17942163 0 0 Z " fill="#BABAC0" transform="translate(49,51)"/>
<path d="M0 0 C0.99 0.33 1.98 0.66 3 1 C3 3.97 3 6.94 3 10 C2.34 10 1.68 10 1 10 C0.67 6.7 0.34 3.4 0 0 Z " fill="#F9F9FC" transform="translate(27,45)"/>
<path d="M0 0 C1.32 0 2.64 0 4 0 C4 1.65 4 3.3 4 5 C2.68 5 1.36 5 0 5 C0 3.35 0 1.7 0 0 Z " fill="#131418" transform="translate(55,47)"/>
<path d="M0 0 C1.5625 1.25 1.5625 1.25 3 3 C2.6875 5.1875 2.6875 5.1875 2 7 C0.68 6.67 -0.64 6.34 -2 6 C-1.34 4.02 -0.68 2.04 0 0 Z " fill="#11121A" transform="translate(74,52)"/>
<path d="M0 0 C2.31 0.66 4.62 1.32 7 2 C6.67 2.66 6.34 3.32 6 4 C3.69 4 1.38 4 -1 4 C-0.67 2.68 -0.34 1.36 0 0 Z " fill="#191A1F" transform="translate(64,53)"/>
<path d="M0 0 C1.32 0 2.64 0 4 0 C3.67 1.32 3.34 2.64 3 4 C2.34 4 1.68 4 1 4 C0.67 5.32 0.34 6.64 0 8 C0 5.36 0 2.72 0 0 Z " fill="#33333A" transform="translate(17,47)"/>
<path d="M0 0 C2.97 0.495 2.97 0.495 6 1 C6.33 1.99 6.66 2.98 7 4 C6.34 4 5.68 4 5 4 C4.67 4.99 4.34 5.98 4 7 C4 5.68 4 4.36 4 3 C3.01 2.67 2.02 2.34 1 2 C0.67 1.34 0.34 0.68 0 0 Z " fill="#C4C4C9" transform="translate(55,44)"/>
<path d="M0 0 C0.33 0.99 0.66 1.98 1 3 C1.99 3 2.98 3 4 3 C4 3.66 4 4.32 4 5 C3.01 5.495 3.01 5.495 2 6 C1.34444881 8.52733235 1.34444881 8.52733235 1 11 C0.67 11 0.34 11 0 11 C0 7.37 0 3.74 0 0 Z " fill="#F6F7F9" transform="translate(37,41)"/>
</svg>
