<svg width="167" height="31" viewBox="0 0 167 31" fill="none" xmlns="http://www.w3.org/2000/svg">
<path d="M10.5952 7.33267L6.28186 11.6813C5.958 12.0078 5.77626 12.4504 5.77661 12.9118C5.77697 13.3732 5.95939 13.8156 6.28376 14.1416C6.60812 14.4676 7.04785 14.6506 7.50621 14.6502C7.96457 14.6499 8.40402 14.4663 8.72788 14.1397L13.041 9.79114C13.1364 9.69574 13.2652 9.64202 13.3997 9.64165C13.5341 9.64129 13.6632 9.6943 13.7591 9.78918C13.8541 9.88518 13.9075 10.0151 13.9075 10.1507C13.9076 10.2862 13.8543 10.4162 13.7594 10.5123L9.44622 14.8615C9.12235 15.1881 8.94062 15.6308 8.941 16.0922C8.94138 16.5536 9.12384 16.996 9.44824 17.322C9.77265 17.6481 10.2124 17.831 10.6708 17.8306C11.1292 17.8302 11.5687 17.6466 11.8925 17.32L16.2052 12.9701C16.3003 12.8742 16.4294 12.8202 16.564 12.8201C16.6986 12.82 16.8277 12.8736 16.923 12.9694C17.0183 13.0651 17.0719 13.195 17.072 13.3305C17.0722 13.466 17.0188 13.596 16.9237 13.6919L12.6097 18.0424C12.2862 18.3691 12.1048 18.8118 12.1055 19.273C12.1061 19.7343 12.2886 20.1765 12.613 20.5023C12.9373 20.8281 13.377 21.0109 13.8352 21.0105C14.2934 21.0102 14.7327 20.8266 15.0566 20.5003L19.3683 16.1517C19.4115 16.1076 19.4513 16.0641 19.4883 16.0187C19.9601 15.5004 20.2871 14.8657 20.4363 14.1791C20.5855 13.4924 20.5514 12.7783 20.3377 12.1091C20.1239 11.44 19.738 10.8398 19.2191 10.3694C18.7003 9.89897 18.0671 9.57519 17.3837 9.43092L17.2926 9.41179L17.2733 9.32092C17.1296 8.63359 16.8079 7.99678 16.3406 7.47516C15.8734 6.95354 15.2773 6.5657 14.613 6.35104C13.9486 6.13639 13.2397 6.10256 12.5581 6.25299C11.8766 6.40342 11.2468 6.73276 10.7326 7.20755C10.6817 7.2497 10.6379 7.29053 10.5952 7.33268" fill="url(#paint0_linear_720_1882)"/>
<path d="M26.1447 15.6883C26.3052 15.5266 26.4325 15.3347 26.5193 15.1235C26.6061 14.9123 26.6507 14.6859 26.6506 14.4574C26.6504 14.2288 26.6056 14.0025 26.5185 13.7914C26.4314 13.5803 26.3039 13.3885 26.1432 13.227C25.9825 13.0656 25.7917 12.9376 25.5818 12.8504C25.3719 12.7631 25.147 12.7184 24.92 12.7187C24.6929 12.719 24.4681 12.7644 24.2585 12.8522C24.0488 12.94 23.8584 13.0686 23.6982 13.2305L15.7708 21.2237C15.1015 21.8989 14.3066 22.4348 13.4315 22.8007C12.5564 23.1667 11.6182 23.3555 10.6706 23.3564C9.72298 23.3573 8.78447 23.1703 7.90868 22.806C7.03288 22.4417 6.23696 21.9073 5.56636 21.2333C4.89577 20.5594 4.36364 19.759 4.00038 18.8779C3.63712 17.9969 3.44983 17.0525 3.44922 16.0985C3.44861 15.1446 3.63469 14.2 3.99683 13.3185C4.35897 12.437 4.89007 11.6359 5.55981 10.961L13.4877 2.96788C13.8111 2.64121 13.9924 2.19868 13.9917 1.73754C13.9911 1.2764 13.8087 0.834368 13.4845 0.508564C13.1603 0.182761 12.7209 -0.00015865 12.2628 1.03248e-07C11.8047 0.000158856 11.3654 0.183384 11.0414 0.509413L4.9906 6.61178L5.25884 5.09704C5.29875 4.87218 5.29424 4.64161 5.24558 4.4185C5.19691 4.19539 5.10504 3.98412 4.97521 3.79677C4.84538 3.60943 4.68015 3.44968 4.48895 3.32666C4.29775 3.20364 4.08434 3.11977 3.86092 3.07983C3.85322 3.07852 3.84652 3.0772 3.83868 3.07588C3.3903 3.00111 2.93071 3.10727 2.55956 3.37135C2.18841 3.63542 1.93563 4.03612 1.85602 4.48656L0.241882 13.6019C0.224239 13.7055 0.216189 13.8104 0.217833 13.9154V13.9299L0.214886 13.9437C-0.243074 16.2059 0.0352704 18.5565 1.00866 20.6469C1.98205 22.7373 3.59867 24.4564 5.61889 25.5493C7.6391 26.6421 9.95536 27.0506 12.2243 26.7142C14.4933 26.3778 16.5942 25.3143 18.2155 23.6815L26.1447 15.6883Z" fill="url(#paint1_linear_720_1882)"/>
<path d="M3.72052 29.1486C4.89635 29.9761 6.39827 30.4535 7.78704 30.7361C11.2018 31.4302 14.6462 30.7041 17.7279 29.1486C18.9718 28.5196 17.8787 26.645 16.6365 27.2713C13.9772 28.6144 10.9851 29.2111 8.04808 28.5739C6.82257 28.3079 5.8165 27.9805 4.81046 27.2713C3.66572 26.4671 2.5882 28.3513 3.72052 29.1486Z" fill="url(#paint2_linear_720_1882)"/>
<path fill-rule="evenodd" clip-rule="evenodd" d="M146.881 13.6115C146.881 11.7899 146.875 9.9702 146.884 8.14727C146.889 6.82551 147.569 6.04771 148.691 6.04444C149.802 6.04178 150.502 6.8354 150.503 8.15453C150.513 11.8281 150.513 15.5018 150.503 19.1758C150.502 20.5154 149.749 21.3722 148.634 21.3455C147.557 21.3215 146.888 20.4996 146.883 19.1705C146.877 17.3166 146.881 15.4641 146.881 13.6115Z" fill="#2B2D32"/>
<path fill-rule="evenodd" clip-rule="evenodd" d="M101.138 19.1762C101.143 19.0853 101.146 18.9898 101.146 18.887C101.148 16.6828 101.169 14.4779 101.137 12.2743C101.109 10.4342 100.729 8.67909 99.2334 7.45019C97.1392 5.73129 94.6986 5.71679 92.2821 6.43994C91.2442 6.75211 90.2662 7.4357 89.4088 8.14171C89.3941 8.15291 89.3172 8.2194 89.3172 8.22072C89.0446 8.4697 88.8532 8.79594 88.7683 9.15651C88.6835 9.51708 88.709 9.89507 88.8417 10.2407C88.9744 10.5864 89.2079 10.8835 89.5116 11.0929C89.8152 11.3024 90.1748 11.4144 90.5429 11.4141C90.9891 11.4141 91.3211 11.2324 91.7454 10.9236C93.2187 9.85071 96.0338 8.57767 97.4911 11.2765C97.5611 11.4069 97.5706 12.9223 97.4826 12.9236C97.0581 12.9236 96.6249 12.917 96.2511 12.9243C94.8873 12.9513 93.5167 12.9059 92.1628 13.0316C89.6924 13.2595 88.1039 14.8605 88.0718 17.018C88.0368 19.2815 89.6472 20.9658 92.1219 21.2793C94.1542 21.5342 95.9521 21.0323 97.4839 19.6345C97.502 19.6734 97.5196 19.707 97.5382 19.7439C97.622 20.1935 97.8695 20.5956 98.2323 20.8711C98.5951 21.1467 99.0471 21.276 99.4996 21.2336C99.9522 21.1912 100.373 20.9803 100.679 20.6421C100.985 20.3039 101.155 19.8628 101.154 19.4053C101.154 19.3287 101.148 19.2522 101.138 19.1762ZM96.0881 18.212C95.0018 18.922 93.8265 19.024 92.6577 18.4451C91.9655 18.1033 91.6636 17.4685 91.7585 16.6973C91.8589 15.9116 92.3407 15.3735 93.1081 15.3037C94.5177 15.1773 95.9347 15.1588 97.4578 15.0884C97.5648 16.5294 97.128 17.5317 96.0881 18.212Z" fill="#2B2D32"/>
<path fill-rule="evenodd" clip-rule="evenodd" d="M143.912 19.1762C143.917 19.0853 143.921 18.9898 143.921 18.887C143.923 16.6828 143.943 14.4779 143.911 12.2743C143.884 10.4342 143.503 8.67909 142.007 7.45019C139.914 5.73129 137.473 5.71679 135.056 6.43994C134.018 6.75211 133.04 7.4357 132.183 8.14171C132.169 8.15291 132.092 8.2194 132.092 8.22072C131.819 8.46972 131.628 8.796 131.543 9.1566C131.458 9.5172 131.484 9.89521 131.616 10.2409C131.749 10.5865 131.983 10.8837 132.286 11.0931C132.59 11.3025 132.95 11.4144 133.318 11.4141C133.763 11.4141 134.095 11.2324 134.521 10.9236C135.993 9.85071 138.808 8.57767 140.266 11.2765C140.337 11.4069 140.346 12.9223 140.257 12.9236C139.832 12.9236 139.401 12.917 139.026 12.9243C137.661 12.9513 136.292 12.9059 134.938 13.0316C132.467 13.2595 130.879 14.8605 130.847 17.018C130.812 19.2815 132.423 20.9658 134.897 21.2793C136.929 21.5342 138.727 21.0323 140.26 19.6345C140.278 19.6734 140.294 19.707 140.313 19.7439C140.397 20.1935 140.644 20.5955 141.007 20.8711C141.37 21.1467 141.822 21.276 142.274 21.2336C142.727 21.1912 143.147 20.9803 143.453 20.6421C143.759 20.3039 143.929 19.8628 143.929 19.4053C143.928 19.3287 143.923 19.2521 143.912 19.1762ZM138.862 18.212C137.776 18.922 136.601 19.024 135.433 18.4451C134.741 18.1033 134.438 17.4685 134.534 16.6973C134.634 15.9116 135.116 15.3735 135.883 15.3037C137.292 15.1773 138.709 15.1588 140.233 15.0884C140.339 16.5294 139.903 17.5317 138.862 18.212Z" fill="#2B2D32"/>
<path fill-rule="evenodd" clip-rule="evenodd" d="M70.5512 6.09604C69.6489 6.09604 69.2024 6.47212 68.8118 7.30654C68.7138 7.45274 66.0509 13.1435 64.6412 16.1242C62.8575 12.1029 61.802 9.4851 60.8642 7.36844C60.8412 7.32019 60.8149 7.27355 60.7857 7.22881C60.6897 6.99486 60.5467 6.78341 60.3657 6.60775C60.1846 6.43209 59.9695 6.29602 59.7337 6.20809C59.4979 6.12015 59.2466 6.08225 58.9956 6.09677C58.7445 6.11129 58.4992 6.17792 58.2749 6.29246C58.0507 6.40699 57.8524 6.56697 57.6926 6.76235C57.5327 6.95772 57.4147 7.18426 57.346 7.42774C57.2773 7.67122 57.2593 7.92638 57.2932 8.17718C57.3272 8.42799 57.4122 8.66902 57.5432 8.88513C57.5528 8.90687 57.5594 8.92859 57.5692 8.95034C59.1571 12.6199 62.5601 20.507 62.5601 20.507C61.3809 22.7917 61.3781 23.3874 59.0221 23.0307C58.9334 23.0183 58.8434 23.0188 58.755 23.0324C58.4245 23.0392 58.102 23.1363 57.8222 23.3134C57.5424 23.4905 57.3156 23.7409 57.1663 24.0378C57.017 24.3346 56.9507 24.6668 56.9745 24.9987C56.9983 25.3306 57.1113 25.6497 57.3014 25.9219C57.5137 26.2446 57.8295 26.4843 58.1961 26.6009C58.233 26.6131 58.27 26.6249 58.3081 26.6354C58.3479 26.647 58.3844 26.6628 58.4267 26.672C60.3953 27.1287 62.5443 26.8492 63.9096 25.3223C64.7039 24.4338 65.2142 23.4318 65.7353 22.354C67.4289 18.8507 68.9703 15.432 70.6382 11.9883C71.18 10.8701 72.2344 8.65992 72.2581 8.57626C72.362 8.29859 72.3975 7.99968 72.3614 7.70519C72.3253 7.4107 72.2187 7.12943 72.0509 6.88552C71.883 6.64161 71.6588 6.44234 71.3976 6.30483C71.1364 6.16733 70.846 6.09568 70.5512 6.09604Z" fill="#2B2D32"/>
<path d="M84.7009 15.1298C84.3662 15.13 84.0379 15.2229 83.7521 15.3985C83.4664 15.574 83.2341 15.8253 83.0809 16.1249C82.574 16.7655 81.8812 17.2309 81.0991 17.4562C80.317 17.6815 79.4845 17.6555 78.7178 17.3818C77.951 17.1082 77.2882 16.6005 76.8217 15.9295C76.3553 15.2586 76.1084 14.4579 76.1156 13.639C76.1228 12.8201 76.3837 12.0238 76.8618 11.3613C77.3399 10.6987 78.0116 10.2029 78.783 9.94292C79.5544 9.68292 80.3872 9.67172 81.1653 9.91089C81.9433 10.1501 82.6278 10.6277 83.1234 11.2771C83.2504 11.4986 83.4219 11.6908 83.627 11.8416C83.8321 11.9924 84.0663 12.0984 84.3144 12.1528C84.5626 12.2072 84.8193 12.2087 85.0681 12.1574C85.3169 12.1061 85.5523 12.003 85.7593 11.8547C85.9662 11.7065 86.14 11.5163 86.2697 11.2965C86.3993 11.0766 86.4819 10.8319 86.5121 10.5781C86.5423 10.3242 86.5195 10.0668 86.4452 9.82235C86.3708 9.57789 86.2465 9.35177 86.0802 9.15849L86.0815 9.15785C85.1391 7.87903 83.8206 6.93141 82.313 6.44941C80.8054 5.96741 79.1854 5.97551 77.6826 6.47256C76.1799 6.96961 74.8708 7.93036 73.941 9.21854C73.0112 10.5067 72.508 12.0569 72.5027 13.6492C72.4974 15.2415 72.9904 16.795 73.9116 18.0894C74.8328 19.3838 76.1355 20.3533 77.6349 20.8605C79.1343 21.3676 80.7543 21.3866 82.265 20.9148C83.7757 20.4429 85.1005 19.5042 86.0514 18.2317L86.0334 18.2186C86.2762 17.9572 86.4379 17.6301 86.4984 17.2775C86.559 16.9249 86.5158 16.5622 86.3742 16.234C86.2326 15.9057 85.9988 15.6263 85.7015 15.4302C85.4042 15.234 85.0564 15.1296 84.7009 15.1298Z" fill="#2B2D32"/>
<path d="M110.024 6.0932C108.923 6.09264 107.834 6.33685 106.837 6.80841C106.576 6.44256 106.191 6.18619 105.754 6.08828C105.317 5.99036 104.86 6.05775 104.47 6.27757C104.466 6.27956 104.463 6.2822 104.459 6.28419C104.178 6.44394 103.945 6.67602 103.782 6.95665C103.619 7.23728 103.534 7.55637 103.534 7.88123C103.534 7.96027 103.537 8.27702 103.537 8.36594C103.536 9.02255 103.536 9.6796 103.536 10.3371C103.536 10.3522 103.534 10.3667 103.534 10.3825C103.534 10.3963 103.536 10.4095 103.536 10.4247C103.535 12.6111 103.535 14.798 103.534 16.9854V16.9946C103.534 19.5822 103.536 22.1701 103.539 24.7583C103.539 24.8063 103.542 24.8518 103.543 24.8985C103.538 24.9627 103.534 25.0263 103.534 25.0902C103.534 25.3787 103.602 25.6631 103.732 25.9205C103.861 26.1778 104.049 26.4007 104.281 26.5712C104.512 26.7417 104.78 26.855 105.062 26.9019C105.345 26.9488 105.635 26.9279 105.908 26.841C106.694 26.6886 107.182 26.1413 107.19 25.0618C107.193 24.6638 107.193 22.9251 107.193 20.6965C108.222 21.1174 109.332 21.3038 110.441 21.2421C111.551 21.1804 112.633 20.8722 113.611 20.3397C114.588 19.8072 115.436 19.0635 116.094 18.1621C116.752 17.2606 117.204 16.2237 117.417 15.1257C117.63 14.0277 117.599 12.8959 117.326 11.8115C117.053 10.7271 116.545 9.7169 115.838 8.85348C115.131 7.99006 114.244 7.29479 113.239 6.81755C112.233 6.34032 111.136 6.09295 110.024 6.09319V6.0932ZM110.024 17.6091C109.493 17.6087 108.967 17.4985 108.48 17.2853C107.992 17.0721 107.553 16.7605 107.19 16.3696C107.189 14.4367 107.187 12.515 107.186 10.9897C107.629 10.5148 108.183 10.1583 108.797 9.95229C109.411 9.74629 110.066 9.69725 110.704 9.80962C111.341 9.92198 111.941 10.1922 112.449 10.596C112.957 10.9997 113.358 11.5244 113.614 12.1226C113.871 12.7209 113.975 13.3739 113.919 14.023C113.862 14.6722 113.646 15.297 113.29 15.8411C112.934 16.3853 112.449 16.8318 111.879 17.1404C111.309 17.4491 110.672 17.6101 110.024 17.6091H110.024Z" fill="#2B2D32"/>
<path fill-rule="evenodd" clip-rule="evenodd" d="M129.557 19.2386C129.415 18.4436 128.852 18.1618 128.112 18.1222C127.512 18.1112 126.912 18.0692 126.316 17.9965C125.32 17.8391 124.654 17.195 124.619 16.2078C124.549 14.1109 124.587 12.0093 124.593 9.8479H127.113C127.353 9.84814 127.59 9.80081 127.812 9.70864C128.033 9.61647 128.234 9.48127 128.404 9.31075C128.574 9.14022 128.708 8.93772 128.8 8.71483C128.892 8.49195 128.939 8.25304 128.939 8.01176C128.939 7.77049 128.892 7.53158 128.8 7.30869C128.708 7.0858 128.574 6.88331 128.404 6.71279C128.234 6.54226 128.033 6.40705 127.812 6.31488C127.59 6.22272 127.353 6.1754 127.113 6.17564H124.556C124.56 5.35441 124.585 4.66488 124.546 3.98257C124.48 2.89921 123.706 2.20049 122.677 2.23407C121.675 2.26634 120.988 2.94797 120.943 4.00891C120.914 4.7103 120.936 5.41631 120.937 6.17564H119.795C119.555 6.1754 119.317 6.22272 119.096 6.31488C118.874 6.40705 118.673 6.54226 118.504 6.71279C118.334 6.88331 118.2 7.0858 118.108 7.30869C118.016 7.53158 117.969 7.77049 117.969 8.01176C117.969 8.25304 118.016 8.49195 118.108 8.71483C118.2 8.93772 118.334 9.14022 118.504 9.31075C118.673 9.48127 118.874 9.61647 119.096 9.70864C119.317 9.80081 119.555 9.84814 119.795 9.8479H120.933V10.4017C120.937 12.3834 120.894 14.365 120.95 16.3421C121.059 20.2 125.28 22.7105 128.699 20.9815C129.412 20.6209 129.698 20.0183 129.557 19.2386Z" fill="#2B2D32"/>
<path fill-rule="evenodd" clip-rule="evenodd" d="M166.754 11.8769L166.751 11.8808C166.752 10.7506 166.429 9.64404 165.822 8.69338C165.215 7.74272 164.349 6.98818 163.327 6.51996C162.305 6.05174 161.171 5.88964 160.06 6.05304C158.949 6.21644 157.908 6.69842 157.062 7.44138C157.057 7.44006 157.052 7.43874 157.046 7.43743C156.962 7.09686 156.782 6.78779 156.529 6.54678C156.275 6.30576 155.959 6.1429 155.616 6.07747C155.584 6.0709 155.551 6.06696 155.519 6.06297C155.456 6.05437 155.392 6.0491 155.328 6.04719C155.274 6.04587 155.217 6.04783 155.161 6.04982C155.122 6.05309 155.086 6.0564 155.049 6.06034C155 6.06563 154.955 6.06495 154.906 6.07352C154.833 6.08618 154.761 6.10924 154.694 6.14201C154.332 6.26484 154.018 6.49866 153.796 6.81057C153.574 7.12247 153.454 7.49673 153.454 7.88067C153.454 7.98931 153.466 8.21125 153.457 8.21719C153.451 11.8604 153.45 15.5041 153.455 19.1483C153.451 19.3399 153.458 19.5316 153.475 19.7225C153.511 20.1403 153.693 20.5318 153.989 20.8269C154.285 21.1221 154.675 21.3017 155.091 21.3337C155.504 21.3895 155.924 21.2888 156.269 21.051C156.613 20.8132 156.857 20.4553 156.955 20.0465C157.045 19.6757 157.086 19.2943 157.076 18.9125C157.088 16.7069 157.043 14.5013 157.076 12.2958C157.098 10.7468 158.04 9.63181 159.446 9.34007C161.551 8.90277 163.153 10.2417 163.187 12.5355C163.218 14.8036 163.169 17.0744 163.187 19.3432C163.196 20.5477 163.878 21.3101 164.91 21.3449C165.963 21.3838 166.738 20.6663 166.754 19.4677C166.789 16.9381 166.87 14.4019 166.754 11.8769Z" fill="#2B2D32"/>
<path d="M55.996 11.672C55.997 11.5455 55.997 11.4217 55.997 11.3038H55.9787C55.7919 8.30138 53.419 5.92459 50.387 5.92459C48.8963 5.92359 47.4646 6.51064 46.399 7.55984C45.5821 6.75608 44.5443 6.2178 43.4199 6.01477C42.2956 5.81174 41.1366 5.95331 40.0932 6.42114C39.9231 6.03697 39.6271 5.72323 39.2548 5.53239C38.8825 5.34155 38.4564 5.28519 38.0477 5.37273C37.6391 5.46026 37.2726 5.68639 37.0098 6.01329C36.7469 6.34019 36.6035 6.74804 36.6035 7.16862V19.517C36.6033 19.7583 36.6503 19.9972 36.7419 20.2202C36.8334 20.4432 36.9678 20.6459 37.1372 20.8166C37.3066 20.9873 37.5077 21.1227 37.7292 21.2151C37.9506 21.3075 38.188 21.355 38.4277 21.355C38.6674 21.355 38.9047 21.3075 39.1262 21.2151C39.3476 21.1227 39.5488 20.9873 39.7182 20.8166C39.8876 20.6459 40.0219 20.4432 40.1135 20.2202C40.2051 19.9972 40.2521 19.7583 40.2518 19.517C40.2518 19.457 40.261 15.1875 40.2651 11.6845H40.2661C40.2661 11.112 40.492 10.5629 40.8941 10.1581C41.2963 9.75329 41.8417 9.52585 42.4105 9.52585C42.9792 9.52585 43.5246 9.75329 43.9268 10.1581C44.3289 10.5629 44.5549 11.112 44.5549 11.6845H44.5662C44.5529 12.1126 44.5712 12.4946 44.5718 12.5222C44.5872 14.7265 44.5616 16.9334 44.5718 19.1389C44.5727 19.241 44.5718 19.3161 44.5718 19.4057C44.5706 19.6463 44.6167 19.8849 44.7073 20.1076C44.7979 20.3303 44.9314 20.5327 45.1 20.7034C45.2686 20.874 45.4691 21.0094 45.6899 21.1018C45.9106 21.1941 46.1474 21.2417 46.3864 21.2417C46.6255 21.2417 46.8622 21.1941 47.083 21.1018C47.3038 21.0094 47.5042 20.874 47.6729 20.7034C47.8415 20.5327 47.975 20.3303 48.0656 20.1076C48.1562 19.8849 48.2023 19.6463 48.201 19.4057C48.201 19.2963 48.236 14.6396 48.201 12.5011C48.2006 12.4623 48.2274 12.1218 48.2355 11.6845H48.2427C48.2427 11.1121 48.4686 10.563 48.8707 10.1583C49.2729 9.75348 49.8182 9.52608 50.3869 9.52608C50.9556 9.52608 51.5009 9.75348 51.9031 10.1583C52.3052 10.563 52.5311 11.1121 52.5311 11.6845L52.5386 11.6911C52.5463 13.2974 52.534 19.3339 52.534 19.4057C52.534 20.4186 53.1608 21.2418 54.1676 21.2418C54.6514 21.2417 55.1153 21.0482 55.4573 20.7039C55.7994 20.3596 55.9917 19.8926 55.9919 19.4057C55.9919 19.3148 55.9919 14.5599 55.996 11.6845C55.996 11.6792 55.996 11.6759 55.996 11.672Z" fill="#2B2D32"/>
<defs>
<linearGradient id="paint0_linear_720_1882" x1="2.23571" y1="25.7366" x2="30.0386" y2="-4.88877" gradientUnits="userSpaceOnUse">
<stop stop-color="#ED714A"/>
<stop offset="0.53226" stop-color="#F1913F"/>
<stop offset="0.78276" stop-color="#F48928"/>
<stop offset="0.94624" stop-color="#F5861F"/>
</linearGradient>
<linearGradient id="paint1_linear_720_1882" x1="3902.47" y1="29742.4" x2="8087.81" y2="25132.4" gradientUnits="userSpaceOnUse">
<stop stop-color="#ED714A"/>
<stop offset="0.53226" stop-color="#F1913F"/>
<stop offset="0.78276" stop-color="#F48928"/>
<stop offset="0.94624" stop-color="#F5861F"/>
</linearGradient>
<linearGradient id="paint2_linear_720_1882" x1="2821.79" y1="4522.59" x2="3096.11" y2="3357.08" gradientUnits="userSpaceOnUse">
<stop stop-color="#ED714A"/>
<stop offset="0.53226" stop-color="#F1913F"/>
<stop offset="0.78276" stop-color="#F48928"/>
<stop offset="0.94624" stop-color="#F5861F"/>
</linearGradient>
</defs>
</svg>
