<?xml version="1.0" encoding="UTF-8"?>
<svg version="1.1" xmlns="http://www.w3.org/2000/svg" width="200" height="200">
<path d="M0 0 C66 0 132 0 200 0 C200 66 200 132 200 200 C134 200 68 200 0 200 C0 134 0 68 0 0 Z " fill="#C74734" transform="translate(0,0)"/>
<path d="M0 0 C1.41570667 -0.00644407 2.83141206 -0.01317356 4.24711609 -0.02017212 C7.20310549 -0.03208603 10.15897855 -0.03585904 13.11499023 -0.03466797 C16.87034262 -0.03446506 20.62493589 -0.06176336 24.38010883 -0.09621239 C27.30154225 -0.11863993 30.22279747 -0.12250072 33.14430809 -0.12144852 C34.5271688 -0.12378086 35.91003627 -0.13246794 37.29281044 -0.14811325 C52.25924178 -0.30161687 63.90501564 3.38675213 75.01171875 13.5234375 C83.63395819 22.54671133 86.74544458 33.25941414 86.68774414 45.36914062 C86.40727768 57.68473455 81.88419229 67.48674669 73.375 76.37109375 C62.1692821 86.74023546 48.95651681 88.80583269 34.109375 88.734375 C32.76378726 88.73640319 31.41820061 88.73932077 30.07261658 88.74307251 C27.26973881 88.74746249 24.4671504 88.74117474 21.66430664 88.72705078 C18.10638607 88.70997715 14.54914566 88.71980923 10.99125004 88.73776817 C8.21735188 88.74871131 5.44360971 88.74511178 2.66970634 88.7373848 C0.73130212 88.73446453 -1.20710865 88.74343288 -3.14549255 88.7527771 C-17.92738718 88.63676121 -29.24538668 85.10919664 -40.42578125 75.2734375 C-50.06792308 65.07233092 -52.16435487 52.51554481 -51.94921875 39.12109375 C-51.47586775 27.1068829 -45.41553669 18.54857998 -36.80078125 10.5859375 C-25.47851014 1.1834349 -14.33159212 0.01546988 0 0 Z " fill="#FCF9F7" transform="translate(82.67578125,55.6640625)"/>
<path d="M0 0 C1.39665141 -0.00337798 2.79329993 -0.00823872 4.18994141 -0.01449585 C7.10152477 -0.02182132 10.01233542 -0.01130441 12.92382812 0.01220703 C16.62921678 0.04069437 20.33279403 0.02426664 24.03811646 -0.00565529 C26.91753434 -0.02384745 29.79653284 -0.01791654 32.67596436 -0.00501633 C34.69756263 -0.00012683 36.71917817 -0.01513386 38.74072266 -0.03067017 C48.76045736 0.09583755 56.12388835 2.08331682 63.25 9.3515625 C68.08286099 15.42977064 71.17528304 22.4462319 70.7578125 30.30859375 C69.48128012 38.16317567 66.55034536 45.46377167 60.375 50.6640625 C54.47324304 54.54466981 49.53086977 56.77232396 42.40991211 56.85693359 C41.18110825 56.87299652 39.95230438 56.88905945 38.68626404 56.90560913 C37.34163104 56.91710169 35.99699022 56.92770936 34.65234375 56.9375 C33.97252504 56.94282368 33.29270634 56.94814735 32.59228706 56.95363235 C28.98870091 56.98034858 25.38514909 56.99972181 21.78149414 57.01416016 C18.81438052 57.02745469 15.84796197 57.05522402 12.88110352 57.09619141 C9.28544401 57.14583135 5.69041074 57.1703197 2.09442329 57.17738724 C0.07492274 57.18726723 -1.94441268 57.221439 -3.96363831 57.25619507 C-14.01587972 57.23329159 -21.29763057 55.25626835 -28.5 48.0390625 C-33.75756807 41.42670739 -36.41837109 33.52004726 -36.00390625 25.0703125 C-34.76400634 17.19630895 -30.43938388 10.94858612 -24.625 5.6640625 C-16.82415785 0.20201103 -9.27951046 -0.07131644 0 0 Z " fill="#C64735" transform="translate(82.625,71.3359375)"/>
<path d="M0 0 C1.4640127 0.00373953 2.92802794 0.00658205 4.39204407 0.00857544 C8.20766354 0.01613803 12.02312584 0.03572121 15.83868408 0.0579834 C19.74725215 0.07860262 23.65584611 0.0876112 27.56445312 0.09765625 C35.20580009 0.11897567 42.84701848 0.15302008 50.48828125 0.1953125 C50.48828125 0.5253125 50.48828125 0.8553125 50.48828125 1.1953125 C49.7109111 1.20117874 48.93354095 1.20704498 48.13261414 1.21308899 C40.76304323 1.27128494 33.39380011 1.34351237 26.02452374 1.43102741 C22.23699305 1.47552468 18.44956484 1.51482444 14.66186523 1.54174805 C10.99822051 1.56798942 7.33497458 1.60853375 3.67157936 1.65849876 C2.28238749 1.67502813 0.89312687 1.68662828 -0.49614906 1.69292641 C-15.12428939 1.76587271 -27.42524384 4.25983515 -38.32421875 14.5703125 C-44.03308243 20.69558742 -47.23051704 27.183287 -49.51171875 35.1953125 C-49.84171875 35.1953125 -50.17171875 35.1953125 -50.51171875 35.1953125 C-49.82877325 28.50244664 -47.59022348 23.11551391 -44.51171875 17.1953125 C-45.17171875 16.8653125 -45.83171875 16.5353125 -46.51171875 16.1953125 C-43.33851093 12.65945236 -41.3442818 10.60953219 -36.51171875 10.1953125 C-36.51171875 9.5353125 -36.51171875 8.8753125 -36.51171875 8.1953125 C-34.53171875 7.8653125 -32.55171875 7.5353125 -30.51171875 7.1953125 C-30.18171875 6.2053125 -29.85171875 5.2153125 -29.51171875 4.1953125 C-21.18404702 -1.35646865 -9.64690234 -0.07327951 0 0 Z " fill="#B05344" transform="translate(81.51171875,54.8046875)"/>
<path d="M0 0 C0.76183594 0.40992188 1.52367187 0.81984375 2.30859375 1.2421875 C3.85740234 2.05042969 3.85740234 2.05042969 5.4375 2.875 C6.44683594 3.40867188 7.45617188 3.94234375 8.49609375 4.4921875 C17.18151584 8.229727 25.62997182 8.31955159 34.94921875 8.3359375 C36.29287347 8.3423843 37.63652686 8.34911397 38.98017883 8.35610962 C41.78654221 8.36802152 44.59278309 8.37179694 47.39916992 8.37060547 C50.9548057 8.37040299 54.50963587 8.39765777 58.0650816 8.43214989 C60.83904967 8.45464493 63.61283104 8.45843615 66.38688087 8.45738602 C68.32192064 8.46082243 70.25690214 8.48234137 72.19181824 8.50448608 C82.238009 8.45344758 92.06293788 6.84189701 101 2 C101 3.32 101 4.64 101 6 C98.45884755 8.54115245 96.44778721 8.43562323 92.97265625 8.75390625 C90.7913298 8.96047055 90.7913298 8.96047055 88 10 C85.74873709 10.10994866 83.49435323 10.15905395 81.24047852 10.17700195 C80.55705887 10.18357315 79.87363922 10.19014435 79.16950989 10.19691467 C76.90597412 10.21663177 74.64250497 10.22831251 72.37890625 10.23828125 C71.21398305 10.24439454 71.21398305 10.24439454 70.02552605 10.25063133 C65.90740094 10.27149472 61.78930909 10.28578994 57.67114258 10.29516602 C53.44486857 10.3061743 49.21912927 10.34050772 44.99304295 10.38033772 C41.72162495 10.40667215 38.45033047 10.41487309 35.17881584 10.41844749 C33.622898 10.42327761 32.06698433 10.43478778 30.51117134 10.45348549 C21.22960008 10.55801263 12.51947847 10.21823569 4 6 C3.67 5.34 3.34 4.68 3 4 C2.01 3.67 1.02 3.34 0 3 C0 2.01 0 1.02 0 0 Z " fill="#B15346" transform="translate(48,135)"/>
<path d="M0 0 C1.4009379 -0.007114 2.80187293 -0.01481478 4.20280457 -0.02307129 C7.13211166 -0.03647508 10.06114945 -0.03810414 12.99047852 -0.03222656 C16.71938842 -0.02634196 20.44699113 -0.05688731 24.17564869 -0.09734344 C27.06787409 -0.12336975 29.95979121 -0.12608438 32.85211754 -0.12245178 C34.22547368 -0.12412994 35.59884611 -0.1336451 36.97208595 -0.15159607 C45.49401851 -0.25072764 52.60970472 0.29943106 59.66796875 5.46875 C60.65796875 6.95375 60.65796875 6.95375 61.66796875 8.46875 C57.7972261 7.94567667 56.36383147 7.16461272 53.66796875 4.46875 C49.53239996 2.82807898 46.00435089 2.20698668 41.57080078 2.14990234 C40.3900296 2.13003265 39.20925842 2.11016296 37.9927063 2.08969116 C36.73312103 2.07813995 35.47353577 2.06658875 34.17578125 2.0546875 C32.87470428 2.03532135 31.57362732 2.0159552 30.23312378 1.9960022 C26.79076111 1.94487061 23.34835953 1.90514412 19.90582275 1.86785889 C16.38633754 1.82769952 12.86701152 1.7766619 9.34765625 1.7265625 C2.45454366 1.63002833 -4.43867133 1.54555224 -11.33203125 1.46875 C-11.33203125 2.12875 -11.33203125 2.78875 -11.33203125 3.46875 C-13.26761724 4.14095351 -15.20557497 4.80633077 -17.14453125 5.46875 C-18.22347656 5.84 -19.30242188 6.21125 -20.4140625 6.59375 C-23.33203125 7.46875 -23.33203125 7.46875 -26.33203125 7.46875 C-17.99763535 0.14458391 -10.7120046 -0.00663389 0 0 Z " fill="#B55143" transform="translate(82.33203125,71.53125)"/>
<path d="M0 0 C1.77049689 -0.05410687 3.54146849 -0.09284119 5.3125 -0.125 C6.29863281 -0.14820313 7.28476563 -0.17140625 8.30078125 -0.1953125 C11 0 11 0 14 2 C16.72847523 2.32906294 16.72847523 2.32906294 19.84838867 2.31884766 C21.64991646 2.34865219 21.64991646 2.34865219 23.48783875 2.37905884 C24.78478165 2.39061005 26.08172455 2.40216125 27.41796875 2.4140625 C28.75890801 2.43277377 30.0998355 2.45234716 31.44075012 2.4727478 C34.9670009 2.52407965 38.49328987 2.56369948 42.01971436 2.60089111 C45.61935885 2.64092432 49.21884439 2.69201974 52.81835938 2.7421875 C59.87878985 2.83895905 66.93931999 2.92335981 74 3 C74 3.33 74 3.66 74 4 C66.12350557 4.06995383 58.24708588 4.12303908 50.37035751 4.15543652 C46.71163599 4.17099698 43.05312923 4.19205566 39.39453125 4.22631836 C35.85427025 4.25925991 32.31421394 4.27692504 28.77381134 4.28463173 C26.78661845 4.29275518 24.79950626 4.31611689 22.81243896 4.33988953 C14.77809404 4.34135724 7.68685611 3.35659222 0 1 C0 0.67 0 0.34 0 0 Z " fill="#FDD2CC" transform="translate(57,140)"/>
<path d="M0 0 C4.25366452 1.90681513 6.40288532 3.47632805 8.1328125 7.890625 C11.28702213 18.57023242 12.13884019 27.87735788 12 39 C10.515 39.495 10.515 39.495 9 40 C9.02094727 39.41621582 9.04189453 38.83243164 9.06347656 38.23095703 C9.86949321 23.05817179 9.86949321 23.05817179 5 9 C4.54496094 8.14664063 4.08992187 7.29328125 3.62109375 6.4140625 C2.45266065 4.2502975 1.24844483 2.11826295 0 0 Z " fill="#B86157" transform="translate(159,71)"/>
<path d="M0 0 C0.5625 1.9375 0.5625 1.9375 1 4 C0.67 4.33 0.34 4.66 0 5 C-0.23653523 7.52596259 -0.42173692 10.03107207 -0.5625 12.5625 C-0.60568359 13.27341797 -0.64886719 13.98433594 -0.69335938 14.71679688 C-0.79971777 16.47761912 -0.90038846 18.2387832 -1 20 C-0.34 20 0.32 20 1 20 C1.53229326 21.26607607 2.05044544 22.53810412 2.5625 23.8125 C2.85253906 24.52019531 3.14257812 25.22789063 3.44140625 25.95703125 C4 28 4 28 3 31 C2.18247697 29.41925436 1.37118003 27.83528777 0.5625 26.25 C0.11003906 25.36828125 -0.34242187 24.4865625 -0.80859375 23.578125 C-3.49186827 17.7716949 -4.21074158 10.97714529 -2.328125 4.79296875 C-1.62405462 3.16231518 -0.82159147 1.57471699 0 0 Z " fill="#B55D50" transform="translate(50,87)"/>
<path d="M0 0 C0 0.33 0 0.66 0 1 C-0.67804688 1.14695313 -1.35609375 1.29390625 -2.0546875 1.4453125 C-11.87748328 3.81257907 -19.50674393 8.29550773 -27 15 C-27 14.01 -27 13.02 -27 12 C-26.34 12 -25.68 12 -25 12 C-25 11.01 -25 10.02 -25 9 C-24.34 9 -23.68 9 -23 9 C-23 8.34 -23 7.68 -23 7 C-21.02 6.67 -19.04 6.34 -17 6 C-16.67 5.01 -16.34 4.02 -16 3 C-11.0933184 -0.27112106 -5.77368192 -0.14082151 0 0 Z " fill="#B95A4F" transform="translate(68,56)"/>
<path d="M0 0 C0.33 0 0.66 0 1 0 C1.07347656 0.95712891 1.07347656 0.95712891 1.1484375 1.93359375 C1.22320312 2.75988281 1.29796875 3.58617188 1.375 4.4375 C1.44460937 5.26121094 1.51421875 6.08492188 1.5859375 6.93359375 C1.72257812 7.61550781 1.85921875 8.29742187 2 9 C2.66 9.33 3.32 9.66 4 10 C4 10.66 4 11.32 4 12 C-0.59621922 10.5129879 -3.46972347 8.20187872 -7 5 C-7 4.67 -7 4.34 -7 4 C-5.02 4 -3.04 4 -1 4 C-0.67 2.68 -0.34 1.36 0 0 Z " fill="#BE5040" transform="translate(61,114)"/>
<path d="M0 0 C1.79867483 2.69801225 3.25734803 5.3770462 4.75 8.25 C7.36765075 13.10490398 10.24424997 16.97598212 14 21 C9.71640327 19.1144852 7.84896408 16.64034299 5 13 C4.01 13.495 4.01 13.495 3 14 C3 12.35 3 10.7 3 9 C2.01 8.67 1.02 8.34 0 8 C0 5.36 0 2.72 0 0 Z " fill="#B8594F" transform="translate(32,113)"/>
<path d="M0 0 C0.33 0 0.66 0 1 0 C1.33 7.59 1.66 15.18 2 23 C-1 20 -1 20 -1.328125 16.34765625 C-1.31751342 14.91907287 -1.29091064 13.4905369 -1.25 12.0625 C-1.24484375 11.34642578 -1.2396875 10.63035156 -1.234375 9.89257812 C-1.18364442 6.47143467 -1.05876231 3.2702094 0 0 Z " fill="#B86558" transform="translate(30,90)"/>
<path d="M0 0 C0.625 1.875 0.625 1.875 1 4 C-1.93447357 6.93447357 -5.18259456 6.46158423 -9.125 6.625 C-9.87910156 6.66367188 -10.63320312 6.70234375 -11.41015625 6.7421875 C-13.27303184 6.83651031 -15.13648255 6.91934662 -17 7 C-17 6.67 -17 6.34 -17 6 C-16.02417969 5.73445312 -15.04835937 5.46890625 -14.04296875 5.1953125 C-12.75773414 4.83882407 -11.47258216 4.48203761 -10.1875 4.125 C-8.29064453 3.60292969 -8.29064453 3.60292969 -6.35546875 3.0703125 C-2.91591287 2.14299705 -2.91591287 2.14299705 0 0 Z " fill="#B95C50" transform="translate(148,137)"/>
<path d="M0 0 C1.65 0 3.3 0 5 0 C5.33 0.99 5.66 1.98 6 3 C7.84971696 4.05021103 7.84971696 4.05021103 10 5 C11.35113205 5.97581759 12.68946944 6.97029741 14 8 C13.67 8.99 13.34 9.98 13 11 C12.48050781 10.54109375 11.96101562 10.0821875 11.42578125 9.609375 C7.68287834 6.31617392 3.93021199 3.07047811 0 0 Z " fill="#B45A4D" transform="translate(145,60)"/>
<path d="M0 0 C1.60226148 4.00565371 0.47694566 7.08609399 -1 11 C-1.99 11.33 -2.98 11.66 -4 12 C-4.73323796 14.01508358 -4.73323796 14.01508358 -5 16 C-5.66 16 -6.32 16 -7 16 C-5.55377814 12.14340838 -3.78682503 8.52237006 -1.90234375 4.8671875 C-0.87997124 2.85335678 -0.87997124 2.85335678 0 0 Z " fill="#BD6356" transform="translate(167,112)"/>
<path d="M0 0 C0.33 0.99 0.66 1.98 1 3 C-1.17105124 5.87517597 -3.4542872 8.4542872 -6 11 C-8.625 11.125 -8.625 11.125 -11 11 C-8.88297221 8.80456377 -6.7766709 6.82452713 -4.375 4.9375 C-1.81772804 3.04518507 -1.81772804 3.04518507 0 0 Z " fill="#FAE8E0" transform="translate(148,115)"/>
<path d="M0 0 C0.47050781 0.40992187 0.94101563 0.81984375 1.42578125 1.2421875 C2.04839844 1.78101562 2.67101562 2.31984375 3.3125 2.875 C3.92738281 3.40867187 4.54226562 3.94234375 5.17578125 4.4921875 C7.13498212 6.1640447 7.13498212 6.1640447 10 8 C10.6875 11.625 10.6875 11.625 11 15 C10.443125 14.29875 9.88625 13.5975 9.3125 12.875 C4.42034115 6.70125844 4.42034115 6.70125844 -1 1 C-0.67 0.67 -0.34 0.34 0 0 Z " fill="#FBE8E1" transform="translate(140,74)"/>
<path d="M0 0 C2.90302854 1.30135762 4.97308296 2.53244882 7 5 C7.73046875 7.48046875 7.73046875 7.48046875 8.1875 10.1875 C8.34605469 11.08855469 8.50460938 11.98960938 8.66796875 12.91796875 C8.77753906 13.60503906 8.88710937 14.29210937 9 15 C6.6878035 12.6878035 5.48043692 10.38115985 3.9375 7.5 C3.41027344 6.5203125 2.88304687 5.540625 2.33984375 4.53125 C1.54458557 3.02883804 0.76022066 1.52044132 0 0 Z " fill="#B5564A" transform="translate(159,71)"/>
<path d="M0 0 C6.03280791 1.6166348 9.950809 3.16709462 14 8 C10.12925735 7.47692667 8.69586272 6.69586272 6 4 C2.89992799 2.79950593 2.89992799 2.79950593 0 2 C0 1.34 0 0.68 0 0 Z " fill="#B65D50" transform="translate(130,72)"/>
<path d="M0 0 C1.77007714 -0.08114106 3.54122098 -0.13925505 5.3125 -0.1875 C6.29863281 -0.22230469 7.28476563 -0.25710937 8.30078125 -0.29296875 C11 0 11 0 12.85546875 1.51171875 C13.23316406 2.00285156 13.61085938 2.49398437 14 3 C8.78020872 3.1799928 4.92737019 2.97094808 0 1 C0 0.67 0 0.34 0 0 Z " fill="#FAE5DB" transform="translate(57,140)"/>
<path d="M0 0 C0.66 0 1.32 0 2 0 C0.68139111 4.61513112 -1.21355437 8.09897612 -4 12 C-4.625 10.1875 -4.625 10.1875 -5 8 C-4.34 7.01 -3.68 6.02 -3 5 C-2.34 5 -1.68 5 -1 5 C-0.67 3.35 -0.34 1.7 0 0 Z " fill="#FCEBDF" transform="translate(164,116)"/>
<path d="M0 0 C0.99 0 1.98 0 3 0 C3 0.99 3 1.98 3 3 C6.465 2.505 6.465 2.505 10 2 C9.67 2.66 9.34 3.32 9 4 C6.03 4 3.06 4 0 4 C0 2.68 0 1.36 0 0 Z " fill="#BF4C43" transform="translate(128,122)"/>
<path d="M0 0 C0 0.66 0 1.32 0 2 C-4.1196377 3.29243536 -7.66831683 4.26252625 -12 4 C-7.87571444 0.61219401 -5.3248712 0 0 0 Z " fill="#FBE1DD" transform="translate(67,57)"/>
<path d="M0 0 C2.64 0.33 5.28 0.66 8 1 C7.34 2.65 6.68 4.3 6 6 C3.97945196 4.35830472 1.97956942 2.69088222 0 1 C0 0.67 0 0.34 0 0 Z " fill="#FBECE1" transform="translate(42,129)"/>
<path d="M0 0 C0.66 0.66 1.32 1.32 2 2 C0.35 4.64 -1.3 7.28 -3 10 C-4 7 -4 7 -3.22265625 5.17578125 C-2.1484375 3.45052083 -1.07421875 1.72526042 0 0 Z " fill="#B95F58" transform="translate(149,109)"/>
</svg>
