<?xml version="1.0" encoding="UTF-8"?>
<svg version="1.1" xmlns="http://www.w3.org/2000/svg" width="100" height="100">
<path d="M0 0 C33 0 66 0 100 0 C100 33 100 66 100 100 C67 100 34 100 0 100 C0 67 0 34 0 0 Z " fill="#42953B" transform="translate(0,0)"/>
<path d="M0 0 C2.22130722 -0.00439669 4.44066155 -0.04083685 6.66162109 -0.07861328 C8.0795831 -0.08447817 9.49755446 -0.08844976 10.91552734 -0.09033203 C12.83776123 -0.10265869 12.83776123 -0.10265869 14.79882812 -0.11523438 C18.09521484 0.37060547 18.09521484 0.37060547 20.51293945 1.97094727 C22.63757836 5.19314689 22.59714768 7.38014705 22.59130859 11.22607422 C22.59276382 11.88714676 22.59421906 12.5482193 22.59571838 13.22932434 C22.59406181 14.6271302 22.58252719 16.02495475 22.56176758 17.42260742 C22.53303813 19.53434289 22.54111591 21.64352781 22.55419922 23.75537109 C22.53014014 40.18772497 22.53014014 40.18772497 17.79336548 45.95593262 C15.6899617 47.70820839 14.69777864 47.7361676 11.9909668 47.71118164 C10.76003044 47.71084175 10.76003044 47.71084175 9.50422668 47.710495 C8.18221504 47.68726921 8.18221504 47.68726921 6.83349609 47.66357422 C5.47480659 47.65720695 5.47480659 47.65720695 4.08866882 47.65071106 C1.19471551 47.63391395 -1.69854222 47.59625997 -4.59228516 47.55810547 C-6.55386364 47.54305996 -8.51545304 47.52937132 -10.47705078 47.51708984 C-15.28656371 47.48400704 -20.09555649 47.43221769 -24.90478516 47.37060547 C-25.028423 41.60489732 -25.11914221 35.83996125 -25.17944336 30.07324219 C-25.20458119 28.11184244 -25.23869681 26.15053631 -25.28198242 24.18945312 C-25.34266724 21.36939403 -25.37100157 18.55057353 -25.39306641 15.72998047 C-25.41887283 14.85380066 -25.44467926 13.97762085 -25.4712677 13.07489014 C-25.47405432 7.02027769 -25.47405432 7.02027769 -22.74926758 3.91064453 C-15.32230045 -0.1104102 -8.23749052 -0.00183015 0 0 Z " fill="#41953A" transform="translate(24.90478515625,52.62939453125)"/>
<path d="M0 0 C0.68326859 -0.0038269 1.36653717 -0.00765381 2.07051086 -0.01159668 C3.51536533 -0.01431344 4.96026918 -0.00696843 6.4050293 0.00976562 C8.58953152 0.03101894 10.77068337 0.01004762 12.95507812 -0.015625 C20.52354644 -0.03034944 27.40230143 0.21363757 33.92578125 4.53125 C35.92578125 6.53125 35.92578125 6.53125 36.15283203 10.52197266 C36.15251462 12.24645169 36.14117249 13.97095033 36.12109375 15.6953125 C36.11826385 16.60252045 36.11543396 17.50972839 36.11251831 18.44442749 C36.10130278 21.34850123 36.07619588 24.25226912 36.05078125 27.15625 C36.04075322 29.12239139 36.03162706 31.0885376 36.0234375 33.0546875 C36.00135897 37.88032659 35.9668199 42.7057364 35.92578125 47.53125 C30.1600731 47.65488784 24.39513703 47.74560706 18.62841797 47.8059082 C16.66701822 47.83104604 14.70571209 47.86516165 12.74462891 47.90844727 C9.92456981 47.96913208 7.10574931 47.99746641 4.28515625 48.01953125 C3.40897644 48.04533768 2.53279663 48.0711441 1.63006592 48.09773254 C-4.42454653 48.10051916 -4.42454653 48.10051916 -7.53417969 45.37573242 C-11.55523441 37.9487653 -11.44665437 30.86395536 -11.44482422 22.62646484 C-11.44922091 20.40515762 -11.48566107 18.1858033 -11.5234375 15.96484375 C-11.52930239 14.54688175 -11.53327398 13.12891038 -11.53515625 11.7109375 C-11.54337402 10.42944824 -11.5515918 9.14795898 -11.56005859 7.82763672 C-11.07421875 4.53125 -11.07421875 4.53125 -9.48754883 2.11572266 C-6.20763529 -0.03770565 -3.90978131 0.01397331 0 0 Z " fill="#42953B" transform="translate(64.07421875,52.46875)"/>
<path d="M0 0 C5.76570815 -0.12363784 11.53064422 -0.21435706 17.29736328 -0.2746582 C19.25876303 -0.29979604 21.22006916 -0.33391165 23.18115234 -0.37719727 C26.00121144 -0.43788208 28.82003194 -0.46621641 31.640625 -0.48828125 C32.51680481 -0.51408768 33.39298462 -0.5398941 34.29571533 -0.56648254 C40.40303059 -0.56929342 40.40303059 -0.56929342 43.52246094 2.40551758 C46.04139788 6.82864099 46.17608572 10.15989432 46.203125 15.18359375 C46.20882507 15.9949025 46.21452515 16.80621124 46.22039795 17.6421051 C46.22984986 19.35945327 46.23638269 21.07681959 46.24023438 22.79418945 C46.24994887 25.42366049 46.28097318 28.05235283 46.3125 30.68164062 C46.31902918 32.34895368 46.32427998 34.01627234 46.328125 35.68359375 C46.3404718 36.47116562 46.3528186 37.25873749 46.36553955 38.07017517 C46.35353012 41.00775103 46.33829966 43.38544987 44.90185547 45.99487305 C42.00263243 47.52710684 39.50569524 47.38942821 36.2421875 47.3984375 C35.57970001 47.40130768 34.91721252 47.40417786 34.23464966 47.40713501 C32.8309036 47.40917555 31.4271291 47.40364624 30.0234375 47.39111328 C27.90297455 47.37520981 25.78446218 47.39087989 23.6640625 47.41015625 C7.18563919 47.43785108 7.18563919 47.43785108 1.41481018 42.69801331 C-0.33769205 40.594712 -0.36556263 39.60261839 -0.34057617 36.89575195 C-0.34034958 36.07512772 -0.34012299 35.25450348 -0.33988953 34.40901184 C-0.32440567 33.52767075 -0.30892181 32.64632965 -0.29296875 31.73828125 C-0.28872391 30.83248825 -0.28447906 29.92669525 -0.28010559 28.99345398 C-0.26330848 26.09950067 -0.2256545 23.20624294 -0.1875 20.3125 C-0.17245449 18.35092151 -0.15876585 16.38933211 -0.14648438 14.42773438 C-0.11340157 9.61822144 -0.06161222 4.80922867 0 0 Z " fill="#43953B" transform="translate(0,0)"/>
<path d="M0 0 C5.94 0 11.88 0 18 0 C16.68 2.31 15.36 4.62 14 7 C11.95119475 12.50802974 12.77506025 18.99114394 12.75976562 24.80883789 C12.75001744 27.05847566 12.71895018 29.30721536 12.6875 31.55664062 C12.68097332 32.98697376 12.67572154 34.4173134 12.671875 35.84765625 C12.6625293 37.14711182 12.65318359 38.44656738 12.64355469 39.78540039 C12.77538828 42.89591684 12.77538828 42.89591684 14.08447266 44.91992188 C18.50569117 47.41284447 24.42297318 46.47527906 29.40380859 46.44604492 C31.59700657 46.43760769 33.78753309 46.4661685 35.98046875 46.49804688 C43.71679937 46.53567043 50.20813034 46.09328634 57 42 C57.66 41.67 58.32 41.34 59 41 C59 46.94 59 52.88 59 59 C56.36 57.68 53.72 56.36 51 55 C45.65436939 53.21812313 39.86574971 53.77440392 34.26660156 53.75976562 C32.00809242 53.75003487 29.75048413 53.71898823 27.4921875 53.6875 C26.05729706 53.68097195 24.62240013 53.6757207 23.1875 53.671875 C21.88167969 53.6625293 20.57585938 53.65318359 19.23046875 53.64355469 C16.10616374 53.77416477 16.10616374 53.77416477 14.07788086 55.08447266 C11.58876247 59.50794329 12.52471894 65.42263223 12.55395508 70.40380859 C12.56239231 72.59700657 12.5338315 74.78753309 12.50195312 76.98046875 C12.46432957 84.71679937 12.90671366 91.20813034 17 98 C17.33 98.66 17.66 99.32 18 100 C12.06 100 6.12 100 0 100 C1.32 97.36 2.64 94.72 4 92 C5.43763153 86.24947388 5.22422301 80.51259097 5.24023438 74.6184082 C5.24998349 72.44118663 5.2810525 70.26489269 5.3125 68.08789062 C5.31902665 66.70313059 5.32427845 65.31836383 5.328125 63.93359375 C5.3374707 62.67603271 5.34681641 61.41847168 5.35644531 60.12280273 C5.2169432 57.09237182 5.2169432 57.09237182 3.91772461 55.09155273 C0.95785589 53.40682033 -1.62897641 53.61054721 -5.01171875 53.6015625 C-5.69877396 53.59869232 -6.38582916 53.59582214 -7.09370422 53.59286499 C-8.5487246 53.59082448 -10.00377241 53.59635359 -11.45874023 53.60888672 C-13.66258939 53.6248199 -15.86457033 53.60910376 -18.06835938 53.58984375 C-26.75485938 53.57675591 -33.55637906 54.03758604 -41 59 C-41 53.06 -41 47.12 -41 41 C-37.535 42.98 -37.535 42.98 -34 45 C-29.83009511 46.26311763 -25.61698533 46.1297203 -21.29296875 46.09765625 C-20.56757401 46.0962413 -19.84217926 46.09482635 -19.09480286 46.09336853 C-16.7923255 46.08779931 -14.48994765 46.07525261 -12.1875 46.0625 C-10.62044412 46.05748102 -9.0533867 46.05291881 -7.48632812 46.04882812 C-3.65751411 46.03783998 0.17122611 46.02059673 4 46 C4.09928585 40.5740282 4.17166467 35.14859159 4.21972656 29.72192383 C4.23977361 27.87808006 4.2670188 26.03429932 4.30175781 24.19067383 C4.35058208 21.5319051 4.37303772 18.87398085 4.390625 16.21484375 C4.41127014 15.39789536 4.43191528 14.58094696 4.45318604 13.73924255 C4.45348816 12.95896194 4.45379028 12.17868134 4.45410156 11.37475586 C4.46742523 10.35882607 4.46742523 10.35882607 4.48101807 9.32237244 C3.92358297 6.02741454 3.92358297 6.02741454 0 0 Z " fill="#055195" transform="translate(41,0)"/>
<path d="M0 0 C9.57 0 19.14 0 29 0 C29 9.57 29 19.14 29 29 C19.43 29 9.86 29 0 29 C0 19.43 0 9.86 0 0 Z " fill="#FDFEFD" transform="translate(71,71)"/>
<path d="M0 0 C9.57 0 19.14 0 29 0 C29 9.57 29 19.14 29 29 C19.43 29 9.86 29 0 29 C0 19.43 0 9.86 0 0 Z " fill="#FDFEFD" transform="translate(0,71)"/>
<path d="M0 0 C9.57 0 19.14 0 29 0 C29 9.57 29 19.14 29 29 C19.43 29 9.86 29 0 29 C0 19.43 0 9.86 0 0 Z " fill="#FDFEFD" transform="translate(71,0)"/>
<path d="M0 0 C9.57 0 19.14 0 29 0 C29 9.57 29 19.14 29 29 C19.43 29 9.86 29 0 29 C0 19.43 0 9.86 0 0 Z " fill="#FDFEFD" transform="translate(0,0)"/>
<path d="M0 0 C5.94 0 11.88 0 18 0 C16.68 2.31 15.36 4.62 14 7 C12.55147592 10.79364034 12.87372202 14.81840147 12.90234375 18.828125 C12.90446617 19.95163361 12.90446617 19.95163361 12.90663147 21.09783936 C12.91221341 23.48193412 12.92476255 25.86593378 12.9375 28.25 C12.94251734 29.86979031 12.94707984 31.48958209 12.95117188 33.109375 C12.96217692 37.07295312 12.97942909 41.03646045 13 45 C12.37609375 45.11601563 11.7521875 45.23203125 11.109375 45.3515625 C8.74819871 45.84837652 8.74819871 45.84837652 7.25 48.375 C5.78503321 50.96685929 5.78503321 50.96685929 6 54 C5.67 53.34 5.34 52.68 5 52 C2.36 52 -0.28 52 -3 52 C-3.33 51.01 -3.66 50.02 -4 49 C-6.31 49 -8.62 49 -11 49 C-11 49.33 -11 49.66 -11 50 C-11.85722656 50.04898438 -12.71445312 50.09796875 -13.59765625 50.1484375 C-19.71972596 50.54875322 -25.09909143 51.29781483 -31 53 C-34.00882899 53.16040607 -36.99035354 53.12284271 -40 53 C-40 54.98 -40 56.96 -40 59 C-40.33 59 -40.66 59 -41 59 C-41 53.06 -41 47.12 -41 41 C-37.535 42.98 -37.535 42.98 -34 45 C-29.83009511 46.26311763 -25.61698533 46.1297203 -21.29296875 46.09765625 C-20.56757401 46.0962413 -19.84217926 46.09482635 -19.09480286 46.09336853 C-16.7923255 46.08779931 -14.48994765 46.07525261 -12.1875 46.0625 C-10.62044412 46.05748102 -9.0533867 46.05291881 -7.48632812 46.04882812 C-3.65751411 46.03783998 0.17122611 46.02059673 4 46 C4.09928585 40.5740282 4.17166467 35.14859159 4.21972656 29.72192383 C4.23977361 27.87808006 4.2670188 26.03429932 4.30175781 24.19067383 C4.35058208 21.5319051 4.37303772 18.87398085 4.390625 16.21484375 C4.41127014 15.39789536 4.43191528 14.58094696 4.45318604 13.73924255 C4.45348816 12.95896194 4.45379028 12.17868134 4.45410156 11.37475586 C4.46742523 10.35882607 4.46742523 10.35882607 4.48101807 9.32237244 C3.92358297 6.02741454 3.92358297 6.02741454 0 0 Z " fill="#065194" transform="translate(41,0)"/>
<path d="M0 0 C2.22130722 -0.00439669 4.44066155 -0.04083685 6.66162109 -0.07861328 C8.0795831 -0.08447817 9.49755446 -0.08844976 10.91552734 -0.09033203 C12.83776123 -0.10265869 12.83776123 -0.10265869 14.79882812 -0.11523438 C18.09521484 0.37060547 18.09521484 0.37060547 20.51293945 1.97094727 C22.63757836 5.19314689 22.59714768 7.38014705 22.59130859 11.22607422 C22.59276382 11.88714676 22.59421906 12.5482193 22.59571838 13.22932434 C22.59406181 14.6271302 22.58252719 16.02495475 22.56176758 17.42260742 C22.53303813 19.53434289 22.54111591 21.64352781 22.55419922 23.75537109 C22.52990606 40.34760154 22.52990606 40.34760154 17.6328125 46.08349609 C15.51607208 47.85540074 14.12377512 47.67619505 11.40771484 47.55810547 C10.19535156 47.5175 10.19535156 47.5175 8.95849609 47.47607422 C8.34361328 47.44126953 7.72873047 47.40646484 7.09521484 47.37060547 C7.83771484 46.87560547 8.58021484 46.38060547 9.34521484 45.87060547 C13.81106117 41.81074517 15.84976641 37.960199 16.41455078 32.00146484 C16.48827931 28.11708224 16.4441155 24.25435822 16.34521484 20.37060547 C16.32511469 19.00995474 16.30687014 17.64927527 16.29052734 16.28857422 C16.24362335 12.98184247 16.17799209 9.6766013 16.09521484 6.37060547 C11.95099224 6.27106756 7.8074191 6.19882645 3.66235352 6.15087891 C2.25500351 6.13087301 0.84773547 6.10365884 -0.55932617 6.06884766 C-11.44448639 5.63646308 -11.44448639 5.63646308 -20.90478516 10.37060547 C-23.29577586 12.9592094 -23.29577586 12.9592094 -24.90478516 15.37060547 C-25.19829391 12.31811446 -25.32024217 9.41553724 -24.90478516 6.37060547 C-18.57284358 -0.89250399 -8.83520724 -0.00196294 0 0 Z " fill="#DFEEF3" transform="translate(24.90478515625,52.62939453125)"/>
<path d="M0 0 C0.68326859 -0.0038269 1.36653717 -0.00765381 2.07051086 -0.01159668 C3.51536533 -0.01431344 4.96026918 -0.00696843 6.4050293 0.00976562 C8.58953152 0.03101894 10.77068337 0.01004762 12.95507812 -0.015625 C20.52354644 -0.03034944 27.40230143 0.21363757 33.92578125 4.53125 C35.92578125 6.53125 35.92578125 6.53125 36.12109375 8.6953125 C36.09789062 9.50742187 36.0746875 10.31953125 36.05078125 11.15625 C36.03273437 11.97351563 36.0146875 12.79078125 35.99609375 13.6328125 C35.97289062 14.25929688 35.9496875 14.88578125 35.92578125 15.53125 C35.41015625 14.78875 34.89453125 14.04625 34.36328125 13.28125 C30.44530347 8.86096738 27.42973707 6.76777591 21.54516602 6.21191406 C17.51849302 6.13765217 13.5133979 6.18166723 9.48828125 6.28125 C8.07489504 6.3013417 6.66148132 6.31958777 5.24804688 6.3359375 C1.80671442 6.37973183 -1.6335745 6.44861097 -5.07421875 6.53125 C-5.17395727 10.51465305 -5.24609073 14.49756108 -5.29394531 18.48193359 C-5.3236792 20.49472627 -5.37453604 22.50717134 -5.42578125 24.51953125 C-5.50113209 32.0169399 -5.29421645 37.23183315 -1.07421875 43.53125 C1.49387953 45.9908274 1.49387953 45.9908274 3.92578125 47.53125 C0.87329024 47.82475875 -2.02928698 47.94670701 -5.07421875 47.53125 C-9.49366948 43.67839552 -10.89652136 38.70572846 -11.36474609 32.97607422 C-11.44558503 26.05087209 -11.44558503 26.05087209 -11.44482422 22.62646484 C-11.44922091 20.40515762 -11.48566107 18.1858033 -11.5234375 15.96484375 C-11.52930239 14.54688175 -11.53327398 13.12891038 -11.53515625 11.7109375 C-11.54337402 10.42944824 -11.5515918 9.14795898 -11.56005859 7.82763672 C-11.07421875 4.53125 -11.07421875 4.53125 -9.48754883 2.11572266 C-6.20763529 -0.03770565 -3.90978131 0.01397331 0 0 Z " fill="#F8FEFC" transform="translate(64.07421875,52.46875)"/>
<path d="M0 0 C1.21236328 0.04060547 1.21236328 0.04060547 2.44921875 0.08203125 C3.06410156 0.11683594 3.67898437 0.15164063 4.3125 0.1875 C3.57 0.703125 2.8275 1.21875 2.0625 1.75 C-2.35778262 5.66797778 -4.45097409 8.68354418 -5.00683594 14.56811523 C-5.08109783 18.59478823 -5.03708277 22.59988335 -4.9375 26.625 C-4.9174083 28.03838621 -4.89916223 29.45179993 -4.8828125 30.86523438 C-4.83901817 34.30656683 -4.77013903 37.74685575 -4.6875 41.1875 C-0.54327739 41.28703791 3.60029575 41.35927901 7.74536133 41.40722656 C9.15271134 41.42723246 10.55997938 41.45444662 11.96704102 41.48925781 C22.85220123 41.92164239 22.85220123 41.92164239 32.3125 37.1875 C34.7034907 34.59889607 34.7034907 34.59889607 36.3125 32.1875 C36.60600875 35.23999101 36.72795701 38.14256823 36.3125 41.1875 C32.45964552 45.60695073 27.48697846 47.00980261 21.75732422 47.47802734 C14.83212209 47.55886628 14.83212209 47.55886628 11.40771484 47.55810547 C9.18640762 47.56250216 6.9670533 47.59894232 4.74609375 47.63671875 C3.32813175 47.64258364 1.91016038 47.64655523 0.4921875 47.6484375 C-0.78930176 47.65665527 -2.07079102 47.66487305 -3.39111328 47.67333984 C-6.6875 47.1875 -6.6875 47.1875 -9.10522461 45.60302734 C-11.26319847 42.30862935 -11.18932407 40.00165139 -11.18359375 36.078125 C-11.18504898 35.39248474 -11.18650421 34.70684448 -11.18800354 34.00042725 C-11.1863469 32.55134836 -11.17481152 31.10225145 -11.15405273 29.65332031 C-11.12527147 27.45820434 -11.13341171 25.26553338 -11.14648438 23.0703125 C-11.12399251 7.13516359 -11.12399251 7.13516359 -6.22509766 1.50756836 C-4.11179124 -0.30676124 -2.73866034 -0.11907219 0 0 Z " fill="#F9FEFB" transform="translate(63.6875,-0.1875)"/>
<path d="M0 0 C3.05298759 -0.2935565 5.95673266 -0.43550205 9 0 C12.47750962 3.30363414 13.94616133 5.80518948 14.16113281 10.57592773 C14.18131995 12.11174752 14.1948581 13.64766354 14.203125 15.18359375 C14.20882507 15.9949025 14.21452515 16.80621124 14.22039795 17.6421051 C14.22984986 19.35945327 14.23638269 21.07681959 14.24023438 22.79418945 C14.24994887 25.42366049 14.28097318 28.05235283 14.3125 30.68164062 C14.31902918 32.34895368 14.32427998 34.01627234 14.328125 35.68359375 C14.3404718 36.47116562 14.3528186 37.25873749 14.36553955 38.07017517 C14.35353012 41.00775103 14.33829966 43.38544987 12.90185547 45.99487305 C10.00263243 47.52710684 7.50569524 47.38942821 4.2421875 47.3984375 C3.57970001 47.40130768 2.91721252 47.40417786 2.23464966 47.40713501 C0.8309036 47.40917555 -0.5728709 47.40364624 -1.9765625 47.39111328 C-4.09702545 47.37520981 -6.21553782 47.39087989 -8.3359375 47.41015625 C-24.97422632 47.43811976 -24.97422632 47.43811976 -30.71264648 42.53735352 C-32.48498028 40.42083808 -32.30559251 39.02862776 -32.1875 36.3125 C-32.16042969 35.50425781 -32.13335937 34.69601563 -32.10546875 33.86328125 C-32.07066406 33.24839844 -32.03585938 32.63351563 -32 32 C-31.484375 32.7425 -30.96875 33.485 -30.4375 34.25 C-26.51952222 38.67028262 -23.50395582 40.76347409 -17.61938477 41.31933594 C-13.59271177 41.39359783 -9.58761665 41.34958277 -5.5625 41.25 C-4.14911379 41.2299083 -2.73570007 41.21166223 -1.32226562 41.1953125 C2.11906683 41.15151817 5.55935575 41.08263903 9 41 C9.09953791 36.85577739 9.17177901 32.71220425 9.21972656 28.56713867 C9.23973246 27.15978866 9.26694662 25.75252062 9.30175781 24.34545898 C9.73414239 13.46029877 9.73414239 13.46029877 5 4 C2.41139607 1.6090093 2.41139607 1.6090093 0 0 Z " fill="#EEF9F1" transform="translate(32,0)"/>
<path d="M0 0 C0.33 0 0.66 0 1 0 C1 5.94 1 11.88 1 18 C-1.64 16.68 -4.28 15.36 -7 14 C-12.33010028 12.22329991 -18.09586419 12.77440052 -23.6784668 12.75976562 C-25.92599352 12.75004974 -28.17260926 12.71901013 -30.41992188 12.6875 C-31.85155708 12.6809704 -33.28319881 12.67571976 -34.71484375 12.671875 C-36.01542725 12.6625293 -37.31601074 12.65318359 -38.65600586 12.64355469 C-42.14277312 13.01521857 -43.50615372 13.61139427 -46 16 C-46 14.68 -46 13.36 -46 12 C-42.93405406 10.46702703 -39.72888147 10.87868545 -36.3671875 10.90234375 C-35.23943405 10.90446617 -35.23943405 10.90446617 -34.08889771 10.90663147 C-31.6842249 10.91223535 -29.27964473 10.92478843 -26.875 10.9375 C-25.24609509 10.9425145 -23.61718873 10.9470775 -21.98828125 10.95117188 C-17.99215173 10.96220603 -13.99609158 10.97947321 -10 11 C-10.66 9.68 -11.32 8.36 -12 7 C-11.34 7 -10.68 7 -10 7 C-10 6.34 -10 5.68 -10 5 C-9.36191406 4.72285156 -8.72382812 4.44570313 -8.06640625 4.16015625 C-7.24011719 3.79792969 -6.41382813 3.43570313 -5.5625 3.0625 C-4.73878906 2.70285156 -3.91507813 2.34320313 -3.06640625 1.97265625 C-1.05589883 1.16877677 -1.05589883 1.16877677 0 0 Z " fill="#085296" transform="translate(99,41)"/>
<path d="M0 0 C0 9.57 0 19.14 0 29 C9.57 29 19.14 29 29 29 C27.9957244 34.02137798 27.60239038 34.86243419 24 38 C23.505 35.03 23.505 35.03 23 32 C15.08 31.67 7.16 31.34 -1 31 C-2.31361698 28.37276604 -2.21253909 26.27389439 -2.31640625 23.3359375 C-2.37924805 21.65371094 -2.37924805 21.65371094 -2.44335938 19.9375 C-2.48267578 18.761875 -2.52199219 17.58625 -2.5625 16.375 C-2.62727539 14.59996094 -2.62727539 14.59996094 -2.69335938 12.7890625 C-2.79967426 9.85949672 -2.90170642 6.92984412 -3 4 C-4.98 4.66 -6.96 5.32 -9 6 C-9 6.99 -9 7.98 -9 9 C-9.99 9.33 -10.98 9.66 -12 10 C-10.64717831 5.57258356 -8.76701112 3.63690779 -5 1 C-3 0 -3 0 0 0 Z " fill="#6DA668" transform="translate(71,0)"/>
<path d="M0 0 C0.33 0 0.66 0 1 0 C1.33 8.25 1.66 16.5 2 25 C3.58403524 23.41596476 3.21974935 21.7228362 3.31640625 19.52734375 C3.35830078 18.62822266 3.40019531 17.72910156 3.44335938 16.80273438 C3.48267578 15.85720703 3.52199219 14.91167969 3.5625 13.9375 C3.60568359 12.98810547 3.64886719 12.03871094 3.69335938 11.06054688 C3.79979276 8.70718647 3.90181008 6.35371646 4 4 C4.33 4 4.66 4 5 4 C5.0093457 4.77601562 5.01869141 5.55203125 5.02832031 6.3515625 C5.08233437 9.90166287 5.16592303 13.45048948 5.25 17 C5.26417969 18.22074219 5.27835938 19.44148438 5.29296875 20.69921875 C5.48730799 27.88977056 6.05992835 32.91606584 10 39 C12.56809828 41.4595774 12.56809828 41.4595774 15 43 C11.94750899 43.29350875 9.04493177 43.41545701 6 43 C2.42235721 39.88102937 1.24897414 36.49910758 0 32 C-0.15839988 29.47548068 -0.21554772 26.94346536 -0.1953125 24.4140625 C-0.19106766 23.36138687 -0.19106766 23.36138687 -0.18673706 22.28744507 C-0.17562512 20.06644972 -0.15053834 17.84587155 -0.125 15.625 C-0.11495854 14.11068295 -0.10583473 12.59635951 -0.09765625 11.08203125 C-0.07571554 7.38788742 -0.04124875 3.69398449 0 0 Z " fill="#C9E3E5" transform="translate(53,57)"/>
<path d="M0 0 C0.99 0 1.98 0 3 0 C3.07453622 4.1625612 3.12878254 8.3247618 3.16479492 12.48779297 C3.17981825 13.90192437 3.20024305 15.31600968 3.22631836 16.72998047 C3.26298954 18.77062397 3.27979036 20.81064792 3.29296875 22.8515625 C3.31653442 24.68968506 3.31653442 24.68968506 3.34057617 26.56494141 C2.87101053 31.30099053 1.3655777 34.6344223 -2 38 C-4.1640625 38.1953125 -4.1640625 38.1953125 -6.625 38.125 C-7.44226562 38.10695312 -8.25953125 38.08890625 -9.1015625 38.0703125 C-9.72804687 38.04710937 -10.35453125 38.02390625 -11 38 C-10.278125 37.484375 -9.55625 36.96875 -8.8125 36.4375 C-4.43406305 32.64285464 -1.43238553 29.7053397 -0.50463867 23.90063477 C-0.28514875 20.28120294 -0.20461249 16.68844585 -0.1875 13.0625 C-0.16236328 11.80630859 -0.13722656 10.55011719 -0.11132812 9.25585938 C-0.0526665 6.1702577 -0.01623074 3.08606812 0 0 Z " fill="#EEF9F4" transform="translate(43,62)"/>
<path d="M0 0 C5.37985925 1.07597185 6.48487252 2.08314366 10 6 C9.34 6.33 8.68 6.66 8 7 C7.505 6.01 7.505 6.01 7 5 C5.68 4.67 4.36 4.34 3 4 C3 12.25 3 20.5 3 29 C2.34 29 1.68 29 1 29 C1 29.66 1 30.32 1 31 C-12.365 31.495 -12.365 31.495 -26 32 C-25.34 33.98 -24.68 35.96 -24 38 C-27.60239038 34.86243419 -27.9957244 34.02137798 -29 29 C-19.43 29 -9.86 29 0 29 C0 19.43 0 9.86 0 0 Z " fill="#6FA76B" transform="translate(29,0)"/>
<path d="M0 0 C0.66 0 1.32 0 2 0 C2 0.66 2 1.32 2 2 C1.01 2.495 1.01 2.495 0 3 C-0.65213292 5.02463255 -0.65213292 5.02463255 -1 7 C-0.25314941 7.02505615 0.49370117 7.0501123 1.26318359 7.07592773 C4.63397267 7.19168213 8.00446783 7.31450128 11.375 7.4375 C12.550625 7.47681641 13.72625 7.51613281 14.9375 7.55664062 C16.61972656 7.61948242 16.61972656 7.61948242 18.3359375 7.68359375 C19.89127197 7.73858032 19.89127197 7.73858032 21.47802734 7.79467773 C24 8 24 8 26 9 C26.01981934 9.80743652 26.03963867 10.61487305 26.06005859 11.44677734 C26.15505899 15.08985875 26.26483912 18.73234686 26.375 22.375 C26.4059375 23.64601563 26.436875 24.91703125 26.46875 26.2265625 C26.50742187 27.43828125 26.54609375 28.65 26.5859375 29.8984375 C26.63306885 31.57945557 26.63306885 31.57945557 26.68115234 33.29443359 C26.73411203 36.14710412 26.73411203 36.14710412 29 38 C26.525 38.495 26.525 38.495 24 39 C24 29.43 24 19.86 24 10 C14.43 10 4.86 10 -5 10 C-4.01948361 5.09741806 -3.30095776 3.5010158 0 0 Z " fill="#6EA669" transform="translate(5,61)"/>
<path d="M0 0 C0.515625 0.7425 1.03125 1.485 1.5625 2.25 C5.40993247 6.59069305 8.54304991 8.69121596 14.28686523 9.41308594 C18.17179322 9.61695527 22.04840797 9.70956209 25.9375 9.75 C27.30277167 9.77819671 28.66800865 9.80812926 30.03320312 9.83984375 C33.35552794 9.91028173 36.67716136 9.96311137 40 10 C40 10.33 40 10.66 40 11 C30.76 11 21.52 11 12 11 C12 11.66 12 12.32 12 13 C22.23 13.33 32.46 13.66 43 14 C43 14.33 43 14.66 43 15 C38.74995329 15.07485856 34.50026866 15.12893167 30.24975586 15.16479492 C28.80763045 15.17976508 27.36554964 15.20014868 25.92358398 15.22631836 C7.16224851 15.55797455 7.16224851 15.55797455 1.28808594 10.53662109 C-0.48553528 8.42078107 -0.30560132 7.02883025 -0.1875 4.3125 C-0.16042969 3.50425781 -0.13335938 2.69601563 -0.10546875 1.86328125 C-0.07066406 1.24839844 -0.03585937 0.63351563 0 0 Z " fill="#CFE6E7" transform="translate(0,32)"/>
<path d="M0 0 C4.39243685 -0.09976706 8.78425272 -0.17188558 13.17749023 -0.21972656 C14.66816718 -0.23969458 16.1587673 -0.2668792 17.64916992 -0.30175781 C34.03336242 -0.67524929 34.03336242 -0.67524929 41 4 C43 6 43 6 43.1953125 8.1640625 C43.17210937 8.97617187 43.14890625 9.78828125 43.125 10.625 C43.10695312 11.44226563 43.08890625 12.25953125 43.0703125 13.1015625 C43.04710937 13.72804688 43.02390625 14.35453125 43 15 C42.484375 14.2575 41.96875 13.515 41.4375 12.75 C37.64107631 8.46685532 34.47247546 6.31985844 28.80688477 5.58691406 C25.05527852 5.38323445 21.31934055 5.2917216 17.5625 5.25 C16.25861328 5.22035156 14.95472656 5.19070312 13.61132812 5.16015625 C10.40749083 5.08974224 7.20436945 5.03690131 4 5 C4 4.67 4 4.34 4 4 C13.57 4 23.14 4 33 4 C33 3.34 33 2.68 33 2 C22.11 1.67 11.22 1.34 0 1 C0 0.67 0 0.34 0 0 Z " fill="#B9D9DE" transform="translate(57,53)"/>
<path d="M0 0 C0.33 0 0.66 0 1 0 C1.0246826 4.94791294 1.04285166 9.8957902 1.05493164 14.84375 C1.05996653 16.52767562 1.06679481 18.21159686 1.07543945 19.89550781 C1.08754196 22.31316203 1.09323668 24.73075856 1.09765625 27.1484375 C1.10281754 27.9036972 1.10797882 28.65895691 1.11329651 29.43710327 C1.11387171 34.77225659 1.11387171 34.77225659 0 37 C-4.3782512 37.02469081 -8.75646567 37.04285557 -13.13476562 37.05493164 C-14.62468166 37.05996514 -16.11459274 37.06679242 -17.60449219 37.07543945 C-19.74415304 37.08754805 -21.88374868 37.09323807 -24.0234375 37.09765625 C-25.31169434 37.10289307 -26.59995117 37.10812988 -27.92724609 37.11352539 C-31 37 -31 37 -33 36 C-33 35.34 -33 34.68 -33 34 C-28.92539339 33.80747493 -24.85043787 33.62879622 -20.7746582 33.46289062 C-19.38842526 33.40451609 -18.00234577 33.34236976 -16.61645508 33.27636719 C-14.62365488 33.18211795 -12.63017597 33.1025822 -10.63671875 33.0234375 C-9.43748779 32.97106934 -8.23825684 32.91870117 -7.00268555 32.86474609 C-4 33 -4 33 -1 35 C-0.67 23.45 -0.34 11.9 0 0 Z " fill="#F4FEFD" transform="translate(45,9)"/>
<path d="M0 0 C1.65 0 3.3 0 5 0 C6.48679725 2.97359449 6.11112605 5.66299179 6.09765625 8.9765625 C6.0962413 9.66181 6.09482635 10.3470575 6.09336853 11.05307007 C6.08776675 13.24375761 6.07521406 15.4343433 6.0625 17.625 C6.05748522 19.10937352 6.05292228 20.59374865 6.04882812 22.078125 C6.03779677 25.71878315 6.02053099 29.35938164 6 33 C5.67 33 5.34 33 5 33 C4.505 20.625 4.505 20.625 4 8 C3.67 8 3.34 8 3 8 C2.67 16.58 2.34 25.16 2 34 C1.01 34.495 1.01 34.495 0 35 C0 24.77 0 14.54 0 4 C-12.87 3.505 -12.87 3.505 -26 3 C-26 2.67 -26 2.34 -26 2 C-17.42 2 -8.84 2 0 2 C0 1.34 0 0.68 0 0 Z " fill="#C8E2DF" transform="translate(41,55)"/>
<path d="M0 0 C0.33 0 0.66 0 1 0 C1.02505615 0.91813477 1.0501123 1.83626953 1.07592773 2.78222656 C1.1712027 6.19657025 1.27042778 9.61075203 1.37231445 13.02490234 C1.41556035 14.5010939 1.45724256 15.97733215 1.49731445 17.45361328 C1.55526846 19.57859348 1.61888946 21.70334093 1.68359375 23.828125 C1.72025146 25.1059082 1.75690918 26.38369141 1.79467773 27.70019531 C1.97665908 31.45023458 1.97665908 31.45023458 3 35 C6.36551123 36.12183708 9.09060232 36.20800968 12.63671875 36.31640625 C13.93544922 36.35830078 15.23417969 36.40019531 16.57226562 36.44335938 C17.94400761 36.48316987 19.31575244 36.52288216 20.6875 36.5625 C22.07097645 36.60570835 23.45444027 36.64932339 24.83789062 36.69335938 C28.22515719 36.79958028 31.61249799 36.90162358 35 37 C35 37.33 35 37.66 35 38 C30.51601216 38.09903473 26.03260708 38.17154483 21.54785156 38.21972656 C20.02299915 38.23981599 18.49822352 38.26709316 16.97363281 38.30175781 C14.77910402 38.35039796 12.58559531 38.37299396 10.390625 38.390625 C8.4111084 38.4220459 8.4111084 38.4220459 6.39160156 38.45410156 C3 38 3 38 0.56469727 36.43310547 C-1.59985879 33.06721911 -1.47023901 30.66418316 -1.42578125 26.6796875 C-1.42249313 25.9798172 -1.41920502 25.2799469 -1.41581726 24.55886841 C-1.40542149 23.08456067 -1.38551371 21.61029307 -1.35668945 20.13623047 C-1.31251463 17.87574873 -1.29523682 15.61632923 -1.28320312 13.35546875 C-1.18027398 2.36054795 -1.18027398 2.36054795 0 0 Z " fill="#AFCFE7" transform="translate(54,9)"/>
<path d="M0 0 C1.94518337 2.91777506 3.46061249 5.8542951 5 9 C5.33 9.66 5.66 10.32 6 11 C0.06 11 -5.88 11 -12 11 C-10.35 7.7 -8.7 4.4 -7 1 C-6.67 1.99 -6.34 2.98 -6 4 C-4.35 4 -2.7 4 -1 4 C-0.67 2.68 -0.34 1.36 0 0 Z " fill="#1B609C" transform="translate(53,89)"/>
<path d="M0 0 C0.33 0 0.66 0 1 0 C1.29353437 3.05275741 1.41995977 5.95529165 1 9 C-1.94499841 12.36571246 -4.59544915 13.49662276 -9 14 C-9 13.01 -9 12.02 -9 11 C-18.57 11 -28.14 11 -38 11 C-38 10.67 -38 10.34 -38 10 C-37.18845459 9.9906543 -36.37690918 9.98130859 -35.54077148 9.97167969 C-31.83907953 9.9177677 -28.1386228 9.83415801 -24.4375 9.75 C-22.52227539 9.72873047 -22.52227539 9.72873047 -20.56835938 9.70703125 C-13.598299 9.52599072 -8.58196441 9.36919228 -3 5 C-1.13689678 2.39975951 -1.13689678 2.39975951 0 0 Z " fill="#E6F6EA" transform="translate(99,32)"/>
<path d="M0 0 C1.21236328 0.04060547 1.21236328 0.04060547 2.44921875 0.08203125 C3.06410156 0.11683594 3.67898437 0.15164063 4.3125 0.1875 C3.57 0.703125 2.8275 1.21875 2.0625 1.75 C-2.27819305 5.59743247 -4.37871596 8.73054991 -5.10058594 14.47436523 C-5.30445527 18.35929322 -5.39706209 22.23590797 -5.4375 26.125 C-5.46569671 27.49027167 -5.49562926 28.85550865 -5.52734375 30.22070312 C-5.59778173 33.54302794 -5.65061137 36.86466136 -5.6875 40.1875 C-6.0175 40.1875 -6.3475 40.1875 -6.6875 40.1875 C-6.6875 29.9575 -6.6875 19.7275 -6.6875 9.1875 C-7.6775 9.1875 -8.6675 9.1875 -9.6875 9.1875 C-7.948784 3.16886769 -6.71874912 -0.29211953 0 0 Z " fill="#E5F6EA" transform="translate(63.6875,-0.1875)"/>
<path d="M0 0 C5.05041385 2.06607839 7.39665775 4.1938297 10 9 C10 9.99 10 10.98 10 12 C0.43 12 -9.14 12 -19 12 C-19 11.34 -19 10.68 -19 10 C-10.42 10 -1.84 10 7 10 C6.34 8.02 5.68 6.04 5 4 C4.01 4 3.02 4 2 4 C2 3.34 2 2.68 2 2 C1.34 2 0.68 2 0 2 C0 1.34 0 0.68 0 0 Z " fill="#70A86B" transform="translate(90,59)"/>
<path d="M0 0 C0.66 0 1.32 0 2 0 C2 9.57 2 19.14 2 29 C-3.02137798 27.9957244 -3.86243419 27.60239038 -7 24 C-5.02 24.66 -3.04 25.32 -1 26 C-0.67 17.42 -0.34 8.84 0 0 Z " fill="#6EA668" transform="translate(69,71)"/>
<path d="M0 0 C0.99 0 1.98 0 3 0 C3 9.57 3 19.14 3 29 C2.67 29 2.34 29 2 29 C1.67 26.69 1.34 24.38 1 22 C0.67 22 0.34 22 0 22 C0 14.74 0 7.48 0 0 Z " fill="#F6FEFE" transform="translate(43,62)"/>
<path d="M0 0 C0.66 1.65 1.32 3.3 2 5 C1.34 5 0.68 5 0 5 C-0.3916333 4.51321777 -0.7832666 4.02643555 -1.18676758 3.52490234 C-3.97523913 1.17983794 -6.42424714 1.61109098 -10.01171875 1.6015625 C-10.69877396 1.59869232 -11.38582916 1.59582214 -12.09370422 1.59286499 C-13.5487246 1.59082448 -15.00377241 1.59635359 -16.45874023 1.60888672 C-18.66258939 1.6248199 -20.86457033 1.60910376 -23.06835938 1.58984375 C-31.26305167 1.57843004 -37.57366595 2.28683297 -45 6 C-45 4.35 -45 2.7 -45 1 C-39.59878711 -0.8004043 -33.78170475 -0.43419845 -28.125 -0.625 C-26.86429688 -0.6765625 -25.60359375 -0.728125 -24.3046875 -0.78125 C-16.12405409 -1.06740384 -8.144721 -0.81705227 0 0 Z " fill="#0F508B" transform="translate(46,52)"/>
<path d="M0 0 C5.94 0 11.88 0 18 0 C18 0.33 18 0.66 18 1 C13.38 1 8.76 1 4 1 C4.99 2.65 5.98 4.3 7 6 C7.18505535 8.948718 7.21400477 11.65021773 7.07421875 14.58203125 C7.04777786 15.39621017 7.02133698 16.2103891 6.99409485 17.04924011 C6.9066502 19.63776641 6.79739322 22.2248392 6.6875 24.8125 C6.62420791 26.57221431 6.56234299 28.33198057 6.50195312 30.09179688 C6.35116111 34.39530844 6.18080829 38.69764925 6 43 C5.67 43 5.34 43 5 43 C4.98598145 41.41916626 4.98598145 41.41916626 4.97167969 39.80639648 C4.93160911 35.8717321 4.86580448 31.93783566 4.79248047 28.00366211 C4.76436929 26.30552078 4.74310598 24.60725099 4.72900391 22.90893555 C4.70743648 20.45815743 4.66071994 18.00890764 4.609375 15.55859375 C4.60814636 14.80726669 4.60691772 14.05593964 4.60565186 13.28184509 C4.58593323 12.56162674 4.5662146 11.84140839 4.54589844 11.09936523 C4.53701599 10.47537338 4.52813354 9.85138153 4.51898193 9.20848083 C3.88020189 6.02021139 3.88020189 6.02021139 0 0 Z " fill="#5990C0" transform="translate(41,0)"/>
<path d="M0 0 C0.33 0 0.66 0 1 0 C1 5.94 1 11.88 1 18 C0.67 18 0.34 18 0 18 C-0.33 13.71 -0.66 9.42 -1 5 C-2.98 5.66 -4.96 6.32 -7 7 C-7 7.66 -7 8.32 -7 9 C-8.65 8.67 -10.3 8.34 -12 8 C-11.34 7.67 -10.68 7.34 -10 7 C-10 6.34 -10 5.68 -10 5 C-9.36191406 4.72285156 -8.72382812 4.44570313 -8.06640625 4.16015625 C-7.24011719 3.79792969 -6.41382812 3.43570313 -5.5625 3.0625 C-4.73878906 2.70285156 -3.91507813 2.34320313 -3.06640625 1.97265625 C-1.05589883 1.16877677 -1.05589883 1.16877677 0 0 Z " fill="#2A6AA3" transform="translate(99,41)"/>
<path d="M0 0 C4.50374532 -0.36516854 4.50374532 -0.36516854 6.65625 1.21875 C8.39217091 3.51985446 8.31131194 4.83982544 8.1875 7.6875 C8.16042969 8.49574219 8.13335937 9.30398437 8.10546875 10.13671875 C8.07066406 10.75160156 8.03585938 11.36648437 8 12 C7.4225 11.2575 6.845 10.515 6.25 9.75 C4.10390345 7.00740053 4.10390345 7.00740053 1.75 4.875 C0 3 0 3 0 0 Z " fill="#EEFAF3" transform="translate(92,56)"/>
<path d="M0 0 C0.99245476 0.00212242 0.99245476 0.00212242 2.00495911 0.00428772 C4.11402953 0.00987629 6.22299302 0.0224266 8.33203125 0.03515625 C9.76367034 0.04017273 11.1953111 0.04473538 12.62695312 0.04882812 C16.13284713 0.05984195 19.63867875 0.0770987 23.14453125 0.09765625 C23.14453125 0.42765625 23.14453125 0.75765625 23.14453125 1.09765625 C13.90453125 1.09765625 4.66453125 1.09765625 -4.85546875 1.09765625 C-4.85546875 2.08765625 -4.85546875 3.07765625 -4.85546875 4.09765625 C-6.50546875 4.09765625 -8.15546875 4.09765625 -9.85546875 4.09765625 C-9.85546875 3.10765625 -9.85546875 2.11765625 -9.85546875 1.09765625 C-6.37764292 -0.06161903 -3.66743618 -0.01547441 0 0 Z " fill="#4E8D47" transform="translate(17.85546875,57.90234375)"/>
<path d="M0 0 C1.12775345 0.00212242 1.12775345 0.00212242 2.27828979 0.00428772 C4.6829626 0.0098916 7.08754277 0.02244468 9.4921875 0.03515625 C11.12109241 0.04017075 12.74999877 0.04473375 14.37890625 0.04882812 C18.37503577 0.05986228 22.37109592 0.07712946 26.3671875 0.09765625 C26.3671875 0.42765625 26.3671875 0.75765625 26.3671875 1.09765625 C25.41875977 1.11223877 24.47033203 1.12682129 23.49316406 1.1418457 C19.9667081 1.20298189 16.44102307 1.27714755 12.91503906 1.36010742 C11.3904041 1.39331505 9.86564744 1.42136003 8.34082031 1.4440918 C6.14595796 1.47771583 3.95220662 1.53003167 1.7578125 1.5859375 C0.43813477 1.61212158 -0.88154297 1.63830566 -2.24121094 1.6652832 C-5.71947971 2.10870488 -7.13472777 2.71337316 -9.6328125 5.09765625 C-9.6328125 3.77765625 -9.6328125 2.45765625 -9.6328125 1.09765625 C-6.56686656 -0.43531672 -3.36169397 -0.0236583 0 0 Z " fill="#13548A" transform="translate(62.6328125,51.90234375)"/>
<path d="M0 0 C3.465 1.98 3.465 1.98 7 4 C9.77138597 4.77485832 9.77138597 4.77485832 12 5 C12 5.33 12 5.66 12 6 C8.7 6 5.4 6 2 6 C1.67 9.96 1.34 13.92 1 18 C0.67 18 0.34 18 0 18 C0 12.06 0 6.12 0 0 Z " fill="#3070A9" transform="translate(0,41)"/>
<path d="M0 0 C1.33617352 0.97528737 2.6688751 1.95533319 4 2.9375 C5.11375 3.75541016 5.11375 3.75541016 6.25 4.58984375 C6.8275 5.05519531 7.405 5.52054687 8 6 C8 6.33 8 6.66 8 7 C4.96663814 7.22893297 2.02534949 7.36475845 -1 7 C-3.0625 5 -3.0625 5 -4 3 C-2.68 2.01 -1.36 1.02 0 0 Z " fill="#EAF8EF" transform="translate(60,93)"/>
<path d="M0 0 C0.8353125 0.37125 0.8353125 0.37125 1.6875 0.75 C-4.0625 4.75 -4.0625 4.75 -6.3125 4.75 C-6.3125 5.74 -6.3125 6.73 -6.3125 7.75 C-7.3025 8.08 -8.2925 8.41 -9.3125 8.75 C-7.925165 4.2096309 -5.3700603 -0.58054706 0 0 Z " fill="#5F9858" transform="translate(68.3125,1.25)"/>
<path d="M0 0 C0.33 0.99 0.66 1.98 1 3 C-2.21311475 8.73770492 -2.21311475 8.73770492 -6 10 C-5.58578031 5.16743695 -3.53586014 3.17320782 0 0 Z " fill="#51954C" transform="translate(40,88)"/>
<path d="M0 0 C0.66 0.33 1.32 0.66 2 1 C0.515 2.485 0.515 2.485 -1 4 C-0.01 4.66 0.98 5.32 2 6 C0.35 6.33 -1.3 6.66 -3 7 C-3 6.01 -3 5.02 -3 4 C-4.65 4 -6.3 4 -8 4 C-6.66666667 3.33333333 -5.33333333 2.66666667 -4 2 C-3.29875 1.608125 -2.5975 1.21625 -1.875 0.8125 C-1.25625 0.544375 -0.6375 0.27625 0 0 Z " fill="#E2F5ED" transform="translate(93,39)"/>
<path d="M0 0 C4.00180712 1.77858094 6.76459712 3.15013949 9 7 C9 7.66 9 8.32 9 9 C8.01 8.67 7.02 8.34 6 8 C5.3125 5.9375 5.3125 5.9375 5 4 C4.01 4 3.02 4 2 4 C2 3.34 2 2.68 2 2 C1.34 2 0.68 2 0 2 C0 1.34 0 0.68 0 0 Z " fill="#5A9654" transform="translate(90,59)"/>
<path d="M0 0 C-0.66 0 -1.32 0 -2 0 C-2 0.99 -2 1.98 -2 3 C-3.65 3 -5.3 3 -7 3 C-7 2.01 -7 1.02 -7 0 C-3.86650268 -1.04449911 -3.01031744 -0.93423645 0 0 Z " fill="#579952" transform="translate(15,59)"/>
<path d="M0 0 C3.93673644 1.31224548 6.22719294 2.91910327 9 6 C8.01 6.495 8.01 6.495 7 7 C6.67 6.34 6.34 5.68 6 5 C3.97536745 4.34786708 3.97536745 4.34786708 2 4 C2 3.34 2 2.68 2 2 C1.34 2 0.68 2 0 2 C0 1.34 0 0.68 0 0 Z " fill="#5F9B57" transform="translate(30,0)"/>
</svg>
