<?xml version="1.0" encoding="UTF-8"?>
<!DOCTYPE svg PUBLIC "-//W3C//DTD SVG 1.1//EN" "http://www.w3.org/Graphics/SVG/1.1/DTD/svg11.dtd">
<svg xmlns="http://www.w3.org/2000/svg" version="1.1" width="200px" height="200px" style="shape-rendering:geometricPrecision; text-rendering:geometricPrecision; image-rendering:optimizeQuality; fill-rule:evenodd; clip-rule:evenodd" xmlns:xlink="http://www.w3.org/1999/xlink">
<g><path style="opacity:1" fill="#531d3f" d="M -0.5,-0.5 C 66.1667,-0.5 132.833,-0.5 199.5,-0.5C 199.5,66.1667 199.5,132.833 199.5,199.5C 132.833,199.5 66.1667,199.5 -0.5,199.5C -0.5,132.833 -0.5,66.1667 -0.5,-0.5 Z"/></g>
<g><path style="opacity:1" fill="#88532d" d="M 36.5,61.5 C 40.9811,60.3516 45.6478,60.1849 50.5,61C 51.9423,61.3768 52.9423,62.2101 53.5,63.5C 47.9895,61.7897 42.3228,61.123 36.5,61.5 Z"/></g>
<g><path style="opacity:1" fill="#f3c916" d="M 36.5,61.5 C 42.3228,61.123 47.9895,61.7897 53.5,63.5C 59.8343,66.8375 64.8343,71.5041 68.5,77.5C 68.5,78.1667 68.5,78.8333 68.5,79.5C 69.2745,84.7968 69.6079,90.1301 69.5,95.5C 68.5941,99.2203 66.9274,102.554 64.5,105.5C 60.5768,103.474 59.5768,100.474 61.5,96.5C 64.3343,90.6674 64.001,85.0008 60.5,79.5C 56.5862,73.8682 51.2529,70.2016 44.5,68.5C 39.8414,66.8336 35.5081,67.5003 31.5,70.5C 28.883,71.7859 26.5496,73.4525 24.5,75.5C 22.4383,77.4101 20.9383,79.7435 20,82.5C 19.1864,87.0204 19.353,91.3537 20.5,95.5C 26.0417,110.848 36.5417,115.515 52,109.5C 57.1493,111.218 57.6493,113.551 53.5,116.5C 34.4248,122.795 20.7581,116.795 12.5,98.5C 11.3611,92.8054 11.3611,87.1387 12.5,81.5C 16.5149,70.1593 24.5149,63.4926 36.5,61.5 Z"/></g>
<g><path style="opacity:1" fill="#784429" d="M 44.5,68.5 C 40.0192,68.4255 35.6859,69.0921 31.5,70.5C 35.5081,67.5003 39.8414,66.8336 44.5,68.5 Z"/></g>
<g><path style="opacity:1" fill="#6a362d" d="M 130.5,79.5 C 125.174,76.9058 119.841,76.9058 114.5,79.5C 114.47,78.5028 114.97,77.8361 116,77.5C 120.458,76.4206 124.958,76.2539 129.5,77C 130.252,77.6708 130.586,78.5041 130.5,79.5 Z"/></g>
<g><path style="opacity:1" fill="#693822" d="M 146.5,77.5 C 150.646,76.353 154.98,76.1864 159.5,77C 161.119,77.2355 162.119,78.0689 162.5,79.5C 157.337,77.8171 152.004,77.1504 146.5,77.5 Z"/></g>
<g><path style="opacity:1" fill="#925d2e" d="M 177.5,69.5 C 178.482,72.9619 178.815,76.6286 178.5,80.5C 180.415,80.2155 182.081,80.5489 183.5,81.5C 181.5,81.5 179.5,81.5 177.5,81.5C 177.5,77.5 177.5,73.5 177.5,69.5 Z"/></g>
<g><path style="opacity:1" fill="#57221b" d="M 169.5,76.5 C 169.334,85.5062 169.5,94.5062 170,103.5C 171.039,104.244 171.539,105.244 171.5,106.5C 170.542,106.047 169.708,105.381 169,104.5C 168.176,94.9908 168.342,85.6575 169.5,76.5 Z"/></g>
<g><path style="opacity:1" fill="#602c22" d="M 24.5,75.5 C 24.33,76.8221 24.6634,77.9887 25.5,79C 24.552,79.4828 23.552,79.6495 22.5,79.5C 20.7379,84.5962 20.0712,89.9295 20.5,95.5C 19.353,91.3537 19.1864,87.0204 20,82.5C 20.9383,79.7435 22.4383,77.4101 24.5,75.5 Z"/></g>
<g><path style="opacity:1" fill="#572328" d="M 12.5,81.5 C 11.3611,87.1387 11.3611,92.8054 12.5,98.5C 11.0568,99.3351 10.0568,100.668 9.5,102.5C 6.83333,100.833 6.83333,99.1667 9.5,97.5C 10.329,92.5329 10.829,87.5329 11,82.5C 11.3826,81.944 11.8826,81.6107 12.5,81.5 Z"/></g>
<g><path style="opacity:1" fill="#5a2532" d="M 162.5,79.5 C 163.5,79.5 164.5,79.5 165.5,79.5C 166.342,84.787 166.676,90.1203 166.5,95.5C 161.624,91.5162 155.958,89.1829 149.5,88.5C 149.167,87.8333 148.833,87.1667 148.5,86.5C 148.747,85.2867 149.414,84.62 150.5,84.5C 151.274,83.8529 152.274,83.5195 153.5,83.5C 157.934,86.8064 161.601,86.1397 164.5,81.5C 163.757,80.8182 163.091,80.1515 162.5,79.5 Z"/></g>
<g><path style="opacity:1" fill="#511d41" d="M 150.5,84.5 C 153.812,85.4847 157.146,86.4847 160.5,87.5C 156.665,88.8953 152.999,88.562 149.5,86.5C 149.863,85.8165 150.196,85.1499 150.5,84.5 Z"/></g>
<g><path style="opacity:1" fill="#f6cd13" d="M 130.5,79.5 C 131.167,79.8333 131.833,80.1667 132.5,80.5C 136.346,84.7055 138.013,89.7055 137.5,95.5C 129.833,95.5 122.167,95.5 114.5,95.5C 114.229,97.3797 114.896,98.713 116.5,99.5C 117.512,101.876 119.345,102.876 122,102.5C 124.484,102.503 126.651,101.837 128.5,100.5C 129.391,99.8902 130.391,99.5569 131.5,99.5C 132.685,100.857 133.685,102.357 134.5,104C 129.579,109.356 123.579,110.856 116.5,108.5C 114.632,107.737 112.965,106.737 111.5,105.5C 107.043,100.749 105.376,95.0824 106.5,88.5C 108.031,84.4035 110.697,81.4035 114.5,79.5C 119.841,76.9058 125.174,76.9058 130.5,79.5 Z"/></g>
<g><path style="opacity:1" fill="#844f10" d="M 115.5,87.5 C 117.223,88.8001 119.39,89.4668 122,89.5C 124.61,89.4668 126.777,88.8001 128.5,87.5C 129.404,88.209 129.737,89.209 129.5,90.5C 124.5,90.5 119.5,90.5 114.5,90.5C 114.263,89.209 114.596,88.209 115.5,87.5 Z"/></g>
<g><path style="opacity:1" fill="#572132" d="M 128.5,87.5 C 126.777,88.8001 124.61,89.4668 122,89.5C 119.39,89.4668 117.223,88.8001 115.5,87.5C 116.692,85.0777 118.692,84.0777 121.5,84.5C 124.501,84.1716 126.834,85.1716 128.5,87.5 Z"/></g>
<g><path style="opacity:1" fill="#f4ca16" d="M 146.5,77.5 C 152.004,77.1504 157.337,77.8171 162.5,79.5C 163.091,80.1515 163.757,80.8182 164.5,81.5C 161.601,86.1397 157.934,86.8064 153.5,83.5C 152.274,83.5195 151.274,83.8529 150.5,84.5C 149.414,84.62 148.747,85.2867 148.5,86.5C 148.833,87.1667 149.167,87.8333 149.5,88.5C 155.958,89.1829 161.624,91.5162 166.5,95.5C 166.5,97.5 166.5,99.5 166.5,101.5C 163.167,107.252 158,109.919 151,109.5C 146.872,110.18 143.706,108.847 141.5,105.5C 141.942,104.261 142.609,103.261 143.5,102.5C 147.635,102.319 151.968,102.152 156.5,102C 157.833,100.667 157.833,99.3333 156.5,98C 151.969,97.0933 147.636,95.9266 143.5,94.5C 139.725,91.1767 138.725,87.1767 140.5,82.5C 142.54,80.823 144.54,79.1563 146.5,77.5 Z"/></g>
<g><path style="opacity:1" fill="#f6cb14" d="M 177.5,69.5 C 177.5,73.5 177.5,77.5 177.5,81.5C 179.5,81.5 181.5,81.5 183.5,81.5C 184.833,83.5 184.833,85.5 183.5,87.5C 181.5,87.5 179.5,87.5 177.5,87.5C 177.181,92.3633 177.514,97.03 178.5,101.5C 179.672,102.705 181.005,102.705 182.5,101.5C 187.087,103.693 187.421,106.193 183.5,109C 179.019,110.112 175.019,109.279 171.5,106.5C 171.539,105.244 171.039,104.244 170,103.5C 169.5,94.5062 169.334,85.5062 169.5,76.5C 171.569,73.4275 174.236,71.0941 177.5,69.5 Z"/></g>
<g><path style="opacity:1" fill="#73412b" d="M 137.5,95.5 C 137.389,96.1174 137.056,96.6174 136.5,97C 134.167,97.3333 131.833,97.6667 129.5,98C 130.416,98.2784 131.082,98.7784 131.5,99.5C 130.391,99.5569 129.391,99.8902 128.5,100.5C 128.586,99.5041 128.252,98.6708 127.5,98C 125.667,97.8333 123.833,97.6667 122,97.5C 119.705,97.5465 117.871,98.2132 116.5,99.5C 114.896,98.713 114.229,97.3797 114.5,95.5C 122.167,95.5 129.833,95.5 137.5,95.5 Z"/></g>
<g><path style="opacity:1" fill="#8e582d" d="M 183.5,87.5 C 182.081,88.4511 180.415,88.7845 178.5,88.5C 178.5,92.8333 178.5,97.1667 178.5,101.5C 177.514,97.03 177.181,92.3633 177.5,87.5C 179.5,87.5 181.5,87.5 183.5,87.5 Z"/></g>
<g><path style="opacity:1" fill="#582038" d="M 128.5,100.5 C 126.651,101.837 124.484,102.503 122,102.5C 119.345,102.876 117.512,101.876 116.5,99.5C 117.871,98.2132 119.705,97.5465 122,97.5C 123.833,97.6667 125.667,97.8333 127.5,98C 128.252,98.6708 128.586,99.5041 128.5,100.5 Z"/></g>
<g><path style="opacity:1" fill="#5a2334" d="M 140.5,82.5 C 138.725,87.1767 139.725,91.1767 143.5,94.5C 141.501,95.8565 140.335,95.1899 140,92.5C 138.982,94.8977 137.815,97.231 136.5,99.5C 136.551,101.957 136.884,104.457 137.5,107C 135.871,110.625 133.704,111.125 131,108.5C 129.189,109.424 129.355,110.257 131.5,111C 126.858,110.937 122.191,110.604 117.5,110C 116.944,109.617 116.611,109.117 116.5,108.5C 123.579,110.856 129.579,109.356 134.5,104C 133.685,102.357 132.685,100.857 131.5,99.5C 131.082,98.7784 130.416,98.2784 129.5,98C 131.833,97.6667 134.167,97.3333 136.5,97C 137.056,96.6174 137.389,96.1174 137.5,95.5C 138.013,89.7055 136.346,84.7055 132.5,80.5C 133.583,80.4606 134.583,80.1272 135.5,79.5C 135.911,80.2624 136.077,81.2624 136,82.5C 137.414,81.5868 138.914,81.5868 140.5,82.5 Z"/></g>
<g><path style="opacity:1" fill="#57213b" d="M 44.5,68.5 C 51.2529,70.2016 56.5862,73.8682 60.5,79.5C 60.7599,85.172 61.0932,90.8387 61.5,96.5C 59.5768,100.474 60.5768,103.474 64.5,105.5C 66.9274,102.554 68.5941,99.2203 69.5,95.5C 70.1627,93.5274 70.4961,91.3608 70.5,89C 70.6725,85.5226 70.0058,82.356 68.5,79.5C 68.5,78.8333 68.5,78.1667 68.5,77.5C 70.0876,76.3587 71.4209,74.8587 72.5,73C 77.9544,70.7197 83.621,69.2197 89.5,68.5C 93.2162,71.5207 97.5495,73.1874 102.5,73.5C 99.1849,74.5527 95.8515,74.5527 92.5,73.5C 92.5,74.5 92.5,75.5 92.5,76.5C 96.6372,76.1463 100.637,76.6463 104.5,78C 104.483,81.6334 104.65,85.4668 105,89.5C 105.383,88.944 105.883,88.6107 106.5,88.5C 105.376,95.0824 107.043,100.749 111.5,105.5C 108.508,106.132 107.841,107.799 109.5,110.5C 109,110.833 108.5,111.167 108,111.5C 105.634,109.372 103.467,107.038 101.5,104.5C 100.378,105.63 99.0443,106.297 97.5,106.5C 98.8333,104.833 100.167,103.167 101.5,101.5C 102.117,101.389 102.617,101.056 103,100.5C 103.822,92.9882 103.655,85.6549 102.5,78.5C 100.167,78.5 97.8333,78.5 95.5,78.5C 95.9247,85.6154 95.4247,92.6154 94,99.5C 89.2033,103.951 85.37,103.284 82.5,97.5C 82.5,91.1667 82.5,84.8333 82.5,78.5C 79.8333,78.5 77.1667,78.5 74.5,78.5C 74.1755,85.6866 74.5088,92.6866 75.5,99.5C 76.7649,103.42 79.0982,106.42 82.5,108.5C 77.7012,109.035 76.3679,111.535 78.5,116C 77.4985,118.168 76.4985,120.335 75.5,122.5C 76.6507,123.731 77.8173,123.731 79,122.5C 79.4828,123.448 79.6495,124.448 79.5,125.5C 76.7562,125.248 74.2562,125.915 72,127.5C 71.5,127.167 71,126.833 70.5,126.5C 71.7087,124.585 73.042,122.752 74.5,121C 74.4301,120.235 74.0967,119.735 73.5,119.5C 74.1717,116.058 73.1717,113.391 70.5,111.5C 68.1667,111.5 65.8333,111.5 63.5,111.5C 63.0074,113.806 62.6741,116.139 62.5,118.5C 60.9159,116.471 59.5826,114.138 58.5,111.5C 57.5481,113.045 57.2148,114.712 57.5,116.5C 56.1667,116.5 54.8333,116.5 53.5,116.5C 57.6493,113.551 57.1493,111.218 52,109.5C 36.5417,115.515 26.0417,110.848 20.5,95.5C 20.0712,89.9295 20.7379,84.5962 22.5,79.5C 23.552,79.6495 24.552,79.4828 25.5,79C 24.6634,77.9887 24.33,76.8221 24.5,75.5C 26.5496,73.4525 28.883,71.7859 31.5,70.5C 35.6859,69.0921 40.0192,68.4255 44.5,68.5 Z"/></g>
<g><path style="opacity:1" fill="#966826" d="M 68.5,79.5 C 70.0058,82.356 70.6725,85.5226 70.5,89C 70.4961,91.3608 70.1627,93.5274 69.5,95.5C 69.6079,90.1301 69.2745,84.7968 68.5,79.5 Z"/></g>
<g><path style="opacity:1" fill="#e5b744" d="M 82.5,97.5 C 81.5104,91.69 81.1771,85.69 81.5,79.5C 79.5,79.5 77.5,79.5 75.5,79.5C 75.5,86.1667 75.5,92.8333 75.5,99.5C 74.5088,92.6866 74.1755,85.6866 74.5,78.5C 77.1667,78.5 79.8333,78.5 82.5,78.5C 82.5,84.8333 82.5,91.1667 82.5,97.5 Z"/></g>
<g><path style="opacity:1" fill="#754325" d="M 60.5,79.5 C 64.001,85.0008 64.3343,90.6674 61.5,96.5C 61.0932,90.8387 60.7599,85.172 60.5,79.5 Z"/></g>
<g><path style="opacity:1" fill="#99681b" d="M 102.5,78.5 C 103.655,85.6549 103.822,92.9882 103,100.5C 102.617,101.056 102.117,101.389 101.5,101.5C 102.434,93.889 102.767,86.2223 102.5,78.5 Z"/></g>
<g><path style="opacity:1" fill="#facf10" d="M 102.5,78.5 C 102.767,86.2223 102.434,93.889 101.5,101.5C 100.167,103.167 98.8333,104.833 97.5,106.5C 92.7651,109.383 87.7651,110.05 82.5,108.5C 79.0982,106.42 76.7649,103.42 75.5,99.5C 75.5,92.8333 75.5,86.1667 75.5,79.5C 77.5,79.5 79.5,79.5 81.5,79.5C 81.1771,85.69 81.5104,91.69 82.5,97.5C 85.37,103.284 89.2033,103.951 94,99.5C 95.4247,92.6154 95.9247,85.6154 95.5,78.5C 97.8333,78.5 100.167,78.5 102.5,78.5 Z"/></g>
<g><path style="opacity:1" fill="#f8cc14" d="M 34.5,77.5 C 48.9948,75.3273 54.9948,81.3273 52.5,95.5C 47.0307,103.015 40.364,104.348 32.5,99.5C 29.1806,95.3745 28.0139,90.7078 29,85.5C 31.0795,82.9348 32.9128,80.2682 34.5,77.5 Z"/></g>
<g><path style="opacity:1" fill="#582132" d="M 143.5,102.5 C 142.609,103.261 141.942,104.261 141.5,105.5C 143.706,108.847 146.872,110.18 151,109.5C 158,109.919 163.167,107.252 166.5,101.5C 166.433,103.401 166.767,105.234 167.5,107C 166.892,110.616 165.059,111.45 162,109.5C 156.857,110.203 151.691,110.703 146.5,111C 147.793,111.49 149.127,111.657 150.5,111.5C 150.5,115.5 150.5,119.5 150.5,123.5C 151.5,123.5 152.5,123.5 153.5,123.5C 153.351,122.448 153.517,121.448 154,120.5C 155.264,122.607 157.097,123.607 159.5,123.5C 161.216,123.371 162.883,123.038 164.5,122.5C 166.792,123.686 169.126,123.686 171.5,122.5C 171.389,123.117 171.056,123.617 170.5,124C 167.062,123.865 164.228,125.032 162,127.5C 161.517,126.552 161.351,125.552 161.5,124.5C 157.399,123.634 153.399,123.634 149.5,124.5C 150.937,118.881 148.937,115.548 143.5,114.5C 143.063,112.926 142.063,111.759 140.5,111C 141.308,110.692 141.975,110.192 142.5,109.5C 141.167,107.833 139.833,106.167 138.5,104.5C 139.374,102.253 139.708,99.9201 139.5,97.5C 143.367,97.4742 144.034,98.6409 141.5,101C 141.836,102.03 142.503,102.53 143.5,102.5 Z"/></g>
<g><path style="opacity:1" fill="#f5cb17" d="M 70.5,111.5 C 74.5554,119.125 72.2221,122.458 63.5,121.5C 63.4431,120.391 63.1098,119.391 62.5,118.5C 62.6741,116.139 63.0074,113.806 63.5,111.5C 65.8333,111.5 68.1667,111.5 70.5,111.5 Z"/></g>
<g><path style="opacity:1" fill="#703e1c" d="M 166.5,114.5 C 165.849,113.909 165.182,113.243 164.5,112.5C 163.334,115.837 163.334,119.17 164.5,122.5C 162.883,123.038 161.216,123.371 159.5,123.5C 162.561,121.55 163.228,118.883 161.5,115.5C 162.434,114.432 162.768,113.099 162.5,111.5C 163.833,111.5 165.167,111.5 166.5,111.5C 166.5,112.5 166.5,113.5 166.5,114.5 Z"/></g>
<g><path style="opacity:1" fill="#c89e2c" d="M 143.5,114.5 C 148.937,115.548 150.937,118.881 149.5,124.5C 147.443,126.856 144.776,127.856 141.5,127.5C 141.549,124.626 141.216,121.792 140.5,119C 140.522,116.817 141.522,115.317 143.5,114.5 Z"/></g>
<g><path style="opacity:1" fill="#521b54" d="M 143.5,118.5 C 144.675,118.281 145.675,118.614 146.5,119.5C 144.948,120.798 143.948,120.465 143.5,118.5 Z"/></g>
<g><path style="opacity:1" fill="#d0a43d" d="M 150.5,111.5 C 151.5,111.5 152.5,111.5 153.5,111.5C 153.338,113.527 153.505,115.527 154,117.5C 155.91,114.534 158.41,113.867 161.5,115.5C 163.228,118.883 162.561,121.55 159.5,123.5C 157.097,123.607 155.264,122.607 154,120.5C 153.517,121.448 153.351,122.448 153.5,123.5C 152.5,123.5 151.5,123.5 150.5,123.5C 150.5,119.5 150.5,115.5 150.5,111.5 Z"/></g>
<g><path style="opacity:1" fill="#622b1f" d="M 156.5,117.5 C 157.833,117.5 159.167,117.5 160.5,117.5C 160.5,118.5 160.5,119.5 160.5,120.5C 159.167,120.5 157.833,120.5 156.5,120.5C 156.5,119.5 156.5,118.5 156.5,117.5 Z"/></g>
<g><path style="opacity:1" fill="#dbb22c" d="M 166.5,114.5 C 169.278,114.022 171.278,115.022 172.5,117.5C 173.992,115.834 175.825,114.834 178,114.5C 179.699,114.387 180.866,115.053 181.5,116.5C 181.5,118.833 181.5,121.167 181.5,123.5C 179.5,123.5 177.5,123.5 175.5,123.5C 174.332,120.531 172.999,120.198 171.5,122.5C 169.126,123.686 166.792,123.686 164.5,122.5C 163.334,119.17 163.334,115.837 164.5,112.5C 165.182,113.243 165.849,113.909 166.5,114.5 Z"/></g>
<g><path style="opacity:1" fill="#5f1b31" d="M 166.5,117.5 C 167.5,117.5 168.5,117.5 169.5,117.5C 169.5,118.5 169.5,119.5 169.5,120.5C 168.5,120.5 167.5,120.5 166.5,120.5C 166.5,119.5 166.5,118.5 166.5,117.5 Z"/></g>
<g><path style="opacity:1" fill="#69282b" d="M 178.5,120.5 C 177.833,117.833 177.167,117.833 176.5,120.5C 175.596,119.791 175.263,118.791 175.5,117.5C 176.833,117.5 178.167,117.5 179.5,117.5C 179.737,118.791 179.404,119.791 178.5,120.5 Z"/></g>
<g><path style="opacity:1" fill="#510c75" d="M 178.5,120.5 C 177.833,120.5 177.167,120.5 176.5,120.5C 177.167,117.833 177.833,117.833 178.5,120.5 Z"/></g>
<g><path style="opacity:1" fill="#784326" d="M 70.5,111.5 C 73.1717,113.391 74.1717,116.058 73.5,119.5C 73.0472,120.458 72.3805,121.292 71.5,122C 68.633,122.801 65.9664,122.634 63.5,121.5C 72.2221,122.458 74.5554,119.125 70.5,111.5 Z"/></g>
<g><path style="opacity:1" fill="#f5c720" d="M 184.5,111.5 C 185.167,111.5 185.5,111.833 185.5,112.5C 185.823,116.226 185.489,119.893 184.5,123.5C 183.235,119.454 183.235,115.454 184.5,111.5 Z"/></g>
<g><path style="opacity:1" fill="#66341d" d="M 184.5,111.5 C 183.235,115.454 183.235,119.454 184.5,123.5C 185.489,119.893 185.823,116.226 185.5,112.5C 186.483,116.298 186.817,120.298 186.5,124.5C 182.629,124.815 178.962,124.482 175.5,123.5C 177.5,123.5 179.5,123.5 181.5,123.5C 181.5,121.167 181.5,118.833 181.5,116.5C 181.972,114.469 182.972,112.802 184.5,111.5 Z"/></g>
</svg>
