<?xml version="1.0" encoding="UTF-8"?>
<!DOCTYPE svg PUBLIC "-//W3C//DTD SVG 1.1//EN" "http://www.w3.org/Graphics/SVG/1.1/DTD/svg11.dtd">
<svg xmlns="http://www.w3.org/2000/svg" version="1.1" width="200px" height="200px" style="shape-rendering:geometricPrecision; text-rendering:geometricPrecision; image-rendering:optimizeQuality; fill-rule:evenodd; clip-rule:evenodd" xmlns:xlink="http://www.w3.org/1999/xlink">
<g><path style="opacity:1" fill="#fefefe" d="M -0.5,-0.5 C 66.1667,-0.5 132.833,-0.5 199.5,-0.5C 199.5,66.1667 199.5,132.833 199.5,199.5C 132.833,199.5 66.1667,199.5 -0.5,199.5C -0.5,132.833 -0.5,66.1667 -0.5,-0.5 Z"/></g>
<g><path style="opacity:1" fill="#cb5264" d="M 109.5,71.5 C 108.075,69.9689 107.409,70.3023 107.5,72.5C 101.048,76.714 99.8814,82.0473 104,88.5C 104.499,92.8206 104.666,97.1539 104.5,101.5C 102.5,101.5 100.5,101.5 98.5,101.5C 98.6659,96.4889 98.4993,91.4889 98,86.5C 96.6703,85.4178 95.1703,84.7512 93.5,84.5C 93.5,84.1667 93.5,83.8333 93.5,83.5C 94.6719,82.2947 96.0052,82.2947 97.5,83.5C 99.1586,77.1541 102.825,72.1541 108.5,68.5C 109.386,69.325 109.719,70.325 109.5,71.5 Z"/></g>
<g><path style="opacity:1" fill="#e13638" d="M 109.5,71.5 C 109.173,81.015 109.506,90.3483 110.5,99.5C 110.44,100.043 110.107,100.376 109.5,100.5C 108.833,91.3423 108.167,82.3423 107.5,73.5C 107.5,73.1667 107.5,72.8333 107.5,72.5C 107.409,70.3023 108.075,69.9689 109.5,71.5 Z"/></g>
<g><path style="opacity:1" fill="#dd6234" d="M 122.5,99.5 C 122.5,100.167 122.5,100.833 122.5,101.5C 121.5,101.5 120.5,101.5 119.5,101.5C 119.828,96.1254 119.495,90.7921 118.5,85.5C 116.814,84.1431 115.148,82.8098 113.5,81.5C 112.871,88.0744 112.205,94.0744 111.5,99.5C 111.5,92.8333 111.5,86.1667 111.5,79.5C 115.503,79.9713 118.669,81.9713 121,85.5C 121.174,90.3514 121.674,95.0181 122.5,99.5 Z"/></g>
<g><path style="opacity:1" fill="#3b598f" d="M 93.5,83.5 C 93.5,83.8333 93.5,84.1667 93.5,84.5C 92.024,86.5 90.1906,88.1666 88,89.5C 87.5012,93.4862 87.3345,97.4862 87.5,101.5C 85.8333,101.5 84.1667,101.5 82.5,101.5C 82.5,100.5 82.5,99.5 82.5,98.5C 83.1667,98.8333 83.8333,99.1667 84.5,99.5C 85.3227,96.023 85.8227,92.3563 86,88.5C 88.3818,86.6113 90.8818,84.9447 93.5,83.5 Z"/></g>
<g><path style="opacity:1" fill="#d75b57" d="M 107.5,73.5 C 108.167,82.3423 108.833,91.3423 109.5,100.5C 110.107,100.376 110.44,100.043 110.5,99.5C 110.833,99.5 111.167,99.5 111.5,99.5C 112.205,94.0744 112.871,88.0744 113.5,81.5C 113.5,88.1667 113.5,94.8333 113.5,101.5C 111.5,101.5 109.5,101.5 107.5,101.5C 107.5,92.1667 107.5,82.8333 107.5,73.5 Z"/></g>
<g><path style="opacity:1" fill="#edf1f5" d="M 107.5,72.5 C 107.5,72.8333 107.5,73.1667 107.5,73.5C 107.5,82.8333 107.5,92.1667 107.5,101.5C 109.5,101.5 111.5,101.5 113.5,101.5C 115.968,103.047 118.635,104.38 121.5,105.5C 119.833,105.5 118.167,105.5 116.5,105.5C 116.5,109.167 116.5,112.833 116.5,116.5C 114.833,116.5 113.167,116.5 111.5,116.5C 116.652,109.128 114.652,105.628 105.5,106C 101.713,109.411 101.713,112.911 105.5,116.5C 104.417,116.461 103.417,116.127 102.5,115.5C 100.184,116.932 97.6838,117.932 95,118.5C 94.5357,117.906 94.369,117.239 94.5,116.5C 99.5,117.5 101.5,115.5 100.5,110.5C 97.7952,110.38 97.1285,111.38 98.5,113.5C 95.5062,115.003 93.5062,114.169 92.5,111C 92.7591,109.739 93.4258,108.739 94.5,108C 96.6565,107.922 98.6565,107.755 100.5,107.5C 94.2307,104.307 90.8973,106.307 90.5,113.5C 86.724,113.197 83.3907,114.197 80.5,116.5C 80.5,113.5 80.5,110.5 80.5,107.5C 81.675,107.719 82.675,107.386 83.5,106.5C 80.8333,105.167 78.1667,105.167 75.5,106.5C 75.6236,107.107 75.9569,107.44 76.5,107.5C 75.0351,110.366 74.0351,113.366 73.5,116.5C 73.8226,112.774 73.4892,109.107 72.5,105.5C 71.6858,107.766 71.1858,110.1 71,112.5C 65.3679,103.301 63.2012,104.635 64.5,116.5C 62.6854,117.63 60.6854,118.296 58.5,118.5C 58.9227,116.219 58.256,114.552 56.5,113.5C 55.2653,110.699 53.7653,108.032 52,105.5C 49.9128,108.673 48.0795,112.006 46.5,115.5C 46.9569,116.298 47.6236,116.631 48.5,116.5C 44.7029,118.876 40.7029,118.876 36.5,116.5C 34.8051,117.292 33.1385,116.958 31.5,115.5C 32.3914,114.41 33.3914,114.41 34.5,115.5C 36.3761,112.999 37.7094,110.332 38.5,107.5C 38.3505,108.552 38.5172,109.552 39,110.5C 45.04,113.618 44.7066,114.618 38,113.5C 37.3333,114.167 37.3333,114.833 38,115.5C 40.0639,116.591 42.2305,116.758 44.5,116C 45.5536,114.612 45.7203,113.112 45,111.5C 38.2589,109.919 38.0922,108.419 44.5,107C 43.944,106.617 43.6107,106.117 43.5,105.5C 47.4659,104.838 51.4659,104.505 55.5,104.5C 55.5,103.5 55.5,102.5 55.5,101.5C 57.8333,101.5 60.1667,101.5 62.5,101.5C 62.5,99.5 62.5,97.5 62.5,95.5C 62.8333,95.5 63.1667,95.5 63.5,95.5C 64.3414,97.3792 64.6747,99.3792 64.5,101.5C 66.1667,101.5 67.8333,101.5 69.5,101.5C 69.3379,99.4727 69.5045,97.4727 70,95.5C 70.414,95.0426 70.914,94.7093 71.5,94.5C 72.4742,96.7427 72.8076,99.076 72.5,101.5C 74.5,101.5 76.5,101.5 78.5,101.5C 78.5,98.5 78.5,95.5 78.5,92.5C 79.8333,92.5 81.1667,92.5 82.5,92.5C 82.5,94.5 82.5,96.5 82.5,98.5C 82.5,99.5 82.5,100.5 82.5,101.5C 84.1667,101.5 85.8333,101.5 87.5,101.5C 87.3345,97.4862 87.5012,93.4862 88,89.5C 90.1906,88.1666 92.024,86.5 93.5,84.5C 95.1703,84.7512 96.6703,85.4178 98,86.5C 98.4993,91.4889 98.6659,96.4889 98.5,101.5C 100.5,101.5 102.5,101.5 104.5,101.5C 104.666,97.1539 104.499,92.8206 104,88.5C 99.8814,82.0473 101.048,76.714 107.5,72.5 Z"/></g>
<g><path style="opacity:1" fill="#ffb2bd" d="M 100.5,89.5 C 101.777,90.6936 102.444,92.3603 102.5,94.5C 102.167,96.1667 101.833,97.8333 101.5,99.5C 100.513,96.2317 100.18,92.8984 100.5,89.5 Z"/></g>
<g><path style="opacity:1" fill="#5298b3" d="M 84.5,99.5 C 83.8333,99.1667 83.1667,98.8333 82.5,98.5C 82.5,96.5 82.5,94.5 82.5,92.5C 81.1667,92.5 79.8333,92.5 78.5,92.5C 78.5,95.5 78.5,98.5 78.5,101.5C 76.5,101.5 74.5,101.5 72.5,101.5C 72.8076,99.076 72.4742,96.7427 71.5,94.5C 70.914,94.7093 70.414,95.0426 70,95.5C 69.5045,97.4727 69.3379,99.4727 69.5,101.5C 67.8333,101.5 66.1667,101.5 64.5,101.5C 64.6747,99.3792 64.3414,97.3792 63.5,95.5C 65.6621,95.8972 66.9954,97.2305 67.5,99.5C 68.3078,97.5767 68.8078,95.5767 69,93.5C 70.4936,92.2528 71.9936,92.2528 73.5,93.5C 74.0412,95.5352 74.7078,97.5352 75.5,99.5C 76.3184,96.8929 76.8184,94.2263 77,91.5C 79.7195,88.6812 82.0528,89.0145 84,92.5C 84.4966,94.8098 84.6633,97.1432 84.5,99.5 Z"/></g>
<g><path style="opacity:1" fill="#d7874a" d="M 122.5,101.5 C 122.5,100.833 122.5,100.167 122.5,99.5C 122.5,97.5 122.5,95.5 122.5,93.5C 125.529,94.6771 128.196,96.5104 130.5,99C 133.226,99.1816 135.893,99.6816 138.5,100.5C 134.012,102.228 130.012,101.561 126.5,98.5C 125.717,100.288 124.384,101.288 122.5,101.5 Z"/></g>
<g><path style="opacity:1" fill="#66b0b2" d="M 62.5,95.5 C 62.5,97.5 62.5,99.5 62.5,101.5C 60.1667,101.5 57.8333,101.5 55.5,101.5C 54.325,101.719 53.325,101.386 52.5,100.5C 55.4281,99.5159 58.4281,99.1826 61.5,99.5C 61.2322,97.901 61.5655,96.5676 62.5,95.5 Z"/></g>
<g><path style="opacity:1" fill="#405286" d="M 43.5,105.5 C 43.6107,106.117 43.944,106.617 44.5,107C 38.0922,108.419 38.2589,109.919 45,111.5C 45.7203,113.112 45.5536,114.612 44.5,116C 42.2305,116.758 40.0639,116.591 38,115.5C 37.3333,114.833 37.3333,114.167 38,113.5C 44.7066,114.618 45.04,113.618 39,110.5C 38.5172,109.552 38.3505,108.552 38.5,107.5C 39.6354,105.787 41.302,105.12 43.5,105.5 Z"/></g>
<g><path style="opacity:1" fill="#3f568a" d="M 121.5,105.5 C 122.496,105.414 123.329,105.748 124,106.5C 124.868,109.485 125.201,112.485 125,115.5C 122.281,116.444 119.448,116.777 116.5,116.5C 116.5,112.833 116.5,109.167 116.5,105.5C 118.167,105.5 119.833,105.5 121.5,105.5 Z"/></g>
<g><path style="opacity:1" fill="#42568d" d="M 130.5,105.5 C 131.496,105.414 132.329,105.748 133,106.5C 134.5,109.5 136,112.5 137.5,115.5C 137.167,115.833 136.833,116.167 136.5,116.5C 133.494,113.943 130.494,113.943 127.5,116.5C 127.167,116.167 126.833,115.833 126.5,115.5C 128.306,112.359 129.639,109.026 130.5,105.5 Z"/></g>
<g><path style="opacity:1" fill="#d7e5f0" d="M 118.5,107.5 C 119.833,107.5 121.167,107.5 122.5,107.5C 122.5,108.5 122.5,109.5 122.5,110.5C 121.167,110.5 119.833,110.5 118.5,110.5C 118.5,109.5 118.5,108.5 118.5,107.5 Z"/></g>
<g><path style="opacity:1" fill="#425987" d="M 144.5,105.5 C 147.117,107.288 149.284,109.622 151,112.5C 151.186,110.1 151.686,107.766 152.5,105.5C 153.833,109.167 153.833,112.833 152.5,116.5C 150.443,114.731 148.61,112.731 147,110.5C 146.808,112.577 146.308,114.577 145.5,116.5C 144.511,112.893 144.177,109.226 144.5,105.5 Z"/></g>
<g><path style="opacity:1" fill="#3d5485" d="M 73.5,116.5 C 70.7022,115.294 68.5355,113.294 67,110.5C 66.9977,113.051 66.1644,115.051 64.5,116.5C 63.2012,104.635 65.3679,103.301 71,112.5C 71.1858,110.1 71.6858,107.766 72.5,105.5C 73.4892,109.107 73.8226,112.774 73.5,116.5 Z"/></g>
<g><path style="opacity:1" fill="#49608a" d="M 111.5,116.5 C 109.5,116.5 107.5,116.5 105.5,116.5C 101.713,112.911 101.713,109.411 105.5,106C 114.652,105.628 116.652,109.128 111.5,116.5 Z"/></g>
<g><path style="opacity:1" fill="#f2f9f8" d="M 106.5,107.5 C 111.486,107.305 113.152,109.472 111.5,114C 109.527,114.495 107.527,114.662 105.5,114.5C 105.298,112.05 105.631,109.717 106.5,107.5 Z"/></g>
<g><path style="opacity:1" fill="#445b86" d="M 80.5,116.5 C 79.1667,113.5 77.8333,110.5 76.5,107.5C 75.9569,107.44 75.6236,107.107 75.5,106.5C 78.1667,105.167 80.8333,105.167 83.5,106.5C 82.675,107.386 81.675,107.719 80.5,107.5C 80.5,110.5 80.5,113.5 80.5,116.5 Z"/></g>
<g><path style="opacity:1" fill="#a6c5e8" d="M 130.5,109.5 C 134.31,110.754 134.31,111.754 130.5,112.5C 130.5,111.5 130.5,110.5 130.5,109.5 Z"/></g>
<g><path style="opacity:1" fill="#475891" d="M 56.5,113.5 C 57.5624,114.575 57.5624,115.575 56.5,116.5C 53.5937,113.986 50.927,113.986 48.5,116.5C 47.6236,116.631 46.9569,116.298 46.5,115.5C 48.0795,112.006 49.9128,108.673 52,105.5C 53.7653,108.032 55.2653,110.699 56.5,113.5 Z"/></g>
<g><path style="opacity:1" fill="#465b89" d="M 94.5,116.5 C 93.1667,115.5 91.8333,114.5 90.5,113.5C 90.8973,106.307 94.2307,104.307 100.5,107.5C 98.6565,107.755 96.6565,107.922 94.5,108C 93.4258,108.739 92.7591,109.739 92.5,111C 93.5062,114.169 95.5062,115.003 98.5,113.5C 97.1285,111.38 97.7952,110.38 100.5,110.5C 101.5,115.5 99.5,117.5 94.5,116.5 Z"/></g>
<g><path style="opacity:1" fill="#c8d9e7" d="M 118.5,111.5 C 120.665,111.116 122.332,111.783 123.5,113.5C 122.332,115.217 120.665,115.884 118.5,115.5C 118.5,114.167 118.5,112.833 118.5,111.5 Z"/></g>
<g><path style="opacity:1" fill="#717bb2" d="M 139.5,105.5 C 140.787,106.871 141.453,108.705 141.5,111C 141.167,112.833 140.833,114.667 140.5,116.5C 139.511,112.893 139.177,109.226 139.5,105.5 Z"/></g>
</svg>
