<?xml version="1.0" encoding="UTF-8"?>
<!DOCTYPE svg PUBLIC "-//W3C//DTD SVG 1.1//EN" "http://www.w3.org/Graphics/SVG/1.1/DTD/svg11.dtd">
<svg xmlns="http://www.w3.org/2000/svg" version="1.1" width="200px" height="200px" style="shape-rendering:geometricPrecision; text-rendering:geometricPrecision; image-rendering:optimizeQuality; fill-rule:evenodd; clip-rule:evenodd" xmlns:xlink="http://www.w3.org/1999/xlink">
<g><path style="opacity:1" fill="#029999" d="M -0.5,-0.5 C 66.1667,-0.5 132.833,-0.5 199.5,-0.5C 199.5,66.1667 199.5,132.833 199.5,199.5C 132.833,199.5 66.1667,199.5 -0.5,199.5C -0.5,132.833 -0.5,66.1667 -0.5,-0.5 Z"/></g>
<g><path style="opacity:1" fill="#effafa" d="M 156.5,86.5 C 158.079,92.1355 157.746,97.6355 155.5,103C 157.321,105.456 157.988,108.289 157.5,111.5C 155.143,111.663 152.81,111.497 150.5,111C 148.451,106.354 146.118,101.854 143.5,97.5C 143.631,96.6236 143.298,95.9569 142.5,95.5C 141.505,100.792 141.172,106.125 141.5,111.5C 139.833,111.5 138.167,111.5 136.5,111.5C 136.5,103.167 136.5,94.8333 136.5,86.5C 139.518,86.3354 142.518,86.502 145.5,87C 148.128,91.7549 150.628,96.5882 153,101.5C 153.499,96.5111 153.666,91.5111 153.5,86.5C 154.5,86.5 155.5,86.5 156.5,86.5 Z"/></g>
<g><path style="opacity:1" fill="#d0eeee" d="M 45.5,111.5 C 45.5,103.833 45.5,96.1667 45.5,88.5C 44.0695,88.5792 42.7362,88.2458 41.5,87.5C 40.5023,95.4723 40.169,103.472 40.5,111.5C 39.5073,103.35 39.1739,95.0168 39.5,86.5C 42.1667,86.5 44.8333,86.5 47.5,86.5C 48.135,95.2337 47.4684,103.567 45.5,111.5 Z"/></g>
<g><path style="opacity:1" fill="#fcfdfd" d="M 45.5,111.5 C 43.8333,111.5 42.1667,111.5 40.5,111.5C 40.169,103.472 40.5023,95.4723 41.5,87.5C 42.7362,88.2458 44.0695,88.5792 45.5,88.5C 45.5,96.1667 45.5,103.833 45.5,111.5 Z"/></g>
<g><path style="opacity:1" fill="#defbfb" d="M 131.5,86.5 C 131.5,87.8333 131.5,89.1667 131.5,90.5C 127.833,90.5 124.167,90.5 120.5,90.5C 123.689,89.8339 127.023,89.1672 130.5,88.5C 125.208,87.5052 119.875,87.1718 114.5,87.5C 114.5,95.5 114.5,103.5 114.5,111.5C 113.507,103.35 113.174,95.0168 113.5,86.5C 119.5,86.5 125.5,86.5 131.5,86.5 Z"/></g>
<g><path style="opacity:1" fill="#f1fcfc" d="M 53.5,86.5 C 59.5,86.5 65.5,86.5 71.5,86.5C 71.5,87.8333 71.5,89.1667 71.5,90.5C 67.8333,90.5 64.1667,90.5 60.5,90.5C 60.5,92.5 60.5,94.5 60.5,96.5C 63.8333,96.5 67.1667,96.5 70.5,96.5C 70.5,97.8333 70.5,99.1667 70.5,100.5C 67.1667,100.5 63.8333,100.5 60.5,100.5C 60.5,102.5 60.5,104.5 60.5,106.5C 64.1667,106.5 67.8333,106.5 71.5,106.5C 71.5,108.167 71.5,109.833 71.5,111.5C 65.5,111.5 59.5,111.5 53.5,111.5C 53.5,103.167 53.5,94.8333 53.5,86.5 Z"/></g>
<g><path style="opacity:1" fill="#dffffe" d="M 156.5,86.5 C 157.825,90.2762 158.491,94.4428 158.5,99C 158.499,103.347 158.166,107.514 157.5,111.5C 157.988,108.289 157.321,105.456 155.5,103C 157.746,97.6355 158.079,92.1355 156.5,86.5 Z"/></g>
<g><path style="opacity:1" fill="#f0fafa" d="M 17.5,111.5 C 17.5,110.167 17.5,108.833 17.5,107.5C 18.5,107.5 19.5,107.5 20.5,107.5C 22.8568,107.663 25.1902,107.497 27.5,107C 28.8333,105.667 28.8333,104.333 27.5,103C 23.7166,101.942 20.3832,100.109 17.5,97.5C 15.0926,89.5638 18.0926,85.5638 26.5,85.5C 30.9414,84.5336 33.2747,86.2003 33.5,90.5C 30.1667,90.5 26.8333,90.5 23.5,90.5C 23.238,91.9778 23.5713,93.3112 24.5,94.5C 28.5381,95.6011 32.0381,97.6011 35,100.5C 36.3785,104.898 35.2118,108.398 31.5,111C 26.8452,111.499 22.1785,111.666 17.5,111.5 Z"/></g>
<g><path style="opacity:1" fill="#f7fdfc" d="M 120.5,90.5 C 120.5,92.5 120.5,94.5 120.5,96.5C 123.833,96.5 127.167,96.5 130.5,96.5C 130.5,97.8333 130.5,99.1667 130.5,100.5C 127.167,100.5 123.833,100.5 120.5,100.5C 120.5,102.5 120.5,104.5 120.5,106.5C 123.962,107.482 127.629,107.815 131.5,107.5C 131.5,108.833 131.5,110.167 131.5,111.5C 125.833,111.5 120.167,111.5 114.5,111.5C 114.5,103.5 114.5,95.5 114.5,87.5C 119.875,87.1718 125.208,87.5052 130.5,88.5C 127.023,89.1672 123.689,89.8339 120.5,90.5 Z"/></g>
<g><path style="opacity:1" fill="#5dbdbe" d="M 143.5,97.5 C 142.833,102.167 142.167,106.833 141.5,111.5C 141.172,106.125 141.505,100.792 142.5,95.5C 143.298,95.9569 143.631,96.6236 143.5,97.5 Z"/></g>
<g><path style="opacity:1" fill="#35a1a1" d="M 131.5,86.5 C 132.461,88.2646 132.795,90.2646 132.5,92.5C 128.881,91.7564 125.215,91.423 121.5,91.5C 121.5,92.8333 121.5,94.1667 121.5,95.5C 124.833,95.5 128.167,95.5 131.5,95.5C 131.055,98.3646 131.722,100.865 133.5,103C 133.167,103.333 132.833,103.667 132.5,104C 133.5,104.333 134.5,104.667 135.5,105C 134.263,105.232 133.263,105.732 132.5,106.5C 128.5,106.5 124.5,106.5 120.5,106.5C 120.5,104.5 120.5,102.5 120.5,100.5C 123.833,100.5 127.167,100.5 130.5,100.5C 130.5,99.1667 130.5,97.8333 130.5,96.5C 127.167,96.5 123.833,96.5 120.5,96.5C 120.5,94.5 120.5,92.5 120.5,90.5C 124.167,90.5 127.833,90.5 131.5,90.5C 131.5,89.1667 131.5,87.8333 131.5,86.5 Z"/></g>
<g><path style="opacity:1" fill="#f3fbfb" d="M 84.5,99.5 C 84.6427,97.7376 84.3094,96.0709 83.5,94.5C 82.7261,93.2888 81.8928,93.2888 81,94.5C 80.5006,100.157 80.3339,105.824 80.5,111.5C 79.5,111.5 78.5,111.5 77.5,111.5C 77.3336,103.826 77.5003,96.1594 78,88.5C 80.8316,87.2138 83.6649,87.2138 86.5,88.5C 88.4815,92.7429 90.3148,97.0762 92,101.5C 94.0379,96.5923 96.2046,91.7589 98.5,87C 101.482,86.502 104.482,86.3354 107.5,86.5C 107.5,94.8333 107.5,103.167 107.5,111.5C 105.167,111.5 102.833,111.5 100.5,111.5C 100.666,106.156 100.499,100.823 100,95.5C 97.2946,100.246 95.1279,105.246 93.5,110.5C 91.8333,111.833 90.1667,111.833 88.5,110.5C 86.8746,106.92 85.5413,103.254 84.5,99.5 Z"/></g>
<g><path style="opacity:1" fill="#ddfbfb" d="M 84.5,99.5 C 83.4415,98.3998 82.6082,97.0664 82,95.5C 81.8267,101.016 81.3267,106.349 80.5,111.5C 80.3339,105.824 80.5006,100.157 81,94.5C 81.8928,93.2888 82.7261,93.2888 83.5,94.5C 84.3094,96.0709 84.6427,97.7376 84.5,99.5 Z"/></g>
<g><path style="opacity:1" fill="#d7fdfe" d="M 86.5,88.5 C 83.6649,87.2138 80.8316,87.2138 78,88.5C 77.5003,96.1594 77.3336,103.826 77.5,111.5C 76.5073,103.35 76.1739,95.0168 76.5,86.5C 80.3293,85.931 83.6627,86.5977 86.5,88.5 Z"/></g>
<g><path style="opacity:1" fill="#bff3f3" d="M 120.5,106.5 C 124.5,106.5 128.5,106.5 132.5,106.5C 132.784,108.415 132.451,110.081 131.5,111.5C 131.5,110.167 131.5,108.833 131.5,107.5C 127.629,107.815 123.962,107.482 120.5,106.5 Z"/></g>
<g><path style="opacity:1" fill="#9de8e7" d="M 20.5,107.5 C 19.5,107.5 18.5,107.5 17.5,107.5C 17.5,108.833 17.5,110.167 17.5,111.5C 16.5489,110.081 16.2155,108.415 16.5,106.5C 18.099,106.232 19.4324,106.566 20.5,107.5 Z"/></g>
<g><path style="opacity:1" fill="#b7f1f1" d="M 167.5,107.5 C 166.5,107.5 165.5,107.5 164.5,107.5C 164.5,108.833 164.5,110.167 164.5,111.5C 163.549,110.081 163.216,108.415 163.5,106.5C 165.099,106.232 166.432,106.566 167.5,107.5 Z"/></g>
<g><path style="opacity:1" fill="#f1fafa" d="M 164.5,111.5 C 164.5,110.167 164.5,108.833 164.5,107.5C 165.5,107.5 166.5,107.5 167.5,107.5C 169.527,107.662 171.527,107.495 173.5,107C 174.428,106.612 175.095,105.945 175.5,105C 172.412,102.289 168.912,100.122 165,98.5C 162.144,93.0799 163.311,88.9132 168.5,86C 172.537,85.3933 176.537,85.56 180.5,86.5C 180.66,88.1992 180.494,89.8659 180,91.5C 176.943,90.5495 173.777,90.2161 170.5,90.5C 170.238,91.9778 170.571,93.3112 171.5,94.5C 175.538,95.6011 179.038,97.6011 182,100.5C 183.645,105.475 182.145,108.975 177.5,111C 173.179,111.499 168.846,111.666 164.5,111.5 Z"/></g>
</svg>
