<?xml version="1.0" encoding="UTF-8"?>
<!DOCTYPE svg PUBLIC "-//W3C//DTD SVG 1.1//EN" "http://www.w3.org/Graphics/SVG/1.1/DTD/svg11.dtd">
<svg xmlns="http://www.w3.org/2000/svg" version="1.1" width="200px" height="200px" style="shape-rendering:geometricPrecision; text-rendering:geometricPrecision; image-rendering:optimizeQuality; fill-rule:evenodd; clip-rule:evenodd" xmlns:xlink="http://www.w3.org/1999/xlink">
<g><path style="opacity:1" fill="#fdfdfd" d="M -0.5,-0.5 C 66.1667,-0.5 132.833,-0.5 199.5,-0.5C 199.5,66.1667 199.5,132.833 199.5,199.5C 132.833,199.5 66.1667,199.5 -0.5,199.5C -0.5,132.833 -0.5,66.1667 -0.5,-0.5 Z"/></g>
<g><path style="opacity:1" fill="#141414" d="M 30.5,43.5 C 35.1667,43.5 39.8333,43.5 44.5,43.5C 44.5,44.8333 44.5,46.1667 44.5,47.5C 43.1667,47.5 41.8333,47.5 40.5,47.5C 40.5,50.8333 40.5,54.1667 40.5,57.5C 38.5,57.5 36.5,57.5 34.5,57.5C 34.5,54.1667 34.5,50.8333 34.5,47.5C 33.1667,47.5 31.8333,47.5 30.5,47.5C 30.5,46.1667 30.5,44.8333 30.5,43.5 Z"/></g>
<g><path style="opacity:1" fill="#151515" d="M 58.5,43.5 C 63.1667,43.5 67.8333,43.5 72.5,43.5C 72.5,44.8333 72.5,46.1667 72.5,47.5C 71.1667,47.5 69.8333,47.5 68.5,47.5C 68.5,50.8333 68.5,54.1667 68.5,57.5C 66.5,57.5 64.5,57.5 62.5,57.5C 62.5,54.1667 62.5,50.8333 62.5,47.5C 61.1667,47.5 59.8333,47.5 58.5,47.5C 58.5,46.1667 58.5,44.8333 58.5,43.5 Z"/></g>
<g><path style="opacity:1" fill="#101010" d="M 48.5,43.5 C 53.3038,42.712 56.1371,44.712 57,49.5C 57.7348,51.8713 58.5682,54.2046 59.5,56.5C 57.604,57.4656 55.604,57.7989 53.5,57.5C 52.7632,47.5895 51.0965,47.2562 48.5,56.5C 46.8333,57.8333 45.1667,57.8333 43.5,56.5C 44.9772,52.0646 46.6438,47.7312 48.5,43.5 Z"/></g>
<g><path style="opacity:1" fill="#0f0f0f" d="M 75.5,43.5 C 78.3938,43.0423 80.8938,43.709 83,45.5C 84.1126,49.5081 85.6126,53.3414 87.5,57C 85.5273,57.4955 83.5273,57.6621 81.5,57.5C 80.236,47.8077 78.5693,47.4743 76.5,56.5C 74.9547,57.4519 73.288,57.7852 71.5,57.5C 72.8333,52.8333 74.1667,48.1667 75.5,43.5 Z"/></g>
<g><path style="opacity:1" fill="#5a5a5a" d="M 114.5,65.5 C 111.15,65.335 107.817,65.5017 104.5,66C 105.737,66.2321 106.737,66.7321 107.5,67.5C 106.167,67.5 104.833,67.5 103.5,67.5C 103.5,66.5 103.5,65.5 103.5,64.5C 107.371,64.185 111.038,64.5184 114.5,65.5 Z"/></g>
<g><path style="opacity:1" fill="#595959" d="M 65.5,77.5 C 66.1499,77.8039 66.8165,78.1373 67.5,78.5C 68.6609,74.2047 68.8275,69.8713 68,65.5C 67.9793,69.6398 67.4793,72.3065 66.5,73.5C 66.5,70.5 66.5,67.5 66.5,64.5C 67.5,64.5 68.5,64.5 69.5,64.5C 69.5,69.5 69.5,74.5 69.5,79.5C 67.5168,79.8432 66.1834,79.1765 65.5,77.5 Z"/></g>
<g><path style="opacity:1" fill="#0e0e0e" d="M 99.5,65.5 C 99.5,69.1667 99.5,72.8333 99.5,76.5C 102.082,76.0254 104.082,76.6921 105.5,78.5C 102.833,78.5 100.167,78.5 97.5,78.5C 96.9031,73.706 97.5698,69.3727 99.5,65.5 Z"/></g>
<g><path style="opacity:1" fill="#131313" d="M 114.5,65.5 C 113.432,66.4345 112.099,66.7678 110.5,66.5C 110.5,70.5 110.5,74.5 110.5,78.5C 108.875,75.1091 107.875,71.4425 107.5,67.5C 106.737,66.7321 105.737,66.2321 104.5,66C 107.817,65.5017 111.15,65.335 114.5,65.5 Z"/></g>
<g><path style="opacity:1" fill="#292929" d="M 153.5,64.5 C 156.434,65.2894 158.268,67.2894 159,70.5C 159.833,68.8333 160.667,67.1667 161.5,65.5C 162.5,64.1667 163.5,64.1667 164.5,65.5C 161.074,69.5383 159.741,74.2049 160.5,79.5C 159.5,79.5 158.5,79.5 157.5,79.5C 157.664,76.8127 157.497,74.146 157,71.5C 155.295,69.4234 154.128,67.09 153.5,64.5 Z"/></g>
<g><path style="opacity:1" fill="#636363" d="M 135.5,77.5 C 136.15,77.8039 136.817,78.1373 137.5,78.5C 138.661,74.2047 138.828,69.8713 138,65.5C 137.667,68.8333 137.333,72.1667 137,75.5C 136.283,74.9558 135.783,74.2891 135.5,73.5C 136.477,70.7131 136.81,67.7131 136.5,64.5C 137.5,64.5 138.5,64.5 139.5,64.5C 139.5,69.5 139.5,74.5 139.5,79.5C 137.517,79.8432 136.183,79.1765 135.5,77.5 Z"/></g>
<g><path style="opacity:1" fill="#282828" d="M 35.5,64.5 C 43.3782,64.9009 43.3782,65.9009 35.5,67.5C 31.8799,73.9174 33.8799,77.2507 41.5,77.5C 37.0856,80.5074 33.5856,79.5074 31,74.5C 30.0769,70.0165 31.5769,66.6832 35.5,64.5 Z"/></g>
<g><path style="opacity:1" fill="#636363" d="M 131.5,65.5 C 130.5,65.5 129.5,65.5 128.5,65.5C 128.334,69.8461 128.501,74.1794 129,78.5C 129.176,75.1182 129.676,71.7848 130.5,68.5C 131.107,68.6236 131.44,68.9569 131.5,69.5C 130.521,72.6248 130.187,75.9581 130.5,79.5C 129.5,79.5 128.5,79.5 127.5,79.5C 127.5,74.5 127.5,69.5 127.5,64.5C 129.099,64.2322 130.432,64.5655 131.5,65.5 Z"/></g>
<g><path style="opacity:1" fill="#131313" d="M 131.5,65.5 C 133.267,67.9384 134.601,70.605 135.5,73.5C 135.783,74.2891 136.283,74.9558 137,75.5C 137.333,72.1667 137.667,68.8333 138,65.5C 138.828,69.8713 138.661,74.2047 137.5,78.5C 136.817,78.1373 136.15,77.8039 135.5,77.5C 133.733,75.0616 132.399,72.395 131.5,69.5C 131.44,68.9569 131.107,68.6236 130.5,68.5C 129.676,71.7848 129.176,75.1182 129,78.5C 128.501,74.1794 128.334,69.8461 128.5,65.5C 129.5,65.5 130.5,65.5 131.5,65.5 Z"/></g>
<g><path style="opacity:1" fill="#262626" d="M 46.5,64.5 C 54.379,64.216 57.2123,67.8827 55,75.5C 51.0979,80.8036 47.0979,80.8036 43,75.5C 41.6624,70.9597 42.8291,67.293 46.5,64.5 Z"/></g>
<g><path style="opacity:1" fill="#eeeeee" d="M 47.5,66.5 C 49.1439,66.2865 50.6439,66.6198 52,67.5C 52.7772,70.4294 52.6105,73.2628 51.5,76C 49.5594,76.7429 47.7261,76.5762 46,75.5C 45.068,72.1769 45.568,69.1769 47.5,66.5 Z"/></g>
<g><path style="opacity:1" fill="#818181" d="M 91.5,65.5 C 92.209,64.596 93.209,64.2627 94.5,64.5C 94.815,68.3714 94.4816,72.0381 93.5,75.5C 94.069,71.6707 93.4023,68.3373 91.5,65.5 Z"/></g>
<g><path style="opacity:1" fill="#242424" d="M 118.5,64.5 C 119.675,64.281 120.675,64.6143 121.5,65.5C 123.242,69.7254 124.576,74.0587 125.5,78.5C 124.5,78.5 123.5,78.5 122.5,78.5C 122.5,77.5 122.5,76.5 122.5,75.5C 120.5,75.5 118.5,75.5 116.5,75.5C 116.101,78.9877 115.434,79.1544 114.5,76C 115.608,72.06 116.941,68.2266 118.5,64.5 Z"/></g>
<g><path style="opacity:1" fill="#7d7d7d" d="M 85.5,65.5 C 83.5977,68.3373 82.931,71.6707 83.5,75.5C 82.5184,72.0381 82.185,68.3714 82.5,64.5C 83.791,64.2627 84.791,64.596 85.5,65.5 Z"/></g>
<g><path style="opacity:1" fill="#d2d2d2" d="M 119.5,67.5 C 120.234,68.8775 120.901,70.3775 121.5,72C 120.552,72.4828 119.552,72.6495 118.5,72.5C 118.366,70.7085 118.699,69.0418 119.5,67.5 Z"/></g>
<g><path style="opacity:1" fill="#838383" d="M 61.5,65.5 C 60.5,65.5 59.5,65.5 58.5,65.5C 57.9031,70.294 58.5698,74.6273 60.5,78.5C 59.791,79.404 58.791,79.7373 57.5,79.5C 57.5,74.5 57.5,69.5 57.5,64.5C 59.099,64.2322 60.4324,64.5655 61.5,65.5 Z"/></g>
<g><path style="opacity:1" fill="#181818" d="M 61.5,65.5 C 63.1807,68.2028 64.8474,70.8695 66.5,73.5C 67.4793,72.3065 67.9793,69.6398 68,65.5C 68.8275,69.8713 68.6609,74.2047 67.5,78.5C 66.8165,78.1373 66.1499,77.8039 65.5,77.5C 64.2653,74.6987 62.7653,72.0321 61,69.5C 60.502,72.4816 60.3354,75.4816 60.5,78.5C 58.5698,74.6273 57.9031,70.294 58.5,65.5C 59.5,65.5 60.5,65.5 61.5,65.5 Z"/></g>
<g><path style="opacity:1" fill="#2a2a2a" d="M 73.5,64.5 C 75.924,64.1924 78.2573,64.5258 80.5,65.5C 72.6837,67.1504 72.5171,69.4838 80,72.5C 81.5126,76.7712 80.0126,79.1046 75.5,79.5C 73.8927,79.363 72.5594,78.6964 71.5,77.5C 73.396,76.5344 75.396,76.2011 77.5,76.5C 77.7804,73.6118 76.4471,72.1118 73.5,72C 70.9824,69.5212 70.9824,67.0212 73.5,64.5 Z"/></g>
<g><path style="opacity:1" fill="#787878" d="M 99.5,65.5 C 97.5698,69.3727 96.9031,73.706 97.5,78.5C 100.167,78.5 102.833,78.5 105.5,78.5C 102.713,79.4767 99.7131,79.81 96.5,79.5C 96.5,74.5 96.5,69.5 96.5,64.5C 97.791,64.2627 98.791,64.596 99.5,65.5 Z"/></g>
<g><path style="opacity:1" fill="#707070" d="M 107.5,67.5 C 107.875,71.4425 108.875,75.1091 110.5,78.5C 109.791,79.404 108.791,79.7373 107.5,79.5C 107.5,75.5 107.5,71.5 107.5,67.5 Z"/></g>
<g><path style="opacity:1" fill="#2b2b2b" d="M 145.5,64.5 C 152.569,64.7433 152.903,65.5766 146.5,67C 144.522,69.4973 144.022,72.3307 145,75.5C 147.473,76.1197 149.973,76.7864 152.5,77.5C 148.494,80.4695 144.994,79.8028 142,75.5C 140.662,70.9597 141.829,67.293 145.5,64.5 Z"/></g>
<g><path style="opacity:1" fill="#1a1a1a" d="M 85.5,65.5 C 85.335,68.8499 85.5017,72.1832 86,75.5C 87.6667,78.1667 89.3333,78.1667 91,75.5C 91.4983,72.1832 91.665,68.8499 91.5,65.5C 93.4023,68.3373 94.069,71.6707 93.5,75.5C 91.9131,79.0557 89.2464,80.2223 85.5,79C 84.1772,78.1841 83.5106,77.0174 83.5,75.5C 82.931,71.6707 83.5977,68.3373 85.5,65.5 Z"/></g>
<g><path style="opacity:1" fill="#151515" d="M 50.5,87.5 C 48.5,87.5 46.5,87.5 44.5,87.5C 44.5,89.1667 44.5,90.8333 44.5,92.5C 51.1667,92.8333 51.1667,93.1667 44.5,93.5C 44.5,95.1667 44.5,96.8333 44.5,98.5C 46.5,98.5 48.5,98.5 50.5,98.5C 48.3647,100.369 45.6981,101.036 42.5,100.5C 42.5,95.8333 42.5,91.1667 42.5,86.5C 45.3854,86.1936 48.0521,86.5269 50.5,87.5 Z"/></g>
<g><path style="opacity:1" fill="#121212" d="M 103.5,93.5 C 101.5,93.5 99.5,93.5 97.5,93.5C 97.5,95.1667 97.5,96.8333 97.5,98.5C 99.5,98.5 101.5,98.5 103.5,98.5C 101.052,99.4731 98.3854,99.8064 95.5,99.5C 95.5,95.1667 95.5,90.8333 95.5,86.5C 98.2469,86.1866 100.914,86.52 103.5,87.5C 101.955,88.4519 100.288,88.7852 98.5,88.5C 98.5,89.5 98.5,90.5 98.5,91.5C 100.781,91.0773 102.448,91.744 103.5,93.5 Z"/></g>
<g><path style="opacity:1" fill="#272727" d="M 33.5,85.5 C 35.9775,85.0508 37.9775,85.7175 39.5,87.5C 37.5,88.1667 35.5,88.8333 33.5,89.5C 35.2202,90.9197 37.0535,92.253 39,93.5C 39.9964,99.3339 37.4964,101.667 31.5,100.5C 31.0646,97.3873 32.0646,96.7207 34.5,98.5C 36.0004,98.5472 37.0004,97.8805 37.5,96.5C 35.9706,94.8119 34.1373,93.4786 32,92.5C 31.1668,89.829 31.6668,87.4957 33.5,85.5 Z"/></g>
<g><path style="opacity:1" fill="#1b1b1b" d="M 77.5,86.5 C 78.8001,88.223 79.4668,90.3897 79.5,93C 79.4668,95.6103 78.8001,97.777 77.5,99.5C 77.5,95.1667 77.5,90.8333 77.5,86.5 Z"/></g>
<g><path style="opacity:1" fill="#252525" d="M 87.5,97.5 C 89.5313,97.9724 91.1979,98.9724 92.5,100.5C 84.225,101.294 81.0583,97.627 83,89.5C 86.0905,85.3784 89.5905,84.7118 93.5,87.5C 90.9728,88.2136 88.4728,88.8803 86,89.5C 85.3333,91.8333 85.3333,94.1667 86,96.5C 86.3826,97.056 86.8826,97.3893 87.5,97.5 Z"/></g>
<g><path style="opacity:1" fill="#535353" d="M 77.5,86.5 C 78.209,85.596 79.209,85.2627 80.5,85.5C 80.5,90.5 80.5,95.5 80.5,100.5C 79.209,100.737 78.209,100.404 77.5,99.5C 78.8001,97.777 79.4668,95.6103 79.5,93C 79.4668,90.3897 78.8001,88.223 77.5,86.5 Z"/></g>
<g><path style="opacity:1" fill="#181818" d="M 53.5,86.5 C 55.8568,86.3367 58.1902,86.5034 60.5,87C 63.0801,89.1203 63.0801,91.287 60.5,93.5C 61.961,95.8109 62.2943,98.1442 61.5,100.5C 59.9309,99.286 59.0976,97.6193 59,95.5C 57.9887,94.6634 56.8221,94.33 55.5,94.5C 55.7989,96.604 55.4656,98.604 54.5,100.5C 53.5067,95.8804 53.1734,91.2137 53.5,86.5 Z"/></g>
<g><path style="opacity:1" fill="#c3c3c3" d="M 55.5,87.5 C 56.8333,87.5 58.1667,87.5 59.5,87.5C 59.5,89.1667 59.5,90.8333 59.5,92.5C 58.1667,92.5 56.8333,92.5 55.5,92.5C 55.5,90.8333 55.5,89.1667 55.5,87.5 Z"/></g>
<g><path style="opacity:1" fill="#7e7e7e" d="M 103.5,93.5 C 102.081,94.4511 100.415,94.7845 98.5,94.5C 98.5,95.5 98.5,96.5 98.5,97.5C 100.415,97.2155 102.081,97.5489 103.5,98.5C 101.5,98.5 99.5,98.5 97.5,98.5C 97.5,96.8333 97.5,95.1667 97.5,93.5C 99.5,93.5 101.5,93.5 103.5,93.5 Z"/></g>
<g><path style="opacity:1" fill="#7d7d7d" d="M 50.5,87.5 C 49.0813,88.4511 47.4147,88.7845 45.5,88.5C 45.5,89.5 45.5,90.5 45.5,91.5C 47.1667,91.5 48.8333,91.5 50.5,91.5C 50.5,92.5 50.5,93.5 50.5,94.5C 48.8333,94.5 47.1667,94.5 45.5,94.5C 45.5,95.5 45.5,96.5 45.5,97.5C 47.4147,97.2155 49.0813,97.5489 50.5,98.5C 48.5,98.5 46.5,98.5 44.5,98.5C 44.5,96.8333 44.5,95.1667 44.5,93.5C 51.1667,93.1667 51.1667,92.8333 44.5,92.5C 44.5,90.8333 44.5,89.1667 44.5,87.5C 46.5,87.5 48.5,87.5 50.5,87.5 Z"/></g>
<g><path style="opacity:1" fill="#1d1d1d" d="M 64.5,86.5 C 65.4959,86.4142 66.3292,86.7476 67,87.5C 69.4158,99.2905 71.2491,98.9572 72.5,86.5C 73.675,86.281 74.675,86.6143 75.5,87.5C 73.7578,91.7254 72.4245,96.0587 71.5,100.5C 70.1667,100.5 68.8333,100.5 67.5,100.5C 66.9149,95.7447 65.9149,91.078 64.5,86.5 Z"/></g>
<g><path style="opacity:1" fill="#9a9a9a" d="M 87.5,97.5 C 89.5,97.5 91.5,97.5 93.5,97.5C 93.7373,98.791 93.404,99.791 92.5,100.5C 91.1979,98.9724 89.5313,97.9724 87.5,97.5 Z"/></g>
<g><path style="opacity:1" fill="#212121" d="M 107.5,85.5 C 109.5,85.5 111.5,85.5 113.5,85.5C 113.911,88.2763 113.078,88.943 111,87.5C 109.72,87.6135 108.887,88.2801 108.5,89.5C 109.738,91.6374 111.571,92.9707 114,93.5C 115.489,97.8334 113.989,100.167 109.5,100.5C 107.681,100.658 106.348,99.9911 105.5,98.5C 107.343,98.2448 109.343,98.0781 111.5,98C 111.957,97.586 112.291,97.086 112.5,96.5C 110.462,94.7236 108.296,93.0569 106,91.5C 105.678,89.3111 106.178,87.3111 107.5,85.5 Z"/></g>
<g><path style="opacity:1" fill="#595959" d="M 103.5,98.5 C 104.043,98.56 104.376,98.8933 104.5,99.5C 101.355,100.803 98.3553,100.803 95.5,99.5C 98.3854,99.8064 101.052,99.4731 103.5,98.5 Z"/></g>
<g><path style="opacity:1" fill="#101010" d="M 33.5,112.5 C 35.7224,112.178 37.5557,112.845 39,114.5C 39.4983,117.817 39.665,121.15 39.5,124.5C 43.1817,124.335 46.8484,124.501 50.5,125C 53.1667,126.667 53.1667,128.333 50.5,130C 46.8484,130.499 43.1817,130.665 39.5,130.5C 39.3336,139.506 39.5002,148.506 40,157.5C 45.484,162.05 49.984,161.216 53.5,155C 48.7532,132.743 57.7532,122.743 80.5,125C 84.9933,125.656 86.66,127.989 85.5,132C 84.5,132.167 83.5,132.333 82.5,132.5C 65.4575,127.37 57.9575,133.703 60,151.5C 63.848,160.062 70.348,162.895 79.5,160C 81.96,158.542 84.1266,156.709 86,154.5C 88.8494,149.134 90.8494,143.468 92,137.5C 96.2452,124.544 104.579,120.877 117,126.5C 117.494,128.134 117.66,129.801 117.5,131.5C 112.84,130.833 108.174,130.667 103.5,131C 102.424,132.726 102.257,134.559 103,136.5C 105.592,139.762 108.759,142.262 112.5,144C 120.926,150.386 121.592,157.386 114.5,165C 107.274,168.759 100.441,168.259 94,163.5C 93.0851,161.08 93.9185,159.747 96.5,159.5C 100.042,161.091 103.709,161.591 107.5,161C 111.213,159.309 112.379,156.475 111,152.5C 106.592,148.714 102.092,145.047 97.5,141.5C 95.5487,149.57 91.882,156.736 86.5,163C 76.3018,169.315 66.4684,168.815 57,161.5C 52.2189,166.49 46.3855,168.323 39.5,167C 35.9421,165.108 33.4421,162.275 32,158.5C 31.3333,143.833 31.3333,129.167 32,114.5C 32.7172,113.956 33.2172,113.289 33.5,112.5 Z"/></g>
</svg>
