<?xml version="1.0" encoding="UTF-8"?>
<!DOCTYPE svg PUBLIC "-//W3C//DTD SVG 1.1//EN" "http://www.w3.org/Graphics/SVG/1.1/DTD/svg11.dtd">
<svg xmlns="http://www.w3.org/2000/svg" version="1.1" width="1000px" height="1000px" style="shape-rendering:geometricPrecision; text-rendering:geometricPrecision; image-rendering:optimizeQuality; fill-rule:evenodd; clip-rule:evenodd" xmlns:xlink="http://www.w3.org/1999/xlink">
<g><path style="opacity:0.933" fill="#3d86c6" d="M 476.5,348.5 C 515.019,344.14 551.352,350.974 585.5,369C 601.359,378.025 613.692,390.525 622.5,406.5C 610.349,404.584 598.015,402.417 585.5,400C 561.343,395.622 537.01,393.289 512.5,393C 508.367,393.801 506.534,396.301 507,400.5C 507.046,440.831 507.213,481.164 507.5,521.5C 502.5,521.5 497.5,521.5 492.5,521.5C 492.535,491.497 492.868,461.497 493.5,431.5C 493.625,419.446 493.125,407.446 492,395.5C 488.787,393.087 485.12,392.087 481,392.5C 446.519,394.31 412.519,399.31 379,407.5C 378.5,407.167 378,406.833 377.5,406.5C 386.308,390.525 398.641,378.025 414.5,369C 434.06,358.424 454.727,351.591 476.5,348.5 Z"/></g>
<g><path style="opacity:0.962" fill="#3d86c6" d="M 446.5,408.5 C 454.917,408.094 463.251,408.594 471.5,410C 476.265,412.102 478.598,415.768 478.5,421C 473.841,452.469 467.674,483.635 460,514.5C 459.481,515.516 458.647,516.182 457.5,516.5C 430.429,510.72 407.263,498.053 388,478.5C 373.34,461.351 368.174,441.684 372.5,419.5C 397.055,414.184 421.722,410.517 446.5,408.5 Z"/></g>
<g><path style="opacity:0.963" fill="#3d86c6" d="M 531.5,408.5 C 564.077,408.298 596.077,412.298 627.5,420.5C 631.517,440.43 627.35,458.43 615,474.5C 594.9,496.64 570.067,510.64 540.5,516.5C 533.324,487.784 527.49,458.784 523,429.5C 522.333,424.833 522.333,420.167 523,415.5C 524.851,411.843 527.684,409.51 531.5,408.5 Z"/></g>
<g><path style="opacity:0.888" fill="#3d86c6" d="M 773.5,561.5 C 779.176,561.334 784.843,561.501 790.5,562C 795.177,562.614 799.511,564.114 803.5,566.5C 802.033,570.069 800.866,573.736 800,577.5C 799.612,578.428 798.945,579.095 798,579.5C 790.404,576.66 782.571,575.826 774.5,577C 765.564,582.096 765.23,587.762 773.5,594C 783.005,597.335 791.838,601.835 800,607.5C 810.356,622.719 808.19,635.886 793.5,647C 790.833,648 788.167,649 785.5,650C 777.167,650.667 768.833,650.667 760.5,650C 756.737,649.08 753.237,647.58 750,645.5C 750.023,641.062 750.857,636.729 752.5,632.5C 753,632.167 753.5,631.833 754,631.5C 763.874,636.837 774.04,637.67 784.5,634C 788.714,629.8 789.548,624.966 787,619.5C 777.337,614.716 767.837,609.549 758.5,604C 749.33,594.476 748.163,583.976 755,572.5C 760.101,566.873 766.267,563.206 773.5,561.5 Z"/></g>
<g><path style="opacity:0.943" fill="#3d86c6" d="M 164.5,562.5 C 192.5,562.5 220.5,562.5 248.5,562.5C 248.5,571.5 248.5,580.5 248.5,589.5C 240.5,589.5 232.5,589.5 224.5,589.5C 224.5,609.833 224.5,630.167 224.5,650.5C 212.5,650.5 200.5,650.5 188.5,650.5C 188.5,630.167 188.5,609.833 188.5,589.5C 180.5,589.5 172.5,589.5 164.5,589.5C 164.5,580.5 164.5,571.5 164.5,562.5 Z"/></g>
<g><path style="opacity:0.933" fill="#3d86c6" d="M 270.5,562.5 C 283.184,562.168 295.851,562.501 308.5,563.5C 320.104,592.319 331.104,621.319 341.5,650.5C 329.814,650.832 318.148,650.499 306.5,649.5C 301.027,633.747 295.361,618.081 289.5,602.5C 283.926,618.389 278.26,634.223 272.5,650C 261.172,650.5 249.838,650.667 238.5,650.5C 248.599,620.966 259.266,591.633 270.5,562.5 Z"/></g>
<g><path style="opacity:0.938" fill="#3d86c6" d="M 331.5,562.5 C 359.833,562.5 388.167,562.5 416.5,562.5C 416.5,571.5 416.5,580.5 416.5,589.5C 408.5,589.5 400.5,589.5 392.5,589.5C 392.5,609.833 392.5,630.167 392.5,650.5C 380.5,650.5 368.5,650.5 356.5,650.5C 356.5,630.167 356.5,609.833 356.5,589.5C 348.167,589.5 339.833,589.5 331.5,589.5C 331.5,580.5 331.5,571.5 331.5,562.5 Z"/></g>
<g><path style="opacity:0.933" fill="#3d86c6" d="M 438.5,562.5 C 451.167,562.5 463.833,562.5 476.5,562.5C 487.5,591.833 498.5,621.167 509.5,650.5C 497.829,650.667 486.162,650.5 474.5,650C 469.128,634.049 463.461,618.215 457.5,602.5C 451.536,618.226 445.869,634.06 440.5,650C 428.833,650.667 417.167,650.667 405.5,650C 416.6,620.865 427.6,591.699 438.5,562.5 Z"/></g>
<g><path style="opacity:0.88" fill="#3d86c6" d="M 550.5,562.5 C 567.5,562.5 584.5,562.5 601.5,562.5C 601.5,567.5 601.5,572.5 601.5,577.5C 590.167,577.5 578.833,577.5 567.5,577.5C 567.5,584.167 567.5,590.833 567.5,597.5C 578.167,597.5 588.833,597.5 599.5,597.5C 599.5,602.5 599.5,607.5 599.5,612.5C 588.833,612.5 578.167,612.5 567.5,612.5C 567.5,620.167 567.5,627.833 567.5,635.5C 579.5,635.5 591.5,635.5 603.5,635.5C 603.5,640.5 603.5,645.5 603.5,650.5C 585.833,650.5 568.167,650.5 550.5,650.5C 550.5,621.167 550.5,591.833 550.5,562.5 Z"/></g>
<g><path style="opacity:0.851" fill="#3d86c6" d="M 615.5,562.5 C 621.425,562.192 627.259,562.525 633,563.5C 633.827,587.073 633.66,610.573 632.5,634C 644.162,634.5 655.829,634.667 667.5,634.5C 667.5,639.833 667.5,645.167 667.5,650.5C 650.167,650.5 632.833,650.5 615.5,650.5C 615.5,621.167 615.5,591.833 615.5,562.5 Z"/></g>
<g><path style="opacity:0.876" fill="#3d86c6" d="M 672.5,562.5 C 678.842,562.334 685.175,562.5 691.5,563C 696.979,572.794 702.312,582.628 707.5,592.5C 712.215,582.739 717.215,573.072 722.5,563.5C 729.167,562.167 735.833,562.167 742.5,563.5C 734.292,577.416 725.959,591.25 717.5,605C 725.623,619.415 734.123,633.582 743,647.5C 743.483,648.448 743.649,649.448 743.5,650.5C 737.158,650.666 730.825,650.5 724.5,650C 718.286,639.742 712.453,629.242 707,618.5C 701.373,628.921 695.873,639.421 690.5,650C 684.175,650.5 677.842,650.666 671.5,650.5C 671.491,648.692 671.991,647.025 673,645.5C 681.033,632.297 688.866,618.963 696.5,605.5C 688.919,592.002 681.085,578.669 673,565.5C 672.517,564.552 672.351,563.552 672.5,562.5 Z"/></g>
<g><path style="opacity:0.908" fill="#3d86c6" d="M 818.5,562.5 C 824.167,562.5 829.833,562.5 835.5,562.5C 835.5,591.833 835.5,621.167 835.5,650.5C 829.833,650.5 824.167,650.5 818.5,650.5C 818.5,621.167 818.5,591.833 818.5,562.5 Z"/></g>
</svg>
