<?xml version="1.0" encoding="UTF-8"?>
<!DOCTYPE svg PUBLIC "-//W3C//DTD SVG 1.1//EN" "http://www.w3.org/Graphics/SVG/1.1/DTD/svg11.dtd">
<svg xmlns="http://www.w3.org/2000/svg" version="1.1" width="200px" height="200px" style="shape-rendering:geometricPrecision; text-rendering:geometricPrecision; image-rendering:optimizeQuality; fill-rule:evenodd; clip-rule:evenodd" xmlns:xlink="http://www.w3.org/1999/xlink">
<g><path style="opacity:1" fill="#ec1c24" d="M -0.5,-0.5 C 66.1667,-0.5 132.833,-0.5 199.5,-0.5C 199.5,66.1667 199.5,132.833 199.5,199.5C 132.833,199.5 66.1667,199.5 -0.5,199.5C -0.5,132.833 -0.5,66.1667 -0.5,-0.5 Z"/></g>
<g><path style="opacity:1" fill="#ec9193" d="M 65.5,26.5 C 77.5,26.5 89.5,26.5 101.5,26.5C 101.5,35.5 101.5,44.5 101.5,53.5C 104.385,53.1936 107.052,53.5269 109.5,54.5C 106.5,54.5 103.5,54.5 100.5,54.5C 100.5,45.5 100.5,36.5 100.5,27.5C 89.1667,27.5 77.8333,27.5 66.5,27.5C 66.5,45.8333 66.5,64.1667 66.5,82.5C 66.1667,82.5 65.8333,82.5 65.5,82.5C 65.5,63.8333 65.5,45.1667 65.5,26.5 Z"/></g>
<g><path style="opacity:1" fill="#e13034" d="M 165.5,54.5 C 155.833,54.5 146.167,54.5 136.5,54.5C 136.449,59.1872 135.449,63.5206 133.5,67.5C 134.46,63.8053 134.46,60.1386 133.5,56.5C 131.029,61.1485 129.863,66.1485 130,71.5C 129.329,72.2524 128.496,72.5858 127.5,72.5C 128.139,67.3039 129.139,62.3039 130.5,57.5C 131.434,56.4324 131.768,55.099 131.5,53.5C 126.5,53.5 121.5,53.5 116.5,53.5C 120.982,52.6745 125.649,52.1745 130.5,52C 126.097,50.8651 121.597,50.0318 117,49.5C 115.496,45.9613 115.163,42.2946 116,38.5C 116.333,39.8333 116.667,41.1667 117,42.5C 117.85,39.591 119.017,36.9243 120.5,34.5C 119.555,39.114 118.888,43.7807 118.5,48.5C 123.167,48.5 127.833,48.5 132.5,48.5C 132.779,43.7732 133.446,39.1065 134.5,34.5C 135.833,34.5 137.167,34.5 138.5,34.5C 138.5,33.5 138.5,32.5 138.5,31.5C 139.5,31.5 140.5,31.5 141.5,31.5C 140.833,33.8333 140.167,36.1667 139.5,38.5C 137.857,38.4802 136.524,39.1468 135.5,40.5C 134.767,44.1739 134.101,47.8406 133.5,51.5C 133.709,52.086 134.043,52.586 134.5,53C 145.008,53.1697 155.341,53.6697 165.5,54.5 Z"/></g>
<g><path style="opacity:1" fill="#fcf3f2" d="M 120.5,34.5 C 125.167,34.5 129.833,34.5 134.5,34.5C 133.446,39.1065 132.779,43.7732 132.5,48.5C 127.833,48.5 123.167,48.5 118.5,48.5C 118.888,43.7807 119.555,39.114 120.5,34.5 Z"/></g>
<g><path style="opacity:1" fill="#cf5759" d="M 116.5,54.5 C 116.5,54.1667 116.5,53.8333 116.5,53.5C 121.5,53.5 126.5,53.5 131.5,53.5C 131.768,55.099 131.434,56.4324 130.5,57.5C 130.5,56.5 130.5,55.5 130.5,54.5C 125.833,54.5 121.167,54.5 116.5,54.5 Z"/></g>
<g><path style="opacity:1" fill="#fdfbfb" d="M 109.5,54.5 C 109.092,59.5368 108.426,64.5368 107.5,69.5C 107.5,70.5 107.5,71.5 107.5,72.5C 103.774,72.1774 100.107,72.5108 96.5,73.5C 95.5827,76.7577 95.2493,80.091 95.5,83.5C 93.7202,84.9899 93.0535,86.9899 93.5,89.5C 96.8333,89.5 100.167,89.5 103.5,89.5C 100.363,102.036 98.1965,114.703 97,127.5C 97.3768,128.942 98.2101,129.942 99.5,130.5C 100.429,131.315 101.429,132.148 102.5,133C 112.167,133.667 121.833,133.667 131.5,133C 132.406,131.301 132.739,129.467 132.5,127.5C 133.49,123.614 134.49,119.614 135.5,115.5C 132.287,115.81 129.287,115.477 126.5,114.5C 126.616,111.14 126.949,107.807 127.5,104.5C 127.5,103.167 127.5,101.833 127.5,100.5C 128.924,98.4855 129.59,96.1522 129.5,93.5C 129.5,92.1667 129.5,90.8333 129.5,89.5C 133.226,89.8226 136.893,89.4892 140.5,88.5C 141.337,83.1318 142.337,77.7985 143.5,72.5C 140.167,72.5 136.833,72.5 133.5,72.5C 133.5,70.8333 133.5,69.1667 133.5,67.5C 135.449,63.5206 136.449,59.1872 136.5,54.5C 146.167,54.5 155.833,54.5 165.5,54.5C 166.329,61.989 166.829,69.6557 167,77.5C 167.733,82.055 169.9,85.7217 173.5,88.5C 174.499,98.4778 174.832,108.478 174.5,118.5C 160.088,121.122 147.922,127.788 138,138.5C 136.606,140.388 135.44,142.388 134.5,144.5C 133.442,145.6 132.608,146.934 132,148.5C 131.029,155.466 131.529,162.299 133.5,169C 132.314,170.412 130.981,171.579 129.5,172.5C 115.693,172.345 105.193,166.345 98,154.5C 93.2883,145.707 88.955,136.707 85,127.5C 77.4333,117.84 70.2666,118.173 63.5,128.5C 57.8493,130.559 53.1827,129.226 49.5,124.5C 46.6956,118.219 43.8622,111.885 41,105.5C 39.871,103.859 38.371,102.859 36.5,102.5C 34.205,99.7029 31.705,97.0362 29,94.5C 27.0468,91.7449 25.8801,88.7449 25.5,85.5C 38.9695,83.8393 52.6361,82.8393 66.5,82.5C 66.5,64.1667 66.5,45.8333 66.5,27.5C 77.8333,27.5 89.1667,27.5 100.5,27.5C 100.5,36.5 100.5,45.5 100.5,54.5C 103.5,54.5 106.5,54.5 109.5,54.5 Z"/></g>
<g><path style="opacity:1" fill="#fcf9f8" d="M 116.5,54.5 C 121.167,54.5 125.833,54.5 130.5,54.5C 130.5,55.5 130.5,56.5 130.5,57.5C 129.139,62.3039 128.139,67.3039 127.5,72.5C 125.133,82.7241 123.133,93.0575 121.5,103.5C 120.082,107.287 119.082,111.287 118.5,115.5C 114.167,115.5 109.833,115.5 105.5,115.5C 105.5,114.167 105.5,112.833 105.5,111.5C 108.322,98.9232 110.655,86.2565 112.5,73.5C 114.324,67.3862 115.657,61.0529 116.5,54.5 Z"/></g>
<g><path style="opacity:1" fill="#e0363f" d="M 116.5,54.5 C 115.657,61.0529 114.324,67.3862 112.5,73.5C 112.867,67.8277 113.367,62.161 114,56.5C 114.708,55.6195 115.542,54.9528 116.5,54.5 Z"/></g>
<g><path style="opacity:1" fill="#e34d4f" d="M 109.5,54.5 C 111.227,59.8471 110.56,64.8471 107.5,69.5C 108.426,64.5368 109.092,59.5368 109.5,54.5 Z"/></g>
<g><path style="opacity:1" fill="#ffa9b2" d="M 65.5,82.5 C 65.8333,82.5 66.1667,82.5 66.5,82.5C 52.6361,82.8393 38.9695,83.8393 25.5,85.5C 24.596,84.791 24.2627,83.791 24.5,82.5C 38.1667,82.5 51.8333,82.5 65.5,82.5 Z"/></g>
<g><path style="opacity:1" fill="#df4451" d="M 95.5,83.5 C 95.5,85.1667 95.5,86.8333 95.5,88.5C 98.3854,88.1936 101.052,88.5269 103.5,89.5C 100.167,89.5 96.8333,89.5 93.5,89.5C 93.0535,86.9899 93.7202,84.9899 95.5,83.5 Z"/></g>
<g><path style="opacity:1" fill="#df2b31" d="M 65.5,26.5 C 65.5,45.1667 65.5,63.8333 65.5,82.5C 51.8333,82.5 38.1667,82.5 24.5,82.5C 24.2627,83.791 24.596,84.791 25.5,85.5C 25.8801,88.7449 27.0468,91.7449 29,94.5C 31.705,97.0362 34.205,99.7029 36.5,102.5C 34.0557,100.298 31.0557,99.1313 27.5,99C 26.842,97.0955 25.6753,95.5955 24,94.5C 24.4482,89.6225 23.9482,84.7891 22.5,80C 36.2986,81.4209 50.2986,81.9209 64.5,81.5C 64.1698,62.9924 64.5032,44.6591 65.5,26.5 Z"/></g>
<g><path style="opacity:1" fill="#e0858d" d="M 129.5,93.5 C 129.59,96.1522 128.924,98.4855 127.5,100.5C 127.171,97.7718 127.837,95.4385 129.5,93.5 Z"/></g>
<g><path style="opacity:1" fill="#f9aaae" d="M 127.5,104.5 C 126.949,107.807 126.616,111.14 126.5,114.5C 125.135,111.041 125.469,107.708 127.5,104.5 Z"/></g>
<g><path style="opacity:1" fill="#e05351" d="M 121.5,103.5 C 121.495,107.534 121.162,111.534 120.5,115.5C 119.833,115.5 119.167,115.5 118.5,115.5C 119.082,111.287 120.082,107.287 121.5,103.5 Z"/></g>
<g><path style="opacity:1" fill="#e92629" d="M 133.5,67.5 C 133.5,69.1667 133.5,70.8333 133.5,72.5C 136.833,72.5 140.167,72.5 143.5,72.5C 142.337,77.7985 141.337,83.1318 140.5,88.5C 136.893,89.4892 133.226,89.8226 129.5,89.5C 129.5,90.8333 129.5,92.1667 129.5,93.5C 127.837,95.4385 127.171,97.7718 127.5,100.5C 127.5,101.833 127.5,103.167 127.5,104.5C 125.469,107.708 125.135,111.041 126.5,114.5C 129.287,115.477 132.287,115.81 135.5,115.5C 134.49,119.614 133.49,123.614 132.5,127.5C 132.664,124.813 132.497,122.146 132,119.5C 129.184,119.179 126.351,119.013 123.5,119C 121.574,118.578 120.574,117.411 120.5,115.5C 121.162,111.534 121.495,107.534 121.5,103.5C 123.133,93.0575 125.133,82.7241 127.5,72.5C 128.496,72.5858 129.329,72.2524 130,71.5C 129.863,66.1485 131.029,61.1485 133.5,56.5C 134.46,60.1386 134.46,63.8053 133.5,67.5 Z"/></g>
<g><path style="opacity:1" fill="#fb8087" d="M 105.5,111.5 C 105.5,112.833 105.5,114.167 105.5,115.5C 109.833,115.5 114.167,115.5 118.5,115.5C 114.03,116.486 109.363,116.819 104.5,116.5C 104.216,114.585 104.549,112.919 105.5,111.5 Z"/></g>
<g><path style="opacity:1" fill="#de353a" d="M 49.5,124.5 C 53.1827,129.226 57.8493,130.559 63.5,128.5C 62.3064,129.777 60.6397,130.444 58.5,130.5C 54.7007,130.268 51.034,129.435 47.5,128C 48.9733,127.29 49.6399,126.124 49.5,124.5 Z"/></g>
<g><path style="opacity:1" fill="#e3272e" d="M 132.5,127.5 C 132.739,129.467 132.406,131.301 131.5,133C 121.833,133.667 112.167,133.667 102.5,133C 101.429,132.148 100.429,131.315 99.5,130.5C 102.684,129.357 106.017,128.691 109.5,128.5C 109.773,126.549 109.107,125.049 107.5,124C 109.167,122 110.833,122 112.5,124C 111.62,125.356 111.286,126.856 111.5,128.5C 116.875,128.172 122.208,128.505 127.5,129.5C 120.167,130.167 112.833,130.833 105.5,131.5C 113.807,132.498 122.14,132.831 130.5,132.5C 130.12,130.302 130.787,128.635 132.5,127.5 Z"/></g>
<g><path style="opacity:1" fill="#de3d40" d="M 134.5,144.5 C 131.687,153.244 132.02,161.91 135.5,170.5C 133.827,172.086 131.827,172.753 129.5,172.5C 130.981,171.579 132.314,170.412 133.5,169C 131.529,162.299 131.029,155.466 132,148.5C 132.608,146.934 133.442,145.6 134.5,144.5 Z"/></g>
</svg>
