<?xml version="1.0" encoding="UTF-8"?>
<!DOCTYPE svg PUBLIC "-//W3C//DTD SVG 1.1//EN" "http://www.w3.org/Graphics/SVG/1.1/DTD/svg11.dtd">
<svg xmlns="http://www.w3.org/2000/svg" version="1.1" width="1000px" height="1000px" style="shape-rendering:geometricPrecision; text-rendering:geometricPrecision; image-rendering:optimizeQuality; fill-rule:evenodd; clip-rule:evenodd" xmlns:xlink="http://www.w3.org/1999/xlink">
<g><path style="opacity:0.952" fill="#221f1f" d="M 300.5,279.5 C 315.833,279.5 331.167,279.5 346.5,279.5C 346.333,313.835 346.5,348.168 347,382.5C 349.875,397.544 359.041,405.544 374.5,406.5C 387.489,405.991 395.989,399.658 400,387.5C 401.454,351.531 401.954,315.531 401.5,279.5C 417.167,279.5 432.833,279.5 448.5,279.5C 448.833,317.173 448.5,354.839 447.5,392.5C 442.91,418.592 428.243,436.426 403.5,446C 380.363,451.704 357.696,450.37 335.5,442C 316.978,431.801 305.644,416.301 301.5,395.5C 300.5,356.839 300.167,318.172 300.5,279.5 Z"/></g>
<g><path style="opacity:0.906" fill="#221f1f" d="M 593.5,327.5 C 615.51,327.167 637.51,327.5 659.5,328.5C 660.833,349.833 660.833,371.167 659.5,392.5C 637.51,393.5 615.51,393.833 593.5,393.5C 593.5,371.5 593.5,349.5 593.5,327.5 Z"/></g>
<g><path style="opacity:0.94" fill="#221f1f" d="M 364.5,545.5 C 374.878,545.196 385.211,545.696 395.5,547C 414.672,550.752 429.672,560.752 440.5,577C 431.288,585.377 421.621,593.211 411.5,600.5C 396.847,587.803 380.18,583.97 361.5,589C 359.351,590.152 357.518,591.652 356,593.5C 355.746,596.195 355.579,598.695 355.5,601C 360.832,606.167 367.165,609.5 374.5,611C 392.194,613.916 408.861,619.583 424.5,628C 447.932,645.646 452.765,667.479 439,693.5C 427.435,707.076 412.935,715.576 395.5,719C 367.101,724.286 341.101,719.119 317.5,703.5C 313.208,699.71 309.042,695.71 305,691.5C 303.369,689.045 303.203,686.545 304.5,684C 313.539,676.822 322.539,669.656 331.5,662.5C 348.542,679.594 368.542,684.427 391.5,677C 394.167,675.667 396.167,673.667 397.5,671C 397.5,669.333 397.5,667.667 397.5,666C 394.103,662.06 389.769,659.393 384.5,658C 366.022,655.055 348.688,649.055 332.5,640C 305.941,620.557 301.108,596.724 318,568.5C 330.665,554.971 346.165,547.304 364.5,545.5 Z"/></g>
<g><path style="opacity:0.927" fill="#221f1f" d="M 555.5,549.5 C 603.167,549.5 650.833,549.5 698.5,549.5C 698.5,563.5 698.5,577.5 698.5,591.5C 682.5,591.5 666.5,591.5 650.5,591.5C 650.5,632.5 650.5,673.5 650.5,714.5C 634.5,714.5 618.5,714.5 602.5,714.5C 602.17,673.594 602.503,632.761 603.5,592C 587.17,591.5 570.837,591.333 554.5,591.5C 554.185,577.421 554.518,563.421 555.5,549.5 Z"/></g>
</svg>
