<?xml version="1.0" encoding="UTF-8"?>
<!DOCTYPE svg PUBLIC "-//W3C//DTD SVG 1.1//EN" "http://www.w3.org/Graphics/SVG/1.1/DTD/svg11.dtd">
<svg xmlns="http://www.w3.org/2000/svg" version="1.1" width="200px" height="200px" style="shape-rendering:geometricPrecision; text-rendering:geometricPrecision; image-rendering:optimizeQuality; fill-rule:evenodd; clip-rule:evenodd" xmlns:xlink="http://www.w3.org/1999/xlink">
<g><path style="opacity:1" fill="#f6f6f6" d="M -0.5,-0.5 C 66.1667,-0.5 132.833,-0.5 199.5,-0.5C 199.5,66.1667 199.5,132.833 199.5,199.5C 132.833,199.5 66.1667,199.5 -0.5,199.5C -0.5,132.833 -0.5,66.1667 -0.5,-0.5 Z"/></g>
<g><path style="opacity:1" fill="#fdfdfd" d="M 95.5,1.5 C 106.236,2.07358 116.903,3.24025 127.5,5C 133.101,8.24444 139.101,10.5778 145.5,12C 147.167,13.6667 148.833,15.3333 150.5,17C 157.798,20.1248 163.464,24.9581 167.5,31.5C 174.04,35.5326 178.874,41.1992 182,48.5C 186.502,51.5889 188.836,55.9222 189,61.5C 190.787,64.7903 192.454,68.1236 194,71.5C 195.486,80.7835 196.653,90.1169 197.5,99.5C 196.653,108.883 195.486,118.216 194,127.5C 190.756,133.101 188.422,139.101 187,145.5C 182.761,149.854 179.428,154.854 177,160.5C 173.9,163.126 170.733,165.459 167.5,167.5C 163.464,174.042 157.798,178.875 150.5,182C 147.366,186.501 143.033,188.834 137.5,189C 134.21,190.787 130.876,192.454 127.5,194C 118.216,195.486 108.883,196.653 99.5,197.5C 90.1169,196.653 80.7835,195.486 71.5,194C 65.8989,190.756 59.8989,188.422 53.5,187C 51.8333,185.333 50.1667,183.667 48.5,182C 41.2025,178.875 35.5358,174.042 31.5,167.5C 24.9598,163.467 20.1264,157.801 17,150.5C 12.4977,147.411 10.1643,143.078 10,137.5C 8.21274,134.21 6.54608,130.876 5,127.5C 3.51366,118.216 2.34699,108.883 1.5,99.5C 2.34699,90.1169 3.51366,80.7835 5,71.5C 8.53008,66.7495 10.8634,61.4161 12,55.5C 15.7078,48.9013 19.8745,42.568 24.5,36.5C 26.6289,34.3438 28.9622,32.6771 31.5,31.5C 33.8934,27.597 36.8934,24.097 40.5,21C 45.9974,18.7546 50.9974,15.7546 55.5,12C 61.4161,10.8634 66.7495,8.53008 71.5,5C 79.6897,4.14591 87.6897,2.97925 95.5,1.5 Z"/></g>
<g><path style="opacity:1" fill="#f9fcfb" d="M 97.5,81.5 C 97.6516,87.6985 98.3182,93.6985 99.5,99.5C 98.2315,103.632 96.5648,107.632 94.5,111.5C 93.7065,111.931 92.8732,112.265 92,112.5C 85.7492,109.956 79.5825,107.289 73.5,104.5C 73.0183,100.127 72.3516,95.7936 71.5,91.5C 72.3708,85.3901 74.7041,79.8901 78.5,75C 84.9327,76.6448 91.266,78.8115 97.5,81.5 Z"/></g>
<g><path style="opacity:1" fill="#3673b0" d="M 134.5,77.5 C 133.5,77.8333 132.833,78.5 132.5,79.5C 131.833,79.5 131.167,79.5 130.5,79.5C 122.781,79.6203 115.114,80.2869 107.5,81.5C 104.715,80.9162 103.048,81.9162 102.5,84.5C 102.5,87.1667 102.5,89.8333 102.5,92.5C 102.113,95.2061 101.113,97.5395 99.5,99.5C 98.3182,93.6985 97.6516,87.6985 97.5,81.5C 98.8333,80.8333 99.8333,79.8333 100.5,78.5C 111.007,75.9756 121.673,74.809 132.5,75C 133.381,75.7083 134.047,76.5416 134.5,77.5 Z"/></g>
<g><path style="opacity:1" fill="#e5b654" d="M 134.5,77.5 C 144.506,77.3335 154.506,77.5002 164.5,78C 165.056,78.3826 165.389,78.8826 165.5,79.5C 154.5,78.1667 143.5,78.1667 132.5,79.5C 132.833,78.5 133.5,77.8333 134.5,77.5 Z"/></g>
<g><path style="opacity:1" fill="#2a9956" d="M 100.5,78.5 C 99.8333,79.8333 98.8333,80.8333 97.5,81.5C 91.266,78.8115 84.9327,76.6448 78.5,75C 74.7041,79.8901 72.3708,85.3901 71.5,91.5C 69.2239,91.7565 68.0572,93.0898 68,95.5C 68.1214,99.3479 67.9547,103.015 67.5,106.5C 64.1263,105.309 62.4596,102.809 62.5,99C 63.6996,94.7731 65.033,90.6064 66.5,86.5C 68.3465,84.9699 69.3465,82.9699 69.5,80.5C 71.2258,78.0578 72.7258,75.3911 74,72.5C 75.255,70.4062 77.0884,69.4062 79.5,69.5C 86.7521,71.9172 93.7521,74.9172 100.5,78.5 Z"/></g>
<g><path style="opacity:1" fill="#fbfaf9" d="M 66.5,86.5 C 65.033,90.6064 63.6996,94.7731 62.5,99C 62.4596,102.809 64.1263,105.309 67.5,106.5C 67.5,106.833 67.5,107.167 67.5,107.5C 67.0825,108.222 66.4158,108.722 65.5,109C 59.4746,109.727 53.4746,110.56 47.5,111.5C 44.7342,112.232 42.0675,112.232 39.5,111.5C 37.1276,102.077 36.1276,92.5771 36.5,83C 44.6309,81.5077 52.7976,80.0077 61,78.5C 62.2259,78.6448 63.3926,78.9781 64.5,79.5C 65.1681,81.9688 65.8347,84.3021 66.5,86.5 Z"/></g>
<g><path style="opacity:1" fill="#fafbf8" d="M 130.5,79.5 C 129.526,89.4176 129.193,99.4176 129.5,109.5C 121.905,111.126 114.238,111.959 106.5,112C 105.748,111.329 105.414,110.496 105.5,109.5C 105.167,106.833 104.833,104.167 104.5,101.5C 105.987,97.8546 107.487,94.188 109,90.5C 109.932,87.1769 109.432,84.1769 107.5,81.5C 115.114,80.2869 122.781,79.6203 130.5,79.5 Z"/></g>
<g><path style="opacity:1" fill="#f7b128" d="M 165.5,79.5 C 166.75,79.5774 167.583,80.244 168,81.5C 168.667,92.1667 168.667,102.833 168,113.5C 166.22,114.639 164.386,115.639 162.5,116.5C 152.448,116.784 142.448,116.45 132.5,115.5C 141.324,114.67 150.324,114.17 159.5,114C 160.737,113.768 161.737,113.268 162.5,112.5C 162.5,111.833 162.833,111.5 163.5,111.5C 164.658,101.675 164.825,91.6753 164,81.5C 153.863,80.1761 143.697,80.1761 133.5,81.5C 132.702,81.0431 132.369,80.3764 132.5,79.5C 143.5,78.1667 154.5,78.1667 165.5,79.5 Z"/></g>
<g><path style="opacity:1" fill="#fdfdf9" d="M 137.5,82.5 C 146.167,82.5 154.833,82.5 163.5,82.5C 163.5,92.1667 163.5,101.833 163.5,111.5C 162.833,111.5 162.5,111.833 162.5,112.5C 153.983,112.826 145.65,112.493 137.5,111.5C 138.222,111.082 138.722,110.416 139,109.5C 139.544,100.445 139.044,91.4446 137.5,82.5 Z"/></g>
<g><path style="opacity:1" fill="#db3936" d="M 69.5,80.5 C 69.3465,82.9699 68.3465,84.9699 66.5,86.5C 65.8347,84.3021 65.1681,81.9688 64.5,79.5C 63.3926,78.9781 62.2259,78.6448 61,78.5C 52.7976,80.0077 44.6309,81.5077 36.5,83C 36.1276,92.5771 37.1276,102.077 39.5,111.5C 38.3065,111.03 37.6399,110.03 37.5,108.5C 37.1108,105.108 36.4442,101.775 35.5,98.5C 34.2428,103.929 34.5761,109.263 36.5,114.5C 35.207,113.158 34.3736,111.491 34,109.5C 33.3248,103.115 32.3248,96.782 31,90.5C 29.3451,85.0633 30.8451,80.8966 35.5,78C 45.1216,76.0062 54.7883,74.6729 64.5,74C 66.7899,75.7772 68.4566,77.9438 69.5,80.5 Z"/></g>
<g><path style="opacity:1" fill="#c8efe8" d="M 102.5,84.5 C 106.234,86.99 106.234,89.6567 102.5,92.5C 102.5,89.8333 102.5,87.1667 102.5,84.5 Z"/></g>
<g><path style="opacity:1" fill="#edbf5d" d="M 130.5,79.5 C 131.167,79.5 131.833,79.5 132.5,79.5C 132.369,80.3764 132.702,81.0431 133.5,81.5C 143.697,80.1761 153.863,80.1761 164,81.5C 164.825,91.6753 164.658,101.675 163.5,111.5C 163.5,101.833 163.5,92.1667 163.5,82.5C 154.833,82.5 146.167,82.5 137.5,82.5C 136.178,82.33 135.011,82.6634 134,83.5C 133.501,87.4862 133.334,91.4862 133.5,95.5C 133.5,99.8333 133.5,104.167 133.5,108.5C 132.432,109.434 131.099,109.768 129.5,109.5C 129.193,99.4176 129.526,89.4176 130.5,79.5 Z"/></g>
<g><path style="opacity:1" fill="#3871ae" d="M 137.5,82.5 C 139.044,91.4446 139.544,100.445 139,109.5C 138.722,110.416 138.222,111.082 137.5,111.5C 135.588,112.799 133.588,113.799 131.5,114.5C 122.51,115.444 113.51,115.944 104.5,116C 102.859,114.871 101.859,113.371 101.5,111.5C 101.534,107.421 102.867,106.754 105.5,109.5C 105.414,110.496 105.748,111.329 106.5,112C 114.238,111.959 121.905,111.126 129.5,109.5C 131.099,109.768 132.432,109.434 133.5,108.5C 134.993,107.688 135.66,106.355 135.5,104.5C 135.14,101.298 134.474,98.2979 133.5,95.5C 133.334,91.4862 133.501,87.4862 134,83.5C 135.011,82.6634 136.178,82.33 137.5,82.5 Z"/></g>
<g><path style="opacity:1" fill="#c84c3e" d="M 71.5,91.5 C 72.3516,95.7936 73.0183,100.127 73.5,104.5C 73.5,106.167 73.5,107.833 73.5,109.5C 73.1667,109.5 72.8333,109.5 72.5,109.5C 72.8747,106.603 72.3747,103.937 71,101.5C 70.6667,103.167 70.3333,104.833 70,106.5C 69.3292,107.252 68.4959,107.586 67.5,107.5C 67.5,107.167 67.5,106.833 67.5,106.5C 67.9547,103.015 68.1214,99.3479 68,95.5C 68.0572,93.0898 69.2239,91.7565 71.5,91.5 Z"/></g>
<g><path style="opacity:1" fill="#feb105" d="M 130.5,82.5 C 131.825,86.4451 132.492,90.7784 132.5,95.5C 132.167,99.8333 131.833,104.167 131.5,108.5C 130.502,99.8589 130.169,91.1922 130.5,82.5 Z"/></g>
<g><path style="opacity:1" fill="#eceee5" d="M 133.5,95.5 C 134.474,98.2979 135.14,101.298 135.5,104.5C 135.66,106.355 134.993,107.688 133.5,108.5C 133.5,104.167 133.5,99.8333 133.5,95.5 Z"/></g>
<g><path style="opacity:1" fill="#3e859d" d="M 104.5,101.5 C 104.833,104.167 105.167,106.833 105.5,109.5C 102.867,106.754 101.534,107.421 101.5,111.5C 100.833,111.167 100.167,110.833 99.5,110.5C 100.41,107.008 102.076,104.008 104.5,101.5 Z"/></g>
<g><path style="opacity:1" fill="#df2f2d" d="M 72.5,109.5 C 71.089,111.539 69.089,112.539 66.5,112.5C 60.1667,113.167 53.8333,113.833 47.5,114.5C 47.5,113.5 47.5,112.5 47.5,111.5C 53.4746,110.56 59.4746,109.727 65.5,109C 66.4158,108.722 67.0825,108.222 67.5,107.5C 68.4959,107.586 69.3292,107.252 70,106.5C 70.3333,104.833 70.6667,103.167 71,101.5C 72.3747,103.937 72.8747,106.603 72.5,109.5 Z"/></g>
<g><path style="opacity:1" fill="#e42524" d="M 39.5,111.5 C 39.4142,112.496 39.7476,113.329 40.5,114C 41.8333,114.333 43.1667,114.667 44.5,115C 41.7795,115.602 39.1128,115.435 36.5,114.5C 34.5761,109.263 34.2428,103.929 35.5,98.5C 36.4442,101.775 37.1108,105.108 37.5,108.5C 37.6399,110.03 38.3065,111.03 39.5,111.5 Z"/></g>
<g><path style="opacity:1" fill="#1f9954" d="M 107.5,81.5 C 109.432,84.1769 109.932,87.1769 109,90.5C 107.487,94.188 105.987,97.8546 104.5,101.5C 102.076,104.008 100.41,107.008 99.5,110.5C 98.788,114.876 96.1213,116.876 91.5,116.5C 85.166,114.946 79.166,112.612 73.5,109.5C 73.5,107.833 73.5,106.167 73.5,104.5C 79.5825,107.289 85.7492,109.956 92,112.5C 92.8732,112.265 93.7065,111.931 94.5,111.5C 96.5648,107.632 98.2315,103.632 99.5,99.5C 101.113,97.5395 102.113,95.2061 102.5,92.5C 106.234,89.6567 106.234,86.99 102.5,84.5C 103.048,81.9162 104.715,80.9162 107.5,81.5 Z"/></g>
<g><path style="opacity:1" fill="#e9b345" d="M 137.5,111.5 C 145.65,112.493 153.983,112.826 162.5,112.5C 161.737,113.268 160.737,113.768 159.5,114C 150.324,114.17 141.324,114.67 132.5,115.5C 131.833,115.5 131.5,115.167 131.5,114.5C 133.588,113.799 135.588,112.799 137.5,111.5 Z"/></g>
<g><path style="opacity:1" fill="#d5413e" d="M 39.5,111.5 C 42.0675,112.232 44.7342,112.232 47.5,111.5C 47.5,112.5 47.5,113.5 47.5,114.5C 53.8333,113.833 60.1667,113.167 66.5,112.5C 58.396,114.624 50.0627,116.29 41.5,117.5C 39.3076,117.243 37.6409,116.243 36.5,114.5C 39.1128,115.435 41.7795,115.602 44.5,115C 43.1667,114.667 41.8333,114.333 40.5,114C 39.7476,113.329 39.4142,112.496 39.5,111.5 Z"/></g>
<g><path style="opacity:1" fill="#fad27e" d="M 132.5,115.5 C 142.448,116.45 152.448,116.784 162.5,116.5C 153.009,117.658 143.342,117.825 133.5,117C 132.944,116.617 132.611,116.117 132.5,115.5 Z"/></g>
<g><path style="opacity:1" fill="#3a3634" d="M 103.5,122.5 C 104.756,122.904 105.923,123.571 107,124.5C 107.945,124.095 108.612,123.428 109,122.5C 109.667,124.5 109.667,126.5 109,128.5C 108.29,127.027 107.124,126.36 105.5,126.5C 105.719,127.675 105.386,128.675 104.5,129.5C 103.526,127.257 103.192,124.924 103.5,122.5 Z"/></g>
<g><path style="opacity:1" fill="#2e2d2d" d="M 120.5,122.5 C 126.555,121.942 127.888,124.109 124.5,129C 119.57,129.427 118.237,127.26 120.5,122.5 Z"/></g>
<g><path style="opacity:1" fill="#e1e1e1" d="M 121.5,123.5 C 122.5,123.5 123.5,123.5 124.5,123.5C 124.5,124.833 124.5,126.167 124.5,127.5C 123.167,127.5 121.833,127.5 120.5,127.5C 120.433,126.041 120.766,124.708 121.5,123.5 Z"/></g>
<g><path style="opacity:1" fill="#2d2d2c" d="M 88.5,122.5 C 94.5548,121.942 95.8881,124.109 92.5,129C 87.5705,129.427 86.2372,127.26 88.5,122.5 Z"/></g>
<g><path style="opacity:1" fill="#e7e7e7" d="M 89.5,123.5 C 91.9118,123.694 92.9118,125.027 92.5,127.5C 91.1667,127.5 89.8333,127.5 88.5,127.5C 88.4326,126.041 88.7659,124.708 89.5,123.5 Z"/></g>
<g><path style="opacity:1" fill="#4d4c4c" d="M 73.5,123.5 C 74.9464,122.387 76.6131,122.22 78.5,123C 75.2329,125.444 75.2329,127.277 78.5,128.5C 72.3485,130.175 71.3485,128.842 75.5,124.5C 75.0431,123.702 74.3764,123.369 73.5,123.5 Z"/></g>
</svg>
